<?xml version="1.0" standalone="no"?>
<!DOCTYPE svg PUBLIC "-//W3C//DTD SVG 20010904//EN"
 "http://www.w3.org/TR/2001/REC-SVG-20010904/DTD/svg10.dtd">
<svg version="1.0" xmlns="http://www.w3.org/2000/svg"
 width="400.000000pt" height="400.000000pt" viewBox="0 0 400.000000 400.000000"
 preserveAspectRatio="xMidYMid meet">
<metadata>
Created by potrace 1.14, written by Peter Selinger 2001-2017
</metadata>
<g transform="translate(0.000000,400.000000) scale(0.100000,-0.100000)"
fill="#000000" stroke="none">
<path d="M0 2000 l0 -2000 2000 0 2000 0 0 2000 0 2000 -2000 0 -2000 0 0
-2000z m2146 778 c2 -3 -490 -1210 -626 -1535 -8 -19 -18 -23 -52 -24 -57 -2
-162 1 -165 4 -1 2 38 97 86 213 49 115 193 461 321 769 128 308 236 565 240
570 8 9 187 12 196 3z m79 -378 c26 -69 58 -154 70 -190 13 -36 58 -157 100
-270 42 -113 94 -252 115 -310 21 -58 47 -129 59 -157 l21 -53 -103 0 -102 0
-44 125 -45 125 -233 0 c-145 0 -233 4 -233 10 0 5 12 39 27 75 l27 65 179 0
c139 0 178 3 174 13 -2 6 -30 82 -61 167 -31 85 -68 183 -81 218 l-23 62 50
125 c28 69 52 124 54 123 1 -2 24 -59 49 -128z m-1117 -281 l-3 -70 -212 -91
c-117 -50 -213 -93 -213 -97 0 -3 33 -19 73 -35 39 -16 136 -56 215 -89 l142
-60 0 -73 c0 -41 -2 -74 -6 -74 -4 0 -519 220 -590 252 -23 11 -25 16 -22 80
l3 69 295 129 c162 70 301 129 308 129 10 1 12 -17 10 -70z m1888 32 c236
-102 462 -200 487 -211 25 -13 27 -17 27 -80 l0 -67 -297 -128 c-164 -70 -303
-130 -311 -132 -10 -4 -12 10 -10 68 l3 73 205 87 c113 48 210 90 215 93 17 8
-8 20 -221 107 l-204 84 0 73 c0 39 4 72 8 72 5 0 49 -17 98 -39z"/>
</g>
</svg>
