<?xml version="1.0" standalone="no"?>
<!DOCTYPE svg PUBLIC "-//W3C//DTD SVG 20010904//EN"
 "http://www.w3.org/TR/2001/REC-SVG-20010904/DTD/svg10.dtd">
<svg version="1.0" xmlns="http://www.w3.org/2000/svg"
 width="886.000000pt" height="886.000000pt" viewBox="0 0 886.000000 886.000000"
 preserveAspectRatio="xMidYMid meet">
<metadata>
Created by potrace 1.14, written by Peter Selinger 2001-2017
</metadata>
<g transform="translate(0.000000,886.000000) scale(0.100000,-0.100000)"
fill="#000000" stroke="none">
<path d="M2929 5750 c-48 -4 -95 -12 -105 -18 -11 -5 -37 -12 -60 -15 -71 -11
-267 -94 -341 -144 -19 -13 -36 -23 -38 -23 -9 0 -125 -83 -125 -90 0 -4 -11
-12 -23 -17 -36 -17 -178 -152 -210 -200 -16 -24 -32 -43 -37 -43 -4 0 -11 -8
-14 -17 -4 -10 -17 -36 -30 -58 -14 -22 -36 -65 -51 -95 -15 -30 -33 -68 -41
-83 -8 -16 -14 -36 -14 -45 0 -9 -7 -30 -15 -46 -8 -16 -19 -52 -24 -80 -5
-28 -14 -69 -20 -91 -6 -22 -11 -123 -11 -223 0 -188 4 -221 52 -387 20 -70
27 -89 67 -176 12 -25 21 -51 21 -58 0 -6 4 -11 8 -11 4 0 20 -25 36 -55 15
-30 32 -55 37 -55 5 0 9 -4 9 -10 0 -44 211 -264 331 -345 24 -16 46 -32 49
-35 3 -3 31 -18 62 -35 32 -16 58 -33 58 -37 0 -5 8 -8 18 -8 10 0 26 -6 37
-13 27 -17 123 -54 163 -62 17 -4 32 -10 32 -14 0 -7 82 -24 200 -41 81 -11
287 -11 360 1 88 14 183 35 210 46 14 6 40 14 57 17 18 4 35 12 38 17 4 5 13
9 21 9 16 0 87 33 173 81 48 27 73 44 176 122 48 35 159 147 208 209 43 54 67
89 177 263 25 39 48 72 52 73 5 2 8 9 8 16 0 7 9 21 20 31 11 10 20 21 20 26
0 6 54 93 78 124 4 6 21 30 37 55 17 25 33 47 38 48 4 2 7 8 7 12 0 5 24 44
53 87 29 43 56 86 60 96 3 9 11 17 17 17 5 0 10 5 10 10 0 6 37 66 83 133 45
67 87 130 92 139 83 147 255 346 336 388 13 7 26 16 29 20 3 4 37 22 75 40 65
31 112 47 210 72 51 12 338 6 356 -9 8 -5 30 -13 49 -17 19 -3 49 -12 65 -20
17 -8 41 -19 55 -25 29 -13 46 -23 114 -70 63 -43 70 -48 114 -95 20 -22 45
-48 55 -58 9 -10 17 -22 17 -26 0 -5 9 -17 20 -27 11 -10 20 -22 20 -27 0 -6
9 -21 20 -35 11 -14 20 -32 20 -40 0 -8 7 -21 15 -29 8 -9 15 -24 15 -35 0
-11 7 -33 15 -48 22 -44 48 -228 41 -291 -20 -168 -49 -275 -98 -360 -4 -8
-13 -27 -19 -42 -6 -16 -14 -28 -19 -28 -4 0 -13 -12 -19 -27 -15 -35 -56 -83
-71 -83 -6 0 -9 -4 -6 -9 11 -17 -75 -108 -133 -141 -14 -9 -44 -27 -66 -41
-163 -104 -428 -135 -643 -75 -119 33 -338 169 -327 202 2 7 -10 25 -27 40
-16 16 -82 108 -146 204 -63 96 -119 179 -124 184 -9 12 -97 18 -114 8 -7 -4
-23 -23 -37 -42 -13 -19 -56 -82 -96 -140 -39 -58 -85 -120 -101 -138 -17 -19
-30 -43 -30 -54 0 -18 27 -76 41 -88 3 -3 12 -16 19 -30 43 -83 189 -251 291
-336 79 -66 86 -71 179 -126 30 -17 57 -35 58 -40 2 -4 11 -8 21 -8 9 0 21 -4
27 -9 9 -9 135 -61 147 -61 3 0 18 -5 34 -12 33 -14 125 -35 203 -48 72 -11
351 -11 415 0 123 22 212 46 280 76 17 7 55 23 85 35 30 12 60 26 66 31 6 4
33 20 60 34 27 14 51 29 54 33 3 3 25 20 50 36 52 35 55 38 150 130 67 65 123
130 160 185 8 12 20 28 25 34 19 20 95 157 101 182 3 13 10 24 15 24 5 0 9 8
9 18 0 9 6 29 14 43 7 14 16 43 20 65 5 21 12 44 18 51 5 6 14 45 20 85 5 40
14 81 19 90 14 25 13 352 0 377 -6 11 -15 52 -21 92 -6 40 -14 77 -19 83 -5 6
-12 27 -16 46 -4 19 -13 45 -21 57 -8 12 -14 31 -14 42 0 11 -4 22 -9 26 -6 3
-24 33 -41 68 -49 98 -61 118 -81 138 -10 10 -19 22 -19 27 0 4 -14 23 -31 42
-17 19 -41 46 -53 60 -35 40 -148 135 -181 151 -43 22 -79 43 -85 50 -16 21
-166 95 -280 139 -78 30 -119 42 -250 71 -25 6 -133 10 -240 10 -175 1 -205
-2 -298 -25 -116 -28 -158 -41 -222 -69 -115 -49 -291 -148 -298 -168 -2 -5
-10 -9 -17 -9 -8 0 -18 -6 -22 -13 -4 -7 -21 -21 -38 -31 -45 -28 -193 -184
-234 -246 -20 -30 -39 -57 -42 -60 -3 -3 -20 -32 -39 -65 -18 -33 -50 -83 -71
-112 -22 -29 -39 -55 -39 -58 0 -3 -16 -27 -35 -52 -19 -25 -35 -52 -35 -59 0
-7 -6 -17 -13 -21 -8 -4 -26 -29 -41 -55 -16 -27 -32 -48 -37 -48 -5 0 -9 -4
-9 -9 0 -9 -59 -104 -78 -127 -5 -5 -15 -21 -22 -35 -7 -13 -16 -26 -20 -29
-4 -3 -19 -26 -34 -52 -15 -27 -31 -48 -36 -48 -4 0 -10 -8 -13 -17 -6 -19
-38 -75 -48 -83 -10 -9 -143 -210 -170 -256 -14 -25 -30 -49 -36 -52 -6 -4
-13 -17 -17 -28 -4 -12 -39 -55 -79 -96 -115 -118 -201 -168 -382 -219 -102
-30 -291 -29 -399 1 -44 12 -87 26 -95 31 -9 4 -46 22 -83 39 -68 33 -170 112
-176 136 -2 8 -8 14 -13 14 -5 0 -9 5 -9 11 0 6 -22 38 -49 70 -84 101 -146
226 -178 359 -19 77 -28 295 -14 325 5 11 12 39 15 62 9 62 60 181 114 263 36
53 196 220 212 220 5 0 32 16 61 35 30 19 61 35 69 35 9 0 20 4 25 9 6 5 39
20 75 32 55 20 90 24 232 27 200 4 257 -8 423 -91 22 -11 50 -27 61 -36 12 -9
32 -23 44 -31 30 -20 108 -97 142 -140 57 -73 68 -88 68 -98 0 -5 7 -12 15
-16 8 -3 15 -11 15 -18 0 -7 27 -51 60 -98 33 -47 65 -97 71 -113 6 -16 21
-30 36 -33 28 -8 43 7 106 103 20 32 71 105 112 163 41 58 84 122 95 143 l21
38 -75 113 c-79 120 -220 272 -262 282 -13 3 -22 10 -19 14 3 4 -6 11 -20 14
-14 4 -25 11 -25 16 0 6 -5 10 -11 10 -7 0 -32 15 -58 33 -25 18 -71 45 -101
60 -30 16 -62 32 -70 37 -8 5 -58 25 -110 44 -89 33 -128 45 -225 66 -59 13
-357 20 -456 10z"/>
</g>
</svg>
