<?xml version="1.0" encoding="UTF-8" standalone="no"?>
<!DOCTYPE svg PUBLIC "-//W3C//DTD SVG 1.1//EN" "http://www.w3.org/Graphics/SVG/1.1/DTD/svg11.dtd">
<!-- Created with Vectornator (http://vectornator.io/) -->
<svg height="100%" stroke-miterlimit="10" style="fill-rule:nonzero;clip-rule:evenodd;stroke-linecap:round;stroke-linejoin:round;" version="1.1" viewBox="0 0 386.335 224.044" width="100%" xml:space="preserve" xmlns="http://www.w3.org/2000/svg" xmlns:xlink="http://www.w3.org/1999/xlink">
<defs>
<path d="M103.862 2.99996C102.045 2.99996 100.263 3.0524 98.4877 3.13011C96.7121 3.20782 94.9429 3.33256 93.2085 3.48802C91.4741 3.64349 89.7478 3.84043 88.0547 4.07368C86.3616 4.30695 84.7105 4.57603 83.0586 4.8871C81.4067 5.1982 79.7665 5.53934 78.1563 5.92827C76.546 6.31725 74.9485 6.73038 73.3798 7.19721C71.811 7.66407 70.2875 8.18171 68.7604 8.7264C67.2333 9.2712 65.7208 9.86076 64.2353 10.4834C62.7496 11.1061 61.2796 11.7676 59.8358 12.4682C58.392 13.1687 56.9641 13.9023 55.5621 14.6807C54.1601 15.4591 52.7742 16.2647 51.414 17.1209C50.2221 17.8713 49.0551 18.6832 47.8945 19.4961C46.6996 20.3709 45.5048 21.2567 44.3435 22.1967C43.0465 23.2465 41.7664 24.3524 40.5097 25.4828C39.2531 26.6132 38.0179 27.7533 36.8016 28.9644C35.5855 30.1751 34.3951 31.4473 33.2193 32.7386C32.0436 34.0298 30.8962 35.344 29.7939 36.6756C28.6917 38.0073 27.649 39.3379 26.6201 40.7101C25.5911 42.0824 24.5902 43.4946 23.6348 44.9074C22.6792 46.3201 21.7514 47.749 20.8694 49.2022C19.9873 50.6554 19.1326 52.1336 18.324 53.6272C17.5154 55.1208 16.7651 56.6158 16.03 58.1498C15.2949 59.6838 14.5861 61.2608 13.9245 62.8351C13.263 64.4094 12.6271 66.0034 12.039 67.6181C11.4511 69.2325 10.9195 70.8437 10.405 72.4985C9.89056 74.1532 9.40042 75.8469 8.95948 77.5417C8.93186 77.6521 8.89244 77.7564 8.8652 77.8671C8.68627 78.5943 8.53067 79.3432 8.36241 80.0796C8.12518 81.118 7.88118 82.1483 7.67107 83.2032C7.31188 85.0059 7.01557 86.816 6.72833 88.6694C6.44121 90.5225 6.18953 92.4271 5.97414 94.3309C5.75885 96.2347 5.55205 98.1356 5.4085 100.09C5.26478 102.044 5.16601 104.04 5.09426 106.044C5.03368 107.737 5.00644 109.456 4.99998 111.184C5.00635 112.914 5.03293 114.631 5.09426 116.326C5.16723 118.342 5.29395 120.348 5.43993 122.313C5.58591 124.278 5.75514 126.191 5.97414 128.104C6.19318 130.017 6.46767 131.904 6.75976 133.765C6.99351 135.255 7.26785 136.727 7.54537 138.19C7.61467 138.556 7.66095 138.935 7.73392 139.296C7.73879 139.32 7.76046 139.338 7.76534 139.362C8.13484 141.087 8.54759 142.814 8.99091 144.502C9.43431 146.191 9.9192 147.862 10.4364 149.513C10.9539 151.165 11.4793 152.78 12.0705 154.394C12.6618 156.008 13.2908 157.599 13.956 159.177C14.621 160.754 15.3223 162.321 16.0615 163.862C16.8006 165.402 17.6053 166.946 18.4183 168.45C19.2312 169.953 20.0768 171.408 20.9637 172.874C21.8505 174.341 22.7684 175.805 23.729 177.234C24.6898 178.664 25.6799 180.072 26.7143 181.464C27.7487 182.856 28.8115 184.242 29.9196 185.596C31.0277 186.951 32.1946 188.28 33.3764 189.598C34.5582 190.916 35.7409 192.202 36.9588 193.438C37.2579 193.742 37.5687 194.018 37.8701 194.316C38.694 195.072 39.5138 195.836 40.3526 196.561C41.6054 197.645 42.8606 198.712 44.1549 199.717C45.4493 200.724 46.7786 201.684 48.1145 202.613C49.4504 203.542 50.7908 204.43 52.1682 205.281C53.5457 206.133 54.9602 206.948 56.3791 207.722C57.798 208.496 59.224 209.237 60.6843 209.934C62.1445 210.631 63.6135 211.267 65.1152 211.887C66.6167 212.505 68.1603 213.101 69.7032 213.643C71.2459 214.184 72.8013 214.675 74.3854 215.14C75.9693 215.604 77.5682 216.021 79.1933 216.409C80.8183 216.796 82.4608 217.141 84.1273 217.45C85.7929 217.76 87.4787 218.031 89.1864 218.263C90.8933 218.495 92.6228 218.695 94.3718 218.849C96.1191 219.003 97.8931 219.129 99.6825 219.207C101.471 219.284 103.289 219.337 105.119 219.337C106.146 219.337 107.175 219.311 108.198 219.272C109.222 219.233 110.227 219.156 111.246 219.076C112.265 218.998 113.28 218.902 114.295 218.784C115.309 218.666 116.333 218.55 117.343 218.394C118.352 218.237 119.355 218.036 120.359 217.841C121.365 217.645 122.375 217.457 123.377 217.223C124.377 216.987 125.365 216.716 126.362 216.441C127.358 216.167 128.355 215.876 129.347 215.562C130.338 215.25 131.345 214.906 132.332 214.554C133.319 214.202 134.304 213.839 135.286 213.448C136.269 213.057 137.231 212.642 138.209 212.211C139.187 211.781 140.158 211.347 141.131 210.877C142.105 210.408 143.085 209.922 144.053 209.414C145.022 208.905 145.98 208.366 146.945 207.819C147.909 207.272 148.876 206.713 149.836 206.127C150.795 205.54 151.741 204.93 152.695 204.305C153.649 203.68 154.613 203.036 155.555 202.386C156.497 201.735 157.422 201.076 158.352 200.401C159.282 199.725 160.199 199.02 161.117 198.318C162.035 197.617 162.976 196.93 163.882 196.203C164.789 195.476 165.69 194.711 166.585 193.958C167.48 193.205 168.342 192.46 169.225 191.681C170.108 190.903 170.993 190.109 171.864 189.306C172.735 188.501 173.613 187.694 174.472 186.866C175.332 186.036 176.17 185.182 177.018 184.327C177.866 183.473 178.727 182.605 179.564 181.724C180.399 180.844 181.222 179.963 182.046 179.057C182.87 178.15 183.685 177.223 184.497 176.291C185.309 175.359 186.117 174.417 186.917 173.46C187.717 172.503 188.516 171.514 189.305 170.531C190.094 169.549 190.853 168.579 191.63 167.571C191.806 167.344 192.609 166.297 192.785 166.068L157.604 112.448L157.604 112.463C157.51 112.646 157.056 113.669 156.98 113.797C156.628 114.393 154.996 117.272 154.549 117.985C154.103 118.698 153.647 119.376 153.199 120.067C152.177 121.643 151.179 123.159 150.15 124.623C149.121 126.085 148.075 127.503 147.039 128.853C146.003 130.201 144.972 131.487 143.928 132.724C142.884 133.96 141.837 135.147 140.785 136.27C139.735 137.393 138.67 138.45 137.612 139.459C136.554 140.469 135.503 141.426 134.437 142.323C133.374 143.218 132.304 144.076 131.232 144.861C130.161 145.644 129.074 146.369 127.996 147.04C126.917 147.711 125.845 148.304 124.759 148.862C123.674 149.421 122.583 149.946 121.491 150.391C120.399 150.838 119.321 151.228 118.223 151.563C117.124 151.897 115.998 152.153 114.892 152.376C113.786 152.599 112.674 152.785 111.56 152.897C110.721 152.981 109.892 153.031 109.055 153.05C108.781 153.057 108.506 153.06 108.23 153.06C107.966 153.06 107.704 153.059 107.443 153.058C106.968 153.054 106.497 153.046 106.03 153.027C105.306 152.997 104.566 152.925 103.862 152.864C103.157 152.804 102.473 152.727 101.787 152.637C101.102 152.546 100.443 152.464 99.7764 152.344C99.1106 152.223 98.444 152.071 97.7969 151.921C97.1497 151.77 96.5074 151.614 95.8797 151.433C95.2519 151.252 94.5074 150.88 93.8983 150.669C93.29 150.458 92.7032 150.265 92.1135 150.025C91.5237 149.784 91.0454 149.654 90.4751 149.383C89.904 149.112 89.3612 148.838 88.8095 148.537C88.2578 148.236 87.7085 147.924 87.1754 147.593C86.6423 147.262 86.1181 146.913 85.6036 146.552C85.0899 146.192 84.5916 145.805 84.0957 145.414C83.5998 145.022 83.0959 144.631 82.6186 144.21C82.1413 143.788 81.6944 143.359 81.2359 142.908C80.7773 142.456 80.3246 141.959 79.8847 141.476C79.4446 140.995 78.5932 140.348 78.1806 139.846C77.9265 139.537 75.8204 137.128 75.5556 136.835C74.9045 136.117 74.7535 135.815 74.5304 135.513C74.1254 134.966 74.0337 134.903 73.7278 134.289C73.6266 134.086 73.3488 133.493 73.3416 133.481C73.1531 133.092 72.9144 132.637 72.7382 132.239C72.4601 131.61 72.2473 131.186 71.9972 130.544C71.747 129.901 71.4968 129.249 71.2744 128.592C71.0521 127.936 70.8405 127.278 70.6459 126.607C70.4513 125.936 70.2783 125.276 70.1117 124.59C69.945 123.905 69.7793 123.207 69.6403 122.507C69.5015 121.809 69.3742 121.106 69.2632 120.393C69.1522 119.679 69.0637 118.941 68.9804 118.213C68.8971 117.486 68.8159 116.774 68.7604 116.032C68.7049 115.291 68.6624 114.543 68.6347 113.788C68.607 113.032 68.6032 112.247 68.6033 111.478C68.6033 110.694 68.6062 109.933 68.6347 109.168C68.6632 108.401 68.7347 107.639 68.7919 106.89C68.849 106.141 68.8947 105.41 68.9804 104.677C69.0661 103.945 69.1802 103.213 69.2946 102.497C69.409 101.782 69.5288 101.081 69.6718 100.383C69.8148 99.6838 69.9714 98.9812 70.1431 98.3002C70.3148 97.6183 70.5084 96.9476 70.7088 96.2826C70.9091 95.6186 71.1396 94.978 71.3686 94.3309C71.5978 93.6838 71.8336 93.0413 72.0914 92.4111C72.3492 91.7809 72.622 91.1366 72.9084 90.5239C73.195 89.911 73.4731 89.3299 73.7883 88.7343C74.0699 88.2023 74.3923 87.6902 74.6996 87.1726C74.7329 87.1082 74.7605 87.0416 74.7939 86.9774C74.9526 86.6729 75.0978 86.3604 75.2653 86.0663C75.5956 85.4865 75.9444 84.9366 76.3023 84.3745C76.6602 83.8123 77.0168 83.2595 77.4022 82.7151C77.7876 82.1706 78.1833 81.615 78.5963 81.0882C79.0094 80.5614 79.4441 80.0682 79.8847 79.559C80.325 79.0502 80.7785 78.5392 81.2359 78.0623C81.6932 77.5856 82.1445 77.1406 82.6186 76.6958C83.0926 76.251 83.5731 75.8072 84.0642 75.3943C84.5552 74.9815 85.0648 74.5714 85.5729 74.1905C86.0809 73.8095 86.5873 73.4658 87.1123 73.1167C87.6373 72.7676 88.1728 72.4254 88.7148 72.1081C89.2568 71.7907 89.8215 71.4826 90.3804 71.197C90.9394 70.9115 91.5008 70.6376 92.0776 70.3836C92.6536 70.1297 93.2433 69.8901 93.8371 69.6678C94.4308 69.4455 95.0489 69.2402 95.6596 69.0496C96.2712 68.859 96.8852 68.688 97.5137 68.529C98.1423 68.3701 98.7846 68.2333 99.431 68.106C100.077 67.9789 100.716 67.8762 101.379 67.7807C102.043 67.6852 102.709 67.6166 103.39 67.553C104.052 67.4911 106.8 67.3926 107.601 67.3577L107.695 67.3577L107.727 67.3577C108.325 67.3584 108.928 67.3644 109.518 67.3902C110.15 67.418 110.749 67.465 111.372 67.5204C111.995 67.5758 112.611 67.6325 113.226 67.7156C113.841 67.7987 114.473 67.8977 115.08 68.0085C115.687 68.1192 116.272 68.2605 116.871 68.3989C117.47 68.5373 118.072 68.6883 118.663 68.8544C119.253 69.0205 119.84 69.1812 120.422 69.375C121.005 69.5688 121.576 69.7717 122.151 69.9932C122.725 70.2147 123.312 70.4598 123.879 70.709C124.446 70.9582 125.017 71.2129 125.576 71.4899C126.135 71.7668 126.69 72.0636 127.242 72.3684C127.793 72.6732 128.332 73.012 128.876 73.3445C129.419 73.6771 129.943 73.9927 130.478 74.3531C131.014 74.7136 131.553 75.1036 132.081 75.4919C132.608 75.8803 133.133 76.2796 133.652 76.6958C134.172 77.1121 134.68 77.5531 135.192 77.9973C135.705 78.4421 136.22 78.8902 136.732 79.3638C137.244 79.8375 137.761 80.3254 138.272 80.828C138.782 81.3306 139.302 81.8582 139.811 82.3897C140.32 82.9214 140.812 83.4561 141.32 84.0166C141.827 84.5771 142.354 85.1516 142.859 85.741C143.366 86.3306 143.863 86.9447 144.368 87.563C144.873 88.1816 145.373 88.8028 145.876 89.4502C146.38 90.0976 146.883 90.7586 147.385 91.435C147.887 92.1114 148.393 92.8118 148.893 93.5173C148.998 93.6659 149.101 93.8239 149.207 93.9725C149.887 94.8539 150.572 95.7164 151.25 96.641C152.316 98.0923 153.394 99.6001 154.455 101.163C155.021 101.998 155.587 102.868 156.152 103.734C156.592 104.409 158.352 107.15 158.352 107.15L158.509 107.411L158.635 107.67L158.792 107.996L159.308 109.055C159.308 109.055 194.639 162.901 195.13 163.502C195.471 163.918 198.123 166.983 198.576 167.571C199.352 168.579 200.112 169.549 200.901 170.531C201.689 171.514 202.489 172.503 203.289 173.46C204.089 174.417 204.897 175.359 205.709 176.291C206.521 177.223 207.336 178.15 208.16 179.057C208.984 179.963 209.806 180.844 210.642 181.724C211.478 182.605 212.34 183.473 213.188 184.327C214.035 185.182 214.874 186.036 215.733 186.866C216.593 187.694 217.47 188.501 218.342 189.306C219.213 190.109 220.098 190.903 220.981 191.681C221.864 192.46 222.726 193.205 223.621 193.958C224.515 194.711 225.417 195.476 226.323 196.203C227.229 196.93 228.17 197.617 229.088 198.318C230.007 199.02 230.924 199.725 231.854 200.401C232.784 201.076 233.709 201.735 234.651 202.386C235.592 203.036 236.557 203.68 237.51 204.305C238.465 204.93 239.411 205.54 240.37 206.127C241.329 206.713 242.297 207.272 243.261 207.819C244.225 208.366 245.183 208.905 246.152 209.414C247.121 209.922 248.101 210.408 249.074 210.877C250.047 211.347 251.019 211.781 251.997 212.211C252.975 212.642 253.937 213.057 254.92 213.448C255.902 213.839 256.886 214.202 257.873 214.554C258.861 214.906 259.867 215.25 260.859 215.562C261.851 215.876 262.848 216.167 263.844 216.441C264.841 216.716 265.828 216.987 266.829 217.223C267.831 217.457 268.841 217.645 269.846 217.841C270.851 218.036 271.853 218.237 272.863 218.394C273.873 218.55 274.897 218.666 275.911 218.784C276.926 218.902 277.941 218.998 278.959 219.076C279.979 219.156 280.984 219.233 282.007 219.272C283.031 219.311 284.06 219.337 285.087 219.337C286.917 219.337 288.735 219.284 290.523 219.207C292.313 219.129 294.087 219.003 295.834 218.849C297.583 218.695 299.312 218.495 301.019 218.263C302.726 218.031 304.413 217.76 306.078 217.45C307.745 217.141 309.387 216.796 311.012 216.409C312.637 216.021 314.237 215.604 315.821 215.14C317.405 214.675 318.96 214.184 320.503 213.643C322.045 213.101 323.589 212.505 325.09 211.887C326.593 211.267 328.061 210.631 329.522 209.934C330.982 209.237 332.407 208.496 333.826 207.722C335.245 206.948 336.66 206.133 338.038 205.281C339.415 204.43 340.756 203.542 342.091 202.613C343.427 201.684 344.757 200.724 346.051 199.717C347.345 198.712 348.6 197.645 349.853 196.561C350.692 195.836 351.511 195.072 352.336 194.316C352.637 194.018 352.948 193.742 353.247 193.438C354.465 192.202 355.648 190.916 356.829 189.598C358.011 188.28 359.178 186.951 360.286 185.596C361.394 184.242 362.456 182.857 363.491 181.464C364.526 180.072 365.516 178.664 366.477 177.234C367.437 175.805 368.355 174.341 369.242 172.874C370.129 171.408 370.975 169.953 371.788 168.45C372.601 166.946 373.405 165.402 374.144 163.862C374.884 162.321 375.585 160.754 376.25 159.177C376.915 157.599 377.544 156.008 378.136 154.394C378.726 152.78 379.252 151.165 379.77 149.513C380.286 147.862 380.771 146.191 381.215 144.502C381.658 142.814 382.071 141.087 382.441 139.362C382.446 139.338 382.467 139.32 382.471 139.296C382.545 138.935 382.591 138.556 382.66 138.19C382.938 136.727 383.212 135.255 383.446 133.765C383.738 131.904 384.013 130.017 384.232 128.104C384.451 126.191 384.62 124.278 384.766 122.313C384.912 120.348 385.038 118.342 385.111 116.326C385.173 114.631 385.199 112.914 385.206 111.184C385.199 109.456 385.172 107.737 385.111 106.044C385.04 104.04 384.941 102.044 384.797 100.09C384.654 98.1356 384.447 96.2347 384.232 94.3309C384.017 92.4271 383.764 90.5225 383.477 88.6694C383.19 86.816 382.894 85.0059 382.535 83.2032C382.324 82.1483 382.081 81.118 381.843 80.0796C381.673 79.3433 381.527 78.5965 381.341 77.8671C381.313 77.7564 381.274 77.6521 381.246 77.5417C380.805 75.8469 380.315 74.1532 379.8 72.4985C379.286 70.8437 378.754 69.2325 378.166 67.6181C377.579 66.0034 376.942 64.4094 376.281 62.8351C375.62 61.2608 374.911 59.6838 374.176 58.1498C373.44 56.6158 372.69 55.1208 371.882 53.6272C371.073 52.1336 370.218 50.6554 369.337 49.2022C368.454 47.749 367.526 46.3201 366.571 44.9074C365.615 43.4946 364.615 42.0824 363.586 40.7101C362.557 39.3379 361.514 38.0073 360.411 36.6756C359.31 35.344 358.162 34.0298 356.986 32.7386C355.811 31.4473 354.62 30.1751 353.404 28.9644C352.188 27.7533 350.952 26.6132 349.696 25.4828C348.439 24.3524 347.159 23.2465 345.863 22.1967C344.701 21.2567 343.506 20.3709 342.311 19.4961C341.15 18.6832 339.984 17.8713 338.791 17.1209C337.432 16.2647 336.046 15.4591 334.643 14.6807C333.241 13.9023 331.814 13.1687 330.37 12.4682C328.926 11.7676 327.457 11.1061 325.97 10.4834C324.485 9.86076 322.973 9.2712 321.445 8.7264C319.918 8.18171 318.395 7.66407 316.826 7.19721C315.258 6.73039 313.66 6.31725 312.049 5.92827C310.439 5.53934 308.799 5.1982 307.147 4.8871C305.495 4.57603 303.844 4.30695 302.151 4.07368C300.458 3.84043 298.732 3.64349 296.997 3.48802C295.263 3.33256 293.494 3.20782 291.718 3.13011C289.942 3.0524 288.161 2.99996 286.344 2.99996C284.161 2.99996 281.987 3.08476 279.839 3.22772C277.691 3.37069 275.574 3.59249 273.46 3.87846C271.346 4.16444 269.254 4.52317 267.175 4.95217C265.096 5.38118 263.029 5.87685 260.984 6.44886C258.94 7.02087 256.898 7.65354 254.888 8.36851C252.879 9.08346 250.891 9.88578 248.917 10.7437C246.943 11.6015 244.979 12.5086 243.041 13.5093C241.103 14.5099 239.194 15.587 237.29 16.7305C235.387 17.8738 233.502 19.0886 231.634 20.3747C229.766 21.6604 227.904 23.0132 226.072 24.4417C224.24 25.87 222.432 27.3935 220.636 28.9644C218.838 30.535 217.054 32.1643 215.293 33.8774C213.532 35.5903 211.803 37.3581 210.076 39.2134C208.351 41.0685 206.646 43.0075 204.954 45.0049C203.264 47.0022 201.583 49.0799 199.927 51.2195C199.099 52.2892 198.289 53.4258 197.475 54.5382C202.294 61.554 229.978 101.85 232.702 105.817C233.254 104.958 233.784 104.146 234.054 103.734C234.618 102.868 235.185 101.998 235.751 101.163C236.811 99.6001 237.89 98.0923 238.956 96.641C239.634 95.7164 240.318 94.8539 240.999 93.9725C241.105 93.8239 241.207 93.6659 241.312 93.5173C241.813 92.8118 242.319 92.1114 242.821 91.435C243.323 90.7586 243.826 90.0976 244.33 89.4502C244.833 88.8028 245.333 88.1816 245.838 87.563C246.342 86.9447 246.84 86.3306 247.346 85.741C247.852 85.1516 248.379 84.5771 248.886 84.0166C249.394 83.4561 249.886 82.9214 250.394 82.3897C250.903 81.8582 251.423 81.3306 251.934 80.828C252.444 80.3254 252.962 79.8375 253.474 79.3638C253.985 78.8902 254.501 78.4421 255.014 77.9973C255.526 77.5531 256.034 77.1121 256.554 76.6958C257.073 76.2796 257.597 75.8803 258.125 75.4919C258.652 75.1036 259.192 74.7136 259.727 74.3531C260.263 73.9927 260.787 73.6771 261.33 73.3445C261.873 73.012 262.413 72.6732 262.964 72.3684C263.516 72.0636 264.071 71.7668 264.63 71.4899C265.189 71.2129 265.76 70.9582 266.327 70.709C266.894 70.4598 267.48 70.2147 268.055 69.9932C268.63 69.7717 269.201 69.5688 269.783 69.375C270.366 69.1812 270.952 69.0205 271.543 68.8544C272.133 68.6883 272.736 68.5373 273.335 68.3989C273.933 68.2605 274.519 68.1192 275.126 68.0085C275.732 67.8977 276.365 67.7987 276.98 67.7156C277.595 67.6325 278.211 67.5758 278.834 67.5204C279.267 67.4819 279.693 67.4495 280.122 67.4228C280.31 67.411 280.495 67.3987 280.688 67.3902L283.548 67.3902L284.742 67.3902C285.441 67.4221 286.134 67.4892 286.816 67.553C287.497 67.6166 288.163 67.6852 288.827 67.7807C289.49 67.8762 290.128 67.9789 290.775 68.106C291.421 68.2333 292.063 68.3701 292.692 68.529C293.321 68.688 293.934 68.859 294.546 69.0496C295.157 69.2402 295.775 69.4455 296.369 69.6678C296.962 69.8901 297.552 70.1297 298.128 70.3836C298.705 70.6376 299.266 70.9115 299.825 71.197C300.384 71.4827 300.949 71.7907 301.491 72.1081C302.033 72.4254 302.568 72.7676 303.093 73.1167C303.618 73.4658 304.125 73.8095 304.633 74.1905C305.141 74.5714 305.65 74.9815 306.142 75.3943C306.633 75.8072 307.113 76.251 307.587 76.6958C308.061 77.1406 308.513 77.5856 308.97 78.0623C309.427 78.5392 309.88 79.0502 310.321 79.559C310.761 80.0682 311.197 80.5614 311.609 81.0882C312.023 81.615 312.418 82.1706 312.803 82.7151C313.189 83.2595 313.546 83.8123 313.903 84.3745C314.261 84.9366 314.61 85.4865 314.94 86.0663C315.108 86.3604 315.254 86.6729 315.412 86.9774C315.448 87.039 315.47 87.1109 315.506 87.1726C315.813 87.6902 316.136 88.2023 316.418 88.7343C316.732 89.3299 317.011 89.911 317.297 90.5239C317.584 91.1366 317.857 91.7809 318.114 92.4111C318.372 93.0413 318.608 93.6838 318.837 94.3309C319.066 94.978 319.297 95.6186 319.497 96.2826C319.697 96.9476 319.891 97.6183 320.063 98.3002C320.234 98.9812 320.391 99.6838 320.534 100.383C320.677 101.081 320.796 101.782 320.911 102.497C321.025 103.213 321.139 103.945 321.225 104.677C321.311 105.41 321.357 106.141 321.414 106.89C321.471 107.639 321.542 108.401 321.571 109.168C321.6 109.933 321.602 110.694 321.602 111.478C321.602 112.247 321.599 113.032 321.571 113.788C321.543 114.543 321.501 115.291 321.445 116.032C321.39 116.774 321.308 117.486 321.225 118.213C321.142 118.941 321.054 119.679 320.943 120.393C320.831 121.106 320.704 121.809 320.565 122.507C320.427 123.207 320.261 123.905 320.094 124.59C319.928 125.276 319.755 125.936 319.56 126.607C319.365 127.278 319.153 127.936 318.931 128.592C318.709 129.249 318.459 129.901 318.209 130.544C317.959 131.186 317.701 131.835 317.423 132.464C317.145 133.092 316.849 133.704 316.543 134.318C316.318 134.77 316.118 135.24 315.883 135.685C315.846 135.754 315.65 136.051 315.601 136.14C315.266 136.74 314.924 137.345 314.563 137.93C314.202 138.514 313.821 139.084 313.432 139.654C313.268 139.895 313.107 140.094 312.938 140.29C312.706 140.558 312.458 140.823 312.158 141.183C311.714 141.716 311.218 142.155 310.773 142.696C310.328 143.239 293.945 153.318 293.283 153.454C292.622 153.59 276.304 155.038 275.689 154.915C274.526 154.682 256.247 145.817 255.14 144.893C254.032 143.969 252.939 143.003 251.84 141.965C250.742 140.926 231.868 112.057 231.87 111.94C232.12 111.171 231.037 109.102 231.037 109.102C231.037 109.102 194.664 56.8803 194.618 56.9519C193.14 54.8844 191.788 53.1688 190.279 51.2195C188.624 49.0799 186.942 47.0022 185.251 45.0049C183.56 43.0075 181.855 41.0685 180.129 39.2134C178.403 37.3581 176.674 35.5903 174.912 33.8774C173.151 32.1643 171.367 30.535 169.57 28.9644C167.773 27.3935 165.966 25.87 164.134 24.4417C162.302 23.0132 160.439 21.6604 158.572 20.3747C156.704 19.0886 154.819 17.8738 152.915 16.7305C151.012 15.587 149.103 14.5099 147.165 13.5093C145.226 12.5086 143.262 11.6015 141.288 10.7437C139.315 9.88578 137.327 9.08346 135.318 8.36851C133.308 7.65353 131.265 7.02087 129.221 6.44886C127.177 5.87685 125.109 5.38118 123.03 4.95217C120.951 4.52317 118.859 4.16444 116.746 3.87846C114.632 3.59249 112.515 3.37069 110.366 3.22772L103.862 2.99996ZM231.499 112.005C231.499 112.005 241.08 131.557 248.727 141.539C248.968 141.852 251.366 143.357 254.606 145.304C262.076 149.794 274.017 156.64 274.265 156.67C274.662 156.72 287.903 155.123 287.903 155.123C288.101 155.049 292.726 154.595 293.107 154.435C297.361 152.648 306.606 147.399 306.811 147.25C307.81 146.522 313.305 139.907 312.222 141.096C311.329 142.078 311.495 141.819 310.865 142.405C310.836 142.432 309.041 143.802 308.774 143.957C308.468 144.134 307.123 145.139 306.728 145.399C306.614 145.474 305.304 146.314 304.79 146.675C304.275 147.036 303.563 147.262 303.03 147.593C302.497 147.924 301.948 148.236 301.396 148.537C300.845 148.838 300.302 149.112 299.731 149.383C299.16 149.654 298.561 149.923 297.971 150.164C297.381 150.405 296.788 150.636 296.18 150.848C295.571 151.058 294.954 151.252 294.326 151.433C293.698 151.614 293.056 151.77 292.409 151.921C291.762 152.071 291.095 152.223 290.429 152.344C289.763 152.464 289.103 152.546 288.418 152.637C287.732 152.727 287.049 152.804 286.344 152.864C285.64 152.925 284.899 152.997 284.176 153.027C283.451 153.057 282.719 153.06 281.976 153.06C280.855 153.06 279.758 153.008 278.645 152.897C277.531 152.785 276.42 152.599 275.314 152.376C274.207 152.153 273.081 151.897 271.983 151.563C270.884 151.228 269.806 150.838 268.715 150.391C267.623 149.946 266.531 149.421 265.447 148.862C264.361 148.304 263.288 147.711 262.21 147.04C261.132 146.369 260.044 145.644 258.973 144.861C257.902 144.076 256.832 143.218 255.768 142.323C254.703 141.426 253.651 140.469 252.594 139.459C251.536 138.45 250.471 137.393 249.42 136.27C248.369 135.147 247.321 133.96 246.278 132.724C245.234 131.487 244.203 130.201 243.167 128.853C242.13 127.503 241.084 126.085 240.055 124.623C239.027 123.159 238.029 121.643 237.007 120.067C236.559 119.376 236.103 118.698 235.656 117.985C235.21 117.271 232.704 113.532 232.704 113.532C232.649 113.44 232.314 112.867 232.035 112.15C231.836 111.637 231.673 110.931 231.633 110.828C231.49 109.798 231.499 112.005 231.499 112.005Z" id="Fill"/>
</defs>
<clipPath id="ArtboardFrame">
<rect height="224.044" width="386.335" x="0" y="0"/>
</clipPath>
<g clip-path="url(#ArtboardFrame)" id="shapes">
<use fill="#ffffff" fill-rule="nonzero" opacity="1" stroke="none" xlink:href="#Fill"/>
<clipPath clip-rule="nonzero" id="ClipPath">
<use xlink:href="#Fill"/>
</clipPath>
<g clip-path="url(#ClipPath)">
<g opacity="1">
<path d="M154.407 185.393C145.867 169.045 128.465 145.763 128.465 145.763C128.465 145.763 134.799 139.276 135.415 139.01C135.87 138.813 136.341 138.593 137.054 138.246C137.762 137.899 145.664 127.854 145.928 127.602C145.991 127.542 151.918 120.624 152.415 119.997C152.941 119.328 157.097 111.762 157.508 111.167C157.601 111.031 157.852 111.16 158.158 110.697C158.394 110.339 168.584 95.7826 168.584 95.7826L197.374 52.557L201.306 48.7561C201.306 48.7561 205.345 43.5021 206.935 41.3866C208.536 39.2546 210.356 38.8567 211.98 36.89C213.487 35.0657 215.119 33.1932 216.967 31.1663C218.546 29.4353 220.225 27.7238 222.077 25.896C224.186 23.8135 225.752 22.2987 227.259 20.9658C228.819 19.5879 231.254 18.9072 233.35 17.2622C234.255 16.5526 239.734 14.1423 239.734 14.1423L268.573 65.2251L268.524 65.2819C268.524 65.2819 270.014 69.5047 269.739 69.8731C269.464 70.2414 268.336 70.3224 268.336 70.3224C267.264 71.087 266.7 71.0028 265.661 71.8575C264.662 72.6789 263.584 72.4518 262.473 73.4869C261.315 74.5629 259.102 75.761 258.14 76.764C257.055 77.8946 255.612 78.3193 254.618 79.4673C253.613 80.6273 252.128 81.3652 251.069 82.7079C250.011 84.0506 248.982 85.3847 247.989 86.7599C246.986 88.1513 245.988 89.6312 244.957 91.1799C244.606 91.7103 243.533 93.3563 243.295 93.7299C243.106 94.0267 240.851 97.7261 240.852 97.7261L240.827 97.7261L240.484 98.3206C240.201 98.7546 207.125 149.441 205.722 151.591L205.65 151.704C205.643 151.712 205.507 151.952 205.502 151.959C204.178 154 202.734 156.067 201.052 158.42C199.347 160.807 197.921 162.751 196.53 164.511C195.103 166.319 193.545 168.146 191.787 170.15C189.954 172.239 188.442 173.919 186.972 175.421C185.413 177.013 183.738 178.627 181.937 180.266C180.379 181.682 179.398 183.444 177.476 184.988C175.631 186.471 174.404 188.344 172.706 189.539C171.009 190.733 169.461 193.005 167.506 194.196C165.635 195.336 164.296 196.912 162.437 197.878C162.437 197.878 158.757 193.721 154.407 185.393Z" fill="#004cff" fill-rule="nonzero" opacity="1" stroke="none"/>
<path d="M282.838 1.48452C283.923 1.48452 284.85 1.50398 285.724 1.51718C286.741 1.53254 287.68 1.54384 288.576 1.58251C289.469 1.62104 290.397 1.67312 291.395 1.74583C292.24 1.80725 293.088 1.88083 294.149 1.97447C295.15 2.06286 296.051 2.14533 296.902 2.23578C297.86 2.33758 298.759 2.44531 299.622 2.56242C300.524 2.6847 301.422 2.81249 302.309 2.95438C303.197 3.09661 304.084 3.24894 304.963 3.41167C305.808 3.56822 306.675 3.7377 307.582 3.93429C308.395 4.11029 309.244 4.30268 310.17 4.52223C311.032 4.72681 311.877 4.952 312.724 5.17551C313.579 5.40119 314.444 5.65082 315.278 5.8941C316.159 6.15137 316.974 6.39538 317.766 6.64537C318.625 6.91691 319.429 7.18555 320.22 7.46196C321.029 7.74439 321.86 8.03351 322.675 8.34387C323.472 8.64729 324.258 8.96119 325.063 9.29106C325.876 9.6246 326.651 9.96702 327.418 10.3037C328.217 10.6544 329.012 11.0208 329.773 11.3815C330.527 11.7391 331.278 12.0909 332.062 12.4921C332.797 12.868 333.568 13.2772 334.351 13.7007C335.1 14.1067 335.831 14.5135 336.573 14.9418C337.307 15.3658 338.026 15.7973 338.762 16.2484C339.488 16.6935 340.221 17.1775 340.951 17.6529C341.67 18.1214 342.392 18.5976 343.107 19.0901C343.831 19.5893 344.542 20.0939 345.23 20.5927C345.944 21.111 346.643 21.6069 347.319 22.1278C347.991 22.645 348.679 23.1916 349.376 23.7611C350.034 24.2984 350.678 24.8704 351.366 25.4596C352.099 26.0858 352.748 26.6498 353.357 27.1907C354.049 27.8059 354.696 28.37 355.314 28.9545C355.933 29.5411 356.573 30.1811 357.237 30.849C357.832 31.4464 358.456 32.0738 359.128 32.7762C359.76 33.4369 360.355 34.0836 360.952 34.736C361.567 35.4074 362.166 36.0983 362.743 36.7611C363.321 37.4247 363.902 38.0683 364.468 38.7536C365.019 39.4192 365.572 40.1077 366.127 40.8114C366.666 41.4951 367.183 42.2176 367.719 42.9346C368.241 43.6329 368.764 44.3359 369.278 45.0578C369.802 45.7948 370.296 46.5141 370.77 47.2134C371.274 47.9554 371.773 48.6538 372.23 49.3694C372.706 50.1157 373.147 50.859 373.59 51.5906C374.048 52.3476 374.494 53.1021 374.916 53.8443C375.335 54.5789 375.761 55.3493 376.177 56.1306C376.566 56.8626 376.932 57.6123 377.338 58.4171C377.728 59.1908 378.125 59.9789 378.499 60.769C378.872 61.5598 379.243 62.3602 379.593 63.1533C379.957 63.9774 380.299 64.7606 380.622 65.5378C380.967 66.3662 381.28 67.1613 381.583 67.955C381.887 68.7479 382.183 69.5604 382.479 70.4047C382.755 71.1923 383.024 72.0163 383.308 72.8872C383.587 73.7402 383.854 74.5707 384.104 75.4023C384.366 76.2694 384.605 77.1437 384.834 77.9826C385.059 78.8048 385.278 79.6581 385.498 80.563C385.694 81.3755 385.918 82.235 386.128 83.1761C386.332 84.0937 386.52 84.94 386.692 85.7892C386.878 86.7082 387.038 87.6002 387.19 88.4676C387.339 89.3313 387.483 90.2397 387.621 91.1787C387.745 92.0318 387.861 92.9154 387.986 93.8897C388.11 94.8683 388.221 95.7616 388.317 96.6335C388.423 97.5991 388.507 98.5427 388.582 99.4425C388.665 100.441 388.722 101.357 388.782 102.252C388.847 103.24 388.91 104.175 388.947 105.093C388.985 106.01 388.997 106.984 389.013 108C389.028 108.91 389.047 109.857 389.047 110.908C389.047 112.025 389.028 113.044 389.013 114.01C388.997 115.084 388.985 116.104 388.947 117.081C388.91 118.056 388.847 119.063 388.782 120.119C388.722 121.066 388.665 122.025 388.582 123.091C388.502 124.126 388.406 125.099 388.317 126.03C388.22 127.033 388.131 128.001 388.019 128.938C387.907 129.861 387.768 130.81 387.621 131.813C387.489 132.699 387.358 133.631 387.19 134.654C387.024 135.655 386.853 136.55 386.692 137.431C386.513 138.404 386.348 139.328 386.161 140.207C385.963 141.144 385.736 142.045 385.531 142.918C385.316 143.832 385.096 144.727 384.867 145.596C384.644 146.449 384.408 147.324 384.138 148.242C383.895 149.067 383.633 149.932 383.342 150.855C383.294 151.007 383.193 151.124 383.043 151.182L382.281 151.476C382.131 151.533 381.955 151.522 381.816 151.443L381.783 151.411C382.042 151.551 380.86 150.905 381.119 151.051L321.05 118.453C320.841 118.381 320.768 118.164 320.618 118.028C320.433 117.861 320.185 117.761 320.087 117.506C319.945 117.136 319.883 116.693 319.921 116.199C319.951 115.82 319.966 115.437 319.988 115.056C320.011 114.669 320.082 112.917 320.087 112.737C320.102 112.297 320.121 111.919 320.121 111.561C320.121 111.203 320.068 109.964 320.054 109.601C320.047 109.392 320.011 108.42 319.988 108.034C319.966 107.654 319.842 106.014 319.822 105.78C319.788 105.366 319.762 105.006 319.723 104.669C319.684 104.337 319.533 103.204 319.49 102.938C319.452 102.699 319.251 101.525 319.225 101.37C319.158 100.961 319.09 100.637 319.026 100.325C318.96 100.004 318.887 99.6929 318.794 99.3119C318.735 99.0666 318.351 97.542 318.263 97.2214C318.166 96.8648 318.094 96.559 317.998 96.2415C317.902 95.9248 317.782 95.5737 317.666 95.229C317.563 94.9208 317.08 93.5964 316.97 93.3018C316.844 92.969 316.728 92.6536 316.604 92.3546C316.481 92.0561 316.351 91.7611 316.206 91.44C316.08 91.1575 315.935 90.8646 315.775 90.5254C315.641 90.2388 315.509 89.9324 315.345 89.6109C315.204 89.3378 314.442 87.923 314.383 87.8143C314.202 87.4872 314.042 87.196 313.885 86.9323C313.726 86.667 313.551 86.3856 313.354 86.0832C313.2 85.8474 312.428 84.6601 312.26 84.4173C312.055 84.1226 311.85 83.8526 311.662 83.6008C311.394 83.2397 311.243 83.0168 311.066 82.7841C310.84 82.4896 310.634 82.2415 310.435 82.0002C310.24 81.7641 309.629 81.0861 309.54 80.9877C309.448 80.8869 308.597 79.9776 308.378 79.7464C308.13 79.4838 307.908 79.219 307.682 78.9951C307.445 78.7604 307.192 78.5344 306.953 78.3092C306.716 78.0872 305.716 77.195 305.493 77.0026C305.224 76.7707 304.968 76.54 304.73 76.3493C304.465 76.1375 304.189 75.9551 303.934 75.7615C303.663 75.556 303.428 75.3563 303.171 75.1735C302.924 74.9968 302.658 74.805 302.375 74.6182C302.136 74.4606 300.981 73.7645 300.717 73.6056C300.427 73.4319 300.158 73.2662 299.887 73.1157C299.608 72.9599 299.316 72.8101 299.025 72.6584C298.736 72.5081 298.454 72.3428 298.162 72.2011C297.852 72.0503 297.545 71.9369 297.267 71.8092C296.962 71.6694 296.692 71.5377 296.404 71.4172C296.105 71.2919 295.781 71.1763 295.476 71.0579C295.171 70.9398 294.89 70.8087 294.58 70.6986C294.283 70.5928 293.947 70.4776 293.618 70.372C293.314 70.2744 292.992 70.1775 292.656 70.0779C292.342 69.9849 292.052 69.9033 291.728 69.8166C291.411 69.7324 291.065 69.6681 290.732 69.588C290.419 69.5127 290.086 69.4318 289.737 69.3594C289.422 69.2939 289.105 69.2313 288.742 69.1634C288.418 69.1026 288.096 69.0224 287.747 68.9675C287.427 68.9169 287.087 68.8871 286.719 68.8368C286.393 68.7921 286.062 68.7453 285.69 68.7062C285.373 68.6726 283.787 68.53 283.534 68.5101C283.134 68.4785 282.773 68.4593 282.44 68.4449C282.104 68.4302 281.754 68.4166 281.346 68.4121C281.031 68.4087 279.524 68.408 279.223 68.4121C278.865 68.4171 278.537 68.4319 278.227 68.4449C277.914 68.4578 277.603 68.487 277.266 68.5101C276.971 68.5304 275.586 68.6464 275.308 68.6735C274.959 68.7073 274.644 68.7332 274.347 68.7714C274.023 68.8131 273.706 68.8541 273.385 68.902C273.056 68.9514 272.734 69.0113 272.422 69.0654C272.137 69.1151 271.373 69.2701 271.262 69.294C271.118 69.3254 269.907 69.5802 269.603 69.6534C269.284 69.7304 267.934 70.0916 267.746 70.1434C267.405 70.2375 267.126 70.3175 266.85 70.4047C266.574 70.4923 266.279 70.3497 266.187 70.0779L266.054 69.7187C266.038 69.6976 266.002 69.7104 265.988 69.686L235.737 13.7333C235.699 13.6629 235.809 13.6134 235.803 13.5373L235.505 13.0147C235.37 12.7573 235.475 12.4604 235.737 12.3287C236.734 11.8285 237.768 11.319 238.856 10.8263C239.852 10.374 240.892 9.92186 242.006 9.45443C243.127 8.98429 244.179 8.57237 245.19 8.18056C246.302 7.75064 247.362 7.3614 248.408 7.00467C249.45 6.64907 250.538 6.30099 251.691 5.95943C252.734 5.65116 253.824 5.36065 255.008 5.04485C256.195 4.72868 257.274 4.4455 258.325 4.1956C259.491 3.91879 260.616 3.6578 261.709 3.44434C262.807 3.23004 263.929 3.04205 265.126 2.85639C266.224 2.68614 267.384 2.52224 268.609 2.36644C269.757 2.22031 270.907 2.08445 272.091 1.97447C273.248 1.86704 274.439 1.78787 275.641 1.71317C278.082 1.56131 280.478 1.48452 282.838 1.48452Z" fill="#028121" fill-rule="nonzero" opacity="1" stroke="none"/>
<path d="M70.3203 113.968C69.6869 114.33 11.2958 146.403 10.4874 146.945C10.4452 146.974 9.0983 147.813 8.90163 148.173C8.7701 148.416 8.92709 148.661 8.9268 148.953C8.92663 148.966 8.91794 149.143 8.9268 149.223C8.93192 149.264 8.94701 149.28 8.95198 149.313C8.9599 149.362 8.95421 149.395 8.95198 149.373C8.96035 149.453 8.97714 149.509 9.00232 149.583C9.00767 149.598 9.02727 149.642 9.02749 149.642C9.0519 149.735 9.77911 152.263 9.83299 152.43C10.0579 153.125 10.2625 153.726 10.6888 154.948C10.9359 155.655 11.1332 156.156 11.6202 157.465C11.6851 157.639 12.5475 159.786 12.6271 159.983C13.1102 161.172 13.3281 161.72 13.634 162.41C13.8715 162.946 14.6096 164.609 14.7164 164.838C14.7621 164.937 16.8031 169.058 16.8056 169.064C16.8317 169.121 18.1689 171.53 18.3159 171.791C18.4903 172.103 20.4791 175.474 20.6066 175.688C20.6079 175.69 20.8941 176.194 20.9338 176.257C21.0266 176.403 22.0129 177.819 22.0918 177.934C22.2786 178.212 25.0527 182.221 25.0117 182.162C25.1554 182.364 25.2621 182.506 25.3641 182.641C25.9211 183.38 26.4326 184.006 26.9499 184.648C27.0618 184.788 30.151 188.469 30.2977 188.635C30.9686 189.392 31.4857 189.964 32.0094 190.524C32.6062 191.162 32.9007 191.443 33.6457 192.202C33.7827 192.342 37.1764 195.703 37.4717 195.978C37.5504 196.051 40.7672 198.835 41.2979 199.275C41.5848 199.512 42.628 200.375 43.211 200.833C44.5165 201.859 44.7741 202.04 45.2499 202.391C46.036 202.973 46.6314 203.405 47.2385 203.83C47.3856 203.933 49.8726 205.577 49.9067 205.598C50.1545 205.756 52.8131 207.424 53.4307 207.788C53.4618 207.805 55.4636 209.001 55.5452 209.046C55.6516 209.104 57.5766 210.12 57.7603 210.215C58.427 210.56 59.1007 210.897 59.9252 211.293C60.647 211.642 61.3535 211.971 62.115 212.312C62.1645 212.334 64.0574 213.116 64.4308 213.272C65.2719 213.622 65.9609 213.897 66.6712 214.171C67.3273 214.422 68.0347 214.701 68.9871 215.04C69.6676 215.281 73.2703 216.514 73.4425 216.569C73.7366 216.661 74.7946 216.958 75.9093 217.258C76.0855 217.305 78.3558 217.888 78.6027 217.947C78.812 217.998 80.7014 218.413 81.0443 218.486C81.985 218.687 82.6761 218.82 83.6121 218.996C83.973 219.064 86.222 219.443 86.8084 219.536C87.4326 219.635 87.8298 219.694 88.6464 219.805C89.5897 219.934 90.4395 220.04 91.2386 220.135C92.007 220.226 92.8625 220.311 93.9072 220.405C94.2625 220.437 96.4688 220.572 97.7083 220.644C98.0386 220.664 99.06 220.728 99.1937 220.735C100.054 220.772 101.005 220.802 101.962 220.824C102.606 220.839 104.695 220.857 104.983 220.854C105.305 220.85 107.655 220.8 107.827 220.795C107.939 220.79 110.768 220.621 110.874 220.614C111.131 220.594 115.231 220.169 115.505 220.135C116.111 220.06 116.56 219.996 117.015 219.925C117.231 219.892 119.901 219.427 120.111 219.385C120.285 219.351 124.368 218.422 124.592 218.366C125.54 218.132 126.082 218.003 126.178 217.977C126.267 217.953 132.681 215.816 132.924 215.729C133.265 215.607 133.447 215.51 133.654 215.43C133.966 215.308 137.957 213.68 138.134 213.602C138.327 213.515 140.801 212.363 141.029 212.253C141.991 211.783 143.843 210.88 144.024 210.784C144.182 210.7 147.711 208.634 148.329 208.267C149.802 207.389 151.005 206.655 151.299 206.468C151.847 206.119 152.299 205.827 152.733 205.539C153.231 205.209 155.087 203.946 155.553 203.621C155.973 203.328 157.809 202.027 158.372 201.612C158.943 201.193 160.055 200.323 160.159 200.233C160.169 200.226 163.623 197.369 163.623 197.369C163.593 197.311 129.476 146.059 129.45 145.986C129.398 145.842 129.268 145.835 129.199 145.717C128.654 146.089 128.109 145.481 127.562 145.826C126.475 146.51 125.386 147.144 124.29 147.714C123.195 148.284 122.096 148.816 120.993 149.272C119.889 149.728 118.781 150.13 117.67 150.471C116.557 150.814 115.441 151.082 114.322 151.31C113.202 151.538 112.077 151.706 110.949 151.819C109.822 151.933 108.686 151.999 107.55 151.999C106.802 152 106.066 151.97 105.335 151.939C104.605 151.908 103.881 151.881 103.171 151.819C102.46 151.758 101.748 151.672 101.056 151.58C100.364 151.487 99.6899 151.372 99.0173 151.25C98.3439 151.126 97.6826 150.984 97.0285 150.83C96.3745 150.676 95.7253 150.506 95.0905 150.32C94.4558 150.136 93.8436 149.937 93.2274 149.722C92.6112 149.506 91.9869 149.278 91.39 149.033C90.7931 148.785 90.2059 148.531 89.6276 148.253C89.05 147.975 88.5006 147.691 87.9417 147.383C87.3827 147.076 86.8205 146.735 86.28 146.395C85.7403 146.055 85.2159 145.716 84.6947 145.345C84.1735 144.976 83.6612 144.577 83.1586 144.176C82.6568 143.776 82.1565 143.35 81.674 142.918C81.1903 142.486 80.7283 142.062 80.264 141.599C79.7997 141.136 79.3249 140.654 78.8797 140.161C78.4343 139.668 79.0134 140.145 78.5958 139.632C78.1783 139.119 77.7772 138.607 77.3876 138.074C76.9979 137.54 76.6166 137.008 76.2549 136.454C75.893 135.902 75.5568 135.32 75.2228 134.746C74.8887 134.174 74.5473 133.601 74.2411 133.008C73.9348 132.416 73.6636 131.822 73.3852 131.21C73.1069 130.598 72.8302 129.955 72.5796 129.322C72.3291 128.69 72.0976 128.057 71.8748 127.404C71.6522 126.752 71.4403 126.098 71.2456 125.426C71.0507 124.753 70.8588 124.08 70.6918 123.388C70.5248 122.696 70.3779 121.971 70.2387 121.26C70.0997 120.548 69.9726 119.834 69.8612 119.102C69.7498 118.37 70.1244 116.893 70.1244 116.893C70.1244 116.893 70.3353 114.217 70.3203 113.968Z" fill="#770088" fill-rule="nonzero" opacity="1" stroke="none"/>
<path d="M320.746 116.841C320.731 117.078 320.702 117.324 320.684 117.56C320.628 118.296 320.55 119.031 320.465 119.747C320.382 120.464 320.297 121.143 320.184 121.841C320.072 122.539 319.949 123.224 319.809 123.903C319.668 124.581 319.508 125.274 319.34 125.934C319.171 126.594 319.005 127.231 318.809 127.872C318.613 128.513 318.376 129.156 318.153 129.778C317.929 130.4 317.717 130.988 317.465 131.591C317.213 132.194 316.932 132.819 316.653 133.403C316.373 133.986 316.085 134.557 315.778 135.122C315.47 135.687 315.145 136.232 314.809 136.778C314.473 137.324 314.11 137.876 313.747 138.403C313.384 138.93 313.013 139.425 312.622 139.934C312.23 140.443 311.823 140.944 311.403 141.434C310.984 141.923 310.569 142.433 310.122 142.903C309.673 143.373 309.183 143.804 308.715 144.246C308.249 144.687 307.796 145.116 307.309 145.528C306.825 145.94 276.047 151.895 274.921 151.677C273.796 151.46 270.56 148.643 269.451 148.208C268.341 147.773 263.95 145.548 262.857 144.895C262.308 144.567 261.948 143.97 261.4 143.615C261.332 143.727 259.331 147.359 259.278 147.496C259.252 147.566 228.299 195.32 227.997 195.808C227.972 195.851 227.029 197.534 226.997 197.589L227.091 198.214C227.131 198.245 228.425 199.207 228.435 199.214C228.539 199.299 229.642 200.126 230.216 200.526C230.782 200.922 232.638 202.153 233.06 202.433C233.528 202.742 235.372 203.962 235.872 204.276C236.31 204.551 236.759 204.819 237.31 205.151C237.605 205.329 238.829 206.033 240.31 206.87C240.931 207.22 244.463 209.196 244.622 209.276C244.804 209.368 246.686 210.234 247.654 210.682C247.882 210.788 250.365 211.881 250.56 211.964C250.737 212.038 254.746 213.598 255.06 213.713C255.268 213.79 255.467 213.878 255.81 213.995C256.054 214.077 262.501 216.097 262.591 216.12C262.687 216.145 263.232 216.272 264.185 216.495C264.41 216.547 268.51 217.431 268.685 217.463C268.896 217.503 271.561 217.963 271.778 217.995C272.236 218.062 272.7 218.11 273.309 218.182C273.585 218.215 277.707 218.632 277.966 218.651C278.072 218.658 280.916 218.803 281.028 218.807C281.201 218.812 283.548 218.866 283.872 218.87C284.161 218.873 286.256 218.852 286.903 218.838C287.865 218.817 288.82 218.811 289.684 218.776C289.819 218.769 290.852 218.701 291.184 218.682C292.43 218.613 294.671 218.493 295.028 218.463C296.078 218.374 296.911 218.269 297.684 218.182C298.487 218.092 299.36 217.993 300.309 217.87C301.129 217.764 301.526 217.714 302.153 217.62C302.742 217.531 305.009 217.184 305.372 217.12C306.312 216.952 306.988 216.811 307.934 216.62C308.279 216.55 310.192 216.168 310.403 216.12C310.651 216.064 312.913 215.508 313.09 215.463C314.211 215.178 315.295 214.865 315.59 214.776C315.763 214.724 319.375 213.568 320.059 213.339C321.017 213.015 321.743 212.735 322.403 212.495C323.117 212.234 323.807 211.986 324.653 211.651C325.028 211.503 326.916 210.766 326.965 210.745C327.731 210.419 328.459 210.109 329.184 209.776C330.013 209.398 330.671 209.074 331.34 208.745C331.525 208.654 333.452 207.676 333.559 207.62C333.641 207.577 335.653 206.449 335.684 206.432C336.304 206.086 338.997 204.489 339.246 204.339C339.28 204.319 341.786 202.75 341.934 202.651C342.544 202.246 343.144 201.831 343.934 201.276C344.412 200.942 344.652 200.754 345.965 199.776C346.551 199.339 347.614 198.534 347.902 198.308C348.436 197.889 351.667 195.221 351.746 195.151C352.043 194.89 355.452 191.691 355.59 191.558C356.339 190.834 356.616 190.572 357.215 189.964C357.741 189.43 358.29 188.873 358.965 188.152C359.113 187.993 362.196 184.473 362.308 184.339C362.828 183.727 363.342 183.138 363.902 182.433C364.005 182.305 364.133 182.189 364.277 181.996C364.236 182.052 366.995 178.229 367.183 177.964C367.263 177.854 368.277 176.479 368.371 176.339C368.411 176.28 368.682 175.81 368.683 175.808C368.812 175.604 370.821 172.387 370.996 172.09C371.144 171.841 372.501 169.551 372.527 169.496C372.53 169.491 374.575 165.559 374.621 165.465C374.727 165.247 375.476 163.663 375.715 163.152C376.022 162.494 376.229 161.974 376.715 160.84C376.794 160.652 377.649 158.6 377.715 158.434C378.204 157.185 378.404 156.701 378.652 156.027C379.081 154.863 379.301 154.284 379.527 153.621C379.581 153.462 380.314 151.054 380.34 150.965C380.34 150.965 380.365 150.949 380.371 150.934C380.396 150.863 380.394 150.792 380.402 150.715C380.4 150.736 380.394 150.699 380.402 150.653C380.407 150.621 380.428 150.63 380.433 150.59C380.442 150.514 380.433 150.321 380.433 150.309C380.433 150.03 380.597 149.79 380.465 149.559C380.268 149.215 378.913 148.43 378.871 148.403C378.058 147.886 321.383 117.185 320.746 116.841Z" fill="#ffee00" fill-rule="nonzero" opacity="1" stroke="#ffee00" stroke-linecap="butt" stroke-linejoin="round" stroke-width="2"/>
<path d="M149.683 13.9244L119.687 68.21L118.029 71.4423L119.633 71.8831C120.243 72.075 120.747 72.2654 121.319 72.4708C121.907 72.6827 122.438 72.8999 123.111 73.176C123.61 73.3809 124.124 73.6086 124.904 73.9695C125.68 74.3281 126.095 74.5105 126.642 74.7922C127.121 75.0394 128.083 75.5472 128.407 75.7326C128.465 75.7654 129.732 76.5639 129.905 76.6728C130.256 76.893 131.421 77.6441 131.805 77.9069C132.548 78.4177 132.983 78.7142 133.436 79.0529C133.962 79.4457 134.53 79.8884 135.095 80.3459C135.231 80.4561 137.909 82.7595 138.198 83.0199C138.267 83.0823 139.582 84.3471 139.91 84.6655C140.359 85.1032 140.828 85.5752 141.541 86.311C141.561 86.3311 142.872 87.6588 143.146 87.9566C143.372 88.2026 144.556 89.5869 144.724 89.7783C145.248 90.3771 145.787 91.0084 146.33 91.6589C146.906 92.3515 147.439 93.0059 147.935 93.6277C148.122 93.8636 149.501 95.5751 149.539 95.6259C150.215 96.5135 150.694 97.1539 151.144 97.7707C151.247 97.9117 153.083 100.581 153.418 101.062C153.675 101.433 154.916 103.24 155.049 103.443C155.157 103.605 157.315 106.987 157.43 107.174L158.901 109.584L159.172 109.981C159.18 110.022 159.704 110.847 159.704 110.847L163.261 115.96L193.568 161.183L196.216 165.473L196.164 165.503L196.43 165.885C198.13 168.233 199.88 170.537 201.619 172.732C203.372 174.941 205.111 177.039 206.889 179.079C208.538 180.97 210.324 182.912 212.347 185.014C214.072 186.81 215.911 188.584 217.936 190.479C220.244 192.64 221.957 194.21 223.607 195.593C225.313 197.021 227.198 198.47 229.492 200.176C230.482 200.912 231.478 201.658 232.515 202.38C232.561 202.413 233.264 202.88 233.264 202.881L233.906 201.763L268.812 149.693L268.759 149.634L269.027 149.223C269.027 149.223 267.925 148.398 267.556 148.108C267.532 148.087 267.51 148.054 267.502 148.048C267.471 148.026 267.286 147.888 267.128 147.784L266.753 147.549C265.582 146.755 264.442 145.937 263.303 145.051C262.21 144.2 261.095 143.275 259.879 142.2C258.613 141.085 257.509 140.038 256.455 138.998C255.268 137.825 254.118 136.662 253.031 135.472C251.932 134.269 250.819 132.956 249.661 131.564C248.503 130.171 247.377 128.788 246.291 127.361C245.192 125.919 244.101 124.384 242.973 122.778C242.587 122.228 241.415 120.521 241.155 120.133C240.948 119.825 238.48 115.989 238.48 115.989L238.454 115.989L238.079 115.372C237.769 114.921 201.577 62.3584 200.041 60.1292L199.962 60.0117C199.955 60.0025 199.805 59.7543 199.801 59.7473C198.353 57.6308 196.772 55.4873 194.932 53.0476C193.066 50.5725 191.506 48.5552 189.984 46.7299C188.421 44.855 186.718 42.9608 184.794 40.8823C182.788 38.7157 181.134 36.9734 179.525 35.4169C177.818 33.7653 175.986 32.0916 174.014 30.392C172.311 28.9235 170.473 27.4688 168.37 25.8667C166.352 24.329 164.424 22.9341 162.566 21.6942C160.71 20.4557 158.741 19.2568 156.602 18.0211C154.766 16.9609 150.656 14.5064 149.829 14.0121C149.734 13.9553 149.683 13.9244 149.683 13.9244Z" fill="#ff8d00" fill-rule="nonzero" opacity="1" stroke="none"/>
<path d="M103.953 2.46973C102.937 2.46973 102.069 2.48875 101.249 2.50165C100.297 2.51665 99.4166 2.52769 98.5768 2.56548C97.7405 2.60312 96.8716 2.65401 95.9355 2.72505C95.1449 2.78506 92.35 2.85696 91.3566 2.94846C90.419 3.03482 89.5749 3.1154 88.7775 3.20378C87.8803 3.30324 87.0385 3.4085 86.2295 3.52293C85.3847 3.64241 84.5435 3.76727 83.7126 3.90591C82.8799 4.04487 82.05 4.19371 81.2268 4.35271C80.4349 4.50567 80.6227 4.67127 79.7721 4.86335C79.0105 5.03532 78.2153 5.2233 77.3484 5.43782C76.5405 5.63771 75.7497 5.85774 74.9558 6.07612C74.1541 6.29664 73.344 6.54054 72.5632 6.77825C71.7376 7.02962 70.9746 7.26803 70.2328 7.51229C69.427 7.77762 68.6743 8.04009 67.9333 8.31022C67.1763 8.58617 66.3975 8.86865 65.634 9.17187C64.8874 9.46835 64.1502 9.77504 63.3967 10.0975C62.6349 10.4232 61.9089 10.7578 61.1906 11.0868C60.4426 11.4294 59.6972 11.7875 58.9843 12.14C58.2778 12.4894 57.5745 12.8331 56.8403 13.225C56.1522 13.5924 55.4287 13.9922 54.6963 14.4059C53.9942 14.8026 53.309 15.2001 52.6144 15.6186C51.927 16.0328 51.2526 16.4546 50.5637 16.8952C49.8837 17.3302 49.1961 17.803 48.5128 18.2677C47.8396 18.7253 47.1625 19.1907 46.4931 19.6719C45.8146 20.1596 45.1481 20.6527 44.5044 21.1399C43.8355 21.6464 43.1808 22.1309 42.5468 22.6399C41.9175 23.1452 41.2732 23.6793 40.6204 24.2358C40.0041 24.7609 39.4011 25.3197 38.756 25.8954C38.0702 26.5072 37.4614 27.0583 36.8916 27.5868C36.2435 28.188 35.6365 28.739 35.0583 29.3102C34.4779 29.8833 33.8783 30.5087 33.256 31.1613C32.6995 31.745 32.1148 32.358 31.4849 33.0443C30.8922 33.6898 30.3355 34.3217 29.7759 34.9592C29.2001 35.6151 28.6385 36.2903 28.0981 36.9378C27.557 37.5863 27.0128 38.215 26.4822 38.8846C25.967 39.535 25.4483 40.2077 24.9285 40.8952C24.4237 41.5632 23.9389 42.2692 23.437 42.9697C22.9483 43.6521 22.4575 44.339 21.9766 45.0444C21.4855 45.7645 21.0228 46.4672 20.5783 47.1505C20.1067 47.8755 19.6389 48.5579 19.2111 49.2571C18.7649 49.9863 18.3521 50.7126 17.9372 51.4274C17.5076 52.1671 17.0899 52.9042 16.6943 53.6294C16.3026 54.3472 15.9029 55.1 15.5135 55.8634C15.1488 56.5786 14.8058 57.311 14.426 58.0974C14.0608 58.8534 13.6881 59.6234 13.3384 60.3954C12.9883 61.1681 12.6412 61.9502 12.313 62.725C11.9719 63.5303 11.6524 64.2956 11.3497 65.0549C11.027 65.8643 10.7333 66.6412 10.4486 67.4167C10.1641 68.1914 9.88703 68.9854 9.60961 69.8103C9.35088 70.5798 9.09951 71.385 8.83283 72.2359C8.57161 73.0694 8.32239 73.8808 8.08708 74.6933C7.84163 75.5405 7.61842 76.3948 7.40347 77.2145C7.19283 78.0179 6.98755 78.8516 6.78202 79.7357C6.59748 80.5296 6.38791 81.3694 6.19163 82.2889C6.00027 83.1855 5.82397 84.0125 5.6634 84.8421C5.48962 85.7401 5.33872 86.6117 5.1973 87.4592C5.0565 88.303 4.92202 89.1906 4.79336 90.1082C4.67647 90.9417 4.56809 91.805 4.45156 92.757C4.33455 93.7132 4.23038 94.586 4.14083 95.4379C4.04165 96.3814 3.96243 97.3034 3.89225 98.1826C3.8144 99.1581 3.76107 100.054 3.70582 100.927C3.64469 101.893 3.58552 102.806 3.55045 103.704C3.51548 104.6 3.5033 105.551 3.4883 106.544C3.47489 107.433 3.45723 108.358 3.45723 109.385C3.45723 110.477 3.4748 111.473 3.4883 112.416C3.5033 113.465 3.51562 114.462 3.55045 115.417C3.58519 116.37 3.64432 117.353 3.70582 118.385C3.7609 119.31 3.81427 120.248 3.89225 121.289C3.96797 122.3 4.05699 123.251 4.14083 124.161C4.2309 125.141 4.31479 126.086 4.42049 127.002C4.52455 127.904 4.65472 128.831 4.79336 129.811C4.91605 130.677 5.03927 131.588 5.1973 132.587C5.35194 133.565 5.51176 134.439 5.6634 135.3C5.83086 136.251 5.98588 137.154 6.16056 138.013C6.34664 138.928 6.55899 139.808 6.75095 140.662C6.95179 141.555 7.15873 142.429 7.3724 143.278C7.58168 144.112 7.80329 144.967 8.05601 145.863C8.28306 146.67 8.52906 147.515 8.8018 148.416C8.84655 148.566 8.94061 148.68 9.08141 148.736L9.79604 149.023C9.93605 149.079 10.1006 149.068 10.2311 148.991L10.2622 148.96C10.0197 149.097 11.1265 148.466 10.8837 148.608L67.1565 116.757C67.3523 116.687 67.4197 116.475 67.5604 116.342C67.7337 116.179 68.5062 116.09 68.5977 115.841C68.7311 115.479 69.2485 116.038 69.213 115.555C69.1857 115.184 70.1713 114.81 70.1508 114.438C70.13 114.06 70.0631 112.348 70.0575 112.172C70.0439 111.743 70.0754 109.463 70.0887 109.109C70.0962 108.904 70.1299 107.955 70.1508 107.577C70.1712 107.206 70.2877 105.604 70.3061 105.375C70.3387 104.97 70.3624 104.618 70.3994 104.289C70.436 103.964 70.5766 102.857 70.617 102.598C70.653 102.364 70.8418 101.217 70.8655 101.066C70.9277 100.667 70.9917 100.35 71.0519 100.044C71.1136 99.7312 71.1828 99.4272 71.2694 99.0549C71.3252 98.8152 71.6849 97.3256 71.7666 97.0123C71.8576 96.6639 71.9251 96.3652 72.0152 96.0549C72.1051 95.7455 72.2176 95.4024 72.3259 95.0656C72.4226 94.7645 72.8745 93.4704 72.9785 93.1825C73.0958 92.8574 73.205 92.5493 73.3203 92.2572C73.4353 91.9654 73.5584 91.6772 73.6931 91.3634C73.8117 91.0874 73.9477 90.8012 74.0971 90.4699C74.2233 90.1898 74.347 89.8904 74.501 89.5762C74.6318 89.3095 75.3463 87.9271 75.402 87.8208C75.5702 87.5012 75.7203 87.2167 75.8682 86.9591C76.017 86.6998 76.1812 86.4249 76.3653 86.1294C76.5088 85.8991 77.2333 84.7389 77.3907 84.5017C77.5818 84.2139 77.7745 83.9499 77.9501 83.7039C78.2018 83.3511 78.3425 83.1333 78.5093 82.9059C78.7207 82.6181 78.9134 82.3758 79.0998 82.14C79.2821 81.9093 79.8551 81.247 79.9388 81.1508C80.0244 81.0522 80.8216 80.1637 81.0263 79.9378C81.2588 79.6813 81.4673 79.4226 81.6789 79.2038C81.9006 78.9744 82.1379 78.7536 82.3624 78.5335C82.4737 78.4245 82.7657 78.1501 83.0552 77.8802C83.3417 77.6131 83.6256 77.3505 83.7296 77.2569C83.9819 77.0303 84.221 76.8049 84.4443 76.6186C84.6927 76.4116 84.9516 76.2334 85.1901 76.0443C85.443 75.8435 85.6647 75.6483 85.9048 75.4697C86.1369 75.2972 86.3848 75.1097 86.6505 74.9272C86.8747 74.7732 87.9564 74.093 88.204 73.9378C88.4751 73.7681 88.7276 73.6062 88.9809 73.4591C89.2432 73.3068 90.3234 72.7039 90.5967 72.5655C90.8877 72.4181 91.4356 72.1825 91.4356 72.1825C91.4356 72.1825 91.9741 71.9174 92.2436 71.7995C92.5238 71.6771 93.1137 71.4486 93.1137 71.4486C93.1137 71.4486 93.663 71.205 93.9526 71.0974C94.2311 70.9941 94.5452 70.8815 94.8538 70.7783C95.1385 70.6831 95.4402 70.5883 95.7548 70.491C95.7548 70.491 96.3204 70.3203 96.6249 70.2357C96.9212 70.1533 97.2452 70.0905 97.557 70.0123C97.8504 69.9387 100.933 69.1889 101.28 69.1507C101.577 69.118 103.064 68.9786 103.301 68.9591C103.675 68.9283 104.013 68.9095 104.326 68.8953C104.641 68.8811 104.968 68.8679 105.351 68.8634C105.646 68.8601 107.057 68.8593 107.34 68.8634C107.675 68.8682 107.982 68.8827 108.272 68.8953C108.566 68.908 108.857 68.9366 109.173 68.9591C109.449 68.9789 110.746 69.0923 111.007 69.1187C111.334 69.1518 111.629 69.1771 111.908 69.2144C112.21 69.2552 112.507 69.2952 112.807 69.342C113.116 69.3903 113.417 69.4488 113.709 69.5017C113.977 69.5502 114.693 69.7017 114.796 69.725C114.931 69.7557 116.066 70.0046 116.35 70.0762C116.65 70.1514 117.914 70.5044 118.09 70.5549C118.409 70.6469 118.671 70.7251 118.93 70.8102C119.188 70.8958 150.307 14.2527 150.307 14.2527C150.641 14.3496 136.516 7.33897 135.693 7.03912C135.53 6.97963 133.211 6.17584 132.13 5.8421C131.153 5.5409 130.132 5.25705 129.022 4.94849C127.911 4.63956 123.769 4.59321 122.745 4.38463C121.717 4.17525 121.666 3.99156 120.544 3.81016C119.516 3.64382 118.429 3.48367 117.282 3.33144C116.206 3.18866 115.129 3.05592 114.019 2.94846C112.936 2.84348 111.821 2.76613 110.695 2.69314C108.408 2.54477 106.164 2.46973 103.953 2.46973Z" fill="#d40606" fill-rule="nonzero" opacity="1" stroke="none"/>
</g>
</g>
</g>
</svg>
