<?xml version="1.0" encoding="UTF-8" standalone="no"?>
<!-- Created with Inkscape (http://www.inkscape.org/) -->

<svg
   xmlns:dc="http://purl.org/dc/elements/1.1/"
   xmlns:cc="http://creativecommons.org/ns#"
   xmlns:rdf="http://www.w3.org/1999/02/22-rdf-syntax-ns#"
   xmlns:svg="http://www.w3.org/2000/svg"
   xmlns="http://www.w3.org/2000/svg"
   xmlns:sodipodi="http://sodipodi.sourceforge.net/DTD/sodipodi-0.dtd"
   xmlns:inkscape="http://www.inkscape.org/namespaces/inkscape"
   width="210mm"
   height="210mm"
   viewBox="0 0 744.09449 744.09448"
   id="svg2"
   version="1.1"
   inkscape:version="0.91 r13725"
   sodipodi:docname="Barbecue.svg">
  <defs
     id="defs4">
    <filter
       inkscape:collect="always"
       style="color-interpolation-filters:sRGB"
       id="filter4211"
       x="-0.078590162"
       width="1.1571803"
       y="-0.19975001"
       height="1.3995">
      <feGaussianBlur
         inkscape:collect="always"
         stdDeviation="5.1264157"
         id="feGaussianBlur4213" />
    </filter>
    <filter
       inkscape:collect="always"
       style="color-interpolation-filters:sRGB"
       id="filter4247"
       x="-0.17207345"
       width="1.3441468"
       y="-0.3714807"
       height="1.7429614">
      <feGaussianBlur
         inkscape:collect="always"
         stdDeviation="3.1740871"
         id="feGaussianBlur4249" />
    </filter>
    <filter
       inkscape:collect="always"
       style="color-interpolation-filters:sRGB"
       id="filter4273"
       x="-0.1444951"
       width="1.2889903"
       y="-0.031407982"
       height="1.062816">
      <feGaussianBlur
         inkscape:collect="always"
         stdDeviation="1.8976302"
         id="feGaussianBlur4275" />
    </filter>
  </defs>
  <sodipodi:namedview
     id="base"
     pagecolor="#ffffff"
     bordercolor="#666666"
     borderopacity="1.0"
     inkscape:pageopacity="0.0"
     inkscape:pageshadow="2"
     inkscape:zoom="0.38964844"
     inkscape:cx="-89.757655"
     inkscape:cy="393.05783"
     inkscape:document-units="px"
     inkscape:current-layer="layer1"
     showgrid="false"
     inkscape:window-width="1366"
     inkscape:window-height="705"
     inkscape:window-x="-8"
     inkscape:window-y="-8"
     inkscape:window-maximized="1" />
  <metadata
     id="metadata7">
    <rdf:RDF>
      <cc:Work
         rdf:about="">
        <dc:format>image/svg+xml</dc:format>
        <dc:type
           rdf:resource="http://purl.org/dc/dcmitype/StillImage" />
        <dc:title></dc:title>
      </cc:Work>
    </rdf:RDF>
  </metadata>
  <g
     inkscape:label="Layer 1"
     inkscape:groupmode="layer"
     id="layer1"
     transform="translate(0,-308.26772)">
    <g
       id="g4311"
       transform="matrix(1.09544,0.90049684,-1.354581,0.97849408,2405.8119,254.84309)">
      <path
         sodipodi:nodetypes="ccccc"
         inkscape:connector-curvature="0"
         id="path4183"
         d="m -923.90978,952.27198 260.49124,-218.14536 c 115.73652,103.38821 175.53095,165.89223 349.03257,309.25308 -99.13783,69.7597 -190.60736,142.5868 -265.62405,221.995 z"
         style="fill:none;fill-rule:evenodd;stroke:#000000;stroke-width:3.5999999;stroke-linecap:butt;stroke-linejoin:miter;stroke-miterlimit:4;stroke-dasharray:none;stroke-opacity:1" />
      <path
         inkscape:connector-curvature="0"
         id="path4277"
         d="m -887.97995,924.0414 334.91729,315.6691"
         style="fill:none;fill-rule:evenodd;stroke:#000000;stroke-width:4.5;stroke-linecap:butt;stroke-linejoin:miter;stroke-miterlimit:4;stroke-dasharray:none;stroke-opacity:1" />
      <path
         style="fill:none;fill-rule:evenodd;stroke:#000000;stroke-width:4.5;stroke-linecap:butt;stroke-linejoin:miter;stroke-miterlimit:4;stroke-dasharray:none;stroke-opacity:1"
         d="m -850.12531,890.67799 334.91729,315.66911"
         id="path4279"
         inkscape:connector-curvature="0" />
      <path
         inkscape:connector-curvature="0"
         id="path4281"
         d="m -812.91228,859.23939 334.91729,315.66911"
         style="fill:none;fill-rule:evenodd;stroke:#000000;stroke-width:4.5;stroke-linecap:butt;stroke-linejoin:miter;stroke-miterlimit:4;stroke-dasharray:none;stroke-opacity:1" />
      <path
         style="fill:none;fill-rule:evenodd;stroke:#000000;stroke-width:4.5;stroke-linecap:butt;stroke-linejoin:miter;stroke-miterlimit:4;stroke-dasharray:none;stroke-opacity:1"
         d="m -776.98246,826.51759 334.9173,315.66911"
         id="path4283"
         inkscape:connector-curvature="0" />
      <path
         inkscape:connector-curvature="0"
         id="path4285"
         d="m -739.76943,797.00381 334.9173,315.66909"
         style="fill:none;fill-rule:evenodd;stroke:#000000;stroke-width:4.5;stroke-linecap:butt;stroke-linejoin:miter;stroke-miterlimit:4;stroke-dasharray:none;stroke-opacity:1" />
      <path
         style="fill:none;fill-rule:evenodd;stroke:#000000;stroke-width:4.5;stroke-linecap:butt;stroke-linejoin:miter;stroke-miterlimit:4;stroke-dasharray:none;stroke-opacity:1"
         d="m -701.27319,764.92361 334.9173,315.66909"
         id="path4287"
         inkscape:connector-curvature="0" />
      <path
         sodipodi:nodetypes="cc"
         inkscape:connector-curvature="0"
         id="path4289"
         d="m -891.26296,983.58027 c 76.58027,-83.41844 161.452,-158.54542 254.96959,-225.02655"
         style="fill:none;fill-rule:evenodd;stroke:#000000;stroke-width:2.9000001;stroke-linecap:butt;stroke-linejoin:miter;stroke-miterlimit:4;stroke-dasharray:none;stroke-opacity:1" />
      <path
         style="fill:none;fill-rule:evenodd;stroke:#000000;stroke-width:2.9000001;stroke-linecap:butt;stroke-linejoin:miter;stroke-miterlimit:4;stroke-dasharray:none;stroke-opacity:1"
         d="m -864.94937,1008.0791 c 76.58027,-83.41841 161.452,-158.54539 254.96959,-225.02652"
         id="path4291"
         inkscape:connector-curvature="0"
         sodipodi:nodetypes="cc" />
      <path
         sodipodi:nodetypes="cc"
         inkscape:connector-curvature="0"
         id="path4293"
         d="m -838.63578,1031.6706 c 76.58027,-83.41842 161.452,-158.5454 254.96959,-225.02653"
         style="fill:none;fill-rule:evenodd;stroke:#000000;stroke-width:2.9000001;stroke-linecap:butt;stroke-linejoin:miter;stroke-miterlimit:4;stroke-dasharray:none;stroke-opacity:1" />
      <path
         style="fill:none;fill-rule:evenodd;stroke:#000000;stroke-width:2.9000001;stroke-linecap:butt;stroke-linejoin:miter;stroke-miterlimit:4;stroke-dasharray:none;stroke-opacity:1"
         d="m -811.41483,1056.1695 c 76.58027,-83.41846 161.452,-158.54544 254.96959,-225.02657"
         id="path4295"
         inkscape:connector-curvature="0"
         sodipodi:nodetypes="cc" />
      <path
         sodipodi:nodetypes="cc"
         inkscape:connector-curvature="0"
         id="path4297"
         d="m -786.00861,1080.6683 c 76.58027,-83.4184 161.45201,-158.54538 254.96959,-225.02651"
         style="fill:none;fill-rule:evenodd;stroke:#000000;stroke-width:2.9000001;stroke-linecap:butt;stroke-linejoin:miter;stroke-miterlimit:4;stroke-dasharray:none;stroke-opacity:1" />
      <path
         style="fill:none;fill-rule:evenodd;stroke:#000000;stroke-width:2.9000001;stroke-linecap:butt;stroke-linejoin:miter;stroke-miterlimit:4;stroke-dasharray:none;stroke-opacity:1"
         d="m -754.25083,1106.9819 c 76.58027,-83.4184 161.45201,-158.54539 254.96959,-225.02652"
         id="path4299"
         inkscape:connector-curvature="0"
         sodipodi:nodetypes="cc" />
      <path
         sodipodi:nodetypes="cc"
         inkscape:connector-curvature="0"
         id="path4301"
         d="m -722.49305,1136.4713 c 76.58027,-83.4185 161.452,-158.54543 254.96959,-225.02656"
         style="fill:none;fill-rule:evenodd;stroke:#000000;stroke-width:2.9000001;stroke-linecap:butt;stroke-linejoin:miter;stroke-miterlimit:4;stroke-dasharray:none;stroke-opacity:1" />
      <path
         style="fill:none;fill-rule:evenodd;stroke:#000000;stroke-width:2.9000001;stroke-linecap:butt;stroke-linejoin:miter;stroke-miterlimit:4;stroke-dasharray:none;stroke-opacity:1"
         d="m -688.92054,1165.0533 c 76.58027,-83.4185 161.452,-158.5454 254.96958,-225.02656"
         id="path4303"
         inkscape:connector-curvature="0"
         sodipodi:nodetypes="cc" />
      <path
         sodipodi:nodetypes="cc"
         inkscape:connector-curvature="0"
         id="path4305"
         d="m -658.97749,1196.3574 c 76.58027,-83.4185 164.1741,-159.4528 257.69168,-225.93393"
         style="fill:none;fill-rule:evenodd;stroke:#000000;stroke-width:2.9000001;stroke-linecap:butt;stroke-linejoin:miter;stroke-miterlimit:4;stroke-dasharray:none;stroke-opacity:1" />
      <path
         style="fill:none;fill-rule:evenodd;stroke:#000000;stroke-width:2.9000001;stroke-linecap:butt;stroke-linejoin:miter;stroke-miterlimit:4;stroke-dasharray:none;stroke-opacity:1"
         d="m -626.31235,1225.3931 c 76.58027,-83.4185 163.72041,-160.8139 257.23799,-227.29499"
         id="path4307"
         inkscape:connector-curvature="0"
         sodipodi:nodetypes="cc" />
      <path
         sodipodi:nodetypes="cc"
         inkscape:connector-curvature="0"
         id="path4309"
         d="m -600.45244,1246.7162 c 76.58026,-83.4185 162.81305,-161.2676 256.33063,-227.7487"
         style="fill:none;fill-rule:evenodd;stroke:#000000;stroke-width:2.9000001;stroke-linecap:butt;stroke-linejoin:miter;stroke-miterlimit:4;stroke-dasharray:none;stroke-opacity:1" />
    </g>
    <path
       style="fill:#e89b56;fill-opacity:1;fill-rule:evenodd;stroke:#000000;stroke-width:1px;stroke-linecap:butt;stroke-linejoin:miter;stroke-opacity:1"
       d="m 280.9184,742.27456 c 0,0 13.2185,-6.78022 20.41571,-8.16628 4.15797,-0.80075 8.63559,1.17694 12.70311,0 6.52901,-1.88917 17.23994,-10.88838 17.23994,-10.88838 l 19.05466,-16.78626 18.14731,-17.23993 c 0,0 12.05138,-9.75343 13.61047,-16.78626 1.07962,-4.86998 -3.66843,-9.52978 -3.62946,-14.51784 0.055,-7.04283 5.38917,-13.37288 5.44419,-20.41571 0.039,-4.98807 -2.70042,-9.61691 -3.62946,-14.51785 -0.65329,-3.44632 -1.64442,-6.93846 -1.36104,-10.43469 1.02044,-12.58961 5.80517,-24.73172 10.88838,-36.29461 2.9747,-6.76661 11.34206,-19.05467 11.34206,-19.05467 0,0 7.4206,-13.35969 13.15679,-18.1473 6.43922,-5.37437 13.29703,-8.93384 21.66334,-9.52733 3.00564,-0.21322 40.71802,-4.53683 40.71802,-4.53683 0,0 -39.81592,8.65673 -43.78037,10.88838 -5.21875,2.93771 -10.08908,6.62113 -14.291,10.88838 -5.40627,5.49032 -9.97254,11.87056 -13.72389,18.60099 -4.20413,7.54279 -9.41898,15.41273 -9.64076,24.04518 -0.2997,11.66519 11.34206,31.30409 11.34206,33.11882 0,1.81473 3.17578,24.04518 3.17578,24.04518 l -4.53683,20.86939 -2.60867,20.41572 -8.27971,10.88838 -7.7126,30.39673 -24.04518,29.94305 -38.10933,-5.44419 -30.39673,1.36104 -14.51784,-12.24942 z"
       id="path4155"
       inkscape:connector-curvature="0"
       sodipodi:nodetypes="cascccsssssscsscssssscccccccccc" />
    <path
       style="fill:#f5cbb0;fill-opacity:1;fill-rule:evenodd;stroke:#000000;stroke-width:1px;stroke-linecap:butt;stroke-linejoin:miter;stroke-opacity:1"
       d="M 434.71678,796.71647 278.1963,753.16294 292.03362,748.5127 c -6.50278,-1.20982 -0.22684,-1.24763 -11.71514,-5.8395 0,0 -30.76772,2.62447 -42.04624,1.41609 -6.01844,-0.64482 -11.64398,-3.88518 -17.69362,-4.08314 -6.58486,-0.21548 -12.9414,2.64476 -19.50835,3.17578 -7.23531,0.58507 -10.98726,-0.96314 -17.69363,1.81473 -2.96382,1.22766 -7.10914,4.23008 -8.16627,7.25892 -1.75553,5.02986 -3.42007,8.91285 -0.90737,13.61048 2.42931,4.54173 8.86449,5.74584 11.79574,9.98101 20.86061,30.14014 82.35077,35.30701 121.12461,54.63455 44.22972,22.04712 127.95183,-23.3682 127.49343,-33.76515 z"
       id="path4149"
       inkscape:connector-curvature="0"
       sodipodi:nodetypes="ccccssssssssc" />
    <path
       style="fill:#e4413e;fill-opacity:1;fill-rule:evenodd;stroke:none;stroke-width:1px;stroke-linecap:butt;stroke-linejoin:miter;stroke-opacity:1"
       d="m 206.06078,785.37441 c 0,0 16.21652,14.15653 25.8599,18.60098 13.85733,6.38659 29.68644,7.07657 44.46089,10.88838 8.95156,2.30951 17.97125,4.41387 26.76727,7.25892 8.15097,2.63641 15.64626,7.38624 24.04517,9.07365 4.15407,0.83458 8.47104,0.24809 12.70312,0.45369 5.76907,0.28027 11.7841,1.91927 17.29498,1.06304 9.50878,-1.47737 25.35118,-9.22933 25.35118,-9.22933 0,0 7.12561,-4.14013 11.34206,-4.99051 6.07795,-1.22581 12.54464,-1.42715 18.1473,-4.08314 3.99103,-1.89198 12.35951,-6.88308 12.35951,-6.88308 l 14.86144,-18.06946 -1.81473,-14.06416 12.24943,-28.12832 2.52361,-12.98666 c 0,0 -13.54184,-8.38483 -19.76354,-13.32693 -6.95433,-5.52405 -11.99597,-13.41 -19.50835,-18.1473 -5.22588,-3.29543 -17.23994,-6.80524 -17.23994,-6.80524 0,0 -15.66212,12.74766 -19.05467,21.77677 -2.60635,6.93666 -1.87589,13.04613 -4.53683,19.96203 -2.26849,5.8959 -2.22588,14.1833 -8.16628,16.33257 -5.02774,1.81906 -10.66045,-1.10431 -15.87889,-2.26841 -7.56367,-1.68726 -14.55362,-7.86466 -22.23044,-6.80524 -4.98659,0.68816 -8.40645,5.59833 -13.38363,6.35155 -5.58672,0.84547 -15.65206,-2.72209 -15.65206,-2.72209 l -7.25892,-0.45368 c -2.69117,-0.42492 -64.33242,5.06016 -69.41343,12.24943 -4.00546,5.66745 -16.40735,-1.58226 -20.41571,4.08314 -3.08811,4.36472 2.26841,15.87889 2.26841,15.87889 z"
       id="path4151"
       inkscape:connector-curvature="0"
       sodipodi:nodetypes="csssssscsscccccsscsssassccsscc" />
    <path
       style="fill:#f2605d;fill-opacity:1;fill-rule:evenodd;stroke:#000000;stroke-width:0.2;stroke-linecap:butt;stroke-linejoin:round;stroke-miterlimit:4;stroke-dasharray:none;stroke-opacity:1"
       d="m 210.14392,769.04183 26.76727,8.61997 c 0,0 7.09657,-2.96403 10.4347,-1.81473 4.04942,1.39419 8.61997,9.52734 8.61997,9.52734 0,0 13.54977,-5.74392 20.41571,-4.53683 3.88397,0.68283 9.98102,6.35156 9.98102,6.35156 0,0 3.14813,4.76921 5.44419,6.35155 5.15977,3.55587 11.44423,5.89061 17.69362,6.35156 3.84511,0.28361 11.34206,-2.26842 11.34206,-2.26842 0,0 4.02483,7.76801 7.7126,9.52734 8.46242,4.03719 18.81473,1.08096 28.12832,0 5.24693,-0.60897 10.2789,-2.43922 15.42521,-3.62946 6.6482,-1.5376 13.17705,-5.26269 19.96203,-4.53683 2.48906,0.26628 4.3051,3.05073 6.80524,3.17578 6.40091,0.32016 12.67866,-3.00969 18.1473,-6.35156 7.30191,-4.46218 18.60098,-17.69362 18.60098,-17.69362 l 2.7221,10.4347 c 0,0 -21.47568,15.84964 -33.33899,21.82236 -12.45499,6.27061 -24.69803,12.08428 -39.25022,14.47225 -7.6473,1.2549 -15.4097,2.84482 -23.13781,2.26841 -22.23852,-1.65869 -43.2466,-10.90617 -64.8766,-16.33257 -15.72442,-3.94485 -32.30302,-5.36101 -47.18299,-11.79575 -9.24068,-3.99607 -25.32119,-11.50113 -25.40622,-16.33257 -0.0922,-5.23912 -0.20665,-15.28414 4.99051,-13.61048 z"
       id="path4153"
       inkscape:connector-curvature="0"
       sodipodi:nodetypes="scscscsscsssssaccsssssss" />
    <path
       style="fill:#fffacd;fill-rule:evenodd;stroke:#000000;stroke-width:1.40143645px;stroke-linecap:butt;stroke-linejoin:round;stroke-opacity:1"
       d="m 737.03095,588.76263 -235.40422,-17.53562 -14.04743,-13.887 -1.80111,10e-6 261.15876,10.77347 z"
       id="path4179"
       inkscape:connector-curvature="0"
       sodipodi:nodetypes="cccccc" />
    <path
       style="fill:#f98a52;fill-opacity:1;fill-rule:evenodd;stroke:#000000;stroke-width:1px;stroke-linecap:butt;stroke-linejoin:round;stroke-opacity:1"
       d="m 421.82102,800.24292 6.14084,2.87779 c 0,0 15.13312,-9.29599 20.81908,-15.93157 6.16479,-7.19438 13.61047,-24.95254 13.61047,-24.95254 l 0.90737,-12.24943 c 0,0 2.76015,-10.55013 6.80524,-13.61048 2.57816,-1.95053 7.30585,0.53399 9.52733,-1.81473 3.14508,-3.32523 0.80675,-9.14588 1.81473,-13.61048 2.06435,-9.14353 4.47077,-18.36193 8.61997,-26.76727 3.17525,-6.43232 9.89795,-10.91663 12.24943,-17.69362 1.58945,-4.5808 0.90736,-12.24942 0.90736,-14.51784 0,-2.26841 2.7221,-19.96203 2.7221,-19.96203 l 6.35155,-27.67463 c 0,0 3.17578,-13.1568 3.62946,-14.97153 0.45369,-1.81473 2.26842,-24.04517 2.26842,-24.04517 l -12.92995,-13.7239 c 0,0 -3.21453,-5.49925 -3.40262,-8.96024 -0.19576,-3.60202 0.96304,-5.01689 2.72209,-8.16628 1.55036,-2.77575 0.935,2.25934 4.08314,1.81473 3.39488,-0.47946 3.99011,-4.67916 6.80524,-2.72209 1.72949,1.20233 4.00356,3.18946 5.89787,2.26841 3.6997,-1.79886 3.01776,-7.72765 3.62947,-11.79575 0.53969,-3.58911 2.28468,-8.06824 0,-10.88838 -3.21133,-3.96398 -11.87849,-0.46344 -14.97153,-3.17578 -3.13662,-2.75055 0.5082,-12.62418 -3.62946,-13.15679 -8.82395,-1.13584 -14.79802,9.94572 -22.68413,14.06416 -4.39979,2.29774 -13.39051,5.42119 -13.39051,5.42119 3.74441,15.22582 13.16138,29.95838 19.74207,44.93757 0,0 4.34072,25.24185 -0.97185,36.42749 -3.17112,6.67681 -8.24835,5.71632 -12.63863,11.66286 -12.57031,17.0262 -14.97152,61.70083 -14.97152,61.70083 0,0 -7.02025,23.04694 -8.61997,34.93356 -0.78691,5.8471 -0.45368,17.69362 -0.45368,17.69362 l -15.87889,39.92406 c 0,0 -5.55212,16.86507 -10.94107,23.69449 -0.99086,1.25573 -3.76942,2.96977 -3.76942,2.96977 z"
       id="path4157"
       inkscape:connector-curvature="0"
       sodipodi:nodetypes="ccsccssssssccsccsssssassssccsscsccac" />
    <path
       style="fill:#efcfcb;fill-opacity:1;fill-rule:evenodd;stroke:#000000;stroke-width:1px;stroke-linecap:butt;stroke-linejoin:round;stroke-opacity:1"
       d="m 283.84959,759.21649 4.99051,19.96204 c 0,0 -6.79759,-0.47795 -9.52734,-2.26842 -3.16133,-2.07355 -5.70437,-5.45679 -6.80523,-9.07365 -0.83781,-2.75262 0.45368,-8.61997 0.45368,-8.61997 1.6956,-3.42144 8.58652,-9.20743 10.88838,0 z"
       id="path4161"
       inkscape:connector-curvature="0"
       sodipodi:nodetypes="scsscs" />
    <path
       style="fill:#fee192;fill-opacity:1;fill-rule:evenodd;stroke:#000000;stroke-width:1px;stroke-linecap:butt;stroke-linejoin:round;stroke-opacity:1"
       d="m 369.38649,782.65231 -10.88838,-1.81473 -1.36105,-4.53683 5.89788,0.90737 3.62946,-1.36105 z"
       id="path4163"
       inkscape:connector-curvature="0" />
    <path
       style="fill:#fee192;fill-opacity:1;fill-rule:evenodd;stroke:#000000;stroke-width:1px;stroke-linecap:butt;stroke-linejoin:round;stroke-opacity:1"
       d="m 336.26767,793.99437 2.26841,-6.80523 -6.35156,0 -5.89787,4.08314 3.17578,3.17578 z"
       id="path4165"
       inkscape:connector-curvature="0" />
    <path
       style="fill:#fee192;fill-opacity:1;fill-rule:evenodd;stroke:#000000;stroke-width:1px;stroke-linecap:butt;stroke-linejoin:round;stroke-opacity:1"
       d="m 394.28871,795.91211 -1.36105,-3.62946 3.17578,-1.36105 7.71261,4.53682 -1.81474,3.17578 z"
       id="path4167"
       inkscape:connector-curvature="0" />
    <path
       style="fill:#b56c55;fill-opacity:1;fill-rule:evenodd;stroke:#000000;stroke-width:1px;stroke-linecap:butt;stroke-linejoin:miter;stroke-opacity:1"
       d="m 190.63557,738.6451 c 7.29915,-0.98461 20.8694,-7.25892 20.8694,-7.25892 0,0 5.99155,0.71691 8.61996,-0.45368 4.68884,-2.08823 6.47294,-8.27117 10.88839,-10.88838 5.5575,-3.29415 12.79991,-2.60079 18.60098,-5.44419 4.86206,-2.38314 8.20634,-7.33369 13.15679,-9.52734 5.3691,-2.37917 11.80882,-1.3955 17.23994,-3.62946 5.15962,-2.12228 8.83772,-7.12171 14.06416,-9.07365 6.01054,-2.24477 12.67564,-2.03389 19.05467,-2.72209 6.18104,-0.66684 15.4252,-1.81473 18.60098,-1.36105 3.17578,0.45368 19.89511,-1.01384 29.03568,-4.53682 5.40101,-2.08167 12.64289,-4.05114 14.51784,-9.52734 1.81247,-5.29374 -2.48219,-11.13176 -5.44419,-15.87889 -3.96247,-6.35057 -9.35339,-12.21162 -15.87888,-15.87889 -5.02012,-2.82127 -11.06862,-3.39774 -16.78626,-4.08314 -7.65778,-0.91797 -15.44407,-0.53915 -23.13781,0 -10.8166,0.75799 -22.16536,0.45648 -32.21146,4.53683 -7.11816,2.89113 -12.01595,9.65267 -18.60098,13.61047 -4.46382,2.68289 -8.90266,6.11061 -14.06416,6.80524 -4.11546,0.55386 -8.09864,-2.38976 -12.24943,-2.26841 -10.74215,0.31406 -21.13212,4.24515 -31.3041,7.7126 -5.31932,1.81326 -10.21347,4.70262 -15.4252,6.80524 -8.96248,3.61582 -19.07629,4.77866 -27.22096,9.98102 -6.30832,4.0294 -11.80001,9.60245 -15.87889,15.87888 -1.14778,1.76616 -1.21003,4.07673 -2.26841,5.89788 -2.15996,3.71663 -7.0746,5.82325 -8.16628,9.98101 -0.89658,3.4147 -0.63721,7.89462 1.81473,10.4347 2.03931,2.11261 5.72053,2.27862 8.61996,1.81473 3.27843,-0.52453 8.61997,-4.99051 8.61997,-4.99051 0,0 3.56619,5.18942 5.89788,7.25893 2.54169,2.25589 5.3887,4.39149 8.61996,5.44419 6.48488,2.11268 13.65659,2.2728 20.41572,1.36104 z"
       id="path4169"
       inkscape:connector-curvature="0"
       sodipodi:nodetypes="scsassasssssassssssasssssasscsss" />
    <path
       style="fill:#f9b178;fill-opacity:1;fill-rule:evenodd;stroke:#000000;stroke-width:1px;stroke-linecap:butt;stroke-linejoin:miter;stroke-opacity:1"
       d="m 333.99925,623.86342 c -11.56487,4.99242 -25.1319,1.82448 -37.65565,3.17578 -11.52546,1.24358 -23.16212,2.0286 -34.47987,4.53682 -14.24222,3.15633 -28.16291,7.81842 -41.7388,13.1568 -12.77925,5.02512 -23.80711,14.67051 -37.20196,17.69362 -8.85103,1.99761 -27.22096,0 -27.22096,0 l 0,0 c 0,0 -18.12452,2.08218 -27.22095,2.72209 -7.39803,0.52043 -16.97297,6.13812 -22.23044,0.90737 -6.00737,-5.97684 -0.79443,-17.10473 0.90736,-25.40623 1.43255,-6.98806 7.71261,-19.96203 7.71261,-19.96203 0,0 -0.54072,-6.16655 1.36105,-8.16628 3.41377,-3.58963 14.51784,-3.17578 14.51784,-3.17578 l 4.08314,-1.81473 c 0,0 14.73773,-11.00478 23.13781,-14.51784 10.32148,-4.31663 21.56228,-6.33682 32.66514,-7.71261 10.20652,-1.26472 20.57957,-0.98509 30.85041,-0.45368 8.973,0.46426 17.80151,2.58808 26.76727,3.17578 11.77145,0.77161 23.5987,0.0145 35.38724,0.45368 12.26424,0.45687 24.49325,2.92745 36.74829,2.26841 6.28097,-0.33777 13.07613,-6.18255 18.60098,-3.17577 3.03482,1.65164 2.94533,6.26491 4.08314,9.52733 1.70344,4.88425 5.54654,10.01006 4.08315,14.97152 -1.66633,5.6495 -7.74905,9.46129 -13.1568,11.79575 z"
       id="path4171"
       inkscape:connector-curvature="0"
       sodipodi:nodetypes="sssascsssscsccssssssssss" />
    <path
       style="fill:#edba9e;fill-opacity:1;fill-rule:evenodd;stroke:#000000;stroke-width:1px;stroke-linecap:butt;stroke-linejoin:miter;stroke-opacity:1"
       d="m 264.13214,554.44999 c 4.84337,3.624 -3.84756,13.47955 0,18.1473 3.52766,4.27966 10.93054,4.43193 16.33257,3.17578 10.72343,-2.49356 22.41253,-9.66681 26.31359,-19.96203 1.91262,-5.04757 -6.00871,-11.28426 -3.17578,-15.87889 3.29262,-5.34018 15.07334,0.47846 18.1473,-4.99051 2.69722,-4.79869 -1.53308,-11.26587 -4.53682,-15.87889 -3.22247,-4.94894 -7.83241,-10.12126 -13.61048,-11.34206 -6.46304,-1.36552 -12.8186,7.62295 -19.05466,5.44419 -6.14055,-2.14539 -5.47187,-13.07714 -11.34207,-15.87889 -6.83624,-3.26282 -15.47796,-0.97376 -22.68413,1.36105 -3.75153,1.2155 -6.03748,6.34729 -9.98101,6.35155 -5.37017,0.006 -8.24037,-8.64611 -13.61048,-8.61997 -3.06209,0.0149 -7.7126,3.17578 -7.7126,4.99051 0,1.81473 11.48454,10.27859 8.61997,15.42521 -1.61971,2.91005 -9.98102,0.45368 -9.98102,0.45368 l -12.70311,-1.36105 -8.61997,-9.07365 c 0,0 -10.49821,-3.50076 -14.06416,-0.45368 -3.7077,3.16821 -0.35027,9.86597 -1.81473,14.51784 -1.84851,5.87181 -9.84128,10.29903 -8.61997,16.33257 0.85285,4.21324 6.19243,6.1352 9.98102,8.16629 3.62567,1.94375 8.33339,1.40781 11.79575,3.62946 6.31025,4.04902 7.95859,14.13434 14.97152,16.78625 3.56167,1.34683 8.0663,0.5803 11.34206,-1.36104 4.47656,-2.65297 4.34055,-10.54081 9.07365,-12.70312 4.42099,-2.01973 10.20887,-0.88778 14.51785,1.36105 2.28309,1.19153 2.52364,5.15838 4.9905,5.89787 5.13381,1.53896 11.13397,-7.74769 15.42521,-4.53682 z"
       id="path4173"
       inkscape:connector-curvature="0"
       sodipodi:nodetypes="ssssssssssssssscccsssssssasss" />
    <path
       inkscape:connector-curvature="0"
       id="path4185"
       d="m 397.61707,744.79767 -10.88838,-1.81473 -1.36105,-4.53683 5.89788,0.90737 3.62946,-1.36105 z"
       style="fill:#fee192;fill-opacity:1;fill-rule:evenodd;stroke:#000000;stroke-width:1px;stroke-linecap:butt;stroke-linejoin:round;stroke-opacity:1" />
    <path
       style="fill:#fee192;fill-opacity:1;fill-rule:evenodd;stroke:#000000;stroke-width:1px;stroke-linecap:butt;stroke-linejoin:round;stroke-opacity:1"
       d="m 395.69226,768.53702 -10.88838,-1.81473 -1.36105,-4.53683 5.89788,0.90737 3.62946,-1.36105 z"
       id="path4187"
       inkscape:connector-curvature="0" />
    <path
       style="fill:#ffe4e1;fill-opacity:1;fill-rule:evenodd;stroke:none;stroke-width:1px;stroke-linecap:butt;stroke-linejoin:miter;stroke-opacity:1;filter:url(#filter4211)"
       d="m 161.68421,704.29202 41.70426,-23.41854 35.28822,-5.77444 c 0,0 37.53383,-12.83208 38.81704,-13.15288 1.28321,-0.3208 16.0401,-11.54887 16.0401,-11.54887 l 24.70175,2.88721 -1.60401,8.66166 -46.83709,10.58646 -49.72431,15.3985 -35.92982,13.79449 -19.88973,10.26566 z"
       id="path4189"
       inkscape:connector-curvature="0" />
    <path
       inkscape:connector-curvature="0"
       id="path4215"
       d="m 79.558901,597.78576 41.704259,-23.41854 35.28822,-5.77444 c 0,0 37.53383,-12.83208 38.81704,-13.15288 1.28321,-0.3208 16.0401,-11.54887 16.0401,-11.54887 l 24.70175,2.88721 -1.60401,8.66166 -46.83709,10.58646 -49.72431,15.3985 -35.92982,13.79449 -19.889729,10.26566 z"
       style="fill:#ffe4e1;fill-opacity:1;fill-rule:evenodd;stroke:none;stroke-width:1px;stroke-linecap:butt;stroke-linejoin:miter;stroke-opacity:1;filter:url(#filter4211)"
       transform="matrix(0.92136211,0,0,0.6438787,41.283958,246.0421)" />
    <path
       style="fill:#dcdcdc;fill-rule:evenodd;stroke:none;stroke-width:1px;stroke-linecap:butt;stroke-linejoin:miter;stroke-opacity:1;filter:url(#filter4247)"
       d="m 183.81954,525.92611 22.77695,-1.60401 c 0,0 11.22807,-0.64161 12.83208,0.3208 1.60401,0.96241 8.66165,13.47368 8.66165,13.47368 0,0 -8.02005,7.37845 -9.94486,6.41604 -1.92481,-0.9624 -10.90727,-2.88721 -16.0401,-4.49122 -5.13283,-1.60401 -18.28572,-14.11529 -18.28572,-14.11529 z"
       id="path4217"
       inkscape:connector-curvature="0" />
    <path
       inkscape:connector-curvature="0"
       id="path4251"
       d="m 216.86215,479.08902 22.77695,-1.60401 c 0,0 11.22807,-0.64161 12.83208,0.3208 1.60401,0.96241 8.66165,13.47368 8.66165,13.47368 0,0 -8.02005,7.37845 -9.94486,6.41604 -1.92481,-0.9624 -10.90727,-2.88721 -16.0401,-4.49122 -5.13283,-1.60401 -18.28572,-14.11529 -18.28572,-14.11529 z"
       style="fill:#dcdcdc;fill-rule:evenodd;stroke:none;stroke-width:1px;stroke-linecap:butt;stroke-linejoin:miter;stroke-opacity:1;filter:url(#filter4247)"
       transform="matrix(0.58272256,0,0,0.5997636,120.41999,219.02652)" />
    <path
       transform="matrix(0.38788439,-0.43486927,0.44758652,0.39922761,-22.03251,467.24255)"
       style="fill:#dcdcdc;fill-rule:evenodd;stroke:none;stroke-width:1px;stroke-linecap:butt;stroke-linejoin:miter;stroke-opacity:1;filter:url(#filter4247)"
       d="m 216.86215,479.08902 22.77695,-1.60401 c 0,0 11.22807,-0.64161 12.83208,0.3208 1.60401,0.96241 8.66165,13.47368 8.66165,13.47368 0,0 -8.02005,7.37845 -9.94486,6.41604 -1.92481,-0.9624 -10.90727,-2.88721 -16.0401,-4.49122 -5.13283,-1.60401 -18.28572,-14.11529 -18.28572,-14.11529 z"
       id="path4253"
       inkscape:connector-curvature="0" />
    <path
       style="fill:#e63328;fill-opacity:1;fill-rule:evenodd;stroke:none;stroke-width:1px;stroke-linecap:butt;stroke-linejoin:miter;stroke-opacity:1"
       d="m 396.60744,661.97275 c -1.98769,11.09385 -0.90736,33.79935 -0.90736,33.79935 5.25756,23.55811 35.58306,28.8101 56.48348,40.94485 0,0 10.84741,-59.10218 21.54992,-86.99363 5.52609,-14.40136 18.0356,-25.86678 21.77676,-40.83143 3.0076,-12.0304 2.5577,-25.06794 0,-37.20196 -3.47739,-16.49715 -6.75147,-31.07167 -20.41571,-46.27562 l -32.66515,4.9905 c 0,0 -17.52087,6.70931 -24.49886,12.70312 -8.37516,7.19393 -14.68885,16.83408 -19.50835,26.76727 -3.90825,8.05506 -7.34714,16.90721 -7.25892,25.8599 0.14944,15.16505 13.41742,28.38998 13.1568,43.55353 -0.13725,7.98529 -6.3041,14.82283 -7.71261,22.68412 z"
       id="path4159"
       inkscape:connector-curvature="0"
       sodipodi:nodetypes="sccssaccassss" />
    <path
       style="fill:#ce5750;fill-opacity:1;fill-rule:evenodd;stroke:none;stroke-width:1px;stroke-linecap:butt;stroke-linejoin:miter;stroke-opacity:1;filter:url(#filter4273)"
       d="m 431.47869,542.28701 5.45364,7.37845 -14.7569,13.47368 c 0,0 -9.94486,13.79449 -7.05764,36.57143 2.88722,22.77694 8.98246,56.14035 8.98246,56.14035 0,0 -5.45364,18.28571 -7.05765,25.02256 -1.60401,6.73684 -7.37844,6.41604 -7.37844,6.41604 0,0 8.66165,-26.62657 7.05764,-38.81705 -1.60401,-12.19047 -7.05764,-30.47619 -9.62406,-40.74185 -2.56642,-10.26567 -1.60401,-25.02256 -0.96241,-26.62657 0.64161,-1.60401 8.66166,-18.28571 9.62406,-19.88972 0.96241,-1.60401 8.34086,-9.30326 8.34086,-9.30326 z"
       id="path4255"
       inkscape:connector-curvature="0" />
    <path
       style="fill:#bab469;fill-opacity:1;fill-rule:evenodd;stroke:#000000;stroke-width:1px;stroke-linecap:butt;stroke-linejoin:round;stroke-opacity:1"
       d="m 434.2631,582.12462 -0.38607,4.83011 6.5898,4.46921 303.50104,30.2489 2.6443,-4.31666 -306.45116,-30.24105 z"
       id="path4177"
       inkscape:connector-curvature="0"
       sodipodi:nodetypes="ccccccc" />
    <path
       style="fill:#bdb76b;fill-rule:evenodd;stroke:#000000;stroke-width:1px;stroke-linecap:butt;stroke-linejoin:round;stroke-opacity:1"
       d="m 518.19436,577.81464 221.17025,13.15679 -1.70132,-3.62945 -219.92261,-13.83732 z"
       id="path4181"
       inkscape:connector-curvature="0"
       sodipodi:nodetypes="ccccc" />
    <path
       style="fill:#fffacd;fill-opacity:1;fill-rule:evenodd;stroke:#000000;stroke-width:1.33714581px;stroke-linecap:butt;stroke-linejoin:round;stroke-opacity:1"
       d="m 440.94109,575.94164 -6.46932,6.35541 6.40308,4.70449 305.88591,30.79544 8.9947,-20.25259 z"
       id="path4175"
       inkscape:connector-curvature="0"
       sodipodi:nodetypes="cccccc" />
  </g>
</svg>
