<?xml version="1.0" encoding="UTF-8"?><svg id="a" xmlns="http://www.w3.org/2000/svg" viewBox="0 0 399.47 466.94"><g id="b"><path id="c" d="m215.57,197.66l1.56,6.66,10.54,3.23,9.21.51,8.36-9.38-1.87-1.7-7.34,3.57-6.83,1.53-13.63-4.42Z" style="fill:#fff5ce; fill-rule:evenodd;"/><path id="d" d="m205.36,170.73l3.91,14.66,4.93-1.7,11.76-3.4,14.14,3.06,5.47,4.08,6.29-4.76-.17-8.53-9.38-4.08-18.4-.34-18.57,1.02Z" style="fill:#fff5ce; fill-rule:evenodd;"/><path id="e" d="m212.67,187.6l13.29,13.63,13.97-3.4,4.45-4.76-1.73-8.19-21.12-5.1-8.87,7.82Z" style="fill:red; fill-rule:evenodd;"/><path id="f" d="m195.41,407.17l.91-1.84-.14-3.34-4.62-12.3-3.66-7.31-10.97-2.49-21.15-2.69-10.77,1.33-4.62,8.65-8.65,12.9-5.95,3.46-15.79,4.22-14.8-1.73-5.95-5.39-6.75-9.81-12.33,7.11-.26.43-8.39,9.35-12.53,14.74-17.72.88-12.39-5.3,5.1,5.3,21.97,2.24-1.7,20.27-3.06,13.97-19.93,3.77-16.04-10.06-2.38-31.89,2.32-16.89-.91-24.01,1.33-33.08,2.21-23.22-.37-19.59-2.24-16.81,2.41-13.66,2.41-13.92,2.69-11.54,2.32-11.31,2.58-12.7,7.23-19.22,11.37-25.43,23.13-37.76,20.47-29.74,19.67-19.13,31.69-18.62.28-.06,10.63-9.84,6.94-5.13,7.57-1.79,3.8.68,8.48-19.87,11.4-18.99,10.94-8.7,9.81-5.78,4.25.43,8.02-3.12,14.97-1.11,17.63.88,17.4,6.49,14.74,11.14,9.84,15.85,3.57,8.7,6.46,5.81,9.81,11.62,2.92,4,15.85,1.36,4.9,10.94-2.89,18.74,3.12,8.25,6.46,12.27,12.73,20.78,5.58,18.96,3.8,14.51,3.12,10.49-1.19-.06.77,15.48,7.14,18.74,9.16,11.4,4,5.78,2.92,9.84,7.6,26.11,2.44,17.86-2.89,14.94-9.16,11.85-10.71,8.28-4.03,2.01-1.11,13.83-10.94,8.25-15.17,4.9-5.16-4.9-9.81-2.89-9.61-3.12-.65,8.02-3.8.23-7.6-6.92-2.24.88-3.77-5.36-2.24-9.81,2.66-9.61.68-3.57,7.8-11.37-.43-2.47-9.72-4.37.34.57-5.02.74-.57,1.05-15.17-3.12-12.95-2.47-10.94,5.81-7.82,12.5-5.78,14.97-7.37,10.26-.77-.31,5.13,14.54,8.65,22.31,9.61,16.53,8.84,19.25,2.89,15.19-1.93,17.49-1.16,2.13-4.22-.4-.2-12.3-3.83-3.66-5.78,2.13,2.3,5.75v12.3l-2.3,4.42-1.73-1.13-1.33-7.51-2.89-3.66-5.58,9.44h-4.62l-7.48-5.39-10.4-6.75-6.72-3.83-3.86-5.39-5.95-5.39-4.22-15.39Zm-50.57-307.81l.79.6-1.25-2.1.45,1.5Zm70.04,101.93l3.12,5.36,8.93,1.33,9.61,1.56,8.02-8.48,3.57-12.5,3.8-2.89,2.78-8.9-.99-.06-9.38-5.58-9.16-2.89-20.1,1.56-10.49,2.24.91,8.02,3.34,7.82,6.04,9.81-1.33,4.45,1.33-.85Z" style="fill:#b85c00; fill-rule:evenodd;"/><path id="g" d="m23.75,466.02c-1.53-.57-4.79-1.22-7.26-1.5-5.05-.57-8.99-2.24-9.64-4.08-.26-.68-.91-1.79-1.47-2.44-.57-.68-1.73-3.2-2.58-5.64s-1.9-4.85-2.32-5.36c-.48-.57-.6-3.46-.34-7.48.23-3.63.77-12.36,1.19-19.42.54-8.59,1.19-13.55,1.93-15,.62-1.19,1.13-3.26,1.13-4.59,0-.6-.06-1.98-.11-3.54l-.94-5.02c-1.73-5.36-1.73-37.16,0-40.48.71-1.39,1.08-3.94.99-6.86-.26-9.64.23-17.21,1.25-19.67,1.36-3.26,1.36-6.97,0-10.23-1.39-3.32-1.67-29.48-.37-31.07.51-.6,1.02-4.9,1.19-10.15.23-6.32.65-9.61,1.42-10.69.6-.85,1.08-2.15,1.08-2.92,0-1.42,3.43-14,5.05-17.91.2-1.87.99-6.04.96-9.38,0-2.98.31-5.61.74-5.87s.74-1.28.74-2.24.34-2.01.77-2.27c.4-.26.74-1.05.74-1.76s.68-2.61,1.5-4.22,1.5-3.54,1.5-4.28c0-1.13,1.76-5.61,3.86-9.78.37-.71.65-2.49.65-3.97,0-2.04.62-3.32,2.64-5.41,1.47-1.47,2.86-3.57,3.12-4.65.68-2.61,3.03-6.77,5.13-9.04.96-1.02,2.83-4.62,4.14-7.97,1.56-3.97,3.54-7.37,5.67-9.75,1.81-2.01,3.29-4.03,3.29-4.51,0-.45.51-1.25,1.13-1.79.65-.51,1.13-2.15,1.13-3.74s.48-3.23,1.08-3.71c.6-.51,1.79-2.24,2.64-3.88,1.79-3.43,5.16-8.25,9.16-13.04,1.53-1.81,3-4.08,3.29-4.99.31-.94,1.3-2.3,2.27-3.03,1.81-1.45,7.46-9.47,8.16-11.68.23-.71,2.13-2.47,4.22-3.91,2.07-1.45,4.34-3.2,5.02-3.94.96-1.02,7.26-6.75,10.94-9.61.91-1.16,2.13-2.1,3.71-2.86,1.79-.88,4-2.35,4.88-3.26.88-.94,2.21-2.24,2.95-2.92,1.84-1.67,11.25-6.66,12.59-6.66.6,0,2.75-.99,4.76-2.24s4.05-2.24,4.59-2.24c1.36,0,5.98-3.66,5.98-4.73,0-1.42,5.7-7.29,7.06-7.29.65,0,1.19-.26,1.19-.6,0-.74,7.4-3.88,9.07-3.88,1.05,0,4.42-3.77,4.42-4.93,0-.28.88-1.5,1.9-2.72,1.05-1.22,1.87-3.06,1.87-4.05s.26-1.81.57-1.81c.68,0,1.36-1.16,4.11-7.14,1.16-2.47,2.41-4.99,2.83-5.58.4-.62.96-1.64,1.25-2.27,2.18-4.93,12.84-15.65,18.09-18.2,1.5-.74,3.06-1.64,3.46-2.07.4-.4,1.33-.74,2.04-.74s1.81-.51,2.47-1.16c.54-.54,4.17-.91,5.61-.88.96-.54,2.3-1.02,3.43-1.28.17-1.02,1.25-1.93,2.69-1.93.74,0,1.56-.34,1.81-.74.74-1.16,3.63-.96,5.05.09,1.76-.51,4-.79,5.05-.6,1.25.26,2.41.14,2.64-.2.23-.37,3.15-.65,6.46-.65,3.2.03,6.32.23,8.36.71.28-.17.62-.34,1.02-.43,1.76-.45,5.53.65,7.34,2.1.65-.06,1.45-.03,2.38.14,2.01.4,5.56,1.59,7.34,2.81,2.44.31,7.09,1.93,9.35,3.37.82.54,3.26,2.27,4.93,3.91,2.18.82,5.13,2.47,7.71,5.02,4.68,4.54,5.41,5.67,6.92,10.52,1.25,4.05,2.24,5.81,3.88,6.97,1.36.99,2.21,2.24,2.21,3.34,0,.96.4,1.9.94,2.1.74.28.74.65,0,1.93-.54.88-.94,1.76-.94,1.96s1.87.23,4.14.06c3.46-.28,4.25-.11,4.56.94.23.71.71,1.87,1.08,2.58.4.74.71,1.81.71,2.44s1.87,3.32,4.14,5.98c2.3,2.66,4.11,5.41,4.11,6.07,0,1.02.54,1.13,3,.71.79-.11,1.79.03,2.69.31,2.66-.26,6.58.4,8.93,1.59,1.62.82,3.26,1.5,3.71,1.5,1.9.03,2.95,1.67,3.43,5.36.28,2.21.96,5.07,1.53,6.41.88,2.18.82,2.72-.68,5.36-.91,1.64-1.45,3.51-1.19,4.17s-.06,2.01-.68,2.98c-.65.96-1.39,2.95-1.64,4.39-.45,2.41-.28,2.81,1.73,4,1.59.94,2.35,2.07,2.66,3.94.23,1.45,1.25,3.49,2.27,4.56s1.96,2.78,2.1,3.77c.17,1.36.88,2.01,2.64,2.47,1.98.51,2.49,1.08,2.92,3.26.34,1.93,1.11,2.95,2.81,3.83l2.35,1.22-1.67,1.11c-2.27,1.5-2.13,2.38,1.02,6.49.91,1.19,1.64,3.8,2.01,5.78,1.67,2.01,3.51,5.47,3.8,7.03.14.77.34,1.79.54,2.72,2.07,3.17,3.8,9.21,3.37,10.86-.23.99.34,3.74,1.36,6.46.99,2.58,2.24,5.9,2.78,7.34s1.02,4.14,1.08,6.01c.03,1.87.31,3.8.62,4.28s-.11,3.29-.71,5.84c.34,1.81.45,3.86.48,4.82,0,.65.51,1.81,1.11,2.64.62.79,1.11,2.07,1.11,2.86s.51,1.9,1.13,2.52,1.13,1.96,1.13,2.98.68,3.23,1.56,4.9c.91,1.79,1.36,3.77,1.13,4.73-.28,1.13.06,2.15,1.05,3.03.82.74,1.5,2.18,1.5,3.17,0,1.16.51,1.98,1.39,2.21,2.07.54,4.85,4.65,4.76,7.11-.03,1.33.31,2.13.99,2.13,1.13,0,3.83,5.02,3.09,5.78-.28.26.31,1.5,1.25,2.78,2.21,2.95,3.03,4.9,2.83,6.89-.09.88.71,3.51,1.76,5.9,1.05,2.35,2.27,6.46,2.75,9.1.45,2.64,1.13,4.99,1.5,5.22s.68,1.53.68,2.92.48,2.86,1.11,3.4c.62.51,1.13,1.96,1.13,3.2s.4,3.6.88,5.22c.71,2.35.71,3.29-.06,4.51-.77,1.25-.71,2.38.37,6.35,1.19,4.39,1.22,5.05.17,6.86-.65,1.11-1.59,3.74-2.07,5.9-.6,2.49-2.1,5.39-4.17,8.08-4.54,5.81-12.33,13.12-14.6,13.66-1.05.26-2.32.77-2.83,1.19-.62.48-1.33.43-2.13-.26-1.79-1.47-2.47.23-2.15,5.61.6,10.46-3.71,16.1-14.83,19.47-9.5,2.89-15.48,2.44-16.75-1.3-.51-1.59-.54-1.59-.85.11-.31,1.53-2.78,3.15-4.79,3.15-.37,0-.68-1.53-.68-3.43,0-2.41-.28-3.34-.94-3.12-1.28.4-1.64,5.64-.54,6.97,1.64,1.98-.51,1.11-3.37-1.39-1.59-1.33-3.23-3.6-3.69-5.05-.48-1.42-1.45-2.69-2.15-2.83-1.96-.37-1.81,4.42.17,6.24.82.74,1.5,1.96,1.5,2.69s.34,1.56.77,1.81c1.25.77.82,2.61-.62,2.61s-5.61-4.05-6.46-6.38c-.57-1.47-.6-1.47-1.7.17-1.05,1.56-1.22,1.59-2.98.45-.99-.68-2.49-2.49-3.29-4.05-1.7-3.37-2.69-4.11-4-3.03-.71.6-1.73.06-4.08-2.21-2.75-2.64-3.12-3.4-3.12-6.29,0-1.81-.37-3.51-.77-3.8-1.36-.82-.74-11.74.77-13.86.99-1.42,1.16-2.27.6-3.26-.79-1.42.96-4.51,5.44-9.52,1.19-1.36,2.18-2.83,2.18-3.29,0-.43-1.11-1.56-2.47-2.49-3.26-2.21-8.36-2.3-9.69-.17-.77,1.25-1.76,1.5-5.87,1.5s-5.36-.34-7.34-1.81c-1.47-1.08-3.03-1.62-3.94-1.39-.85.23-2.27.03-3.15-.43-3.2-1.59-7.48-3.12-8.67-3.12-.68,0-1.64.62-2.13,1.42-.48.77-2.78,2.49-5.1,3.83-5.39,3.09-9.67,8.45-10.89,13.63-.51,2.21-1.36,4.82-1.87,5.87-.51,1.02-1.13,3.06-1.42,4.51-.48,2.52-1.9,4.59-7,10.26-2.64,2.89-3.12,5.67-1.33,7.46.62.62,1.13,1.93,1.13,2.89s.88,3.49,1.93,5.58c1.81,3.63,3.06,7.37,5.07,15.19.48,1.96,1.3,3.97,1.81,4.48s.94,1.47.94,2.18.54,1.67,1.13,2.18c.62.51,1.11,1.47,1.11,2.18s.4,1.62.85,2.07c.45.48,1.22,1.53,1.67,2.32.48.82,2.3,3.57,4.05,6.12,1.76,2.58,3.17,5.1,3.17,5.67s.34,1.22.77,1.47c.68.43,3.15,5.41,5.73,11.62.6,1.45,1.62,3.6,2.27,4.79.91,1.64,1.19,4.59,1.25,12.76.06,11.88-.57,17.55-2.38,21.6-1.25,2.81-4.08,4.79-5.53,3.88-.43-.26-1.42.31-2.21,1.3-1.36,1.76-1.42,1.76-2.52.34-.99-1.3-.96-1.62.31-3,4.28-4.71,2.81-18.4-2.01-18.4-1.47,0-1.67.26-1.25,1.67.31.94.99,2.61,1.56,3.71,1.16,2.27,1.39,6.29.37,6.92-.34.23-.79,2.13-1.02,4.25-.2,2.13-.71,4.05-1.16,4.34s-1.16,1.42-1.59,2.55c-1.02,2.66-1.98,2.58-3.49-.28-.65-1.28-1.39-4.17-1.62-6.38-.28-2.69-.77-4.05-1.45-4.05-1.05,0-1.47,3.03-1.16,8.39.2,3.46-1.13,4.42-2.98,2.15-.99-1.22-2.81-1.64-3.83-1.96-.37,2.95-1.53,3.15-3.66.62-3-3.51-8.59-7.71-10.29-7.71-2.81,0-7.6-3.51-7.6-5.58v-.17c-2.15-.23-5.16-.65-5.73-1.22-.91-.91-1.84-2.41-2.13-3.34-.28-.91-.85-1.67-1.25-1.67-.51,0-1.87-1.53-2.98-3.09-1.59-1.33-3.26-2.86-3.91-3.88h-.03c-2.86-4.37-4.99-13.01-4.99-20.47,0-3-.37-4.34-1.47-5.39-.94-.85-1.96-3.71-2.81-7.71l-1.36-6.35-7.11-.2c-3.91-.11-8.19-.2-9.5-.2-1.79,0-2.86-.57-4.14-2.18-1.64-2.13-1.87-2.18-4.73-1.42-4.99,1.33-9.33,1.59-10.46.65-1.81-1.5-3.97.28-11.11,9.13-1.53,1.9-2.81,3.74-2.81,4.03,0,1.5-10.43,11.57-12.02,11.57-.74,0-1.45.28-1.59.6-.74,1.79-5.92,3.91-9.55,3.91-2.13,0-4.79.45-5.9,1.02-3.49,1.76-7.23,2.1-9.58.88-1.19-.6-3.6-1.33-5.39-1.59-3.49-.54-4.59-1.47-3.29-2.78s.99-2.04-.88-2.04c-.96,0-2.41-.48-3.2-1.05-.06-.06-.09-.09-.14-.11l-.06-.06c-.51-.4-.79-.62-.74-.82l-3.43-3.88c-1.05-.96-2.1-2.69-2.32-3.83l-.48-2.07-4.22,2.55c-2.32,1.39-4.9,3.63-5.73,4.96-1.56,2.55-7.37,9.33-13.89,16.21-2.1,2.21-3.83,4.37-3.83,4.76,0,.43-.99,2.04-2.24,3.6-1.47,1.84-2.24,3.71-2.27,5.36,0,1.39-.37,3.86-.79,5.5-1.56,5.9-1.98,9.64-1.36,12.3.91,4.03-1.36,10.8-4.48,13.41-.62.51-1.98.94-3.06.94-1.05.03-2.58.54-3.4,1.16-.88.68-2.24.96-3.43.68-1.28-.28-2.3-.03-2.92.74q-1.13,1.36-4.68.11Zm-17.09-66.7c0,.71.4,2.38.88,3.77.79,2.15.71,2.83-.54,4.93-2.01,3.4-2.66,18.28-.82,18.99.68.26,1.22,1.33,1.25,2.44.03,2.13,1.53,8.42,3.12,13.04.71,2.04,1.39,2.83,2.52,2.83,1.87,0,3.34,1.33,3.34,3.06,0,.71.51,1.47,1.16,1.73.94.34,1.08,1.13.68,3.74-.31,2.07-.17,3.91.43,5.02.88,1.64.96,1.67,1.96.31.54-.77,1.02-1.98,1.02-2.69,0-1.25,1.42-2.18,3.37-2.18.54,0,1.62,1.28,2.38,2.81,1.7,3.51,2.75,3.6,3.23.2.51-3.49,2.58-3.88,4.31-.82,1.79,3.12,2.32,2.92,2.58-.85.23-2.86.45-3.23,2.3-3.43,2.47-.28,2.69-1.08,3.12-9.89.17-3.51.54-7.99.85-9.98q.57-3.6-1.36-3.12c-1.39.34-2.32.06-3.46-1.11-1.93-1.9-2.01-1.9-4.37-.06-2.55,2.01-3.37,1.9-6.29-.82-2.04-1.9-2.75-2.18-3.83-1.5-2.21,1.39-3.51.96-5.27-1.79-.94-1.45-2.3-2.83-3-3.06-.74-.23-1.79-1.33-2.38-2.44-.57-1.11-1.73-2.66-2.61-3.43-1.76-1.62-2.24-6.46-.65-6.43,2.86.03,4.48,1.22,6.32,4.56,1.62,2.98,2.38,3.66,4,3.66,1.22,0,2.81.88,4.14,2.27,2.38,2.47,4.45,2.81,6.86,1.13,2.32-1.64,11.62-2.35,14.57-1.11,2.27.94,2.47.88,3.97-1.22.85-1.22,3.09-3.88,4.99-5.95,5.73-6.24,7.85-10.8,4.54-9.75-1.84.57-2.64-.65-1.16-1.87.6-.51,1.11-1.87,1.11-3s.45-2.24,1.02-2.47c.57-.2,1.25-1.79,1.53-3.51.6-3.77,1.5-3.66,4.56.57,1.25,1.7,2.52,3.12,2.83,3.12.71.06,7-6.29,8.56-8.65.79-1.22,1.87-1.79,3.34-1.79,2.27,0,3.49-1.05,10.2-8.76,1.73-1.96,4.39-5.27,5.92-7.34,1.5-2.07,3.51-4.31,4.39-5.02.88-.68,2.58-2.75,3.8-4.51,1.19-1.79,2.35-3.4,2.58-3.6.79-.79,2.24-3.77,2.24-4.62,0-.48-.85-1.98-1.87-3.32-1.02-1.36-1.87-3.03-1.87-3.69,0-1.76-1.42-4.17-3.94-6.69s-3.69-5.07-3.83-8.31c-.09-1.87-.4-2.24-1.79-2.1-1.25.14-1.7-.2-1.7-1.25,0-.79-.57-2.01-1.28-2.72-1.56-1.56-3.51-7.37-4.65-13.83-1.3-7.57-2.32-20.44-1.81-23.47.28-1.9.06-3.32-.79-4.59-1.3-1.98-1.67-7.57-.54-8.25.79-.48,1.56,2.07,1.56,5.24,0,1.25.43,2.69.91,3.17.51.51,1.02,3.88,1.22,7.82.26,5.47.68,7.6,2.04,9.95.94,1.64,2.1,5.02,2.58,7.51.51,2.47,1.19,5.07,1.59,5.78.37.74.68,3.43.68,6.01.03,4.9.85,7.48,1.87,5.84.88-1.42,1.11-26.19.28-31.01-.68-4-.06-14.03,1.3-20.95.31-1.53.11-2.04-.77-2.04-.65,0-1.19-.37-1.19-.82s.62-.6,1.5-.31c1.22.4,1.5.14,1.5-1.45,0-1.76.28-1.93,3-1.93,1.64,0,2.98-.37,2.98-.77,0-.43.31-.74.74-.74.4,0,.06,1.22-.79,2.72-.82,1.5-1.33,3.23-1.08,3.86.23.6.06,1.56-.4,2.07-.57.71-.54,1.42.14,2.49.74,1.19.74,1.73-.03,2.64-1.33,1.62-1.59,8.7-.4,11.06.77,1.5.79,2.15.09,2.86-.68.71-.6,1.05.43,1.64,2.1,1.16,1.67,5.56-.94,9.78-2.27,3.66-3.2,7.88-1.36,6.04,1.22-1.22,2.86-1.13,2.86.14,0,.57-.51,1.98-1.13,3.17-1.25,2.44-1.47,4.76-.43,4.76.4,0,1.25.57,1.93,1.22,1.16,1.16,1.13,2.83-.09,7.17-.23.79.62,2.15,2.24,3.63,2.52,2.3,2.86,3.17,4.17,10.89.34,2.07,1.64,5.39,2.92,7.37,1.87,2.95,2.35,4.68,2.78,9.92.31,3.46.79,6.32,1.11,6.32s1.11-.77,1.76-1.7c.94-1.36,1.16-1.45,1.22-.4.03,1.67,4.54,5.84,6.32,5.84,1.25,0,1.33.45.99,4.96-.48,5.95-1.9,8.05-4.17,6.01-.77-.71-2.04-2.41-2.78-3.83-.77-1.42-2.07-2.66-2.89-2.81-.85-.11-1.7-.94-1.93-1.84-.45-1.84-4.76-7-5.84-7-.37,0-1.47.85-2.44,1.9-.99,1.02-3.17,2.69-4.88,3.69-1.67.99-3.71,3-4.51,4.45-1.3,2.44-1.33,2.72-.2,3.97s1.08,1.5-.96,3.54c-1.62,1.59-1.98,2.41-1.39,3.12.54.68.48,1.45-.2,2.61-.79,1.3-.79,1.73-.06,1.98,1.11.4,1.28,3.23.2,3.23-.43,0-.77.77-.77,1.73,0,2.01,1.96,5.81,1.81,7.51t.06.03c1.08.4,1.13.71.4,1.62-.51.6-1.59,1.11-2.35,1.11s-1.42.34-1.42.74c0,.43,2.1.77,4.73.77s5.13.4,5.61.88c1.81,1.81,10.74.31,16.75-2.81,1.22-.62,2.49-.96,2.83-.74.94.57,9.81-8.05,9.81-9.55,0-.71.28-1.28.62-1.28.96,0,2.52-5.9,1.84-7.06-.34-.57-1.7-1.93-3.03-3.06-2.92-2.44-3.09-4.37-.54-6.69,2.64-2.44,11.03-3.4,13.12-1.5,1.02.91,2.18,1.16,4.03.85,1.84-.28,2.69-.11,2.98.65.31.82.88.85,2.38.31,3.57-1.36,8.7-.91,10.66.94,1.5,1.39,2.55,1.64,6.18,1.5,3.23-.11,4.48.11,4.79.94s1.42.99,4.85.74c3.97-.31,4.48-.17,4.85,1.13.26.99,1.02,1.5,2.27,1.5,2.3,0,2.86,1.36,3.43,8.62.54,6.24,1.9,7.14,5.05,3.37,1.5-1.79,2.15-2.13,2.64-1.36.96,1.53.74,4.51-.48,6.89-1.3,2.47-1.45,4.68-.37,5.36,1.39.85.82,3.37-.74,3.37-1.98,0-2.72,3.06-1.64,6.63.48,1.5,1.19,4.17,1.62,5.9.45,1.76,1.13,3.34,1.53,3.6.26.17.79.77,1.39,1.56,1.76.88,3.97,2.24,4.14,2.89.26,1.05.96,1.9,1.59,1.9.68,0,1.11.74,1.11,1.84,0,.65,2.01,1.79,3.54,2.58l-.17-.17c-.62-.62-1.13-1.96-1.13-3s-.28-2.07-.65-2.3c-.34-.23-.85-1.42-1.11-2.66-.23-1.25-.91-2.27-1.5-2.27s-2.24-1.39-3.71-3.06c-2.1-2.38-2.78-3.91-3.17-7.14-.28-2.27-.28-4.34-.03-4.62.91-.91,3.03,1.05,3.74,3.46.51,1.79,1.11,2.35,2.44,2.35,1.5,0,1.76.37,1.76,2.58,0,5.56,2.47,8.14,4.71,4.93,1.05-1.5,1.08-1.5,2.64.17.88.94,2.83,2.98,4.31,4.51,1.5,1.56,2.61,2.86,2.47,2.92-.14.03-1.87.17-3.83.28-1.98.09-3.8.37-4.03.6-.85.88.71,3.63,2.44,4.31.99.37,2.15,1.53,2.52,2.55.43,1.05,1.56,2.07,2.64,2.35,1.02.26,1.9.77,1.9,1.13s.43.68.94.68,2.04,1.05,3.4,2.32c1.39,1.28,2.72,2.07,3,1.76.28-.28.11-.68-.43-.88-.51-.17-.94-.68-.94-1.11s-1.36-2.41-3.03-4.42c-2.69-3.2-3.32-3.57-5.24-3.17-2.01.4-2.21.23-2.21-1.53,0-1.11.26-1.98.57-2.01s2.32-.2,4.51-.37c3.29-.31,4.05-.14,4.45.96.28.71,2.35,3,4.11,5.5,2.95,4.22,1.47,5.39,1.45,6.86.51.94.71,1.47.74,1.79,1.96-2.3,4.48-6.49,3.4-6.89-.65-.26-1.36-1.08-1.62-1.9-.23-.79-1.16-2.1-2.01-2.89-1.87-1.76-1.36-3.46,1.45-4.71,1.13-.51,2.38-1.33,2.69-1.87.34-.51,1.87-.94,3.46-.94s4.08-.51,5.56-1.13c1.5-.62,4.39-1.13,6.46-1.13,2.86,0,3.8-.26,3.8-1.11,0-.62.34-1.13.74-1.13,1.08,0,.94,2.07-.17,2.44-.68.23-.57.82.37,2.27.71,1.11,1.3,3.26,1.3,4.82.03,1.56.23,4.2.51,5.84l.51,3,.82-3.74c.57-2.69.6-7.03.06-15.14-.74-11-1.9-16.33-1.9-8.82,0,3.2-.37,4.11-2.69,6.6-1.96,2.15-2.89,2.69-3.49,2.07-1.22-1.22,1.19-8.36,3.54-10.6,1.05-.96,1.9-2.58,1.9-3.6s-1.53-4.96-3.4-8.82c-1.84-3.83-3.37-7.31-3.37-7.74,0-1.19-3.06-6.09-3.8-6.09-.4,0-.68-.34-.68-.77,0-.4-1.19-2.44-2.64-4.48-1.45-2.07-2.64-4.22-2.64-4.82s-.34-1.3-.74-1.53c-.43-.26-1.25-1.59-1.81-2.98-.57-1.36-2.21-3.8-3.63-5.39-2.15-2.41-2.75-3.83-3.49-8.5-1.76-10.91-2.69-15.65-3.26-16.21-.31-.31-1.45-2.27-2.49-4.37-2.72-5.39-3.43-6.52-5.75-8.99-2.24-2.35-2.61-3.86-1.13-4.45.68-.28.51-.74-.54-1.56-3.03-2.3-3.4-2.78-3.4-4.51,0-.96.54-1.98,1.19-2.21,1.7-.65,1.11-4.51-.74-4.85-.77-.14-1.73.26-2.1.94-.82,1.5-2.38,1.53-3.57.09-.51-.6-2.15-1.33-3.66-1.62s-4.05-1.13-5.73-1.87c-1.64-.77-3.77-1.39-4.71-1.39-1.93-.03-2.3-1.87-.51-2.55.65-.26,2.98-.26,5.16,0,2.61.31,4.14.17,4.48-.37.65-1.05,4.68-1.11,5.3-.09.57.88,2.64.99,2.64.14,0-3.2-8.5-5.3-24.01-5.9-8.25-.34-10.52-.2-12.3.74-1.93,1.02-2.44,1.05-4.28.09-1.13-.6-2.61-1.08-3.23-1.08s-1.16-.34-1.16-.74c0-.43,1.64-.77,3.66-.77,3.03,0,3.71-.26,4.05-1.5.37-1.42,1.02-1.5,13.01-1.47,18.91,0,22.25.94,30.08,8.33,3.12,2.98,3.2,3,3.2,1.13,0-1.05-.4-2.78-.88-3.86-.68-1.47-.68-2.13,0-2.81.48-.48.82-1.73.79-2.78l-.09-1.93-.82,2.1c-1.11,2.81-3.09,2.35-3.37-.77-.31-3.26-6.12-10.15-9.69-11.51-2.58-.99-2.13-2.41.54-1.81,3.15.68,2.98-1.02-.37-3.8-1.45-1.22-2.61-2.47-2.61-2.78,0-1.05,2.83-.57,3.26.57.23.62.91,1.13,1.5,1.13,1.79,0,6.52,7.4,8.28,12.98.74,2.32,2.01.57,1.53-2.1-.26-1.36-.14-3.12.28-3.88.57-1.05.4-1.81-.62-3.09-.74-.91-1.59-3.12-1.9-4.85-.71-4.39-2.13-6.94-6.83-12.3-2.58-3-3.86-5.05-3.57-5.81.26-.65,0-1.67-.57-2.3-2.27-2.49-2.86-3.37-2.86-4.14,0-.43-.51-.77-1.11-.77s-1.33-.45-1.67-.99c-.31-.54-1.62-1.33-2.86-1.79-1.22-.45-2.92-1.11-3.74-1.42-.82-.34-3.32-.62-5.5-.62-3.34-.06-4.25-.37-5.53-1.93-1.08-1.36-2.69-2.1-5.75-2.64-2.32-.4-4.17-1.08-4.11-1.5.14-.77,5.39-2.04,8.14-1.98,5.41.11,8.53,2.32,4.88,3.49-2.24.71-.96,2.01,1.76,1.81,3.15-.23,7,.74,8.08,2.04.45.57,1.53,1.02,2.35,1.02s1.96.6,2.49,1.3c.79,1.11,1.13,1.16,1.96.34s.77-1.16-.31-1.96c-.74-.54-1.33-1.39-1.33-1.84,0-.48-.48-.85-1.11-.85s-1.13-.34-1.13-.74c0-1.45,1.45-.74,4.14,2.04,2.35,2.41,2.55,2.89,1.53,3.63-.65.48-1.16,1.25-1.16,1.73,0,1.16,2.01,1.08,2.47-.09.26-.65.71-.48,1.56.57,1.02,1.28,1.28,1.33,1.93.37.54-.82.45-1.36-.34-1.96-.62-.45-1.13-1.33-1.13-1.9,0-.6-2.18-3.37-4.88-6.18-2.66-2.83-4.88-5.44-4.88-5.81,0-1.11,1.53-.74,1.98.45.26.62.82,1.13,1.3,1.13,1.96,0,11.03,12.25,14.57,19.67,1.53,3.2,3.12,5.7,3.51,5.56,1.5-.45,1.3-6.46-.31-9.18-.85-1.45-1.56-3.09-1.56-3.66s-.45-1.47-.99-2.01c-.54-.57-1.47-1.93-2.07-3.03-1.96-3.69-6.75-10.35-7.48-10.35-.37,0-.71-.51-.71-1.11,0-3.37,5.39,1.08,8.39,6.94,1.05,2.04,2.41,1.81,2.75-.45.28-2.1,1.36-2.1,2.04,0,.34,1.11.11,1.93-.71,2.52-1.3.96-1.67,3.34-.51,3.34.4,0,1.05-.54,1.42-1.22.96-1.73,2.38-.6,2.38,1.9,0,1.16.74,2.89,1.59,3.88.88.99,1.87,2.61,2.24,3.54.94,2.41.85,9.72-.14,12.9-.45,1.45-.96,6.66-1.13,11.62s-.37,9.67-.4,10.49c-.17,2.49.91,8.9,1.79,10.69.6,1.22.57,2.47-.06,4.59-1.22,4-1.11,7.26.31,10.01.99,1.93,1.05,2.61.23,4.11-.74,1.42-.77,2.32-.06,4.25,1.19,3.34,1.11,6.15-.23,7.51-1.53,1.5-1.42,2.98.31,4.54,1.13,1.05,1.73,1.13,2.98.48.88-.48,1.59-1.53,1.59-2.41s.85-2.55,1.87-3.77c1.05-1.22,1.87-2.89,1.87-3.69s.62-2.75,1.39-4.28,1.59-4.59,1.84-6.8c.26-2.24.94-4.59,1.53-5.24.6-.68,1.3-2.32,1.59-3.66s.82-2.61,1.19-2.86c.4-.23.71-1.25.71-2.24,0-2.64,3.77-9.92,5.39-10.35.74-.2,1.47-.79,1.64-1.36s.68-2.44,1.16-4.17c.45-1.73,1.67-4.14,2.69-5.36s1.87-2.89,1.87-3.74.37-1.76.82-2.04c1.73-1.08,1.96,1.53.6,6.35-.79,2.72-1.42,5.78-1.42,6.83,0,2.58-2.89,9.98-4.2,10.71-1.39.79-1.36,2.04.06,2.04.62,0,1.13-.31,1.13-.65,0-.37,1.33-1.59,2.98-2.72,2.04-1.42,3.51-1.93,4.73-1.62,1.05.26,2.47-.06,3.49-.79,1.64-1.13,1.81-1.11,3.03.51.91,1.19,2.49,1.9,5.24,2.32,2.15.34,4.31,1.11,4.79,1.7,1.11,1.42,3.97,2.24,4.56,1.33.26-.43,2.21-.57,4.54-.31,2.69.28,4.48.11,5.19-.48.85-.71,1.47-.71,2.72-.03.91.48,2.72.65,4.05.4,1.81-.34,2.95-.06,4.37,1.08,1.05.82,2.07,1.5,2.24,1.5.2,0,1.59-2.61,3.17-5.81s3.51-6.72,4.25-7.8c.77-1.11,1.39-2.47,1.39-3,.03-1.45,5.61-5.9,8.45-6.69,1.33-.4,3.69-.71,5.24-.71s2.81-.34,2.81-.74c0-.94,7.99-1.02,8.56-.11.23.37-.96.85-2.66,1.08-2.04.28-3.88,1.19-5.47,2.72-1.3,1.28-3.06,2.32-3.88,2.32s-2.47.96-3.6,2.18c-1.16,1.19-2.95,2.41-4,2.66-2.15.54-4.22,2.75-5.56,6.01-.48,1.25-1.87,3.49-3.03,4.99s-2.1,3.26-2.1,3.94c0,1.87,3.37,1.47,5.7-.68,2.13-1.98,7.31-3.77,8.59-2.98.43.28,3.2.79,6.18,1.16,10.43,1.28,13.66,1.96,16.07,3.37,1.36.79,2.44,1.7,2.44,2.01.03.77-4.39.68-11.23-.23-8.42-1.08-14.74-1.11-16.02-.06-.77.62-1.28.65-1.59.14-.74-1.19-4.59-.96-5.67.31-.51.62-1.42,1.13-2.04,1.13s-2.32.96-3.83,2.13-3.8,2.52-5.07,3.03-3.06,1.93-3.94,3.12c-2.98,4.03-1.47,5.19,2.07,1.56,1.96-2.01,5.33-3.74,5.33-2.75,0,.26-.31,1.02-.71,1.73-2.98,5.41-3.26,6.83-1.96,9.58.94,1.96,1.16,3.91.88,7.57-.2,2.72-.2,5.41.03,5.98.6,1.56,2.32,1.28,2.89-.48.34-1.08.91-1.39,1.87-1.08,1.02.31,1.7-.11,2.44-1.56l1.05-1.98,1.98,2.52c1.84,2.32,2.13,2.44,3.66,1.47,1.47-.91,1.79-.85,3,.65.74.94,1.36,2.47,1.36,3.43,0,2.49,1.19,2.89,4.22,1.45,1.87-.88,3.6-1.11,5.78-.79,1.73.26,4.56.68,6.32.91,1.96.26,3.49.94,3.91,1.76.4.74,1.36,1.5,2.18,1.7,1.56.43,5.84-1.81,7.34-3.86.82-1.11.99-1.08,1.96.23,1.02,1.36,1.08,1.36,2.18-.23.85-1.22,1.64-1.53,2.98-1.19,2.55.62,5.05-2.04,3.54-3.83-.54-.68-1.05-3.15-1.11-5.53-.06-2.64-.62-5.16-1.45-6.58-2.61-4.42.79-8.7,3.69-4.59,1.25,1.81,1.62,1.64,5.95-2.58,1.64-1.62,2.38-1.9,3.17-1.25,1.13.96,2.55.34,2.55-1.11,0-.51.68-1.56,1.5-2.3.82-.77,1.5-1.93,1.5-2.64s.68-1.9,1.53-2.66c.85-.74,2.13-2.75,2.89-4.42.74-1.67,1.87-3.49,2.55-4.03.94-.77,1.11-1.84.77-4.68-.37-3-.2-3.77.82-4.17,1.05-.4,1.19-1.45.91-7.4-.17-3.8-.65-7.54-1.08-8.33s-1.5-3.97-2.38-7.06-1.93-6.21-2.32-6.94c-.37-.71-.68-2.21-.68-3.37s-.37-3.37-.79-4.96c-.65-2.3-1.11-2.81-2.27-2.49-1.73.45-1.73.54-.26-3.17,1.56-3.86.34-10.97-1.98-11.71-.79-.26-1.64-1.28-1.9-2.27-.26-1.02-2.15-3.37-4.25-5.24-6.52-5.87-10.83-13.63-11.57-20.92-.26-2.49-.96-5.3-1.56-6.24-.62-.96-.91-2.44-.62-3.46.34-1.39.09-1.9-1.05-2.18-1.64-.43-1.33-5.13,0-7.85-.96-1.19-.96-3.4.11-4.51.68-.65.68-1.13,0-1.93-.48-.6-.65-2.01-.4-3.29.45-2.27-1.87-9.07-3.97-11.54-.54-.65-.99-2.15-1.02-3.37,0-1.19-.51-2.83-1.11-3.63-1.39-1.84-2.35-8.14-1.67-11.14-.4-.23-.88-.57-1.25-.96-.96-.94-1.93-5.07-2.04-7.74-.77-1.05-1.59-2.3-2.27-3.26-.94-1.36-2.38-3.17-3.23-4.05-2.35-2.49-2.89-3.32-4.9-7.68-1.05-2.3-3.09-5.05-4.71-6.32-2.01-1.62-2.69-2.66-2.38-3.66.51-1.64-3.06-6.94-5.44-8.02-2.35-1.11-6.52,1.81-6.86,4.82-.14,1.22-.62,2.44-1.08,2.72-.6.37-.57,1.05.06,2.47,1.22,2.69,1.13,5.75-.23,7.71-.79,1.11-1.11,3.12-.99,6.35.23,6.94-.79,12.61-2.78,15.59-1.22,1.84-2.01,4.51-2.52,8.79-1.02,8.02-3.46,13.29-8.7,18.71-1.64,1.7-4.03,4.31-5.24,5.84-3.17,3.91-4,4.73-5.84,6.04-1.42.99-1.5,1.33-.68,2.66.85,1.39.54,1.98-3.32,5.98-2.35,2.47-5.16,5.73-6.24,7.29-1.05,1.56-2.38,3.17-2.95,3.6-.82.65-.79.96.2,1.79.65.54,1.19,1.47,1.19,2.04,0,1.45-1.98,1.28-2.58-.23-.34-.94-.68-1.02-1.3-.43-.62.62-.48,1.39.51,2.89,1.22,1.87,1.25,2.1.09,2.95-1.16.82-1.16,1.05.06,3.17,1.13,1.96,1.16,2.55.31,4.14-.6,1.13-.79,2.72-.48,4.2.51,2.24-.6,3.4-1.3,1.39-.2-.51-.6-.68-.96-.34-.34.31-.23,1.25.26,2.04,1.22,1.96,1.16,3.88-.17,5.64-.62.82-1.13,2.07-1.13,2.78-.03.74-.71,2.58-1.53,4.11-.82,1.56-1.5,3.23-1.5,3.77,0,.51-.79.94-1.79.94-1.3,0-1.93.54-2.27,1.87-.48,1.87-1.5,2.44-2.27,1.22-.94-1.5,2.81-17.52,4.59-19.64.54-.65.99-1.73.99-2.41s.51-1.5,1.16-1.87c.91-.51.99-1.05.37-2.69-1.02-2.69-1.02-2.72.65-2.72.79,0,1.59.43,1.76.94.2.51.62.68.96.37.74-.71-1.59-5.81-2.66-5.81-1.16,0-.88-2.69.37-3.74.62-.51,1.13-1.5,1.13-2.18,0-1.3,3.94-6.52,6.18-8.16,1.53-1.13,1.79-3.17.37-3.15-.51.03-1.9,1.05-3.12,2.27-1.19,1.22-2.64,2.21-3.2,2.21-1.08,0-5.67,2.98-6.09,3.94-.14.31-.68.57-1.22.57s-1.87.74-3,1.62c-2.24,1.76-10.03,5.9-11.11,5.9-.68,0-2.78,1.33-10.66,6.8-6.07,4.2-10.8,5.64-12.02,3.69-.26-.4-1.22-.74-2.18-.74s-2.47-.68-3.43-1.5c-.94-.82-2.04-1.5-2.44-1.5-1.16,0-9.27-6.55-10.6-8.59-.94-1.42-1.9-1.9-3.74-1.9-1.47,0-3-.6-3.74-1.39-.68-.77-2.69-1.81-4.42-2.32-1.76-.51-4.73-2.24-6.63-3.83-1.93-1.59-4.9-3.63-6.66-4.56-1.9-.99-3.46-2.44-3.86-3.63-.4-1.08-1.93-2.61-3.4-3.43-1.62-.85-3.15-2.47-3.77-3.91-.62-1.53-1.53-2.44-2.44-2.44-1.67,0-5.61-3.71-7.2-6.77-.6-1.16-1.7-2.32-2.47-2.55-.77-.26-1.79-1.3-2.27-2.32-.45-1.02-1.16-1.84-1.59-1.84-.4,0-.77-.82-.77-1.79s-.51-2.21-1.13-2.72-1.13-1.56-1.13-2.3-.85-2.64-1.9-4.17c-1.02-1.56-2.07-3.69-2.27-4.73s-1.02-3.15-1.81-4.62c-.99-1.87-1.19-2.95-.65-3.49s.51-1.28-.09-2.41c-.62-1.13-.65-2.3-.17-3.71.48-1.33.45-2.52-.03-3.4-1.05-1.87.03-12.16,1.42-13.55s2.24-1.42,2.95-.26c.28.48,0,1.25-.68,1.76-.94.68-1.22,2.41-1.33,8.05-.11,8.14.28,9.52,2.32,7.71,2.13-1.93,2.38-.14.48,3.43l-1.73,3.29,2.24,3.17c2.38,3.34,3.51,3.54,3.51.57,0-1.02.62-2.13,1.47-2.61.85-.43,1.5-1.45,1.5-2.21,0-1.7,1.19-2.64,1.9-1.5.26.43-.06,1.62-.71,2.61-1.62,2.47-1.76,18.37-.14,18.37s3.32-3.17,3.6-6.41c.34-4.22,2.1-4.31,2.1-.11,0,2.13.4,3.51,1.02,3.74.65.26,1.19,2.35,1.53,5.9.4,4.45.85,5.87,2.35,7.37,1.02,1.02,1.87,1.45,1.87.94s.45-.94,1.02-.94c1.02,0,1.96,3.09,1.96,6.43,0,2.1,1.22,3,2.55,1.9.71-.6,1.45-.28,2.89,1.25,1.05,1.13,2.04,2.69,2.18,3.49s.74,1.59,1.3,1.79c.85.28.96-.31.6-3.12-.28-1.93-.96-4.42-1.53-5.56-.71-1.36-.85-2.61-.4-3.77.68-1.79,2.15-1.62,2.15.23,0,.57.71,1.25,1.56,1.5,1.39.45,1.5.91,1.05,4.45-.37,2.95-.23,4.2.62,5.02.6.62,1.33,2.27,1.64,3.69.77,3.54,1.11,3.94,2.38,2.86.94-.79,1.53-.45,3.51,1.9l2.38,2.83,2.32-2.58c1.3-1.42,2.78-3.29,3.23-4.17.48-.91,1.11-1.62,1.39-1.62.99.03,3.37,6.12,3.77,9.64.37,3.46,2.18,6.83,5.02,9.27,2.44,2.1,2.86,2.41,6.01,4.31,1.64,1.02,3.09,2.1,3.23,2.41.14.34.65.62,1.13.62s1.87.51,3.06,1.13c1.98,1.02,2.47,1.02,4.88-.03,8.96-4,13.78-9.04,14.77-15.51.28-1.79.77-3.6,1.11-4.03.91-1.16,1.16-8.16.31-8.59-.45-.23-.85,1.3-.99,3.69-.11,2.24-.71,4.76-1.3,5.61s-1.08,2.32-1.08,3.29c0,1.87-6.15,8.42-7.88,8.42-.51,0-1.36.51-1.87,1.11-.99,1.19-7.17,1.59-8.7.57-.48-.31-.79-1.39-.77-2.44.09-1.5-.31-1.9-1.93-2.1-1.42-.17-2.24.23-2.83,1.3-1.08,2.01-1.67,1.96-4.48-.4-2.72-2.3-5.3-7.2-5.3-10.09,0-4.08-2.41-9.78-4.99-11.74-1.39-1.05-2.49-2.52-2.49-3.29,0-2.75-2.47-13.83-3.32-14.94-.48-.62-1.64-2.75-2.61-4.73-1.47-3.03-1.64-4.28-1.22-7.8.28-2.32.71-4.68.94-5.27.79-2.1,1.67.79,1.7,5.58,0,3.74.37,5.22,1.9,7.46,3.54,5.22,7.57,6.55,13.46,4.42,1.67-.6,5.13-1.11,7.71-1.13,3.49,0,4.68-.28,4.68-1.08,0-1.13-4.31-4.05-7.88-5.27-2.83-.99-7.11-7.23-7.11-10.37,0-1.28.82-3.37,1.87-4.73,1.02-1.36,1.87-3.26,1.87-4.25,0-1.36,1.28-2.66,5.44-5.56,3-2.13,6.6-3.97,8.05-4.17,3-.43,9.01,1.36,9.01,2.72,0,.48,1.3,1.47,2.92,2.18,4.88,2.15,8.33,8.45,8.33,15.17,0,3.91-.34,5.07-2.21,7.65-1.84,2.55-3,3.29-7.48,4.68-5.07,1.56-7.46,3-4.99,3,.65,0,3.12.62,5.47,1.39,5.05,1.64,11.03,3.12,12.53,3.12.6,0,2.04-.85,3.26-1.87,1.84-1.53,2.3-2.61,2.72-6.29.28-2.44.96-4.85,1.53-5.33.71-.57.91-1.7.62-3.43-.43-2.75.45-3.37,2.04-1.45.57.68.74,1.93.43,3.17-.28,1.13-.85,4.42-1.25,7.29-.65,4.62-1.05,5.5-3.66,7.97-4.31,4.11-5.84,7.71-6.43,15.11-.51,6.07-.45,6.46,1.08,7.29,1.45.79,1.59.65,1.59-1.42,0-1.25.34-2.3.74-2.3.43,0,.77.68.77,1.5,0,2.15,2.15,1.87,3-.37.91-2.44,3.32-2.61,2.58-.17-.28.91-.99,2.21-1.56,2.86-1.08,1.25-1.45,5.19-.45,5.19.99-.03,8.11-4.34,9.13-5.56.54-.65,1.42-1.19,1.93-1.19.54,0,2.95-1.96,5.39-4.31,5.3-5.16,10.52-9.5,11.82-9.78.54-.14,1.33-.99,1.81-1.9s1.53-2.66,2.35-3.88c.82-1.25,1.7-2.78,1.98-3.37.31-.62,1.5-2.35,2.69-3.86,1.19-1.47,2.72-3.74,3.43-4.99.68-1.28,2.24-3.88,3.43-5.81,1.22-1.93,2.49-5.24,2.89-7.37s1.08-4.34,1.56-4.9c.94-1.11,1.73-6.58,2.64-18.09.31-3.91.96-7.85,1.47-8.76.65-1.19.68-2.21.11-3.66-.6-1.62-.51-2.32.45-3.37,1.11-1.25,1.02-1.62-1.47-5.33-2.86-4.25-3.26-5.78-1.79-7.26.74-.74.6-1.02-.77-1.36-2.15-.57-1.87-2.81.4-3.12.88-.14,2.3.11,3.12.57,1.22.65,1.42,1.3,1.08,3.46-.34,2.04-.11,2.89.96,3.71.79.6,1.81,1.08,2.27,1.11,1.45.03,8.53-6.77,8.53-8.19,0-.74.65-2.18,1.45-3.2,1.45-1.79,1.79-4.42,1.59-11.79-.09-3.77-2.95-8.31-5.24-8.31-.74,0-1.76-.45-2.24-1.05-.45-.57-1.47-.88-2.24-.68-.45.11-2.07-.34-3.54-.94-1.96.23-4.68.57-7.91,1.62-6.8,2.18-8.16,3.4-6.24,5.53,1.11,1.22.88,2.27-.51,2.27-.37,0-2.86-2.24-5.56-4.96-2.66-2.75-5.67-6.04-6.66-7.34-1.9-2.47-8.45-6.43-10.69-6.43-.71,0-2.24-.48-3.34-1.08-1.11-.57-2.69-.88-3.49-.68-.79.23-1.67.03-1.93-.43-.28-.45-1.3-.82-2.27-.82s-2.15-.51-2.66-1.13c-.65-.79-2.41-1.11-5.92-1.11-5.07,0-7.03-.85-6.32-2.72.57-1.45,2.95-1.3,7.97.48,2.47.85,6.94,1.62,10.49,1.79,5.13.26,6.92.71,10.66,2.66,6.72,3.51,9.33,5.47,9.84,7.31.26.91,1.11,1.87,1.93,2.13.82.28,1.84,1.47,2.27,2.66.6,1.7,1.22,2.18,2.83,2.18,1.13,0,2.52-.51,3.03-1.13.54-.62,1.36-1.13,1.9-1.13.57,0,1.22-.31,1.47-.74.62-1.02-1.13-6.01-2.78-7.91-.77-.88-1.36-1.96-1.36-2.41,0-1.28-3.91-4.68-5.33-4.68-.68,0-2.04-1.19-3-2.64-.99-1.42-2.21-2.61-2.72-2.61s-.94-.79-.94-1.73-.34-2.07-.77-2.49-1.87-2.81-3.2-5.27c-5.02-9.38-7.4-12.87-11.45-16.72-1.13-1.11-2.27-2.1-3.23-2.98-2.3-.14-5.33-1.36-5.81-2.64-.26-.65-.96-1.16-1.59-1.16s-2.47-1.19-4.05-2.64c-.99-.91-2.01-1.7-2.75-2.18-2.69.37-7.29-.54-8.96-1.7-.43-.28-.77-.57-1.02-.85-2.44.4-6.26-.03-7.26-1.02-.11-.11-.26-.26-.34-.4-1.87.23-4.37.2-5.44-.23-1.64-.62-2.35-.57-3.37.37-1.28,1.16-5.24,1.59-5.27.57,0-.31-.34-1.08-.71-1.67-2.07,1.98-.96.85-1.76.28-.68.94-3.03,1.45-5.05,1.36-.54.37-1.59.6-3.17.82-1.79.26-3.77.65-4.39.91-.6.23-1.47-.06-2.01-.6-1.45.85-3.4,1.7-3.97,1.7-.48,0-.88-.11-1.08-.28-1.87.43-4.11,1.05-4.11,1.42,0,.62-.28,1.13-.62,1.13s-1.42.68-2.38,1.5c-.94.82-2.18,1.5-2.72,1.5-.57,0-1.02.28-1.02.62,0,.37-2.15,2.04-4.79,3.74-4.03,2.61-4.88,3.54-5.3,5.78-.26,1.47-.96,2.86-1.56,3.09s-1.11.91-1.11,1.53c0,1.42-2.13,5.16-4.25,7.51-.91.99-2.55,4.73-3.69,8.33-2.3,7.26-2.41,7.48-4.68,11.88l-1.62,3.15,3.74,2.44c2.07,1.33,3.74,2.81,3.74,3.29,0,1.33,2.78,3.6,3.71,3.03.43-.28.79-.85.79-1.28,0-.45,1.05-2.1,2.32-3.71,1.87-2.38,2.78-2.92,4.88-2.92,1.39,0,2.55-.37,2.55-.77,0-.43,1.02-.74,2.24-.74s2.27.31,2.27.68-1.02,1.02-2.27,1.45c-1.22.45-2.24,1.11-2.24,1.5,0,.37-.94,1.11-2.07,1.59-1.13.51-4.03,3.26-6.43,6.09-2.41,2.86-4.82,5.19-5.39,5.19-1.3,0-5.61,3.63-5.61,4.73,0,1.47-3.23,8.76-3.88,8.76-.34,0-.62.43-.62.96,0,.51-.68,1.36-1.5,1.87-1.16.74-1.5,1.76-1.5,4.65,0,4.51-1.25,7.51-3.12,7.51-2.07,0-2.44-1.81-.88-4.2.74-1.13,1.42-3.2,1.53-4.59.09-1.39,1.19-4.11,2.44-6.01s2.3-4.37,2.3-5.53c0-1.5.99-3,3.66-5.53,3.12-2.95,4.45-5.36,4.9-8.76.03-.26-.96-1.7-2.18-3.17-1.56-1.9-2.86-2.69-4.28-2.69-1.13,0-3.2-.57-4.59-1.22-2.38-1.13-2.83-1.13-6.49.09-4.68,1.56-8.82,4.05-9.38,5.67-.23.65-1.39,2.18-2.58,3.4-1.87,1.93-2.18,2.86-2.35,7.09-.11,2.66.2,5.78.68,6.94s.88,2.61.88,3.2c0,1.56,2.92,7.57,4.17,8.62.6.48,1.08,1.36,1.08,1.93s.31,1.02.68,1.02c.4,0,2.41,1.64,4.42,3.69,2.04,2.01,4.42,3.88,5.3,4.17,1.87.6,2.01,1.59.45,3.15-.6.6-1.11,2.21-1.11,3.54,0,1.59-.62,3.03-1.76,4.08-2.07,1.96-2.64,2.01-3.26.4-.28-.68-.11-2.18.31-3.37.45-1.16.65-2.78.43-3.57-.26-.99.11-1.59,1.19-1.93,3.37-1.05.31-4.14-4.11-4.14-1.02,0-1.98-.43-2.13-.94-1.11-3.66-1.08-3.66-2.72-2.64-.85.51-2.38,2.64-3.4,4.71-3.91,7.91-6.72,11.99-8.22,11.99s-1.53.14-1.22-7.94c.11-3.15.4-3.91,1.64-4.22,1.08-.28,1.5-1.02,1.5-2.75,0-1.28.68-3.2,1.47-4.22.82-1.05,1.47-2.95,1.5-4.25,0-1.33.34-2.61.77-2.86.45-.28.34-1.25-.37-2.58-.62-1.22-1.02-3.74-.94-5.92.23-5.16-.57-5.81-5.58-4.59-4.25,1.02-8.28,3-10.74,5.27-.85.79-2.61,1.64-3.88,1.9s-3.29,1.45-4.42,2.64c-1.16,1.19-2.47,2.15-2.98,2.15-.48,0-1.3.51-1.81,1.13s-1.5,1.11-2.24,1.11-1.93.74-2.72,1.62c-1.13,1.28-4.31,3.54-6.21,4.59-3.12,3.6-6.52,7.48-7.54,8.67-2.01,2.35-3.8,4.9-3.94,5.67-.34,2.01,1.64,2.47,2.15.51.37-1.39.77-1.56,2.75-1.11,2.07.45,2.21.37,1.33-.68-.54-.65-.77-1.56-.51-1.98.54-.82,3.6-1.08,4.37-.34.99,1.02-2.78,6.35-6.15,8.67-1.98,1.36-4.34,3.6-5.22,4.93-.88,1.36-2.07,2.47-2.64,2.47s-1.22.65-1.42,1.5c-.23.82-.77,1.47-1.22,1.47-1.19,0-1.02-1.9.26-2.95,1.5-1.25,2.27-5.24,1.22-6.29s-5.1,3.29-8.56,9.13c-1.3,2.21-2.92,4.9-3.63,6.01-2.41,3.77-3.23,5.07-4.73,7.57-.82,1.36-2.58,4.14-3.94,6.12-1.33,2.01-2.44,4.45-2.44,5.44s-.96,2.89-2.18,4.28c-1.19,1.36-2.58,3.86-3.06,5.53-1.28,4.28-2.47,6.69-3.63,7.43-.54.34-1.62,2.13-2.41,3.94-.77,1.81-1.76,3.32-2.18,3.32s-.77.96-.77,2.15c0,1.36-.71,2.83-1.93,3.94-1.05.96-2.55,2.95-3.32,4.39-.79,1.45-2.3,3.63-3.37,4.82-1.08,1.22-2.13,3.09-2.35,4.14-.65,2.98-2.52,6.8-3.32,6.8-.4,0-.74,1.11-.74,2.47,0,3.54-2.83,11.14-6.66,17.77-1.08,1.87-2.32,6.35-2.32,8.33,0,.79-1.33,5.44-2.24,7.99.45,2.24-.94,13.29-2.07,14.6-.88.99-.94,1.53-.26,2.35.68.85.48,1.76-.94,4.34-1.67,2.98-1.84,4.31-2.15,15.48-.23,7.8-.68,12.53-1.22,13.1-1.33,1.3-1.13,9.92.26,11.06.62.51,1.13,1.39,1.13,1.96,0,.6.4,1.05.94,1.05.62,0,.94-1.39.96-4.31.09-6.32,1.13-12.19,2.21-12.19,1.25,0,1.93,6.41.96,9.18-.57,1.59-.51,2.66.17,3.97.79,1.47.74,2.18-.28,4.37-.68,1.42-1.22,3.91-1.22,5.56,0,2.32-.34,3.09-1.45,3.37-1.67.43-2.27,3.86-1.42,8.05.65,3.23-.62,13.07-2.1,16.13-.85,1.76-2.32,10.29-2.58,15-.11,1.96.74,10.18,1.11,10.77.23.37.11,2.15-.2,3.97-.34,1.79-.37,6.94-.09,11.48.34,5.5.23,8.84-.34,10.06-.28.65-.43,2.21-.51,4.08.45,2.13.82,4.39.82,4.73Zm5.98,55.73c0-.4-.68-1.33-1.5-2.04s-1.5-1.67-1.5-2.15-.82-1.02-1.87-1.22c-1.42-.28-1.87-.06-1.87.99,0,.74.68,1.56,1.5,1.81s1.84,1.13,2.27,1.93c.82,1.5,2.98,2.01,2.98.68Zm53.43-56.81c.4-1.62-.09-3.17-.99-3.17-.37,0-.68,1.02-.68,2.24,0,2.44,1.11,3.09,1.67.94Zm24.58-6.21c0-.4-.68-.71-1.5-.71-1.64,0-2.04,1.16-.57,1.7,1.13.4,2.07-.03,2.07-.99Zm2.24-2.21c0-.4-.31-.77-.71-.77-.37,0-.91.37-1.16.77-.26.43.06.74.71.74s1.16-.31,1.16-.74Zm158.23,54.31c0-3.4-.45-5.64-1.5-7.63-.82-1.53-1.5-3.17-1.5-3.66,0-1.22-1.96-1.84-3.74-1.19-1.47.54-1.47.6.17,3.17,2.86,4.59,4.31,8.31,4.31,11.2,0,1.53.23,3,.48,3.26,1.16,1.16,1.79-.65,1.79-5.16Zm90-97.03c0-.43-.34-.77-.77-.77-.4,0-.74.34-.74.77,0,.4.34.74.74.74.43,0,.77-.34.77-.74Zm-26.96-4c-.96-.96-1.11.85-.26,2.98.51,1.22.6,1.16.82-.4.14-.96-.11-2.13-.57-2.58Zm-9.81-3.57c0-.85-.37-2.24-.82-3.09-.68-1.25-.96-1.36-1.5-.51-.34.57-.65,1.96-.65,3.09-.03,1.59.34,2.07,1.47,2.07,1.02,0,1.5-.51,1.5-1.56Zm-4.05-14.94c-1.42,0-2.21,3.63-1.11,4.99.79.94,1.11.88,2.35-.37,1.19-1.22,1.3-1.73.62-3.03-.48-.88-1.33-1.59-1.87-1.59Zm4.82,3c0-.43-.34-.77-.77-.77-.4,0-.74.34-.74.77,0,.4.34.74.74.74.43,0,.77-.34.77-.74Zm-88.36-18.51c-.54-.23-1.19-.2-1.45.06s.2.43.99.4c.85-.06,1.05-.23.45-.45Zm-3.71-2.24c-.51-.2-1.36-.2-1.87,0s-.09.37.94.37,1.45-.17.94-.37ZM13.43,405.84c-.88-1.5-1.45-3.09-1.28-3.57.17-.45-.43-2.01-1.28-3.46-1.45-2.35-1.62-3.74-1.62-13.12,0-15.02.82-19.59,2.95-16.67,1.28,1.73,2.1,18.11,1.02,20.47-1.02,2.27-.2,5.3,1.56,5.78,1.42.37,1.73,1.39,2.83,9.72.43,3.26.31,3.57-1.05,3.57-.96,0-2.13-1.02-3.15-2.72Zm25.23-1.5c-.82-.79-.6-3.26.26-3.26,1.11,0,1.81,2.21.96,3.06-.4.37-.96.51-1.22.2Zm13.55-8.14c1.08-.48,1.87-1.64,2.15-3.2.26-1.36,1.11-2.83,1.93-3.26.85-.45,1.39-1.47,1.33-2.41-.23-2.64-.03-3.51.77-3.51.94,0,1.02,5.02.09,5.58-.37.23-.91,1.98-1.19,3.94s-1.02,4.22-1.59,5.05c-.6.82-1.05,2.27-1.05,3.17,0,2.61-1.25,2.72-3,.26-1.93-2.69-1.73-4.59.57-5.61Zm-9.07,6.6c-.62-.62-.65-4.96-.03-6.55.6-1.62,2.55-1.53,2.52.11,0,2.55-.94,6.94-1.45,6.94-.31,0-.77-.23-1.05-.51Zm-10.23-1.3c0-1.93.88-3.43,2.04-3.43.79,0,.99.48.68,1.67-.26.94-.45,1.96-.48,2.27,0,1.05-2.24.54-2.24-.51Zm36-12.36c0-1.25-.48-2.35-1.13-2.61-1.22-.45-1.56-3.86-.45-4.54.77-.48,1.59,1.25,1.59,3.43s1.67,1.3,2.35-1.19c.31-1.13,1.05-2.64,1.64-3.32s1.22-1.9,1.36-2.72c.17-.91.88-1.5,1.76-1.5,1.96,0,2.69-1.11,1.81-2.69-1.02-1.93-.85-2.3.65-1.5,1.76.94,3.91-.28,3.91-2.21,0-.82.45-1.67,1.02-1.9.54-.2,2.64-2.89,4.59-5.95,1.98-3.09,4.05-5.58,4.62-5.58,1.39,0,1.3,4.05-.11,5.24-.62.51-1.13,1.5-1.13,2.24s-.48,1.7-1.11,2.24c-.62.51-1.13,1.36-1.13,1.87s-.68,1.53-1.5,2.27-1.5,1.64-1.5,2.01c0,1.16-3.17,5.05-8.7,10.77-2.95,3-5.56,6.01-5.81,6.66-.79,2.07-2.72,1.33-2.72-1.02Zm158.2-.82c-.71-1.33-.71-6.77-.03-15.17,0-.31.37-.57.77-.57,1.3,0,2.38,5.53,2.13,11.17-.26,5.78-1.3,7.48-2.86,4.56Zm-8.99-3.77c0-3.15,1.08-4.03,1.87-1.47.54,1.73-.17,4.48-1.19,4.48-.37,0-.68-1.33-.68-3Zm19.25-1.22c-.28-.28-.51-1.22-.51-2.1s-.48-2.27-1.08-3.12c-1.33-1.93-2.24-10.03-1.25-11.48.96-1.45,2.75,0,3.43,2.81.28,1.11,1.11,2.69,1.84,3.51,2.04,2.27,2.35,4.9.94,7.8-1.28,2.61-2.44,3.51-3.37,2.58Zm-167.73-5.9c0-1.02.31-1.87.74-1.87.4,0,.77.85.77,1.87s-.37,1.87-.77,1.87c-.43,0-.74-.85-.74-1.87Zm127.64-6.86c-1.96-1.36-2.21-3.23-.45-3.23s6.38,3,5.87,3.8c-.65,1.05-3.51.77-5.41-.57Zm-23.24-3.86c-.91-.57-.4-1.22,4.14-5.33.91-.85,2.15-1.56,2.72-1.56s1.45-.48,1.96-1.11,1.73-1.13,2.72-1.13,1.79-.34,1.79-.74c0-.43.68-.77,1.5-.77s1.5.34,1.5.77c0,.4-.68.74-1.5.74s-1.5.51-1.5,1.13.45,1.11,1.02,1.11,1.47-.48,1.98-1.11,1.7-1.13,2.66-1.13,1.96-.34,2.21-.74c.79-1.3,3.37-.88,3.34.54-.06,2.81-2.01,4.39-10.35,8.36-3.46,1.64-7.68,1.79-8.19.26-.17-.51.06-.91.51-.91.43,0,.79-.51.79-1.13s-.31-1.13-.74-1.13c-.4,0-.77.51-.77,1.13s-.57,1.13-1.25,1.13-1.79.48-2.47,1.08c-.65.6-1.59.82-2.1.54Zm-16.98-4.05c1.98-2.32,3.09-3.23,7.63-6.21,3.97-2.64,6.43-3.26,7.29-1.87.26.43.79.77,1.19.77.94,0,.91-2.81-.03-3.15-.43-.11,1.05-.28,3.23-.34l4-.09-1.64,1.79c-.91.96-2.21,1.79-2.89,1.79s-1.22.45-1.22,1.02-.68,1.22-1.5,1.45c-.82.2-1.5.77-1.5,1.19,0,1.08,2.81,1.08,3.15,0,.17-.45.96-.68,1.76-.45,1.39.34,1.36.4-.2.91-.94.31-1.7,1.02-1.7,1.59s-.68,1.05-1.5,1.05-1.5-.37-1.5-.77c0-.43-.48-.74-1.11-.74s-1.13.31-1.13.74c0,.4-1.13.77-2.52.77s-4.14.48-6.18,1.11c-4.9,1.5-5.27,1.45-3.6-.54Zm13.04.96c0-.43.37-.79.77-.79.43,0,.74.14.74.34,0,.17-.34.54-.74.79-.43.26-.77.11-.77-.34Zm-160.07-1.53c-.26-.43-.11-.77.31-.77.45,0,.79.34.79.77,0,.4-.14.74-.31.74-.2,0-.54-.34-.79-.74Zm132.12-6.63c-1.84-2.1-2.24-4.39-.85-4.93.77-.28,1.08-.99.85-1.93-.34-1.25-.09-1.39,1.79-1.02,1.3.28,2.18.11,2.18-.37,0-.77,2.75-2.58,5.41-3.57.71-.26,1.47-1.11,1.73-1.87.54-1.7,1.33-1.81,2.58-.34.74.91.57,1.19-1.05,1.59-1.05.26-1.93.85-1.93,1.28s-.88,1.93-1.96,3.32c-1.39,1.84-1.81,3.09-1.47,4.39.34,1.39-.17,2.69-1.98,5.16-1.36,1.81-3.09,3.49-3.83,3.69-1.16.31-1.28.06-.88-1.87.34-1.5.14-2.66-.6-3.51Zm-116.62-2.24c1.08-.2,1.22.23.85,2.64-.26,1.56-.71,3.37-1.05,3.97-.51.99-.65.96-1.08-.11-.85-2.24-.09-6.21,1.28-6.49Zm113.84,3.23c0-.62.48-1.11,1.08-1.11.68,0,.94.43.68,1.11-.23.62-.74,1.13-1.11,1.13s-.65-.51-.65-1.13Zm40.11.4c-.26-.43.06-.77.71-.77s1.16.34,1.16.77c0,.4-.31.74-.71.74-.37,0-.91-.34-1.16-.74Zm-50.09-.51c-1.33-1.33.11-9.75,1.59-9.44,1.3.28,1.08-2.58-.26-3.09-1.28-.48-1.47-2.41-.31-3.12.43-.28.99.2,1.22,1.08.45,1.73,2.47,2.18,2.47.54,0-.57-.48-1.45-1.11-1.98-1.81-1.5-1.33-3.49,1.62-6.32,1.5-1.47,3-2.66,3.29-2.66.31,0,1.08.82,1.73,1.84,1.33,2.01.4,3.37-1.36,1.93-.65-.54-1.19-.57-1.47-.11-.26.43.11,1.08.85,1.47,1.25.71,1.25.82-.03,2.24-1.16,1.28-1.22,1.73-.4,3.03.77,1.22.79,1.76.06,2.47-.51.51-.91,1.56-.91,2.3s-.51,1.59-1.13,1.81-1.13.85-1.13,1.36c0,.54-.65,1.81-1.5,2.86-.82,1.05-1.47,2.44-1.47,3.09,0,1.25-.88,1.59-1.73.71Zm6.21-18.26c0-.43-.31-.74-.74-.74-.4,0-.77.31-.77.74,0,.4.37.77.77.77.43,0,.74-.37.74-.77Zm24.75,15.02c0-1.53,3.37-3.77,5.64-3.77,1.08,0,1.08.17.11,1.59-.94,1.3-4.42,3.66-5.44,3.66-.17,0-.31-.65-.31-1.47Zm-146.13-4.79c-1.16-1.42-.4-7.54,1.13-8.79.57-.48,1.02-1.33,1.02-1.9s.57-1.05,1.22-1.05c.94,0,1.11.45.74,2.07-.28,1.13-.82,3.51-1.22,5.3-.37,1.76-.99,3.71-1.33,4.34-.57,1.02-.74,1.02-1.56.03Zm153.64-.51c0-.4.54-.71,1.13-.71s1.11.11,1.11.28-.51.48-1.11.74c-.62.23-1.13.09-1.13-.31Zm-11.99-.71c0-.43.34-.77.74-.77.43,0,.77.34.77.77,0,.4-.34.74-.77.74-.4,0-.74-.34-.74-.74Zm-55.19-4.99c-.23-.88-1.16-1.93-2.04-2.32-2.21-.99-8.84-10.52-12.39-17.83-4.08-8.42-4.9-12.39-6.69-32.43-.57-6.52-.48-7.68.65-7.68.37,0,.68,2.55.68,5.67,0,3.46.43,6.46,1.08,7.74.6,1.16,1.33,3.94,1.62,6.15.28,2.24.96,4.96,1.53,6.09.57,1.11,1.02,2.83,1.02,3.83s.96,3.12,2.15,4.76,2.38,3.71,2.69,4.62c.28.91.79,1.64,1.13,1.64.37,0,.88.96,1.13,2.18.26,1.19.96,2.35,1.56,2.58s1.08,1.25,1.08,2.24.51,2.18,1.13,2.72c.62.51,1.11,1.36,1.11,1.9,0,.51.51,1.36,1.13,1.87s1.13,1.56,1.13,2.32.28,1.42.65,1.42c1.11,0,1.7,2.44.85,3.29-.57.57-.94.34-1.22-.77Zm-11.96-3.71c-1.62-1.9-3.06-3.94-3.2-4.51-.11-.57-.57-1.05-.94-1.05-.4,0-1.05-.77-1.45-1.7-.4-.91-1.05-2.18-1.39-2.81-2.1-3.57-3.86-7.48-3.86-8.59,0-.68-.34-1.05-.74-.79-1.28.79-.85,3.88.91,6.92.91,1.56,1.93,2.95,2.24,3.09.34.14.6.82.6,1.53s.54,2.04,1.19,2.98c1.67,2.38.79,2.86-1.33.77-5.13-5.13-9.04-10.35-11.59-15.51-1.59-3.17-3.32-6.21-3.83-6.75-.54-.54-.96-2.07-.96-3.37s-.51-3.03-1.11-3.8c-.57-.79-1.3-2.92-1.56-4.71-.28-1.81-.79-3.26-1.13-3.26-.88,0-.88-5.05,0-5.58.82-.51,1.56,1.33,1.56,3.83,0,2.83,1.84,1.73,2.13-1.3.34-3.49,1.42-4.42,2.07-1.73.31,1.19.99,2.83,1.56,3.66.57.79,1.02,2.89,1.02,4.62s.31,3.37.68,3.6c.4.23,1.08,1.7,1.56,3.23s1.3,3.8,1.87,5.05c.54,1.22,1.25,2.95,1.53,3.77.48,1.45.51,1.45,1.28-.14.54-1.19.43-2.24-.45-4.05-.68-1.33-1.22-3.51-1.22-4.88s-.51-2.98-1.11-3.57c-.6-.62-1.42-2.89-1.81-5.1s-1.11-5.53-1.59-7.4c-.48-1.96-.62-4.93-.31-7.11.62-4.54.99-3.83,3.26,6.75.91,4.14,2.13,9.21,2.72,11.31s1.08,4.85,1.08,6.12.48,2.47,1.13,2.72c.62.23,1.13,1.36,1.13,2.52s.79,3.29,1.76,4.71c.99,1.45,2.83,4.88,4.11,7.63,1.3,2.75,2.69,5.22,3.12,5.5.4.26.74.96.74,1.56,0,1.13,2.95,5.73,3.94,6.18.77.34.74,3.12-.03,3.12-.34,0-1.93-1.53-3.57-3.43Zm-67.07,1.19c0-.82.31-1.5.74-1.5.4,0,.77.68.77,1.5s-.37,1.5-.77,1.5c-.43,0-.74-.68-.74-1.5Zm62.73.26c-.77-.79-.57-3.26.26-3.26.43,0,.77.85.77,1.87,0,1.98-.17,2.21-1.02,1.39Zm-72.48-4.56c0-1.59,5.02-8.08,6.24-8.08,1.98,0,1.13,3.15-1.62,6.21-3.09,3.37-4.62,4.03-4.62,1.87Zm14.6-3.37c-.23-.57.11-2.04.74-3.23.62-1.22,1.16-2.58,1.16-3.03,0-.91,5.19-6.29,6.07-6.29,1.3,0,1.5,1.67.37,2.92-.65.71-1.19,1.59-1.19,1.96,0,.34-.48,1.16-1.08,1.81-3.63,3.91-4.17,4.62-4.17,5.24,0,1.22-1.5,1.7-1.9.62Zm7.14-2.81c0-.82.34-1.5.77-1.5.4,0,.74.68.74,1.5s-.34,1.5-.74,1.5c-.43,0-.77-.68-.77-1.5Zm6.38-2.27c.6.99-.26,3.77-1.19,3.77-.37,0-.68-.85-.68-1.84,0-2.01,1.11-3.15,1.87-1.93Zm25.71-.82c-1.96-2.13-3.6-4.17-3.6-4.56,0-.43-.65-1.62-1.47-2.66-.85-1.05-1.5-2.49-1.5-3.2s-.51-1.73-1.13-2.24-1.13-1.9-1.13-3.09c0-2.98,2.15-2.89,2.75.09.26,1.25.71,2.27,1.05,2.27.6,0,10.46,15.85,10.46,16.78,0,1.39-2.24,0-5.41-3.37Zm57.54-2.92c.88,0,.26,3.12-.94,4.48-1.67,1.98-2.44,1.93-2.44-.2,0-1.45,2.24-4.28,3.37-4.28Zm1.11-1.84c0-.17.34-.54.77-.79.4-.26.74-.09.74.34s-.34.79-.74.79c-.43,0-.77-.14-.77-.34Zm1.67-3.57c-1.33-1.3-1.11-2.1.6-2.1.99,0,1.5.51,1.5,1.5,0,1.7-.79,1.93-2.1.6Zm-8.11-3.94c1.84-1.9,3.23-2.64,4.88-2.64,1.28,0,2.32.14,2.32.31,0,2.3-4.22,5.27-6.35,4.45-.65-.23-1.67-.03-2.3.48-.6.51-1.11.74-1.11.48s1.16-1.64,2.55-3.09Zm10.94.34c0-.43.54-.74,1.13-.74.65,0,.96.31.71.74-.26.4-.77.77-1.13.77-.4,0-.71-.37-.71-.77Zm-95.95-7.09c1.08.65-.17,3.17-1.98,4-1.56.71-1.81.62-1.81-.62,0-1.47,2.83-3.97,3.8-3.37Zm86.97-.03c0-.62.48-1.13,1.11-1.13s1.13.51,1.13,1.13-.54,1.13-1.13,1.13-1.11-.51-1.11-1.13Zm4.11-1.87c-.26-.43.09-.96.74-1.22,1.45-.57,2.24.06,1.56,1.16-.62,1.02-1.67,1.02-2.3.06Zm40.28-10.26c.74-.2,1.93-.2,2.64,0,.74.17.14.34-1.3.34s-2.04-.17-1.33-.34Zm48.76-3.91c-2.98-1.5-5.41-2.86-5.41-3.09,0-.2.88-.77,1.98-1.28,1.79-.85,2.3-.71,4.65,1.08,3.54,2.69,5.36,4.54,5.36,5.47,0,1.02-.34.91-6.58-2.18Zm-39.46,1.3c1.13-.57,2.04-.54,3,.03,1.16.65.88.79-1.62.77-2.61-.03-2.78-.11-1.39-.79Zm-160.78-5.3c-.77-.94-.6-1.73.94-4.42,1.84-3.23,1.87-3.26,1.84-1.02,0,1.22-.43,3.2-.94,4.39-.79,1.84-1.05,2.01-1.84,1.05Zm49.66.09c-.82-1.3-.79-32.29,0-33.62,1.36-2.15,1.79,1.45,1.84,15.39.06,7.94.26,14.91.48,15.45.2.57-.09,1.67-.65,2.44-.85,1.16-1.13,1.22-1.67.34Zm142.13-1.42c0-.43.51-.74,1.13-.74s1.13.31,1.13.74c0,.4-.51.77-1.13.77s-1.13-.37-1.13-.77Zm68.2-4.28c-.71-1.7-1.45-2.35-2.55-2.24-1.39.14-1.53-.31-1.76-5.05-.17-4.2.03-5.33,1.02-5.9.96-.54,1.11-1.39.71-4.34-.43-3.06-.26-4,1.05-5.67.88-1.08,1.59-2.58,1.59-3.29s.45-1.7,1.02-2.15c.57-.48,1.28-1.96,1.56-3.29l.51-2.41,1.16,1.67c1.53,2.21,2.49,2.15,2.49-.2,0-1.16.43-1.87,1.13-1.87,1.42,0,1.42,1.5,0,4.22-.62,1.19-1.13,2.72-1.13,3.37s-.51,1.64-1.13,2.15-1.11,2.1-1.11,3.49c0,1.59-.45,2.72-1.13,3-1.25.48-1.53,2.92-.43,3.6.37.26.91-.28,1.19-1.13.28-.88,1.13-2.24,1.9-3s2.47-3.69,3.77-6.46c4.03-8.62,13.8-20.64,19.81-24.35,5.16-3.17,4.48-1.25-1.87,5.44-4.56,4.82-11.25,13.49-11.25,14.6,0,.2-.85,1.67-1.87,3.32-2.92,4.62-7.88,17.35-7.88,20.27-.03,4.17-1.16,5.16-2.21,1.96-.51-1.5-1.16-2.72-1.5-2.72-.31,0-.91,2.13-1.3,4.71l-.77,4.68-.99-2.41h-.03Zm1.56-10.35c0-.62-.34-1.13-.77-1.13-.4,0-.74.51-.74,1.13s.34,1.13.74,1.13c.43,0,.77-.51.77-1.13Zm31.49,10.15c0-3.32,6.41-14.26,8.33-14.26.99,0,.79,2.81-.23,3.15-1.02.37-.28,2.83.88,2.83.43,0,.77-.68.77-1.5s.51-1.5,1.13-1.5,1.11-.28,1.11-.65c0-.88,6.83-7.46,9.1-8.76.96-.54,2.64-1.42,3.66-1.87,1.02-.48,2.47-1.16,3.17-1.53s1.87-.68,2.52-.68,3.54-.71,6.43-1.59c8.14-2.47,20.13-1.45,20.13,1.7,0,.4-.62.37-1.42-.06-1.67-.88-11.76.09-14.14,1.36-.88.45-2.27.85-3.09.85-2.01,0-2.81,1.39-1.08,1.93.74.26,1.84.62,2.44.79,2.07.65-.82,1.79-4.14,1.64-1.84-.09-3.77.37-4.88,1.11-1.96,1.39-7.82,1.73-8.59.51-.71-1.16-1.42-.91-4.17,1.56-7.88,7.06-9.33,8.19-10.46,8.19-1.42,0-4.22,3.57-4.9,6.26-.71,2.83-2.58,3.2-2.58.51Zm-111.2-2.75c.51-.23,1.53-.23,2.24-.03.74.17.34.34-.91.37-1.25,0-1.84-.14-1.33-.34Zm-179.69-2.07c-.06-.79.11-1.25.37-.99.23.26.28.88.09,1.45-.26.6-.43.4-.45-.45Zm160.72.23c-.2-.34.4-.82,1.33-1.08,2.69-.68,12.08-.06,12.36.79.31.96-13.1,1.25-13.69.28Zm22.93-2.92c0-.43.65-.77,1.45-.77s1.67.34,1.93.77-.37.74-1.47.74-1.9-.34-1.9-.74Zm87.45-2.69c-.26-.65-.45-2.1-.45-3.17v-2.01l1.5,2.24c.82,1.25,1.47,2.69,1.47,3.2.03,1.33-1.98,1.16-2.52-.26Zm-74.52-.82c-.94-.2-1.67-.65-1.67-1.05,0-.37-.48-.68-1.02-.68-.57,0-2.89-.99-5.13-2.21-2.27-1.19-5.44-2.44-7.06-2.72-3.2-.57-7.11-2.44-10.03-4.76-1.76-1.39-1.79-1.5-.45-2.01.77-.31,2.89-.17,4.68.31,1.81.48,5.22.88,7.57.91,2.38,0,5.16.48,6.18,1.08,1.05.6,2.72,1.47,3.77,1.96l1.87.85-1.7.79c-2.01.94-2.15,1.93-.37,2.52,4.37,1.39,8.05,3.32,8.05,4.17,0,1.05-1.9,1.39-4.68.85Zm-7.34-8.76c-1.53.6-1.36,1.02.45,1.02.85,0,1.33-.31,1.11-.71-.26-.4-.94-.54-1.56-.31Zm181.84,6.63c.88.26,1.39.79,1.16,1.19-.6.94-2.41.88-3-.11-.74-1.16.09-1.64,1.84-1.08Zm-96.69-.6c0-.6-.51-1.5-1.13-2.01-1.3-1.08-1.47-3.46-.31-4.17.43-.26.99.23,1.22,1.08.23.88.88,1.59,1.45,1.59,1.45,0,1.3-3.03-.23-4.14-.74-.54-1.05-1.39-.77-2.13.74-1.9,2.01-1.47,2.01.62,0,1.19.43,1.9,1.13,1.9.62,0,1.13-.68,1.13-1.53s.51-1.73,1.11-1.96c.62-.26,1.13-.91,1.13-1.5s.68-1.62,1.5-2.32,1.5-1.64,1.5-2.1c0-1.11,7.71-9.35,8.76-9.35.45,0,1.05-.54,1.3-1.22s.68-1.05.91-.79c.37.37-3.4,5.84-4.99,7.26-1.81,1.64-7.09,9.21-8.22,11.85-.77,1.73-1.67,2.98-3.88,5.24-.65.71-1.33,1.93-1.47,2.72-.34,1.73-2.15,2.55-2.15.96Zm-23.64-1.28c-.54-1.79.23-5.98,1.11-5.98.71,0,1.33,4.17.94,6.18-.34,1.76-1.45,1.64-2.04-.2Zm54.4-4.59c0,.65-3.29,3.09-4.14,3.09-.26,0,.17-.82.91-1.84,1.33-1.81,3.23-2.55,3.23-1.25Zm-217.3-3.66c.43-2.27.74-5.1.68-6.32-.06-2.27,3.97-10.18,5.22-10.18,1.05,0,.82-4.31-.26-4.71-.62-.23-.11-1.22,1.45-2.89,1.3-1.39,2.49-3.37,2.61-4.39.14-1.05.77-1.87,1.39-1.87,1.62,0,1.9,5.24.43,7.51-.65.99-1.19,2.81-1.19,4.05,0,1.53-.51,2.52-1.62,3.12-1.5.79-1.53.96-.37,1.79,1.84,1.39,1.73,1.96-2.55,11.28-.74,1.64-1.81,4.08-2.35,5.41-.88,2.27-3,3.29-3.86,1.9-.2-.31,0-2.44.43-4.71Zm218.04,1.5c0-.43.37-.74.77-.74.43,0,.74.31.74.74,0,.4-.31.77-.74.77-.4,0-.77-.37-.77-.77Zm-2.24-2.24c0-.43.34-.77.74-.77.43,0,.77.34.77.77,0,.4-.34.74-.77.74-.4,0-.74-.34-.74-.74Zm4.51-.4c0-.68.43-1.11.94-.94,1.05.37.94,1.56-.2,1.96-.4.14-.74-.31-.74-1.02Zm-30.76-2.61c0-.82.34-1.5.74-1.5.43,0,.77.68.77,1.5s-.34,1.5-.77,1.5c-.4,0-.74-.68-.74-1.5Zm28.49,1.16c0-.17.34-.54.77-.79.4-.26.74-.11.74.34,0,.43-.31.79-.74.79-.4,0-.77-.14-.77-.34Zm4.85-.45c-.71-1.16.28-1.9,1.25-.94.54.54.54.96.03,1.28-.43.26-.99.11-1.28-.34Zm52.16-1.47c-.99-.65-.99-.82,0-1.47.62-.4,1.53-.74,2.01-.77,1.42,0,2.04,1.59.91,2.32-1.3.82-1.53.82-2.92-.09Zm-54.74-.31c0-.74,3.57-4.17,4.34-4.17.43,0,.88-.28,1.02-.6.45-1.08,5.95-4.11,6.49-3.57.28.28-.09.85-.79,1.25-.74.4-1.3,1.19-1.3,1.79s-.68,1.25-1.5,1.5c-1.76.57-2.01,1.87-.4,1.87.62,0,1.13.51,1.13,1.13,0,1.28-1.16,1.5-1.87.37-.26-.43-1.25-.77-2.24-.77s-2.01.34-2.27.77c-.45.74-2.61,1.08-2.61.43Zm-229.46-1.93c0-.82.31-1.5.74-1.5.4,0,.77.68.77,1.5s-.37,1.5-.77,1.5c-.43,0-.74-.68-.74-1.5Zm200.95-.71c0-.43.37-.79.77-.79.43,0,.74.14.74.34,0,.17-.34.54-.74.79-.43.26-.77.11-.77-.34Zm39.97-.48c.23-.26.88-.28,1.42-.06.6.23.43.4-.45.43-.77.06-1.22-.14-.96-.37Zm-59.58-39.8c-.37-1.9-2.13-2.15-2.13-.31,0,.91.48,1.56,1.19,1.56s1.08-.51.94-1.25Zm-36.62-5.64c2.18-1.59,2.89-2.86,1.64-2.86-.34,0-1.28.48-2.07,1.11-1.53,1.16-14.23,1.67-14.71.57-.11-.31-1.33-1.13-2.66-1.84-2.35-1.22-2.44-1.22-2.44.14,0,.82.71,1.64,1.67,1.93.94.28,2.18.96,2.81,1.5,2.64,2.3,12.42,1.96,15.76-.54Zm5.07-4.99c.45-1.33-1.11-1.05-1.62.31-.28.74-.11,1.08.43.88.48-.14,1.02-.68,1.19-1.19Zm-7.46-2.01c1.98-1.05,4.59-2.89,5.75-4.14,1.87-1.93,2.07-2.52,1.45-4.28-.4-1.13-1.67-2.52-2.81-3.06-1.81-.88-2.35-.79-4.65.62l-2.61,1.62-2.52-2.69c-2.32-2.47-2.89-2.69-6.8-2.69-4.93,0-8.28,1.47-8.96,3.91-.4,1.42.4,2.58,4.71,6.75,5.1,4.9,5.73,5.22,11.51,5.73.74.09,2.95-.71,4.93-1.76Zm45.86-4.17c0-.43-.31-.57-.74-.31s-.74.6-.74.79c0,.17.31.31.74.31s.74-.34.74-.79Zm2.27-2.21c0-.43-.37-.74-.79-.74-.45,0-.6.31-.34.74.26.4.62.77.79.77.2,0,.34-.37.34-.77Zm2.24-2.24c0-.43-.31-.74-.74-.74-.4,0-.77.31-.77.74,0,.4.37.77.77.77.43,0,.74-.37.74-.77Zm3-2.64c0-.6-.31-1.11-.71-1.11-.94,0-1.62,1.16-1.02,1.76.85.85,1.73.51,1.73-.65Zm-39.88-3.4c1.98-1.84,2.32-6.72.48-6.72-1.13,0-2.35,2.41-3.12,6.21-.48,2.44.37,2.61,2.64.51Zm-36.74-6.41c-.2-1.76-.65-2.24-2.32-2.41-1.96-.23-2.04-.09-2.04,3s1.59,6.6,3,6.6c.37,0,.88-1.13,1.13-2.52.26-1.36.37-3.49.23-4.68Zm29.37-2.55c-1.67-1.11-2.24-.94-2.24.74s.57,1.84,2.24.74c.99-.65.99-.82,0-1.47Zm-20.32.45c1.25-.71,2.64-.82,4.59-.37,5.07,1.13,12.73.09,12.73-1.73,0-2.01-16.58-1.7-19.73.37-3.37,2.21-1.22,3.74,2.41,1.73Zm-55.7-12.25c-.26-.26-.45.2-.4.96.03.88.2,1.08.45.45.2-.54.17-1.16-.06-1.42Zm74.72-2.64c1.96-.91,3.57-1.93,3.57-2.24,0-1.08-4.11-.54-7.14.91-3.86,1.87-5.81,1.87-7.48,0-.77-.82-2.13-1.5-3.03-1.5s-2.1-.48-2.61-1.11c-1.05-1.28-4.17-1.53-4.85-.4-.26.4.51.94,1.64,1.22,1.16.28,2.55.88,3.12,1.33,1.28,1.02,8.76,3.26,11.34,3.37,1.02.06,3.49-.65,5.44-1.59Zm-6.18-20.52c0-.77-1.05-1.05-3.69-1.05-3.03,0-3.71.26-4.05,1.5-.31,1.28-.03,1.5,1.98,1.47,1.3,0,3.12-.2,4.05-.45s1.7-.91,1.7-1.47ZM19.38,244.77c0-.6.34-1.3.77-1.56.4-.26.74.23.74,1.08s-.34,1.56-.74,1.56c-.43,0-.77-.48-.77-1.08Zm255.88-.57c-1.22-1.22-1.13-3.23.23-5.87.77-1.47,1.5-2.04,2.3-1.73.99.37,1.08,0,.65-2.3-.51-2.72.57-3.88,1.45-1.53.6,1.5,1.96.65,1.96-1.22,0-.82.51-1.47,1.13-1.47s1.13-.65,1.13-1.5-.37-1.5-.79-1.5c-.45,0-.54-.4-.26-.88.45-.71.62-.71.88,0,.4,1.16,2.41,1.16,2.41-.03,0-.91,2.18-3,5.3-5.07.94-.62,2.32-1.73,3.09-2.44.74-.74,1.81-1.33,2.38-1.33s1.87-.74,2.89-1.67c2.24-2.01,5.13-3.77,5.53-3.37.45.45-4.25,5.81-5.13,5.81-.45,0-5.64,4.85-11.48,10.77-8.56,8.7-10.71,11.31-11.14,13.49-.54,2.89-1.08,3.29-2.52,1.84Zm-178.87-8.87c1.33,0,1.25,2.61-.14,3.77-.62.51-1.13,1.73-1.13,2.72,0,2.13-1.19,2.35-1.84.34-.54-1.73,1.76-6.83,3.12-6.83Zm242.82,7.51c.26.4-.06.74-.68.74s-1.19-.14-1.19-.31c0-.79,1.45-1.13,1.87-.43Zm-317.57-1.87c0-.62.31-1.13.74-1.13.4,0,.77.51.77,1.13s-.37,1.13-.77,1.13c-.43,0-.74-.51-.74-1.13Zm19.05-1.42c-.4-1.02-.03-1.79,1.28-2.78,3.34-2.58,3.91-1.56,1.11,1.93-1.67,2.07-1.87,2.13-2.38.85Zm159.36-2.72c-.77,0-4.45-3.34-4.45-4.03,0-.96,2.3-.43,2.72.65.23.62.91,1.13,1.47,1.13s1.05.51,1.05,1.13.51,1.36,1.13,1.59c1.28.48,1.53,1.79.34,1.79-.43,0-.96-.51-1.19-1.13-.26-.62-.74-1.13-1.08-1.13Zm-170.93-.74c0-.43.34-.77.77-.77.4,0,.74.34.74.77,0,.4-.34.74-.74.74-.43,0-.77-.34-.77-.74Zm11.2-6.55c3.86-2.13,3.88-.54.03,3.34-4.05,4.14-6.29,4.93-6.92,2.47-.4-1.42.88-2.49,6.89-5.81Zm180.57,4.59c-.28-.31-.54-1.08-.54-1.7,0-.85.23-.94.82-.31.48.45.71,1.22.57,1.7-.17.48-.54.62-.85.31Zm-190.54-5.24c1.05-.79,3.17-2.52,4.68-3.86s3.26-2.41,3.91-2.44c.62,0,1.56-.43,2.04-.91.71-.71.91-.62.91.37,0,.71-.62,1.87-1.39,2.58-2.92,2.75-6.09,5.27-7.2,5.7-.65.26-1.16.79-1.16,1.22s-.85.79-1.87.79c-1.08,0-1.87-.45-1.87-1.02s.88-1.67,1.96-2.44Zm63.3,1.19c0-1.25.31-2.24.74-2.24s.77.99.77,2.24-.34,2.27-.77,2.27-.74-1.05-.74-2.27Zm63.38-.11c1.22-.28,3.8-1.13,5.73-1.87,2.66-1.02,3.77-1.13,4.42-.51,1.3,1.33.11,2.49-2.55,2.52-1.33.03-3.06.51-3.86,1.13-1.79,1.36-6.69,1.5-6.24.17.17-.51,1.3-1.16,2.49-1.45Zm32.6,1.64c-.94-.6-.94-.77.2-1.19,1.53-.6,3.51.06,3.51,1.13,0,.96-2.24.99-3.71.06Zm-15.96-.51c.51-.23,1.36-.23,1.87,0,.51.2.09.37-.94.37s-1.45-.17-.94-.37Zm10.32-2.52c.26-.4.94-.74,1.5-.74s1.25.34,1.5.74c.26.43-.37.77-1.5.77s-1.79-.34-1.5-.77Zm-136.09-1.42c0-.94.48-1.59,1.16-1.59s1.08.51.94,1.28c-.34,1.87-2.1,2.13-2.1.31Zm47.25-3.57c0-3.71,1.62-10.29,3.54-14.29.79-1.67.94-2.72.4-3.37-.4-.54-.96-2.41-1.25-4.2-.43-2.72-.09-4.05,2.3-8.99,3.97-8.31,7-12.08,7-8.73,0,1.7-4.45,14.66-5.7,16.61-1.47,2.32-1.33,3.88.57,5.41l1.64,1.33-1.64,3.12c-.88,1.73-1.62,4.34-1.62,5.81s-.48,3.57-1.08,4.68c-.6,1.08-1.28,2.92-1.53,4.05-.23,1.13-.94,2.04-1.53,2.04-.82,0-1.11-.91-1.11-3.49Zm204.32,2.75c.26-.43.79-.77,1.16-.77.4,0,.71.34.71.77,0,.4-.51.74-1.16.74s-.96-.34-.71-.74Zm7.71-5.98c.54,0,1.16-.54,1.39-1.13.26-.62,1.05-1.13,1.76-1.13s1.76-.51,2.27-1.13c1.16-1.36,4.76-1.53,4.31-.17-.17.51-.94,1.05-1.73,1.19-.79.17-1.7.74-2.04,1.33-.31.57-1.13,1.02-1.76,1.02s-2.01.68-3.06,1.5-2.38,1.5-2.95,1.5-1.02.34-1.02.77c0,.4-.74.74-1.64.74-1.5,0-1.42-.2.94-2.21,1.42-1.22,3.03-2.24,3.54-2.27Zm-113.84-1.22c0-.65.43-1.05.91-.88,1.39.45,1.62,2.07.28,2.07-.65,0-1.19-.54-1.19-1.19Zm-149.95-2.35c0-1.45.34-1.76,1.67-1.56,2.27.31,2.95,4.37.77,4.37-.79,0-1.67-.26-1.93-.51-.28-.31-.51-1.3-.51-2.3Zm69.31-.88c.65-.71,1.19-2.24,1.19-3.37,0-1.56.31-1.98,1.3-1.81.99.2,1.39,1.13,1.53,3.71.23,3.06.06,3.51-1.47,3.91-2.38.65-2.69.62-3.26-.31-.28-.43.03-1.39.71-2.13Zm75.37.34c1.16-.74,3.26.14,2.66,1.08-.57.94-1.19.94-2.52.09-.74-.45-.79-.77-.14-1.16Zm-153.21-3.86c1.98-.68,2.44-.6,3.17.57q1.16,1.87-1.5,2.81c-2.98,1.05-3.06,1.02-4.73-.2-1.59-1.13-1.02-1.73,3.06-3.17Zm257.81-1.45c2.83-2.66,5.61-4.85,6.15-4.85s1.22-.43,1.56-.94c.79-1.28,5.27-3.57,6.89-3.57.71,0,1.96-.51,2.75-1.11,1.59-1.19,3.34-1.5,3.32-.6-.06.77-5.1,3.94-6.29,3.94-.51,0-1.53.68-2.3,1.5-.74.82-1.81,1.5-2.38,1.5s-1.02.23-1.02.57c0,.31-1.5,1.42-3.34,2.44-1.84.99-3.51,2.27-3.71,2.78-.23.54-.94.96-1.59.96s-1.7.51-2.32,1.13-1.53,1.11-2.01,1.11,1.45-2.18,4.31-4.88Zm-110.78,3.32c.6-.6,1.22-.6,2.21-.03,1.22.71,1.11.82-.82.82-1.62.03-1.98-.2-1.39-.79Zm-7.29-2.18c0-.43.82-.74,1.84-.74s2.04.34,2.3.74c.26.45-.51.77-1.84.77-1.25,0-2.3-.37-2.3-.77Zm-7-1.25c-1.05-1.08-.4-1.76,1.7-1.76,2.75,0,3.63,1.19,1.36,1.79-2.15.6-2.44.57-3.06-.03Zm-127.96-.99c0-.43.48-.77,1.11-.77s1.13.34,1.13.77c0,.4-.54.74-1.13.74s-1.11-.34-1.11-.74Zm.48-3.51c-.79-.79-.57-3.86.37-4.42,1.05-.65,2.89,1.67,2.89,3.57,0,1.33-2.18,1.93-3.26.85Zm72.62-.99c-.26-.43-.26-1.42,0-2.21.45-1.45.48-1.45,1.96.03,1.56,1.56,1.33,2.95-.45,2.95-.57,0-1.25-.34-1.5-.77Zm167.61-2.61c0-.62.34-1.13.74-1.13.43,0,.77.51.77,1.13s-.34,1.11-.77,1.11c-.4,0-.74-.51-.74-1.11Zm-243.47-3.34c1.02-.4,2.07-1.05,2.35-1.5.6-.96,6.41-1.08,6.41-.11,0,.79-1.84,1.56-3.74,1.56-.74,0-1.76.51-2.27,1.13-1.08,1.28-3.43,1.5-4.14.37-.26-.4.37-1.05,1.39-1.45Zm319.41.99c.26-.23.91-.26,1.45-.06.6.26.43.43-.45.45-.79.03-1.25-.14-.99-.4Zm-243.41-.79c-.28-.28-.51-1.45-.51-2.58s-.4-2.98-.88-4.05c-.74-1.62-.65-2.32.51-4.34.77-1.3,1.64-2.61,1.98-2.81.31-.23.65-4.2.74-8.82.11-7.48.68-10.12,1.87-8.93.71.71.43,15.39-.31,16.72-.51.91-.48,1.76.11,2.69.65,1.05.54,1.9-.54,3.91-.94,1.7-1.22,3.26-.91,4.76.48,2.15-.96,4.54-2.07,3.43Zm-74.01-7.85c0-.91.11-1.5.23-1.33s.65.91,1.22,1.64c.85,1.11.82,1.3-.23,1.3-.74,0-1.22-.62-1.22-1.62Zm158.2-2.89c1.73,0,2.27.34,2.27,1.42,0,2.01-2.41,2.92-4.42,1.64-1.73-1.11-.34-3.06,2.15-3.06Zm151,.82c3.4.11,6.46,1.11,5.02,1.64-2.41.91-6.41,1.22-7.4.6-1.64-1.02-.26-2.32,2.38-2.24Zm-77.92-5.75c3.12-3.06,4.96-5.64,4.96-6.92,0-.74.54-.94,1.81-.6,1.56.37,2.07,0,3.51-2.55.94-1.64,1.96-3,2.3-3,.77,0,4.37-7.09,4.37-8.59,0-.62.82-1.67,1.81-2.32,1.25-.79,1.98-2.18,2.32-4.31.28-1.73,1.16-3.74,1.96-4.48.77-.74,1.42-2.04,1.42-2.83s.37-1.47.82-1.47c.51,0,.68.91.4,2.44-.23,1.36-.74,4.31-1.13,6.58s-1.76,6.15-3.03,8.62c-1.25,2.49-2.3,4.85-2.3,5.27-.03.43-2.64,3.15-5.81,6.01-3.2,2.86-7.65,7.11-9.95,9.44-3.63,3.69-7.51,6.15-7.51,4.79,0-1.11,1.87-3.91,4.05-6.07Zm-229.78,4.65c0-.62.34-1.33.77-1.59.4-.26.74.03.74.65s-.34,1.33-.74,1.59c-.43.26-.77-.03-.77-.65Zm7.51.28c0-.43.54-.74,1.16-.74s.96.31.71.74c-.26.4-.77.77-1.16.77s-.71-.37-.71-.77Zm143.55-1.56c-.26-.45-.11-1.22.37-1.67.65-.68,1.02-.62,1.53.2.71,1.16.37,2.3-.74,2.3-.34,0-.88-.37-1.16-.82Zm-138.73-6.01c-.28-.45-1.3-.68-2.3-.48-2.49.48-2.41-2.18.11-3.34,1.02-.45,1.87-1.47,1.87-2.21s.34-1.39.77-1.39c1.25,0,1.73,2.18.74,3.37-1.13,1.33-.48,3.37,1.05,3.37.6,0,1.3.34,1.56.77.26.4-.34.74-1.42.74-1.02,0-2.13-.37-2.38-.82Zm292.14.17c0-.85,3.46-1.53,5.33-1.05,2.64.68,1.47,1.7-1.96,1.7-1.84,0-3.37-.31-3.37-.65Zm-91.13-17.15c1.42-3.63,2.47-11.11,2.1-15.19-.43-4.59.45-5.98,1.98-3.12,1.05,1.96.11,14.88-1.16,15.96-.57.45-1.02,1.47-1.02,2.24s-.54,1.42-1.22,1.42c-.85,0-1.05-.4-.68-1.3Zm-135.27-9.95c1.25,0,.79,5.05-.48,5.56-1.9.71-1.98.6-1.42-1.98.62-2.95.96-3.57,1.9-3.57Zm86.23-1.5c.37,0,.68,1.53.68,3.37,0,3.83-1.08,4.54-1.76,1.13-.48-2.41.03-4.51,1.08-4.51Zm-85.86-5.24c1.33,0,1.36.82.09,2.58-.96,1.3-1.05,1.3-1.5.09-.62-1.59-.03-2.66,1.42-2.66Zm82.06.2c.03-3.37,1.22-4.56,1.84-1.81.51,2.41.09,3.86-1.16,3.86-.37,0-.68-.91-.68-2.04Zm62.22.54c0-.96.4-1.47.96-1.3.51.17.94.77.94,1.3,0,.57-.43,1.16-.94,1.33-.57.17-.96-.37-.96-1.33Zm-143.66-4.82c-.23-.57-.06-1.7.37-2.49s.57-2.21.31-3.15c-.31-1.13-.06-1.93.71-2.38.91-.51,1.02-1.22.54-3.43-.71-3.06.03-4.11,2.61-3.8.96.14,1.67,1.08,2.1,2.72.82,3.17.31,4.62-1.64,4.62-1.67,0-1.87.54-.82,2.18.45.74.17,2.04-.79,3.94-1.5,2.98-2.69,3.6-3.37,1.79Zm88.92-.43c0-.82.34-1.5.74-1.5.43,0,.77-.88.77-1.93,0-1.33.48-2.07,1.5-2.35.82-.2,1.5-.68,1.5-1.05s.51-.65,1.11-.65c1.7,0,1.39.88-1.28,3.77-1.33,1.42-2.47,2.83-2.52,3.15-.09.31-.17.91-.23,1.33-.17,1.42-1.59.74-1.59-.77Zm-18.74-6.58c.03-2.98,2.1-6.18,3.97-6.18.6,0,2.1-.48,3.26-1.11,1.19-.62,3.2-1.13,4.48-1.13s2.75-.48,3.23-1.08c.51-.6,1.84-1.28,3-1.53,1.19-.28,2.44-1.25,2.92-2.3.45-1.02,1.13-1.84,1.53-1.84,1.13,0,1.45-3.69.4-4.56-.79-.65-1.22-.4-1.9,1.11-1.08,2.35-1.5,2.41-3.29.45-.74-.82-1.79-1.5-2.32-1.5-1.22,0-2.92,2.95-2.66,4.59.28,1.81-4.99,2.52-6.77.91s-1.73-3.23.14-3.23c1.73,0,1.81-.28.74-2.3-.65-1.19-1.3-1.36-4.11-.96-1.87.26-3.37.26-3.37,0s1.45-1.93,3.23-3.69c4.11-4.14,8.25-5.61,12.1-4.34,2.47.82,2.89.77,3.8-.48.96-1.33,1.08-1.33,3.12.2,1.16.85,2.72,2.78,3.46,4.31,1.47,3.12,1.79,3.2,4.2,1.53,1.33-.94,1.64-1.7,1.33-3.26-.45-2.24.11-5.27.99-5.27.28,0,.91.82,1.39,1.87,1.13,2.52,2.1,2.35,2.66-.43.26-1.28.79-2.1,1.22-1.84,1.08.68.94,3.91-.2,4.34-.51.2-1.73,1.93-2.66,3.83-.96,1.93-2.04,3.49-2.44,3.49-.37,0-2.01,1.16-3.6,2.61s-3.26,2.64-3.74,2.64c-.45,0-.79.94-.71,2.07.26,3.94-.2,5.81-1.98,7.99-1.56,1.9-1.98,2.07-3.03,1.19s-1.53-.65-3.66,1.81c-2.35,2.72-2.55,2.78-5.95,2.3-2.83-.43-4-.23-6.12,1.02l-2.64,1.56v-2.78Zm78.15-1.22c-3.43-.88-7.46-4.96-6.46-6.55.37-.62.85-.45,1.56.54.85,1.16,1.28,1.25,2.49.48.79-.48,1.93-.71,2.49-.48.6.23,2.86-.45,5.05-1.53,4.05-1.96,6.72-2.44,6.72-1.25,0,.37-.57.88-1.22,1.13-.82.31-1.11,1.08-.85,2.35.26,1.42-.11,2.24-1.62,3.26-3.74,2.64-4.79,2.89-8.16,2.04Zm-11.68-.82c-.26-.62-.23-1.64,0-2.27.6-1.53,2.52,0,2.52,1.98,0,1.67-1.9,1.9-2.52.28Zm-8.42-3.86c.23-.62-.09-2.1-.71-3.29-.6-1.19-1.11-3.32-1.11-4.71s-.37-3.63-.85-4.96c-.45-1.3-.65-2.55-.45-2.78.6-.6,4.31,3.12,4.31,4.31,0,.6.51,1.81,1.16,2.72.82,1.22,1.08,3.12.94,7.03-.23,5.64-1.3,7.29-2.86,4.39-.48-.88-.65-2.13-.43-2.72Zm55.39-1.87c-.68-1.79-.51-2.47,1.47-5.16,1.45-1.96,2.66-2.92,3.34-2.66.6.23,1.42.43,1.79.43,1.45,0,.62,1.56-1.16,2.24-1.02.4-1.73,1.13-1.56,1.67.71,2.3,1.13,7.31.6,7.26-.31-.06-1.25-.45-2.13-.88-.85-.45-1.93-1.73-2.35-2.89Zm-228.16,2.35c0-.43.14-.77.31-.77.2,0,.54.34.79.77.26.4.11.74-.31.74-.45,0-.79-.34-.79-.74Zm112.42-6.35c.62-.4,3.03,3.17,3.03,4.42,0,.6-2.64.51-3.23-.09-.77-.74-.6-3.86.2-4.34Zm-62.11.37c-1.08-4.22-.74-5.27,1.79-5.27,2.95,0,4.11,1.76,3.09,4.65-1.93,5.61-3.54,5.81-4.88.62Zm105.65,2.32c0-.43.34-.96.74-1.22.43-.26.77-.14.77.28s-.34.96-.77,1.22c-.4.26-.74.11-.74-.28Zm.26-5.75c-.88-1.36-1.84-3.51-2.1-4.76-.48-2.07-.28-2.35,2.27-3.43,3.54-1.47,4.62-1.45,5.13.17.34,1.08-2.38,9.33-3.37,10.23-.17.14-1.05-.85-1.93-2.21Zm49.24.82c0-1.3.45-1.5,1.11-.45.23.37.09.91-.34,1.16s-.77-.06-.77-.71Zm-12.36-.43c-.26-.4-1.39-.74-2.55-.74s-2.72-.68-3.46-1.5c-1.05-1.16-1.93-1.39-4.17-1.02-2.21.34-3.29.09-5.13-1.28-2.78-2.07-2.89-2.78-.65-3.63.94-.37,2.81-2.04,4.17-3.74,2.47-3.06,4.11-3.83,5.07-2.3.26.45-.23.99-1.11,1.22-1.79.48-2.15,2.49-.43,2.49.62,0,1.7-.68,2.41-1.5.77-.88,2.21-1.5,3.57-1.5,3.15,0,12.5,3.4,13.29,4.82.57.99.11,1.19-2.98,1.19-3.6,0-5.44.91-5.44,2.72,0,.51.94,1.02,2.07,1.16,1.22.14,2.07.68,2.07,1.36s-.85,1.22-2.07,1.36c-1.13.14-2.07.57-2.07.94,0,.94-2.04.91-2.61-.06Zm-104.88-.48c-.79-.82-.57-4.62.31-5.16,1.36-.85,2.04-3.63,1.28-5.13-.6-1.11-.17-1.96,2.13-4.31,1.56-1.59,3.26-2.92,3.77-2.92,1.53,0,1.87,1.3.65,2.52-.62.62-1.13,1.45-1.13,1.84s-.45,1.11-1.02,1.56-.88,1.62-.74,2.52c.17.94-.45,2.83-1.42,4.25-.94,1.42-2.07,3.17-2.52,3.94-.45.74-1.05,1.13-1.3.88Zm15.62-3.26c3.03,0,4,1.11,1.96,2.21-1.79.96-3.12.99-4.48.11-1.64-1.05-.26-2.32,2.52-2.32Zm7.88-.74c0-.43.34-.77.74-.77.43,0,.77.34.77.77,0,.4-.34.74-.77.74-.4,0-.74-.34-.74-.74Zm118.66-3.51c-1.33-.54-3.17-4.31-3.17-6.49,0-1.45.51-1.93,2.35-2.3,1.3-.26,2.64-.45,3-.45,1.02,0,.77,2.07-.28,2.47-.62.26-.37.79.74,1.62,3.46,2.55,1.3,6.75-2.64,5.16Zm-112.93-5.27c-.85-.85-.51-1.73.65-1.73.62,0,1.13.31,1.13.71,0,.94-1.19,1.62-1.79,1.02Zm3.8-2.21c-.6-.6.09-1.76,1.02-1.76.4,0,.71.51.71,1.13,0,1.13-.88,1.47-1.73.62Zm36.23-1.81c0-2.89,1.76-2.64,2.1.28.17,1.45-.09,2.01-.94,2.01-.79,0-1.16-.71-1.16-2.3Zm4.03,1.22c-.26-.68.11-2.72.79-4.54,1.22-3.17,1.22-3.34-.2-4.76-1.28-1.28-1.42-2.35-1.25-8.59.11-3.94.4-7.46.62-7.85.6-.94-1.59-9.95-2.92-11.96-1.53-2.38-1.42-5.47.23-5.44,3.26.06,6.15,5.16,6.18,10.89,0,1.28.4,2.66.85,3.12.96.96.51,9.67-.79,15.59-.68,3.15-.62,3.88.31,4.59,1.45,1.05,1.45,2.1.06,3.26-.6.48-1.19,2.1-1.3,3.6-.26,2.86-1.79,4.11-2.58,2.1Zm27.47-.43c0-.43,1.02-.74,2.24-.74s2.27.31,2.27.74c0,.4-1.02.77-2.27.77s-2.24-.37-2.24-.77Zm-63.75-2.24c0-.43.51-.77,1.13-.77s1.13.34,1.13.77c0,.4-.51.74-1.13.74s-1.13-.34-1.13-.74Zm-29.48-.94c-1.53-.51-2.04-1.13-1.87-2.27.37-2.49,2.49-3.34,4.31-1.7,2.89,2.58,1.25,5.24-2.44,3.97Zm6.97-4.31c0-.94.82-.94,2.27,0,.91.57.79.71-.57.74-.94,0-1.7-.34-1.7-.74Zm119.11-4.93c-3.43-4.14-3.15-5.84.79-5.13,3.4.62,3.86.88,3.86,2.18,0,.57.77,1.56,1.67,2.21,1.36.94,1.53,1.45.88,2.49-1.59,2.49-4.22,1.87-7.2-1.76Zm-122.43-.11c-.6-1.56,1.53-3.37,3.63-3.06,2.38.37,2.18,1.87-.37,3.15-2.95,1.47-2.66,1.47-3.26-.09Zm83.74-1.7c1.56,0,1.73.79.45,2.1-1.02.99-3.6,1.22-3.6.28,0-1.05,1.76-2.38,3.15-2.38Zm-38.61-.37c-2.41-2.13-2.55-2.64-.65-2.64,2.13,0,6.09,2.24,6.09,3.43,0,1.67-3.15,1.22-5.44-.79Zm86.34-5.07c-2.83-2.44-3.06-3.88-.94-5.9,1.53-1.45,2.1-1.59,3.26-.85,1.11.68,1.9.62,3.74-.28,4.51-2.27,6.26.65,2.21,3.63-1.28.94-2.64,2.47-2.98,3.4-.85,2.13-2.78,2.13-5.3,0Zm-126.45-.37c-3.54-.43-3.26-2.44.37-2.47,1.56,0,4.08-.2,5.64-.45,2.27-.4,2.81-.26,2.81.71,0,.68-.65,1.56-1.45,1.98-1.45.77-2.72.82-7.37.23Zm43.46-3.34c-1.22-1.22-1.13-2.1.23-2.1.62,0,1.13.65,1.13,1.5,0,1.73-.14,1.81-1.36.6Zm31.04.23c-.74-1.16,3.12-1.9,5.05-.96,1.56.74,1.56.79.14.85-.82.03-2.21.26-3.09.48s-1.84.09-2.1-.37Zm33.82.17c-1.11-1.11-.37-3.69,1.42-4.99,1.93-1.42,3.32-1.16,3.32.62,0,.6,1.05,1.62,2.3,2.24,1.25.65,2.07,1.5,1.81,1.9-.48.82-8.08.99-8.84.23Zm-97.17-3.43c-.37-.94-.51-1.96-.31-2.27.45-.79,7.74-.68,7.74.11,0,.6-5.44,3.83-6.43,3.83-.2,0-.65-.77-.99-1.67Zm-33.08-2.75c-3.77-.77-6.75-2.92-6.75-4.96,0-2.47,1.87-2.81,5.78-1.05,4.34,1.98,6.55,4.03,5.95,5.53-.45,1.25-.88,1.28-4.99.48Zm42.75-3.83c0-.43.68-.74,1.5-.74s1.5.31,1.5.74c0,.4-.68.77-1.5.77s-1.5-.37-1.5-.77Zm-8.25-16.44c0-.4.77-.94,1.7-1.19.91-.26,2.75-.96,4.08-1.56,1.5-.68,3.46-.91,5.24-.62,2.32.37,3.15.14,4.28-1.11,1.67-1.84,4.79-2.04,6.86-.48,1.36,1.02,1.16,1.11-2.38,1.13-2.13,0-4.82.54-6.01,1.13-1.19.62-3.37,1.13-4.88,1.13s-3.12.51-3.66,1.13c-.99,1.22-5.24,1.56-5.24.43Zm33.19-1.73c-3.09-.99-3.12-1.81-.03-2.27,3.29-.48,5.22.14,4.93,1.59-.28,1.5-1.76,1.7-4.9.68Zm8.73-1.67c1.84-.6,5.44.28,4.9,1.19-.54.88-5.36.85-5.92-.03-.23-.4.23-.91,1.02-1.16Zm8.59-.37c1.02-.37,2.07-1.05,2.32-1.47.28-.45,1.87-.82,3.51-.82,4,0,3.51,1.64-.71,2.49-1.73.34-3.15.94-3.15,1.3,0,.96-2.78.91-3.37-.03-.26-.43.37-1.08,1.39-1.47Zm-20.83-1.45c.68,1.11-1.05,2.13-3.63,2.15-1.87,0-2.01-.17-1.3-1.5.88-1.62,4.08-2.04,4.93-.65Zm-39.8-10.6c.74,1.22-.14,3-1.47,3-.62,0-1.16-.45-1.16-1.02,0-1.53,1.98-3,2.64-1.98Zm1.64-.68c-.62-1.22-.94-2.38-.74-2.58.45-.45,3.23,2.3,3.23,3.23,0,1.73-1.5,1.36-2.49-.65Zm12.61-5.3c-.82-1.33.48-2.38,2.38-1.93,1.42.37,2.32-.03,3.94-1.79,2.13-2.27,3.03-2.3,3.03-.11,0,1.28-5.5,4.56-7.63,4.56-.71,0-1.47-.34-1.73-.74Zm69.82-2.69c-.65-1.7.11-2.55,2.21-2.55,1.45,0,1.84.37,1.84,1.87s-.4,1.87-1.81,1.87c-.96,0-1.98-.54-2.24-1.19Zm-54.45-1.81c0-.43.37-.74.77-.74.43,0,.74.31.74.74,0,.4-.31.77-.74.77-.4,0-.77-.37-.77-.77Zm4.25.26c-.74-.74-.6-4.96.2-6.21.57-.88.91-.91,1.87-.11.65.57,1.93.79,2.95.54,2.3-.57,6.24.77,6.83,2.32.62,1.67-.99,2.47-3.03,1.53-1.36-.6-2.24-.43-4.28.82-2.72,1.67-3.71,1.93-4.54,1.11Zm21.51-2.15c-.23-.62.37-2.3,1.33-3.71l1.79-2.61.65,1.93c1.19,3.57-2.47,7.82-3.77,4.39Zm18.99.65c-1.02-1.02-.45-2.3,1.39-3.12,2.49-1.13,2.61-1.13,2.61.45,0,2.32-2.64,4.05-4,2.66Zm-25.37-5.5c1.3,0,2.49,2.18,2.01,3.71-.51,1.56-2.95,2.1-3.74.85-.54-.88.85-4.56,1.73-4.56Zm21.12,1.7c0-1.87.09-1.93,1.22-.82.65.68.96,1.59.71,2.04-.94,1.5-1.93.85-1.93-1.22Z" style="fill-rule:evenodd;"/></g></svg>