<?xml version="1.0"?>
<svg xmlns:rdf="http://www.w3.org/1999/02/22-rdf-syntax-ns#" xmlns="http://www.w3.org/2000/svg" xmlns:cc="http://web.resource.org/cc/" xmlns:xlink="http://www.w3.org/1999/xlink" xmlns:dc="http://purl.org/dc/elements/1.1/" xmlns:svg="http://www.w3.org/2000/svg" id="svg2" viewBox="0 0 253.54 288.02" version="1.0">
  <defs id="defs4">
    <linearGradient id="linearGradient3235">
      <stop id="stop3237" stop-color="#fc0" offset="0"/>
      <stop id="stop3255" stop-color="#ffffd3" offset=".073746"/>
      <stop id="stop3257" stop-color="#ffc800" offset=".23036"/>
      <stop id="stop3243" stop-color="#ff0" offset=".31846"/>
      <stop id="stop3245" stop-color="#ffe500" stop-opacity=".99608" offset=".60753"/>
      <stop id="stop3247" stop-color="#fffda8" stop-opacity=".99216" offset=".638"/>
      <stop id="stop3249" stop-color="#ffe454" stop-opacity=".99216" offset=".7227"/>
      <stop id="stop3251" stop-color="#ffbe00" stop-opacity=".99216" offset=".864"/>
      <stop id="stop3253" stop-color="#ffffe2" stop-opacity=".99216" offset=".90208"/>
      <stop id="stop3239" stop-color="#ffb000" stop-opacity=".99216" offset="1"/>
    </linearGradient>
    <radialGradient id="radialGradient3103" fx="181.24" fy="338.54" spreadMethod="reflect" gradientUnits="userSpaceOnUse" cy="276.41" cx="104.2" gradientTransform="matrix(.33444 .25273 -.25164 .333 152.71 122.33)" r="126.77">
      <stop id="stop3099" stop-color="#c3cdd8" stop-opacity=".76289" offset="0"/>
      <stop id="stop3101" stop-color="#e8e8e8" stop-opacity="0" offset="1"/>
    </radialGradient>
    <radialGradient id="radialGradient3119" fx="105.58" fy="307.25" spreadMethod="reflect" gradientUnits="userSpaceOnUse" cy="253.28" cx="117.41" gradientTransform="matrix(.51336 -.40918 .37503 .47052 -17.736 163.24)" r="126.22">
      <stop id="stop3115" offset="0"/>
      <stop id="stop3117" stop-opacity="0" offset="1"/>
    </radialGradient>
    <linearGradient id="linearGradient3130" x1="137.71" xlink:href="#linearGradient3235" gradientUnits="userSpaceOnUse" y1="436.08" gradientTransform="matrix(.54050 0 0 .30044 -14.542 91.074)" x2="426.73" y2="436.08"/>
    <radialGradient id="radialGradient3133" fx="-18.758" fy="1075.7" xlink:href="#linearGradient3235" spreadMethod="reflect" gradientUnits="userSpaceOnUse" cy="1127.7" cx="-110.69" gradientTransform="matrix(-1.9282 .072117 -.022715 -.28553 -298.51 1149.9)" r="156.41"/>
  </defs>
  <g id="layer1" transform="translate(-55.161 -52.567)">
    <g id="g3135" transform="matrix(.94783 0 0 .94783 9.4914 10.256)">
      <path id="path3194" opacity=".9476" fill="url(#radialGradient3103)" d="m112.12 339.9c-21.219-1.08-39.382-3.85-47.05-7.17-3.807-1.65-8.271-5.95-9.468-9.12-0.425-1.12-0.555-14.04-0.337-33.46 0.621-55.35 1.101-115.49 1.149-143.89 0.046-27.63 1.024-70.704 1.795-79.082 0.36-3.904 0.782-4.906 3.26-7.74 5.834-6.672 12.55-7.241 79.421-6.728 47.49 0.365 62.42 0.952 68.92 2.712 1.52 0.413 3.68 0.867 4.81 1.011 6.69 0.853 9.37 5.353 9.37 15.741 0 3.78 0.73 5.695 3.17 8.396 3.21 3.545 6.21 4.437 17.47 5.19 12.04 0.806 16.02 1.715 23.8 5.435 14.27 6.821 26.78 20.175 32.6 34.805 9.4 23.65 10.37 94.7 1.74 128.14-4.08 15.79-12.08 27.16-25.67 36.48-1.85 1.27-3.71 2.31-4.13 2.31-0.43 0-0.77 0.29-0.77 0.64 0 0.5-6.98 3.82-8.64 4.11-0.19 0.03-2.14 0.6-4.31 1.26-2.46 0.75-8.51 1.44-15.92 1.82-11.18 0.58-12.18 0.75-15.33 2.6-1.85 1.09-3.73 2.78-4.16 3.75-0.44 0.96-0.99 1.75-1.22 1.76-0.24 0-0.53 3.48-0.66 7.73-0.56 18.48-5.68 20.64-55.52 23.44-13.97 0.79-37.29 0.72-54.32-0.14zm43.88-4.25c8.47-0.77 15.19-2.27 16.48-3.68 0.6-0.66 0.45-0.74-0.65-0.34-2.64 0.98-4.27 1.27-12.59 2.28-9.82 1.2-16.17 0.89-24.46-1.17-3.36-0.84-7.19-1.7-8.51-1.92-2.12-0.36-4.06-2.59-3.35-3.85 0.11-0.2 0.4-13.73 0.65-30.06 0.24-16.33 0.76-51.37 1.15-77.86 0.4-26.49 1.06-70.05 1.48-96.81 0.41-26.749 0.54-49.773 0.28-51.159-0.44-2.407-0.35-2.56 2.18-3.401 6.87-2.282 14.13-3.604 19.79-3.607 11.03-0.004 25.37 2.296 26.58 4.263 0.78 1.264-0.63 132.81-1.46 136.59-0.92 4.17-0.93 4.64-0.36 14.85 0.57 10.22 0.75 62.92 0.21 63.46-0.23 0.23-4.33 0.38-9.1 0.32s-8.68 0.19-8.68 0.54c0 0.36 0.89 0.65 1.98 0.64s5.46 0.07 9.72 0.19c7.18 0.19 9.26 0.73 6.66 1.74-0.78 0.3-0.91 0.87-0.48 2.07 0.32 0.91 0.65 3.28 0.73 5.27 0.12 2.84-0.02 3.39-0.66 2.54-0.67-0.89-0.73-0.83-0.32 0.36 0.28 0.8 0.56 1.78 0.63 2.17 0.07 0.4 0.41 1.19 0.76 1.75 0.42 0.67 0.37 0.85-0.16 0.52-0.54-0.34-0.65 0.34-0.35 2.18 0.34 2.16 0.24 2.55-0.59 2.05-0.82-0.5-0.84-0.41-0.14 0.46 0.47 0.6 0.83 2.86 0.78 5.03s0.02 5.93 0.15 8.35 0.05 4.71-0.19 5.1-0.38 2.15-0.31 3.93c0.12 3.06 0.24 3.23 2.29 3.31 1.19 0.04 4.11 0.65 6.48 1.34 4.9 1.44 17 1.28 19.46-0.25 1.2-0.74 1.03-0.8-1.11-0.35-4.61 0.96-11 0.68-16.14-0.72-2.8-0.76-5.84-1.37-6.77-1.36-1.37 0.02-1.61-0.26-1.27-1.53 0.23-0.86 0.42-11.09 0.43-22.74l0.01-21.19h2.64c2.93 0 2.78-0.9-0.17-1.01l-1.86-0.08v-8.13c0-4.47 0.21-8.46 0.46-8.87s0.26-1.05 0.03-1.42c-0.23-0.38-0.42-6.49-0.41-13.58 0-16 1.32-131.88 1.83-161.38 0.21-11.946 0.37-22.231 0.37-22.851-0.02-1.995 17.09-5.607 20.45-4.319 0.89 0.341 3.37 0.703 5.51 0.805 5.02 0.24 8.22 1.285 7.18 2.341-0.43 0.429-0.73 1.937-0.68 3.351l0.11 2.571 0.43-2.89c0.28-1.8 0.86-2.971 1.57-3.105 1-0.193 1.1 2.258 0.95 22.807-0.15 21.03-0.34 33.61-1.37 92.55-0.18 10.76-0.52 44.82-0.74 75.69-0.48 67.34-0.58 70.96-1.85 71.75-0.52 0.33-0.78 0.78-0.56 1 0.22 0.21 1.08-0.34 1.92-1.24 1.49-1.6 1.53-2.27 1.92-36.75 0.23-19.32 0.58-44.09 0.79-55.04 0.21-10.96 0.68-42.24 1.04-69.52 0.38-28.2 0.95-49.7 1.31-49.82 0.37-0.12 0.41-1.54 0.1-3.26-0.3-1.68-0.37-3.35-0.15-3.71s0.47-4.44 0.54-9.06c0.07-4.618 0.33-10.354 0.58-12.744 0.29-2.799 0.24-3.572-0.14-2.173-0.4 1.435-0.63-1.456-0.67-8.51-0.04-5.875 0.11-11.171 0.34-11.769 1.01-2.651 1.7-0.614 1.7 5.027 0 3.362 0.32 6.315 0.71 6.561 0.9 0.559 0.98-11.877 0.08-13.295-0.43-0.683-1.31-0.829-2.89-0.48-1.51 0.334-2.82 0.154-3.87-0.535-1.97-1.292-7.84-3.19-11.66-3.775-1.58-0.243-6.44 0.098-10.79 0.757-8.31 1.256-9.54 1.283-28.06 0.608-15.35-0.56-22.51-0.402-25.51 0.561-2.88 0.925-22.36 0.271-23.01-0.772-0.23-0.367-6.68-0.51-14.79-0.328-18.375 0.411-17.285 0.471-22.131-1.216-4.483-1.562-8.18-1.83-9.89-0.718-0.817 0.532-0.469 0.725 1.439 0.799 1.385 0.053 2.763 0.057 3.062 0.009 0.3-0.048 1.999 0.601 3.778 1.443 3.175 1.502 3.233 1.592 3.233 5.029 0 1.924-0.272 3.668-0.604 3.874-0.332 0.207-0.545 11.878-0.472 25.936 0.109 21.051 0.053 22.751-0.316 9.621l-0.449-15.93-0.108 17.74c-0.064 10.44 0.146 17.15 0.51 16.3 0.34-0.8 0.641-1.04 0.669-0.53 0.027 0.5-0.355 1.57-0.849 2.37-0.741 1.21-0.71 1.59 0.18 2.16 0.913 0.58 0.878 0.69-0.223 0.7-0.716 0-1.114 0.31-0.885 0.69 0.537 0.87 0.607 10.4 0.105 14.17-0.326 2.44-0.291 2.55 0.223 0.72 0.908-3.24 1.115-0.77 0.715 8.51l-0.195 4.53-0.46-5.43-0.46-5.44-0.13 7.47c-0.083 4.82 0.125 7.31 0.59 7.02 0.396-0.25 0.72 0.08 0.72 0.72 0 0.71-0.332 0.97-0.842 0.65-0.535-0.33-0.702-0.15-0.459 0.5 1.215 3.25 1.413 4.44 0.658 3.97-0.438-0.27-0.796-0.15-0.796 0.27s0.295 0.77 0.656 0.77c0.362 0 0.541 0.9 0.399 1.99-0.142 1.1-0.433 18.07-0.645 37.71-0.213 19.65-0.532 35.96-0.709 36.25s-0.337 4.26-0.356 8.82-0.108 14.82-0.199 22.78c-0.198 17.36-0.171 28.4 0.096 39.11 0.109 4.39-0.054 8.59-0.362 9.35-0.626 1.55 1.813 4.07 3.897 4.03 1.083-0.02 1.081-0.08-0.016-0.72-0.733-0.43-1.117-1.43-0.992-2.58 0.122-1.11-0.216-2.03-0.843-2.27-0.576-0.22-0.744-0.6-0.373-0.85 0.817-0.53 1.709-9.64 0.894-9.13-0.316 0.19-0.343-0.7-0.062-2 0.282-1.29 0.417-3.8 0.3-5.58-0.138-2.09 0.206-3.87 0.975-5.07 1.11-1.71 1.109-1.77-0.017-0.84-1.056 0.87-1.215 0.8-1.294-0.54-0.083-1.42-0.193-2.07-0.601-3.53-0.083-0.3-0.113-2.18-0.066-4.17 0.413-17.41 1.595-79.75 2.17-114.43 0.389-23.5 1.12-56.26 1.623-72.79 0.503-16.532 0.916-31.898 0.917-34.147l0.004-4.088 4.815-0.8c10.049-1.67 20.116-0.948 31.876 2.288l3.6 0.989v14.438c-0.01 24.23-0.5 55.91-1.04 66.22-0.28 5.38-0.32 9.94-0.1 10.14 0.23 0.2 0.32 3.38 0.19 7.07-0.21 6.05-0.37 6.69-1.62 6.69-0.76 0-1.39 0.33-1.39 0.73s0.65 0.72 1.44 0.72 1.44 0.33 1.44 0.73-0.65 0.72-1.44 0.72-1.44 0.33-1.44 0.73c0 0.39 0.65 0.72 1.44 0.72 1.22 0 1.43 0.47 1.39 3.08-0.03 1.69-0.35 3.73-0.71 4.53-0.52 1.14-0.64 0.83-0.57-1.45 0.05-1.6 0.04-3.55-0.03-4.35-0.12-1.37-0.16-1.38-0.89-0.13-0.42 0.73-0.56 2.11-0.32 3.08s0.15 1.76-0.2 1.76c-0.36 0-0.85 1.3-1.1 2.9-0.26 1.59-0.8 2.89-1.2 2.89-0.9 0-0.62 11.02 0.3 11.69 0.34 0.25 0.27 1.06-0.16 1.81-0.75 1.3-0.79 1.3-0.95-0.1-0.09-0.79-0.35 2.46-0.58 7.24-0.83 17.42 0.02-77.64 1.04-116.31l0.54-20.72-2.18-1.569c-1.21-0.863-2.33-1.318-2.5-1.012-0.99 1.773-1.17 8.32-1.31 49.081-0.09 24.7-0.38 45.53-0.64 46.3-0.34 0.98-0.64 1.13-1.02 0.51-0.3-0.49-0.15-1.36 0.32-1.94 0.69-0.82 0.68-1.28-0.01-2.13-0.64-0.77-0.87-4.71-0.82-13.94 0.05-8.39-0.16-12.47-0.6-11.72-0.69 1.16-1.36 36.96-1.52 81.86-0.07 17 0.14 24.22 0.7 24.4 0.53 0.18 0.84-1.95 0.94-6.49 0.08-3.72 0.22-9.37 0.32-12.55 0.09-3.19 0.2-16.3 0.23-29.13 0.05-15.18 0.33-23.49 0.81-23.79 0.51-0.32 0.6 10.84 0.27 35.46-0.35 25.92-0.26 35.92 0.31 35.92 0.43 0 0.79 0.46 0.79 1.01 0 0.56 0.48 1.2 1.08 1.43 0.59 0.23 1.08 1.11 1.08 1.95 0 0.91 0.36 1.4 0.9 1.21 0.49-0.17 0.8-0.83 0.7-1.45-0.11-0.63 0.13-1.35 0.54-1.6 0.4-0.25 0.77-1.17 0.82-2.04 0.06-1.24 0.15-1.31 0.41-0.32 0.18 0.71 0.63 1.09 1 0.87 0.36-0.23 0.66-0.02 0.66 0.47s0.24 0.65 0.54 0.35 0.73-3.69 0.97-7.55c0.24-3.85 0.35 9.95 0.24 30.66-0.11 20.72-0.22 37.76-0.25 37.88s-2.23 0.07-4.89-0.1c-4.26-0.28-4.67-0.2-3.46 0.69 0.75 0.55 2.04 1.02 2.85 1.05 0.82 0.02-0.1 0.57-2.03 1.22-2.05 0.69-3.09 1.35-2.5 1.59 1.09 0.44 1.31 1.76 0.44 2.64-0.3 0.3-0.54 1.46-0.54 2.59 0 1.82-0.26 2.05-2.25 2.05-1.7 0-2.07-0.22-1.53-0.9 0.93-1.17 1.55-5.61 0.79-5.61-1.27 0-2.56 5.03-3.03 11.77l-0.49 7.06 2.36 0.01c3.47 0.01 5.59 0.74 5.59 1.93 0 0.84-1.14 1.02-5.7 0.89-3.13-0.08-7.163-0.37-8.96-0.65-1.797-0.27-3.1-0.22-2.896 0.11 0.507 0.82 0.557 0.84-5.049-1.21-7.08-2.59-6.731-1.69 0.43 1.11 9.121 3.56 23.335 4.22 32.185 1.49 2.34-0.72 5.34-0.44 6.89 0.64 2.1 1.44 8.23 2.58 19.07 3.54 0.59 0.05 4.64-0.23 8.99-0.63zm-35.87-6.15c-0.23-0.59-0.1-1.08 0.28-1.08 0.39 0 0.7 0.49 0.7 1.08 0 0.6-0.13 1.09-0.28 1.09-0.16 0-0.47-0.49-0.7-1.09zm54.56-2.57c-0.69-1.11 0.25-1.83 1.17-0.9 0.52 0.52 0.53 0.92 0.04 1.23-0.4 0.25-0.95 0.1-1.21-0.33zm-54.97-13.18c0.04-1.97 0.15-2.12 0.67-0.9 0.85 2 0.85 3.25 0 3.25-0.4 0-0.7-1.05-0.67-2.35zm55.41-34.89c-0.04-0.76 0.13-1.19 0.37-0.95 0.24 0.25 0.27 0.87 0.06 1.39-0.23 0.58-0.4 0.41-0.43-0.44zm-53.24-4.34c-0.04-0.76 0.13-1.19 0.37-0.95s0.27 0.86 0.06 1.39c-0.23 0.57-0.4 0.4-0.43-0.44zm-8.23-32.65c-0.23-0.6-0.11-1.09 0.28-1.09 0.38 0 0.69 0.49 0.69 1.09 0 0.59-0.12 1.08-0.28 1.08-0.15 0-0.47-0.49-0.69-1.08zm1.69-9.78c0-0.4 0.33-0.73 0.72-0.73 0.4 0 0.72 0.33 0.72 0.73s-0.32 0.72-0.72 0.72c-0.39 0-0.72-0.32-0.72-0.72zm58.34-19.13c-0.03-0.77 0.14-1.19 0.38-0.95 0.23 0.24 0.26 0.86 0.05 1.38-0.23 0.58-0.4 0.41-0.43-0.43zm-57.62-8.07c0-0.62 0.33-0.93 0.72-0.69 0.4 0.25 0.72 0.76 0.72 1.13 0 0.38-0.32 0.69-0.72 0.69-0.39 0-0.72-0.51-0.72-1.13zm2.16-10.78c0-0.18 0.33-0.52 0.72-0.77 0.4-0.25 0.72-0.1 0.72 0.32s-0.32 0.77-0.72 0.77c-0.39 0-0.72-0.15-0.72-0.32zm1.5-6.5c-0.03-0.77 0.14-1.19 0.38-0.95 0.23 0.24 0.26 0.86 0.05 1.38-0.23 0.58-0.4 0.41-0.43-0.43zm56.34-30.84c0-4.98 0.11-7.02 0.25-4.53s0.14 6.56 0 9.05-0.25 0.45-0.25-4.52zm-0.22-30.73c-0.04-0.76 0.13-1.19 0.37-0.95s0.27 0.87 0.06 1.39c-0.23 0.58-0.4 0.41-0.43-0.44zm0.72-23.17c-0.04-0.77 0.13-1.19 0.37-0.95s0.27 0.86 0.06 1.39c-0.23 0.57-0.4 0.4-0.43-0.44zm30.87 228.84c3.37-1.06 2.57-1.46-1.34-0.67-1.24 0.25-2.25 0.74-2.25 1.09 0 0.78-0.28 0.81 3.59-0.42zm-46.63-1.61c-0.51-0.21-1.13-0.19-1.37 0.05s0.18 0.41 0.94 0.38c0.84-0.03 1.01-0.2 0.43-0.43zm7.54-1.86c-0.2-0.5-0.36-0.09-0.36 0.9 0 1 0.16 1.4 0.36 0.91 0.2-0.5 0.2-1.32 0-1.81zm-102.28 0.9c-0.244-0.4-0.992-0.72-1.661-0.71-1.049 0.01-1.068 0.11-0.138 0.71 1.409 0.92 2.362 0.92 1.799 0zm3.196-8.99c0.062-6.43-0.426-4.61-0.857 3.2-0.252 4.57-0.179 5.9 0.218 3.98 0.329-1.59 0.616-4.82 0.639-7.18zm2.56 8.99c0.244-0.4 0.121-0.72-0.275-0.72s-0.92 0.32-1.164 0.72c-0.245 0.4-0.121 0.73 0.275 0.73 0.395 0 0.919-0.33 1.164-0.73zm134.84-2.07c-0.03-1.05-0.47-4.68-0.98-8.07l-0.93-6.15-0.1 8.48c-0.08 7.27 0.06 8.43 0.99 8.07 0.6-0.23 1.05-1.25 1.02-2.33zm-131.96 1.35c0.244-0.4 0.12-0.73-0.275-0.73-0.396 0-0.92 0.33-1.164 0.73-0.245 0.4-0.121 0.72 0.274 0.72 0.396 0 0.92-0.32 1.165-0.72zm52.875-2.9c0-2.74-0.26-3.62-1.07-3.62-0.82 0-1.06 0.83-1 3.44 0.08 3.07 0.15 3.21 0.64 1.27l0.55-2.18 0.08 2.36c0.14 3.76 0.8 2.71 0.8-1.27zm59.72 2.46c0-0.16-0.49-0.29-1.08-0.29s-1.08 0.32-1.08 0.7c0 0.39 0.49 0.52 1.08 0.29s1.08-0.55 1.08-0.7zm-26.92-2.28c-0.78-0.79-1.32 0.47-0.76 1.78 0.54 1.24 0.58 1.24 0.88-0.02 0.17-0.73 0.12-1.52-0.12-1.76zm57.83-1.27c0-0.39-0.29-0.26-0.64 0.31-0.49 0.77-0.72 0.5-0.92-1.09-0.21-1.62-0.35-1.31-0.61 1.33-0.33 3.39-0.31 3.42 0.92 1.81 0.68-0.9 1.25-1.96 1.25-2.36zm-122.82-0.54c0.228-2.14 0.084-3.44-0.384-3.44-0.413 0-0.556 0.2-0.317 0.44 0.238 0.24 0.122 1.26-0.258 2.27-0.381 1-0.493 2.46-0.249 3.23 0.599 1.9 0.778 1.53 1.208-2.5zm-30.852 1.99c0.227-0.6 0.1-1.08-0.283-1.08s-0.697 0.48-0.697 1.08 0.127 1.09 0.283 1.09c0.155 0 0.469-0.49 0.697-1.09zm9.054-6.15l-0.429-6.88-0.126 5.91c-0.102 4.81 0.363 9.09 0.877 8.06 0.059-0.12-0.086-3.31-0.322-7.09zm135.01 4.54c-0.24-0.24-0.41 0.18-0.38 0.95 0.04 0.84 0.21 1.01 0.44 0.44 0.2-0.53 0.18-1.15-0.06-1.39zm-7.61-3.46c-0.45-3.58-0.57-3.84-0.64-1.45-0.07 2.7 0.55 6.48 1 6.01 0.11-0.12-0.05-2.17-0.36-4.56zm-27.61 0.17c-0.19-0.49-0.34 0.09-0.33 1.28 0.02 1.2 0.18 1.6 0.36 0.89 0.18-0.7 0.17-1.68-0.03-2.17zm-108.61-1.07c-0.181-0.7-0.329-0.13-0.329 1.26 0 1.4 0.148 1.97 0.329 1.27s0.181-1.84 0-2.53zm16.771 1.63c0-0.6-0.127-1.09-0.282-1.09-0.156 0-0.469 0.49-0.697 1.09-0.228 0.59-0.101 1.08 0.283 1.08 0.383 0 0.696-0.49 0.696-1.08zm126.4-2.36c-0.18-0.69-0.33-0.12-0.33 1.27s0.15 1.96 0.33 1.27c0.18-0.7 0.18-1.84 0-2.54zm-126.98 0.27c0.469 0.29 0.549-0.13 0.221-1.17-0.283-0.9-0.237-1.46 0.103-1.25 0.339 0.2 0.668-1.79 0.732-4.44l0.115-4.81-0.974 4.91c-0.535 2.7-1.151 5.63-1.367 6.52-0.217 0.88-0.208 1.19 0.02 0.69s0.745-0.7 1.15-0.45zm14.97-1.17c0-0.8-0.324-1.45-0.72-1.45-0.395 0-0.719 0.65-0.719 1.45 0 0.79 0.324 1.45 0.719 1.45 0.396 0 0.72-0.66 0.72-1.45zm-30.465-3.09c-0.197-0.49-0.347 0.08-0.332 1.28 0.015 1.19 0.176 1.59 0.358 0.89 0.183-0.71 0.171-1.68-0.026-2.17zm62.266-5.06c-0.26-5.55-0.28-5.61-2.18-5.57-1.91 0.05-1.91 0.05-0.25 0.72 1.24 0.5 1.64 1.19 1.54 2.67-0.29 4.46 0.13 10.65 0.63 9.24 0.28-0.8 0.4-3.97 0.26-7.06zm79.36 1.63c-0.29-2.44-0.66-4.29-0.84-4.11-0.18 0.19-0.11 2.34 0.17 4.78 0.27 2.45 0.65 4.29 0.84 4.11 0.18-0.19 0.11-2.34-0.17-4.78zm-110.32 0.75c0.15-1.59 0.053-2.65-0.216-2.36-0.709 0.76-1.291 6.01-0.62 5.59 0.31-0.19 0.686-1.65 0.836-3.23zm103.28-2.02c-0.17-1.09-0.3-0.2-0.3 1.99s0.13 3.09 0.3 1.99c0.16-1.09 0.16-2.88 0-3.98zm18.61-1.31c-0.61-0.45-1.6-1.76-2.2-2.92s-1.08-1.62-1.07-1.02 0.47 1.69 1.02 2.42c0.56 0.74 0.92 1.72 0.82 2.18-0.11 0.46-0.06 0.59 0.11 0.28 0.7-1.26 1.63 0.49 1.74 3.31l0.13 3.04 0.28-3.24c0.2-2.33-0.03-3.46-0.83-4.05zm-28.28 3.85c-0.8-7.06-0.8-7.07-3.51-7.07-1.4 0-2.35-0.29-2.12-0.66 0.44-0.72-4.28-0.67-5 0.05-0.36 0.37 5.52 1.4 7.91 1.4 1.05-0.01 1.69 2.04 1.75 5.55 0.03 1.7 0.32 3.08 0.64 3.08 0.33 0 0.48-1.06 0.33-2.35zm-120.58-1.81c-0.181-0.7-0.329-0.13-0.329 1.26 0 1.4 0.148 1.97 0.329 1.27s0.181-1.84 0-2.53zm128.72-1.44c-0.24-0.24-0.41 0.19-0.38 0.95 0.03 0.85 0.2 1.02 0.43 0.44 0.21-0.52 0.19-1.15-0.05-1.39zm-118.71-0.72c-0.239-0.24-0.409 0.19-0.378 0.95 0.034 0.84 0.205 1.01 0.435 0.44 0.207-0.53 0.182-1.15-0.057-1.39zm-9.353-2.17c-0.239-0.25-0.409 0.18-0.378 0.95 0.034 0.84 0.205 1.01 0.435 0.43 0.207-0.52 0.182-1.14-0.057-1.38zm26.752-0.3c-0.18-0.54-0.506-0.21-0.76 0.77-0.313 1.2-0.22 1.48 0.314 0.95 0.418-0.43 0.619-1.2 0.446-1.72zm31.525 0.3c-0.24-0.25-0.41 0.18-0.38 0.95 0.04 0.84 0.21 1.01 0.44 0.43 0.2-0.52 0.18-1.14-0.06-1.38zm-48.031-2.74c-0.067-1.79-0.403-3.26-0.745-3.26-0.343 0-0.475 1.23-0.295 2.72 0.181 1.49 0.352 2.96 0.38 3.26s0.216 0.54 0.417 0.54 0.311-1.46 0.243-3.26zm118.58 0.91c-0.2-0.5-0.36-0.09-0.36 0.9 0 1 0.16 1.41 0.36 0.91s0.2-1.31 0-1.81zm-90.56 0.57c0.68-0.69-7.36-0.39-8.47 0.31-0.698 0.44 0.5 0.58 3.51 0.38 2.51-0.16 4.75-0.47 4.96-0.69zm97.03-2.03c-0.2-0.49-0.35 0.08-0.33 1.28 0.01 1.19 0.17 1.59 0.36 0.89 0.18-0.7 0.17-1.68-0.03-2.17zm13.27-1.97c-0.44-2.04-0.8-4.91-0.8-6.38-0.01-1.48-0.33-3.17-0.71-3.77-0.96-1.49-0.95 0.28 0.03 6.46 1.09 6.85 1.43 8.25 1.87 7.8 0.22-0.22 0.04-2.07-0.39-4.11zm-134.54 1.54c0.487 0.77 0.624 0.71 0.633-0.28 0.006-0.7-0.475-1.27-1.068-1.27-0.594 0-1.054 0.57-1.023 1.27 0.04 0.88 0.175 0.97 0.447 0.28 0.329-0.84 0.487-0.84 1.011 0zm120.88-3.93c-0.59-0.59-0.8-0.51-0.8 0.3 0 1.44 0.96 2.42 1.32 1.34 0.15-0.46-0.08-1.2-0.52-1.64zm18.91 1.37c-0.73-1.93 5.35-3.28 20.03-4.43 14.87-1.17 21.88-2.69 25-5.42 0.92-0.8 1.94-1.45 2.28-1.45 0.33 0 0.61-0.32 0.61-0.71 0-0.38-0.54-0.49-1.2-0.23-0.89 0.34-1.05 0.2-0.6-0.57 0.35-0.61 0.32-0.78-0.07-0.42-0.36 0.33-0.65 0.95-0.65 1.39 0 1.18-6.15 4.24-8.81 4.39-1.29 0.07-2.34 0.41-2.34 0.75s-0.49 0.43-1.09 0.2-1.87-0.12-2.83 0.25c-1.01 0.39-2.65 0.41-3.91 0.04-1.5-0.43-2.26-0.36-2.47 0.22-0.23 0.63-0.66 0.64-1.67 0.04-1.04-0.62-1.58-0.58-2.28 0.18-0.61 0.65-2.66 0.99-6.11 0.99-2.85 0-6.44 0.35-7.98 0.78-2.18 0.61-2.93 0.58-3.37-0.15-0.32-0.51-0.38-1.24-0.15-1.62 0.24-0.39 0.04-0.45-0.46-0.14-0.48 0.3-0.71 0.98-0.51 1.51s-0.14 1.38-0.76 1.9c-1 0.84-1.08 0.62-0.68-1.94 0.44-2.79 0.72-11.3 0.54-16.1-0.05-1.29-0.39-2.35-0.75-2.35-0.72 0-1.09 22.07-0.39 23.21 0.63 1.04 1.06 0.82 0.62-0.32zm-40.58-0.44c1.32-0.86 0.18-0.86-1.8 0-0.94 0.41-1.07 0.64-0.36 0.66 0.6 0.02 1.57-0.27 2.16-0.66zm-24.46-1.45c-0.59-0.38-1.73-0.7-2.52-0.7-1.19 0-1.25 0.12-0.36 0.7 0.6 0.39 1.73 0.7 2.52 0.7 1.19 0 1.25-0.12 0.36-0.7zm-50.95-0.49c-0.51-0.21-1.14-0.19-1.37 0.05-0.24 0.25 0.18 0.42 0.94 0.38 0.84-0.03 1.01-0.2 0.43-0.43zm46.18-0.39c-0.19-0.31-4.3-0.5-9.12-0.42l-8.77 0.14 7.91 0.4c10.54 0.53 10.38 0.53 9.98-0.12zm-20.28-0.34c-0.51-0.21-1.13-0.18-1.37 0.06s0.18 0.41 0.94 0.38c0.84-0.03 1.01-0.21 0.43-0.44zm97.98-3.28c-0.62-1.01 1.58-1.38 3.61-0.6 1.08 0.41 1.79 0.47 1.58 0.12-0.22-0.35 0.82-0.21 2.29 0.3 2.46 0.85 2.73 0.81 3.21-0.45 0.28-0.76 0.7-1.39 0.94-1.39 0.23 0 0.24 0.31 0.01 0.68-0.5 0.81 6.45 0.28 8.16-0.62 0.64-0.34 2.83-0.84 4.87-1.12 3.13-0.42 3.79-0.78 4.16-2.25 0.49-1.98 1.48-2.3 2.1-0.67 0.51 1.32 1.9 1.45 1.9 0.17 0-0.5 0.63-1.23 1.4-1.63 6.42-3.26 7.95-4.19 7.95-4.76 0-0.36 0.49-0.66 1.08-0.66 2.36 0 0.29-4.11-2.64-5.24-0.61-0.24-2.41 0.32-4.02 1.24-6.74 3.85-14.48 5.51-28.41 6.09-9.66 0.4-10.61 0.33-10.61-0.78 0-0.67-0.33-1.43-0.73-1.68-0.41-0.25-0.55-0.76-0.32-1.13s0.08-0.67-0.32-0.67c-1.23 0-2.39 5.28-2.12 9.64 0.14 2.27-0.05 4.12-0.41 4.12s-0.49 0.17-0.28 0.38 1.25 0.05 2.32-0.36 1.76-0.44 1.54-0.08c-0.23 0.36 0 0.85 0.49 1.08 0.5 0.23 0.1 0.23-0.89 0.01-1.39-0.31-1.55-0.23-0.72 0.34 1.23 0.86 4.39 0.79 3.86-0.08zm7.85-1.01c0.23-0.24 0.86-0.26 1.37-0.05 0.58 0.23 0.41 0.4-0.43 0.43-0.76 0.04-1.18-0.13-0.94-0.38zm-10.27-4.57c0-1.4 0.19-1.6 0.86-0.93 0.48 0.48 1.95 0.87 3.28 0.87 3.3 0 2.31 1.23-1.26 1.57-2.66 0.26-2.88 0.14-2.88-1.51zm7.91 0.88c0-0.4 2.19-0.92 4.86-1.15 6.71-0.58 22.32-4.7 23.92-6.31 0.57-0.57 6.78-3.62 7.38-3.62 1.06 0 0.51 1.51-0.72 1.98-0.7 0.27-1.76 1.11-2.38 1.87-0.61 0.76-2.06 1.44-3.23 1.53-1.17 0.08-3.38 0.7-4.91 1.37-1.54 0.67-3.08 1.22-3.44 1.22s-2.64 0.67-5.06 1.49c-4.89 1.66-16.42 2.8-16.42 1.62zm-107.73 2.9c-0.88-0.17-2.5-0.18-3.59-0.01-1.1 0.16-0.37 0.31 1.6 0.31 1.98 0.01 2.88-0.13 1.99-0.3zm150.51-7.41c0.23-0.37 0.12-0.86-0.24-1.08-0.36-0.23-0.84 0.08-1.07 0.67-0.45 1.18 0.63 1.51 1.31 0.41zm-213.69-2.29c-0.232-0.37-0.105-1.74 0.284-3.02 0.389-1.29 0.901-5.48 1.139-9.32 0.413-6.67 0.366-6.99-1.088-7.37-0.837-0.22-1.306-0.75-1.045-1.18 0.261-0.42 0.092-0.77-0.375-0.77-0.644 0-0.649-0.24-0.021-1.01 0.626-0.76 0.619-1.46-0.028-2.89-0.471-1.04-1.139-1.89-1.485-1.89s-0.324 0.57 0.05 1.27c0.373 0.71 0.67 2.09 0.658 3.08-0.073 6.47 1.205 24.49 1.714 24.18 0.341-0.21 0.43-0.7 0.197-1.08zm-0.263-13.15c-0.032-1.89 0.202-3.44 0.518-3.44s0.454 1.22 0.307 2.72c-0.414 4.2-0.763 4.51-0.825 0.72zm-0.777-4.48c0-0.18 0.324-0.52 0.72-0.77s0.719-0.1 0.719 0.32-0.323 0.77-0.719 0.77-0.72-0.15-0.72-0.32zm74.099 18.24c0-0.3-3.41-0.54-7.59-0.54-5.18 0-7.45 0.24-7.13 0.77 0.54 0.87 14.72 0.65 14.72-0.23zm146.42-2.71c1.94-2 3.21-3.63 2.81-3.63s-1.98 1.3-3.52 2.88c-2.04 2.11-3.03 2.68-3.68 2.14-0.78-0.66-0.92 0.16-0.35 2.05 0.23 0.73 1.69-0.33 4.74-3.44zm-228 0.92c-0.239-0.24-0.409 0.18-0.378 0.95 0.035 0.84 0.205 1.01 0.435 0.43 0.208-0.52 0.182-1.14-0.057-1.38zm60.428 1.36c-0.2-0.33-2.57-0.66-5.26-0.74-3.47-0.09-4.57 0.08-3.8 0.6 1.3 0.88 9.59 1.01 9.06 0.14zm-60.428-4.26c-0.239-0.24-0.409 0.19-0.378 0.95 0.035 0.84 0.205 1.01 0.435 0.44 0.208-0.53 0.182-1.15-0.057-1.39zm182.14 0.03c-0.69-0.18-1.98-0.19-2.88-0.02-0.89 0.18-0.33 0.33 1.25 0.33 1.58 0.01 2.32-0.13 1.63-0.31zm6.47-0.73c-0.68-0.18-1.98-0.18-2.87-0.01-0.9 0.17-0.34 0.32 1.25 0.33 1.58 0.01 2.31-0.13 1.62-0.32zm30.83-1.47c-0.73-0.74-1.34 0.37-0.74 1.35 0.46 0.73 0.63 0.73 0.87 0 0.17-0.5 0.11-1.11-0.13-1.35zm-47.2 0.97c0-0.15-0.57-0.72-1.26-1.26-1.14-0.9-1.17-0.88-0.27 0.27 0.94 1.21 1.53 1.59 1.53 0.99zm21.58-0.48c0.79-0.54 0.5-0.6-1.08-0.25-2.64 0.6-3.22 1.01-1.38 1 0.76-0.01 1.87-0.34 2.46-0.75zm-193.82-1.94c-0.239-0.24-0.409 0.18-0.378 0.95 0.035 0.84 0.205 1.01 0.435 0.44 0.208-0.53 0.182-1.15-0.057-1.39zm197.42 0.53c0.59-0.39 0.75-0.71 0.36-0.71-0.4 0-1.21 0.32-1.8 0.71-0.59 0.38-0.76 0.7-0.36 0.7s1.21-0.32 1.8-0.7zm-35.55-7.06c-0.5-0.5-2.59 3.93-2.53 5.39 0.03 0.72 0.68-0.13 1.45-1.88s1.26-3.33 1.08-3.51zm31.58 5.22c2.33-0.61 5.55-1.71 7.16-2.43 3.39-1.53 10.2-7.07 9.94-8.08-0.1-0.38 0.18-0.61 0.61-0.51 1.38 0.32 5.5-6.49 7-11.57 5.29-17.92 7.89-53.26 5.88-79.87-1.23-16.27-3.32-30.85-5.03-35.13-2.65-6.61-4.18-8.9-9.54-14.35-5.02-5.09-6.83-6.41-11.69-8.51-5.45-2.36-6.19-2.49-14.08-2.49s-8.49 0.11-11.33 2c-1.65 1.1-3.81 3.23-4.8 4.74l-1.8 2.73-0.47 72.08c-0.27 39.65-0.28 72.9-0.03 73.91 0.59 2.37 4.33 6.28 7.21 7.54 3.16 1.38 15.6 1.35 20.97-0.06zm33.83-3.66c0-2.36-1.53-2.86-2.76-0.9-0.55 0.88-0.49 1.52 0.21 2.38 1.37 1.67 2.55 0.99 2.55-1.48zm-157.07-2.97c-0.52-0.21-1.14-0.18-1.38 0.06s0.19 0.41 0.94 0.38c0.84-0.03 1.01-0.21 0.44-0.44zm32.44-0.03c-1.67-0.15-4.58-0.15-6.47 0-1.9 0.14-0.53 0.27 3.03 0.27s5.11-0.12 3.44-0.27zm25.12-0.69c-0.52-0.21-1.14-0.18-1.38 0.06s0.18 0.41 0.94 0.38c0.84-0.04 1.01-0.21 0.44-0.44zm9.02-0.01c-0.7-0.18-1.67-0.17-2.16 0.03-0.48 0.2 0.09 0.35 1.27 0.33 1.19-0.01 1.59-0.17 0.89-0.36zm94.44-1.31c0-0.59-0.48-1.08-1.08-1.08-1.12 0-1.42 0.85-0.6 1.69 0.83 0.83 1.68 0.52 1.68-0.61zm-198.21-0.36c-0.791-0.34-2.47-0.64-3.73-0.67s-3.203-0.4-4.317-0.82c-1.341-0.51-1.778-0.52-1.293-0.03 0.894 0.92 5.684 2.09 8.621 2.12 1.832 0.02 1.941-0.07 0.719-0.6zm51.978 0.23c-0.69-0.19-1.82-0.19-2.51 0-0.7 0.18-0.13 0.33 1.25 0.33 1.39 0 1.96-0.15 1.26-0.33zm10.44-0.03c-1.69-0.16-4.44-0.16-6.12 0-1.68 0.15-0.31 0.27 3.06 0.27 3.36 0 4.74-0.12 3.06-0.27zm39.39-1c0-1.04-1.25-0.74-1.69 0.4-0.27 0.7-0.05 0.92 0.64 0.65 0.58-0.22 1.05-0.69 1.05-1.05zm-11.34 0.32c-0.49-0.2-1.3-0.2-1.79 0-0.5 0.2-0.09 0.37 0.89 0.37 0.99 0 1.4-0.17 0.9-0.37zm-86.511-0.53c0-0.15-0.502-0.48-1.116-0.71-0.641-0.25-0.929-0.13-0.677 0.28 0.422 0.69 1.793 1.02 1.793 0.43zm-36.977-3.14c-0.239-0.24-0.409 0.19-0.378 0.95 0.035 0.85 0.205 1.02 0.435 0.44 0.208-0.52 0.182-1.15-0.057-1.39zm59.418 0.76c-0.52-0.21-1.14-0.18-1.38 0.06s0.18 0.41 0.94 0.38c0.84-0.04 1.01-0.21 0.44-0.44zm-43.778-2c0.266-0.7 0.054-0.92-0.639-0.65-0.571 0.22-0.859 0.69-0.64 1.05 0.551 0.9 0.815 0.81 1.279-0.4zm147-1.31c-0.2-0.5-0.36-0.09-0.36 0.91 0 0.99 0.16 1.4 0.36 0.9s0.2-1.31 0-1.81zm-75.11-1.78c-0.88-0.17-2.5-0.17-3.6-0.01-1.09 0.17-0.37 0.31 1.61 0.32 1.98 0 2.88-0.13 1.99-0.31zm6.12 0.02c-0.69-0.18-1.99-0.19-2.88-0.02-0.9 0.18-0.33 0.32 1.25 0.33s2.31-0.13 1.63-0.31zm-70.341-2.04c-0.492-0.6-1.241-1.09-1.664-1.09s-0.14 0.48 0.628 1.07c1.804 1.37 2.157 1.38 1.036 0.02zm99.281-0.04c0-0.18-0.32-0.32-0.71-0.32-0.4 0-0.72 0.34-0.72 0.76 0 0.43 0.32 0.57 0.72 0.32 0.39-0.24 0.71-0.59 0.71-0.76zm111.45-27.84c1.67-13.05 1.51-10.19 1.84-32.23 0.25-17.24-0.69-32.71-2.54-41.78-0.47-2.27-0.88-5.57-0.94-7.35-0.05-1.78-0.29-3.11-0.54-2.96-0.24 0.15-0.65-1.02-0.9-2.61-0.26-1.59-0.76-2.88-1.12-2.88s-0.83-0.57-1.05-1.27c-0.21-0.7-0.23-0.29-0.04 0.9 5.18 32.94 5.05 67.74-0.41 108.85-0.39 2.91-0.68 6.49-0.65 7.97 0.11 4.99 4.83-14.83 6.35-26.64zm-132.17 27.75c-0.52-0.21-1.14-0.19-1.38 0.05s0.18 0.42 0.94 0.38c0.84-0.03 1.01-0.2 0.44-0.43zm-90.259-2.22c-1.962-2.07-4.377-9.56-3.674-11.4 0.215-0.57 0.125-1.45-0.201-1.97-0.819-1.3-0.93-3.48-1.224-23.93-0.141-9.86 0.019-17.93 0.356-17.93s0.547-15.73 0.465-34.95c-0.084-20.04-0.328-30.77-0.571-25.16-0.35 8.06-0.428 6.73-0.448-7.61-0.013-9.92 0.184-15.36 0.458-12.67 0.265 2.59 0.513-8.79 0.551-25.283 0.055-23.867 0.261-30.121 1.013-30.647 0.621-0.435 0.359-0.495-0.765-0.175-1.317 0.376-1.579 0.262-1.144-0.495 0.311-0.541 0.329-0.771 0.041-0.511-0.289 0.26-0.635 3.846-0.77 7.967-0.146 4.47-0.001 6.91 0.359 6.046 0.431-1.034 0.618-0.298 0.654 2.571 0.028 2.211-0.316 4.389-0.764 4.84-1.03 1.037-1.022 153.77 0.008 161.09 0.373 2.65 1.066 5.58 1.54 6.52 1.032 2.04 4.389 5.59 5.337 5.65 0.371 0.02-0.179-0.86-1.221-1.95zm-5.428-65.73c-0.015-1.2 0.134-1.77 0.331-1.28s0.209 1.47 0.027 2.17-0.344 0.3-0.358-0.89zm-0.084-5.01c-0.031-0.76 0.139-1.19 0.378-0.95s0.265 0.86 0.057 1.39c-0.23 0.57-0.4 0.4-0.435-0.44zm0.057-4.05c0-0.99 0.163-1.4 0.363-0.9s0.2 1.31 0 1.81-0.363 0.09-0.363-0.91zm-0.057-4.64c-0.031-0.77 0.139-1.19 0.378-0.95s0.265 0.86 0.057 1.38c-0.23 0.58-0.4 0.41-0.435-0.43zm0.057-11.29c0-1 0.163-1.4 0.363-0.9 0.2 0.49 0.2 1.31 0 1.81-0.2 0.49-0.363 0.09-0.363-0.91zm121.11 91.98c-0.24-0.4-0.83-0.72-1.3-0.71-0.51 0.01-0.43 0.29 0.22 0.71 1.38 0.9 1.63 0.9 1.08 0zm25.79-5.62c0.66-1.71 1.19-4.45 1.19-6.1 0-3.61-0.62-3.31-1.11 0.54-0.53 4.14-1.9 8.29-2.59 7.86-0.73-0.46-0.83 0.69-0.12 1.4 0.68 0.69 1.26-0.12 2.63-3.7zm9.13-4.06c-0.51-0.51-0.73 0.04-0.7 1.75 0.04 2.35 0.09 2.4 0.74 0.75 0.46-1.16 0.45-2.01-0.04-2.5zm-157.81-1.01c-0.18-0.69-0.32 0.05-0.313 1.64 0.008 1.59 0.156 2.16 0.328 1.26s0.165-2.21-0.015-2.9zm99.512 1.86c0-0.68 0.19-0.68 0.86 0 1.32 1.32 1.86 1.06 2.32-1.13 0.9-4.33 0.6-169.07-0.31-171.5-0.92-2.416-4.25-2.529-4.45-0.147-0.07 0.896-0.16 13.444-0.18 27.883-0.04 25.754-0.01 26.254 1.4 26.354 1.36 0.09 1.35 0.12-0.08 0.4s-1.51 0.75-1.55 9.13c-0.02 4.86-0.31 18.78-0.64 30.93s-0.6 33.01-0.61 46.35c0 21.01 0.16 24.57 1.17 26.56 0.65 1.25 1.01 3.13 0.82 4.16-0.21 1.11-0.03 1.88 0.45 1.88 0.44 0 0.8-0.4 0.8-0.87zm0.06-77.66c-0.04-0.76 0.13-1.19 0.37-0.95s0.27 0.87 0.06 1.39c-0.23 0.58-0.4 0.41-0.43-0.44zm56.57 72.18c-0.16-1.09-0.29-0.03-0.29 2.36s0.14 3.28 0.3 1.98 0.16-3.26-0.01-4.34zm-12.91-6.69c0-10.64-0.39-8.91-0.73 3.26-0.15 5.18-0.04 8.44 0.23 7.24 0.27-1.19 0.5-5.92 0.5-10.5zm-134.58 4.51c-0.165-1.09-0.296-0.02-0.291 2.37 0.004 2.39 0.138 3.28 0.298 1.98s0.157-3.26-0.007-4.35zm149.67-16.28c-0.13-4.08-0.23-0.74-0.23 7.42 0 8.17 0.1 11.51 0.23 7.43 0.13-4.09 0.13-10.77 0-14.85zm61.05 18.48c-0.24-0.24-0.41 0.19-0.37 0.95 0.03 0.85 0.2 1.02 0.43 0.44 0.21-0.52 0.18-1.15-0.06-1.39zm11.36 0.83c0.65-1.68 0.53-3.34-0.19-2.89-0.82 0.51-1.5 4.04-0.79 4.04 0.3 0 0.74-0.52 0.98-1.15zm-113.42-17.86c-0.14-2.49-0.26-0.45-0.26 4.53 0 4.97 0.12 7.01 0.26 4.52s0.14-6.56 0-9.05zm103.5 7.62c-0.24-0.24-0.41 0.19-0.37 0.95 0.03 0.84 0.2 1.01 0.43 0.44 0.21-0.53 0.18-1.15-0.06-1.39zm11.35-0.83c-0.25-1.27-0.61-2.16-0.79-1.98-0.19 0.18-0.11 1.36 0.16 2.61 0.65 2.97 1.23 2.39 0.63-0.63zm-223.51-5.72c-0.165-1.09-0.296-0.02-0.291 2.37 0.004 2.39 0.138 3.28 0.298 1.98s0.157-3.26-0.007-4.35zm149.68-64.35c0.4-30.73 0.33-40.57-0.3-40.33-0.62 0.24-0.84 9.44-0.86 35.22-0.02 19.19-0.18 43.36-0.37 53.72-0.33 18.61-0.33 18.68 0.33 5.43 0.37-7.37 0.91-31.69 1.2-54.04zm63.2 65.1c-0.24-0.24-0.41 0.19-0.38 0.95 0.04 0.85 0.21 1.02 0.44 0.44 0.21-0.52 0.18-1.15-0.06-1.39zm-77.6-10.13c-0.15-1.9-0.28-0.53-0.28 3.06 0 3.58 0.12 5.14 0.27 3.46s0.15-4.61 0.01-6.52zm-135.21 0.88c0.035-1.44 0.035-1.44-0.583 0-0.341 0.8-0.603 2.43-0.584 3.63l0.034 2.17 0.55-2.17c0.302-1.2 0.564-2.83 0.583-3.63zm213.57 2.36c-0.2-0.5-0.36-0.09-0.36 0.9 0 1 0.16 1.41 0.36 0.91s0.2-1.31 0-1.81zm0.76-10.49c-0.16-1.1-0.3-0.38-0.31 1.62 0 1.99 0.13 2.89 0.3 2s0.18-2.52 0.01-3.62zm-76.8-36.77c1.15-27.88 1.74-55.85 1.17-55.32-0.27 0.25-0.65 6.61-0.84 14.13-0.2 7.52-0.67 23.45-1.05 35.4s-0.83 27.1-1.01 33.67l-0.31 11.95 0.62-10.14c0.34-5.57 0.98-18.93 1.42-29.69zm-35.48 26.97c-0.19-0.5-0.34 0.08-0.33 1.28 0.02 1.19 0.18 1.59 0.36 0.89 0.18-0.71 0.17-1.68-0.03-2.17zm-102.11-17.37c-0.151-1.7-0.275-0.31-0.275 3.07 0 3.39 0.124 4.78 0.275 3.08 0.152-1.69 0.152-4.46 0-6.15zm231.14 6.74c0-0.38-0.32-0.88-0.72-1.13-0.39-0.25-0.72 0.06-0.72 0.68s0.33 1.13 0.72 1.13c0.4 0 0.72-0.31 0.72-0.68zm-16.75-10.72c-0.16-1.1-0.3-0.37-0.31 1.62 0 1.99 0.13 2.9 0.3 2 0.17-0.89 0.18-2.52 0.01-3.62zm-215.14-2.9c-0.181-0.7-0.329-0.13-0.329 1.26 0 1.4 0.148 1.97 0.329 1.27s0.181-1.84 0-2.53zm224.5-5.06c-0.17-1.1-0.31-0.38-0.31 1.62-0.01 1.99 0.13 2.89 0.3 2s0.17-2.52 0.01-3.62zm-175.19-0.38c-0.69-1.43-0.78-1.23-0.78 1.63 0 2.87 0.09 3.06 0.78 1.63 0.56-1.17 0.56-2.08 0-3.26zm-49.325 0.73c-0.2-0.5-0.363-0.09-0.363 0.9 0 1 0.163 1.41 0.363 0.91 0.199-0.5 0.199-1.31 0-1.81zm214.42-3.26c-0.18-0.7-0.33-0.13-0.33 1.27 0 1.39 0.15 1.96 0.33 1.26 0.18-0.69 0.18-1.83 0-2.53zm-214.38-3.26c-0.172-0.9-0.312-0.16-0.312 1.63s0.14 2.53 0.312 1.63c0.171-0.9 0.171-2.36 0-3.26zm224.49-2.13c-0.03-2.81 0.27-4.6 0.79-4.77 1.22-0.41 1.09-5.96-0.14-5.96-0.68 0-1.13 1.45-1.46 4.67-0.4 3.94 0.01 10.54 0.66 10.54 0.1 0 0.17-2.02 0.15-4.48zm-10.85-1.49c-0.2-0.5-0.36-0.09-0.36 0.9 0 1 0.16 1.41 0.36 0.91s0.2-1.31 0-1.81zm-213.46-28.79l-0.39-22.09-0.076 24.26c-0.042 13.35 0.133 23.29 0.389 22.09 0.257-1.19 0.291-12.11 0.077-24.26zm212.74 22.99c-0.19-0.49-0.36-0.09-0.36 0.91s0.17 1.4 0.36 0.9c0.2-0.49 0.2-1.31 0-1.81zm-164.07-5.41c-0.24-0.24-0.41 0.18-0.38 0.95 0.03 0.84 0.2 1.01 0.43 0.44 0.21-0.53 0.19-1.15-0.05-1.39zm175.39-3.96c-0.07-3.75-1.77-11.03-3.22-13.79-0.36-0.69-0.66-1.75-0.66-2.36 0-0.6-0.32-1.09-0.72-1.09-0.39 0-0.72-0.38-0.72-0.84s-0.81-1.9-1.8-3.21c-0.98-1.31-1.79-2.72-1.79-3.15 0-0.42-0.49-0.77-1.08-0.77-0.6 0-1.09-0.24-1.11-0.54-0.01-0.3-1.15-1.85-2.52-3.44-2-2.33-2.62-2.69-3.16-1.85-0.52 0.81-0.78 0.57-1.19-1.09-0.52-2.12-1.26-2.96-5-5.75-2.73-2.04-7.84-4.783-11.48-6.161-0.8-0.299-2.38-0.922-3.52-1.385-3-1.222-15.48-2.259-23.97-1.994-6.94 0.217-7.36 0.147-7.66-1.274-0.18-0.827-0.28 2.457-0.23 7.294l0.11 8.8 2.02-1.45c1.12-0.8 1.86-1.63 1.65-1.84-0.21-0.22-0.85 0-1.42 0.47-0.84 0.71-1.09 0.5-1.39-1.16-0.19-1.12-0.4-3.41-0.45-5.11-0.11-3.383 0.75-3.893 3.04-1.807 1.21 1.099 3.03 1.273 13.72 1.312 12.56 0.045 19.4 1.055 18.75 2.765-0.21 0.56 0.67 0.84 2.64 0.84 2.35 0 3.33 0.42 4.66 1.98 0.93 1.09 2.19 1.97 2.8 1.97 0.62 0 1.12 0.34 1.12 0.76 0 1.43 3.15 5.04 4.4 5.04 0.69 0 2.37 1.38 3.73 3.08 2.53 3.14 9.85 17.83 9.85 19.76 0 0.59 0.65 2.28 1.44 3.77 0.79 1.48 1.44 3.63 1.44 4.76 0 1.34 0.32 1.96 0.9 1.75 0.59-0.2 0.87-1.7 0.82-4.29zm-184.67-15.98c-0.18-0.89-0.32-0.16-0.32 1.63 0 1.8 0.14 2.53 0.32 1.63 0.17-0.89 0.17-2.36 0-3.26zm165.45-4.46c-0.45-0.96-1.07-1.59-1.37-1.41-0.31 0.19-0.55 0-0.55-0.42s-0.35-0.77-0.78-0.77c-0.79 0 2.2 4.24 3.05 4.31 0.26 0.02 0.1-0.75-0.35-1.71zm5.27-1.76c0-0.34-0.65-1.37-1.44-2.29-1.77-2.05-1.93-0.91-0.18 1.3 1.39 1.75 1.62 1.89 1.62 0.99zm-9.35-1.45c0-0.89-3.89-4.86-5.29-5.4-1.8-0.7-1.47-0.16 1.87 3.05 3.31 3.19 3.42 3.26 3.42 2.35zm-7.56-6.63c-0.24-0.4-0.83-0.72-1.3-0.71-0.51 0-0.43 0.29 0.22 0.71 1.39 0.9 1.63 0.9 1.08 0zm-4.31-2.9c-0.25-0.39-0.83-0.72-1.31-0.71-0.51 0.01-0.42 0.29 0.23 0.71 1.38 0.9 1.63 0.9 1.08 0zm6.48-3.43c-1.04-0.55-2.28-0.86-2.75-0.69s0.02 0.73 1.1 1.24c1.1 0.52 1.75 1.27 1.48 1.72-0.26 0.44 0.1 0.33 0.8-0.24 1.19-0.97 1.15-1.1-0.63-2.03zm-195.63-1.44c-0.239-0.24-0.409 0.19-0.378 0.95 0.034 0.84 0.205 1.02 0.435 0.44 0.207-0.52 0.182-1.15-0.057-1.39zm165.4 0.9c4.03-0.77 4.47-0.96 2.16-0.97-1.58-0.01-4.17 0.41-5.75 0.94-3.69 1.22-2.7 1.23 3.59 0.03zm18.33-2.57c-1.69-1.08-2.55-0.8-1.02 0.33 0.77 0.56 1.55 0.87 1.74 0.68 0.18-0.19-0.14-0.64-0.72-1.01zm5.06 0.03c0-0.4-0.46-0.73-1.02-0.73-0.57 0-1.61-0.22-2.32-0.5-1.16-0.45-1.18-0.37-0.24 0.7 1.16 1.31 3.58 1.67 3.58 0.53zm-28.42-0.73c-0.25-0.4-0.77-0.72-1.17-0.72-0.39 0-0.52 0.32-0.27 0.72 0.24 0.4 0.77 0.73 1.16 0.73 0.4 0 0.52-0.33 0.28-0.73zm2.88 0c0.24-0.4-0.06-0.72-0.68-0.72s-1.12 0.32-1.12 0.72 0.3 0.73 0.67 0.73c0.38 0 0.88-0.33 1.13-0.73zm10.07 0c-0.25-0.4-0.83-0.72-1.3-0.71-0.52 0-0.43 0.29 0.22 0.71 1.38 0.9 1.63 0.9 1.08 0zm6.97-1.22c-0.52-0.21-1.14-0.18-1.38 0.06s0.18 0.41 0.94 0.38c0.84-0.04 1.01-0.21 0.44-0.44zm-40.62-11.997c-0.14-2.091-0.26-0.38-0.26 3.802 0 4.183 0.12 5.894 0.26 3.803 0.15-2.092 0.15-5.514 0-7.605zm19.8 4.771c-0.5-0.201-1.31-0.201-1.8 0-0.5 0.201-0.09 0.365 0.9 0.365s1.39-0.164 0.9-0.365zm-6.14-5.858c-0.17-1.095-0.3-0.199-0.3 1.992s0.13 3.087 0.3 1.992c0.16-1.096 0.16-2.888 0-3.984zm2.08 2.188c-0.24-0.24-0.41 0.187-0.38 0.951 0.03 0.844 0.2 1.015 0.43 0.438 0.21-0.523 0.19-1.148-0.05-1.389zm-136.61-19.208c-0.145-2.091-0.264-0.38-0.264 3.803 0 4.182 0.119 5.893 0.264 3.802 0.146-2.091 0.146-5.514 0-7.605zm121.58-1.811c-0.17-1.095-0.3-0.199-0.3 1.992s0.13 3.087 0.3 1.992c0.16-1.096 0.16-2.888 0-3.984zm-6.52-1.1c-0.2-0.49-0.35 0.086-0.33 1.282 0.01 1.195 0.17 1.596 0.36 0.891 0.18-0.705 0.17-1.682-0.03-2.173zm-82.49-9.94c0-1.148-19.88-1.991-23.555-0.999-0.886 0.239-1.467 0.669-1.292 0.954 0.418 0.68 24.847 0.724 24.847 0.045zm41.37-0.005c-0.49-0.793 1.27-1.012 2.03-0.252 0.62 0.627 14.37 0.65 15.38 0.025 0.43-0.269 2.48-0.164 4.55 0.232 4.94 0.942 5.51 0.921 4.43-0.158-1.16-1.169-32.51-1.845-32.51-0.7 0 0.423 1.38 0.895 3.06 1.047 1.68 0.153 3.16 0.334 3.28 0.404s0.02-0.199-0.22-0.598z"/>
      <path id="path3190" d="m121.81 340.03c-17.26-0.57-25.465-1.18-34.533-2.54-3.957-0.59-8.004-1.2-8.993-1.35-8.456-1.26-14.013-3.5-17.865-7.17-4.104-3.92-5.359-6.43-4.874-9.74 0.213-1.46 0.573-38.66 0.8-82.68 0.431-83.55 1.485-163.17 2.232-168.76 0.571-4.261 3.278-8.929 6.211-10.71 2.798-1.698 7.827-2.889 14.215-3.367 12.304-0.92 74.697-1.223 94.967-0.461 28.33 1.065 30.25 1.203 36.68 2.646 2.98 0.666 5.77 1.264 6.2 1.329 1.92 0.284 4.81 2.921 5.79 5.276 0.59 1.41 1.18 4.888 1.31 7.729 0.14 2.841 0.28 5.572 0.32 6.069 0.11 1.594 5.38 6.889 7.91 7.956 1.38 0.58 6.9 1.311 12.59 1.668 6.04 0.378 12.03 1.193 14.82 2.014 9.02 2.657 18.02 8.118 25.8 15.651 17.47 16.92 22.02 33.69 22.91 84.43 0.35 20.38 0.01 26.89-2.66 50.34-2.05 18-7.2 31.52-15.66 41.14-4.89 5.56-12.29 11.37-18.39 14.44-9.17 4.63-13.27 5.61-26.44 6.34-12.49 0.69-14.7 1.17-18.39 4.01-1.23 0.95-2.45 1.58-2.7 1.39-0.24-0.18-0.29-0.12-0.11 0.13s-0.14 1.14-0.72 1.97c-0.71 1.02-1.05 3.37-1.05 7.11 0 14.02-3.17 18.18-16.19 21.29-4.6 1.1-26.47 3.41-29.27 3.1-0.92-0.11-3.77 0.05-6.35 0.35-6.39 0.74-31.98 0.95-48.56 0.4zm45.33-5.7c2.77-0.74 6.07-1.72 7.33-2.18 1.93-0.7 2.97-0.58 6.63 0.76 6.12 2.25 18.58 1.78 27.14-1.03 6.78-2.21 6.65-1.99 6.87-11.68l0.14-6.52 0.4 6.16c0.23 3.38 0.16 6.73-0.15 7.42-0.39 0.87-0.26 1.27 0.42 1.27 1.68 0 3.3-4.43 3.83-10.5 0.62-7.01 0.5-8.07-1.05-9.73-3.35-3.57-4.58-5.84-3.18-5.84 0.3 0 0.47-7.67 0.39-17.05-0.08-9.37 0.12-16.87 0.46-16.66s1.14-0.43 1.79-1.43c0.64-0.99 1.64-1.8 2.22-1.8 0.91 0 1.05-9.5 1.07-72.75 0.01-40.01 0.23-73.31 0.49-73.99 0.38-1 0.17-1.16-1.06-0.84-1.29 0.34-1.6 0.03-1.91-1.87-0.52-3.2-0.14-15.61 0.47-15.23 0.27 0.17 0.5-3.622 0.5-8.422s-0.23-8.583-0.52-8.408c-0.28 0.176-0.39-0.957-0.24-2.517 0.36-3.808 1.55-3.624 1.57 0.242 0 1.693 0.33 3.567 0.72 4.165 0.48 0.731 0.65-2.87 0.53-11.021-0.16-10.409-0.36-12.284-1.44-13.373-1.13-1.136-1.26-1.145-1.26-0.085 0 0.65 0.4 1.327 0.9 1.505 0.49 0.177 0.66 0.577 0.37 0.887-0.66 0.719-2.53-0.818-2.93-2.41-0.16-0.668-0.17-0.156-0.01 1.139 0.33 2.613-0.25 2.913-2.33 1.214-0.77-0.627-0.99-0.934-0.5-0.682 0.5 0.252 0.9 0.114 0.9-0.308s-0.95-0.767-2.12-0.767-3.99-0.489-6.27-1.087c-2.28-0.597-5.37-1.086-6.87-1.086s-2.73-0.326-2.73-0.724c0-0.399 1.03-0.725 2.28-0.725 1.26 0 2.15-0.125 1.98-0.277-0.65-0.604-31.27-2.667-38.97-2.626-0.69 0.003-1.91-0.035-2.7-0.085-3.68-0.235-44.63-0.044-53.6 0.249-10.93 0.358-14.984 0.923-17.362 2.421-1.736 1.093-2.798 0.563-1.654-0.825 0.577-0.7 0.411-0.825-0.702-0.532-2.361 0.621-3.292 2.19-2.134 3.595 0.886 1.074 0.769 1.154-1.171 0.793-1.185-0.221-3.612-0.948-5.393-1.616-3.176-1.191-7.04-1.184-10.734 0.018-1.45 0.473-1.662 0.364-1.275-0.653 0.381-0.998 0.227-1.091-0.847-0.513-1.229 0.662-1.33 2.573-1.602 30.255-0.384 39.009-0.034 143.96 0.503 150.86 0.505 6.5 2.48 11.54 5.366 13.68 2.69 2.01 2.656 1.63-0.225-2.49l-2.338-3.33-0.432-17.87c-0.574-23.73-0.735-160.63-0.192-163.63 0.316-1.753 0.817-2.371 1.963-2.425 1.47-0.069 1.464-0.093-0.122-0.543-2.932-0.831-2.046-1.913 1.748-2.135 3.203-0.188 3.735-0.022 4.069 1.266 0.212 0.816 0.092 1.665-0.266 1.888-0.359 0.224-0.657-0.346-0.663-1.266-0.009-1.352-0.147-1.464-0.72-0.586s-0.825 0.904-1.318 0.135c-1.093-1.703-1.458 8.934-1.153 33.543 0.24 19.403 0.851 101.86 1.046 141.23 0.039 7.8 0.151 8.55 1.099 7.29 1-1.34 1.057-1.29 1.057 0.9 0 2.55 1.355 3.15 1.947 0.87 0.206-0.79 0.661-1.26 1.011-1.04 0.36 0.22 0.452 9.55 0.213 21.54-0.233 11.62-0.369 24.28-0.303 28.13 0.141 8.22-0.675 15.11-1.446 12.2-0.776-2.92-1.638 6.96-1.295 14.86l0.299 6.87h-4.639l0.338-4.16c1.058-13.04 1.931-18.37 3.289-20.11 0.775-0.99 1.132-1.8 0.793-1.8-2.02 0-4.006 7.65-4.887 18.83-0.494 6.26-0.934 8.14-1.785 7.61-1.186-0.74-1.532-6.06-0.761-11.73 0.466-3.43 0.538-6.91 0.179-8.61-0.507-2.38-0.68-1.5-1.069 5.48-0.256 4.59-0.679 9.55-0.942 11.03-0.414 2.34-0.649 2.6-1.809 1.97-1.041-0.56-1.246-0.49-0.937 0.32 0.443 1.16 3.326 2.48 6.048 2.76 3.357 0.34 8.07-0.95 8.423-2.31 0.376-1.44 1.421-1.19 14.749 3.59 8.152 2.93 19.986 3.77 27.066 1.93 5.85-1.51 6.93-1.49 12.06 0.31 2.34 0.81 6.68 1.77 9.65 2.12 7.65 0.9 21.69 0.18 27.7-1.43zm25.54-2.22c0-0.5 0.61-0.69 1.47-0.46 0.81 0.21 2.45 0.1 3.64-0.25 1.6-0.46 2.1-0.39 1.89 0.24-0.38 1.17-7 1.61-7 0.47zm-27.31-1.59c-1.23-1.93-1.21-1.81-2.2-11.04-0.82-7.68-0.68-10.63 0.52-11.04 0.9-0.3 1.62 2.17 1.64 5.6 0.01 2.46 1.53 12.07 2.54 16.12 0.63 2.51-0.99 2.74-2.5 0.36zm35.81 0.73c-0.52-0.5-2.57-0.91-4.55-0.91h-3.59l-0.51-4.71c-0.28-2.59-0.93-7.96-1.44-11.95l-0.94-7.24-2.35-0.23c-1.29-0.12-2.16-0.53-1.93-0.9 0.24-0.4-1.44-0.68-3.99-0.68-4.17 0-4.4-0.09-4.16-1.63 0.13-0.9 0.64-1.55 1.13-1.45 0.48 0.1 0.88-0.14 0.88-0.54s-0.42-0.73-0.93-0.73c-0.7 0-0.91-1.79-0.87-7.35l0.06-7.35 5.78 0.15c3.18 0.08 7.77 0.56 10.19 1.07 2.42 0.5 4.25 0.67 4.07 0.37-0.49-0.8-7.14-2.1-10.74-2.1-1.74 0-3.39-0.37-3.67-0.83-0.38-0.62 0.94-0.7 5.11-0.32 3.1 0.28 5.98 0.58 6.41 0.65 0.52 0.1 0.75-2.7 0.71-8.55-0.06-6.77 0.16-8.86 0.96-9.45 0.74-0.55-1.13-0.71-6.62-0.55-4.21 0.11-8.42 0.35-9.36 0.52-1.08 0.2-1.87-0.09-2.13-0.78-0.75-1.96-0.45-19.53 0.31-18.35 0.62 0.97 0.7 0.97 0.76 0 0.04-0.6 0.21-0.74 0.39-0.31 0.21 0.5 1.74 0.59 4.44 0.25 4.79-0.6 6.78-1.27 7.56-2.57 0.72-1.21 2.88-0.38 2.38 0.91-0.75 1.97 1.72 0.96 2.8-1.14 1.19-2.32 1.49-3.96 0.4-2.23-0.37 0.59-0.78 0.91-0.92 0.73-0.14-0.19-0.01-5.23 0.27-11.21 0.29-5.98 0.72-17.06 0.96-24.63 0.24-7.56 0.61-17.83 0.82-22.81s0.36-9.54 0.33-10.14c-0.77-14.65-0.79-21.91-0.08-22.77 0.45-0.54 0.54-1.1 0.22-1.24-0.69-0.29 0.05-23.87 0.79-25.07 0.27-0.44 0.15-1-0.26-1.26-0.41-0.25-0.58-0.71-0.39-1.02 0.19-0.32 0.54-10.13 0.77-21.81 0.24-11.678 0.76-22.727 1.15-24.55 0.4-1.823 0.9-5.194 1.12-7.491 0.5-5.153 1.39-5.989 1.56-1.458 0.17 4.368 0.83 5.035 0.83 0.833v-3.232l2.98-0.018 2.98-0.017-0.39 8.017c-0.24 5.185-0.17 6.866 0.21 4.759 0.32-1.793 0.62-4.889 0.65-6.881 0.04-1.992 0.33-4.038 0.65-4.547 0.62-0.984 0.66-0.504 0.85 9.979 0.09 5.116 0.21 5.728 0.74 3.621 0.35-1.394 0.49-4.7 0.31-7.347-0.24-3.704-0.07-5.021 0.77-5.721 0.97-0.81 1.05 3.032 0.7 35.233-0.6 57.03-1.59 93.92-2.87 107.12-0.19 1.99-0.53 7.69-0.75 12.67-0.61 13.9-1.75 24.75-2.82 26.92-0.83 1.67-0.82 2.02 0.06 2.36 1.55 0.6 3.79-4.98 3.91-9.72 0.09-3.31 0.19-3.62 0.64-1.81 0.29 1.19 0.42 8.36 0.28 15.93s-0.42 27.11-0.63 43.42c-0.37 29.42-0.49 30.76-2.7 30.81-0.29 0-0.57-0.56-0.62-1.26-0.08-1.21-0.1-1.21-0.41 0-0.27 1.02-1.52 1.82-1.71 1.09-0.03-0.1-0.64-4.09-1.36-8.87l-1.32-8.7-0.07 8.1c-0.1 10.43-1.15 13.44-3.81 10.92zm-0.16-3.77c0.92-0.92 0.91-2.39-0.06-11.68-0.61-5.84-1.29-10.91-1.5-11.26-0.53-0.86-2.47-0.81-2.47 0.07 0 0.38 0.49 0.51 1.08 0.28 0.76-0.29 1.08 0.06 1.08 1.15 0 0.89-0.32 1.37-0.73 1.11-0.48-0.29-0.61 0.53-0.38 2.31 0.19 1.53 0.55 4.98 0.79 7.67s0.74 4.71 1.1 4.48c0.36-0.22 0.66 0.12 0.66 0.76 0 0.65-0.32 0.97-0.72 0.73-0.43-0.27-0.72 0.71-0.72 2.49 0 3.2 0.28 3.48 1.87 1.89zm7.96-2.75c-0.2-0.5-0.36-0.09-0.36 0.9 0 1 0.16 1.41 0.36 0.91s0.2-1.31 0-1.81zm-0.7-6.52c-0.98-11.76-2.11-19.03-3.44-22.19-1.06-2.5-1.32-2.8-1.04-1.17 1.84 10.71 3.98 25 3.98 26.62 0.01 1.09 0.22 1.99 0.47 1.99 0.26 0 0.27-2.36 0.03-5.25zm-3.62-9.43c-0.2-0.49-0.35 0.09-0.33 1.28 0.01 1.2 0.18 1.6 0.36 0.89 0.18-0.7 0.17-1.68-0.03-2.17zm-0.76-3.95c-0.23-0.25-0.4 0.18-0.37 0.95 0.03 0.84 0.2 1.01 0.43 0.43 0.21-0.52 0.18-1.14-0.06-1.38zm-19.48-4.58c0.31-0.49-0.24-0.58-1.57-0.26-2.76 0.67-3.02 1.02-0.77 1.02 1.04 0 2.09-0.34 2.34-0.76zm16.17-0.69c-0.42-0.8-0.93-1.45-1.13-1.45s-0.01 0.65 0.41 1.45c0.43 0.8 0.93 1.45 1.13 1.45s0.02-0.65-0.41-1.45zm-20-0.87c-0.67-0.68-1.05-0.68-1.73 0-0.67 0.68-0.48 0.87 0.87 0.87 1.34 0 1.53-0.19 0.86-0.87zm15.1-6.14c-0.52-0.21-1.14-0.19-1.38 0.05s0.19 0.41 0.95 0.38c0.83-0.03 1-0.2 0.43-0.43zm-3.81-2.12c-0.95-0.53-3.02-0.93-4.6-0.89-2.81 0.07-2.79 0.08 0.68 0.57 1.95 0.27 3.68 0.88 3.84 1.35 0.15 0.48 0.62 0.65 1.04 0.4 0.44-0.28 0.04-0.87-0.96-1.43zm-7.84-26.08c0-0.15-1.15-0.28-2.56-0.28-1.4 0-2.39 0.27-2.19 0.6 0.35 0.57 4.75 0.27 4.75-0.32zm9.39 0.06c1.17-0.6 2.13-1.42 2.13-1.81s0.56-0.73 1.25-0.75c1.07-0.05 1.05-0.14-0.18-0.64-1.79-0.72-2.57-0.31-2.05 1.07 0.3 0.77-0.12 1.07-1.51 1.07-1.05 0-1.73 0.29-1.51 0.66 0.22 0.36 0 0.83-0.5 1.03-0.49 0.2-0.64 0.39-0.32 0.42 0.31 0.03 1.53-0.44 2.69-1.05zm9.32 0.01c1.77-1.03 1.77-1.04-0.72-0.6-2.86 0.5-4.66 1.71-2.48 1.67 0.77-0.01 2.21-0.49 3.2-1.07zm-10.66-3.02c-0.52-0.21-1.14-0.18-1.38 0.06-0.23 0.24 0.19 0.41 0.95 0.38 0.84-0.03 1.01-0.21 0.43-0.44zm15.7-2.09c0-0.2-0.65-0.01-1.44 0.41-0.79 0.43-1.44 0.94-1.44 1.14s0.65 0.01 1.44-0.41c0.79-0.43 1.44-0.94 1.44-1.14zm-15.83-0.75c0-0.16-1.3-0.28-2.88-0.28s-2.88 0.25-2.88 0.56 1.3 0.44 2.88 0.28c1.58-0.15 2.88-0.4 2.88-0.56zm18.08-0.83c0.89-1.15 0.87-1.17-0.27-0.27-0.7 0.55-1.26 1.12-1.26 1.27 0 0.59 0.59 0.21 1.53-1zm-28.29-3.52c-0.64-0.65-1.52-0.95-1.95-0.68-1.43 0.88-0.83 1.85 1.16 1.85 1.8 0 1.86-0.09 0.79-1.17zm6.22-0.94c-0.38-0.37-2.63-0.85-5-1.08l-4.32-0.42 3.24 0.98c3.89 1.19 7.05 1.46 6.08 0.52zm19.29-6.12c-0.2-0.34-0.65-0.18-0.99 0.37-0.96 1.52-0.75 2.22 0.36 1.19 0.55-0.52 0.84-1.22 0.63-1.56zm-0.63-18.81c0.25-7.42 0.62-15.21 0.81-17.31 0.48-5.22 3.14-77.01 3.41-91.94 0.18-10.28 0.09-11.57-0.61-8.69-0.51 2.06-1.02 14.42-1.31 31.63-0.26 15.54-0.6 29.22-0.76 30.42-0.15 1.19-0.49 9.39-0.73 18.21-0.25 8.82-0.57 17.29-0.7 18.83-0.14 1.54-0.45 7.68-0.7 13.66-0.24 5.97-0.59 13.47-0.77 16.66-0.21 3.74-0.11 5.13 0.28 3.91 0.34-1.04 0.82-7.96 1.08-15.38zm4.53-57.53c-0.18-0.69-0.32 0.05-0.31 1.64 0 1.59 0.15 2.16 0.32 1.26 0.18-0.9 0.17-2.21-0.01-2.9zm-10-0.99c-0.18-0.55-0.51-0.22-0.76 0.76-0.31 1.21-0.22 1.49 0.31 0.95 0.42-0.42 0.62-1.19 0.45-1.71zm-0.13-4.05c-0.24-0.25-0.41 0.18-0.38 0.95 0.03 0.84 0.2 1.01 0.43 0.43 0.21-0.52 0.19-1.14-0.05-1.38zm0.28-5.63c0-3.71-1.11-3.63-1.27 0.08-0.08 1.97 0.14 3.07 0.57 2.81 0.38-0.25 0.7-1.55 0.7-2.89zm0.57-8.07c-0.21-1-0.39-0.82-0.69 0.7-0.27 1.32-0.17 1.8 0.28 1.34 0.38-0.38 0.57-1.3 0.41-2.04zm0.15-3.88c0-0.4-0.34-0.73-0.76-0.73s-0.56 0.33-0.32 0.73c0.25 0.4 0.59 0.72 0.76 0.72 0.18 0 0.32-0.32 0.32-0.72zm-0.16-6.52c-0.01-1.63-0.07-1.59-0.56 0.36-0.3 1.2-0.55 2.83-0.56 3.62-0.01 1.14 0.11 1.06 0.56-0.36 0.32-1 0.57-2.63 0.56-3.62zm-0.12-4.15c-0.24-0.24-0.41 0.19-0.38 0.95 0.03 0.84 0.2 1.01 0.43 0.44 0.21-0.53 0.19-1.15-0.05-1.39zm0.04-3.28c-0.2-0.49-0.36-0.09-0.36 0.91s0.16 1.4 0.36 0.91c0.2-0.5 0.2-1.32 0-1.82zm0.71-6.53c-0.19-0.49-0.34 0.09-0.33 1.28 0.02 1.2 0.18 1.6 0.36 0.9 0.18-0.71 0.17-1.69-0.03-2.18zm0.76-5.78c-0.17-0.89-0.31-0.16-0.31 1.63s0.14 2.53 0.31 1.63 0.17-2.36 0-3.26zm0.02-14.48c-0.15-1.7-0.28-0.31-0.28 3.07 0 3.39 0.13 4.78 0.28 3.08 0.15-1.69 0.15-4.46 0-6.15zm3.5-1.8c-0.24-0.24-0.41 0.19-0.38 0.95 0.04 0.85 0.21 1.02 0.44 0.44 0.21-0.52 0.18-1.15-0.06-1.39zm4.03-11.421c0.18-3.585 0.1-7.659-0.18-9.054-0.31-1.607-0.53 0.557-0.59 5.916-0.05 4.648-0.3 9.049-0.56 9.779-0.32 0.9-0.23 1.09 0.27 0.6 0.4-0.4 0.88-3.656 1.06-7.241zm2.48-6.351c-0.19-0.491-0.34 0.086-0.33 1.281 0.02 1.195 0.18 1.596 0.36 0.891 0.18-0.704 0.17-1.682-0.03-2.172zm-83.91 242.74c-1.01-0.41-1.46-0.93-1.04-1.22 0.4-0.28 0.8-1.16 0.87-1.96 0.55-5.78 1.42-11.18 1.5-9.27 0.12 2.96 1.34 3.76 1.73 1.14 0.17-1.1 0.3 1.17 0.29 5.06 0 7.4-0.09 7.56-3.35 6.25zm44.07-0.81c-0.62-0.78-1.56-6.25-1.71-9.97-0.03-0.6-0.23-1.58-0.45-2.17-0.69-1.84-1.01-3.85-1.15-7.19l-0.13-3.21-5.03-0.12c-2.77-0.06-8.21-0.17-12.09-0.23-3.89-0.07-6.9-0.39-6.7-0.71 0.2-0.33-0.55-0.46-1.68-0.29-1.98 0.29-20.21-1.8-20.79-2.39-0.75-0.75 0.74-2.53 2.21-2.62l1.64-0.1-1.62-0.31c-0.89-0.18-1.62-0.82-1.62-1.43 0-0.75 0.42-0.97 1.26-0.67 1.2 0.42 1.2 0.39 0-0.55-1.03-0.8-1.26-2.14-1.26-7.25v-6.26l4.5 0.37c2.47 0.2 7.08 0.49 10.25 0.65 3.16 0.16 6.08 0.38 6.47 0.48 0.4 0.1 1.29-0.06 1.98-0.37 0.69-0.3 1.83-0.33 2.52-0.05 0.69 0.27 6.39 0.45 12.65 0.4 8.2-0.06 11.26 0.14 10.9 0.72-0.27 0.44-0.95 0.63-1.5 0.42-0.55-0.22-1.01-0.1-1.01 0.26 0 0.35 0.51 0.75 1.13 0.88 0.99 0.2 1.12 2.61 1.06 20.05-0.05 14.18 0.17 20.11 0.77 20.84 0.47 0.56 0.68 1.19 0.49 1.39-0.2 0.19-0.69-0.06-1.09-0.57zm-11.71-24.14c0-0.17-1.7-0.27-3.78-0.21l-3.77 0.11 3.23 0.46c3.1 0.44 4.32 0.34 4.32-0.36zm6.48-0.03c0-0.16-0.67-0.29-1.49-0.29-0.81 0-1.29 0.31-1.05 0.7 0.38 0.62 2.54 0.27 2.54-0.41zm-35.84-4.4c-0.52-0.21-1.14-0.19-1.38 0.05s0.19 0.42 0.94 0.38c0.84-0.03 1.01-0.2 0.44-0.43zm30.98 0.01c-0.49-0.2-1.3-0.2-1.8 0-0.49 0.2-0.09 0.37 0.9 0.37s1.39-0.17 0.9-0.37zm-0.9-1.74c0.59-0.04-0.7-0.55-2.88-1.12-2.76-0.74-7.42-1.02-15.47-0.95-6.33 0.06-12.44 0.08-13.58 0.05-1.15-0.04-1.89 0.13-1.65 0.37s3.92 0.54 8.19 0.67c10.07 0.3 20.62 1.05 21.05 1.49 0.19 0.19 1 0.17 1.8-0.05 0.81-0.21 1.95-0.42 2.54-0.46zm-0.72-3.18c0-0.47-5.77-2.1-7.78-2.19-0.92-0.05-1.82 0.17-2.01 0.48-0.19 0.3 0.73 0.54 2.03 0.52 1.3-0.01 3.34 0.29 4.52 0.69 2.57 0.84 3.24 0.95 3.24 0.5zm-13.33-1.81c0.24-0.38 0.87-0.52 1.41-0.31s1.16 0.1 1.37-0.25c0.21-0.34-3-0.61-7.12-0.59-4.13 0.02-7.51-0.21-7.51-0.51s-1.75-0.54-3.9-0.54c-2.14 0-4-0.27-4.13-0.59-0.14-0.32-1.05-0.16-2.04 0.36-1.63 0.84-1.3 0.93 3.37 0.94 2.85 0.01 5.35 0.29 5.55 0.62 0.21 0.34 2.23 0.68 4.5 0.75s4.28 0.29 4.47 0.47c0.61 0.62 3.6 0.36 4.03-0.35zm17.78-4.15c-0.52-0.21-1.14-0.18-1.38 0.06s0.19 0.41 0.95 0.38c0.84-0.03 1.01-0.21 0.43-0.44zm-28.78-4.34c-0.51-0.21-1.14-0.19-1.37 0.05-0.24 0.25 0.18 0.42 0.94 0.39 0.84-0.04 1.01-0.21 0.43-0.44zm-51.304 42.31l-4.769-1.55 0.334-2.93c0.184-1.61 1.116-6.95 2.071-11.86 2.031-10.43 2.067-10.99 0.706-10.99-1.281 0-1.494 0.68-3.276 10.44-0.792 4.34-1.605 8.06-1.805 8.26-0.786 0.8-0.303-4.6 0.79-8.82 0.674-2.6 1.012-5.96 0.813-8.07-0.381-4.07 0.022-6.16 0.908-4.71 0.299 0.48 0.711 0.6 0.917 0.26s-0.099-1.06-0.678-1.6c-0.895-0.83-1.111-0.75-1.447 0.54-0.857 3.3-1.671 1.23-1.749-4.45-0.135-9.77 0.197-38.55 0.447-38.81 0.127-0.13 0.988 0.17 1.912 0.66 1.529 0.82 1.592 0.8 0.693-0.3-0.543-0.66-1.485-1.2-2.093-1.2-0.974 0-1.049-1.79-0.631-15.03 0.261-8.27 0.797-35.24 1.192-59.94 0.763-47.81 1.874-92.05 2.633-104.83 0.405-6.83 0.621-7.79 1.751-7.79 0.708 0 1.491-0.331 1.74-0.736 1.398-2.277 1.777 1.694 1.716 17.978-0.046 12.64-0.309 18.038-0.895 18.418-0.455 0.29-0.505 0.54-0.109 0.54 0.468 0.01 0.72 10.82 0.72 30.98 0 17.03 0.161 36.57 0.359 43.43 0.198 6.87 0.17 13.22-0.062 14.13-0.231 0.9-0.19 2.3 0.091 3.09 0.418 1.18 1.786 41.73 1.691 50.12-0.014 1.28 0.24 2.15 0.566 1.95s0.604 0.06 0.618 0.58 0.418 0.24 0.899-0.62c0.853-1.53 0.913-1.54 2.493-0.25 0.89 0.73 1.618 1.68 1.618 2.12 0 0.43 0.829 0.79 1.841 0.79 1.282 0 1.677-0.28 1.301-0.91-0.408-0.68-0.259-0.68 0.608 0.03 0.7 0.58 1.89 0.75 3.07 0.45 1.06-0.26 2.63-0.15 3.49 0.26s2.69 1.06 4.08 1.44l2.52 0.69-2.03 0.83c-1.11 0.45-3.54 0.87-5.39 0.91-1.86 0.05-4.35 0.36-5.53 0.7-1.514 0.42-0.543 0.53 3.23 0.35 2.97-0.13 4.83-0.1 4.14 0.09-1.75 0.46-1.57 1.49 0.36 2.04 3.38 0.95 5.58 2.01 5.58 2.66 0 0.38-0.57 0.63-1.26 0.56-2.36-0.24-2.42 0.04-0.4 1.82 1.11 0.99 1.59 1.8 1.08 1.81-0.52 0.02-0.75 0.35-0.5 0.75 0.27 0.44-0.85 0.73-2.88 0.73s-3.15 0.28-2.88 0.72c0.25 0.4 1.7 0.72 3.24 0.72s3.02 0.37 3.29 0.81c0.6 0.99-13.705 0.14-15.716-0.92-0.7-0.37-1.588-0.48-1.973-0.24-0.709 0.44-10.368-0.7-12.329-1.46-0.922-0.36-1.09 1.51-1.21 13.46-0.077 7.63-0.302 14.14-0.502 14.46-0.199 0.33-0.042 0.79 0.348 1.03 0.391 0.25 0.922-0.4 1.18-1.44 0.308-1.23 0.822-1.75 1.497-1.48 0.566 0.21 0.866 0.13 0.668-0.19-0.635-1.04 2.72-3.51 6.065-4.48 2.687-0.77 2.885 0.48 0.236 1.5-2.823 1.08-1.745 1.43 1.374 0.45 1.636-0.52 2.565-1.21 2.357-1.75-0.193-0.51 0.4-1.09 1.352-1.33 1.831-0.46 10.083-0.03 15.863 0.83 2.87 0.43 3.3 0.66 2.16 1.16-0.96 0.42-0.32 0.53 2 0.33 2.39-0.19 3.41-0.01 3.41 0.62 0 0.59-1.31 0.95-3.77 1.04-2.08 0.07-5.08 0.4-6.66 0.74-2.62 0.55-2.4 0.61 2.52 0.78 2.97 0.1 4.67 0.32 3.78 0.5-1.7 0.33-2.12 1.26-0.9 2.02 1.11 0.7 0.85 1.49-0.54 1.6-1.71 0.14-9.6 2.2-10.01 2.62-0.45 0.46 7.47-0.04 10.38-0.65 1.99-0.42 2.28-0.31 1.9 0.68-0.25 0.65-0.98 1.2-1.63 1.23-2.6 0.11-5.72 0.68-7.37 1.34-1.7 0.68-1.69 0.7 0.43 0.82 1.19 0.08 2.56 0.08 3.06 0.02 0.49-0.07 0.9 0.2 0.9 0.59s0.73 0.85 1.62 1.02 0.59 0.26-0.67 0.2-2.13 0.14-1.94 0.46c0.2 0.31 0.97 0.57 1.73 0.57 0.88 0 1.23 0.37 0.99 1.01-0.38 1-2.13 1.44-9.29 2.34-1.97 0.25-3.97 0.75-4.42 1.12-0.455 0.36-1.055 3.17-1.333 6.24-0.279 3.07-0.95 7.87-1.492 10.66l-0.985 5.07 0.325-5.8c0.178-3.18 0.466-6.48 0.639-7.32 0.299-1.46 0.643-7.25 0.502-8.46-0.037-0.31-0.518-0.15-1.07 0.36-0.552 0.52-0.884 1.14-0.738 1.38 0.147 0.25-0.372 4.32-1.152 9.06-0.781 4.73-1.42 9.5-1.421 10.6-0.003 2.43-0.787 2.47-7.289 0.35zm5.488-0.53c-0.792-0.35-2.087-0.63-2.878-0.63-1.439 0-1.439 0 0 0.63 0.791 0.34 2.086 0.62 2.878 0.62 1.439 0 1.439 0 0-0.62zm-2.518-30.83c0-0.17-0.324-0.32-0.72-0.32-0.395 0-0.719 0.35-0.719 0.77s0.324 0.56 0.719 0.32c0.396-0.25 0.72-0.59 0.72-0.77zm7.194-6.11c0-0.4-0.566-0.72-1.259-0.72-1.076 0.01-1.102 0.12-0.18 0.72 1.358 0.88 1.439 0.88 1.439 0zm3.598-6.42c0-0.34-0.81-0.47-1.799-0.28s-1.799 0.47-1.799 0.63c0 0.15 0.81 0.27 1.799 0.27s1.799-0.28 1.799-0.62zm4.852 0.12c-0.69-0.18-1.82-0.18-2.51 0-0.7 0.19-0.13 0.34 1.25 0.34 1.39 0 1.96-0.15 1.26-0.34zm-9.529-21.22c-0.244-0.4-0.992-0.72-1.661-0.72-1.049 0.01-1.068 0.11-0.138 0.72 1.409 0.91 2.362 0.91 1.799 0zm-10.792-2.9c-0.244-0.4-0.83-0.72-1.301-0.71-0.515 0-0.426 0.29 0.222 0.71 1.382 0.9 1.631 0.9 1.079 0zm5.396-7.52c0-0.15-0.566-0.72-1.259-1.27-1.141-0.9-1.166-0.87-0.272 0.28 0.94 1.2 1.531 1.59 1.531 0.99zm-3.162-21.98c-0.24-0.24-0.41 0.19-0.378 0.95 0.034 0.84 0.205 1.02 0.434 0.44 0.208-0.52 0.183-1.15-0.056-1.39zm0.041-4c-0.199-0.5-0.363-0.09-0.363 0.91 0 0.99 0.164 1.4 0.363 0.9 0.2-0.5 0.2-1.31 0-1.81zm-0.7-7.6c-0.181-0.7-0.329-0.13-0.329 1.26 0 1.4 0.148 1.97 0.329 1.27s0.181-1.84 0-2.53zm-0.719-139.79c-0.181-0.697-0.329-0.126-0.329 1.268s0.148 1.964 0.329 1.267 0.181-1.838 0-2.535zm0.185-4.784c-0.693-0.643-0.788-0.531-0.427 0.498 0.256 0.73 0.503 1.707 0.549 2.173 0.046 0.465 0.238 0.241 0.427-0.499 0.189-0.739-0.058-1.717-0.549-2.172zm1.477-5.622c0-0.398-0.323-0.523-0.719-0.277-0.396 0.247-0.72 0.774-0.72 1.172 0 0.399 0.324 0.523 0.72 0.277s0.719-0.774 0.719-1.172zm44.373 244.35c-0.42-0.68-0.67-3.48-0.57-6.31 0.13-3.3 1.65-1.16 1.98 2.76 0.24 2.95-0.56 4.96-1.41 3.55zm83.8-1.64c0-0.99 0.17-1.4 0.37-0.9 0.2 0.49 0.2 1.31 0 1.81-0.2 0.49-0.37 0.09-0.37-0.91zm1.44 0c0-0.99 0.17-1.4 0.37-0.9 0.2 0.49 0.2 1.31 0 1.81-0.2 0.49-0.37 0.09-0.37-0.91zm-136.75-4.65c-0.032-0.76 0.138-1.19 0.377-0.95s0.265 0.87 0.057 1.39c-0.229 0.58-0.4 0.41-0.434-0.44zm39.68-16.35c0-1.4 0.15-1.97 0.33-1.27s0.18 1.84 0 2.54c-0.18 0.69-0.33 0.12-0.33-1.27zm96.3-30.6c-0.01-4.09 0.31-9.71 0.72-12.5 0.41-2.78 1.19-25.27 1.74-49.97l0.98-44.91-0.34 34.77c-0.35 35.65-0.79 55.55-1.32 59.39-0.17 1.19-0.32 6.33-0.35 11.41-0.03 5.21-0.34 9.23-0.72 9.23-0.37 0-0.69-3.32-0.71-7.42zm-91.43 5.58c0-0.58 0.57-1.09 1.26-1.14 1.2-0.08 1.2-0.1 0-0.42-1-0.26-1.26-1.12-1.26-4.21 0-2.14 0.33-4.1 0.73-4.34 0.4-0.25 3.23-0.07 6.29 0.4 7.08 1.09 24.42 1 29.52-0.15 3.39-0.76 3.74-1 2.68-1.78-0.68-0.5-1.68-0.73-2.24-0.51-0.64 0.24-1.01-0.11-1.02-0.96-0.01-1.13-0.12-1.17-0.7-0.26-0.56 0.89-0.94 0.93-2.11 0.2-0.97-0.61-1.58-0.65-1.89-0.13-0.26 0.41-1 0.53-1.66 0.27-2.07-0.86-6.18-0.73-7.18 0.22-0.91 0.86-3.22 0.88-21.52 0.2-1.09-0.04-1.27-6.55-0.18-6.55 0.39 0 0.72 0.49 0.72 1.08 0 0.6 0.32 1.09 0.72 1.09 0.39 0 0.72-0.3 0.72-0.66s0.56-0.57 1.26-0.47c0.69 0.11 1.98-0.14 2.87-0.54 1.26-0.57 1.93-0.45 3.06 0.58 0.82 0.75 1.44 0.95 1.44 0.48 0-0.46 0.57-0.83 1.26-0.83 1.08 0.01 1.1 0.12 0.18 0.72-0.77 0.5 0.01 0.7 2.74 0.71 2.37 0.01 3.65-0.27 3.37-0.71-0.24-0.4-0.12-0.73 0.26-0.73 0.39 0 0.87 0.41 1.07 0.91 0.29 0.72 0.37 0.72 0.42 0 0.03-0.5 0.4-0.91 0.82-0.91 0.41 0 0.57 0.31 0.34 0.68-0.54 0.88 2.56 0.73 3.75-0.17 0.58-0.45 0.9-0.41 0.9 0.1 0 0.96 4.47 0.75 5.2-0.25 0.34-0.46 0.54-0.43 0.54 0.1 0.01 0.54 2.49 0.86 7.39 0.94 9.65 0.18 9.89 0.21 9.89 1.27 0 0.51-0.47 0.72-1.08 0.49-0.98-0.38-1.43 0.48-1.14 2.15 0.05 0.32-0.23 0.39-0.64 0.13-0.4-0.25-0.74-0.94-0.74-1.54s-0.32-0.88-0.73-0.63c-0.4 0.25-0.54 0.76-0.31 1.13 0.22 0.37 0.03 0.67-0.44 0.67-0.64 0-0.63 0.27 0.04 1.08 0.49 0.59 1.18 0.9 1.53 0.68s0.63 0.28 0.63 1.1c0 0.88-0.46 1.49-1.15 1.49-0.76 0-1.01 0.39-0.72 1.14 0.23 0.62 0.07 1.84-0.37 2.71-0.64 1.25-0.63 1.4 0.09 0.73 0.49-0.47 1.42-0.66 2.06-0.44 0.95 0.34 1.01 0.23 0.27-0.56-1.32-1.44-1.09-2.43 0.26-1.08 0.75 0.76 0.99 1.78 0.7 2.95-0.27 1.08-0.13 1.79 0.34 1.79 0.51 0 0.7-1.64 0.53-4.71-0.13-2.59 0.01-4.71 0.31-4.71 0.31 0 0.56 2.48 0.56 5.51 0 4.39-0.2 5.44-0.99 5.13-0.54-0.21-1.37 0-1.83 0.47-0.61 0.6-7.4 0.89-23.83 1-19.78 0.13-22.99 0.01-22.99-0.91zm34.53-0.74c-0.59-0.13-7.71-0.34-15.82-0.48-8.12-0.13-13.62-0.03-12.24 0.23 2.5 0.46 30.14 0.71 28.06 0.25zm-17.26-3.12c0-0.61-5.84-1.71-6.35-1.19-0.14 0.14 1.15 0.58 2.86 0.96 1.72 0.39 3.21 0.74 3.31 0.78 0.1 0.05 0.18-0.2 0.18-0.55zm-7.56-0.81c0.25-0.41-0.04-0.53-0.68-0.28-1.25 0.48-1.47 1-0.44 1 0.37 0 0.88-0.33 1.12-0.72zm33.46-7.97c0-0.4-0.89-0.7-1.98-0.66l-1.98 0.08 1.8 0.58c0.99 0.31 1.88 0.61 1.98 0.65s0.18-0.26 0.18-0.65zm-26.35 2.08c-0.89-0.35-0.19-0.55 2.07-0.58 1.87-0.03 3.41 0.07 3.41 0.22 0 0.6-4.2 0.87-5.48 0.36zm32.16-2.39c-0.03-0.76 0.14-1.19 0.38-0.95s0.26 0.87 0.05 1.39c-0.23 0.58-0.4 0.41-0.43-0.44zm-101.03-36.9c-0.298-1.14-0.371-2.25-0.164-2.46 0.58-0.58 1.288 1.75 0.98 3.23-0.202 0.96-0.416 0.76-0.816-0.77zm-0.272-74.33l0.076-11.23 0.402 9.42c0.221 5.18 0.187 10.23-0.076 11.22-0.263 1-0.444-3.24-0.402-9.41zm-0.919-16.62c0-1.17 0.324-2.33 0.72-2.57 0.428-0.27 0.719 0.59 0.719 2.13 0 1.41-0.324 2.57-0.719 2.57-0.396 0-0.72-0.96-0.72-2.13zm0.36-5.11c-0.245-0.4-0.102-0.72 0.317-0.72s0.762 0.32 0.762 0.72-0.143 0.72-0.317 0.72c-0.175 0-0.518-0.32-0.762-0.72zm-0.303-18.41c-0.031-0.76 0.139-1.19 0.378-0.95s0.265 0.87 0.057 1.39c-0.23 0.58-0.4 0.41-0.435-0.44zm-0.057-16.355c0-6.024 0.269-9.415 0.747-9.415 0.489 0 0.675 3.257 0.54 9.415-0.114 5.179-0.45 9.416-0.747 9.416s-0.54-4.237-0.54-9.416zm0-15.692c0-3.054 0.219-5.333 0.485-5.064 0.816 0.821 1.037 10.617 0.24 10.617-0.424 0-0.725-2.309-0.725-5.553zm17.987-9.657c0-0.398 0.323-0.724 0.719-0.724s0.72 0.326 0.72 0.724-0.324 0.724-0.72 0.724-0.719-0.326-0.719-0.724zm-29.004 257.28c-0.18-0.69-0.321 0.05-0.313 1.64 0.008 1.6 0.156 2.16 0.328 1.26s0.165-2.2-0.015-2.9zm-0.026-29.32c-0.031-19.87-0.084-21.21-0.266-6.76-0.129 10.28-0.529 18.42-0.928 18.9-0.385 0.47-0.47 1.08-0.187 1.37 0.282 0.28 0.413 2.94 0.29 5.9-0.126 3.05 0.071 5.4 0.453 5.4 0.409 0 0.661-9.79 0.638-24.81zm159.26 13.44c-0.48-2.71-0.88-8.84-0.91-13.62l-0.03-8.69-0.66 5.79c-0.76 6.81-0.28 16.41 0.99 19.71 1.35 3.51 1.58 2.3 0.61-3.19zm-152.73-6.56c-0.148-1.89-0.27-0.34-0.27 3.44s0.122 5.33 0.27 3.44 0.148-4.99 0-6.88zm159.51 7.12c0.23-0.36 0-0.8-0.49-0.98-3.63-1.31 8.11-3.55 25.05-4.78 16.52-1.2 27.14-6 37.45-16.93 5.33-5.65 10.64-14.89 12.8-22.26 3-10.27 5.83-33.91 6.59-55.06 0.76-20.89-1.97-56.8-5.16-68.08-2.78-9.79-9.39-20.89-16.72-28.07-3.81-3.73-13.79-11.442-13.79-10.657 0 0.219-0.72-0.274-1.59-1.096-0.88-0.822-2.03-1.327-2.56-1.123-0.53 0.205-0.76 0.05-0.52-0.344 0.4-0.653-0.75-0.996-3.06-0.912-0.49 0.018-0.75-0.202-0.57-0.488 0.31-0.512-5.07-2.39-9.36-3.265-1.2-0.245-6.71-0.742-12.23-1.103-5.52-0.362-11.01-0.838-12.2-1.059-4.06-0.756-4.29-0.119-4.55 12.213-0.15 7.264 0.05 11.684 0.56 12.524 0.74 1.22 0.78 1.21 0.59-0.08-0.16-1.09 0.76-1.71 4.48-3.05 12.08-4.33 26.77-0.21 39.49 11.1 4.58 4.08 8.2 9.68 7.48 11.58-0.25 0.64-0.15 0.99 0.21 0.76 0.37-0.23 0.71 0.29 0.78 1.15 0.06 0.86 0.92 4.19 1.91 7.4 2.17 7.02 3.78 19.71 4.88 38.46 0.9 15.49 0.11 35.75-1.99 50.77-0.66 4.67-1.2 10.06-1.2 11.96-0.01 2.26-0.24 3.14-0.67 2.53-0.41-0.58-0.51 0.08-0.27 1.81 0.21 1.52 0.09 2.56-0.26 2.34-0.55-0.34-1.48 2.7-1.55 5.07-0.01 0.4-0.31 0.9-0.65 1.11-0.71 0.44-3.03 5.77-2.52 5.77 0.19 0 0.88-1.15 1.54-2.56 0.67-1.41 1.33-2.44 1.47-2.3 0.46 0.46-2.61 6.31-3.32 6.31-0.37 0-1.06 0.73-1.54 1.63-0.81 1.53-0.78 1.57 0.52 0.57 0.76-0.59-0.12 0.39-1.95 2.17-5.68 5.53-8.63 8.08-9.51 8.22-0.46 0.08-1.74 0.74-2.84 1.48-1.1 0.73-2.22 1.11-2.48 0.85-0.27-0.27 0.23-0.68 1.1-0.91s1.59-0.74 1.59-1.14c0-0.39-0.41-0.53-0.9-0.32-7.02 3.12-10.86 4.28-16.03 4.87-7.06 0.81-11.16 0.45-13.66-1.2-1.14-0.75-2.45-1-3.64-0.7-1.21 0.31-1.7 0.21-1.4-0.28 0.25-0.42 0.29-0.76 0.08-0.76-1.84 0-3.49 21.56-1.95 25.53 0.78 2.01 1.82 2.55 2.56 1.33zm-166.5-41.7c0.414 0.26 0.684-0.55 0.65-1.95l-0.059-2.4-0.942 2.17c-1.212 2.8-1.455 8.89-1.073 26.8l0.31 14.49 0.203-19.77c0.131-12.73 0.456-19.62 0.911-19.34zm8.88 11.95c0.351-11.63 0.257-13.84-0.571-13.52-0.613 0.24-1.316-0.41-1.844-1.69-0.469-1.14-1.316-2.25-1.882-2.47-0.859-0.33-0.884-0.13-0.151 1.22 1.037 1.9 1.042 1.95 1.726 19.88 0.447 11.69 0.674 13.65 1.418 12.2 0.56-1.08 1.039-6.82 1.304-15.62zm150.57 4.29c-0.28-1.39-0.03-3.03 0.67-4.39 0.61-1.2 0.98-2.72 0.82-3.39-0.19-0.81-0.84-0.02-1.91 2.3-1.17 2.54-1.4 3.73-0.83 4.31 0.43 0.43 0.79 1.37 0.79 2.09s0.2 1.31 0.45 1.31 0.25-1.01 0.01-2.23zm3.41-3.48c-0.26-1.27-0.61-2.16-0.8-1.98-0.18 0.19-0.11 1.36 0.17 2.62 0.64 2.97 1.23 2.38 0.63-0.64zm31.02 0.91c10.36-2.66 19.34-11.1 23.49-22.1 4.64-12.31 7.89-50.39 6.39-75.08-1.47-24.38-3.67-37.49-7.53-44.87-2.69-5.15-8.95-12.19-13.88-15.62-7.64-5.32-21-7.49-28.42-4.61-5.04 1.96-8.87 6.64-9.41 11.53-0.24 2.09-0.44 21.25-0.45 42.56-0.02 21.31-0.25 52.49-0.51 69.28l-0.48 30.53 2.09 3.31c1.98 3.15 5 5.11 10.01 6.49 2.36 0.66 14.07-0.23 18.7-1.42zm10.14-2.56l1.37-1.56-1.97 1.28c-2.04 1.32-2.43 1.84-1.38 1.84 0.34 0 1.23-0.7 1.98-1.56zm-188.2-9.3c0-0.4-0.324-0.73-0.719-0.73-0.396 0-0.72 0.33-0.72 0.73s0.324 0.72 0.72 0.72c0.395 0 0.719-0.32 0.719-0.72zm-1.156-2.6c0.269-0.7 0.108-1.03-0.417-0.86-1.076 0.36-1.668 2.01-0.722 2.01 0.386 0 0.899-0.52 1.139-1.15zm-11.648-18.42c-0.476-2.8-0.926-8.26-0.999-12.13-0.09-4.78-0.225-5.77-0.42-3.07-0.488 6.79 0.59 21.98 1.495 21.07 0.573-0.57 0.552-2.19-0.076-5.87zm-1.069-112.78c-0.165-1.1-0.305-0.37-0.31 1.62-0.006 1.99 0.129 2.89 0.3 2s0.175-2.52 0.01-3.62zm214.29-2.3c-1.02-1.63-2.06-2.96-2.29-2.96-0.24 0 0.03 0.73 0.61 1.63 0.58 0.89 1.45 2.39 1.94 3.32s1.05 1.53 1.24 1.33c0.2-0.19-0.48-1.69-1.5-3.32zm-214.37-7.84c-0.239-0.24-0.409 0.19-0.377 0.95 0.034 0.85 0.205 1.02 0.434 0.44 0.208-0.52 0.183-1.15-0.057-1.39zm0.042-3.99c-0.199-0.5-0.363-0.1-0.363 0.9s0.164 1.4 0.363 0.91c0.2-0.5 0.2-1.32 0-1.81zm159.02-1.82c-0.18-0.7-0.32 0.04-0.31 1.63 0.01 1.6 0.15 2.16 0.33 1.26 0.17-0.9 0.16-2.2-0.02-2.89zm2.86-1.81c-0.2-0.49-0.36-0.09-0.36 0.91 0 0.99 0.16 1.4 0.36 0.9 0.2-0.49 0.2-1.31 0-1.81zm0.86-13.757c-0.06-6.474-0.25-10.817-0.42-9.652-0.24 1.594-0.48 1.863-0.96 1.087-0.5-0.787-0.65-0.634-0.66 0.64-0.01 1.075 0.28 1.489 0.81 1.16 0.59-0.364 0.68 0.075 0.32 1.515-0.48 1.911 0.19 17.017 0.75 17.017 0.15 0 0.22-5.29 0.16-11.767zm20.06 10.547c-0.7-0.19-1.68-0.18-2.16 0.02-0.49 0.2 0.08 0.35 1.27 0.34 1.19-0.02 1.59-0.18 0.89-0.36zm-22.34-6.57c-0.18-0.695-0.32 0.04-0.31 1.64 0.01 1.59 0.15 2.16 0.33 1.25 0.17-0.9 0.16-2.2-0.02-2.89zm-161.9-1.08c-0.199-0.498-0.363-0.091-0.363 0.91 0 0.99 0.164 1.4 0.363 0.9 0.2-0.5 0.2-1.312 0-1.81zm1.439-2.173c-0.199-0.498-0.363-0.091-0.363 0.905s0.164 1.404 0.363 0.906c0.2-0.498 0.2-1.313 0-1.811zm159.75-3.621c-0.17-0.897-0.31-0.163-0.31 1.629 0 1.793 0.14 2.526 0.31 1.63 0.18-0.897 0.18-2.363 0-3.259zm-161.17-1.087c-0.181-0.697-0.329-0.127-0.329 1.268 0 1.394 0.148 1.964 0.329 1.267s0.181-1.838 0-2.535zm2.097 1.464c-0.239-0.241-0.409 0.187-0.378 0.95 0.035 0.844 0.205 1.016 0.435 0.438 0.208-0.523 0.182-1.148-0.057-1.388zm0.086-7.62c-0.16-1.295-0.29-0.236-0.29 2.354 0 2.589 0.13 3.648 0.29 2.354 0.159-1.295 0.159-3.414 0-4.708zm-0.517-18.703l-0.764-1.758 0.37 1.811c0.204 0.996 0.443 5.07 0.532 9.053l0.162 7.243 0.231-7.296c0.131-4.115-0.101-8.062-0.531-9.053zm18.999-9.801c0.624-0.241 0.963-0.715 0.755-1.054-0.46-0.75-2.491-0.06-2.491 0.846 0 0.764 0.228 0.791 1.736 0.208zm9.776-2.864c0-0.175-0.324-0.319-0.72-0.319s-0.719 0.345-0.719 0.767 0.323 0.566 0.719 0.319c0.396-0.246 0.72-0.591 0.72-0.767zm-2.743-0.089c-0.52-0.21-1.14-0.184-1.379 0.057-0.239 0.24 0.186 0.412 0.944 0.38 0.838-0.035 1.009-0.206 0.435-0.437z" fill="#c7c7c7"/>
      <path id="path3259" opacity=".47598" transform="matrix(.48529 0 0 .67278 168.29 -354.41)" fill="url(#radialGradient3133)" d="m96.906 796.5a156.41 11.051 0 1 1 -312.82 0 156.41 11.051 0 1 1 312.82 0z"/>
      <path id="path3186" fill="url(#radialGradient3119)" d="m111.1 339.21c-13.416-0.77-30.274-2.73-31.361-3.64-0.432-0.36-0.95-0.49-1.152-0.28-0.522 0.52-10.139-1.6-13.35-2.95-1.484-0.62-3.778-2.17-5.098-3.45-4.878-4.71-4.684-2.7-4.179-43.21 0.251-20.13 0.622-64.14 0.824-97.8 0.575-95.86 1.286-121.53 3.487-125.81 1.892-3.686 4.907-5.647 10.98-7.144 5.374-1.325 8.703-1.398 62.509-1.361 58.02 0.04 67.72 0.401 78.73 2.932 3.95 0.907 5.99 1.826 7.83 3.522 2.42 2.226 2.5 2.495 2.93 9.127 0.53 8.099 2.08 11.258 6.94 14.121 2.73 1.612 4.37 1.923 13.06 2.48 5.47 0.35 11.48 0.985 13.36 1.412 3.6 0.816 13 4.403 12.6 4.805-0.13 0.129-3.6-0.916-7.72-2.321-6.61-2.255-8.6-2.6-16.89-2.933-5.16-0.207-10.94-0.818-12.83-1.357-4.02-1.146-5.41-0.785-6.33 1.636-0.88 2.334-0.83 22.001 0.06 23.391 0.6 0.94 0.69 0.93 0.7-0.1 0.01-0.66 0.52-1.39 1.13-1.62 0.7-0.27 0.94-0.14 0.63 0.35-0.34 0.57-0.07 0.57 0.96 0.02 0.79-0.43 4.47-0.99 8.18-1.25 8.26-0.59 13.57 0.41 20.26 3.8 2.69 1.36 5.25 2.25 5.69 1.97 0.52-0.32 0.59-0.16 0.21 0.46-0.43 0.71-0.26 0.84 0.65 0.49 0.69-0.27 1.05-0.18 0.81 0.2-0.5 0.82 3.79 4.11 4.93 3.77 0.45-0.13 0.58-0.01 0.3 0.28-0.29 0.28 0.58 1.8 1.92 3.38 3.54 4.17 7.42 12.01 8.98 18.15 4.73 18.6 5.98 60.76 2.58 86.81-3.45 26.44-7.11 34.71-18.77 42.36-9.66 6.34-13.57 7.69-23.4 8.08-5.94 0.23-8.84 0.06-10.06-0.59-0.94-0.51-2.78-1.17-4.08-1.47-2-0.45-2.5-0.29-3.2 1.02-1.3 2.45-1.68 22.97-0.45 24.59 0.99 1.32 3.46 1.07 3.46-0.34 0-0.38-0.32-0.49-0.71-0.24-0.42 0.26-0.51-0.07-0.22-0.83 0.3-0.79 0.59-0.94 0.77-0.39 0.16 0.48 0.63 0.65 1.06 0.39 0.45-0.28 0.56-0.14 0.25 0.36-0.28 0.46-0.17 0.83 0.25 0.83s0.76-0.32 0.76-0.71 1.22-1.23 2.7-1.85c3.03-1.28 16.36-1.82 19.97-0.82 1.68 0.47 1.92 0.42 1.08-0.22-0.86-0.66-0.64-0.74 1.08-0.4 2.45 0.48 12.22-2.66 19-6.11 5.54-2.81 13.47-9.26 17.96-14.62 4.25-5.05 4.86-4.96 1.12 0.17-3.59 4.92-11.01 11.59-16.88 15.16-10.07 6.12-19.84 8.68-33.2 8.68-7.62 0-12.45 1.16-15.3 3.68-1.29 1.14-2.59 1.84-2.88 1.55s-0.43-0.2-0.31 0.2-0.14 1.38-0.56 2.17c-0.43 0.8-0.95 4.89-1.15 9.1-0.57 11.7-2.63 14.64-12.66 18.02-4.3 1.44-13.8 2.66-29.25 3.73-14.03 0.98-56.03 1.36-68.71 0.62zm56.64-1.27c1.75-0.1 2.21-0.41 1.89-1.24-0.31-0.82-0.66-0.91-1.36-0.32-0.52 0.43-1.37 0.73-1.9 0.66-0.52-0.08-3.22-0.06-5.99 0.02-3.53 0.11-4.49 0.32-3.23 0.7 1.65 0.5 4.4 0.54 10.59 0.18zm-46.03-0.59c0.89-0.24 1.62-0.75 1.62-1.12 0-0.38-0.3-0.5-0.67-0.27s-0.87 0.09-1.12-0.32c-0.68-1.1-1.8-0.88-1.8 0.35 0 1.29-0.35 1.34-2.26 0.31-1.05-0.56-1.72-0.54-2.48 0.1-1.2 1-8.8 0.46-11.13-0.79-0.92-0.5-1.4-0.51-1.4-0.03 0 0.4 1.05 1.04 2.34 1.41 2.65 0.77 14.45 1.02 16.9 0.36zm10.06-0.05c-0.7-0.18-1.67-0.17-2.16 0.03-0.48 0.2 0.09 0.35 1.28 0.33 1.18-0.01 1.58-0.18 0.88-0.36zm44.07-0.77c0-0.29-0.31-1.01-0.67-1.6-0.58-0.92-0.98-0.9-3.05 0.15l-2.38 1.2 2.34-0.42c1.49-0.26 2.33-0.12 2.33 0.4 0 0.45 0.33 0.82 0.72 0.82 0.4 0 0.72-0.25 0.71-0.55zm-51.07-1.63c0-0.91-0.46-1.42-1.26-1.39-0.75 0.04-0.89 0.21-0.36 0.43 0.5 0.2 0.9 0.82 0.9 1.39 0 0.56 0.16 1.02 0.36 1.02s0.36-0.65 0.36-1.45zm40.83-0.09c1.88-0.44 5.06-1.39 7.08-2.09 3.53-1.25 3.79-1.25 7.55 0.06 6.15 2.14 18.19 1.93 25.94-0.45 3.31-1.01 6.42-1.88 6.92-1.93 0.49-0.04 0.89-0.51 0.89-1.03 0-0.51 0.43-0.77 0.95-0.57 2 0.77 3.5-2.39 4.37-9.24 0.98-7.73 0.9-12.5-0.34-19.47-1.15-6.51-0.49-25.2 1.05-29.46 1.31-3.65 0.31-4.07-1.72-0.73-1.54 2.55-1.9 5.61-0.65 5.61 0.47 0 0.61 0.79 0.35 2-0.24 1.09-0.5 3.54-0.58 5.43s-0.36 3.44-0.63 3.44c-0.75 0-0.61 9.28 0.2 13.61 0.39 2.1 1.17 4.71 1.73 5.79 1.31 2.51 1.29 3.11-0.05 2.59-0.59-0.23-1.08-0.73-1.08-1.12 0-0.38-0.43-1.13-0.97-1.67-0.75-0.76-0.98-4.67-1.01-17.48-0.06-17.79 0.17-19.1 3.78-21.75l1.84-1.35 0.22-74.08c0.12-40.75-0.02-74.23-0.3-74.41-0.75-0.47-0.12-7.6 0.77-8.67 0.41-0.51 0.59-2.18 0.4-3.71-0.63-4.963-1.2-15.064-0.84-14.697 0.2 0.196 0.72 4.051 1.17 8.568 0.64 6.429 0.62 9.219-0.1 12.839-0.65 3.33-0.69 4.85-0.13 5.42 0.57 0.56 0.79 0.31 0.81-0.92 0.03-1.77 0.69-18.111 1.1-27.219 0.22-4.758 0.15-5.068-0.73-3.365-0.53 1.031-0.75 2.218-0.5 2.636 0.28 0.445 0.12 0.546-0.36 0.244-0.57-0.354-0.83-4.016-0.83-11.653 0-11.766-0.56-14.757-2.89-15.369-0.78-0.207-1.46-0.745-1.5-1.197-0.04-0.451-0.3-0.006-0.57 0.99-0.28 0.996-0.73 1.729-1.01 1.629-0.28-0.099-1.12-0.181-1.87-0.181-0.82 0-1.52-0.664-1.78-1.686-0.23-0.928-1.25-2.068-2.27-2.535-2.92-1.34-3.85-0.985-1.1 0.42 3.67 1.882 3.85 3.423 0.31 2.716-1.53-0.307-4.73-0.82-7.11-1.14l-4.31-0.583 5.03 0.237c2.77 0.131 5.69 0.447 6.48 0.703 1.43 0.462-0.85-0.67-3.6-1.787-2.57-1.043-12.25-2.103-15.05-1.646-1.61 0.263-2.91 0.134-3.19-0.318-0.67-1.094-19.49-1.792-47.23-1.753-29.85 0.041-45.224 0.349-45.686 0.915-0.699 0.856-4.316 1.423-4.316 0.677 0-0.406 0.89-0.771 1.978-0.812 1.808-0.068 1.762-0.128-0.54-0.697-2.637-0.652-5.483-0.409-10.638 0.91-3.245 0.83-3.776 2.396-0.813 2.396 1.83 0 3.182 1.357 2.483 2.494-0.232 0.379-1.81 0.049-3.618-0.756-3.71-1.652-8.746-1.95-11.142-0.659-1.522 0.82-1.629 0.766-1.266-0.635 0.563-2.164-0.262-1.907-2.999 0.937-1.886 1.958-2.101 2.444-1.041 2.354 1.116-0.095 1.314 0.362 1.204 2.783-0.488 10.724-0.7 143.67-0.256 160.17 0.503 18.73 0.674 20.65 2.093 23.6 1.619 3.37 4.815 6.91 5.559 6.16 0.239-0.24-0.367-1.52-1.347-2.84-3.677-4.95-3.565-1.99-3.665-97.33-0.096-90.532-0.031-93.02 2.338-90.448 0.621 0.674 1.426 69.718 1.642 140.84 0.06 19.71 0.339 37.48 0.619 39.47 0.281 1.99 0.554 3.05 0.606 2.35 0.12-1.57 1.536-1.69 1.536-0.13 0 0.81 0.417 1 1.438 0.68 1.376-0.44 1.442-0.12 1.5 7.37 0.12 15.57-0.183 32.44-0.595 33.11-0.232 0.38-0.345 4.54-0.251 9.25 0.142 7.12-0.007 8.57-0.883 8.57-1.322 0-2.339 12.15-1.574 18.79l0.506 4.39h-3.96l0.494-8.51c0.63-10.87 1.324-14.34 3.288-16.44 1.432-1.54 1.557-2.3 1.323-8.11-0.142-3.53-0.544-7.04-0.895-7.8-0.424-0.93-0.386-1.23 0.116-0.92 0.492 0.31 0.873-1.72 1.102-5.86 0.353-6.38 0.121-8.32-0.643-5.38-0.228 0.87-0.72 1.59-1.093 1.59s-0.523 0.26-0.333 0.56c0.189 0.31 0.084 1.7-0.234 3.08l-0.577 2.52-0.593-2.54-0.594-2.53-0.485 2.17c-0.782 3.51-0.737 6.3 0.094 5.78 0.412-0.26 0.539-1.13 0.283-1.95-0.33-1.04-0.213-1.32 0.398-0.94 0.475 0.3 0.715 1.33 0.533 2.28-0.182 0.96-0.051 1.92 0.292 2.14 1.341 0.83 0.587 1.78-0.816 1.02-1.292-0.69-1.439-0.55-1.439 1.42 0 1.21-0.265 2.2-0.59 2.2-0.324 0-0.435-5.78-0.247-12.85 0.189-7.07 0.358-14.08 0.376-15.56 0.031-2.64 0.071-2.68 1.66-1.63 1.81 1.19 2.455 1.34 2.284 0.53-0.179-0.85 1.007-3.39 1.861-3.97 0.435-0.3 0.066-0.54-0.847-0.55-0.974 0-1.619 0.43-1.619 1.09 0 0.92-0.494 0.85-2.96-0.42-1.628-0.83-3.115-2.11-3.304-2.84s-0.953-1.49-1.698-1.68c-1.241-0.33-1.273-0.2-0.391 1.56 1.978 3.94 2.012 56.13 0.045 68.01-0.494 2.99-1.228 3.81-2.109 2.38-0.237-0.39-0.595-15.79-0.796-34.22-0.201-18.44-0.53-34.31-0.731-35.26-0.35-1.66-0.407-1.67-1.32-0.36-1.509 2.17-1.632 6.79-0.993 37.22 0.602 28.65 0.76 31.84 1.647 33.29 1.066 1.73 5.841 3.48 9.013 3.3 4.954-0.28 4.937-0.28 6.554-1.9 1.178-1.19 1.864-1.38 3.058-0.85 3.436 1.5 15.418 5.44 18.447 6.05 6.727 1.36 14.517 1.27 21.017-0.25l6.27-1.47 4.82 1.64c2.65 0.91 7.12 1.91 9.92 2.24 6.34 0.73 22.29 0.23 26.86-0.86zm0.66-4.01c-0.26-0.26-0.48-0.82-0.48-1.23 0-0.45 0.34-0.41 0.85 0.11 0.47 0.47 0.69 1.02 0.48 1.23-0.2 0.21-0.59 0.16-0.85-0.11zm26.57-3.38c-0.68-5.73-2.09-16.78-2.28-17.86-0.11-0.6-0.22-1.66-0.25-2.36-0.04-0.96-0.68-1.27-2.62-1.27-1.52 0-2.38-0.29-2.11-0.72 0.27-0.45-1.08-0.72-3.56-0.72-3.44 0-4-0.2-4-1.37 0-1.06 0.72-1.48 3.24-1.86 2.15-0.32 3.24-0.84 3.24-1.55 0-0.83-0.31-0.9-1.39-0.32-0.77 0.41-1.82 0.73-2.34 0.7-0.52-0.02-0.22-0.34 0.67-0.7s1.62-0.99 1.62-1.4 0.66-0.75 1.48-0.75c0.94 0 1.29 0.31 0.97 0.84-0.33 0.54-0.2 0.64 0.38 0.28 0.93-0.58 4.36 0.87 4.36 1.84 0 0.29-1.37 0.77-3.06 1.04-4.29 0.72-6.09 1.96-2.14 1.48 3.61-0.43 5.92-1.54 5.92-2.83 0-1.32-4.68-3.4-8.76-3.88-3.68-0.44-4.54 0.12-1.85 1.21 1.56 0.63 1.54 0.66-0.36 0.7l-1.98 0.05v-12l7.34 0.21c15.56 0.46 17.58 2.47 19.95 19.75 0.47 3.39 1.17 8.24 1.56 10.77 0.62 3.99 0.49 6.14-0.3 5.11-0.13-0.17-0.8-4.2-1.49-8.96-1.12-7.72-1.52-9.03-3.72-12.05-2.71-3.71-4.82-5.34-8.84-6.83l-2.63-0.97 3.1 0.07c2.25 0.05 3.39 0.47 4.12 1.53 1.6 2.3 1.88 1.03 0.34-1.52-1.6-2.66-4.01-3.44-12.59-4.11l-5.76-0.45 3.13 1.82c1.72 1.01 3.62 1.83 4.21 1.83s1.93 0.47 2.98 1.05 3.11 1.58 4.58 2.24c3.73 1.67 8.22 6.81 9.25 10.59 1.14 4.22 1.32 22.46 0.21 22.85-0.89 0.3-2.05-5.5-2.76-13.91-0.88-10.45-1.06-11.23-2.65-11.23-1.11 0-1.36 0.31-0.99 1.27 0.58 1.5 2.14 24 1.7 24.45-0.17 0.17-1.49 0.45-2.93 0.63-2.61 0.33-2.63 0.31-2.99-2.69zm4.4-5.01c-0.18-0.9-0.32-0.16-0.32 1.63s0.14 2.53 0.32 1.63c0.17-0.9 0.17-2.36 0-3.26zm-0.74-6.89c-0.18-0.69-0.32 0.05-0.31 1.64s0.15 2.16 0.33 1.26c0.17-0.9 0.16-2.21-0.02-2.9zm-0.74-5.44c-0.2-0.49-0.35 0.09-0.33 1.29 0.01 1.19 0.17 1.59 0.36 0.89 0.18-0.71 0.17-1.68-0.03-2.18zm-0.34-6.48c-0.52-0.52-0.85-0.56-0.85-0.1 0 0.96 0.85 1.82 1.33 1.34 0.2-0.21-0.01-0.76-0.48-1.24zm6.5-6.49c-0.45-0.45-0.55 0.02-0.28 1.35 0.3 1.51 0.49 1.69 0.7 0.7 0.15-0.74-0.04-1.66-0.42-2.05zm-1.6 31.64c0-0.6 0.33-1.09 0.72-1.09 0.4 0 0.72 0.49 0.72 1.09s-0.32 1.09-0.72 1.09c-0.39 0-0.72-0.49-0.72-1.09zm10.8-0.36c0-0.45-0.3-0.63-0.67-0.4-1.06 0.66-1.34-0.33-1.84-6.5-0.26-3.18-0.96-9.36-1.56-13.75-0.59-4.38-1.23-15.95-1.43-25.71-0.19-9.76-0.6-18-0.91-18.31-0.31-0.32-1.99-0.22-3.73 0.22-5.99 1.52-8.53 1.96-8.94 1.55-0.22-0.23-1.68-0.44-3.25-0.48-1.64-0.05-2.46 0.17-1.95 0.5 0.49 0.31-1.11 0.57-3.56 0.58-2.45 0-4.64-0.29-4.86-0.65s0.17-0.52 0.86-0.35 2.23 0 3.42-0.37c2.02-0.63 1.95-0.67-1.26-0.73l-3.42-0.06v-8.01c0-5.16 0.26-7.85 0.72-7.57 0.4 0.25 0.72 0.88 0.72 1.4 0 1.14 5.97 0.85 6.35-0.3 0.14-0.4 1.17-0.73 2.3-0.73 1.25 0 2.46-0.58 3.08-1.47 0.88-1.27 1.13-1.32 1.9-0.39 0.49 0.59 0.67 1.41 0.42 1.83-0.59 0.96-0.16 0.95 2.08-0.08 1-0.46 1.63-1.13 1.4-1.5s0.41-2.52 1.41-4.78c2.7-6.11 2.99-12.1 3.5-70.92 0.19-21.66 0.38-25.58 1.28-25.93 0.87-0.34 0.89-0.52 0.09-1.01-0.8-0.5-0.84-3.12-0.23-14.99 0.4-7.92 0.76-22.38 0.81-32.135 0.04-9.76 0.43-19.959 0.86-22.665 0.44-2.706 0.6-5.685 0.37-6.621-0.38-1.517-0.14-1.734 2.19-2.009l2.62-0.308-0.5 19.604c-0.37 14.373-0.29 19.394 0.29 18.804 0.51-0.51 0.9-5.578 1.07-13.765 0.46-22.661 0.37-21.147 1.18-19.114 1.63 4.06-0.2 33.699-2.26 36.579-0.28 0.39-0.72 13.11-0.98 28.24-0.7 41.79-3.58 107.66-4.85 111.05-0.4 1.07-0.43 1.61-0.06 1.21 1.77-1.92 2.44-6.71 2.77-19.91 0.39-15.5 1.03-19.47 1.7-10.5 0.23 3.18 0.24 6.12 0.03 6.51-0.22 0.4-0.44 4.31-0.5 8.7-0.09 7.03-0.71 11.33-2.23 15.43-0.4 1.08-0.31 1.1 0.78 0.21 0.68-0.56 1.11-1.37 0.96-1.81s0.15-2.01 0.66-3.5c0.51-1.48 0.85-4.17 0.74-5.97-0.12-2 0.12-3.28 0.59-3.28 1.11 0 0.17 12.27-1.1 14.31-0.73 1.19-0.78 1.8-0.17 2.41 1.75 1.76 3.52-1.22 4.57-7.67 0.35-2.13 0.47 4.27 0.29 15.58-0.17 10.55-0.35 30.52-0.4 44.37-0.06 13.86-0.39 25.36-0.73 25.58-0.34 0.21-0.62 0.02-0.62-0.42zm-16.91-64.46c0.24-0.4 1.02-0.73 1.72-0.73 1.84 0 1.58-2.13-0.32-2.61-0.87-0.22-3.81 0.11-6.53 0.73l-4.94 1.13 4.85-0.32c3.04-0.2 4.86-0.04 4.86 0.42 0 0.4-0.32 0.54-0.72 0.29-0.95-0.59-2.3 0.28-1.77 1.14 0.55 0.89 2.29 0.86 2.85-0.05zm7.55-2.54c2.35-1.35 1.53-1.37-1.53-0.03-1.33 0.59-1.94 1.06-1.34 1.06 0.59 0.01 1.88-0.46 2.87-1.03zm4.83-1.23c2.4-1.05 4.02-2.58 5.22-4.97 0.58-1.15 0.11-0.84-1.34 0.89-1.25 1.48-3.2 2.88-4.4 3.14-1.18 0.26-2.15 0.78-2.15 1.14 0 0.86 0.25 0.84 2.67-0.2zm-15.34-1.37c1.53-0.43 3.47-1.45 4.31-2.27 1.46-1.44 1.47-1.48 0.09-0.98-3 1.09-9.36 2.59-10.94 2.59-0.91 0-1.65 0.33-1.65 0.73 0 0.95 4.67 0.91 8.19-0.07zm-8.21-4.05c0.18-0.17-0.14-0.64-0.72-1.06-0.8-0.56-0.62-0.63 0.74-0.29 3.27 0.84 5.06 0.93 5.45 0.3 0.59-0.95-2.98-2.08-6.58-2.08-2.86 0-3.19 0.18-3.19 1.69 0 0.93 0.22 1.91 0.49 2.18 0.45 0.46 3.05-0.04 3.81-0.74zm9.37-0.23c0.59-0.39 0.76-0.7 0.36-0.7s-1.2 0.31-1.8 0.7c-0.59 0.39-0.75 0.7-0.36 0.7 0.4 0 1.21-0.31 1.8-0.7zm9.04-1.87c1.27-1.05 1.28-1.11 0.08-0.72-0.73 0.23-1.62 0.42-1.98 0.42-0.37 0-0.66 0.32-0.66 0.72 0 1.05 0.96 0.89 2.56-0.42zm-0.74-3.1c-0.23-0.75-0.12-2.16 0.26-3.15 0.37-0.99 0.85-4.54 1.06-7.89l0.38-6.08-0.69 5.07c-0.38 2.79-1.16 6.48-1.74 8.21-0.82 2.47-0.86 3.34-0.17 4.13 1.19 1.37 1.41 1.3 0.9-0.29zm-9.56 0.15c-0.49-0.21-1.3-0.21-1.8 0-0.49 0.2-0.09 0.36 0.9 0.36s1.4-0.16 0.9-0.36zm11.86-28.34c-0.15-1.88-0.27-0.16-0.26 3.83 0 3.98 0.12 5.52 0.26 3.41 0.15-2.1 0.15-5.36 0-7.24zm1.65-43.12c0.06-8.3-0.08-15.28-0.31-15.52-0.24-0.23-0.43 3.79-0.44 8.93 0 5.15-0.14 17.67-0.3 27.83-0.27 17.26-0.24 17.66 0.33 6.15 0.34-6.77 0.66-19.1 0.72-27.39zm0.52-32.15c-0.14-3.1-0.25-0.75-0.25 5.22 0 5.98 0.11 8.52 0.25 5.65 0.13-2.87 0.13-7.76 0-10.87zm0.45-8.56c0.19-1.18 0.57-9 0.84-17.36 0.27-8.37 0.79-15.58 1.15-16.04 0.4-0.5 0.38-2.06-0.06-3.98-0.4-1.736-0.79-7.395-0.88-12.573-0.08-5.249-0.41 1.002-0.75 14.123-0.33 12.95-0.72 26.9-0.87 31.01-0.27 7.42-0.09 8.94 0.57 4.82zm1.6-61.707c-0.23-0.241-0.4 0.187-0.37 0.95 0.03 0.844 0.2 1.016 0.43 0.438 0.21-0.523 0.18-1.148-0.06-1.388zm0.09-5.8c-0.17-1.101-0.31-0.372-0.31 1.62-0.01 1.992 0.13 2.893 0.3 2.002s0.17-2.521 0.01-3.622zm-140.81 258.2c-0.545-2.38 0.362-11.76 1.415-14.64 0.699-1.9 0.043 10.26-0.701 13.01-0.324 1.19-0.645 1.92-0.714 1.63zm140.83-0.24c-0.3-0.3-0.54-1.54-0.54-2.75 0-1.57 0.22-1.97 0.78-1.41 0.42 0.43 0.67 1.66 0.54 2.75-0.13 1.08-0.48 1.72-0.78 1.41zm-122.8-1.02c-0.305-0.21-0.74-0.86-0.966-1.46-0.327-0.87-0.422-0.83-0.467 0.18-0.031 0.7-0.3 1.27-0.597 1.27-1.209-0.01-0.822-6.18 0.886-14.13 0.997-4.64 1.812-9.23 1.812-10.19 0-2.34-1.995-2.3-2.581 0.05-0.692 2.78-1.926 1.29-1.414-1.71 0.348-2.03 0.268-2.38-0.35-1.54-0.711 0.96-0.766 0.96-0.491 0 0.17-0.6 0.842-0.99 1.494-0.88 0.791 0.14 1.184-0.29 1.184-1.31 0-0.84-0.324-1.32-0.72-1.07-1.64 1.02-0.538-1.29 1.93-4.04 4.985-5.55 11.427-7.57 21.727-6.79 7.1 0.54 7.67 1.66 1.08 2.1-1.8 0.12-3.64 0.61-4.11 1.1-0.65 0.67-0.44 0.84 0.96 0.73 0.99-0.08 2.57-0.11 3.53-0.06 1.68 0.07 1.69 0.11 0.42 1.53-0.72 0.8-1.09 1.67-0.83 1.93s0.47 0.03 0.47-0.51c0-0.77 0.2-0.8 0.87-0.12 1.08 1.09 0.13 2.12-2.3 2.52-2.76 0.45-4.32 1.3-4.32 2.35 0 0.52-0.3 1.06-0.67 1.19-1.299 0.47 1.34 2.96 3.14 2.96 1 0 2.16 0.41 2.58 0.91 1.15 1.4-1.11 3.25-3.98 3.25-1.33 0-2.63 0.33-2.871 0.73-0.246 0.4-1.284 0.51-2.309 0.25-1.305-0.33-1.709-0.22-1.352 0.36 0.28 0.46 0.167 0.83-0.252 0.83s-0.78 1.06-0.801 2.36c-0.022 1.29-0.588 5.73-1.259 9.86l-1.22 7.5-3.834 0.11c-2.108 0.06-4.083-0.06-4.389-0.26zm3.061-6.29c0.294-1.59 0.085-2.57-0.683-3.21-0.975-0.82-1.05-0.59-0.635 1.93 0.373 2.25 0.295 2.62-0.369 1.76-0.715-0.92-0.777-0.88-0.414 0.24 0.235 0.73 0.428 1.7 0.428 2.14 0 1.57 1.247-0.56 1.673-2.86zm1.098-4.77c-0.247-1.93 0.647-3.63 1.595-3.04 0.369 0.22 0.67 0.03 0.67-0.43 0-0.47-0.486-0.66-1.079-0.43-0.741 0.29-1.079-0.04-1.079-1.05 0-0.81 0.265-1.31 0.589-1.1 0.324 0.2 0.463-0.68 0.309-1.95-0.227-1.87-0.12-2.11 0.557-1.23 0.712 0.92 0.774 0.88 0.411-0.24-0.235-0.73-0.427-1.79-0.427-2.36 0-0.56-0.324-1.02-0.72-1.02s-0.724 0.73-0.729 1.63c-0.006 0.89-0.222 2.42-0.481 3.4-0.44 1.65-0.51 1.68-1.083 0.36-0.425-0.98-0.494-0.64-0.228 1.09 0.211 1.37 0.738 2.72 1.17 2.99 0.54 0.33 0.55 0.63 0.033 0.95-0.413 0.26-1.11-0.11-1.547-0.81-0.632-1.02-0.696-0.76-0.313 1.25 0.405 2.14 1.327 3.56 2.33 3.61 0.128 0.01 0.137-0.72 0.022-1.62zm-0.898-11.93c-0.239-0.24-0.409 0.18-0.377 0.95 0.034 0.84 0.205 1.01 0.434 0.44 0.208-0.53 0.182-1.15-0.057-1.39zm4.179-2.55c0.309-1.72 0.212-2.72-0.264-2.72-0.414 0-0.752 1.36-0.752 3.02 0 3.56 0.341 3.46 1.016-0.3zm8.427-0.01c-0.711-0.71-0.794-0.63-0.403 0.4 0.273 0.72 0.673 1.12 0.893 0.89 0.22-0.22 0-0.8-0.49-1.29zm-5.126-0.17c0-0.6-0.27-1.09-0.6-1.09s-0.599 0.49-0.599 1.09c0 0.59 0.269 1.08 0.599 1.08s0.6-0.49 0.6-1.08zm2.302 0.21c-0.475-0.47-0.863-1.6-0.863-2.51 0-1.16-0.317-1.52-1.073-1.23-1.56 0.61-2.154-1.66-0.796-3.03 1.658-1.66 1.417-2.24-0.29-0.69-0.791 0.72-1.439 1.95-1.439 2.72 0 0.79 0.625 1.57 1.439 1.78 0.931 0.25 1.439 0.99 1.439 2.11 0 1.14 0.414 1.72 1.223 1.72 0.952 0 1.032-0.19 0.36-0.87zm-8.929-4.14c0.115-0.03-0.207-0.51-0.716-1.05-0.508-0.55-1.33-0.84-1.827-0.65-0.496 0.19-0.903-0.05-0.903-0.54 0-0.55 0.676-0.75 1.824-0.53 1.258 0.24 2.035-0.05 2.503-0.93 0.78-1.46 4.592-3 6.053-2.43 0.542 0.21 1.18 0.06 1.417-0.32 0.237-0.39 1.97-0.57 3.852-0.39l3.42 0.31-3.1-1.46c-2.654-1.24-3.589-1.34-6.477-0.69-4.887 1.09-7.964 2.86-9.619 5.54-1.253 2.03-1.294 2.36-0.303 2.36 0.632 0 1.15 0.3 1.15 0.66 0 0.53 1.002 0.58 2.726 0.12zm83.613 21.07c0-0.73-0.25-1.57-0.54-1.87-0.3-0.3-0.59-1.42-0.65-2.48-0.05-1.06-0.17-2.01-0.27-2.11-0.32-0.35-0.52-1.65-0.61-3.88-0.07-1.68-0.36-2.15-1.17-1.83-0.6 0.23-1.08 0.1-1.08-0.29 0-0.38-2.19-0.73-4.86-0.77-3.52-0.05-4.36-0.23-3.05-0.65 1.47-0.48 1.21-0.59-1.44-0.61-2.56-0.01-2.94 0.13-1.8 0.66 1.02 0.49 0.61 0.55-1.44 0.21-1.58-0.26-7.74-0.55-13.67-0.64-5.94-0.09-12.33-0.19-14.21-0.22-2.95-0.05-3.42-0.26-3.42-1.54 0-1.17 0.5-1.51 2.34-1.6l2.34-0.12-2.34-0.29c-1.51-0.19-2.34-0.69-2.34-1.42 0-0.89 0.22-0.95 1.01-0.29 0.55 0.46 2.09 0.8 3.42 0.74 1.32-0.05 4.51 0.16 7.08 0.48 4.09 0.51 4.41 0.65 2.52 1.14-1.59 0.4-1.26 0.47 1.23 0.23 2.05-0.19 3.58 0 3.88 0.49 0.69 1.11 20.33 0.3 21.43-0.89 0.61-0.66 0.36-0.76-1.08-0.42-2.52 0.59-14.28 0.74-14.83 0.18-0.24-0.24 2.45-0.44 5.98-0.45s6.9-0.33 7.49-0.71c0.6-0.39 0.76-0.74 0.36-0.77-0.81-0.08-1.25-0.16-7.15-1.4-3.05-0.64-8.16-0.75-17.81-0.41l-13.53 0.49v-2.22c0-2.2 0.03-2.21 3.92-2.21 2.15 0 4.11 0.33 4.36 0.73 0.25 0.41 0.81 0.52 1.25 0.25 0.51-0.32 0.63-0.07 0.33 0.71-0.36 0.95-0.04 1.19 1.5 1.15 1.74-0.04 1.79-0.12 0.51-0.67-1.89-0.82 15.2-0.17 20.87 0.8 2.37 0.41 5.35 1.1 6.61 1.55 1.78 0.62 2.54 0.59 3.43-0.15 0.63-0.53 0.98-1.12 0.78-1.32-0.19-0.2-0.8 0.01-1.35 0.47-0.77 0.64-1.42 0.49-2.9-0.67-1.04-0.83-1.9-1.34-1.9-1.13s-1.28-0.07-2.85-0.63c-2.78-0.98-6.64-1.36-22.26-2.19-4.11-0.22-7.73-0.56-8.04-0.75s-0.76-0.02-1.01 0.39c-0.25 0.4-1.08 0.73-1.85 0.73-1 0-1.4-0.5-1.4-1.77 0-1.52 0.3-1.74 1.98-1.54 1.09 0.13 2.63-0.05 3.42-0.39 1.21-0.52 1.09-0.61-0.72-0.55-3.95 0.11-4.68-0.08-4.68-1.27 0-0.91 0.22-0.99 0.99-0.35 0.68 0.57 6.32 0.81 18.16 0.78 9.45-0.03 19.02-0.04 21.27-0.01l4.09 0.03-0.62 2.18c-0.48 1.69-0.39 2.17 0.41 2.17 0.57 0 1.03 0.34 1.03 0.77 0 0.42-0.33 0.56-0.72 0.32-0.4-0.25-0.72-0.14-0.72 0.24s0.4 0.84 0.9 1.03c0.96 0.37 1.13 4.06 0.26 5.48-0.84 1.37 0.59 0.98 2.3-0.63l1.58-1.47v11.25c0 6.19-0.17 11.26-0.36 11.26-0.2 0-0.36-0.6-0.36-1.33zm-0.53-15.88c0.21-1.69 0.1-3.07-0.26-3.07s-0.65 0.47-0.65 1.05c0 0.57-0.57 1.38-1.26 1.78-1.18 0.7-1.18 0.74 0.08 0.77 0.84 0.01 1.19 0.39 0.94 1.03-0.21 0.56-0.19 1.21 0.05 1.45 0.6 0.61 0.66 0.45 1.1-3.01zm-36.6 0.43c-0.2-0.34-0.86-0.61-1.45-0.61s-0.91 0.27-0.71 0.61c0.21 0.33 0.86 0.6 1.45 0.6s0.91-0.27 0.71-0.6zm9.97 0.36c-0.5-0.2-1.31-0.2-1.8 0-0.5 0.2-0.09 0.37 0.9 0.37s1.39-0.17 0.9-0.37zm-12.99-2.56c-0.67-0.68-1.06-0.68-1.73 0s-0.48 0.87 0.87 0.87c1.34 0 1.53-0.19 0.86-0.87zm0.58-5.65c0-0.92-2.19-0.92-3.6 0-0.82 0.53-0.52 0.7 1.26 0.71 1.28 0.01 2.34-0.31 2.34-0.71zm34.36-5.23c-0.2-0.58-2.35-0.95-6.28-1.07-6.78-0.21-7.39 0.36-1.02 0.95 2.32 0.22 4.36 0.53 4.53 0.7 0.71 0.72 3.03 0.23 2.77-0.58zm-88.244 27.54c-0.084-2.07 1.752-9.91 2.491-10.65 0.491-0.49-0.156 3.32-1.507 8.88-0.627 2.58-0.929 3.12-0.984 1.77zm18.766-4.57c-0.014-1.19 0.135-1.77 0.332-1.28s0.209 1.47 0.027 2.18c-0.183 0.7-0.344 0.3-0.359-0.9zm-29.587-4.12c0.028-0.92 0.329-2.32 0.669-3.12 0.498-1.17 0.628-0.93 0.669 1.23 0.027 1.47-0.274 2.87-0.669 3.12-0.405 0.25-0.698-0.29-0.669-1.23zm130.22-3.06c-0.03-0.76 0.14-1.19 0.38-0.95s0.27 0.87 0.06 1.39c-0.23 0.58-0.4 0.41-0.44-0.44zm-127.89-2.94c-0.471-0.52-0.66-1.14-0.42-1.39 0.24-0.24 0.024-0.44-0.48-0.44-0.519 0-0.737-0.47-0.502-1.08 0.228-0.6 0.1-1.09-0.283-1.09s-0.697-1.16-0.697-2.58c0-1.53 0.292-2.39 0.72-2.13 0.395 0.25 0.719 0.05 0.719-0.44 0-0.48 0.208-0.67 0.462-0.42 0.255 0.26 0.087 0.92-0.372 1.48-1.125 1.36-0.262 3.37 1.451 3.37 1.126 0 1.254 0.25 0.677 1.33-0.49 0.93-0.453 1.6 0.118 2.18 0.522 0.52 0.577 1.08 0.146 1.5-0.417 0.4-1.017 0.29-1.539-0.29zm74.604-1.83c1.41-0.91 2.36-0.91 1.8 0-0.25 0.4-1 0.72-1.67 0.72-1.04-0.01-1.06-0.11-0.13-0.72zm-66.194-24.46v-22.58l1.799 0.69c1.141 0.44 1.798 0.44 1.798 0 0-0.38-0.859-0.91-1.908-1.18l-1.909-0.48 0.467-14.2c0.257-7.81 0.791-34.57 1.186-59.46 1.212-76.36 2.5-113.71 3.922-113.71 0.592-0.003 0.731 3.45 0.502 12.49-0.174 6.872-0.277 13.309-0.228 14.305 0.236 4.862 0.116 11.875-0.308 18.005-0.37 5.36-0.261 6.91 0.523 7.41 0.583 0.38 0.655 0.64 0.174 0.65-0.85 0.01-0.789 16.71 0.337 92.41 0.456 30.69 0.66 35.05 1.714 36.67 1.195 1.83 5.262 3.36 4.663 1.75-0.166-0.45-0.046-1.47 0.267-2.26 0.483-1.23 0.578-1.26 0.62-0.18 0.028 0.69 0.618 1.3 1.31 1.35 0.692 0.04 1.583 0.16 1.979 0.25 0.395 0.09 1.161 0.22 1.702 0.28 0.613 0.07 0.842 0.65 0.607 1.56-0.207 0.79-0.093 1.44 0.253 1.44 0.347 0 0.453 0.47 0.236 1.04-0.273 0.71 0.227 1.1 1.638 1.26 1.48 0.17 1.98 0.59 1.83 1.51-0.12 0.69 0.12 1.26 0.54 1.26 0.41 0 0.71-0.24 0.66-0.54-0.26-1.68 0.22-2.84 1.19-2.84 0.76 0 0.87 0.24 0.36 0.75-1.19 1.2-0.87 1.91 0.88 1.92 1.11 0.01 1.33 0.2 0.69 0.6-0.51 0.33-0.73 1.09-0.5 1.71 0.25 0.65-0.04 1.3-0.69 1.55-0.62 0.23-1.12 0.11-1.12-0.27 0-0.39-0.41-0.69-0.9-0.68-0.5 0.02 0.06 0.82 1.23 1.78 1.72 1.42 2.33 1.58 3.23 0.88 0.98-0.76 0.99-0.72 0.13 0.39-0.54 0.69-1.24 1.09-1.57 0.89-0.32-0.2-0.78-0.05-1.02 0.34s0.63 1.03 1.93 1.42c1.9 0.56 1.19 0.66-3.6 0.5-7.74-0.26-10.186-2.25-4.012-3.26 2.802-0.46 3.152-1.9 0.442-1.85-0.89 0.02-1.618-0.19-1.618-0.46s-1.166-0.71-2.591-0.98c-1.956-0.37-2.932-0.18-3.988 0.78-1.275 1.16-1.356 1.17-0.93 0.05 0.258-0.68 0.757-1.23 1.11-1.23 0.354 0 0.643-0.32 0.643-0.72 0-1.21-1.454-0.81-1.949 0.54-0.255 0.7-0.75 1.46-1.099 1.7s0.179 0.97 1.173 1.62c1.689 1.12 1.855 1.11 2.507-0.06 0.385-0.69 0.963-0.99 1.286-0.66 0.324 0.32-0.029 0.94-0.784 1.36-1.338 0.75-1.339 0.8-0.028 1.76 1.18 0.87 0.91 0.94-2.219 0.54-1.96-0.24-4.841-0.71-6.403-1.04-1.561-0.33-3.099-0.44-3.417-0.24s-0.578 0.01-0.578-0.41-0.343-0.77-0.762-0.77-0.606 0.26-0.415 0.57c0.19 0.31 0.439 8.29 0.553 17.74 0.153 12.71-0.02 17.4-0.664 18.04-0.681 0.69-0.871-4.03-0.871-21.7zm23.024-12.92c0-0.97-0.2-1.02-1.08-0.28-0.59 0.5-1.079 1.03-1.079 1.18s0.489 0.27 1.079 0.27 1.08-0.53 1.08-1.17zm2.02-1.38c-0.22-0.23-0.63 0.18-0.9 0.89-0.39 1.03-0.3 1.12 0.41 0.41 0.49-0.5 0.71-1.08 0.49-1.3zm-19.288-1.79c-0.594-0.39-1.403-0.71-1.799-0.71-0.395 0-0.234 0.32 0.36 0.71 0.594 0.38 1.403 0.7 1.799 0.7 0.395 0 0.233-0.32-0.36-0.7zm3.926-3.58c0.228-0.37 0.139-0.84-0.197-1.05s-0.611 0.09-0.611 0.67c0 1.22 0.226 1.33 0.808 0.38zm-3.791-0.54c-0.52-0.21-1.14-0.18-1.379 0.06s0.186 0.41 0.944 0.38c0.838-0.04 1.009-0.21 0.435-0.44zm2.023-1.72c0-0.42-0.287-0.59-0.638-0.37s-1.038-0.09-1.527-0.68c-0.489-0.6-1.209-1.08-1.6-1.08-0.8 0 2.384 2.83 3.226 2.87 0.296 0.01 0.539-0.32 0.539-0.74zm3.829-1.7c0.25-0.65-0.237-1.13-1.387-1.35-1.691-0.32-1.717-0.28-0.557 1.01 1.456 1.62 1.457 1.62 1.944 0.34zm5.524 0.01c0-0.16-0.502-0.48-1.116-0.72-0.641-0.25-0.929-0.12-0.677 0.29 0.422 0.68 1.793 1.01 1.793 0.43zm-13.235-95.12c-0.239-0.25-0.409 0.18-0.378 0.95 0.035 0.84 0.205 1.01 0.435 0.43 0.208-0.52 0.182-1.14-0.057-1.38zm0-2.9c-0.239-0.24-0.409 0.19-0.378 0.95 0.035 0.84 0.205 1.01 0.435 0.44 0.208-0.53 0.182-1.15-0.057-1.39zm0-7.24c-0.239-0.25-0.409 0.18-0.378 0.95 0.035 0.84 0.205 1.01 0.435 0.43 0.208-0.52 0.182-1.14-0.057-1.38zm0-4.35c-0.239-0.24-0.409 0.19-0.378 0.95 0.035 0.84 0.205 1.02 0.435 0.44 0.208-0.52 0.182-1.15-0.057-1.39zm0-5.07c-0.239-0.24-0.409 0.19-0.378 0.95 0.035 0.84 0.205 1.02 0.435 0.44 0.208-0.52 0.182-1.15-0.057-1.39zm-12.665 158.1c0-0.18 0.323-0.52 0.719-0.77 0.396-0.24 0.72-0.1 0.72 0.32s-0.324 0.77-0.72 0.77-0.719-0.15-0.719-0.32zm101.14-0.95c0.36-0.3 0.89-0.87 1.19-1.27 0.3-0.41 0.54-0.18 0.54 0.55 0.01 0.7-0.52 1.26-1.18 1.26s-0.91-0.24-0.55-0.54zm-99.882-1.81c-0.185-0.5-0.106-1.56 0.175-2.35 0.428-1.21 0.569-1.06 0.855 0.9 0.334 2.3-0.355 3.26-1.03 1.45zm125.42-14.61c-0.03-0.76 0.14-1.19 0.38-0.95s0.27 0.87 0.06 1.39c-0.23 0.58-0.4 0.41-0.44-0.44zm3.99-10.22c-0.69-1.83-0.49-2.29 0.36-0.83 0.42 0.73 0.61 1.48 0.43 1.66-0.19 0.19-0.54-0.19-0.79-0.83zm-69.33-2.35c-4.06-0.12-7.38-0.44-7.38-0.73 0-0.28 9.57-0.44 21.27-0.33 14.06 0.12 21.12-0.07 20.82-0.55-0.24-0.4-0.1-0.72 0.32-0.72 1.06 0 0.95 1.42-0.14 1.84-1.12 0.43-25 0.76-34.89 0.49zm-1.35-2.13l-5.84-0.26-0.09-4.05-0.1-4.06 4.86 0.46c11.91 1.13 21.09 1.31 27.37 0.53 4.27-0.53 7.12-0.58 7.9-0.14 1.05 0.59 0.94 0.76-0.74 1.18-1.08 0.27-1.8 0.76-1.6 1.09 0.2 0.32-0.21 0.74-0.91 0.92-0.99 0.26-0.92 0.36 0.31 0.42 0.87 0.05 1.78-0.25 2.03-0.65 0.77-1.25 1.8-0.01 1.69 2.05-0.08 1.7-0.13 1.74-0.41 0.31-0.36-1.9-0.67-1.99-2.06-0.59-1.38 1.39-1.29 1.91 0.23 1.37 1.05-0.37 1.1-0.27 0.34 0.56-0.72 0.77-3.87 1.01-14.03 1.05-7.21 0.03-15.74-0.05-18.95-0.19zm23.91-1.47c-1.1-0.26-1.17-0.46-0.36-0.97 0.65-0.41 0.7-0.64 0.14-0.65-0.47-0.01-1.05 0.32-1.3 0.71-0.24 0.4-0.77 0.73-1.16 0.73-0.4 0-0.52-0.33-0.28-0.73 0.25-0.39 0.1-0.72-0.32-0.72-0.41 0-0.76 0.39-0.76 0.87 0 0.64-0.21 0.66-0.8 0.06-0.45-0.45-1.26-0.64-1.8-0.43-0.55 0.21-1 0.1-1-0.24s-4.75-0.7-10.55-0.78c-7.52-0.12-10.34 0.06-9.79 0.61 0.43 0.43 3.07 0.82 5.88 0.86 2.81 0.05 5.11 0.26 5.12 0.47 0 0.22 4.13 0.42 9.17 0.46s8.56-0.07 7.81-0.25zm3.88-1.31c0-0.18-0.33-0.32-0.72-0.32-0.4 0-0.72 0.34-0.72 0.77 0 0.42 0.32 0.56 0.72 0.32 0.39-0.25 0.72-0.6 0.72-0.77zm-16.74-3c-0.7-0.18-1.68-0.17-2.16 0.03-0.49 0.2 0.08 0.35 1.27 0.34 1.19-0.02 1.59-0.18 0.89-0.37zm-8.64-0.72c-0.7-0.18-1.67-0.17-2.16 0.03-0.48 0.2 0.09 0.35 1.28 0.33 1.18-0.01 1.58-0.18 0.88-0.36zm34.07 3.82c-0.03-0.76 0.14-1.19 0.38-0.95 0.23 0.24 0.26 0.87 0.05 1.39-0.23 0.58-0.4 0.41-0.43-0.44zm-25.05-6.65c0.24-0.24 0.86-0.27 1.38-0.06 0.58 0.23 0.41 0.4-0.43 0.44-0.76 0.03-1.18-0.14-0.95-0.38zm-7.91-2.18c0.24-0.24 0.86-0.26 1.38-0.05 0.57 0.23 0.4 0.4-0.44 0.44-0.75 0.03-1.18-0.14-0.94-0.39zm-34.289-1.6c-0.2-0.33 0.59-0.45 1.759-0.28 1.16 0.17 2.12 0.44 2.12 0.59 0 0.56-3.522 0.27-3.879-0.31zm24.739-0.86c0-1.16 0.46-1.43 2.34-1.37 2.22 0.07 2.24 0.1 0.54 0.65-1.55 0.5-1.6 0.6-0.36 0.74 5.3 0.58 9.71 0.6 9.71 0.06 0-0.36 1.3-0.77 2.88-0.92s2.88-0.11 2.88 0.1 2.02 0.36 4.5 0.33c2.47-0.02 5.79 0.19 7.37 0.48 1.92 0.36 3.05 0.25 3.4-0.31 0.36-0.56 0.54-0.58 0.55-0.05 0 0.43 0.98 0.73 2.17 0.66 1.18-0.07 2.15 0.13 2.15 0.45 0 0.33-8.58 0.6-19.06 0.61-18.57 0.01-19.07-0.02-19.07-1.43zm9.71-0.72c-0.24-0.4-0.12-0.72 0.28-0.72s0.92 0.32 1.16 0.72c0.25 0.4 0.12 0.73-0.27 0.73-0.4 0-0.92-0.33-1.17-0.73zm-33.26-0.44c0.24-0.24 0.86-0.26 1.38-0.05 0.58 0.23 0.41 0.4-0.43 0.43-0.76 0.04-1.18-0.14-0.95-0.38zm-12.364-5.65c-0.031-0.77 0.139-1.2 0.378-0.96 0.239 0.25 0.264 0.87 0.057 1.39-0.23 0.58-0.401 0.41-0.435-0.43zm-0.057-5.9c0-0.62 0.324-0.93 0.72-0.68 0.395 0.24 0.719 0.75 0.719 1.13 0 0.37-0.324 0.68-0.719 0.68-0.396 0-0.72-0.51-0.72-1.13zm121.38-8.82c0.53-5.48 0.93-5.78 0.93-0.72 0 2.24-0.3 4.25-0.67 4.48-0.4 0.25-0.51-1.26-0.26-3.76zm0.21-8.16c0-1.59 0.32-2.9 0.72-2.9 0.39 0 0.72 1.31 0.72 2.9s-0.33 2.9-0.72 2.9c-0.4 0-0.72-1.31-0.72-2.9zm0.92-7.6c0.01-2 0.15-2.73 0.31-1.62 0.17 1.1 0.16 2.73-0.01 3.62s-0.3-0.01-0.3-2zm-3.07-5.21c0-2.32 0.64-19.04 1.42-37.16 0.79-18.13 1.46-37.85 1.51-43.82 0.05-6.59 0.31-10.15 0.66-9.06 0.81 2.57 0.83 17.36 0.03 35.13-0.37 8.37-1.07 24.92-1.55 36.79-0.49 11.87-1.15 21.75-1.48 21.95-0.33 0.21-0.6-1.52-0.59-3.83zm3.79-4.93c0.01-2 0.15-2.72 0.31-1.62 0.17 1.1 0.16 2.73-0.01 3.62s-0.3-0.01-0.3-2zm0.35-6.7c-0.14-0.3-0.06-3.32 0.19-6.7l0.45-6.16 0.12 6.7c0.12 6.13-0.07 7.63-0.76 6.16zm1.14-21.91c0-3.39 0.12-4.77 0.27-3.08s0.15 4.46 0 6.16c-0.15 1.69-0.27 0.3-0.27-3.08zm0.25-9.54c-0.22-1.66-0.23-5.17-0.03-7.79 0.21-2.62 0.64-16.82 0.97-31.56l0.6-26.799-0.44 30.059c-0.24 16.53-0.37 32.09-0.28 34.58 0.18 5.19-0.23 5.94-0.82 1.51zm5.71-48.23c-0.31-0.9-0.17-5.45 0.31-10.1 0.48-4.69 0.7-12.767 0.5-18.101-0.2-5.3-0.08-9.635 0.26-9.635 0.56 0 1.12 21.442 0.68 26.076-0.09 0.99-0.4 4.42-0.68 7.6-0.36 4.18-0.66 5.34-1.07 4.16zm-7.65-3.03c0-0.42 0.32-0.77 0.72-0.77 0.39 0 0.72 0.15 0.72 0.32 0 0.18-0.33 0.52-0.72 0.77-0.4 0.25-0.72 0.1-0.72-0.32zm0.91-5.11c0-1.79 0.14-2.53 0.31-1.63 0.18 0.9 0.18 2.36 0 3.26-0.17 0.89-0.31 0.16-0.31-1.63zm2.91-24.264c-0.01-2.39 0.12-3.456 0.29-2.367 0.16 1.088 0.17 3.044 0.01 4.345-0.16 1.302-0.3 0.412-0.3-1.978zm-0.78-10.502c0-1.395 0.15-1.965 0.33-1.268s0.18 1.838 0 2.535-0.33 0.127-0.33-1.267zm-0.05-4.346c0-0.996 0.16-1.403 0.36-0.905s0.2 1.312 0 1.81-0.36 0.091-0.36-0.905zm-11.62-0.543c0-0.896 0.32-1.63 0.71-1.63 0.9 0 0.9 0.769 0 2.173-0.56 0.879-0.7 0.775-0.71-0.543zm-116.56-2.354c0-0.398 0.143-0.724 0.317-0.724 0.175 0 0.517 0.326 0.762 0.724s0.102 0.724-0.317 0.724-0.762-0.326-0.762-0.724zm-18.706-5.07c0.593-0.386 1.403-0.702 1.798-0.702 0.396 0 0.234 0.316-0.359 0.702-0.594 0.386-1.403 0.702-1.799 0.702s-0.234-0.316 0.36-0.702zm20.145-3.259c0-0.598 0.525-1.086 1.167-1.086 0.956 0 1.005 0.196 0.272 1.086-0.493 0.597-1.018 1.086-1.168 1.086-0.149 0-0.271-0.489-0.271-1.086zm-29.746 262.35c-0.197-0.49-0.346 0.09-0.331 1.29 0.014 1.19 0.176 1.59 0.358 0.89 0.182-0.71 0.17-1.68-0.027-2.18zm191.95-22.11c-0.37-0.32-3.27-0.37-6.44-0.12l-5.75 0.46 6.44 0.12c3.54 0.07 6.13-0.14 5.75-0.46zm-178.75-21.55c0-0.18-0.324-0.32-0.719-0.32-0.396 0-0.72 0.34-0.72 0.77 0 0.42 0.324 0.56 0.72 0.32 0.395-0.25 0.719-0.6 0.719-0.77zm151.96-2.46c0.17-1.17 0.04-1.97-0.28-1.76-0.33 0.2-0.59-0.2-0.59-0.89 0-0.68-0.2-1.04-0.45-0.8-0.43 0.44 0.27 5.59 0.76 5.59 0.13 0 0.38-0.96 0.56-2.14zm-151.24-0.4c0-0.99 0.358-1.81 0.796-1.81s0.624 0.46 0.414 1.01c-0.269 0.7 0.03 0.89 1.002 0.64 1.228-0.33 1.385-1.05 1.385-6.44 0-3.82-0.285-6.07-0.768-6.07-0.441 0-0.573 0.62-0.311 1.45 0.324 1.03 0.129 1.45-0.671 1.45-0.62 0-1.128 0.34-1.128 0.76 0 0.43 0.324 0.57 0.72 0.32 0.426-0.26 0.719 0.58 0.719 2.07 0 2.15-0.204 2.45-1.439 2.13-0.791-0.21-1.439-0.66-1.439-1s0.486-0.43 1.079-0.2c0.594 0.23 1.08 0.06 1.08-0.38 0-0.45-0.61-0.81-1.356-0.81-1.57 0-2.137 2.04-1.676 6.01 0.348 3.01 1.593 3.69 1.593 0.87zm182.49 0.08c8.18-2.6 17.29-10.5 21.06-18.28 8.89-18.32 11.22-78.42 4.37-112.49-2.34-11.65-7.48-19.74-16.79-26.41-6.72-4.83-12.2-6.51-21.4-6.55-7.31-0.03-7.74 0.06-10.74 2.14-1.71 1.2-3.98 3.54-5.03 5.21l-1.91 3.03-0.48 72.95-0.48 72.94 1.8 2.38c0.99 1.3 1.8 2.64 1.8 2.96 0 0.33 1.7 1.33 3.77 2.23 3.37 1.46 4.68 1.61 12.05 1.35 4.86-0.16 9.81-0.77 11.98-1.46zm-195.65-25.97c-0.172-0.89-0.312-0.16-0.312 1.63s0.14 2.53 0.312 1.63c0.171-0.9 0.171-2.36 0-3.26zm4.841 1.27c-0.578-1.4-0.765-2.54-0.415-2.54 0.366 0 0.36-1.45-0.015-3.44-1.688-8.93-1.945-44.3-0.959-131.99 0.378-33.628 0.287-42.823-0.442-44.547-0.849-2.005-0.96-1.558-1.449 5.794-0.668 10.052-1.021 123.56-0.396 127.47 0.255 1.59 0.757 13 1.117 25.35 0.446 15.32 0.943 23.08 1.565 24.44 1.338 2.92 2.23 2.44 0.994-0.54zm-4.105-15.38c-0.155-1.5-0.285-0.45-0.289 2.34-0.003 2.79 0.125 4.02 0.284 2.73 0.159-1.28 0.161-3.56 0.005-5.07zm-0.445-9.41c-0.236-5.87-0.799-5.75-0.799 0.16 0 2.73 0.217 4.73 0.483 4.47 0.265-0.27 0.407-2.35 0.316-4.63zm16.828-168.23c0.948-0.41 1.071-0.636 0.359-0.662-0.593-0.022-1.564 0.276-2.158 0.662-1.315 0.856-0.179 0.856 1.799 0zm227.1 193.38c0-0.99 0.17-1.4 0.36-0.9 0.2 0.49 0.2 1.31 0 1.81-0.19 0.49-0.36 0.09-0.36-0.91zm0.72-3.62c0-1 0.16-1.4 0.36-0.91 0.2 0.5 0.2 1.32 0 1.82-0.2 0.49-0.36 0.09-0.36-0.91zm0.77-4.35c0-1.39 0.15-1.96 0.33-1.26 0.18 0.69 0.18 1.83 0 2.53s-0.33 0.13-0.33-1.27zm0.74-5.43c-0.01-1.59 0.13-2.33 0.31-1.64 0.18 0.7 0.19 2 0.02 2.9-0.18 0.9-0.32 0.34-0.33-1.26zm0.72-5.79c-0.01-1.6 0.13-2.33 0.31-1.64s0.19 2 0.01 2.9c-0.17 0.9-0.31 0.33-0.32-1.26zm0.73-6.88c0-1.8 0.14-2.53 0.31-1.63 0.17 0.89 0.17 2.36 0 3.26-0.17 0.89-0.31 0.16-0.31-1.63zm0.76-9.06c0-2.78 0.13-3.84 0.29-2.33 0.16 1.5 0.15 3.78-0.01 5.07-0.15 1.28-0.28 0.05-0.28-2.74zm0.79-21c0-8.37 0.1-11.69 0.23-7.38 0.13 4.3 0.13 11.14 0 15.21-0.13 4.06-0.23 0.54-0.23-7.83zm-0.83-23.54c0-1.79 0.14-2.52 0.31-1.63 0.17 0.9 0.17 2.36 0 3.26s-0.31 0.16-0.31-1.63zm-0.72-9.41c0-1.8 0.14-2.53 0.31-1.63 0.17 0.89 0.17 2.36 0 3.26-0.17 0.89-0.31 0.16-0.31-1.63zm-0.75-7.25c0-1.39 0.15-1.96 0.33-1.26 0.18 0.69 0.18 1.83 0 2.53s-0.33 0.13-0.33-1.27zm-0.74-6.15c-0.02-1.2 0.13-1.77 0.33-1.28s0.21 1.46 0.03 2.17c-0.19 0.7-0.35 0.3-0.36-0.89zm-0.7-4.71c0-1.39 0.15-1.97 0.33-1.27s0.18 1.84 0 2.54c-0.18 0.69-0.33 0.12-0.33-1.27zm-0.83-4.65c-0.03-0.76 0.14-1.19 0.38-0.95s0.27 0.87 0.06 1.39c-0.23 0.58-0.4 0.41-0.44-0.44zm-17.32-32.29c-1.58-1.59-2.88-3.12-2.88-3.39 0-0.28 0.6 0.13 1.33 0.9s2.23 2.3 3.34 3.4c1.1 1.09 1.8 1.99 1.55 1.99-0.26 0-1.76-1.31-3.34-2.9zm-45.13 1.01c0.24-0.24 0.86-0.26 1.38-0.05 0.57 0.23 0.4 0.4-0.44 0.43-0.75 0.03-1.18-0.14-0.94-0.38zm3.22-0.04c0.5-0.2 1.31-0.2 1.8 0 0.5 0.2 0.09 0.37-0.9 0.37s-1.39-0.17-0.9-0.37z"/>
      <path id="path3233" opacity=".55022" d="m71.742 251.46l32.078 6.13 49.01 3.57 53.47-4.08 8.91-6.64 0.89-66.92c-50.81 5.59-102.95 2.45-149.7-0.51l-1.787 62.83 7.129 5.62z" fill-rule="evenodd" transform="matrix(1.0312 0 0 1 -6.7389 0)" fill="url(#linearGradient3130)"/>
    </g>
  </g>
  <metadata>
    <rdf:RDF>
      <cc:Work>
        <dc:format>image/svg+xml</dc:format>
        <dc:type rdf:resource="http://purl.org/dc/dcmitype/StillImage"/>
        <cc:license rdf:resource="http://creativecommons.org/licenses/publicdomain/"/>
        <dc:publisher>
          <cc:Agent rdf:about="http://openclipart.org/">
            <dc:title>Openclipart</dc:title>
          </cc:Agent>
        </dc:publisher>
        <dc:title>mug of beer</dc:title>
        <dc:date>2010-03-17T00:14:27</dc:date>
        <dc:description>re-uploaded clipart, the first one missing somehow in site reconstruction, but is in archieve.</dc:description>
        <dc:source>http://openclipart.org/detail/31921/mug-of-beer-by-tomas_arad</dc:source>
        <dc:creator>
          <cc:Agent>
            <dc:title>tomas_arad</dc:title>
          </cc:Agent>
        </dc:creator>
        <dc:subject>
          <rdf:Bag>
            <rdf:li>beer</rdf:li>
            <rdf:li>bere</rdf:li>
            <rdf:li>bier</rdf:li>
            <rdf:li>clip art</rdf:li>
            <rdf:li>clipart</rdf:li>
            <rdf:li>drink</rdf:li>
            <rdf:li>drunk</rdf:li>
            <rdf:li>mug</rdf:li>
            <rdf:li>photorealistic</rdf:li>
            <rdf:li>s&#xF6;r</rdf:li>
          </rdf:Bag>
        </dc:subject>
      </cc:Work>
      <cc:License rdf:about="http://creativecommons.org/licenses/publicdomain/">
        <cc:permits rdf:resource="http://creativecommons.org/ns#Reproduction"/>
        <cc:permits rdf:resource="http://creativecommons.org/ns#Distribution"/>
        <cc:permits rdf:resource="http://creativecommons.org/ns#DerivativeWorks"/>
      </cc:License>
    </rdf:RDF>
  </metadata>
</svg>
