<?xml version="1.0" encoding="UTF-8" standalone="no"?>
<!-- Created with Inkscape (http://www.inkscape.org/) -->

<svg
   version="1.1"
   id="svg1791"
   width="429.71786"
   height="394.75165"
   viewBox="0 0 429.71786 394.75164"
   sodipodi:docname="bik1b.svg"
   inkscape:version="1.2.2 (732a01da63, 2022-12-09, custom)"
   xmlns:inkscape="http://www.inkscape.org/namespaces/inkscape"
   xmlns:sodipodi="http://sodipodi.sourceforge.net/DTD/sodipodi-0.dtd"
   xmlns="http://www.w3.org/2000/svg"
   xmlns:svg="http://www.w3.org/2000/svg">
  <defs
     id="defs1795" />
  <sodipodi:namedview
     id="namedview1793"
     pagecolor="#ffffff"
     bordercolor="#000000"
     borderopacity="0.25"
     inkscape:showpageshadow="2"
     inkscape:pageopacity="0.0"
     inkscape:pagecheckerboard="0"
     inkscape:deskcolor="#d1d1d1"
     showgrid="false"
     inkscape:zoom="0.86772068"
     inkscape:cx="267.36714"
     inkscape:cy="308.85515"
     inkscape:window-width="1920"
     inkscape:window-height="1031"
     inkscape:window-x="0"
     inkscape:window-y="25"
     inkscape:window-maximized="1"
     inkscape:current-layer="layer1" />
  <g
     inkscape:groupmode="layer"
     id="layer1"
     inkscape:label="Royal 1"
     transform="translate(54.028281,26.476966)">
    <path
       style="fill:#ff00ff;stroke-width:0.564964"
       d="m -34.531997,366.79055 c -0.940925,-1.43603 -1.102923,-1.47277 -5.008411,-1.13568 -2.219819,0.19158 -6.387701,0.5154 -9.261955,0.71959 l -5.225918,0.37125 v -1.94168 c 0,-6.42056 4.423873,-15.26964 11.717699,-23.43889 5.813975,-6.5118 6.360965,-7.26124 7.247168,-9.92933 0.692562,-2.08511 1.741474,-3.44346 4.597367,-5.95363 11.522365,-10.12749 12.24571,-11.12674 17.281785,-23.87335 2.371289,-6.0019 2.586477,-6.97077 2.823328,-12.7117 0.318876,-7.72918 1.840935,-12.72893 6.8384282,-22.46323 3.36974437,-6.56373 3.60083242,-7.26427 3.96724501,-12.02698 C 2.0730958,233.2414 6.6975536,216.43338 14.72915,202.489 l 2.585163,-4.48835 -0.356605,-6.52845 c -0.684765,-12.53603 1.131679,-28.32444 4.456012,-38.73142 0.794058,-2.48584 2.809397,-7.4434 4.478533,-11.0168 1.669135,-3.57339 4.151199,-9.43122 5.5157,-13.01741 2.745076,-7.21461 6.478705,-13.87461 11.006357,-19.63304 3.238435,-4.11875 9.852083,-13.942522 14.99016,-22.266075 1.783162,-2.888693 4.178911,-6.486382 5.323876,-7.994911 l 2.081759,-2.742736 -2.731593,0.200399 c -3.360488,0.246552 -3.969802,-0.75285 -1.246783,-2.045007 1.921571,-0.911853 4.132128,-3.830862 6.581183,-8.690367 l 1.240458,-2.461347 -2.528884,0.201486 c -2.903839,0.231358 -2.890213,0.09747 0.473512,-4.649359 1.009804,-1.425056 2.010615,-3.141125 2.224022,-3.813505 0.213408,-0.672391 0.633688,-1.22252 0.933954,-1.22252 0.300253,0 1.296864,-0.768193 2.214659,-1.707088 0.917807,-0.938895 2.558001,-2.310559 3.644903,-3.048141 l 1.976149,-1.341077 -1.404068,-0.352397 c -2.193213,-0.55045 -1.667001,-1.705828 1.561983,-3.429557 1.631324,-0.870864 3.545742,-2.295809 4.254243,-3.166537 0.708526,-0.87074 2.748382,-2.470155 4.532989,-3.554253 l 3.244809,-1.971109 4.223952,0.590252 c 5.474465,0.765 5.262626,0.784137 9.873587,-0.892022 2.8828,-1.047941 5.09536,-1.441562 8.16284,-1.452196 8.26719,-0.02863 16.52182,3.485259 40.32632,17.16647 19.00561,10.923124 22.30891,12.488826 28.66128,13.584895 16.83687,2.905111 35.66843,10.360753 48.83656,19.335017 l 5.64965,3.850294 8.75694,0.0011 c 4.81631,5.56e-4 10.31248,-0.181881 12.21367,-0.4059 l 3.45675,-0.407297 5.01772,3.326404 c 6.35123,4.21045 13.82596,10.960884 21.18403,19.131354 5.60892,6.22824 5.91181,6.46586 12.02517,9.43473 8.45848,4.10773 12.09281,4.97754 19.55101,4.67917 4.86876,-0.19477 6.51285,-0.5019 9.15044,-1.70944 15.28588,-6.99783 12.17177,-24.304488 -6.04615,-33.601044 -7.06202,-3.603729 -14.0984,-6.058195 -28.72545,-10.020153 -14.09458,-3.817742 -21.52004,-6.353618 -28.99889,-9.903449 -14.35938,-6.815641 -22.71976,-14.742027 -26.23425,-24.872386 -1.69319,-4.880556 -1.82285,-14.014615 -0.26465,-18.643813 3.0181,-8.966382 8.48379,-14.524442 17.27499,-17.566989 2.99085,-1.0351043 4.93024,-1.2754575 10.45184,-1.2953208 8.00491,-0.028809 12.48434,1.0434319 21.01718,5.0308578 7.20413,3.366509 11.98329,4.792026 16.0656,4.792026 5.69063,0 9.23275,-2.295793 9.1301,-5.9175757 -0.077,-2.7159746 -1.47838,-4.354104 -6.98669,-8.1670532 -7.91638,-5.4798414 -11.06745,-9.5247866 -11.68448,-14.9990841 -0.54678,-4.850997 2.64454,-10.551269 6.77986,-12.110034 0.8545,-0.322098 1.55364,-0.518564 1.55364,-0.436588 0,0.08198 -0.50847,1.146369 -1.12993,2.36533 -0.62146,1.218961 -1.12434,3.115907 -1.11751,4.215446 0.0141,2.396898 1.62618,6.108125 3.29759,7.595123 l 1.20971,1.076252 v -1.988748 c 0,-2.099639 1.7862,-4.96595 3.09463,-4.96595 0.414,0 1.39085,1.080494 2.17077,2.401097 2.04437,3.461738 4.55536,5.597857 9.87764,8.4030164 9.45801,4.9849555 12.96221,8.9723937 14.25826,16.2245773 0.57213,3.2014923 0.53479,4.3267083 -0.24456,7.3688603 -0.50591,1.974714 -1.6714,4.703993 -2.58996,6.06506 -0.91858,1.36106 -1.41238,2.47466 -1.09738,2.47466 1.03462,0 6.00683,-5.408236 7.83891,-8.526325 l 1.79525,-3.055438 -0.21161,5.084676 c -0.2426,5.82921 -1.78945,9.683345 -5.41067,13.481339 -1.90773,2.000831 -1.96322,2.146473 -0.66811,1.753596 0.77682,-0.235651 2.30222,-0.98124 3.38978,-1.656864 1.08756,-0.675624 2.35873,-1.455117 2.82483,-1.732208 1.53677,-0.913604 -2.84232,4.180824 -6.05544,7.044635 -10.44526,9.309725 -25.2648,10.475604 -35.94476,2.827852 l -3.16546,-2.266729 -0.35809,1.426737 c -0.19694,0.784697 -0.26116,2.442989 -0.14266,3.685089 l 0.21538,2.258366 -2.3386,-2.295154 c -1.28623,-1.262336 -2.93513,-3.610845 -3.66421,-5.21892 -0.7291,-1.608081 -1.40188,-3.03236 -1.49508,-3.165076 -0.0933,-0.132713 -0.86593,0.404723 -1.7172,1.194301 -1.2549,1.163945 -4.47906,2.719265 -5.63704,2.719265 -0.13666,0 0.40979,-0.782215 1.21424,-1.738246 2.6047,-3.095516 1.83176,-10.309791 -1.5433,-14.40433 -3.80491,-4.616006 -11.31404,-6.105668 -17.12915,-3.398066 -6.7031,3.12107 -10.08923,8.346084 -9.71387,14.989152 0.30587,5.412891 2.45225,9.466339 7.84995,14.824668 3.6188,3.592377 5.38138,4.83103 10.21992,7.18206 5.8317,2.833572 10.43545,4.250006 32.40027,9.96849 11.63473,3.029067 18.72626,5.521088 25.98834,9.132501 14.35414,7.138291 23.79881,16.17058 27.77415,26.561521 1.99314,5.20973 2.43834,13.17945 1.05836,18.94621 -3.80045,15.8815 -15.3686,24.0079 -34.61979,24.31973 -6.66791,0.10809 -7.78621,0.42905 -6.39238,1.83518 0.60007,0.60537 1.72783,8.81897 1.72783,12.58405 0,1.94231 0.6546,3.64179 3.0523,7.92432 7.08464,12.65389 13.2078,29.39973 16.18391,44.26028 0.95262,4.75665 2.45872,10.93654 3.34689,13.73311 3.30606,10.4098 5.65975,21.7588 6.73719,32.48544 0.3466,3.45041 1.02738,6.47685 1.90631,8.47446 2.14583,4.87704 2.71987,8.06818 3.25109,18.07329 0.71131,13.39639 3.46506,27.98524 7.16825,37.97587 1.57477,4.24854 7.29463,12.51211 10.40774,15.03628 4.2692,3.46155 8.35976,14.5454 7.49643,20.31248 -0.65523,4.37716 -2.61126,6.32727 -9.03286,9.00552 -1.55681,0.64929 -10.10492,1.84037 -13.28017,1.85044 -1.01483,0.004 -1.66009,-0.42804 -2.10651,-1.40779 -0.81229,-1.78278 -1.75606,-1.78295 -3.82843,-5.7e-4 -1.50735,1.29633 -2.09087,1.41178 -7.13896,1.41242 -5.30187,5.6e-4 -5.60573,-0.0687 -8.54201,-1.94692 -1.73905,-1.11245 -3.19403,-2.50546 -3.39306,-3.24855 -1.27751,-4.76972 1.59305,-17.35014 5.02242,-22.01095 5.2275,-7.10464 5.50098,-16.61637 0.84113,-29.25458 -3.55538,-9.64269 -9.67089,-19.55946 -14.50461,-23.52034 -2.05921,-1.68736 -2.60116,-2.59823 -3.60437,-6.05787 -2.70302,-9.32158 -2.5087,-8.98518 -8.93323,-15.46668 -3.33594,-3.36551 -7.66162,-8.34363 -9.61267,-11.06252 -1.95103,-2.7189 -3.66727,-4.94344 -3.81386,-4.94344 -0.14654,0 -1.33687,0.53587 -2.64509,1.19083 -3.41477,1.70959 -5.81848,4.18168 -8.45551,8.69604 -1.27056,2.17512 -3.99877,5.65004 -6.06269,7.72206 -3.08905,3.10119 -4.32215,3.93289 -6.97392,4.70378 -5.75488,1.67298 -9.04895,0.16631 -16.6741,-7.62623 -6.30713,-6.44567 -7.67751,-7.08326 -10.4091,-4.84322 -4.58351,3.75873 -10.86947,8.3318 -13.42695,9.76819 -3.06274,1.7202 -3.24776,2.18672 -1.90048,4.79207 l 0.90434,1.74884 -1.7518,-0.35037 c -2.3037,-0.46074 -2.25815,0.0473 0.49587,5.52928 1.23623,2.46079 2.18961,4.53065 2.11861,4.59971 -0.071,0.0691 -1.08243,-0.20305 -2.24768,-0.60473 -1.16523,-0.40165 -2.1186,-0.65421 -2.1186,-0.56122 0,1.11088 2.95665,6.44523 5.23416,9.44341 2.30906,3.03974 3.20425,3.81351 4.4118,3.81351 2.07692,0 2.80149,1.08051 3.17928,4.74119 l 0.32248,3.12436 -2.86559,3.1354 c -3.01574,3.29971 -6.60752,9.78727 -7.21685,13.03527 -0.33671,1.79476 -0.78208,2.13087 -6.6565,5.02317 -3.4626,1.70482 -8.23472,3.58406 -10.60469,4.17605 -3.88152,0.96958 -4.69428,1.00184 -8.19198,0.32519 -5.88248,-1.13801 -6.11883,-1.09177 -7.25063,1.41813 -0.97693,2.16645 -0.97154,2.25601 0.26801,4.46153 0.69573,1.23789 1.88218,2.53192 2.63656,2.87562 1.72237,0.78476 4.27269,6.11232 5.81735,12.15227 1.43017,5.59229 1.48124,9.39464 0.14831,11.04071 -1.51738,1.87389 -7.97055,3.55864 -14.6476,3.82415 -5.21257,0.20726 -5.86394,0.12007 -6.908,-0.92393 -1.20798,-1.20798 -2.57118,-1.08564 -3.09435,0.27771 -0.23966,0.62455 -1.63331,0.80376 -6.25017,0.80376 -6.22477,0 -9.71862,-0.59747 -13.72622,-2.34722 -2.73099,-1.19238 -2.77613,-1.39274 -1.80137,-7.99639 1.09079,-7.38994 3.57113,-13.49326 6.68509,-16.4499 2.13656,-2.02863 2.65853,-4.49427 1.72365,-8.14196 -0.6336,-2.47223 -0.57097,-3.36771 0.56489,-8.07476 0.70265,-2.91181 1.40445,-7.96365 1.55959,-11.22632 l 0.28206,-5.93213 -1.50657,1.97739 c -3.89987,5.11861 -6.07742,11.6175 -6.8148,20.3387 -0.51542,6.09591 -1.18668,8.19556 -3.14766,9.84563 -0.95015,0.7995 -1.94156,1.45365 -2.2031,1.45365 -0.26156,0 -0.99605,-0.8422 -1.63223,-1.87156 -1.50897,-2.44157 -3.6632,-3.64771 -4.81202,-2.69426 -1.37608,1.14203 -1.65699,3.75219 -0.58061,5.39493 3.38253,5.16239 -4.46148,21.13229 -11.27409,22.95333 -1.27874,0.34183 -2.68319,0.91444 -3.12097,1.27247 -0.8585,0.70207 -44.840304,0.96507 -45.533116,0.27227 -0.509275,-0.50927 2.726306,-8.38001 5.150123,-12.52795 2.881528,-4.93124 7.712673,-10.67353 11.913523,-14.16042 3.83016,-3.1792 3.81863,-3.17253 10.33917,-5.97709 5.32118,-2.28871 6.77957,-3.79025 6.77957,-6.98009 0,-4.18623 1.93597,-6.96925 6.92649,-9.95697 5.17191,-3.09634 7.85096,-5.56986 12.25774,-11.3174 4.45477,-5.81012 7.16697,-10.14975 9.3842,-15.01514 l 1.87758,-4.12012 -1.12575,-1.43118 c -0.61918,-0.78716 -3.31419,-2.87236 -5.98892,-4.63382 l -4.86315,-3.20263 -4.40497,0.94657 c -6.14967,1.3215 -10.92514,2.94731 -15.05191,5.12442 -1.94207,1.02457 -3.53103,1.66989 -3.53103,1.43407 0,-0.2358 0.38407,-1.5173 0.85348,-2.84775 0.46942,-1.33048 0.78722,-2.47825 0.70621,-2.55064 -0.58364,-0.52161 -7.36101,1.37452 -8.43676,2.36041 -1.64385,1.50654 -4.16448,2.77978 -6.49713,3.28187 -1.55415,0.33453 -1.84291,0.68456 -2.1721,2.63294 -0.49331,2.91999 -3.885461,7.92028 -6.848794,10.09565 -2.598842,1.90769 -6.365762,3.40552 -8.564954,3.40552 h -1.439869 l 1.241903,-1.32195 c 1.130807,-1.20369 2.594494,-4.83134 2.134805,-5.29101 -0.104881,-0.10488 -1.562378,0.44781 -3.238867,1.22823 -3.891567,1.81154 -7.92121,1.89917 -10.656398,0.23178 l -1.958569,-1.19396 2.031418,-1.04218 c 2.381518,-1.22179 4.845768,-3.97417 5.34731,-5.97253 0.194692,-0.77564 0.23431,-3.23482 0.08808,-5.46484 -0.436476,-6.65549 -3.023014,-10.71815 -14.271443,-22.41592 -3.436129,-3.5734 -7.661143,-8.10423 -9.388911,-10.06848 l -3.141398,-3.5714 -7.775216,6.02861 c -8.844119,6.8574 -17.041277,14.69563 -20.875411,19.96138 -2.2128,3.03904 -2.617581,3.99747 -2.624642,6.2146 -0.02321,7.28478 -3.169922,14.68651 -8.440067,19.85284 -3.176464,3.11389 -4.1944801,4.63855 -6.6951915,10.02722 -4.4817014,9.65741 -4.8703578,11.61066 -3.6956794,18.57314 1.0279528,6.09277 0.6929183,9.36905 -0.9912405,9.69339 -0.4752882,0.0914 -1.83595805,-0.60587 -3.0237103,-1.54977 -4.0774486,-3.24035 -4.6154632,-1.94452 -2.2260437,5.36153 1.3427794,4.10577 1.4526927,5.12849 1.2429677,11.56609 -0.1497511,4.5966 -0.5160735,7.64639 -1.0493085,8.73584 -1.0699413,2.186 -3.9216023,4.06617 -6.9057668,4.55311 -1.313366,0.2143 -3.180651,0.87124 -4.149514,1.45984 -1.528539,0.92862 -2.921299,1.0702 -10.528099,1.0702 h -8.766527 z"
       id="path1909-3" />
    <path
       style="fill:#ffd42a;stroke-width:0.564964"
       d="m 219.68692,195.40239 c 1.34945,-0.92845 2.5393,-1.88182 2.64414,-2.11861 0.10489,-0.2368 1.67137,-1.42791 3.4812,-2.64694 3.98334,-2.68296 11.39325,-9.90609 15.69309,-15.29749 14.48818,-18.16617 16.78286,-38.78379 6.25443,-56.19592 -2.2028,-3.64305 -7.17893,-9.05743 -8.32431,-9.05743 -0.41751,0 -0.7603,2.20634 -0.98752,6.35584 -0.9107,16.63179 -8.37923,31.49977 -21.57118,42.94288 -4.01179,3.47997 -16.30629,12.16623 -18.4175,13.01228 -0.58717,0.2353 -0.29948,0.78548 1.09642,2.09677 1.87563,1.76195 5.705,9.14582 5.76654,11.11915 0.0182,0.58185 1.50628,2.09959 3.43894,3.50731 1.87381,1.36488 4.32892,3.71656 5.45576,5.22593 1.12685,1.50937 2.26654,2.7443 2.53264,2.7443 0.26609,0 1.5879,-0.75962 2.93735,-1.68807 z"
       id="path2112" />
    <path
       style="fill:#ffcc00;stroke-width:0.564964"
       d="m 121.11059,227.10097 4.23723,-0.34988 -0.14654,-1.6949 c -0.0805,-0.93219 0.20381,-3.15674 0.63205,-4.94344 0.4282,-1.78669 0.71587,-3.24854 0.63924,-3.24854 -0.0766,0 -1.11555,0.40791 -2.30874,0.90645 -5.28662,2.20889 -11.7525,-0.13613 -14.8111,-5.37151 l -1.45333,-2.48773 1.66216,0.37181 c 0.91419,0.20448 2.96536,0.53 4.55816,0.72336 2.738,0.33241 3.01375,0.24368 5.05423,-1.62627 l 2.15824,-1.97788 -0.67576,-3.66747 c -0.37168,-2.01711 -0.67571,-4.40087 -0.67565,-5.29724 l 1.2e-4,-1.62975 h -13.41801 c -12.269805,0 -13.876138,-0.11525 -18.771394,-1.34816 -12.114352,-3.0508 -20.375384,-7.79309 -29.264878,-16.79966 -4.743332,-4.80581 -5.876302,-5.69903 -6.194406,-4.88366 -0.214111,0.54884 -0.39519,4.43005 -0.40238,8.62491 -0.01482,8.58612 0.69868,11.82277 3.992879,18.11509 5.301577,10.12663 15.529085,18.28955 28.182731,22.49357 11.229616,3.7309 24.114488,5.15531 37.005148,4.0909 z"
       id="path2108" />
    <path
       id="path1988"
       style="display:inline;fill:#ff0000;stroke-width:0.564964"
       d="m 222.46391,237.20272 c -0.78959,0 -5.92822,5.61667 -7.70313,8.41992 -0.93264,1.47303 -0.96952,1.75 -0.23633,1.75 1.68005,0 4.89063,2.33068 4.89063,3.55078 0,1.09295 0.12735,1.05868 1.74414,-0.47851 0.95994,-0.91266 2.10462,-2.34647 2.54297,-3.18555 1.53925,-2.94635 0.6636,-10.05664 -1.23828,-10.05664 z M 149.31352,263.191 c -5.44025,0 -5.60344,0.0374 -5.58399,1.27149 0.0556,3.53101 4.17294,6.64586 8.73633,6.60937 1.55366,-0.0124 3.58733,-0.372 4.51953,-0.79883 1.08572,-0.49716 1.34324,-0.79092 0.7168,-0.82031 -1.10816,-0.0519 -1.82586,-2.19327 -1.42969,-4.26562 0.34813,-1.82122 -0.2573,-1.9961 -6.95898,-1.9961 z" />
    <path
       id="path1948"
       style="display:inline;fill:#00ffff;stroke-width:0.564964"
       d="m 110.44438,337.80819 c -0.75169,0.086 -5.28165,3.78617 -8.90821,7.31445 -2.402914,2.3378 -5.077742,5.70403 -6.60742,8.31446 -2.585114,4.41155 -5.457031,10.44223 -5.457031,11.46289 0,0.61975 8.524651,0.67793 12.339841,0.084 2.28653,-0.35599 2.53534,-0.57346 3.67383,-3.20703 0.67164,-1.55364 1.91977,-3.99042 2.77344,-5.41602 1.16134,-1.9393 1.55273,-3.33235 1.55273,-5.52929 0,-2.76124 -0.0684,-2.89876 -1.13086,-2.33008 -0.85887,0.45966 -1.15244,1.2429 -1.22461,3.26758 -0.0877,2.45941 -0.11172,2.50106 -0.3164,0.54492 -0.1218,-1.16524 -0.37659,-2.11914 -0.56641,-2.11914 -1.0136,0 -2.41236,2.09229 -2.41992,3.61914 -0.005,0.96171 -0.25543,2.12961 -0.55664,2.5957 -0.41718,0.64555 -0.55006,0.42205 -0.55664,-0.9414 -0.005,-0.98445 -0.121,-2.12914 -0.25977,-2.54297 -0.28268,-0.84387 3.94201,-4.35055 9.54688,-7.92383 l 3.69336,-2.35547 -2.0625,-1.16797 c -1.13405,-0.64296 -2.33917,-1.67736 -2.67969,-2.29883 -0.34052,-0.62146 -0.67104,-1.22473 -0.73438,-1.33984 -0.0151,-0.0275 -0.0495,-0.037 -0.0996,-0.0312 z m 258.09179,2.29297 c -0.29716,-0.0514 -0.53099,0.2281 -0.75,0.79883 -0.47783,1.24517 -3.50329,2.36897 -7.63086,2.83593 -3.2003,0.36207 -3.8949,0.24331 -6.89258,-1.18945 l -3.33398,-1.59375 -2.61914,1.30664 c -5.08595,2.54004 -9.11091,2.70807 -11.50195,0.48047 -1.17863,-1.0981 -1.23957,-1.09914 -1.99024,-0.0859 -1.48945,2.01044 -3.78917,10.11254 -4.08789,14.40235 -0.41888,6.01587 -0.0988,6.92907 2.71289,7.77148 2.94777,0.88317 9.57099,1.45088 11.44531,0.98047 1.36349,-0.34224 1.43542,-0.5561 1.44727,-4.30664 0.007,-2.17065 0.16991,-4.90305 0.36133,-6.07227 0.57192,-3.49281 3.23533,-12.01367 3.75586,-12.01367 0.26592,0 0.0945,0.93076 -0.38086,2.06836 -0.47533,1.1376 -0.73268,2.53599 -0.57227,3.10742 0.16049,0.5714 0.42933,1.6114 0.59766,2.31055 0.29412,1.22159 0.27456,1.21772 -0.49609,-0.0977 -0.77606,-1.3247 -0.81382,-1.33259 -1.16797,-0.21679 -0.20127,0.63416 -0.10382,1.83963 0.21484,2.67773 0.80317,2.11249 0.72566,2.41551 -0.29102,1.13477 -0.81246,-1.02351 -0.85761,-0.92743 -0.6621,1.44531 0.11526,1.39829 0.41402,3.05042 0.66406,3.67187 l 0.45508,1.13086 -0.96094,-1.13086 c -0.91881,-1.08105 -0.94432,-0.99632 -0.60352,1.9668 0.1959,1.70338 0.44425,3.18643 0.55274,3.29492 0.10859,0.10846 0.69277,-0.0673 1.29687,-0.39062 1.14372,-0.61211 1.81301,-3.61438 1.83008,-8.19727 0.005,-1.27725 0.28071,-2.70382 0.61133,-3.16992 0.43207,-0.60909 0.50389,0.84908 0.25781,5.18359 -0.34102,6.00737 0.0647,7.65985 1.52149,6.20313 1.04293,-1.04294 0.79545,-13.43951 -0.34375,-17.23828 -0.54582,-1.82009 -0.86746,-3.43528 -0.71485,-3.58789 0.15254,-0.15253 0.70785,1.08216 1.23242,2.74414 0.64336,2.03843 1.04522,5.82673 1.23633,11.63867 l 0.2832,8.61523 h 2.6504 c 1.45734,0 4.6681,-0.52813 7.13476,-1.17382 2.4667,-0.64569 5.40346,-1.69109 6.52734,-2.32227 4.99472,-2.80513 5.15974,-10.43253 0.42774,-19.80859 -1.05302,-2.08651 -1.72153,-3.08818 -2.2168,-3.17383 z m -408.960935,1.03125 -2.369141,2.97851 c -3.741583,4.70018 -7.015489,10.04018 -8.330078,13.5918 -1.176898,3.17965 -1.63941,7.7482 -0.785156,7.7461 0.233046,-5.7e-4 3.92383,-0.37089 8.203125,-0.82227 4.279292,-0.45135 8.03001,-0.97424 8.333984,-1.16211 0.303973,-0.18786 0.552734,-0.94109 0.552734,-1.67383 0,-0.73272 0.532266,-2.56077 1.183594,-4.0625 2.733091,-6.30152 2.683835,-6.5954 -0.386719,-2.30664 -1.16796,1.63134 -2.373166,3.22051 -2.679687,3.53125 -0.792524,0.80343 1.763115,-3.49005 3.822266,-6.42187 3.482354,-4.9582 4.281348,-6.28907 3.777343,-6.28907 -0.684222,0 -8.694327,8.54061 -11.521484,12.28516 -1.232631,1.63261 -2.354949,2.96875 -2.494141,2.96875 -0.69473,0 8.514212,-11.96309 11.0625,-14.37109 0.965806,-0.91265 1.75586,-1.83472 1.75586,-2.04883 0,-0.21412 -1.379811,-0.50465 -3.066407,-0.64453 -2.190198,-0.18162 -3.637091,-0.68818 -5.0625,-1.77539 z m 160.148435,1.27148 c -0.007,0.002 -0.0157,0.007 -0.0254,0.0117 -0.31073,0.15748 -1.55045,0.74384 -2.7539,1.30469 -1.44851,0.67506 -2.44984,1.65027 -2.96485,2.88281 -1.39666,3.34272 -1.2739,3.30003 2.91211,-1.00586 1.7967,-1.84815 3.03868,-3.2508 2.83203,-3.19336 z m 78.4043,0.44727 c -0.16561,0 -1.04693,0.62707 -1.95899,1.39453 -2.06406,1.73678 -9.04442,3.87027 -11.66406,3.56445 l -1.95703,-0.22851 0.34961,3.70703 c 0.19269,2.03966 0.35326,6.29756 0.35547,9.46094 0.004,5.51584 0.0563,5.76154 1.27539,5.99023 1.58362,0.29708 6.49544,-0.0708 10.5918,-0.79297 1.70901,-0.30131 4.15925,-0.92676 5.44336,-1.39062 2.89518,-1.04584 3.23441,-2.29664 2.21093,-8.15235 -0.69256,-3.96228 -3.98068,-13.55273 -4.64648,-13.55273 z m -33.73438,0.0762 -1.32031,1.79102 c -1.8803,2.54859 -4.10608,10.03833 -4.5,15.14648 l -0.33594,4.36133 2.19922,0.62305 c 8.40016,2.38519 11.79465,2.47995 18.17969,0.50781 v 0.002 l 3.62891,-1.12109 -0.27149,-4.05469 c -0.15025,-2.23016 -0.41591,-6.21854 -0.58789,-8.86133 -0.17196,-2.64281 -0.60407,-5.56551 -0.96094,-6.49609 l -0.64843,-1.69141 -0.79493,1.50391 c -0.68696,1.30092 -0.67868,1.82957 0.0527,3.90234 1.10925,3.14395 0.68259,3.51313 -0.53711,0.46485 -0.93261,-2.33087 -0.96195,-2.34965 -1.80469,-1.14649 -0.77392,1.10495 -0.74799,1.50702 0.26367,4.18164 1.83781,4.85879 1.88846,5.41049 0.16993,1.86133 -1.49374,-3.085 -1.67554,-3.26012 -2.25586,-2.17578 -0.49474,0.92441 -0.38905,1.88363 0.48828,4.43359 1.45507,4.22926 1.36883,4.61769 -0.24414,1.09766 l -1.29492,-2.82422 -0.60938,2.14258 c -0.47704,1.67732 -0.43022,2.59672 0.2168,4.23633 0.67231,1.70368 0.67883,1.91162 0.0391,1.10742 -1.15619,-1.45348 -1.50781,-1.22258 -1.50781,0.98828 0,1.08754 -0.27185,1.97656 -0.60352,1.97656 -0.33166,0 -0.47781,-0.4445 -0.32422,-0.98828 0.15361,-0.54378 0.45532,-2.13297 0.66992,-3.53125 0.21462,-1.39829 1.22698,-4.89333 2.25,-7.76758 l 1.85938,-5.22656 -2.91406,-0.004 c -4.57247,-0.005 -7.17963,-0.93927 -7.89258,-2.82812 z m -17.85351,1.16016 -1.73828,1.62304 c -2.09738,1.95925 -4.37005,2.47721 -10.69727,2.4375 -4.90792,-0.0308 -9.75798,-1.13803 -12.31055,-2.81054 -1.35947,-0.89077 -1.44929,-0.84335 -5.02539,2.68164 -4.74571,4.67786 -9.76624,12.21961 -11.18554,16.80273 l -0.41797,1.35156 12.63476,-0.32421 c 8.1701,-0.20916 13.8049,-0.61521 15.95118,-1.15039 1.82536,-0.45517 3.98689,-1.3258 4.80273,-1.9336 3.80527,-2.83487 9.1662,-13.96937 8.33008,-17.30078 z m -149.537111,1.89843 -1.78125,1.49805 c -1.2501154,1.05191 -2.7446609,1.61912 -5.0117187,1.90235 -3.8932323,0.48644 -11.0828403,-0.51847 -14.6484373,-2.04688 l -2.548828,-1.0918 -1.931641,4.1836 c -1.063148,2.30103 -2.720871,6.53072 -3.681641,9.39843 -1.413529,4.2191 -1.602826,5.31393 -0.99414,5.73829 1.073527,0.74841 16.931415,0.0635 21.521484,-0.92969 7.3950782,-1.60023 8.1093523,-2.64437 8.7187501,-12.73438 z m 115.783201,0.082 c -0.23974,-0.005 -0.61999,0.24387 -1.14648,0.73437 -0.90902,0.84686 -1.26367,1.8239 -1.26367,3.48438 0,1.98169 0.11932,2.20866 0.84375,1.60742 0.46386,-0.38499 1.11415,-1.70573 1.44531,-2.93555 0.52416,-1.94657 0.57879,-2.88167 0.12109,-2.89062 z" />
    <path
       style="display:inline;fill:#000000;stroke-width:0.564964"
       d="m -34.531997,366.79055 c -0.940925,-1.43603 -1.102923,-1.47277 -5.008411,-1.13568 -2.219819,0.19158 -6.387701,0.5154 -9.261955,0.71959 l -5.225918,0.37125 v -1.94168 c 0,-6.42056 4.423873,-15.26964 11.717699,-23.43889 5.813975,-6.5118 6.360965,-7.26124 7.247168,-9.92933 0.692562,-2.08511 1.741474,-3.44346 4.597367,-5.95363 11.522365,-10.12749 12.24571,-11.12674 17.281785,-23.87335 2.371289,-6.0019 2.586477,-6.97077 2.823328,-12.7117 0.318876,-7.72918 1.840935,-12.72893 6.8384282,-22.46323 3.36974437,-6.56373 3.60083242,-7.26427 3.96724501,-12.02698 C 2.0730958,233.2414 6.6975536,216.43338 14.72915,202.489 l 2.585163,-4.48835 -0.356605,-6.52845 c -0.684765,-12.53603 1.131679,-28.32444 4.456012,-38.73142 0.794058,-2.48584 2.809397,-7.4434 4.478533,-11.0168 1.669135,-3.57339 4.151199,-9.43122 5.5157,-13.01741 2.745076,-7.21461 6.478705,-13.87461 11.006357,-19.63304 3.238435,-4.11875 9.852083,-13.942522 14.99016,-22.266075 1.783162,-2.888693 4.178911,-6.486382 5.323876,-7.994911 l 2.081759,-2.742736 -2.731593,0.200399 c -3.360488,0.246552 -3.969802,-0.75285 -1.246783,-2.045007 1.921571,-0.911853 4.132128,-3.830862 6.581183,-8.690367 l 1.240458,-2.461347 -2.528884,0.201486 c -2.903839,0.231358 -2.890213,0.09747 0.473512,-4.649359 1.009804,-1.425056 2.010615,-3.141125 2.224022,-3.813505 0.213408,-0.672391 0.633688,-1.22252 0.933954,-1.22252 0.300253,0 1.296864,-0.768193 2.214659,-1.707088 0.917807,-0.938895 2.558001,-2.310559 3.644903,-3.048141 l 1.976149,-1.341077 -1.404068,-0.352397 c -2.193213,-0.55045 -1.667001,-1.705828 1.561983,-3.429557 1.631324,-0.870864 3.545742,-2.295809 4.254243,-3.166537 0.708526,-0.87074 2.748382,-2.470155 4.532989,-3.554253 l 3.244809,-1.971109 4.223952,0.590252 c 5.474465,0.765 5.262626,0.784137 9.873587,-0.892022 2.8828,-1.047941 5.09536,-1.441562 8.16284,-1.452196 8.26719,-0.02863 16.52182,3.485259 40.32632,17.16647 19.00561,10.923124 22.30891,12.488826 28.66128,13.584895 16.83687,2.905111 35.66843,10.360753 48.83656,19.335017 l 5.64965,3.850294 8.75694,0.0011 c 4.81631,5.56e-4 10.31248,-0.181881 12.21367,-0.4059 l 3.45675,-0.407297 5.01772,3.326404 c 6.35123,4.21045 13.82596,10.960884 21.18403,19.131354 5.60892,6.22824 5.91181,6.46586 12.02517,9.43473 8.45848,4.10773 12.09281,4.97754 19.55101,4.67917 4.86876,-0.19477 6.51285,-0.5019 9.15044,-1.70944 15.28588,-6.99783 12.17177,-24.304488 -6.04615,-33.601044 -7.06202,-3.603729 -14.0984,-6.058195 -28.72545,-10.020153 -14.09458,-3.817742 -21.52004,-6.353618 -28.99889,-9.903449 -14.35938,-6.815641 -22.71976,-14.742027 -26.23425,-24.872386 -1.69319,-4.880556 -1.82285,-14.014615 -0.26465,-18.643813 3.0181,-8.966382 8.48379,-14.524442 17.27499,-17.566989 2.99085,-1.0351043 4.93024,-1.2754575 10.45184,-1.2953208 8.00491,-0.028809 12.48434,1.0434319 21.01718,5.0308578 7.20413,3.366509 11.98329,4.792026 16.0656,4.792026 5.69063,0 9.23275,-2.295793 9.1301,-5.9175757 -0.077,-2.7159746 -1.47838,-4.354104 -6.98669,-8.1670532 -7.91638,-5.4798414 -11.06745,-9.5247866 -11.68448,-14.9990841 -0.54678,-4.850997 2.64454,-10.551269 6.77986,-12.110034 0.8545,-0.322098 1.55364,-0.518564 1.55364,-0.436588 0,0.08198 -0.50847,1.146369 -1.12993,2.36533 -0.62146,1.218961 -1.12434,3.115907 -1.11751,4.215446 0.0141,2.396898 1.62618,6.108125 3.29759,7.595123 l 1.20971,1.076252 v -1.988748 c 0,-2.099639 1.7862,-4.96595 3.09463,-4.96595 0.414,0 1.39085,1.080494 2.17077,2.401097 2.04437,3.461738 4.55536,5.597857 9.87764,8.4030164 9.45801,4.9849555 12.96221,8.9723937 14.25826,16.2245773 0.57213,3.2014923 0.53479,4.3267083 -0.24456,7.3688603 -0.50591,1.974714 -1.6714,4.703993 -2.58996,6.06506 -0.91858,1.36106 -1.41238,2.47466 -1.09738,2.47466 1.03462,0 6.00683,-5.408236 7.83891,-8.526325 l 1.79525,-3.055438 -0.21161,5.084676 c -0.2426,5.82921 -1.78945,9.683345 -5.41067,13.481339 -1.90773,2.000831 -1.96322,2.146473 -0.66811,1.753596 0.77682,-0.235651 2.30222,-0.98124 3.38978,-1.656864 1.08756,-0.675624 2.35873,-1.455117 2.82483,-1.732208 1.53677,-0.913604 -2.84232,4.180824 -6.05544,7.044635 -10.44526,9.309725 -25.2648,10.475604 -35.94476,2.827852 l -3.16546,-2.266729 -0.35809,1.426737 c -0.19694,0.784697 -0.26116,2.442989 -0.14266,3.685089 l 0.21538,2.258366 -2.3386,-2.295154 c -1.28623,-1.262336 -2.93513,-3.610845 -3.66421,-5.21892 -0.7291,-1.608081 -1.40188,-3.03236 -1.49508,-3.165076 -0.0933,-0.132713 -0.86593,0.404723 -1.7172,1.194301 -1.2549,1.163945 -4.47906,2.719265 -5.63704,2.719265 -0.13666,0 0.40979,-0.782215 1.21424,-1.738246 2.6047,-3.095516 1.83176,-10.309791 -1.5433,-14.40433 -3.80491,-4.616006 -11.31404,-6.105668 -17.12915,-3.398066 -6.7031,3.12107 -10.08923,8.346084 -9.71387,14.989152 0.30587,5.412891 2.45225,9.466339 7.84995,14.824668 3.6188,3.592377 5.38138,4.83103 10.21992,7.18206 5.8317,2.833572 10.43545,4.250006 32.40027,9.96849 11.63473,3.029067 18.72626,5.521088 25.98834,9.132501 14.35414,7.138291 23.79881,16.17058 27.77415,26.561521 1.99314,5.20973 2.43834,13.17945 1.05836,18.94621 -3.80045,15.8815 -15.3686,24.0079 -34.61979,24.31973 -6.66791,0.10809 -7.78621,0.42905 -6.39238,1.83518 0.60007,0.60537 1.72783,8.81897 1.72783,12.58405 0,1.94231 0.6546,3.64179 3.0523,7.92432 7.08464,12.65389 13.2078,29.39973 16.18391,44.26028 0.95262,4.75665 2.45872,10.93654 3.34689,13.73311 3.30606,10.4098 5.65975,21.7588 6.73719,32.48544 0.3466,3.45041 1.02738,6.47685 1.90631,8.47446 2.14583,4.87704 2.71987,8.06818 3.25109,18.07329 0.71131,13.39639 3.46506,27.98524 7.16825,37.97587 1.57477,4.24854 7.29463,12.51211 10.40774,15.03628 4.2692,3.46155 8.35976,14.5454 7.49643,20.31248 -0.65523,4.37716 -2.61126,6.32727 -9.03286,9.00552 -1.55681,0.64929 -10.10492,1.84037 -13.28017,1.85044 -1.01483,0.004 -1.66009,-0.42804 -2.10651,-1.40779 -0.81229,-1.78278 -1.75606,-1.78295 -3.82843,-5.7e-4 -1.50735,1.29633 -2.09087,1.41178 -7.13896,1.41242 -5.30187,5.6e-4 -5.60573,-0.0687 -8.54201,-1.94692 -1.73905,-1.11245 -3.19403,-2.50546 -3.39306,-3.24855 -1.27751,-4.76972 1.59305,-17.35014 5.02242,-22.01095 5.2275,-7.10464 5.50098,-16.61637 0.84113,-29.25458 -3.55538,-9.64269 -9.67089,-19.55946 -14.50461,-23.52034 -2.05921,-1.68736 -2.60116,-2.59823 -3.60437,-6.05787 -2.70302,-9.32158 -2.5087,-8.98518 -8.93323,-15.46668 -3.33594,-3.36551 -7.66162,-8.34363 -9.61267,-11.06252 -1.95103,-2.7189 -3.66727,-4.94344 -3.81386,-4.94344 -0.14654,0 -1.33687,0.53587 -2.64509,1.19083 -3.41477,1.70959 -5.81848,4.18168 -8.45551,8.69604 -1.27056,2.17512 -3.99877,5.65004 -6.06269,7.72206 -3.08905,3.10119 -4.32215,3.93289 -6.97392,4.70378 -5.75488,1.67298 -9.04895,0.16631 -16.6741,-7.62623 -6.30713,-6.44567 -7.67751,-7.08326 -10.4091,-4.84322 -4.58351,3.75873 -10.86947,8.3318 -13.42695,9.76819 -3.06274,1.7202 -3.24776,2.18672 -1.90048,4.79207 l 0.90434,1.74884 -1.7518,-0.35037 c -2.3037,-0.46074 -2.25815,0.0473 0.49587,5.52928 1.23623,2.46079 2.18961,4.53065 2.11861,4.59971 -0.071,0.0691 -1.08243,-0.20305 -2.24768,-0.60473 -1.16523,-0.40165 -2.1186,-0.65421 -2.1186,-0.56122 0,1.11088 2.95665,6.44523 5.23416,9.44341 2.30906,3.03974 3.20425,3.81351 4.4118,3.81351 2.07692,0 2.80149,1.08051 3.17928,4.74119 l 0.32248,3.12436 -2.86559,3.1354 c -3.01574,3.29971 -6.60752,9.78727 -7.21685,13.03527 -0.33671,1.79476 -0.78208,2.13087 -6.6565,5.02317 -3.4626,1.70482 -8.23472,3.58406 -10.60469,4.17605 -3.88152,0.96958 -4.69428,1.00184 -8.19198,0.32519 -5.88248,-1.13801 -6.11883,-1.09177 -7.25063,1.41813 -0.97693,2.16645 -0.97154,2.25601 0.26801,4.46153 0.69573,1.23789 1.88218,2.53192 2.63656,2.87562 1.72237,0.78476 4.27269,6.11232 5.81735,12.15227 1.43017,5.59229 1.48124,9.39464 0.14831,11.04071 -1.51738,1.87389 -7.97055,3.55864 -14.6476,3.82415 -5.21257,0.20726 -5.86394,0.12007 -6.908,-0.92393 -1.20798,-1.20798 -2.57118,-1.08564 -3.09435,0.27771 -0.23966,0.62455 -1.63331,0.80376 -6.25017,0.80376 -6.22477,0 -9.71862,-0.59747 -13.72622,-2.34722 -2.73099,-1.19238 -2.77613,-1.39274 -1.80137,-7.99639 1.09079,-7.38994 3.57113,-13.49326 6.68509,-16.4499 2.13656,-2.02863 2.65853,-4.49427 1.72365,-8.14196 -0.6336,-2.47223 -0.57097,-3.36771 0.56489,-8.07476 0.70265,-2.91181 1.40445,-7.96365 1.55959,-11.22632 l 0.28206,-5.93213 -1.50657,1.97739 c -3.89987,5.11861 -6.07742,11.6175 -6.8148,20.3387 -0.51542,6.09591 -1.18668,8.19556 -3.14766,9.84563 -0.95015,0.7995 -1.94156,1.45365 -2.2031,1.45365 -0.26156,0 -0.99605,-0.8422 -1.63223,-1.87156 -1.50897,-2.44157 -3.6632,-3.64771 -4.81202,-2.69426 -1.37608,1.14203 -1.65699,3.75219 -0.58061,5.39493 3.38253,5.16239 -4.46148,21.13229 -11.27409,22.95333 -1.27874,0.34183 -2.68319,0.91444 -3.12097,1.27247 -0.8585,0.70207 -44.840304,0.96507 -45.533116,0.27227 -0.509275,-0.50927 2.726306,-8.38001 5.150123,-12.52795 2.881528,-4.93124 7.712673,-10.67353 11.913523,-14.16042 3.83016,-3.1792 3.81863,-3.17253 10.33917,-5.97709 5.32118,-2.28871 6.77957,-3.79025 6.77957,-6.98009 0,-4.18623 1.93597,-6.96925 6.92649,-9.95697 5.17191,-3.09634 7.85096,-5.56986 12.25774,-11.3174 4.45477,-5.81012 7.16697,-10.14975 9.3842,-15.01514 l 1.87758,-4.12012 -1.12575,-1.43118 c -0.61918,-0.78716 -3.31419,-2.87236 -5.98892,-4.63382 l -4.86315,-3.20263 -4.40497,0.94657 c -6.14967,1.3215 -10.92514,2.94731 -15.05191,5.12442 -1.94207,1.02457 -3.53103,1.66989 -3.53103,1.43407 0,-0.2358 0.38407,-1.5173 0.85348,-2.84775 0.46942,-1.33048 0.78722,-2.47825 0.70621,-2.55064 -0.58364,-0.52161 -7.36101,1.37452 -8.43676,2.36041 -1.64385,1.50654 -4.16448,2.77978 -6.49713,3.28187 -1.55415,0.33453 -1.84291,0.68456 -2.1721,2.63294 -0.49331,2.91999 -3.885461,7.92028 -6.848794,10.09565 -2.598842,1.90769 -6.365762,3.40552 -8.564954,3.40552 h -1.439869 l 1.241903,-1.32195 c 1.130807,-1.20369 2.594494,-4.83134 2.134805,-5.29101 -0.104881,-0.10488 -1.562378,0.44781 -3.238867,1.22823 -3.891567,1.81154 -7.92121,1.89917 -10.656398,0.23178 l -1.958569,-1.19396 2.031418,-1.04218 c 2.381518,-1.22179 4.845768,-3.97417 5.34731,-5.97253 0.194692,-0.77564 0.23431,-3.23482 0.08808,-5.46484 -0.436476,-6.65549 -3.023014,-10.71815 -14.271443,-22.41592 -3.436129,-3.5734 -7.661143,-8.10423 -9.388911,-10.06848 l -3.141398,-3.5714 -7.775216,6.02861 c -8.844119,6.8574 -17.041277,14.69563 -20.875411,19.96138 -2.2128,3.03904 -2.617581,3.99747 -2.624642,6.2146 -0.02321,7.28478 -3.169922,14.68651 -8.440067,19.85284 -3.176464,3.11389 -4.1944801,4.63855 -6.6951915,10.02722 -4.4817014,9.65741 -4.8703578,11.61066 -3.6956794,18.57314 1.0279528,6.09277 0.6929183,9.36905 -0.9912405,9.69339 -0.4752882,0.0914 -1.83595805,-0.60587 -3.0237103,-1.54977 -4.0774486,-3.24035 -4.6154632,-1.94452 -2.2260437,5.36153 1.3427794,4.10577 1.4526927,5.12849 1.2429677,11.56609 -0.1497511,4.5966 -0.5160735,7.64639 -1.0493085,8.73584 -1.0699413,2.186 -3.9216023,4.06617 -6.9057668,4.55311 -1.313366,0.2143 -3.180651,0.87124 -4.149514,1.45984 -1.528539,0.92862 -2.921299,1.0702 -10.528099,1.0702 h -8.766527 z m 213.148297,-1.43185 3.62977,-1.12113 -0.27336,-4.05486 c -0.15025,-2.23016 -0.41405,-6.21715 -0.58603,-8.85994 -0.17196,-2.64281 -0.60465,-5.5665 -0.96152,-6.49708 l -0.64884,-1.69201 -0.79446,1.50449 c -0.68697,1.30092 -0.68002,1.82887 0.0514,3.90164 1.10925,3.14395 0.68259,3.51357 -0.53711,0.46528 -0.93261,-2.33087 -0.96048,-2.34857 -1.80322,-1.14541 -0.77392,1.10495 -0.74874,1.50553 0.26293,4.18015 1.83781,4.85879 1.88821,5.41201 0.16967,1.86285 -1.49374,-3.085 -1.67533,-3.26016 -2.25565,-2.17582 -0.49474,0.92441 -0.38925,1.88227 0.48808,4.43224 1.45507,4.22926 1.36839,4.61872 -0.24458,1.09869 l -1.29439,-2.82482 -0.60942,2.1427 c -0.47704,1.67732 -0.42989,2.59761 0.21713,4.23722 0.67231,1.70369 0.67977,1.91005 0.04,1.10585 -1.15619,-1.45348 -1.50935,-1.22216 -1.50935,0.9887 0,1.08754 -0.27136,1.97737 -0.60303,1.97737 -0.33166,0 -0.47735,-0.44491 -0.32376,-0.98869 0.15361,-0.54378 0.4549,-2.13275 0.6695,-3.53103 0.21462,-1.39829 1.22726,-4.894 2.25029,-7.76825 l 1.86007,-5.22592 -2.91522,-0.004 c -4.57247,-0.005 -7.17978,-0.93914 -7.89273,-2.82799 l -0.60834,-1.61167 -1.32071,1.79014 c -1.8803,2.5486 -4.10531,10.03967 -4.49923,15.14783 l -0.33625,4.3604 2.19876,0.62432 c 8.40017,2.3852 11.79454,2.48005 18.17959,0.50791 z m 1.60283,-12.0775 c -0.54517,-1.42071 -0.38435,-1.7873 0.28165,-0.64199 0.32977,0.56708 0.48055,1.15007 0.3351,1.29553 -0.14548,0.14548 -0.42301,-0.14865 -0.61675,-0.65354 z m 14.90176,12.66551 c 1.70902,-0.30131 4.15794,-0.92736 5.44205,-1.39122 2.89519,-1.04584 3.23417,-2.29574 2.21069,-8.15145 -0.69256,-3.96229 -3.98039,-13.55283 -4.64619,-13.55283 -0.16561,0 -1.04733,0.6279 -1.95939,1.39536 -2.06407,1.73678 -9.04263,3.86884 -11.66227,3.56302 l -1.95787,-0.22858 0.35035,3.70846 c 0.19269,2.03966 0.35215,6.29667 0.35436,9.46005 0.004,5.51585 0.0561,5.76136 1.2752,5.99005 1.58362,0.29708 6.49671,-0.0707 10.59307,-0.79286 z m 168.67661,-0.54103 c 2.4667,-0.64569 5.40444,-1.69044 6.52833,-2.32162 4.99472,-2.80513 5.15924,-10.43306 0.42723,-19.80913 -1.68484,-3.33841 -2.38322,-3.89753 -2.96724,-2.37558 -0.47783,1.24517 -3.50317,2.36993 -7.63074,2.8369 -3.20031,0.36207 -3.89502,0.24207 -6.8927,-1.19069 l -3.33368,-1.59335 -2.61868,1.30783 c -5.08595,2.54004 -9.11053,2.70823 -11.50158,0.48063 -1.17863,-1.0981 -1.24012,-1.1008 -1.99079,-0.0876 -1.48945,2.01044 -3.78906,10.11264 -4.08778,14.40245 -0.41888,6.01588 -0.0998,6.93046 2.7119,7.77287 2.94777,0.88317 9.5716,1.45014 11.44593,0.97973 1.36349,-0.34224 1.43541,-0.55625 1.44726,-4.30679 0.007,-2.17065 0.16913,-4.90328 0.36055,-6.0725 0.57192,-3.49282 3.23668,-12.01271 3.75721,-12.01271 0.26592,0 0.0946,0.93077 -0.38071,2.06837 -0.47533,1.1376 -0.73298,2.53589 -0.57257,3.10732 0.16049,0.5714 0.42941,1.61095 0.59774,2.3101 0.29412,1.22159 0.27478,1.21778 -0.49588,-0.0976 -0.77606,-1.32471 -0.81374,-1.33167 -1.16789,-0.21587 -0.20127,0.63416 -0.10526,1.83872 0.2134,2.67682 0.80317,2.11249 0.72547,2.41524 -0.29121,1.1345 -0.81247,-1.02351 -0.85657,-0.92707 -0.66106,1.44567 0.11526,1.39829 0.41405,3.05081 0.66409,3.67227 l 0.45457,1.12993 -0.96031,-1.12993 c -0.91881,-1.08106 -0.94494,-0.99599 -0.60414,1.96713 0.1959,1.70338 0.44496,3.18582 0.55345,3.29431 0.10859,0.10846 0.69154,-0.0672 1.29564,-0.39057 1.14372,-0.61211 1.81479,-3.61537 1.83186,-8.19826 0.005,-1.27725 0.27915,-2.7036 0.60977,-3.1697 0.43207,-0.60909 0.50484,0.84875 0.25876,5.18327 -0.34102,6.00737 0.0642,7.66041 1.52099,6.20369 1.04294,-1.04294 0.7965,-13.43979 -0.34271,-17.23857 -0.54582,-1.82009 -0.86753,-3.43414 -0.71492,-3.58675 0.15254,-0.15253 0.70667,1.08233 1.23124,2.74431 0.64336,2.03843 1.04592,5.82553 1.23703,11.63748 l 0.28333,8.61571 h 2.64972 c 1.45735,0 4.66793,-0.52832 7.13459,-1.17401 z m -375.870817,-0.76787 c 7.3950855,-1.60023 8.1096694,-2.64386 8.7190678,-12.73388 l 0.357476,-5.91884 -1.7814294,1.49898 c -1.2501167,1.05191 -2.7449498,1.61937 -5.0120099,1.9026 -3.8932365,0.48645 -11.0832965,-0.51797 -14.6488975,-2.04638 l -2.547746,-1.09209 -1.932997,4.18372 c -1.063149,2.30104 -2.719087,6.53004 -3.679858,9.39776 -1.413531,4.2191 -1.603329,5.31411 -0.994643,5.73847 1.073528,0.74841 16.930963,0.0629 21.521037,-0.93034 z m 145.824637,0.0604 c 1.82537,-0.45517 3.98636,-1.32488 4.8022,-1.93268 3.80527,-2.83487 9.16714,-13.97037 8.33102,-17.30178 l -0.3453,-1.37583 -1.73799,1.62353 c -2.09738,1.95925 -4.36927,2.4769 -10.69649,2.43719 -4.90793,-0.0308 -9.75849,-1.13822 -12.31106,-2.81073 -1.35948,-0.89077 -1.44853,-0.84325 -5.02463,2.68174 -4.74572,4.67787 -9.76632,12.21979 -11.18562,16.80292 l -0.41809,1.35009 12.63357,-0.32344 c 8.1701,-0.20916 13.80611,-0.61582 15.95239,-1.15101 z m -177.456718,-0.0712 c 4.279297,-0.45135 8.029247,-0.97435 8.333221,-1.16222 0.303973,-0.18786 0.552676,-0.94107 0.552676,-1.67381 0,-0.73272 0.532902,-2.56091 1.184231,-4.06264 2.733094,-6.30153 2.683818,-6.59546 -0.386739,-2.30669 -1.167962,1.63134 -2.374353,3.22029 -2.680874,3.53103 -0.792525,0.80343 1.763078,-3.49097 3.822231,-6.4228 3.482358,-4.9582 4.281711,-6.2889 3.777706,-6.2889 -0.684223,0 -8.693493,8.54109 -11.520653,12.28564 -1.232632,1.63261 -2.355039,2.9684 -2.494231,2.9684 -0.694731,0 8.513739,-11.96304 11.06203,-14.37105 0.965807,-0.91265 1.756012,-1.83454 1.756012,-2.04865 0,-0.21412 -1.379949,-0.50373 -3.066546,-0.64361 -2.190201,-0.18162 -3.636895,-0.68933 -5.062305,-1.77654 l -1.995753,-1.52224 -2.370443,2.97775 c -3.741587,4.70018 -7.013716,10.04038 -8.328306,13.59201 -1.176899,3.17965 -1.640778,7.74813 -0.786524,7.74603 0.233047,-5.7e-4 3.924968,-0.37033 8.204267,-0.82171 z m 145.517448,0.35714 c 2.28653,-0.35599 2.53528,-0.57309 3.67377,-3.20666 0.67164,-1.55364 1.91965,-3.9912 2.77332,-5.4168 1.16134,-1.93931 1.55217,-3.33132 1.55217,-5.52826 0,-2.76124 -0.0675,-2.90027 -1.12993,-2.33159 -0.85887,0.45966 -1.15272,1.24374 -1.22489,3.26842 -0.0877,2.45941 -0.11192,2.50123 -0.3166,0.54509 -0.1218,-1.16524 -0.37692,-2.11862 -0.56674,-2.11862 -1.0136,0 -2.41258,2.09175 -2.42014,3.6186 -0.005,0.96171 -0.25509,2.12991 -0.5563,2.596 -0.41718,0.64555 -0.54974,0.42097 -0.55632,-0.94248 -0.005,-0.98445 -0.12193,-2.1285 -0.2607,-2.54233 -0.28268,-0.84387 3.94176,-4.34992 9.54663,-7.9232 l 3.69458,-2.3554 -2.06195,-1.16905 c -1.13405,-0.64296 -2.34054,-1.67747 -2.68106,-2.29894 -0.34052,-0.62146 -0.67095,-1.22412 -0.73429,-1.33923 -0.24219,-0.44024 -5.13886,3.51858 -9.00719,7.28209 -2.402919,2.3378 -5.07834,5.70418 -6.608019,8.31461 -2.585117,4.41156 -5.455787,10.44384 -5.455787,11.4645 0,0.61975 8.524249,0.67725 12.339446,0.0833 z m -3.041308,-8.74168 c 2.760118,-3.19702 4.852948,-4.58843 2.607118,-1.73331 -0.64403,0.81873 -1.17482,1.89922 -1.17959,2.4011 -0.007,0.72486 -0.10822,0.75546 -0.492636,0.14866 -0.387667,-0.61179 -0.638864,-0.54871 -1.262509,0.31706 -0.428199,0.59443 -1.155514,1.30749 -1.616265,1.58457 -0.460762,0.27708 0.413993,-0.94611 1.943882,-2.71817 z M 112.66515,348.958 c 0.79872,-2.9662 0.50568,-3.58164 -1.02593,-2.15472 -0.90902,0.84686 -1.26294,1.82316 -1.26294,3.48364 0,1.9817 0.11896,2.20832 0.84339,1.60708 0.46386,-0.38499 1.11432,-1.70618 1.44548,-2.936 z m 4.2259,-3.36088 c 1.85466,-1.90777 3.11786,-3.33979 2.80713,-3.18223 -0.31073,0.15748 -1.54963,0.74533 -2.75309,1.30618 -1.44851,0.67506 -2.45105,1.64905 -2.96606,2.88159 -1.39666,3.34272 -1.274,3.30035 2.91202,-1.00554 z m -126.1369883,1.26052 c 0.1550828,-0.59304 0.068698,-2.182 -0.1919804,-3.53102 -0.7928253,-4.10302 -0.4970502,-4.35201 0.6298966,-0.53028 0.5866814,1.98959 0.9335976,3.83279 0.770921,4.096 -0.162674,0.26322 0.2406744,0.47857 0.896327,0.47857 0.8284182,0 1.4441885,-0.60333 2.0184188,-1.97765 0.7475543,-1.78915 0.7190756,-2.38712 -0.2987695,-6.27314 -1.1003076,-4.20086 -1.1020927,-4.34706 -0.080805,-6.63804 0.5743525,-1.28842 1.1842265,-2.72392 1.3552639,-3.19002 0.1710424,-0.46609 0.331058,-0.0756 0.3555884,0.86778 0.034355,1.32099 0.587624,2.13259 2.4071605,3.53103 1.29940979,0.99868 2.598365,1.81579 2.8865709,1.81579 0.5019348,0 0.3419835,-3.8179 -0.4879258,-11.64637 -0.45450332,-4.28723 0.4565911,-7.64626 4.3019634,-15.86046 1.5405956,-3.29091 2.8010806,-6.07516 2.8010806,-6.18724 0,-0.11217 -0.4449083,-0.2156 -0.988687,-0.23007 -0.5437775,-0.0141 0.1664703,-0.62827 1.5783012,-1.36398 6.5328497,-3.40435 10.6102247,-10.76316 11.5945617,-20.9258 0.333329,-3.44144 0.696347,-4.39472 2.796865,-7.34453 4.333959,-6.08629 13.366359,-14.6017 23.295281,-21.96193 2.874252,-2.13067 5.224651,-4.03536 5.223107,-4.23265 -0.0012,-0.19732 -0.605818,-1.11239 -1.342819,-2.03352 l -1.340015,-1.67478 -2.379245,1.57451 c -1.308575,0.86597 -4.327141,3.22458 -6.707918,5.24136 -3.690637,3.12638 -3.428235,2.79698 1.780172,-2.23466 l 6.108845,-5.90154 -1.752685,-2.84848 c -1.860161,-3.02313 -4.543983,-9.20802 -4.516386,-10.40802 0.0086,-0.39458 1.090609,1.31645 2.403421,3.80229 1.312813,2.48583 3.187094,5.66376 4.165051,7.06205 2.560459,3.6609 10.136227,12.30324 17.08583,19.49126 10.488253,10.84809 13.870484,15.45028 15.541574,21.14746 1.764878,6.01693 0.886355,10.91965 -2.577347,14.38338 -2.371808,2.37179 -2.198574,3.14342 0.709539,3.16056 4.072954,0.024 8.58714,-2.90871 10.244493,-6.65547 1.626321,-3.67655 1.243114,-11.19832 -0.77862,-15.28352 -0.78996,-1.59624 -1.122641,-2.64192 -0.739273,-2.32375 2.825467,2.34491 4.596769,13.03502 2.923295,17.64252 -1.200716,3.30592 -1.664172,9.45368 -0.712652,9.45368 1.337594,0 3.452288,-2.14409 5.103204,-5.17412 2.082204,-3.82163 2.63694,-10.95866 1.225905,-15.77217 -0.487483,-1.66294 -0.788428,-3.12141 -0.668784,-3.24107 0.393213,-0.39321 1.928476,5.5017 2.309151,8.86653 0.333027,2.94357 -0.113653,6.6995 -1.183878,9.95492 -0.829949,2.52451 2.007119,-1.76397 3.177766,-4.80344 0.992705,-2.57751 1.144505,-3.88031 0.890395,-7.64107 -0.55328,-8.1881 -2.378529,-11.72899 -10.436159,-20.24547 -4.46224,-4.71636 -8.02199,-9.48764 -8.02199,-10.75224 0,-0.31073 0.731095,0.5653 1.624677,1.94675 0.893582,1.38143 3.772652,4.56097 6.397968,7.06561 7.086641,6.76097 11.186134,12.86051 11.186134,16.64369 0,0.61517 0.23452,1.11849 0.52114,1.11849 0.9885,0 1.86262,-4.07622 1.63629,-7.6304 -0.25227,-3.96186 -1.49887,-6.11114 -9.498014,-16.37578 -4.212859,-5.40602 -5.49307,-7.89525 -1.699269,-3.30408 1.242669,1.50388 4.006517,4.72931 6.141866,7.16765 5.377037,6.14001 6.531707,8.60655 6.544877,13.98048 0.009,3.73882 -0.18807,4.5898 -1.53571,6.62623 -0.97626,1.47521 -1.54622,3.09709 -1.54622,4.3999 0,2.04372 0.0189,2.06034 1.98275,1.74164 2.80497,-0.45518 5.15637,-2.31958 6.02731,-4.77903 0.4394,-1.24082 0.73423,-4.43497 0.71613,-7.75874 -0.0268,-4.925 -0.22991,-6.08442 -1.58341,-9.03943 -0.85399,-1.86437 -2.7068,-4.91518 -4.11738,-6.77957 l -2.56467,-3.38978 3.24466,3.36646 c 4.53914,4.70952 7.02894,10.74876 7.02894,17.04936 0,1.04514 0.19066,1.89721 0.42371,1.89344 0.23305,-0.004 1.50422,-0.62458 2.82483,-1.37963 3.08594,-1.76442 3.15585,-0.98512 0.0762,0.84916 -3.20244,1.9074 -4.45468,3.16618 -4.45468,4.47791 0,0.94772 0.27661,1.06772 1.83613,0.79651 3.46301,-0.60223 8.05106,-2.01387 8.89819,-2.7378 0.4661,-0.39831 1.48303,-1.04116 2.25986,-1.42857 1.0354,-0.51637 0.71351,0.0299 -1.20586,2.04601 -2.21038,2.3219 -4.32367,5.2976 -3.75746,5.29079 0.0887,-10e-4 1.97169,-0.73977 4.18462,-1.64156 2.21291,-0.9018 6.3359,-2.1999 9.16218,-2.88469 l 5.1387,-1.24506 -2.17804,-2.62177 c -1.19792,-1.44198 -2.57843,-3.41713 -3.06781,-4.3892 -1.88383,-3.74206 -3.25954,-10.15553 -3.58975,-16.73515 -0.18321,-3.65108 -0.39387,-6.63833 -0.4681,-6.63833 -0.0741,0 -1.65836,1.01729 -3.52029,2.26064 -3.96945,2.65067 -7.35987,3.95396 -10.28605,3.95396 -2.69092,0 -4.26623,-1.57273 -3.72706,-3.72096 0.32615,-1.29947 0.23825,-1.44673 -0.63923,-1.07095 -2.24007,0.95932 -11.233014,0.98602 -14.476909,0.0431 -3.027535,-0.88013 -3.146834,-0.98524 -2.637966,-2.32369 0.508151,-1.33651 0.434882,-1.40213 -1.571632,-1.40797 -3.684954,-0.0111 -10.822491,-2.70677 -12.492222,-4.71868 -0.542877,-0.65412 -0.556306,-1.13537 -0.05769,-2.06703 0.357462,-0.66796 0.565792,-1.28868 0.462937,-1.37936 -0.102905,-0.0908 -1.608804,-0.57286 -3.346529,-1.07144 -1.737737,-0.4986 -3.863623,-1.46039 -4.724209,-2.13731 -1.370614,-1.07814 -1.531593,-1.52432 -1.297926,-3.59743 0.255014,-2.26251 0.183216,-2.39685 -1.631843,-3.0532 -2.892856,-1.04606 -5.194731,-3.27818 -5.937612,-5.7577 -0.916844,-3.06016 -0.168008,-3.77904 2.731346,-2.62207 2.480112,0.98968 6.392742,2.11489 6.392742,1.83844 0,-0.10315 -1.595375,-1.32577 -3.545285,-2.71721 -7.578633,-5.40799 -13.902096,-13.73504 -16.387829,-21.58029 -1.104606,-3.48624 -1.245288,-5.09254 -1.187572,-13.55913 0.03595,-5.28242 0.290234,-10.28672 0.564965,-11.12069 0.493796,-1.49899 0.541395,-1.46498 4.171758,2.98093 9.68699,11.86308 21.390315,18.71175 36.722669,21.48975 4.768274,0.86396 23.499337,0.92385 26.252997,0.0839 1.3283,-0.40515 1.76714,-0.94512 2.11027,-2.59656 1.15396,-5.55407 5.29309,-10.61264 10.706,-13.08418 1.86001,-0.84928 3.81472,-2.27213 4.6801,-3.40671 0.81733,-1.07156 2.68505,-2.65312 4.15048,-3.51457 2.23196,-1.31202 3.30636,-1.56501 6.61919,-1.55866 2.54958,0.005 4.65733,0.34787 5.93212,0.96526 1.88437,0.91263 1.89764,0.93885 0.28248,0.55739 -3.16789,-0.74819 -8.93675,-0.39053 -11.0168,0.68301 -4.00886,2.06906 -7.3175,6.23742 -8.55737,10.78094 -0.35684,1.30762 -0.40267,1.08172 -0.20062,-0.98869 0.31501,-3.2276 -0.0462,-3.31482 -3.78697,-0.91442 -5.28991,3.39453 -7.82133,8.79448 -7.75404,16.54072 0.0641,7.38827 0.57382,7.67341 3.28465,1.83761 1.27573,-2.74638 2.86768,-5.76325 3.53768,-6.70416 1.42099,-1.99562 5.06289,-3.80881 7.68578,-3.82654 1.33025,-0.009 1.83614,-0.27118 1.83614,-0.95163 0,-1.69066 3.43929,-6.34542 6.16912,-8.34929 3.33634,-2.44911 6.93607,-3.47582 9.95427,-2.83911 l 2.23794,0.47208 -3.46571,0.36867 c -7.83526,0.83342 -14.0234,7.39272 -14.91223,15.80656 l -0.38793,3.67227 -0.0802,-3.81351 c -0.0724,-3.44156 -0.19315,-3.8135 -1.23818,-3.8135 -3.51338,0 -6.50818,3.25953 -10.15197,11.0494 -4.27088,9.13051 -7.56682,11.99871 -12.88988,11.21703 l -2.63597,-0.38709 1.12993,1.28713 c 1.55718,1.77384 6.36843,3.94028 8.75694,3.94313 3.64376,0.005 6.21642,-1.05975 7.39614,-3.05922 0.60421,-1.02407 3.81828,-4.37557 7.14235,-7.44776 6.50642,-6.01343 5.67505,-4.16593 -1.0137,2.25263 -5.29647,5.08253 -6.98333,8.57191 -6.9989,14.47763 -0.0123,4.50986 1.12864,7.65452 3.71375,10.23964 l 1.2381,1.23809 -0.34101,-1.30398 c -0.52305,-2.00017 0.55261,-6.69731 2.3945,-10.45623 0.95535,-1.94966 3.61762,-5.51905 6.26648,-8.40165 3.00253,-3.26748 5.29387,-6.41363 6.58338,-9.03943 1.09286,-2.22532 1.81725,-3.26913 1.61884,-2.33267 -0.72357,3.41529 -3.78196,8.58447 -7.6653,12.95573 -2.18959,2.4647 -4.8005,6.14574 -5.802,8.18009 -1.59249,3.23481 -1.82093,4.26733 -1.82093,8.23043 0,3.88639 0.1962,4.81314 1.37798,6.50898 l 1.37799,1.97737 -1.31472,-1.12993 c -0.72309,-0.62146 -1.71157,-2.01975 -2.19661,-3.10731 l -0.88187,-1.97737 -0.40307,2.82483 c -0.22167,1.55364 -0.42533,6.59597 -0.45254,11.20514 -0.0398,6.72876 0.17987,9.27868 1.11434,12.93863 2.17822,8.53126 4.40554,11.44519 12.96027,16.95542 5.72125,3.68516 6.72476,4.54371 8.67905,7.42532 l 1.49029,2.19745 v -1.77372 c 0,-0.97556 0.25276,-1.77375 0.56168,-1.77375 0.65725,0 4.81894,4.10511 6.61023,6.52037 l 1.23978,1.67162 0.0314,-2.24057 0.0314,-2.24055 3.15704,3.08801 c 3.83363,3.7498 7.39139,8.63543 9.82772,13.49579 1.7912,3.57337 4.52912,13.03581 4.52912,15.653 0,2.38086 0.33044,2.11347 8.18521,-6.62361 1.11391,-1.23903 1.9615,-1.52111 5.46479,-1.81861 7.35531,-0.62462 14.66336,-3.68699 21.53808,-9.02535 2.85697,-2.21849 3.64343,-2.53817 7.03648,-2.86027 2.10101,-0.19947 4.7705,-0.62873 5.93219,-0.95396 l 2.11216,-0.59132 -2.29851,-2.90784 c -2.55535,-3.23275 -4.67535,-7.15615 -6.1797,-11.43649 -0.54849,-1.56063 -1.18794,-3.34598 -1.42101,-3.96744 -0.28364,-0.7563 0.37438,-0.38267 1.98998,1.12992 1.32756,1.24293 2.27204,1.87851 2.09886,1.41242 -3.3319,-8.96748 -5.7728,-19.1059 -2.95449,-12.27164 0.60497,1.46697 1.25945,2.66724 1.45442,2.66724 0.19497,0 0.33352,-2.23584 0.30789,-4.96853 -0.0511,-5.45919 -0.32394,-4.73539 6.74142,-17.88972 2.3514,-4.37785 2.75405,-5.61138 2.97976,-9.1283 0.51553,-8.03303 -3.09403,-15.90716 -13.39719,-29.22559 l -2.55547,-3.30332 -0.70945,2.73835 c -1.34541,5.19296 -1.53105,9.49758 -0.49922,11.57562 l 0.94197,1.89706 -1.24465,-1.2376 c -1.69781,-1.68817 -1.99566,-6.07008 -0.80834,-11.89144 1.88728,-9.25312 0.31011,-14.96865 -5.6281,-20.39585 -4.96269,-4.53562 -7.39506,-5.45763 -14.39801,-5.45763 -3.26266,0 -7.20328,0.1739 -8.75694,0.38651 l -2.82483,0.3865 2.99407,-1.06781 c 4.19885,-1.49751 8.8263,-1.90108 13.02484,-1.13589 1.97432,0.35984 3.67357,0.57034 3.77612,0.46779 0.5555,-0.55547 -3.32497,-8.10343 -5.05601,-9.83446 -1.11502,-1.11503 -2.02732,-2.22071 -2.02732,-2.45706 0,-0.76342 -6.4068,-3.81893 -9.53322,-4.54659 -5.67869,-1.32168 -12.90663,0.33314 -18.81153,4.30684 -1.59795,1.07534 -3.15421,2.10896 -3.45833,2.29692 -0.30412,0.18795 0.0348,-0.45305 0.75287,-1.42447 1.57344,-2.12819 4.69215,-4.26142 8.30449,-5.68036 l 2.66707,-1.04764 -1.96616,-1.19929 c -3.49737,-2.13327 -7.83031,-3.21237 -11.9746,-2.9822 -1.84182,0.10217 -5.38503,3.07523 -6.48573,5.44185 l -0.79315,1.7054 0.33592,-1.6949 c 0.43735,-2.20655 1.89962,-4.19835 4.29165,-5.84578 3.4405,-2.36956 10.29419,-1.02205 15.01786,2.95264 1.4734,1.23979 2.28167,1.41877 7.13876,1.58067 6.28981,0.20964 6.0493,0.49161 4.42408,-5.18641 -1.94511,-6.79557 -5.67114,-13.2712 -11.05153,-19.20697 l -2.30446,-2.54235 2.73533,2.54235 c 5.5883,5.19404 10.65916,13.88061 12.50872,21.42795 0.84973,3.46735 1.15388,3.98824 2.62905,4.50248 0.91746,0.31985 2.42862,1.12302 3.35809,1.78488 2.30264,1.63961 3.55612,1.10298 3.04306,-1.30277 -0.88274,-4.13917 -4.92515,-15.56972 -7.31172,-20.67498 -2.76981,-5.9251 -2.0873,-5.54727 1.37199,0.75952 2.33075,4.24929 5.72174,12.92427 6.84605,17.51389 0.38059,1.55365 0.75758,2.90672 0.83776,3.00684 0.11056,0.13788 4.32093,-2.28618 5.2026,-2.99536 0.0814,-0.0655 -0.47343,-2.51 -1.23286,-5.43238 -2.40018,-9.23634 -7.45469,-20.33189 -13.15172,-28.87039 -3.69954,-5.54473 -7.76281,-10.05314 -17.28006,-19.17305 -5.06934,-4.8577 -10.5807,-10.45085 -12.24745,-12.42921 -2.92238,-3.46874 -2.87062,-3.43583 1.45089,0.92268 2.46472,2.48584 7.78172,7.47051 11.81554,11.07705 8.53374,7.62981 11.29975,10.5176 15.63525,16.3237 6.42805,8.60845 12.81284,21.95477 15.2758,31.93151 l 1.17048,4.74126 2.21301,-1.5287 2.21288,-1.52872 -0.29258,-3.38979 c -0.67354,-7.80354 -4.93606,-18.6206 -10.75409,-27.29086 -1.73177,-2.58078 -2.93323,-4.55916 -2.6699,-4.3964 1.091,0.67427 6.42984,9.00105 8.76618,13.67226 2.65522,5.30877 5.26622,12.93416 5.82522,17.01246 0.18438,1.34519 0.51104,2.55447 0.72593,2.68727 0.73452,0.45397 10.1313,-8.78625 13.55299,-13.32717 7.5571,-10.02901 11.88685,-23.58071 11.88685,-37.20468 0,-1.56589 0.13717,-2.84709 0.30499,-2.84709 0.16773,0 1.25966,0.48704 2.42649,1.08231 4.73177,2.41397 10.11463,10.29289 13.15597,19.2564 1.5675,4.61983 1.85502,6.35049 2.06489,12.4292 0.20212,5.85369 0.0367,7.93142 -0.96677,12.14283 -1.33914,5.62014 -5.40436,14.55597 -8.99754,19.77764 -1.28293,1.86439 -2.08247,3.4736 -1.77675,3.57604 0.96167,0.32224 6.94358,-3.42452 9.41795,-5.89889 1.30448,-1.30446 2.90291,-3.41289 3.55211,-4.68539 1.58846,-3.11366 3.41962,-3.18645 4.90651,-0.19504 0.82038,1.65056 1.04117,3.30437 0.99925,7.48577 -0.0478,4.76577 -0.27506,5.90831 -2.02847,10.19679 -1.08605,2.65631 -2.92502,6.31533 -4.08661,8.13118 -1.56931,2.45321 -1.929,3.41462 -1.39983,3.74167 0.57231,0.35372 0.57024,0.92018 -0.0111,2.88562 -0.9168,3.10198 -2.83999,5.65637 -5.49331,7.29622 -1.8152,1.12185 -1.94263,1.33413 -1.00079,1.6672 0.98346,0.34777 0.91449,0.53604 -0.77671,2.12052 -2.44668,2.29229 -5.15576,3.12363 -9.22067,2.82961 -2.28612,-0.16543 -3.32991,-0.0357 -3.32991,0.41382 0,1.65202 -2.36613,2.75821 -6.55283,3.06353 l -4.23213,0.30863 2.6128,3.67226 c 6.6041,9.28203 9.42393,17.92936 8.1516,24.99766 -0.59627,3.31253 -1.3757,5.01035 -7.0253,15.30299 l -2.119,3.86043 1.61637,-0.85388 c 2.8197,-1.48955 10.50803,-7.97754 14.76823,-12.4625 3.44716,-3.62905 8.16501,-9.57687 11.29436,-14.23891 0.60384,-0.89956 0.6124,-0.84512 0.054,0.34314 -3.2456,6.90571 -14.34787,19.1313 -22.84011,25.15099 -4.46111,3.16225 -5.35456,4.05378 -5.65212,5.63988 -0.19439,1.03614 -0.13153,2.28031 0.13948,2.76481 0.42213,0.75427 0.99324,0.57827 3.97363,-1.2246 10.6542,-6.44486 21.25087,-16.82912 29.3236,-28.73581 12.15903,-17.93367 17.66232,-37.85302 17.06489,-61.76692 -0.1762,-7.05559 -0.0976,-9.0936 0.27328,-7.0817 0.28643,1.55365 0.54951,7.78238 0.58461,13.84162 0.0749,12.9194 -1.01977,20.12699 -4.7586,31.3329 -3.84818,11.53363 -10.2758,23.42603 -17.04787,31.54197 -1.24194,1.48841 -2.13206,2.83222 -1.97803,2.98626 0.56084,0.56084 9.22243,-1.58952 12.54887,-3.11544 15.24621,-6.99375 27.02401,-27.08578 29.92908,-51.05667 0.91381,-7.54032 1.14138,-4.70319 0.29247,3.64639 -1.36283,13.4044 -6.06897,25.37367 -14.08939,35.83402 l -3.37294,4.39906 3.87845,1.509 c 2.13316,0.82995 5.08398,2.18278 6.55741,3.0063 1.47342,0.8235 2.79425,1.4973 2.93518,1.4973 0.14088,0 0.11217,-0.82627 -0.0639,-1.83613 l -0.32008,-1.83614 0.80429,1.74425 c 0.44237,0.95933 2.6324,4.51861 4.86676,7.9095 4.99039,7.57348 16.71102,19.52553 21.47602,21.90002 3.47317,1.73077 2.57461,2.01883 -1.09849,0.35217 -2.27683,-1.03312 -2.44336,-1.04308 -2.15457,-0.12888 0.17214,0.54496 0.91211,3.09687 1.64443,5.67093 1.20748,4.24422 1.63716,4.98091 4.61334,7.9095 6.09462,5.99717 11.22772,14.90204 15.05101,26.11043 1.52493,4.47048 1.87616,6.46418 2.10229,11.9334 0.23612,5.71111 0.10204,7.13697 -1.02944,10.94841 -1.26638,4.26584 -1.27281,4.4027 -0.24155,5.15674 1.80528,1.32008 5.43859,0.92902 9.30109,-1.00109 l 3.5535,-1.7757 2.94903,1.49321 c 3.2687,1.65511 7.56418,1.95068 10.97393,0.75515 3.60432,-1.26377 3.51767,-2.02385 -0.8935,-7.83643 -4.24415,-5.59253 -6.24394,-9.15785 -7.70759,-13.74156 -3.61145,-11.30987 -6.06394,-25.14078 -6.61183,-37.28764 -0.44909,-9.95642 -0.63505,-10.98258 -2.98573,-16.47731 -0.97412,-2.27699 -1.61697,-5.30568 -2.07875,-9.79352 -1.03238,-10.03342 -4.52972,-26.87507 -6.20745,-29.89239 -0.24367,-0.43822 -0.35716,2.73971 -0.25221,7.06205 0.11847,4.87545 0.0111,7.21539 -0.28375,6.1639 -0.26101,-0.93218 -0.50513,-3.3474 -0.54245,-5.36716 -0.0982,-5.30649 -1.53303,-18.18766 -2.61183,-23.44601 -1.80028,-8.77502 -5.13506,-19.44804 -9.00266,-28.81317 -2.64261,-6.39888 -8.28987,-17.2314 -8.98316,-17.2314 -0.31192,0 -0.42347,4.84442 -0.27645,12.00549 0.14583,7.10082 0.0552,11.08226 -0.2214,9.74563 -0.25734,-1.24293 -0.66678,-10.26822 -0.90985,-20.05623 -0.32903,-13.24823 -0.63848,-18.15732 -1.2109,-19.20877 -2.5127,-4.61546 -15.71369,-22.57474 -23.46323,-31.92047 -9.84137,-11.8685 -19.37314,-20.880167 -26.98547,-25.513096 l -3.26112,-1.984759 -6.72297,0.613515 c -3.69769,0.337425 -8.39697,0.613502 -10.44291,0.613502 h -3.71986 l 4.65629,4.095981 c 15.32994,13.485237 26.76025,27.616997 34.07268,42.125497 3.22997,6.40854 7.21065,15.94254 6.81963,16.33353 -0.1287,0.1287 -0.76071,-1.17392 -1.40454,-2.89468 -0.6438,-1.72075 -2.34198,-5.46105 -3.77369,-8.31178 -14.73451,-29.33813 -42.91171,-56.053152 -70.87127,-67.193538 -8.53459,-3.400587 -24.38843,-8.019137 -26.96718,-7.856082 -0.23847,0.01594 1.21895,0.918561 3.23869,2.007737 4.07171,2.195733 3.7042,2.125145 -3.67226,-0.705339 C 174.31439,64.328075 166.6171,60.398027 156.13779,54.235765 136.70561,42.8089 123.4655,36.075708 120.42784,36.075708 c -0.27792,0 0.11365,0.826266 0.87031,1.836132 0.75657,1.009879 1.5605,2.471724 1.78648,3.24854 0.25416,0.873644 -0.48552,0.175248 -1.93914,-1.830883 -2.77573,-3.83081 -3.28019,-4.145743 -7.47853,-4.668797 -3.80132,-0.473592 -5.33693,0.114258 -2.939,1.125102 2.31597,0.976282 5.18989,3.527982 6.22249,5.524822 0.86649,1.675612 0.84013,1.666878 -1.29145,-0.42789 -3.87261,-3.805697 -10.23526,-5.824903 -13.25766,-4.207362 -1.04875,0.56126 -0.98363,0.692541 1.01659,2.049938 1.99954,1.356914 3.6711,3.085213 3.32181,3.434522 -0.0846,0.0845 -2.65796,-1.148398 -5.71862,-2.739944 -5.381983,-2.798622 -5.692613,-2.886492 -9.452689,-2.674024 -3.026794,0.171021 -4.096118,0.470447 -4.828251,1.351984 -0.517243,0.62278 -1.639589,1.482451 -2.494096,1.910415 -0.854508,0.427952 -1.55241,0.925813 -1.55089,1.106348 0.0012,0.180547 1.844707,0.340599 4.095981,0.355683 5.248914,0.03508 9.404835,2.098684 11.295213,5.608341 0.582791,1.082023 0.559678,1.086322 -0.758076,0.141151 -3.037726,-2.178833 -8.107415,-4.447477 -10.59778,-4.74243 -2.121081,-0.25121 -3.344033,-0.0012 -6.166759,1.257616 -1.93653,0.864033 -3.520973,1.752611 -3.520973,1.974642 0,0.612538 2.32489,1.214119 4.307611,1.114624 3.149304,-0.158027 7.425523,2.149247 8.823044,4.760541 0.591735,1.105655 0.582878,1.10589 -1.041009,0.02743 -5.048663,-3.352817 -7.90667,-3.844797 -11.807169,-2.032518 -3.1307,1.454606 -6.945156,4.896319 -7.864075,7.095585 -0.42259,1.011422 -1.331874,2.363939 -2.020621,3.005607 -1.369404,1.275789 -1.108151,2.383137 0.562247,2.383137 0.641903,0 1.884152,-1.174465 3.137271,-2.966064 1.141012,-1.631336 2.711828,-3.445604 3.490719,-4.031706 2.850694,-2.145108 8.913374,-1.709188 11.18817,0.804439 1.205039,1.331552 1.009742,1.362906 -1.627,0.261203 -4.358285,-1.821012 -8.18848,-0.856669 -11.219857,2.824826 -1.322447,1.606073 -5.533725,8.517504 -5.533725,9.081826 0,0.590167 -3.184338,5.108405 -4.237232,6.012166 -1.103333,0.947073 -1.083382,0.969952 0.847442,0.972126 2.474392,0.0037 5.04697,-2.210038 6.984613,-6.007916 2.306532,-4.520919 6.317422,-7.467267 9.00432,-6.614476 0.969173,0.307603 0.801499,0.483283 -1.06332,1.11413 -2.851731,0.964726 -6.05208,4.549542 -7.69913,8.624102 -1.143865,2.82973 -1.286178,4.088767 -1.224027,10.829027 l 0.07029,7.62701 -0.822809,-6.214603 c -0.581852,-4.394617 -0.666622,-7.005503 -0.289493,-8.915227 0.515909,-2.612468 0.498972,-2.669553 -0.518689,-1.748584 -0.578603,0.523643 -1.052016,1.293998 -1.052016,1.711956 0,0.417933 -0.201919,0.759867 -0.448718,0.759867 -0.725438,0 -7.017338,8.837621 -10.860047,15.254033 -1.953974,3.262672 -4.559771,7.422645 -5.790666,9.244415 -5.415539,8.01507 -10.000165,22.27054 -12.652733,39.3425 -0.76235,4.90647 -1.004813,9.74749 -0.990372,19.77375 0.01791,12.43916 0.202549,14.87228 2.188309,28.8364 0.152838,1.07478 -0.08079,0.56968 -0.519282,-1.12246 -2.053383,-7.92494 -2.826925,-16.02068 -2.836981,-29.69132 -0.0062,-8.40631 0.271197,-15.38409 0.729897,-18.36132 1.161135,-7.53652 3.394337,-17.05161 5.474021,-23.32343 1.048582,-3.16231 1.80877,-5.84736 1.689311,-5.96684 -0.119459,-0.11958 -1.59787,1.90931 -3.285329,4.50841 C 31.813976,127.49981 28.2329,139.34438 27.348076,156.978 l -0.411058,8.19197 -0.04035,-8.47445 c -0.02221,-4.66096 0.142337,-9.93709 0.365646,-11.72472 0.499874,-4.00166 0.05559,-3.61705 -2.12282,1.83785 -6.768116,16.94768 -8.17229,33.32334 -5.425757,63.27598 0.128213,1.39829 -0.300989,-0.10945 -0.9538,-3.35052 -1.406298,-6.98203 -1.281338,-7.03548 -5.849435,2.50307 -6.2001246,12.94639 -10.9397164,32.91838 -11.0343372,46.49723 -0.014478,2.08152 -0.3655478,5.4371 -0.7801022,7.45684 -0.69257731,3.37432 -0.76151508,3.48892 -0.84966634,1.41241 l -0.0959377,-2.25985 -2.59812786,5.08467 c -5.5902019,10.94032 -7.4183005,18.52186 -6.1252442,25.40275 0.4457904,2.37223 0.4915529,3.53938 0.1243633,3.17218 -0.5943147,-0.5943 -1.9242618,2.14033 -5.5133818,11.33664 -3.060467,7.84177 -6.216652,11.79022 -14.458066,18.08742 -2.798917,2.13862 -3.787789,3.35753 -5.270984,6.49709 -1.004139,2.12551 -2.572022,4.71475 -3.48418,5.75384 -1.892347,2.15567 -1.855132,2.67188 0.309128,4.28772 1.659191,1.23878 5.515246,1.54747 8.393264,0.67194 1.341717,-0.40817 1.617101,-0.28084 2.09157,0.96711 0.979167,2.5754 5.740455,4.20053 12.540095,4.28018 3.792176,0.0444 4.3466028,-0.0797 4.5945424,-1.02772 z m 6.1454892,-51.7644 c -2.1872314,-1.84043 -3.1268921,-4.73893 -2.7427954,-8.46048 0.2697139,-2.61325 2.5228873,-9.0796 2.998152,-8.60435 0.1003726,0.10032 -0.2133237,1.69707 -0.6970864,3.54823 -0.5316599,2.03442 -0.7955083,4.85775 -0.6670536,7.13776 0.2337206,4.14826 1.1472165,5.69852 4.13502361,7.01737 l 1.69489279,0.74815 -1.51030104,0.0221 c -0.83067398,0.0124 -2.27554686,-0.62179 -3.21083196,-1.40879 z m 218.1678191,0.0292 -1.58514,-1.40172 2.68357,0.88986 c 2.73481,0.90686 3.56876,1.91358 1.58515,1.91358 -0.60412,0 -1.81174,-0.63077 -2.68358,-1.40172 z m -32.73798,-2.27052 c 0.19243,-1.24292 0.35265,-3.64543 0.35608,-5.33891 0.005,-2.26854 0.17231,-2.91286 0.63755,-2.44771 0.87335,0.87335 0.40399,8.40298 -0.58155,9.32991 -0.63446,0.59669 -0.70339,0.33852 -0.41208,-1.54329 z m 32.84773,-1.81798 c -1.34183,-0.32598 -4.99086,-2.98386 -4.61399,-3.36074 0.2919,-0.29192 7.15633,3.05761 7.15633,3.49197 0,0.31336 -0.90446,0.26666 -2.54234,-0.13118 z m -37.19827,-6.93896 c -0.22118,-3.57341 -0.5267,-7.89537 -0.67892,-9.60439 l -0.27676,-3.10731 0.89433,2.25986 c 1.08678,2.74612 1.67142,11.58098 0.97202,14.68907 -0.44398,1.97303 -0.55956,1.43522 -0.91067,-4.23723 z m 33.62748,-0.38516 c -1.72116,-0.84816 -4.6212,-3.94925 -4.6212,-4.94155 0,-0.22984 0.98737,0.36414 2.19417,1.31992 1.20678,0.95579 3.3042,2.37239 4.66096,3.14797 2.13354,1.21968 2.27599,1.40935 1.05437,1.40411 -0.77683,-0.004 -2.25655,-0.42204 -3.2883,-0.93045 z m -44.55817,-1.67006 c 2.23543,-2.66043 3.37518,-7.02315 3.66951,-14.04626 0.31552,-7.52813 1.21125,-6.92984 1.28577,0.8588 0.0614,6.41444 -1.21469,10.20936 -4.36553,12.98282 -1.18805,1.04575 -1.34113,1.09887 -0.58975,0.20464 z m 43.13757,-5.9099 c -3.5038,-2.32081 -6.32873,-5.70279 -7.40716,-8.86782 -1.39869,-4.10495 -1.0213,-4.53775 0.79224,-0.90855 1.01791,2.03702 3.27189,4.94104 5.77057,7.43478 2.25511,2.25066 3.96226,4.0921 3.79365,4.0921 -0.1686,0 -1.49579,-0.78772 -2.9493,-1.75051 z m -45.33414,-1.83301 c 1.13672,-3.57544 1.11073,-3.66862 -1.14178,-4.0912 -1.33321,-0.25009 -2.78802,-0.13259 -3.86586,0.31205 -0.95052,0.39222 -2.80605,1.09447 -4.12342,1.56058 -5.93638,2.10044 -12.74491,-1.74017 -13.53559,-7.6353 -0.26596,-1.98281 -0.54502,-2.37405 -1.90666,-2.6731 -2.23741,-0.49144 -6.07547,-4.16291 -6.48714,-6.20559 l -0.34158,-1.69489 1.18873,1.7701 c 1.55375,2.31368 4.99029,4.55298 8.04279,5.24083 1.34226,0.30246 5.36417,0.68675 8.93757,0.85401 7.75507,0.36293 10.39306,1.02879 12.52593,3.16166 l 1.59818,1.59818 -0.004,-1.51019 c -0.007,-3.33534 -1.05692,-5.44968 -3.48961,-7.02706 -2.59616,-1.68338 -2.52461,-2.05652 0.13101,-0.68324 1.98051,1.02416 1.96949,1.07765 0.53043,-2.57328 -1.56021,-3.95823 -0.56751,-3.09428 1.67231,1.45547 2.45178,4.98026 3.28286,9.87664 2.36931,13.95883 -0.38087,1.70193 -1.084,3.57343 -1.56249,4.15888 -0.82713,1.01197 -0.85369,1.01312 -0.539,0.0233 z m -7.86577,-4.02308 c 1.08572,-0.49716 1.34341,-0.79258 0.71697,-0.82197 -1.10816,-0.0519 -1.82572,-2.19289 -1.42955,-4.26525 0.34813,-1.82122 -0.25896,-1.99525 -6.96065,-1.99525 -5.44025,0 -5.60286,0.0371 -5.58341,1.27117 0.0556,3.53102 4.17352,6.64645 8.73691,6.60996 1.55366,-0.0124 3.58753,-0.37183 4.51973,-0.79866 z m -71.540029,-0.16166 c -0.702757,-0.89606 -0.682769,-0.91605 0.213308,-0.21331 0.543767,0.42647 0.98868,0.87137 0.98868,0.98869 0,0.46499 -0.463938,0.16579 -1.201988,-0.77538 z m 235.044919,-2.90413 c -6.71394,-2.6268 -14.62033,-10.66369 -20.24138,-20.57545 -2.36588,-4.1718 -1.93662,-4.78551 0.58842,-0.84126 2.38322,3.72281 7.46247,10.0942 10.72789,13.45714 3.49541,3.59975 6.66708,5.96854 10.1831,7.60529 3.48086,1.62043 2.60707,1.86649 -1.25803,0.35428 z m -113.45725,-6.11677 c -3.3352,-1.17798 -6.98078,-4.91179 -8.15206,-8.34932 -1.33574,-3.92017 -1.1567,-4.3401 0.46386,-1.08806 1.96696,3.94719 5.07924,6.75496 9.64678,8.70291 3.12913,1.3345 3.58147,1.66808 2.23032,1.64471 -0.93218,-0.0159 -2.81719,-0.42573 -4.1889,-0.91024 z m 4.15197,-3.48768 c -2.57083,-1.16767 -6.19087,-4.15277 -7.10306,-5.85721 -0.73648,-1.37613 -0.22804,-1.10506 3.65971,1.95102 1.50386,1.18216 2.90215,2.14954 3.10731,2.14974 0.20513,1.9e-4 0.28365,-1.2895 0.17443,-2.86596 -0.27201,-3.92694 1.99022,-8.31551 7.83183,-15.19312 4.40354,-5.18452 6.17412,-8.63387 6.2255,-12.12815 0.0159,-1.11055 0.0474,-1.11634 0.62857,-0.1165 0.79247,1.36381 0.3012,4.27382 -1.24376,7.36729 l -1.23006,2.46296 1.27597,1.72581 c 1.73345,2.34465 2.1167,6.71178 0.87443,9.96459 -1.08165,2.83227 -4.60988,6.31568 -6.94641,6.85817 -2.19469,0.50956 -4.11024,1.79997 -4.11024,2.76882 0,0.45005 0.82626,1.05684 1.83614,1.34843 l 1.83613,0.53017 -2.25986,0.0386 c -1.24292,0.0211 -3.29341,-0.4309 -4.55664,-1.00464 z m 12.51658,-10.34446 c 1.53925,-2.94636 0.66415,-10.05616 -1.23774,-10.05616 -0.78959,0 -5.92815,5.61696 -7.70306,8.42022 -0.93264,1.47303 -0.97003,1.74913 -0.23684,1.74913 1.68005,0 4.88997,2.33119 4.88997,3.5513 0,1.09295 0.12854,1.05766 1.74533,-0.47953 0.95994,-0.91266 2.10399,-2.34588 2.54234,-3.18496 z m -42.40276,8.99533 c -1.31617,-0.74547 -2.94706,-2.41294 -3.95474,-4.04345 -1.52877,-2.47368 -1.71084,-3.23938 -1.67761,-7.05529 0.042,-4.82241 1.08284,-7.7531 5.14991,-14.50033 3.51564,-5.83241 5.76633,-10.90448 6.6539,-14.99499 0.42943,-1.97908 0.801,-2.9526 0.82569,-2.16338 0.0976,3.11947 -1.88138,8.57492 -6.24977,17.22832 -4.16036,8.24136 -4.5994,9.42693 -4.86487,13.13727 -0.44912,6.27719 1.54825,10.29634 6.35736,12.7924 0.93219,0.48384 1.31355,0.87709 0.84745,0.87388 -0.46609,-0.004 -1.8554,-0.57669 -3.08732,-1.27443 z m 4.26153,0.0773 c -2.05239,-1.91208 -2.8691,-4.58946 -2.8691,-9.40558 0,-5.74553 1.00728,-8.56136 4.79591,-13.40681 7.673,-9.81335 8.80229,-11.45315 9.67209,-14.0444 0.65046,-1.93779 0.84722,-3.95137 0.66248,-6.77957 -0.29606,-4.53247 -1.57928,-7.53008 -4.81669,-11.25184 l -2.06648,-2.37563 2.62309,2.48651 c 3.68535,3.49346 5.1556,7.10505 5.19756,12.76752 0.0293,3.95485 -0.18892,4.97865 -1.74632,8.19197 -0.9789,2.01975 -3.60692,5.95029 -5.84003,8.73455 -4.82467,6.01544 -5.89713,7.98714 -6.84771,12.58939 -0.8614,4.17048 -0.0629,9.6698 1.7627,12.13898 1.38781,1.87714 1.22441,1.98708 -0.5275,0.35491 z m -17.85428,-7.35225 c -5.1769,-4.54539 -5.88741,-10.95505 -2.37971,-21.46822 2.4207,-7.2553 3.44629,-11.9343 2.9551,-13.4819 -0.3277,-1.0325 -0.60872,-0.8771 -2.80276,1.54988 -1.34119,1.4836 -3.29239,3.19386 -4.336,3.80062 -1.5759,0.91622 -1.36814,0.58113 1.22594,-1.97737 1.8043,-1.77956 4.07099,-4.87007 5.36717,-7.31779 2.21375,-4.18058 2.2433,-4.31656 2.21092,-10.16936 -0.0357,-6.45215 -1.08771,-10.10814 -4.06424,-14.1241 l -1.46559,-1.97738 1.56679,1.41241 c 3.59456,3.24039 6.45729,11.93096 5.78896,17.57396 -0.18577,1.56859 -0.92905,4.16706 -1.65171,5.77442 -1.12679,2.50619 -1.22339,3.19319 -0.67826,4.82321 l 0.63567,1.90077 1.27354,-1.61829 c 1.89203,-2.4042 5.47564,-10.22809 6.2676,-13.68373 1.24699,-5.44101 -0.001,-10.97743 -3.50052,-15.52636 l -1.8087,-2.35128 1.81983,1.67769 c 4.31055,3.97381 6.11572,11.55757 4.37158,18.36559 -1.10699,4.32105 -3.03997,7.79857 -6.28336,11.30397 -1.73069,1.8705 -2.46199,3.21238 -2.74268,5.03256 -0.21051,1.36508 -1.44135,5.68705 -2.7352,9.60439 -3.673,11.12062 -3.11329,17.19501 1.95228,21.18706 1.01849,0.80265 1.66997,1.46217 1.44774,1.46562 -0.22224,0.004 -1.31773,-0.79592 -2.43439,-1.77637 z m -23.22446,-0.99812 c -1.50047,-0.68072 -3.01417,-2.03825 -4.23723,-3.80009 -1.72017,-2.47797 -1.90232,-3.12065 -1.89772,-6.69581 0.007,-5.23194 1.29741,-7.69718 7.74088,-14.78535 3.34832,-3.68334 5.69705,-6.88507 6.97495,-9.50811 1.05967,-2.17512 1.93092,-3.60007 1.93609,-3.16659 0.0242,2.02254 -4.24968,9.26579 -8.2022,13.9009 -2.38474,2.79657 -4.94236,6.35586 -5.68361,7.9095 -2.62198,5.49552 -1.2965,11.67765 3.20246,14.93671 1.31331,0.95134 2.85051,1.72973 3.41598,1.72973 0.91892,0 0.87393,-0.22506 -0.42349,-2.11861 -1.29338,-1.88765 -1.42321,-2.53021 -1.19104,-5.89428 0.30083,-4.35894 1.69854,-7.16642 4.84941,-9.74076 1.13549,-0.92775 3.69317,-3.31505 5.68374,-5.30515 2.56725,-2.56665 3.26762,-3.06666 2.40964,-1.72029 -2.09601,3.28912 -3.56348,6.85896 -4.37997,10.65499 l -0.78989,3.67226 0.24385,-4.09598 c 0.13418,-2.25279 0.0367,-4.09599 -0.21629,-4.09599 -0.25309,0 -1.49668,1.12449 -2.76354,2.49889 -3.98262,4.32065 -5.14461,11.36973 -2.47045,14.98674 l 1.10396,1.49317 -1.48556,0.10155 c -0.81705,0.0558 -2.53603,-0.375 -3.81997,-0.95747 z m 192.02235,-0.89157 c 0.007,-1.24292 0.12205,-1.68486 0.2571,-0.9821 0.13506,0.70277 0.12994,1.7197 -0.0111,2.25986 -0.14141,0.54016 -0.25197,-0.0347 -0.2457,-1.27776 z m -148.94554,-2.23998 c -0.51996,-0.79356 -0.88448,-2.43386 -0.84746,-3.8135 l 0.065,-2.42098 0.41207,2.12485 c 0.38501,1.98531 0.96896,3.17218 1.29412,2.63025 0.0777,-0.1294 0.76469,-1.47333 1.52668,-2.98636 0.76602,-1.52108 2.53409,-3.66803 3.95474,-4.80219 1.41312,-1.12818 4.03993,-3.51274 5.83734,-5.29902 5.08546,-5.054 2.51799,-1.33216 -3.09347,4.48433 -3.41716,3.54202 -5.44973,6.18946 -6.3978,8.33321 -0.76424,1.72808 -1.4906,3.14195 -1.61414,3.14195 -0.12359,0 -0.63522,-0.62663 -1.13706,-1.39254 z m 12.63273,-0.0567 c -0.77716,-2.04408 -0.6505,-4.80376 0.29647,-6.46032 0.74963,-1.31133 0.80883,-1.07887 0.82742,3.24854 0.0111,2.56354 -0.11328,4.66096 -0.27644,4.66096 -0.16314,0 -0.54442,-0.65213 -0.84745,-1.44918 z m -30.17503,-2.13786 c -1.15188,-5.3774 0.0124,-9.1785 6.51098,-21.27137 3.50207,-6.51607 3.11985,-4.86695 -0.96904,4.18088 -3.56965,7.89894 -4.21772,10.00575 -4.70948,15.31037 -0.35217,3.79868 -0.38502,3.86893 -0.83246,1.78012 z m -15.37811,-2.93441 c -0.18402,-0.47949 -0.20832,-0.99805 -0.054,-1.15233 0.15429,-0.15431 0.41613,0.23803 0.58187,0.8718 0.35206,1.34628 -0.039,1.55415 -0.52785,0.28053 z m 58.37048,-12.56113 c -3.25083,-1.97426 -3.99916,-4.54069 -4.07277,-13.96782 -0.0413,-5.29277 -0.32851,-9.10985 -0.76488,-10.16684 -1.13107,-2.73967 -3.41395,-5.37424 -6.17301,-7.12397 -1.41838,-0.89953 -2.31846,-1.63549 -2.00016,-1.63549 1.04374,0 5.83167,3.46167 6.91006,4.99599 2.75472,3.91931 3.08853,5.24191 3.44465,13.64783 0.37788,8.91945 1.12967,11.54425 3.8094,13.30006 0.78653,0.51538 2.32748,0.93703 3.42429,0.93703 1.37438,0 1.74884,0.15537 1.20481,0.49982 -1.26521,0.80111 -4.04758,0.56698 -5.78239,-0.48661 z M 156.15147,212.0083 c -0.007,-0.34026 0.52241,-1.10297 1.17693,-1.69489 2.24695,-2.03209 3.32968,-5.01453 3.32968,-9.17182 0,-3.57205 -0.23976,-4.37143 -2.82482,-9.41833 -1.55365,-3.03323 -2.81486,-5.92663 -2.80272,-6.42975 0.0124,-0.50314 0.39384,-0.0586 0.84814,0.98783 0.4543,1.04643 1.74265,3.15131 2.86297,4.67751 4.84584,6.60134 4.80811,13.92983 -0.0982,19.07069 -1.3634,1.42856 -2.48478,2.31901 -2.49198,1.97876 z m 31.10452,-1.68831 c 0.0272,-0.65814 0.16101,-0.79201 0.34134,-0.34133 0.16314,0.40785 0.14319,0.89512 -0.0445,1.08286 -0.18775,0.18773 -0.32127,-0.14602 -0.29674,-0.74153 z m -32.20295,-2.25986 c 0.0272,-0.65814 0.161,-0.792 0.34134,-0.34131 0.16313,0.40782 0.14318,0.89511 -0.0445,1.08284 -0.18774,0.18773 -0.32127,-0.14601 -0.29672,-0.74153 z m 0.60956,-3.62517 c 0,-0.77683 0.12817,-1.09463 0.28497,-0.70621 0.15677,0.38841 0.15677,1.024 0,1.41241 -0.15678,0.38842 -0.28497,0.0707 -0.28497,-0.7062 z m -6.82418,-3.71936 c 0.0272,-0.65815 0.16102,-0.792 0.34136,-0.34132 0.16313,0.40783 0.14317,0.89512 -0.0445,1.08284 -0.18773,0.18775 -0.32126,-0.14601 -0.29673,-0.74152 z m 167.83895,-7.01494 c 0,-0.77683 0.12818,-1.09463 0.28497,-0.7062 0.15678,0.3884 0.15678,1.02399 0,1.4124 -0.15678,0.38841 -0.28497,0.0707 -0.28497,-0.7062 z m -277.441976,-1.4595 c 0.02718,-0.65815 0.16098,-0.79201 0.341329,-0.34133 0.163215,0.40784 0.143141,0.89512 -0.0446,1.08285 -0.187737,0.18774 -0.321267,-0.14602 -0.296733,-0.74152 z m 276.897946,-1.6478 c 0.0124,-0.93219 0.13806,-1.24516 0.28139,-0.69546 0.14318,0.5497 0.13383,1.31239 -0.021,1.6949 -0.15465,0.38249 -0.27194,-0.0673 -0.26043,-0.99944 z M 95.919801,186.58359 c 0.159422,-2.57166 0.797348,-5.94757 1.456805,-7.71011 1.391381,-3.71883 4.939654,-7.94838 7.961284,-9.4899 3.16713,-1.61575 3.38653,-1.35159 0.43309,0.5214 -4.24247,2.69051 -5.956042,5.71883 -8.421008,14.88214 l -1.713895,6.3712 z m 10.208799,1.71155 c 0.78169,-1.1519 1.94211,-3.9026 2.57866,-6.11268 0.63658,-2.21007 1.90809,-5.94671 2.82562,-8.30362 0.91752,-2.35692 1.66821,-4.45697 1.66821,-4.66677 0,-0.66522 4.01642,-6.22268 6.00077,-8.30314 1.0498,-1.10067 1.9288,-2.49895 1.95332,-3.1073 0.0246,-0.60837 0.16826,-0.80224 0.31928,-0.43081 0.18587,0.45702 1.45877,0.0243 3.93828,-1.33851 3.9478,-2.16996 9.32812,-3.06192 12.08181,-2.00294 1.12698,0.43342 0.66941,0.53686 -2.26418,0.51188 -6.02515,-0.0511 -11.90646,3.3195 -17.03899,9.76565 -2.46587,3.09701 -6.40905,11.20269 -8.39017,17.24703 -1.27399,3.8869 -3.3199,7.73918 -4.49638,8.46627 -0.3286,0.20311 0.042,-0.57318 0.82377,-1.72506 z m -19.154539,-3.26439 c -0.656221,-3.81569 -0.04855,-7.96299 1.686334,-11.50893 1.561255,-3.1911 7.083973,-9.14525 13.241415,-14.27582 3.59695,-2.99709 3.5674,-2.95035 -1.44135,2.27951 -9.911107,10.34863 -12.131412,14.15094 -12.685086,21.72331 l -0.33047,4.51971 z m 29.355119,0.47793 c 0.51474,-3.3435 2.93099,-10.26773 4.54266,-13.01784 4.02101,-6.86132 9.23863,-10.45949 15.73732,-10.85274 2.19598,-0.13294 4.57987,-0.0177 5.29754,0.25765 0.95822,0.36663 0.26628,0.49926 -2.60486,0.49926 -3.25597,0 -4.52318,0.30201 -7.57875,1.80628 -6.36893,3.13539 -10.5234,8.5818 -13.86433,18.17575 -1.11085,3.19 -1.73543,4.46873 -1.52958,3.13164 z m 79.78804,-4.20921 c -4.59877,-3.12314 -8.98038,-4.63925 -13.70803,-4.74325 -2.17511,-0.0478 -4.71745,0.10451 -5.64963,0.33855 l -1.6949,0.42553 1.6949,-0.9847 c 1.24006,-0.72043 2.90778,-0.9782 6.2146,-0.96051 5.85995,0.0314 9.97321,1.60523 13.99084,5.35345 1.62696,1.51783 2.83097,2.76244 2.6756,2.7658 -0.15536,0.004 -1.74088,-0.98433 -3.52338,-2.19487 z m 78.7528,-14.71709 c 0,-0.77683 0.12817,-1.09462 0.28498,-0.7062 0.15678,0.38841 0.15678,1.024 0,1.41241 -0.15678,0.3884 -0.28498,0.0707 -0.28498,-0.70621 z m -168.88238,-3.95475 c 0,-1.08756 0.11637,-1.53246 0.25837,-0.98868 0.14213,0.54378 0.14213,1.43359 0,1.97737 -0.14212,0.54378 -0.25837,0.0988 -0.25837,-0.98869 z m 72.47557,-1.43615 c -3.17809,-4.61444 -7.86139,-9.04903 -11.36879,-10.76504 -3.87672,-1.89671 -9.57538,-2.41882 -13.07467,-1.19792 -1.32061,0.46076 -2.4011,0.72792 -2.4011,0.59371 0,-0.13418 1.08049,-0.73448 2.4011,-1.33392 5.34673,-2.42696 13.172,-0.90184 18.29206,3.56508 2.62121,2.28683 2.68578,2.31056 1.6118,0.59205 -5.13966,-8.22402 -11.58399,-12.83185 -19.63461,-14.03913 -5.32624,-0.79871 -11.1709,1.99646 -12.84384,6.1425 -0.422,1.04584 -0.49412,1.06889 -0.52502,0.1679 -0.0641,-1.86798 1.61793,-4.5736 3.74084,-6.0175 1.8826,-1.28045 2.61954,-1.41241 7.88836,-1.41241 h 5.81176 l -2.66503,-2.71589 c -3.91562,-3.9904 -7.94497,-6.11883 -12.23562,-6.46325 -4.27574,-0.34319 -7.03087,0.46886 -9.78163,2.88311 -1.41402,1.24102 -1.84083,1.43389 -1.4163,0.64007 2.49626,-4.66778 10.82424,-6.56545 16.58154,-3.77838 2.67486,1.29487 7.83885,6.05746 9.39969,8.66905 0.50413,0.8435 2.28438,2.13681 4.08671,2.96888 6.22363,2.87325 11.66057,8.64173 13.30967,14.12137 0.43983,1.46136 1.28332,3.34365 1.87445,4.18283 1.20112,1.70515 3.61564,6.32801 3.30511,6.32801 -0.10995,0 -1.17045,-1.40897 -2.35648,-3.13106 z m 95.79725,2.23651 c 0.0272,-0.65815 0.16102,-0.79201 0.34134,-0.34133 0.16313,0.40784 0.14318,0.89512 -0.0445,1.08285 -0.18775,0.18774 -0.32128,-0.14602 -0.29673,-0.74152 z M 152.20858,162.9768 c -0.0425,-1.81235 2.24502,-4.85108 4.52918,-6.01638 3.70076,-1.88798 10.7235,-1.29067 13.62074,1.15852 l 1.31638,1.11279 -2.25986,-0.94371 c -1.38174,-0.57702 -3.90632,-0.96001 -6.49709,-0.98564 -5.01868,-0.0497 -7.81943,1.31488 -9.59426,4.6743 -0.73609,1.39326 -1.09822,1.71806 -1.11509,1.00012 z m -38.75067,-2.9004 c 0.4309,-5.56517 2.22234,-10.28986 5.99784,-15.81861 4.10052,-6.00468 5.59519,-8.79916 5.6493,-10.56206 0.0374,-1.22271 0.0655,-1.23169 0.51129,-0.16366 0.95999,2.30022 -0.3039,5.2247 -5.1485,11.91281 -3.30981,4.56929 -4.94625,8.27537 -6.46451,14.6405 l -0.80858,3.38979 z m -6.7256,-2.23244 c 0.19328,-1.23274 1.37423,-5.17336 2.62437,-8.75695 5.61782,-16.10414 6.23089,-18.29848 6.53459,-23.38884 0.30022,-5.03195 0.81381,-5.4308 1.51424,-1.17597 0.5781,3.51159 -0.94962,9.54646 -4.8274,19.06959 -1.92245,4.72121 -4.10329,10.36364 -4.8463,12.53876 -0.95856,2.80612 -1.24884,3.30376 -0.9995,1.71341 z m -17.753032,-2.43372 c -0.09846,-4.09792 1.506021,-8.29283 5.573775,-14.57211 4.88336,-7.53833 5.1594,-8.54354 4.721541,-17.1947 -0.409891,-8.09874 0.103399,-11.1992 2.438216,-14.72733 1.28449,-1.94096 4.40218,-4.47978 5.50128,-4.47978 0.20718,0 -0.56439,0.82627 -1.71459,1.83614 -5.53543,4.86011 -6.102656,11.55398 -2.65861,31.37459 0.77122,4.4384 1.27685,8.37902 1.12362,8.75695 -0.15325,0.37791 -0.29867,0.004 -0.32321,-0.83318 -0.0623,-2.12441 -0.88046,-2.40433 -1.69692,-0.5806 -0.82274,1.83774 -5.15458,8.59799 -5.509424,8.59799 -0.137186,0 -0.137532,-0.19068 -5.68e-4,-0.42373 0.136655,-0.23305 1.256221,-2.07962 2.487709,-4.10348 3.757913,-6.1758 4.007963,-7.63588 2.357443,-13.76541 l -0.6066,-2.25271 -1.800183,3.35184 c -0.990112,1.84353 -2.838772,4.87727 -4.108125,6.74166 -3.504419,5.14718 -4.763543,7.96667 -5.260588,11.77979 l -0.453116,3.47423 z m 32.994362,-1.25708 c 1.41751,-6.92471 7.59612,-11.69475 13.19523,-10.18707 1.20673,0.32495 2.5223,0.98631 2.92348,1.46971 0.64205,0.77362 0.53148,0.82553 -0.92287,0.43323 -6.03022,-1.62662 -10.61708,0.578 -13.71115,6.59005 -1.51393,2.94172 -1.809,3.27844 -1.48469,1.69408 z m -19.2456,-1.97737 c 0.76764,-3.4688 1.03874,-4.23723 1.49487,-4.23723 0.27705,0 0.47424,0.95339 0.43819,2.11862 -0.0373,1.20412 -0.18696,1.64049 -0.34682,1.01098 -0.24586,-0.96816 -0.37918,-0.89702 -1.05879,0.56497 -0.42763,0.91992 -0.66499,1.16412 -0.52745,0.54266 z m 69.15725,-12.57044 c -0.70275,-0.89607 -0.68276,-0.91606 0.21331,-0.21331 0.54378,0.42646 0.98869,0.87137 0.98869,0.98868 0,0.46499 -0.46394,0.16578 -1.202,-0.77537 z m -83.995299,-2.25986 c 3.466147,-3.70469 4.407426,-7.94192 4.407426,-19.84026 0,-9.88583 0.558838,-12.75269 3.340846,-17.13853 2.634939,-4.15399 8.649877,-6.378482 11.528557,-4.263591 0.80862,0.594083 0.43744,0.706204 -2.33791,0.706204 -2.74646,0 -3.64795,0.266157 -5.381231,1.588679 -4.481634,3.419658 -6.063383,9.259918 -5.919761,21.857328 0.113529,9.95667 -0.792332,13.89207 -3.864661,16.78964 -2.377528,2.2423 -3.818484,2.48651 -1.773266,0.30053 z m 20.671989,-5.64673 c -2.69572,-6.0941 -3.51847,-13.31705 -1.87826,-16.48887 1.89571,-3.6659 6.2889,-5.65206 8.77723,-3.96818 0.62766,0.42475 0.44166,0.47916 -0.71717,0.20983 -3.36945,-0.78311 -6.61736,2.09979 -7.4117,6.57879 -0.39477,2.22594 0.84231,10.25034 2.15291,13.96501 1.13443,3.2153 0.54697,3.02654 -0.92301,-0.29658 z m 63.36496,-1.02826 c -2.58399,-2.67298 -6.79948,-5.43206 -7.74506,-5.06922 -0.41671,0.15996 -0.61576,0.061 -0.44233,-0.21949 0.17337,-0.28064 -0.004,-0.62427 -0.39437,-0.76364 -0.39035,-0.1393 -0.51912,-0.45761 -0.28616,-0.70723 0.56704,-0.60755 5.74516,3.01268 8.87473,6.20465 1.38529,1.41294 2.38855,2.56897 2.22945,2.56897 -0.15908,0 -1.16542,-0.90632 -2.23626,-2.01404 z M 68.996354,125.65151 c 2.004685,-1.68682 4.811437,-6.84805 6.006903,-11.04583 1.493582,-5.24469 2.523868,-13.33447 3.177371,-24.948668 0.542309,-9.638329 1.762741,-18.388327 3.100014,-22.225835 0.247911,-0.711416 -0.447582,-0.266182 -1.877716,1.202088 -3.481713,3.574525 -4.56748,7.81319 -5.228382,20.410789 -0.297622,5.672468 -0.900834,12.193736 -1.340497,14.491686 -0.754283,3.94225 -3.037047,9.4635 -4.213241,10.19043 -0.294015,0.18171 0.18807,-1.13503 1.0713,-2.92606 1.967699,-3.99022 2.828408,-9.37306 2.841614,-17.771294 0.02471,-15.709792 1.867425,-22.708439 6.739864,-25.597639 1.048063,-0.621458 3.156259,-2.445299 4.6849,-4.052978 1.528654,-1.60768 3.623767,-3.323761 4.655845,-3.813518 2.103279,-0.998068 5.225529,-1.154217 6.507914,-0.325479 0.619778,0.400527 0.19484,0.54998 -1.5817,0.556318 -1.336037,0.0049 -3.115677,0.369037 -3.954755,0.809528 -1.962708,1.030336 -5.39376,4.64443 -6.500317,6.847056 -1.509394,3.004508 -2.640782,10.117166 -3.252864,20.449629 -1.009754,17.045077 -2.663982,27.009127 -5.384272,32.431467 -1.2168,2.42544 -5.421394,6.70169 -6.58941,6.70169 -0.278634,0 0.233198,-0.62252 1.137429,-1.38338 z m 84.983566,-0.57247 c -6.02022,-3.73737 -15.62215,-5.72652 -20.8226,-4.31359 -1.39918,0.38013 -2.95161,1.34442 -3.81351,2.36872 -0.79951,0.95015 -1.45365,1.47332 -1.45365,1.16259 0,-1.20978 2.96555,-4.00077 4.96192,-4.66986 3.15865,-1.05862 9.15459,-0.78416 13.34674,0.61089 3.49669,1.16363 9.94269,4.86604 10.75215,6.17573 0.50922,0.82397 0.49692,0.81842 -2.97105,-1.33448 z m -72.376777,-1.71642 c 0,-0.31073 0.363331,-1.20054 0.807404,-1.97737 0.444086,-0.77683 0.807404,-1.15817 0.807404,-0.84744 0,0.31073 -0.363318,1.20054 -0.807404,1.97737 -0.444073,0.77683 -0.807404,1.15817 -0.807404,0.84744 z m 78.602037,-4.37847 c -2.89755,-5.2749 -7.97474,-12.39213 -11.32178,-15.87088 -10.89661,-11.325356 -27.81511,-17.930332 -32.90093,-12.844497 -1.78924,1.789227 -2.18611,1.38466 -0.76673,-0.78161 1.08951,-1.662813 3.54558,-2.565722 6.96784,-2.561558 9.72944,0.01235 24.57437,10.04481 32.63834,22.058815 2.94193,4.38302 8.39261,14.09573 7.91035,14.09573 -0.15236,0 -1.28965,-1.8432 -2.52709,-4.096 z m -35.7048,-0.0972 c 0,-2.17315 3.79772,-3.8265 6.45088,-2.80838 1.2922,0.49586 1.10043,1.30025 -0.2272,0.95305 -1.59838,-0.41796 -3.50402,0.16896 -4.96376,1.52897 -0.97488,0.90825 -1.25992,0.98209 -1.25992,0.32636 z m -58.863637,-2.57607 c 1.028495,-1.00418 1.988786,-1.70696 2.13399,-1.56177 0.145191,0.14513 -0.696308,0.96678 -1.870007,1.82574 l -2.13399,1.56176 z m 18.495902,0.55468 c 0.262093,-0.77683 0.505804,-8.53095 0.541617,-17.231402 0.07128,-17.321437 0.550882,-21.472095 3.003322,-25.990519 1.653177,-3.04583 4.565243,-5.364988 6.736615,-5.364988 2.281615,0 5.221155,1.730498 6.127451,3.607201 0.54811,1.135044 0.58945,1.449862 0.11637,0.88659 -2.48225,-2.955366 -6.534488,-3.671032 -9.147586,-1.615573 -3.96003,3.114973 -5.427595,10.36662 -5.427595,26.819467 0,8.119234 -0.252062,12.669084 -0.862674,15.571914 -0.474487,2.2556 -1.020502,4.24253 -1.213354,4.41541 -0.192863,0.17284 -0.136296,-0.32127 0.125883,-1.0981 z m 55.486015,-7.20329 c -2.41958,-3.6206 -5.3417,-6.20028 -9.14328,-8.07179 -3.33927,-1.643913 -4.01521,-1.778097 -7.78202,-1.54491 -2.26881,0.14053 -4.63357,0.4585 -5.25504,0.70676 -1.0415,0.41605 -1.03068,0.34722 0.13825,-0.879724 1.032,-1.083184 1.97908,-1.371244 5.08467,-1.546554 3.16503,-0.178694 4.3727,0.03051 7.07533,1.226004 3.67906,1.627324 8.44856,6.100964 10.47765,9.827734 1.61658,2.96905 1.30009,3.11916 -0.59561,0.28248 z M 90.302479,95.679382 c 0.218905,-7.585576 1.148646,-11.093578 3.627708,-13.687688 2.06581,-2.16165 4.710583,-3.220337 6.689483,-2.677769 l 1.56462,0.429002 -1.69488,0.384344 c -5.941064,1.347254 -8.720391,6.209637 -9.858351,17.247007 l -0.524235,5.084672 z m 59.321691,-0.162066 c -8.8887,-8.57648 -17.76781,-13.467215 -27.07717,-14.914508 -4.78882,-0.744499 -7.23655,-0.271012 -10.68035,2.065996 l -2.06207,1.399374 0.90928,-1.387736 c 1.03433,-1.578575 4.15936,-3.667462 5.48665,-3.667462 3.65161,0 -0.72618,-4.702059 -5.82058,-6.251701 -1.14143,-0.347209 -1.19693,-0.437761 -0.28614,-0.466903 1.87046,-0.05991 5.95268,2.080969 7.83563,4.109188 1.49231,1.607456 2.47517,2.047367 6.28847,2.814658 2.87751,0.578999 6.51668,1.905178 10.01582,3.649932 5.4609,2.722983 5.49402,2.731161 5.17573,1.27879 -0.50128,-2.287433 -1.79543,-7.558225 -2.16218,-8.806231 -0.18265,-0.621458 0.19371,-0.03916 0.83633,1.293912 0.64265,1.333096 1.6136,4.176724 2.15767,6.319176 0.95432,3.75784 1.14565,4.031224 5.42036,7.745518 3.72608,3.237557 9.99351,9.830971 9.27883,9.761431 -0.11798,-0.0123 -2.51029,-2.236029 -5.31628,-4.943434 z m 7.00709,0.58583 c -0.70275,-0.896065 -0.68276,-0.916053 0.21332,-0.213309 0.54376,0.426458 0.98868,0.871371 0.98868,0.98868 0,0.464988 -0.46394,0.165785 -1.202,-0.775371 z M 97.949181,91.263802 c -0.0037,-1.772624 1.149115,-3.277954 3.150659,-4.114265 1.68047,-0.702126 2.18926,-0.699656 3.90927,0.01902 2.4232,1.01246 2.58285,1.671572 0.28249,1.166324 -2.74793,-0.603533 -5.0481,0.195556 -6.253589,2.172533 -0.773753,1.268944 -1.087323,1.486799 -1.08883,0.756383 z M 127.65009,73.530881 c -0.62014,-2.607354 -5.15394,-8.784551 -8.05794,-10.978703 -1.49535,-1.129831 -4.58805,-2.989338 -6.87266,-4.132251 -4.53845,-2.270411 -4.96211,-3.014638 -1.12907,-1.983425 3.3329,0.89667 5.36932,1.995778 8.4516,4.56155 1.43203,1.192056 2.76676,2.004314 2.96606,1.805015 0.1993,-0.1993 0.36347,-0.0025 0.36479,0.437995 10e-4,0.440206 0.76326,1.944425 1.69318,3.342711 1.7051,2.563906 3.73596,7.750929 3.232,8.254879 -0.14972,0.149713 -0.4413,-0.438785 -0.64796,-1.307771 z m -6.64708,-1.885091 c -4.90081,-6.957003 -14.80723,-10.491985 -19.83709,-7.078624 -2.002113,1.358669 -2.018852,1.360164 -1.584662,0.141239 1.690722,-4.746359 12.529282,-3.589573 18.056292,1.927129 2.00747,2.003734 5.4107,6.683841 5.08114,6.987578 -0.10773,0.0992 -0.87969,-0.790578 -1.71568,-1.977322 z m -0.91169,-13.450241 c -6.29743,-9.71859 -15.71077,-12.442685 -22.604891,-6.541553 -2.678708,2.292869 -3.125264,1.796862 -0.833914,-0.926269 6.136505,-7.29281 18.130745,-3.665917 24.069615,7.278331 1.99764,3.681273 1.69139,3.77327 -0.63081,0.189491 z m 22.87531,287.133171 c 1.18288,-0.88314 1.7235,-1.96263 2.21722,-4.42735 0.83622,-4.1744 2.71049,-6.2737 4.86863,-5.45318 0.80575,0.30633 2.16714,1.43697 3.02534,2.5125 2.85904,3.58313 4.45072,1.13611 5.32444,-8.18567 0.33071,-3.52831 0.87116,-7.42393 1.20103,-8.65696 0.81228,-3.03632 4.14302,-9.58737 6.55706,-12.89674 l 1.97639,-2.7094 -0.9228,-5.04385 c -0.50753,-2.77413 -1.2,-5.74978 -1.53882,-6.61254 l -0.61605,-1.56863 -0.89059,1.83613 c -1.08798,2.2431 -1.49054,2.28968 -2.32738,0.2694 -0.35694,-0.8617 -1.60233,-2.67368 -2.76755,-4.02659 l -2.11858,-2.45986 -1.06851,3.32039 -1.06848,3.32038 -0.47751,-2.25985 c -0.88009,-4.16514 -1.02277,-4.12469 -3.58736,1.01727 -2.96852,5.95185 -8.73495,14.36009 -13.02933,18.99851 -1.88512,2.03618 -4.87518,4.38176 -7.55917,5.92989 -5.42298,3.12796 -6.79416,4.87165 -6.79416,8.6399 0,2.31972 0.26671,3.02865 1.63119,4.33593 0.89716,0.85953 2.61324,1.91286 3.81351,2.34075 1.20029,0.42789 1.72924,0.78914 1.17548,0.80279 -1.30593,0.0321 -4.90478,-1.47641 -6.09782,-2.55611 -0.83585,-0.75642 -1.11867,-0.66801 -2.75648,0.86195 -1.00379,0.93769 -2.81151,2.00041 -4.01715,2.36164 -2.47741,0.74224 -4.48304,2.37313 -4.48304,3.64537 0,1.01824 3.26615,2.4915 5.5235,2.4915 0.88279,0 2.09856,-0.37327 2.70173,-0.82947 1.52734,-1.15523 2.09003,-1.06378 1.39902,0.22735 -1.24575,2.32774 -0.73014,3.2916 2.38123,4.4514 4.54804,1.69533 4.83372,1.73717 10.99331,1.61007 4.83144,-0.0998 6.02127,-0.30854 7.3317,-1.28692 z m 33.3692,-0.0888 c 0.54378,-0.55051 1.38842,-1.61198 1.87697,-2.35881 1.15977,-1.77286 2.57059,-1.24369 3.66451,1.37446 0.80175,1.91879 0.92866,1.98435 3.78801,1.95617 3.51414,-0.0346 9.65979,-2.22437 9.91607,-3.53318 0.098,-0.5 -0.47413,-1.86879 -1.27118,-3.04175 -1.64527,-2.42126 -1.85939,-4.98806 -0.56971,-6.82936 l 0.87949,-1.25564 h -6.30067 c -5.38337,0 -6.5304,-0.16366 -7.8787,-1.12365 -2.06239,-1.46855 -2.57092,-3.55745 -1.36361,-5.60126 0.88266,-1.49423 0.87043,-1.92633 -0.20296,-7.17815 -0.62816,-3.0735 -1.70207,-7.06368 -2.38646,-8.86706 -1.27386,-3.35673 -6.008,-10.91083 -7.72067,-12.31963 -0.87397,-0.7189 -0.92119,-0.61789 -0.55732,1.19191 1.79728,8.9395 1.78412,18.43321 -0.0351,25.42339 -0.57522,2.21007 -1.01343,6.37169 -1.10056,10.45184 -0.0796,3.72876 -0.22102,7.79416 -0.3142,9.03426 -0.15978,2.12575 -0.0563,2.29356 1.80793,2.93418 3.01054,1.03449 6.60986,0.91508 7.76826,-0.25772 z m 35.28109,-15.15909 c 2.57958,-0.80905 6.88868,-2.60101 9.57583,-3.98212 4.40531,-2.26424 4.92092,-2.69897 5.24408,-4.42156 0.58239,-3.10442 4.03754,-9.40791 6.79576,-12.39804 2.28655,-2.47882 2.56571,-3.07062 2.56571,-5.43922 0,-3.68682 -0.88381,-4.31481 -4.36473,-3.1013 -1.48353,0.51717 -4.60074,1.09288 -6.92714,1.27937 -4.02576,0.3227 -4.41996,0.48392 -8.17016,3.34113 -6.84065,5.21176 -13.8992,8.06397 -22.19529,8.96862 -3.50727,0.38245 -3.5341,0.39918 -6.31156,3.93343 -1.53413,1.95215 -3.82867,4.27931 -5.09897,5.17147 -2.83376,1.99024 -3.46332,3.81582 -1.86654,5.4126 1.04148,1.04151 1.98329,1.16057 10.38475,1.3129 5.08166,0.0922 10.12921,0.4174 11.21676,0.72279 3.08315,0.86575 4.13268,0.774 9.1515,-0.80007 z m -8.17561,-3.6506 c 0.30146,-1.15277 0.19321,-1.16415 -8.10342,-0.85104 -6.19488,0.23379 -7.96271,0.16243 -6.71409,-0.271 2.15781,-0.74904 12.10366,-1.37601 14.0558,-0.88604 1.4676,0.36834 2.0789,2.17358 0.96843,2.85988 -0.28174,0.17409 -0.37478,-0.20918 -0.20672,-0.8518 z m 17.95846,-6.72963 c -0.50599,-0.81871 0.74268,-5.05346 2.26671,-7.68729 1.40027,-2.41995 4.89423,-5.87125 7.13841,-7.05126 0.82047,-0.4314 0.24254,0.46089 -1.52495,2.35446 -3.27466,3.50828 -4.99508,6.15001 -6.16536,9.46699 -0.83562,2.36838 -0.4662,3.04081 0.81948,1.49167 0.38683,-0.4661 0.97073,-0.84746 1.29758,-0.84746 0.32685,0 -0.004,0.63559 -0.73261,1.41242 -1.38899,1.47851 -2.52275,1.79328 -3.09926,0.86047 z m 49.14383,-48.57643 c 3.95975,-1.89532 7.66458,-5.92988 11.7944,-12.84403 2.38201,-3.988 4.62365,-6.08002 8.23329,-7.68376 l 2.51383,-1.11686 -1.66639,-1.34817 c -3.26838,-2.64428 -4.03042,-2.47461 -8.0791,1.79883 -3.89872,4.11516 -3.39778,2.31635 0.64261,-2.30751 2.06795,-2.36657 2.10071,-2.46899 0.98185,-3.06781 -0.95596,-0.51158 -1.52028,-0.34484 -3.24081,0.95772 -1.98392,1.50196 -2.10349,1.02674 -0.27696,-1.10076 0.77166,-0.89883 0.66905,-1.05614 -1.19772,-1.83613 -2.7396,-1.14467 -3.41086,-1.08335 -5.28319,0.48266 -5.48793,4.5901 -12.44079,7.65664 -19.95833,8.8026 -3.82249,0.58268 -4.47223,0.87616 -6.63832,2.99842 -1.32061,1.29391 -2.4011,2.49601 -2.4011,2.67139 0,0.17532 0.90759,0.80764 2.01688,1.40502 1.1093,0.5974 4.03892,3.30103 6.51029,6.00809 6.50123,7.12123 10.70271,8.7392 16.04877,6.1803 z M 118.72573,250.25996 c 3.36569,-1.16259 10.13451,-5.55418 10.54637,-6.84244 0.14901,-0.4661 0.31913,-2.69784 0.37804,-4.95943 0.0802,-3.07854 -0.10686,-4.28546 -0.74377,-4.8022 -0.468,-0.37961 -1.24248,-1.28029 -1.72107,-2.00152 l -0.87018,-1.31133 -2.17854,2.43024 c -3.58251,3.99644 -6.0455,6.15186 -7.42541,6.49821 -0.71656,0.17984 -1.38254,0.2329 -1.47996,0.11797 -0.0975,-0.11489 2.30032,-2.49718 5.32831,-5.29375 3.02798,-2.79658 5.38022,-5.29545 5.2272,-5.55304 -0.37375,-0.62909 -5.73305,0.13083 -7.50095,1.06354 -0.77682,0.40985 -2.87304,1.85017 -4.65825,3.20069 -4.10653,3.10661 -7.56924,4.40332 -12.57315,4.70842 l -3.954755,0.24111 3.672265,-0.79474 c 4.94622,-1.07043 7.34153,-2.15521 12.03123,-5.44866 l 3.96497,-2.78449 h -4.50937 c -3.35747,0 -5.5809,0.36756 -8.70429,1.43895 -4.729842,1.62241 -11.916015,2.34974 -16.1108,1.63058 -2.586056,-0.44335 -2.353785,-0.50215 3.441391,-0.87132 3.418031,-0.21775 7.61289,-0.84101 9.321909,-1.38501 l 3.1073,-0.9891 -5.084675,-0.74179 c -6.784906,-0.98982 -11.350928,-2.15555 -17.576921,-4.48746 -2.84789,-1.06665 -5.686045,-1.93938 -6.306971,-1.93938 -0.620952,0 -3.191664,-0.59743 -5.712716,-1.32764 -4.935628,-1.42956 -5.293621,-1.25592 -3.494388,1.6948 0.769169,1.2614 2.008465,2.12502 4.256318,2.96605 1.744161,0.65258 3.580134,1.1865 4.079947,1.1865 0.675677,0 0.525322,0.35535 -0.586164,1.38544 -1.828759,1.69483 -1.875171,2.58006 -0.216953,4.13788 1.199567,1.12693 6.769043,2.95114 9.010101,2.95114 1.29065,0 1.271589,0.33824 -0.118594,2.10569 -0.621458,0.79007 -1.12993,1.61517 -1.12993,1.83358 0,0.21841 1.349861,1.05805 2.999703,1.86591 4.029642,1.9731 9.533002,2.9056 12.806941,2.16999 1.388231,-0.3119 2.607873,-0.48328 2.710321,-0.38083 0.102411,0.10241 -0.716902,0.74448 -1.820803,1.42672 -2.781539,1.71908 -2.551701,2.63275 0.845539,3.36133 3.828615,0.8211 6.920695,0.75798 10.988995,-0.22437 4.57881,-1.10559 4.43001,-1.16116 4.00517,1.49556 -0.56594,3.53923 0.62597,4.00058 5.75671,2.22829 z m 2.38486,-23.15899 4.23723,-0.34988 -0.14654,-1.6949 c -0.0805,-0.93219 0.20381,-3.15674 0.63205,-4.94344 0.4282,-1.78669 0.71587,-3.24854 0.63924,-3.24854 -0.0766,0 -1.11555,0.40791 -2.30874,0.90645 -5.28662,2.20889 -11.7525,-0.13613 -14.8111,-5.37151 l -1.45333,-2.48773 1.66216,0.37181 c 0.91419,0.20448 2.96536,0.53 4.55816,0.72336 2.738,0.33241 3.01375,0.24368 5.05423,-1.62627 l 2.15824,-1.97788 -0.67576,-3.66747 c -0.37168,-2.01711 -0.67571,-4.40087 -0.67565,-5.29724 l 1.2e-4,-1.62975 h -13.41801 c -12.269805,0 -13.876138,-0.11525 -18.771394,-1.34816 -12.114352,-3.0508 -20.375384,-7.79309 -29.264878,-16.79966 -4.743332,-4.80581 -5.876302,-5.69903 -6.194406,-4.88366 -0.214111,0.54884 -0.39519,4.43005 -0.40238,8.62491 -0.01482,8.58612 0.69868,11.82277 3.992879,18.11509 5.301577,10.12663 15.529085,18.28955 28.182731,22.49357 11.229616,3.7309 24.114488,5.15531 37.005148,4.0909 z m 111.43917,-13.92353 c 1.08122,-0.42527 1.3143,-1.97623 0.42991,-2.86063 -0.36841,-0.36841 1.54819,-0.55128 5.62553,-0.53672 5.05497,0.018 6.35825,-0.15113 7.1366,-0.92625 0.88324,-0.87963 0.88497,-1.0156 0.024,-1.8765 -1.31787,-1.31787 -1.16096,-1.78958 0.72046,-2.16586 2.14218,-0.42844 5.65697,-3.53509 6.62752,-5.85791 1.01822,-2.43688 1.02183,-2.42806 -0.99733,-2.42806 h -1.76061 l 1.97292,-2.1838 c 3.97503,-4.39989 7.87434,-12.80126 8.94573,-19.27426 0.55979,-3.38205 -0.11847,-8.15108 -1.41047,-9.91805 -0.68176,-0.93234 -0.86863,-0.80295 -2.25377,1.56062 -2.20171,3.75694 -6.54447,7.54879 -11.20173,9.7807 -2.24471,1.07576 -4.34749,1.95593 -4.67282,1.95593 -0.32531,0 -3.12907,2.56813 -6.23053,5.70695 -3.68621,3.7306 -5.18019,5.57018 -4.31405,5.312 0.72875,-0.21721 3.52533,-0.98463 6.21461,-1.70532 7.59147,-2.03447 11.06403,-3.51897 13.29108,-5.68185 2.28822,-2.22228 2.63526,-2.08528 0.89795,0.35454 -2.52807,3.55034 -6.60342,5.34464 -16.67551,7.34195 -6.41534,1.27218 -7.922,1.84629 -10.59503,4.03725 l -1.58716,1.30092 8.93169,-0.34807 c 8.37084,-0.3262 11.74998,-0.92243 13.7011,-2.41748 0.62151,-0.47625 0.71288,-0.45489 0.3854,0.09 -0.63836,1.06221 -4.21088,2.71943 -7.41467,3.43951 -1.55365,0.34919 -5.87562,0.5745 -9.60439,0.50066 -6.13591,-0.12144 -7.01033,-0.0111 -9.21029,1.16327 -2.04744,1.09295 -2.37045,1.49379 -2.04843,2.54212 0.21026,0.68451 0.41773,1.29041 0.46106,1.34645 0.0435,0.056 4.19302,0.18314 9.22154,0.28247 7.70667,0.1522 9.02353,0.30141 8.38373,0.94965 -1.20872,1.22465 -5.29584,1.38735 -10.40104,0.41399 -6.99733,-1.33411 -6.85915,-1.37006 -6.85421,1.78302 0.004,2.34236 0.34017,3.106 2.64654,6.00578 l 2.64237,3.32222 3.99176,-0.3102 c 2.19549,-0.17055 4.43671,-0.4852 4.98049,-0.69907 z m -12.86284,-17.77505 c 1.34945,-0.92845 2.5393,-1.88182 2.64414,-2.11861 0.10489,-0.2368 1.67137,-1.42791 3.4812,-2.64694 3.98334,-2.68296 11.39325,-9.90609 15.69309,-15.29749 14.48818,-18.16617 16.78286,-38.78379 6.25443,-56.19592 -2.2028,-3.64305 -7.17893,-9.05743 -8.32431,-9.05743 -0.41751,0 -0.7603,2.20634 -0.98752,6.35584 -0.9107,16.63179 -8.37923,31.49977 -21.57118,42.94288 -4.01179,3.47997 -16.30629,12.16623 -18.4175,13.01228 -0.58717,0.2353 -0.29948,0.78548 1.09642,2.09677 1.87563,1.76195 5.705,9.14582 5.76654,11.11915 0.0182,0.58185 1.50628,2.09959 3.43894,3.50731 1.87381,1.36488 4.32892,3.71656 5.45576,5.22593 1.12685,1.50937 2.26654,2.7443 2.53264,2.7443 0.26609,0 1.5879,-0.75962 2.93735,-1.68807 z m 112.43776,-53.35735 c 14.54279,-3.9881 22.51822,-14.38478 22.56591,-29.41671 0.0141,-4.46703 -0.25598,-6.44707 -1.29063,-9.45921 -3.62428,-10.551319 -13.66769,-20.30046 -28.10779,-27.284319 -7.91344,-3.827279 -13.38384,-5.661239 -29.60767,-9.925957 -20.45743,-5.377626 -22.15648,-5.911089 -27.93343,-8.770579 -7.69861,-3.810676 -11.8999,-7.289338 -15.52685,-12.856208 -6.83904,-10.496941 -4.05963,-21.876548 6.52699,-26.723262 4.05596,-1.856885 7.78702,-2.213054 11.59283,-1.10668 7.04355,2.047615 10.81041,7.010069 10.88965,14.345974 0.0263,2.442606 0.27213,4.027912 0.60919,3.929744 0.31073,-0.0905 1.26411,-1.533623 2.11862,-3.206923 1.63177,-3.195341 2.00555,-6.662266 1.00266,-9.300054 -0.74324,-1.954861 -0.15148,-1.858568 0.64197,0.104461 0.34538,0.854508 0.66461,4.223107 0.70939,7.485775 0.0608,4.424238 0.32548,6.362947 1.04148,7.627022 1.41717,2.501904 2.62116,3.917275 3.00542,3.533018 0.18658,-0.186576 0.37492,-2.837476 0.41855,-5.89088 0.10822,-7.571954 -1.74096,-12.903469 -6.48899,-18.70951 -0.94282,-1.152889 -0.57534,-0.86665 0.81658,0.636098 3.81613,4.119945 7.18615,12.012416 7.18615,16.829683 0,1.854535 3.79053,5.411164 7.75117,7.272894 3.77926,1.776454 10.05195,2.963235 13.42517,2.540002 4.40639,-0.552858 9.50921,-2.401827 13.18463,-4.777366 3.16519,-2.045761 4.64721,-3.41132 3.70226,-3.41132 -0.23157,0 -2.3294,0.53549 -4.66187,1.189978 -6.17997,1.734105 -14.20733,1.370812 -19.12781,-0.865656 -1.93755,-0.88066 -3.80517,-1.941396 -4.15025,-2.357187 -0.34508,-0.415798 0.85885,-0.01921 2.67538,0.881298 1.81654,0.900514 4.91496,1.924753 6.8854,2.276088 9.29968,1.658176 18.45814,-2.763765 22.26247,-10.748906 1.60554,-3.369983 2.48333,-6.768632 1.74183,-6.74402 -0.25775,0.0085 -1.10421,0.904964 -1.88103,1.992018 -3.23158,4.522136 -10.72305,8.266479 -17.90509,8.949218 l -3.28106,0.311904 3.52311,-0.813559 c 4.76491,-1.100308 6.33385,-2.000466 9.36723,-5.3743 3.58925,-3.992116 5.09001,-8.17029 4.76748,-13.272814 -0.48426,-7.6610607 -3.68104,-11.59380973 -13.98556,-17.2053227 -4.499,-2.4500236 -6.49583,-3.9203253 -8.2655,-6.0860763 -1.28336,-1.570592 -2.47162,-3.201276 -2.64057,-3.623736 -0.25142,-0.628663 -0.41848,-0.614262 -0.92017,0.07935 -2.50569,3.464213 -0.76599,6.5585045 6.43218,11.440513 3.09249,2.0974173 6.46518,4.63003296 7.49485,5.6280185 6.61019,6.4068472 6.21773,17.6141295 -0.76,21.7033565 -2.07483,1.215928 -3.54956,1.589878 -7.07471,1.793942 -4.1103,0.237946 -4.72807,0.122634 -8.01658,-1.496297 -1.95972,-0.964761 -4.05051,-2.29268 -4.64621,-2.950925 -0.65801,-0.727086 0.0772,-0.415973 1.87326,0.792668 8.34408,5.615155 19.42509,2.833898 21.6515,-5.434367 1.76857,-6.5679572 -1.6466,-12.4847129 -10.51863,-18.2235182 -6.69254,-4.3290139 -11.82345,-8.8874428 -13.19677,-11.7243538 -0.7375,-1.52346 -1.18639,-3.558978 -1.18639,-5.37968 0,-1.610917 -0.24907,-2.928933 -0.55349,-2.928933 -1.17435,0 -2.8363,4.469116 -2.8363,7.627015 0,5.6040726 3.08995,9.9238214 10.53333,14.72561575 5.47199,3.53002435 9.5387,7.37916575 10.67857,10.10728015 0.45194,1.0816351 0.7859,3.1823851 0.74215,4.6683331 l -0.0797,2.701726 -0.34968,-2.858064 c -0.19234,-1.571938 -0.84426,-3.605809 -1.44875,-4.5197124 l -1.09898,-1.6616493 -0.48154,2.3971037 c -0.9317,4.637924 -6.72853,7.069175 -13.99416,5.869281 -3.66439,-0.605161 -6.45376,-1.63383 -16.18215,-5.967677 -8.16734,-3.6384309 -17.68479,-4.6961434 -25.55786,-2.8403493 -9.68899,2.2838386 -16.68836,9.5303903 -18.73703,19.3987363 -0.93747,4.515815 -0.39152,12.661792 1.10846,16.538917 4.35615,11.259647 17.10098,20.901547 36.41022,27.545609 3.67614,1.264905 11.88767,3.709365 18.24788,5.432118 26.82386,7.265668 37.32245,12.893787 42.52559,22.797248 4.28004,8.146445 2.44431,16.464865 -4.67412,21.180385 -8.55054,5.66418 -20.04062,5.59111 -32.4116,-0.20613 -3.55361,-1.66526 -4.59556,-1.97437 -4.02425,-1.19378 0.42401,0.57932 3.82172,5.11395 7.55048,10.07696 3.72877,4.96302 7.6228,10.23796 8.65342,11.72209 l 1.87385,2.69843 8.01302,-0.29214 c 4.78461,-0.17443 9.37876,-0.66667 11.40281,-1.22174 z M 300.13214,31.697225 c -0.70274,-0.896066 -0.68276,-0.916051 0.21331,-0.213308 0.54378,0.426464 0.98869,0.871373 0.98869,0.988688 0,0.464989 -0.46394,0.165711 -1.202,-0.77538 z m 13.68792,-12.968479 c 0.41138,-0.685014 0.86957,-1.123867 1.01821,-0.975236 0.14865,0.148638 -0.18796,0.709092 -0.74796,1.245475 -0.97284,0.931789 -0.98487,0.91975 -0.27025,-0.270239 z"
       id="path1909" />
  </g>
</svg>
