<?xml version="1.0" encoding="UTF-8" standalone="no"?>
<!-- Created with Inkscape (http://www.inkscape.org/) -->

<svg
   version="1.1"
   id="svg3332"
   width="880"
   height="880"
   viewBox="0 0 880 880"
   sodipodi:docname="syringe-vials-publicdomainvectors.org.svg"
   inkscape:version="1.2 (dc2aedaf03, 2022-05-15)"
   xmlns:inkscape="http://www.inkscape.org/namespaces/inkscape"
   xmlns:sodipodi="http://sodipodi.sourceforge.net/DTD/sodipodi-0.dtd"
   xmlns="http://www.w3.org/2000/svg"
   xmlns:svg="http://www.w3.org/2000/svg">
  <defs
     id="defs3336">
    <clipPath
       clipPathUnits="userSpaceOnUse"
       id="clipPath3350">
      <path
         d="M 0,660 H 660 V 0 H 0 Z"
         id="path3348" />
    </clipPath>
  </defs>
  <sodipodi:namedview
     id="namedview3334"
     pagecolor="#ffffff"
     bordercolor="#000000"
     borderopacity="0.25"
     inkscape:showpageshadow="2"
     inkscape:pageopacity="0.0"
     inkscape:pagecheckerboard="0"
     inkscape:deskcolor="#d1d1d1"
     showgrid="false"
     inkscape:zoom="0.95113636"
     inkscape:cx="440.52569"
     inkscape:cy="440.52569"
     inkscape:window-width="1920"
     inkscape:window-height="1017"
     inkscape:window-x="-8"
     inkscape:window-y="-8"
     inkscape:window-maximized="1"
     inkscape:current-layer="g3340">
    <inkscape:page
       x="0"
       y="0"
       id="page3338"
       width="880"
       height="880" />
  </sodipodi:namedview>
  <g
     id="g3340"
     inkscape:groupmode="layer"
     inkscape:label="Page 1"
     transform="matrix(1.3333333,0,0,-1.3333333,0,880)">
    <path
       d="M 0.409,0 H 660 V 659.275 H 0.409 Z"
       style="fill:#758061;fill-opacity:1;fill-rule:nonzero;stroke:none"
       id="path3342" />
    <g
       id="g3344">
      <g
         id="g3346"
         clip-path="url(#clipPath3350)">
        <g
           id="g3352"
           transform="translate(567.376,362.6367)">
          <path
             d="m 0,0 c -5.226,8.891 -12.738,14.767 -22.626,17.695 l -91.124,26.983 c -7.925,2.346 -16.3,-2.203 -18.647,-10.127 l -6.637,-22.417 c -2.347,-7.924 2.201,-16.301 10.124,-18.646 l 91.127,-26.984 c 9.887,-2.927 19.389,-2.09 28.612,2.525 2.962,1.482 6.471,1.891 9.886,0.88 l 2.282,-0.676 c 4.44,-1.315 7.861,-3.773 10.526,-7.56 2.61,-3.71 6.32,-5.978 10.874,-6.633 l 35.468,-5.119 c 7.135,-1.032 13.834,3.26 15.883,10.173 l 0.344,1.164 c 2.047,6.911 -1.238,14.16 -7.782,17.181 L 35.772,-6.544 c -4.177,1.929 -8.525,2.048 -12.734,0.356 -4.294,-1.726 -8.503,-1.924 -12.942,-0.61 L 7.812,-6.122 C 4.398,-5.11 1.679,-2.857 0,0 m -118.315,-173.583 c -0.669,-10.289 2.249,-19.37 8.789,-27.344 l 60.264,-73.485 c 5.239,-6.392 14.725,-7.327 21.116,-2.086 l 18.077,14.822 c 6.39,5.241 7.328,14.728 2.087,21.117 l -60.264,73.485 c -6.538,7.973 -14.871,12.612 -25.095,13.973 -3.284,0.437 -6.416,2.069 -8.675,4.825 l -1.508,1.839 c -2.936,3.578 -4.39,7.535 -4.467,12.165 -0.077,4.534 -1.877,8.494 -5.276,11.594 l -26.477,24.146 c -5.327,4.859 -13.28,5.067 -18.855,0.497 l -0.939,-0.768 c -5.574,-4.572 -6.926,-12.414 -3.205,-18.59 l 18.495,-30.692 c 2.378,-3.941 5.907,-6.478 10.338,-7.444 4.524,-0.982 8.119,-3.181 11.055,-6.761 l 1.508,-1.842 c 2.259,-2.752 3.245,-6.144 3.032,-9.451 m -198.352,31.315 c -8.232,-6.211 -13.208,-14.346 -14.981,-24.505 l -16.345,-93.621 c -1.423,-8.142 4.058,-15.941 12.198,-17.362 l 23.032,-4.02 c 8.141,-1.421 15.94,4.06 17.361,12.199 l 16.346,93.619 c 1.773,10.159 -0.15,19.503 -5.792,28.136 -1.813,2.772 -2.62,6.211 -2.009,9.718 l 0.408,2.347 c 0.798,4.559 2.845,8.24 6.304,11.322 3.383,3.019 5.209,6.963 5.339,11.564 l 1.017,35.82 c 0.203,7.209 -4.83,13.371 -11.933,14.612 l -1.193,0.207 c -7.102,1.239 -13.924,-2.855 -16.174,-9.703 l -11.183,-34.045 c -1.438,-4.372 -1.057,-8.704 1.107,-12.692 2.206,-4.067 2.888,-8.227 2.091,-12.789 l -0.41,-2.342 c -0.613,-3.509 -2.536,-6.469 -5.183,-8.465 m 129.284,277.515 10.497,-21.313 39.215,19.316 4.831,-9.804 146.632,72.228 -10.384,-16.77 -131.63,-64.835 4.83,-9.804 -39.216,-19.317 10.499,-21.312 -224.641,-110.65 -11.757,23.869 -118.713,-58.476 10.918,-22.162 -20.461,-10.08 -33.593,68.202 20.46,10.079 10.918,-22.164 118.715,58.474 -11.761,23.869 z"
             style="fill:#566143;fill-opacity:1;fill-rule:evenodd;stroke:none"
             id="path3354" />
        </g>
        <g
           id="g3356"
           transform="translate(437.8291,194.0098)">
          <path
             d="m 0,0 c 0.214,3.305 -0.771,6.697 -3.028,9.452 l -1.509,1.839 c -2.939,3.58 -6.533,5.779 -11.056,6.763 -4.432,0.964 -7.962,3.501 -10.338,7.444 l -18.497,30.69 c -3.72,6.176 -2.368,14.017 3.205,18.59 l 0.94,0.768 c 5.574,4.572 13.527,4.362 18.854,-0.494 L 5.049,50.903 c 3.401,-3.101 5.198,-7.06 5.275,-11.595 0.08,-4.629 1.531,-8.584 4.467,-12.165 L 16.3,25.304 c 2.259,-2.755 5.39,-4.385 8.675,-4.824 10.223,-1.359 18.556,-5.997 25.096,-13.973 l 60.264,-73.485 c 5.239,-6.39 4.302,-15.876 -2.089,-21.115 l -18.077,-14.824 c -6.391,-5.241 -15.875,-4.304 -21.115,2.086 L 8.789,-27.346 C 2.252,-19.37 -0.669,-10.291 0,0"
             style="fill:#3ec7a5;fill-opacity:1;fill-rule:evenodd;stroke:none"
             id="path3358" />
        </g>
        <g
           id="g3360"
           transform="translate(442.125,193.7305)">
          <path
             d="m 0,0 c -0.598,-9.198 1.978,-17.209 7.824,-24.336 l 60.262,-73.485 c 3.734,-4.552 10.504,-5.223 15.056,-1.489 l 18.078,14.825 c 4.552,3.732 5.22,10.504 1.489,15.055 L 42.444,4.056 c -5.842,7.128 -13.196,11.222 -22.332,12.435 -4.489,0.598 -8.565,2.857 -11.436,6.361 l -1.509,1.84 C 3.615,29.02 1.818,33.917 1.723,39.515 1.666,42.896 0.347,45.724 -2.15,48.002 L -28.627,72.15 c -3.745,3.414 -9.3,3.562 -13.222,0.344 l -0.939,-0.767 c -3.922,-3.216 -4.865,-8.691 -2.247,-13.036 l 18.494,-30.692 c 1.747,-2.894 4.262,-4.74 7.565,-5.46 5.471,-1.187 9.922,-3.91 13.471,-8.238 L -3.996,12.46 C -1.122,8.957 0.294,4.518 0,0"
             style="fill:#7fe3ca;fill-opacity:1;fill-rule:evenodd;stroke:none"
             id="path3362" />
        </g>
        <g
           id="g3364"
           transform="translate(539.3857,105.998)">
          <path
             d="M 0,0 3.959,3.247 C 8.512,6.98 9.18,13.751 5.448,18.303 l -60.264,73.485 c -5.843,7.129 -13.197,11.223 -22.332,12.436 -4.49,0.597 -8.566,2.856 -11.437,6.361 l -1.509,1.84 c -3.551,4.327 -5.348,9.224 -5.444,14.822 -0.057,3.381 -1.376,6.209 -3.873,8.487 l -26.477,24.149 c -3.745,3.414 -9.299,3.561 -13.221,0.344 l -0.207,-0.168 c 2.206,1.808 6.335,0.494 9.835,-3.125 l 24.728,-25.584 c 2.334,-2.412 3.913,-5.023 4.681,-7.822 1.274,-4.632 3.652,-9.052 7.201,-13.38 l 1.511,-1.839 c 2.872,-3.505 6.363,-6.243 9.806,-7.698 7.006,-2.963 13.31,-7.914 19.155,-15.043 L -2.135,12.083 C 1.597,7.53 2.559,2.098 0,0"
             style="fill:#9ef0da;fill-opacity:1;fill-rule:evenodd;stroke:none"
             id="path3366" />
        </g>
        <g
           id="g3368"
           transform="translate(442.125,193.7305)">
          <path
             d="m 0,0 c -0.598,-9.198 1.978,-17.209 7.824,-24.336 l 60.262,-73.485 c 3.734,-4.552 10.504,-5.223 15.056,-1.489 l 18.078,14.825 c 4.552,3.732 5.22,10.504 1.489,15.055 L 42.444,4.056 c -5.842,7.128 -13.196,11.222 -22.332,12.435 -4.489,0.598 -8.565,2.857 -11.436,6.361 l -1.509,1.84 c -3.552,4.328 -5.349,9.225 -5.444,14.823 -0.009,0.469 -0.039,0.926 -0.097,1.376 -10.429,6.094 -18.266,8.024 -22.244,4.759 -3.98,-3.263 -3.622,-11.323 0.313,-22.745 0.428,-0.145 0.871,-0.264 1.329,-0.366 5.471,-1.187 9.922,-3.91 13.471,-8.238 L -3.996,12.46 C -1.122,8.957 0.294,4.518 0,0"
             style="fill:#82970a;fill-opacity:1;fill-rule:evenodd;stroke:none"
             id="path3370" />
        </g>
        <g
           id="g3372"
           transform="translate(443.2461,194.6475)">
          <path
             d="m 0,0 c -0.056,-8.754 2.786,-16.545 8.631,-23.674 l 60.262,-73.484 c 3.734,-4.553 10.088,-5.561 14.133,-2.243 l 4.211,3.451 c -1.923,-1.577 -6.547,0.851 -10.28,5.404 L 16.694,-17.059 C 10.85,-9.933 6.897,-3.053 4.683,3.84 3.598,7.23 1.414,11.04 -1.463,14.542 l -1.508,1.84 c -3.55,4.33 -7.233,7.681 -11.152,10.139 -2.369,1.489 -4.537,3.616 -6.498,6.333 l -20.8,28.804 c -2.942,4.076 -3.873,8.014 -2.215,9.374 l -0.221,-0.178 c -3.484,-2.859 -4.066,-8.038 -1.384,-12.331 l 18.938,-30.328 c 1.786,-2.86 4.235,-4.759 7.358,-5.627 5.171,-1.435 9.476,-4.276 13.022,-8.606 l 1.512,-1.839 C -1.537,8.618 0.028,4.304 0,0"
             style="fill:#d6fff4;fill-opacity:1;fill-rule:evenodd;stroke:none"
             id="path3374" />
        </g>
        <g
           id="g3376"
           transform="translate(526.2725,95.2461)">
          <path
             d="M 0,0 4.211,3.451 C 2.288,1.874 -2.336,4.303 -6.069,8.855 l -60.263,73.488 c -5.845,7.126 -9.797,14.006 -12.012,20.898 -1.085,3.391 -3.268,7.2 -6.145,10.702 l -1.508,1.84 c -3.55,4.33 -7.233,7.681 -11.152,10.14 -2.37,1.488 -4.538,3.615 -6.498,6.332 l -3.891,5.387 c -0.256,-3.688 0.596,-8.537 2.448,-14.333 0.952,-0.578 1.991,-1.028 3.118,-1.339 5.171,-1.436 9.477,-4.277 13.023,-8.607 l 1.512,-1.839 c 2.874,-3.505 4.439,-7.819 4.411,-12.123 -0.056,-8.754 2.786,-16.545 8.631,-23.674 L -14.134,2.243 C -10.399,-2.31 -4.045,-3.317 0,0"
             style="fill:#bad526;fill-opacity:1;fill-rule:evenodd;stroke:none"
             id="path3378" />
        </g>
        <g
           id="g3380"
           transform="translate(539.3857,105.998)">
          <path
             d="M 0,0 3.959,3.247 C 8.512,6.98 9.18,13.751 5.448,18.303 l -60.264,73.485 c -5.843,7.129 -13.197,11.223 -22.332,12.436 -4.49,0.597 -8.566,2.856 -11.437,6.361 l -1.509,1.84 c -3.551,4.327 -5.348,9.224 -5.444,14.822 l -0.002,0.132 -0.002,0.022 v 0.005 0.018 l -0.005,0.13 v 0.009 0.012 l -0.006,0.131 -0.003,0.013 v 0.009 0.022 l -0.005,0.105 -0.003,0.018 v 0.005 0.004 l -0.009,0.124 v 0.021 l -0.004,0.023 -0.005,0.086 -0.002,0.022 -0.002,0.02 v 0.005 l -0.002,0.017 -0.003,0.022 -0.004,0.042 -0.002,0.019 -0.003,0.023 v 0.022 l -0.002,0.009 -10e-4,0.013 v 0.02 l -0.005,0.022 -0.007,0.064 -0.002,0.02 v 0.013 l -0.002,0.009 -0.002,0.02 -0.003,0.021 -0.006,0.042 -0.003,0.021 -0.002,0.021 c -4.393,2.567 -8.329,4.398 -11.708,5.408 l 2.59,-2.681 c 2.334,-2.412 3.913,-5.023 4.681,-7.822 1.274,-4.632 3.652,-9.052 7.201,-13.38 l 1.511,-1.839 c 2.872,-3.505 6.363,-6.243 9.806,-7.698 7.006,-2.963 13.31,-7.914 19.155,-15.043 L -2.135,12.083 C 1.597,7.53 2.559,2.098 0,0"
             style="fill:#94ab13;fill-opacity:1;fill-rule:evenodd;stroke:none"
             id="path3382" />
        </g>
        <g
           id="g3384"
           transform="translate(239.4771,225.3223)">
          <path
             d="m 0,0 c 2.647,1.996 4.572,4.956 5.184,8.466 l 0.41,2.342 C 6.39,15.369 5.71,19.529 3.502,23.599 1.339,27.584 0.958,31.916 2.395,36.288 l 11.183,34.047 c 2.25,6.849 9.074,10.94 16.174,9.701 l 1.196,-0.208 c 7.1,-1.239 12.133,-7.402 11.931,-14.61 L 41.864,29.397 C 41.732,24.796 39.908,20.852 36.522,17.835 33.065,14.752 31.017,11.072 30.22,6.511 L 29.812,4.164 c -0.613,-3.507 0.194,-6.945 2.007,-9.718 5.642,-8.634 7.566,-17.976 5.792,-28.134 l -16.343,-93.621 c -1.423,-8.138 -9.221,-13.62 -17.364,-12.199 l -23.032,4.021 c -8.139,1.423 -13.62,9.219 -12.197,17.363 l 16.344,93.618 C -13.208,-14.346 -8.232,-6.211 0,0"
             style="fill:#3ec7a5;fill-opacity:1;fill-rule:evenodd;stroke:none"
             id="path3386" />
        </g>
        <g
           id="g3388"
           transform="translate(242.0708,221.8857)">
          <path
             d="m 0,0 c -7.358,-5.552 -11.748,-12.729 -13.334,-21.809 l -16.346,-93.62 c -1.01,-5.8 2.901,-11.368 8.7,-12.378 l 23.031,-4.023 c 5.801,-1.01 11.366,2.9 12.379,8.699 l 16.344,93.618 c 1.588,9.081 -0.11,17.325 -5.152,25.039 -2.479,3.79 -3.428,8.352 -2.647,12.816 l 0.41,2.346 c 0.962,5.513 3.498,10.072 7.676,13.795 2.527,2.252 3.807,5.095 3.904,8.474 l 1.014,35.821 c 0.146,5.069 -3.37,9.372 -8.366,10.243 L 26.42,79.23 C 21.422,80.103 16.658,77.246 15.074,72.426 L 3.891,38.381 C 2.837,35.172 3.079,32.062 4.694,29.089 7.363,24.168 8.206,19.02 7.242,13.506 L 6.833,11.161 C 6.053,6.696 3.615,2.727 0,0"
             style="fill:#7fe3ca;fill-opacity:1;fill-rule:evenodd;stroke:none"
             id="path3390" />
        </g>
        <g
           id="g3392"
           transform="translate(239.0776,90.9375)">
          <path
             d="m 0,0 5.045,-0.882 c 5.801,-1.01 11.366,2.901 12.378,8.699 l 16.344,93.619 c 1.589,9.081 -0.11,17.324 -5.152,25.039 -2.479,3.79 -3.428,8.351 -2.647,12.815 l 0.41,2.347 c 0.962,5.512 3.499,10.071 7.676,13.795 2.528,2.252 3.807,5.094 3.904,8.473 l 1.015,35.822 c 0.145,5.068 -3.37,9.372 -8.367,10.243 l -0.262,0.048 c 2.808,-0.492 4.509,-4.478 4.05,-9.494 l -3.243,-35.431 c -0.304,-3.342 -1.252,-6.242 -2.872,-8.652 -2.677,-3.987 -4.475,-8.674 -5.439,-14.189 l -0.408,-2.344 c -0.779,-4.465 -0.573,-8.896 0.569,-12.454 2.327,-7.241 2.689,-15.25 1.105,-24.328 L 7.762,9.505 C 6.748,3.706 3.258,-0.568 0,0"
             style="fill:#9ef0da;fill-opacity:1;fill-rule:evenodd;stroke:none"
             id="path3394" />
        </g>
        <g
           id="g3396"
           transform="translate(242.0708,221.8857)">
          <path
             d="m 0,0 c -7.358,-5.552 -11.748,-12.729 -13.334,-21.809 l -16.346,-93.62 c -1.01,-5.8 2.901,-11.368 8.7,-12.378 l 23.031,-4.023 c 5.801,-1.01 11.366,2.9 12.379,8.699 l 16.344,93.618 c 1.588,9.081 -0.11,17.325 -5.152,25.039 -2.479,3.79 -3.428,8.352 -2.647,12.816 l 0.41,2.346 c 0.962,5.513 3.498,10.072 7.676,13.795 0.353,0.314 0.679,0.638 0.981,0.973 C 29.852,37.338 26.199,44.533 21.131,45.417 16.062,46.302 10.186,40.771 4.101,30.335 4.272,29.916 4.469,29.501 4.694,29.089 7.363,24.168 8.206,19.02 7.242,13.506 L 6.833,11.161 C 6.053,6.696 3.615,2.727 0,0"
             style="fill:#ffbb00;fill-opacity:1;fill-rule:evenodd;stroke:none"
             id="path3398" />
        </g>
        <g
           id="g3400"
           transform="translate(243.4961,221.6338)">
          <path
             d="m 0,0 c -6.666,-5.668 -10.718,-12.907 -12.304,-21.986 l -16.344,-93.62 c -1.012,-5.799 2.374,-11.274 7.526,-12.174 l 5.364,-0.935 c -2.452,0.428 -3.63,5.517 -2.616,11.315 l 16.345,93.619 c 1.583,9.081 4.217,16.567 7.997,22.74 1.858,3.035 3.318,7.178 4.098,11.642 l 0.409,2.342 c 0.964,5.515 1.096,10.493 0.403,15.07 -0.419,2.763 -0.22,5.797 0.556,9.054 l 8.25,34.559 c 1.166,4.891 3.542,8.166 5.655,7.797 l -0.278,0.049 c -4.44,0.776 -8.744,-2.164 -10.248,-6.996 L 4.197,38.331 C 3.196,35.11 3.352,32.019 4.738,29.085 7.023,24.23 7.678,19.115 6.714,13.601 L 6.306,11.256 C 5.527,6.792 3.277,2.788 0,0"
             style="fill:#d6fff4;fill-opacity:1;fill-rule:evenodd;stroke:none"
             id="path3402" />
        </g>
        <g
           id="g3404"
           transform="translate(222.374,93.8535)">
          <path
             d="M 0,0 5.364,-0.935 C 2.912,-0.507 1.734,4.582 2.749,10.38 l 16.344,93.619 c 1.583,9.081 4.217,16.567 7.997,22.74 1.858,3.035 3.318,7.178 4.099,11.642 l 0.408,2.343 c 0.964,5.514 1.096,10.492 0.404,15.069 -0.42,2.764 -0.221,5.797 0.555,9.055 l 1.544,6.463 c -2.964,-2.213 -6.079,-6.02 -9.264,-11.207 0.184,-1.099 0.523,-2.18 1.024,-3.239 2.285,-4.854 2.94,-9.97 1.976,-15.484 l -0.408,-2.345 C 26.649,134.572 24.399,130.568 21.122,127.78 14.456,122.112 10.404,114.873 8.818,105.794 L -7.526,12.174 C -8.538,6.375 -5.152,0.9 0,0"
             style="fill:#ffe978;fill-opacity:1;fill-rule:evenodd;stroke:none"
             id="path3406" />
        </g>
        <g
           id="g3408"
           transform="translate(239.0776,90.9375)">
          <path
             d="m 0,0 5.045,-0.882 c 5.801,-1.01 11.366,2.901 12.378,8.699 l 16.344,93.619 c 1.589,9.081 -0.11,17.324 -5.152,25.039 -2.479,3.79 -3.428,8.351 -2.647,12.815 l 0.41,2.347 c 0.962,5.512 3.499,10.071 7.676,13.795 l 0.099,0.088 0.016,0.017 h 0.004 l 0.014,0.014 0.096,0.088 0.005,0.006 0.008,0.009 0.098,0.091 0.008,0.009 0.007,0.004 0.015,0.017 0.078,0.076 0.013,0.01 0.002,0.002 0.004,0.005 0.089,0.088 0.013,0.014 v 0.002 l 0.018,0.015 0.057,0.06 0.018,0.015 0.013,0.016 0.004,0.002 0.011,0.013 0.016,0.015 0.031,0.032 0.013,0.015 0.013,0.015 0.018,0.016 0.004,0.006 0.009,0.009 0.013,0.016 0.016,0.015 0.044,0.046 0.015,0.016 0.009,0.011 0.005,0.005 0.013,0.017 0.015,0.013 0.029,0.031 0.013,0.018 0.016,0.015 c -0.925,5.007 -2.107,9.183 -3.545,12.403 l -0.34,-3.714 c -0.304,-3.342 -1.252,-6.242 -2.872,-8.652 -2.677,-3.987 -4.475,-8.674 -5.439,-14.189 l -0.408,-2.344 c -0.779,-4.465 -0.573,-8.896 0.569,-12.454 2.327,-7.241 2.689,-15.25 1.105,-24.328 L 7.762,9.505 C 6.748,3.706 3.258,-0.568 0,0"
             style="fill:#ffcc00;fill-opacity:1;fill-rule:evenodd;stroke:none"
             id="path3410" />
        </g>
        <g
           id="g3412"
           transform="translate(556.1445,367.5908)">
          <path
             d="m 0,0 c 1.679,-2.857 4.399,-5.109 7.812,-6.122 l 2.284,-0.675 c 4.439,-1.314 8.648,-1.117 12.945,0.609 4.208,1.691 8.554,1.572 12.732,-0.356 L 68.311,-21.56 c 6.547,-3.022 9.828,-10.27 7.781,-17.183 l -0.344,-1.162 C 73.701,-46.819 67,-51.111 59.865,-50.079 l -35.467,5.119 c -4.555,0.657 -8.265,2.924 -10.874,6.634 -2.663,3.787 -6.087,6.244 -10.526,7.56 l -2.281,0.675 c -3.417,1.011 -6.924,0.602 -9.888,-0.88 -9.222,-4.614 -18.724,-5.452 -28.612,-2.524 l -91.124,26.983 c -7.926,2.347 -12.474,10.723 -10.127,18.647 l 6.638,22.417 c 2.346,7.923 10.721,12.472 18.646,10.127 L -22.624,17.695 C -12.738,14.767 -5.226,8.891 0,0"
             style="fill:#3ec7a5;fill-opacity:1;fill-rule:evenodd;stroke:none"
             id="path3414" />
        </g>
        <g
           id="g3416"
           transform="translate(552.4326,365.4092)">
          <path
             d="m 0,0 c -4.67,7.947 -11.298,13.132 -20.136,15.747 l -91.124,26.984 c -5.644,1.672 -11.624,-1.576 -13.296,-7.22 l -6.637,-22.418 c -1.672,-5.645 1.575,-11.624 7.219,-13.295 l 91.126,-26.982 c 8.836,-2.618 17.218,-1.878 25.463,2.246 4.05,2.025 8.691,2.443 13.035,1.157 l 2.284,-0.676 c 5.366,-1.589 9.603,-4.633 12.824,-9.21 1.945,-2.768 4.623,-4.367 7.967,-4.85 l 35.467,-5.12 c 5.02,-0.722 9.699,2.273 11.139,7.136 l 0.344,1.163 c 1.44,4.863 -0.852,9.923 -5.457,12.049 L 37.68,-8.272 c -3.069,1.416 -6.183,1.533 -9.324,0.271 -5.192,-2.086 -10.404,-2.332 -15.771,-0.743 l -2.282,0.676 C 5.957,-6.782 2.294,-3.905 0,0"
             style="fill:#7fe3ca;fill-opacity:1;fill-rule:evenodd;stroke:none"
             id="path3418" />
        </g>
        <g
           id="g3420"
           transform="translate(422.6934,383.4131)">
          <path
             d="m 0,0 -1.454,-4.911 c -1.672,-5.645 1.575,-11.624 7.22,-13.295 l 91.126,-26.982 c 8.836,-2.618 17.217,-1.878 25.463,2.246 4.049,2.025 8.69,2.443 13.035,1.157 l 2.283,-0.675 c 5.366,-1.59 9.603,-4.634 12.824,-9.211 1.945,-2.768 4.623,-4.367 7.967,-4.85 l 35.468,-5.12 c 5.019,-0.722 9.698,2.273 11.138,7.136 l 0.075,0.254 c -0.809,-2.731 -4.965,-3.964 -9.892,-2.933 l -34.826,7.288 c -3.285,0.688 -6.059,1.962 -8.267,3.847 -3.65,3.119 -8.101,5.441 -13.471,7.03 l -2.28,0.677 c -4.346,1.285 -8.772,1.589 -12.438,0.863 -7.459,-1.48 -15.457,-0.922 -24.295,1.695 L 8.552,-8.8 C 2.905,-7.13 -0.94,-3.171 0,0"
             style="fill:#9ef0da;fill-opacity:1;fill-rule:evenodd;stroke:none"
             id="path3422" />
        </g>
        <g
           id="g3424"
           transform="translate(552.4326,365.4092)">
          <path
             d="m 0,0 c -4.67,7.947 -11.298,13.132 -20.136,15.747 l -91.124,26.984 c -5.644,1.672 -11.624,-1.576 -13.296,-7.22 l -6.637,-22.418 c -1.672,-5.645 1.575,-11.624 7.219,-13.295 l 91.126,-26.982 c 8.836,-2.618 17.218,-1.878 25.463,2.246 4.05,2.025 8.691,2.443 13.035,1.157 l 2.284,-0.676 c 5.366,-1.589 9.603,-4.633 12.824,-9.21 0.268,-0.386 0.553,-0.746 0.851,-1.085 12.054,0.812 19.619,3.613 21.082,8.548 1.46,4.934 -3.359,11.405 -13.029,18.648 -0.434,-0.122 -0.869,-0.27 -1.306,-0.445 -5.192,-2.086 -10.404,-2.332 -15.771,-0.743 l -2.282,0.676 C 5.957,-6.782 2.294,-3.905 0,0"
             style="fill:#cc3300;fill-opacity:1;fill-rule:evenodd;stroke:none"
             id="path3426" />
        </g>
        <g
           id="g3428"
           transform="translate(552.0195,364.021)">
          <path
             d="m 0,0 c -4.867,7.275 -11.593,12.129 -20.431,14.746 l -91.124,26.983 c -5.644,1.671 -11.471,-1.062 -12.956,-6.079 l -1.547,-5.22 c 0.707,2.386 5.897,2.971 11.543,1.3 L -23.391,4.747 C -14.553,2.129 -7.42,-1.345 -1.72,-5.809 1.083,-8.002 5.029,-9.928 9.372,-11.215 l 2.283,-0.675 c 5.367,-1.589 10.299,-2.293 14.922,-2.13 2.794,0.099 5.783,-0.445 8.933,-1.592 l 33.384,-12.161 c 4.721,-1.721 7.704,-4.457 7.095,-6.513 l 0.079,0.272 c 1.28,4.321 -1.144,8.933 -5.772,10.981 L 37.595,-8.567 c -3.084,1.364 -6.177,1.563 -9.249,0.525 C 23.262,-9.757 18.108,-9.82 12.738,-8.231 l -2.28,0.675 C 6.112,-6.269 2.394,-3.576 0,0"
             style="fill:#d6fff4;fill-opacity:1;fill-rule:evenodd;stroke:none"
             id="path3430" />
        </g>
        <g
           id="g3432"
           transform="translate(427.5088,399.6714)">
          <path
             d="m 0,0 -1.547,-5.221 c 0.706,2.387 5.897,2.972 11.543,1.301 l 91.124,-26.984 c 8.838,-2.617 15.971,-6.091 21.671,-10.556 2.803,-2.193 6.749,-4.119 11.092,-5.405 l 2.283,-0.675 c 5.366,-1.589 10.299,-2.293 14.922,-2.13 2.794,0.098 5.783,-0.446 8.933,-1.593 l 6.242,-2.274 c -1.858,3.197 -5.283,6.73 -10.07,10.489 -1.113,-0.056 -2.227,-0.269 -3.337,-0.644 -5.083,-1.716 -10.238,-1.778 -15.607,-0.189 l -2.28,0.675 c -4.346,1.287 -8.065,3.98 -10.458,7.556 -4.868,7.275 -11.593,12.129 -20.431,14.746 L 12.956,6.079 C 7.311,7.75 1.484,5.017 0,0"
             style="fill:#ff6666;fill-opacity:1;fill-rule:evenodd;stroke:none"
             id="path3434" />
        </g>
        <g
           id="g3436"
           transform="translate(422.6934,383.4131)">
          <path
             d="m 0,0 -1.454,-4.911 c -1.672,-5.645 1.575,-11.624 7.22,-13.295 l 91.126,-26.982 c 8.836,-2.618 17.217,-1.878 25.463,2.246 4.049,2.025 8.69,2.443 13.035,1.157 l 2.283,-0.675 c 5.366,-1.59 9.603,-4.634 12.824,-9.211 l 0.075,-0.107 0.013,-0.018 0.002,-0.005 0.012,-0.013 0.077,-0.106 0.004,-0.007 0.008,-0.011 0.078,-0.104 0.008,-0.011 0.005,-0.007 0.013,-0.016 0.066,-0.086 0.011,-0.015 0.003,-0.003 0.002,-0.002 0.079,-0.099 0.014,-0.017 0.013,-0.017 0.053,-0.067 0.013,-0.016 0.013,-0.017 0.004,-0.004 0.009,-0.013 0.016,-0.016 0.026,-0.034 0.014,-0.016 0.013,-0.016 0.013,-0.017 0.007,-0.006 0.009,-0.01 0.013,-0.017 0.013,-0.015 0.042,-0.049 0.013,-0.016 0.009,-0.01 0.005,-0.007 0.015,-0.015 0.013,-0.016 0.029,-0.033 0.013,-0.015 0.014,-0.016 c 5.079,0.342 9.362,1.037 12.726,2.097 l -3.648,0.763 c -3.285,0.688 -6.059,1.962 -8.267,3.847 -3.65,3.119 -8.101,5.441 -13.471,7.03 l -2.28,0.677 c -4.346,1.285 -8.772,1.589 -12.438,0.863 -7.459,-1.48 -15.457,-0.922 -24.295,1.695 L 8.552,-8.8 C 2.905,-7.13 -0.94,-3.171 0,0"
             style="fill:#e83a00;fill-opacity:1;fill-rule:evenodd;stroke:none"
             id="path3438" />
        </g>
        <g
           id="g3440"
           transform="translate(586.707,577.6372)">
          <path
             d="m 0,0 -10.385,-16.768 -146.634,-72.228 10.384,16.769 z"
             style="fill:#cccccc;fill-opacity:1;fill-rule:evenodd;stroke:none"
             id="path3442" />
        </g>
        <g
           id="g3444"
           transform="translate(435.2441,515.2148)">
          <path
             d="m 0,0 14.277,-28.986 -47.742,-23.516 -14.278,28.986 z"
             style="fill:#2dc0ca;fill-opacity:1;fill-rule:evenodd;stroke:none"
             id="path3446" />
        </g>
        <g
           id="g3448"
           transform="translate(287.5259,439.2759)">
          <path
             d="m 0,0 11.756,-23.872 -245.097,-120.728 -11.758,23.872 z"
             style="fill:#d6fff4;fill-opacity:1;fill-rule:evenodd;stroke:none"
             id="path3450" />
        </g>
        <g
           id="g3452"
           transform="translate(385.5293,517.2109)">
          <path
             d="m 0,0 35.273,-71.611 -224.636,-110.65 -35.274,71.611 z"
             style="fill:#96a19e;fill-opacity:1;fill-rule:evenodd;stroke:none"
             id="path3454" />
        </g>
        <g
           id="g3456"
           transform="translate(381.2021,504.4854)">
          <path
             d="m 0,0 26.876,-54.559 -207.589,-102.251 -26.874,54.559 z"
             style="fill:#d6fff4;fill-opacity:1;fill-rule:evenodd;stroke:none"
             id="path3458" />
        </g>
        <g
           id="g3460"
           transform="translate(43.0166,346.3818)">
          <path
             d="M 0,0 33.595,-68.202 13.134,-78.28 -20.46,-10.078 Z"
             style="fill:#2dc0ca;fill-opacity:1;fill-rule:evenodd;stroke:none"
             id="path3462" />
        </g>
        <g
           id="g3464"
           transform="translate(287.5259,439.2759)">
          <path
             d="m 0,0 11.756,-23.872 -106.349,-52.385 -11.759,23.872 z"
             style="fill:#bfe3d9;fill-opacity:1;fill-rule:evenodd;stroke:none"
             id="path3466" />
        </g>
        <g
           id="g3468"
           transform="translate(257.5903,443.5967)">
          <path
             d="M 0,0 26.872,-54.559 17.921,-58.968 -8.953,-4.409 Z"
             style="fill:#ffffff;fill-opacity:1;fill-rule:evenodd;stroke:none"
             id="path3470" />
        </g>
        <g
           id="g3472"
           transform="translate(271.9756,450.6826)">
          <path
             d="m 0,0 c 8.958,-18.186 17.915,-36.373 26.875,-54.559 -2.985,-1.47 -5.969,-2.939 -8.951,-4.409 C 8.964,-40.781 0.007,-22.595 -8.951,-4.409 -5.968,-2.94 -2.984,-1.469 0,0"
             style="fill:#ffffff;fill-opacity:1;fill-rule:evenodd;stroke:none"
             id="path3474" />
        </g>
        <g
           id="g3476"
           transform="translate(286.3613,457.7695)">
          <path
             d="m 0,0 26.874,-54.56 -8.951,-4.409 -26.874,54.56 z"
             style="fill:#ffffff;fill-opacity:1;fill-rule:evenodd;stroke:none"
             id="path3478" />
        </g>
      </g>
    </g>
  </g>
</svg>
