<?xml version="1.0" encoding="UTF-8" standalone="no"?>
<!-- Created with Inkscape (http://www.inkscape.org/) -->

<svg
   version="1.1"
   id="svg1679"
   width="880"
   height="880"
   viewBox="0 0 880 880"
   sodipodi:docname="fast-food-clipart-publicdomainvectors.org.svg"
   inkscape:version="1.2 (dc2aedaf03, 2022-05-15)"
   xmlns:inkscape="http://www.inkscape.org/namespaces/inkscape"
   xmlns:sodipodi="http://sodipodi.sourceforge.net/DTD/sodipodi-0.dtd"
   xmlns="http://www.w3.org/2000/svg"
   xmlns:svg="http://www.w3.org/2000/svg">
  <defs
     id="defs1683">
    <clipPath
       clipPathUnits="userSpaceOnUse"
       id="clipPath1695">
      <path
         d="M 0,660 H 660 V 0 H 0 Z"
         id="path1693" />
    </clipPath>
  </defs>
  <sodipodi:namedview
     id="namedview1681"
     pagecolor="#ffffff"
     bordercolor="#000000"
     borderopacity="0.25"
     inkscape:showpageshadow="2"
     inkscape:pageopacity="0.0"
     inkscape:pagecheckerboard="0"
     inkscape:deskcolor="#d1d1d1"
     showgrid="false"
     inkscape:zoom="0.95113636"
     inkscape:cx="440.52569"
     inkscape:cy="440.52569"
     inkscape:window-width="1920"
     inkscape:window-height="1017"
     inkscape:window-x="-8"
     inkscape:window-y="-8"
     inkscape:window-maximized="1"
     inkscape:current-layer="g1687">
    <inkscape:page
       x="0"
       y="0"
       id="page1685"
       width="880"
       height="880" />
  </sodipodi:namedview>
  <g
     id="g1687"
     inkscape:groupmode="layer"
     inkscape:label="Page 1"
     transform="matrix(1.3333333,0,0,-1.3333333,0,880)">
    <g
       id="g1689">
      <g
         id="g1691"
         clip-path="url(#clipPath1695)">
        <g
           id="g1697"
           transform="translate(303.4795,99.2051)">
          <path
             d="m 0,0 c 134.713,0 244.586,52.055 244.586,115.879 0,63.823 -109.873,115.879 -244.586,115.879 -134.714,0 -244.586,-52.056 -244.586,-115.879 C -244.586,52.055 -134.714,0 0,0"
             style="fill:#f0f0f0;fill-opacity:1;fill-rule:evenodd;stroke:none"
             id="path1699" />
        </g>
        <g
           id="g1701"
           transform="translate(189.7295,466.4097)">
          <path
             d="m 0,0 h 212.943 l -27.366,-198.407 c -9.697,-70.313 -148.513,-70.315 -158.21,0 z"
             style="fill:#94ab13;fill-opacity:1;fill-rule:evenodd;stroke:none"
             id="path1703" />
        </g>
        <g
           id="g1705"
           transform="translate(393.1191,397.1387)">
          <path
             d="m 0,0 -13.86,-100.485 c -7.566,-54.852 -158.549,-54.853 -166.115,0 L -193.836,0 C -186.242,-43.665 -7.74,-44.043 0,0"
             style="fill:#cfe35d;fill-opacity:1;fill-rule:evenodd;stroke:none"
             id="path1707" />
        </g>
        <g
           id="g1709"
           transform="translate(296.2021,546.3711)">
          <path
             d="m 0,0 c 32.042,0 61.272,-6.608 83.432,-17.473 h 23.476 l 14.677,-34.572 h -0.009 c 2.457,-5.377 3.767,-11.004 3.767,-16.799 0,-38.021 -56.118,-68.843 -125.343,-68.843 -69.225,0 -125.344,30.822 -125.344,68.843 0,5.826 1.324,11.483 3.805,16.886 h -0.006 l 14.635,34.485 h 23.476 C -61.272,-6.608 -32.045,0 0,0"
             style="fill:#cbd1a7;fill-opacity:1;fill-rule:evenodd;stroke:none"
             id="path1711" />
        </g>
        <g
           id="g1713"
           transform="translate(296.2021,454.8647)">
          <path
             d="M 0,0 C 60.461,0 109.772,27.084 109.772,60.292 109.772,93.5 60.461,120.583 0,120.583 -60.462,120.583 -109.772,93.5 -109.772,60.292 -109.772,27.084 -60.462,0 0,0"
             style="fill:#e7ebd3;fill-opacity:1;fill-rule:evenodd;stroke:none"
             id="path1715" />
        </g>
        <g
           id="g1717"
           transform="translate(296.2021,466.4097)">
          <path
             d="M 0,0 C 51.814,0 94.072,21.898 94.072,48.747 94.072,75.595 51.814,97.494 0,97.494 -51.814,97.494 -94.074,75.595 -94.074,48.747 -94.074,21.898 -51.814,0 0,0"
             style="fill:#bec499;fill-opacity:1;fill-rule:evenodd;stroke:none"
             id="path1719" />
        </g>
        <g
           id="g1721"
           transform="translate(389.9844,511.3076)">
          <path
             d="m 0,0 c -3.787,-25.122 -44.327,-44.898 -93.782,-44.898 -49.456,0 -89.996,19.776 -93.783,44.898 3.787,25.124 44.327,44.899 93.783,44.899 C -44.327,44.899 -3.787,25.124 0,0"
             style="fill:#cbd1a7;fill-opacity:1;fill-rule:evenodd;stroke:none"
             id="path1723" />
        </g>
        <g
           id="g1725"
           transform="translate(296.2021,542.5718)">
          <path
             d="m 0,0 c 32.237,0 59.179,-11.738 65.791,-27.415 h 1.556 v -7.483 c 0,-19.274 -30.152,-34.899 -67.347,-34.899 -37.196,0 -67.35,15.625 -67.35,34.899 v 7.483 h 1.558 C -59.182,-11.738 -32.239,0 0,0"
             style="fill:#bec499;fill-opacity:1;fill-rule:evenodd;stroke:none"
             id="path1727" />
        </g>
        <g
           id="g1729"
           transform="translate(296.2021,480.2583)">
          <path
             d="M 0,0 C 37.094,0 67.349,15.676 67.349,34.898 67.349,54.12 37.094,69.797 0,69.797 -37.095,69.797 -67.35,54.12 -67.35,34.898 -67.35,15.676 -37.095,0 0,0"
             style="fill:#e7ebd3;fill-opacity:1;fill-rule:evenodd;stroke:none"
             id="path1731" />
        </g>
        <g
           id="g1733"
           transform="translate(342.8711,259.9971)">
          <path
             d="m 0,0 c -13.285,1.202 -23.077,12.947 -21.874,26.229 1.202,13.285 12.946,23.079 26.23,21.875 85.339,-0.174 210.458,-35.755 245.042,-124.332 5.648,-12.082 0.432,-26.454 -11.649,-32.101 -12.08,-5.649 -26.453,-0.435 -32.101,11.647 C 176.345,-34.163 62.219,-5.73 0,0"
             style="fill:#e39400;fill-opacity:1;fill-rule:evenodd;stroke:none"
             id="path1735" />
        </g>
        <g
           id="g1737"
           transform="translate(330.082,254.5459)">
          <path
             d="m 0,0 c 80.66,-3.156 150.71,-25.985 192.353,-59.25 l 32.994,-5.971 v -33.353 l -244.598,-31.669 v 33.353 l 5.797,5.853 z"
             style="fill:#ffdd30;fill-opacity:1;fill-rule:evenodd;stroke:none"
             id="path1739" />
        </g>
        <g
           id="g1741"
           transform="translate(330.082,287.8984)">
          <path
             d="M 0,0 C 109.544,-4.286 199.526,-44.855 225.347,-98.573 L -19.251,-130.242 Z"
             style="fill:#ffbb00;fill-opacity:1;fill-rule:evenodd;stroke:none"
             id="path1743" />
        </g>
        <g
           id="g1745"
           transform="translate(366.5273,268.0977)">
          <path
             d="m 0,0 c 15.718,0 28.853,-5.721 32.074,-13.365 h 0.761 v -8.098 c 0,-9.395 -14.7,-17.013 -32.835,-17.013 -18.132,0 -32.832,7.618 -32.832,17.013 v 8.098 h 0.76 C -28.85,-5.721 -15.714,0 0,0"
             style="fill:#eb0000;fill-opacity:1;fill-rule:evenodd;stroke:none"
             id="path1747" />
        </g>
        <g
           id="g1749"
           transform="translate(366.5293,237.7207)">
          <path
             d="m 0,0 c 18.084,0 32.833,7.642 32.833,17.012 0,9.372 -14.749,17.015 -32.833,17.015 -18.084,0 -32.834,-7.643 -32.834,-17.015 C -32.834,7.642 -18.084,0 0,0"
             style="fill:#ff5e52;fill-opacity:1;fill-rule:evenodd;stroke:none"
             id="path1751" />
        </g>
        <g
           id="g1753"
           transform="translate(448.6816,236.8984)">
          <path
             d="m 0,0 c -4.133,0 -7.481,-1.736 -7.481,-3.877 0,-2.141 3.348,-3.878 7.481,-3.878 4.133,0 7.482,1.737 7.482,3.878 C 7.482,-1.736 4.133,0 0,0 m 0,3.113 c 5.616,0 10.312,-2.043 11.463,-4.775 h 0.271 v -2.894 c 0,-3.357 -5.254,-6.08 -11.734,-6.08 -6.48,0 -11.733,2.723 -11.733,6.08 v 2.894 h 0.271 C -10.311,1.07 -5.616,3.113 0,3.113"
             style="fill:#1a1a1a;fill-opacity:1;fill-rule:evenodd;stroke:none"
             id="path1755" />
        </g>
        <g
           id="g1757"
           transform="translate(448.6816,239.1123)">
          <path
             d="m 0,0 c -4.133,0 -7.481,-1.734 -7.481,-3.876 0,-2.141 3.348,-3.877 7.481,-3.877 4.133,0 7.482,1.736 7.482,3.877 C 7.482,-1.734 4.133,0 0,0 m 0,2.205 c 6.48,0 11.734,-2.723 11.734,-6.081 0,-3.359 -5.254,-6.081 -11.734,-6.081 -6.48,0 -11.733,2.722 -11.733,6.081 0,3.358 5.253,6.081 11.733,6.081"
             style="fill:#4d4d4d;fill-opacity:1;fill-rule:evenodd;stroke:none"
             id="path1759" />
        </g>
        <g
           id="g1761"
           transform="translate(380.959,221.9033)">
          <path
             d="m 0,0 c 15.718,0 28.851,-5.723 32.075,-13.365 h 0.759 v -8.099 c 0,-9.396 -14.7,-17.013 -32.834,-17.013 -18.132,0 -32.832,7.617 -32.832,17.013 v 8.099 h 0.76 C -28.851,-5.723 -15.715,0 0,0"
             style="fill:#eb0000;fill-opacity:1;fill-rule:evenodd;stroke:none"
             id="path1763" />
        </g>
        <g
           id="g1765"
           transform="translate(380.9609,191.5244)">
          <path
             d="m 0,0 c 18.084,0 32.832,7.643 32.832,17.014 0,9.37 -14.748,17.012 -32.832,17.012 -18.084,0 -32.834,-7.642 -32.834,-17.012 C -32.834,7.643 -18.084,0 0,0"
             style="fill:#ff5e52;fill-opacity:1;fill-rule:evenodd;stroke:none"
             id="path1767" />
        </g>
        <g
           id="g1769"
           transform="translate(410.6709,268.7549)">
          <path
             d="m 0,0 c -4.131,0 -7.481,-1.737 -7.481,-3.878 0,-2.141 3.35,-3.876 7.481,-3.876 4.133,0 7.483,1.735 7.483,3.876 C 7.483,-1.737 4.133,0 0,0 m 0,3.115 c 5.618,0 10.311,-2.046 11.464,-4.777 h 0.271 v -2.894 c 0,-3.358 -5.254,-6.081 -11.735,-6.081 -6.48,0 -11.733,2.723 -11.733,6.081 v 2.894 h 0.272 C -10.31,1.069 -5.616,3.115 0,3.115"
             style="fill:#1a1a1a;fill-opacity:1;fill-rule:evenodd;stroke:none"
             id="path1771" />
        </g>
        <g
           id="g1773"
           transform="translate(410.6709,270.9707)">
          <path
             d="m 0,0 c -4.131,0 -7.481,-1.737 -7.481,-3.878 0,-2.141 3.35,-3.876 7.481,-3.876 4.133,0 7.483,1.735 7.483,3.876 C 7.483,-1.737 4.133,0 0,0 m 0,2.202 c 6.481,0 11.735,-2.721 11.735,-6.08 0,-3.357 -5.254,-6.08 -11.735,-6.08 -6.48,0 -11.733,2.723 -11.733,6.08 0,3.359 5.253,6.08 11.733,6.08"
             style="fill:#4d4d4d;fill-opacity:1;fill-rule:evenodd;stroke:none"
             id="path1775" />
        </g>
        <g
           id="g1777"
           transform="translate(489.6768,230.6846)">
          <path
             d="m 0,0 c 15.718,0 28.851,-5.723 32.074,-13.365 h 0.76 v -8.099 c 0,-9.396 -14.7,-17.013 -32.834,-17.013 -18.133,0 -32.833,7.617 -32.833,17.013 v 8.099 h 0.761 C -28.851,-5.723 -15.717,0 0,0"
             style="fill:#eb0000;fill-opacity:1;fill-rule:evenodd;stroke:none"
             id="path1779" />
        </g>
        <g
           id="g1781"
           transform="translate(489.6768,200.3057)">
          <path
             d="m 0,0 c 18.085,0 32.834,7.643 32.834,17.014 0,9.37 -14.749,17.013 -32.834,17.013 -18.084,0 -32.833,-7.643 -32.833,-17.013 C -32.833,7.643 -18.084,0 0,0"
             style="fill:#ff5e52;fill-opacity:1;fill-rule:evenodd;stroke:none"
             id="path1783" />
        </g>
        <g
           id="g1785"
           transform="translate(432.6465,194.3516)">
          <path
             d="m 0,0 c -4.132,0 -7.481,-1.736 -7.481,-3.877 0,-2.141 3.349,-3.876 7.481,-3.876 4.133,0 7.481,1.735 7.481,3.876 C 7.481,-1.736 4.133,0 0,0 m 0,3.115 c 5.617,0 10.312,-2.045 11.463,-4.776 h 0.271 v -2.895 c 0,-3.357 -5.253,-6.08 -11.734,-6.08 -6.48,0 -11.733,2.723 -11.733,6.08 v 2.895 h 0.271 C -10.311,1.07 -5.616,3.115 0,3.115"
             style="fill:#1a1a1a;fill-opacity:1;fill-rule:evenodd;stroke:none"
             id="path1787" />
        </g>
        <g
           id="g1789"
           transform="translate(432.6465,196.5674)">
          <path
             d="m 0,0 c -4.132,0 -7.481,-1.736 -7.481,-3.877 0,-2.142 3.349,-3.878 7.481,-3.878 4.133,0 7.481,1.736 7.481,3.878 C 7.481,-1.736 4.133,0 0,0 m 0,2.203 c 6.481,0 11.734,-2.721 11.734,-6.08 0,-3.358 -5.253,-6.081 -11.734,-6.081 -6.48,0 -11.733,2.723 -11.733,6.081 0,3.359 5.253,6.08 11.733,6.08"
             style="fill:#4d4d4d;fill-opacity:1;fill-rule:evenodd;stroke:none"
             id="path1791" />
        </g>
        <g
           id="g1793"
           transform="translate(335.4209,220.0293)">
          <path
             d="m 0,0 c -4.133,0 -7.482,-1.737 -7.482,-3.878 0,-2.141 3.349,-3.876 7.482,-3.876 4.132,0 7.481,1.735 7.481,3.876 C 7.481,-1.737 4.132,0 0,0 m 0,3.114 c 5.616,0 10.311,-2.045 11.463,-4.776 h 0.271 v -2.895 c 0,-3.357 -5.253,-6.08 -11.734,-6.08 -6.48,0 -11.733,2.723 -11.733,6.08 v 2.895 h 0.271 C -10.311,1.069 -5.616,3.114 0,3.114"
             style="fill:#1a1a1a;fill-opacity:1;fill-rule:evenodd;stroke:none"
             id="path1795" />
        </g>
        <g
           id="g1797"
           transform="translate(335.4209,222.2441)">
          <path
             d="m 0,0 c -4.133,0 -7.482,-1.736 -7.482,-3.877 0,-2.141 3.349,-3.876 7.482,-3.876 4.132,0 7.481,1.735 7.481,3.876 C 7.481,-1.736 4.132,0 0,0 m 0,2.203 c 6.481,0 11.734,-2.721 11.734,-6.08 0,-3.358 -5.253,-6.081 -11.734,-6.081 -6.48,0 -11.733,2.723 -11.733,6.081 0,3.359 5.253,6.08 11.733,6.08"
             style="fill:#4d4d4d;fill-opacity:1;fill-rule:evenodd;stroke:none"
             id="path1799" />
        </g>
        <g
           id="g1801"
           transform="translate(508.7266,217.9678)">
          <path
             d="m 0,0 c -4.133,0 -7.482,-1.735 -7.482,-3.876 0,-2.142 3.349,-3.877 7.482,-3.877 4.133,0 7.481,1.735 7.481,3.877 C 7.481,-1.735 4.133,0 0,0 m 0,3.115 c 5.616,0 10.311,-2.045 11.462,-4.775 h 0.271 v -2.896 c 0,-3.357 -5.253,-6.08 -11.733,-6.08 -6.48,0 -11.734,2.723 -11.734,6.08 v 2.896 h 0.271 C -10.312,1.07 -5.616,3.115 0,3.115"
             style="fill:#1a1a1a;fill-opacity:1;fill-rule:evenodd;stroke:none"
             id="path1803" />
        </g>
        <g
           id="g1805"
           transform="translate(508.7266,220.1836)">
          <path
             d="m 0,0 c -4.133,0 -7.482,-1.735 -7.482,-3.876 0,-2.141 3.349,-3.878 7.482,-3.878 4.133,0 7.481,1.737 7.481,3.878 C 7.481,-1.735 4.133,0 0,0 m 0,2.204 c 6.48,0 11.733,-2.722 11.733,-6.08 0,-3.359 -5.253,-6.081 -11.733,-6.081 -6.48,0 -11.734,2.722 -11.734,6.081 0,3.358 5.254,6.08 11.734,6.08"
             style="fill:#4d4d4d;fill-opacity:1;fill-rule:evenodd;stroke:none"
             id="path1807" />
        </g>
        <g
           id="g1809"
           transform="translate(307.0762,507.6802)">
          <path
             d="m 0,0 c -0.387,-2.912 -5.253,-5.273 -10.874,-5.273 -5.62,0 -9.865,2.361 -9.481,5.273 l 13.529,102.326 h 20.352 z"
             style="fill:#2da3ca;fill-opacity:1;fill-rule:evenodd;stroke:none"
             id="path1811" />
        </g>
        <g
           id="g1813"
           transform="translate(311.124,615.2793)">
          <path
             d="m 0,0 c 5.62,0 9.864,-2.361 9.478,-5.273 -0.383,-2.913 -5.252,-5.273 -10.873,-5.273 -5.621,0 -9.865,2.36 -9.479,5.273 C -10.49,-2.361 -5.621,0 0,0"
             style="fill:#56c3e8;fill-opacity:1;fill-rule:evenodd;stroke:none"
             id="path1815" />
        </g>
        <g
           id="g1817"
           transform="translate(165.0908,235.168)">
          <path
             d="m 0,0 c 39.802,0 74.293,-11.78 91.205,-28.979 h 11.094 V -53.01 c 0,-29.278 -45.8,-53.011 -102.299,-53.011 -56.5,0 -102.301,23.733 -102.301,53.011 v 24.031 h 11.095 C -74.295,-11.78 -39.804,0 0,0"
             style="fill:#f5cc5a;fill-opacity:1;fill-rule:evenodd;stroke:none"
             id="path1819" />
        </g>
        <g
           id="g1821"
           transform="translate(165.0908,153.1797)">
          <path
             d="m 0,0 c 56.345,0 102.299,23.812 102.299,53.01 0,29.197 -45.954,53.011 -102.299,53.011 -56.345,0 -102.301,-23.814 -102.301,-53.011 C -102.301,23.812 -56.345,0 0,0"
             style="fill:#f0dba3;fill-opacity:1;fill-rule:evenodd;stroke:none"
             id="path1823" />
        </g>
        <g
           id="g1825"
           transform="translate(199.3193,156.2236)">
          <path
             d="M 0,0 -34.229,-20.647 -68.457,0 c 10.702,-1.97 22.222,-3.044 34.228,-3.044 12.006,0 23.526,1.074 34.229,3.044"
             style="fill:#e39400;fill-opacity:1;fill-rule:evenodd;stroke:none"
             id="path1827" />
        </g>
        <g
           id="g1829"
           transform="translate(64.6172,216.1943)">
          <path
             d="m 0,0 66.246,39.961 c 10.702,1.97 22.222,3.046 34.228,3.046 12.005,0 23.524,-1.076 34.226,-3.046 L 200.946,0 c 1.195,-3.24 1.826,-6.585 1.826,-10.005 0,-3.42 -0.631,-6.765 -1.826,-10.005 l -66.244,-39.961 c -10.703,-1.969 -22.223,-3.044 -34.228,-3.044 -12.007,0 -23.527,1.075 -34.229,3.044 L 0,-20.01 c -1.195,3.24 -1.828,6.585 -1.828,10.005 0,3.42 0.633,6.765 1.828,10.005"
             style="fill:#ffbb00;fill-opacity:1;fill-rule:evenodd;stroke:none"
             id="path1831" />
        </g>
        <g
           id="g1833"
           transform="translate(217.793,203.4443)">
          <path
             d="m 0,0 c 15.718,0 28.852,-5.722 32.075,-13.365 h 0.759 v -8.098 c 0,-9.395 -14.7,-17.013 -32.834,-17.013 -18.133,0 -32.832,7.618 -32.832,17.013 v 8.098 h 0.759 C -28.851,-5.722 -15.715,0 0,0"
             style="fill:#eb0000;fill-opacity:1;fill-rule:evenodd;stroke:none"
             id="path1835" />
        </g>
        <g
           id="g1837"
           transform="translate(217.7939,173.0674)">
          <path
             d="m 0,0 c 18.084,0 32.833,7.643 32.833,17.014 0,9.37 -14.749,17.013 -32.833,17.013 -18.084,0 -32.833,-7.643 -32.833,-17.013 C -32.833,7.643 -18.084,0 0,0"
             style="fill:#ff5e52;fill-opacity:1;fill-rule:evenodd;stroke:none"
             id="path1839" />
        </g>
        <g
           id="g1841"
           transform="translate(117.7354,201.7344)">
          <path
             d="m 0,0 c 15.716,0 28.85,-5.723 32.074,-13.365 h 0.759 v -8.099 c 0,-9.395 -14.7,-17.014 -32.833,-17.014 -18.133,0 -32.833,7.619 -32.833,17.014 v 8.099 h 0.759 C -28.851,-5.723 -15.716,0 0,0"
             style="fill:#eb0000;fill-opacity:1;fill-rule:evenodd;stroke:none"
             id="path1843" />
        </g>
        <g
           id="g1845"
           transform="translate(117.7358,171.3564)">
          <path
             d="m 0,0 c 18.084,0 32.833,7.644 32.833,17.014 0,9.37 -14.749,17.013 -32.833,17.013 -18.084,0 -32.834,-7.643 -32.834,-17.013 C -32.834,7.644 -18.084,0 0,0"
             style="fill:#ff5e52;fill-opacity:1;fill-rule:evenodd;stroke:none"
             id="path1847" />
        </g>
        <g
           id="g1849"
           transform="translate(267.3896,242.9629)">
          <path
             d="m 0,0 v -8.639 c 0,-29.277 -45.8,-53.009 -102.299,-53.009 -56.5,0 -102.301,23.732 -102.301,53.009 V 0 C -204.6,85.625 0,87.033 0,0"
             style="fill:#f5cc5a;fill-opacity:1;fill-rule:evenodd;stroke:none"
             id="path1851" />
        </g>
        <g
           id="g1853"
           transform="translate(222.6445,240.3184)">
          <path
             d="m 0,0 v -6.426 c 0,-21.773 -34.062,-39.423 -76.079,-39.423 -42.018,0 -76.079,17.65 -76.079,39.423 V 0 C -152.158,63.676 0,64.724 0,0"
             style="fill:#fcd979;fill-opacity:1;fill-rule:evenodd;stroke:none"
             id="path1855" />
        </g>
        <g
           id="g1857"
           transform="translate(240.7617,267.9297)">
          <path
             d="M 0,0 C -4.717,-6.565 -15.344,9.049 -1.369,1.657 -0.672,1.289 0.117,0.8 0,0 m 9.202,-23.21 c -4.728,-7.127 -20.135,9.581 -3.166,2.947 1.275,-0.498 3.369,-1.434 3.166,-2.947 M 2.554,-55.63 c -3.818,-9.927 -20.443,9.993 -4.045,4.271 2.066,-0.721 4.153,-2.069 4.045,-4.271 m -90.702,43.755 c -5.406,-11.262 -25.637,1.518 -5.009,2.52 1.91,0.093 5.267,-0.156 5.009,-2.52 m 15.362,22.739 c -5.518,-10.624 -26.39,3.715 -5.205,2.923 1.931,-0.072 5.456,-0.591 5.205,-2.923 m -16.638,20.323 c -4.601,-9.493 -20.647,3.322 -3.235,2.076 1.402,-0.101 3.382,-0.488 3.235,-2.076 m -37.617,-32.224 c -4.847,-12.26 -24.198,-0.624 -4.731,2.182 1.962,0.282 4.927,0.234 4.731,-2.182 m -17.767,-40.303 c -4.288,-13.184 -22.179,-0.286 -4.346,2.495 2.239,0.349 4.504,-0.047 4.346,-2.495 m 78.258,-16.038 c -4.026,-11.552 -22.076,4.088 -5.338,3.964 2.68,-0.02 5.528,-1.179 5.338,-3.964 m 21.068,39.827 c -3.834,-10.308 -17.916,8.466 -2.84,3.249 1.629,-0.564 2.948,-1.562 2.84,-3.249 m 18.911,-38.251 c -4.201,-10.733 -22.079,9.034 -4.343,4.203 2.144,-0.585 4.529,-1.914 4.343,-4.203 m -87.467,74.786 c -3.99,-11.892 -19.187,3.254 -3.082,2.458 1.76,-0.086 3.171,-0.707 3.082,-2.458 M -29.45,0.193 c -3.764,-8.819 -20.495,7.949 -4.059,3.6 1.819,-0.479 4.221,-1.601 4.059,-3.6 m -79.265,-47.489 c -4.22,-12.772 -21.529,1.549 -4.218,2.865 2.284,0.175 4.376,-0.501 4.218,-2.865 m 73.57,70.578 c -4.321,-8.094 -19.543,7.38 -3.09,2.686 1.355,-0.387 3.234,-1.169 3.09,-2.686"
             style="fill:#fff6b0;fill-opacity:1;fill-rule:evenodd;stroke:none"
             id="path1859" />
        </g>
      </g>
    </g>
  </g>
</svg>
