<?xml version="1.0" encoding="UTF-8" standalone="no"?>
<!-- Created with Inkscape (http://www.inkscape.org/) -->

<svg
   version="1.1"
   id="svg198"
   width="132.72231"
   height="116.08093"
   viewBox="0 0 132.72231 116.08093"
   sodipodi:docname="zaba1b.svg"
   inkscape:version="1.2.2 (732a01da63, 2022-12-09, custom)"
   xmlns:inkscape="http://www.inkscape.org/namespaces/inkscape"
   xmlns:sodipodi="http://sodipodi.sourceforge.net/DTD/sodipodi-0.dtd"
   xmlns="http://www.w3.org/2000/svg"
   xmlns:svg="http://www.w3.org/2000/svg">
  <defs
     id="defs202" />
  <sodipodi:namedview
     id="namedview200"
     pagecolor="#ffffff"
     bordercolor="#000000"
     borderopacity="0.25"
     inkscape:showpageshadow="2"
     inkscape:pageopacity="0.0"
     inkscape:pagecheckerboard="0"
     inkscape:deskcolor="#d1d1d1"
     showgrid="false"
     inkscape:zoom="6.9989667"
     inkscape:cx="67.867161"
     inkscape:cy="58.080002"
     inkscape:window-width="1846"
     inkscape:window-height="1016"
     inkscape:window-x="0"
     inkscape:window-y="0"
     inkscape:window-maximized="1"
     inkscape:current-layer="svg198" />
  <g
     inkscape:groupmode="layer"
     id="layer1"
     inkscape:label="Layer 1"
     transform="translate(-0.09893427,-0.0528601)">
    <path
       style="fill:#000000;stroke-width:0.32"
       d="M 60.475418,116.05771 C 60.151296,115.75228 50.182067,115.09009 45.12,115.03775 c -4.169555,-0.0431 -5.482413,-0.16318 -6.242442,-0.57092 -1.732118,-0.92923 -2.955609,-2.53307 -3.834732,-5.02683 -0.712512,-2.02115 -0.815447,-2.72972 -0.65209,-4.48875 l 0.193978,-2.08875 -1.852359,-0.52222 C 29.448784,101.4146 27.426652,100.51507 26.406488,99.526288 25.858162,98.994829 25.15932,98.56 24.853507,98.56 c -0.305813,0 -0.922669,-0.240234 -1.370791,-0.533856 -0.762869,-0.49985 -0.914604,-0.497955 -2.382151,0.02976 -1.035601,0.372397 -2.628177,0.580666 -4.693975,0.613853 -2.860357,0.04595 -3.272402,-0.0264 -4.838976,-0.849779 -1.4706,-0.772935 -1.8501071,-0.852007 -2.6877519,-0.56 C 6.718879,98.013299 3.0738617,97.376518 1.5845933,95.985501 0.9847815,95.425261 0.59368669,94.598333 0.33171638,93.336429 -0.30494879,90.269629 0.09340988,89.053405 5.0197629,79.023434 6.1086326,76.806515 7.0998954,74.571318 7.222569,74.05633 c 0.4017708,-1.68664 2.2862224,-7.302138 2.986671,-8.900013 0.660771,-1.507357 1.252933,-2.556944 4.172911,-7.396327 2.115527,-3.506137 3.045695,-4.721638 5.463486,-7.13943 2.736882,-2.736874 4.894653,-3.90056 7.232641,-3.90056 1.326045,0 1.873574,0.169094 2.642466,0.816074 l 0.969849,0.816073 0.701954,-1.376073 c 3.251773,-6.374599 5.022074,-9.153706 7.323098,-11.496176 1.789929,-1.82217 2.741971,-2.4769 5.557017,-3.821617 1.868372,-0.8925 3.468903,-1.739007 3.556736,-1.881126 0.08783,-0.142119 0.990151,-0.58532 2.005149,-0.984893 C 50.849546,28.39269 54.056,26.916089 56.96,25.510927 62.783046,22.693322 67.151955,20.795074 72.466128,18.773664 74.394499,18.040149 77.974694,16.432 80.422122,15.2 l 4.449865,-2.24 1.928247,-3.52 c 3.36768,-6.1476682 7.099276,-8.78495942 12.446057,-8.79620195 0.993459,-0.00209 2.793459,0.30959936 3.999999,0.69264065 2.49866,0.7932519 5.18738,0.8103699 7.87454,0.050134 1.5655,-0.44290185 3.78552,-0.75667884 8.87917,-1.25497617 1.91373,-0.18721473 2.31022,-0.1079245 4.96,0.99189557 6.15994,2.5567511 6.78871,2.9342743 7.34416,4.4095044 0.96905,2.5737309 0.53677,9.3883035 -0.96818,15.2627015 -0.47798,1.865749 -2.43154,6.74462 -3.01281,7.524302 -0.31444,0.421757 -1.61651,3.941072 -1.83511,4.96 -0.0944,0.44 -0.35103,1.016 -0.57031,1.28 -0.56337,0.678272 -5.14832,8.667123 -6.55691,11.424819 -0.64751,1.267651 -1.36754,2.534067 -1.60008,2.814263 -0.36242,0.436691 -0.26284,0.678768 0.6973,1.69518 1.90504,2.016685 2.59979,4.168615 2.60403,8.065738 0.005,4.551155 -1.50946,12.568294 -2.85034,15.089373 -0.24846,0.467155 -0.45175,1.368566 -0.45175,2.003133 0,0.757763 -0.21966,1.34184 -0.64,1.701744 -1.55209,1.328937 0.0901,1.436323 2.20461,0.144166 0.81146,-0.495872 2.65688,-1.319088 4.10092,-1.82937 l 2.62554,-0.927788 0.81446,0.765152 c 0.83925,0.788432 1.0616,1.743084 0.48848,2.097292 -0.17929,0.11081 -1.017,0.252919 -1.86158,0.315799 -2.80376,0.208742 -7.41243,2.910275 -7.41243,4.345053 0,0.398032 1.03173,0.371814 3.22915,-0.08205 1.59545,-0.329533 1.93334,-0.308265 2.65926,0.167379 1.62828,1.06689 0.79678,2.982912 -1.16548,2.685604 -1.25281,-0.189818 -3.9387,0.278694 -6.25493,1.091075 -0.9306,0.326393 -2.5146,0.592093 -3.52,0.590441 -3.3727,-0.0055 -6.33804,-2.49206 -5.73266,-4.807008 0.10735,-0.410531 -0.0456,-0.672636 -0.47135,-0.807766 -0.36527,-0.115933 -0.55909,-0.385546 -0.46098,-0.641235 0.0931,-0.242656 -0.0396,-0.841645 -0.29488,-1.331091 -0.2553,-0.489444 -0.46507,-1.285898 -0.46616,-1.769898 -0.003,-1.244317 -0.40472,-1.093955 -1.28309,0.48 -0.41743,0.748 -1.23595,2.042522 -1.81892,2.876717 -0.58298,0.834195 -1.05996,1.741539 -1.05996,2.016317 0,0.274777 -0.54,0.998416 -1.2,1.608083 -0.959744,0.886553 -1.108282,1.16655 -0.741888,1.398486 0.676578,0.428291 0.791118,2.957261 0.191466,4.227264 -1.23273,2.610784 -3.19273,4.93624 -4.420138,5.244298 -0.490659,0.123149 -0.877578,0.447075 -0.888122,0.743526 -0.01168,0.328723 -0.978236,1.00432 -2.582774,1.805309 -2.689632,1.342669 -3.799661,2.177894 -2.456832,1.848605 0.406058,-0.09957 0.882646,-0.292298 1.059088,-0.428275 0.176438,-0.135978 1.112438,-0.553728 2.08,-0.928336 0.967558,-0.374605 2.231472,-0.899338 2.808698,-1.166068 1.668348,-0.770934 4.643603,-1.709475 5.446392,-1.718057 0.40474,-0.0043 1.16742,-0.231018 1.69484,-0.503757 1.01108,-0.522854 9.43339,-1.258966 10.35559,-0.905082 0.27431,0.105264 0.49368,0.56904 0.49368,1.043706 0,0.650954 -0.32367,1.067773 -1.36,1.751395 -1.17377,0.774282 -1.58661,0.875235 -3.01482,0.737219 -1.12231,-0.108451 -2.30652,0.03919 -3.68,0.458823 -2.61972,0.800377 -8.904982,3.254882 -8.905852,3.477872 -3.2e-4,0.0946 0.934259,0.12373 2.076954,0.0648 1.142694,-0.0589 2.780428,0.0435 3.639418,0.22777 1.12961,0.24226 1.82993,0.23374 2.53075,-0.0308 0.80359,-0.30332 1.11421,-0.27057 1.82006,0.19192 0.67664,0.44336 0.83085,0.76681 0.7523,1.57797 -0.0799,0.82511 -0.3361,1.13616 -1.33918,1.62594 -1.05684,0.51603 -1.46008,0.55493 -2.72534,0.26287 -1.69575,-0.39143 -2.52604,-0.25672 -8.83429,1.43331 -7.468371,2.00083 -12.969808,3.95324 -19.68,6.98426 -1.32,0.59625 -3.408,1.29777 -4.64,1.55893 -2.23528,0.47384 -9.150019,1.01028 -9.444582,0.7327 z"
       id="path316" />
    <path
       style="display:inline;fill:#00ff00;stroke-width:0.32"
       d="m 113.81007,80.376912 c 0.96161,-0.918963 3.12315,-4.190365 2.90974,-4.403773 -0.0644,-0.06444 -0.54076,0.596384 -1.05849,1.468499 -0.51773,0.872116 -1.04932,1.588519 -1.18132,1.592013 -0.40016,0.01059 -0.27044,-0.407193 0.5942,-1.913651 1.32299,-2.305075 2.93502,-6.909018 3.47338,-9.92 0.33387,-1.867283 -0.32751,-0.412646 -1.09121,2.4 -0.72916,2.68543 -3.18041,8.196272 -4.09553,9.207472 -0.4512,0.498563 -0.46459,0.635357 -0.0852,0.86983 0.36304,0.224368 0.29863,0.404368 -0.33272,0.929818 -0.4306,0.358374 -0.62427,0.656378 -0.43037,0.662234 0.1939,0.0059 0.77779,-0.395744 1.29753,-0.892442 z"
       id="path386" />
    <path
       style="fill:#00ff00;stroke-width:0.32"
       d="M 5.3326278,94.32 C 5.870624,93.748 6.5751546,92.816682 6.8982512,92.2504 7.4737328,91.241776 7.4714544,91.17985 6.7863994,89.2104 5.9118467,86.696173 5.7027293,84.981021 6.1374547,83.887853 6.5419059,82.870813 6.820976,78.399875 6.4799808,78.400298 6.1812493,78.400618 3.863223,83.172896 2.5683736,86.453309 1.8155662,88.360493 1.6,89.406557 1.6,91.152477 c 0,2.808608 0.4017782,4.006259 1.2533182,3.73599 0.3370517,-0.106976 0.7054383,-0.04464 0.818637,0.138515 C 3.9978115,95.55423 4.2879421,95.430714 5.3326278,94.32 Z"
       id="path380" />
    <path
       style="fill:#00ff00;stroke-width:0.32"
       d="M 15.177876,97.404211 C 15.701082,97.203437 17.6,93.63623 17.6,92.854138 17.6,92.293619 16.681076,90.624733 15.808205,89.6 14.646727,88.236448 14.342179,86.202448 14.899372,83.530131 15.165963,82.251552 15.738665,80.539363 16.172042,79.725267 16.605419,78.911171 16.96,77.986211 16.96,77.669798 c 0,-0.316412 0.288,-1.13982 0.64,-1.829798 0.352,-0.689978 0.64,-1.407341 0.64,-1.594141 0,-0.647641 2.189684,-5.937744 3.446246,-8.325859 0.69455,-1.32 1.195094,-2.59255 1.112321,-2.827891 -0.08277,-0.235341 0.17679,-1.06424 0.576805,-1.841997 0.400016,-0.77776 0.643933,-1.497475 0.542039,-1.59937 C 23.63448,59.367814 20.853528,62.994125 19.96854,64.8 c -0.431253,0.88 -1.075902,1.96 -1.432553,2.4 -0.356652,0.44 -0.06354,-0.388 0.651349,-1.84 0.714894,-1.452 1.428113,-2.64 1.584932,-2.64 0.156818,0 0.425405,-0.396 0.59686,-0.88 0.171454,-0.484 0.761541,-1.346688 1.311304,-1.917088 C 23.5697,59.000266 23.95354,58.24 23.530094,58.24 c -0.171172,0 -2.37202,2.934829 -3.912874,5.217814 -0.570855,0.845799 -1.87026,3.11209 -2.887568,5.036205 C 15.712343,70.418131 14.7,71.994115 14.48,71.996205 c -0.505188,0.0048 -0.503835,-0.02051 0.11484,-2.148695 0.515478,-1.773177 2.97341,-5.733932 6.047319,-9.744748 1.612496,-2.103975 4.630936,-5.062752 5.164858,-5.062772 1.013317,-3.5e-5 3.559406,-5.385478 3.105423,-6.568537 -0.225106,-0.586618 -1.726164,-0.877911 -3.14872,-0.611037 -0.831302,0.155952 -1.255282,0.443955 -1.464793,0.995011 -0.165481,0.435248 -0.792836,0.983597 -1.429792,1.249735 -0.624214,0.260812 -1.064643,0.587942 -0.978729,0.726953 0.08591,0.139011 -0.664282,1.116621 -1.6671,2.172464 C 14.9818,58.523242 11.948412,64.697059 10.104136,73.6 9.8306934,74.92 9.3894,76.706886 9.1234838,77.570858 8.8575677,78.434829 8.64,79.503491 8.64,79.945661 c 0,0.442169 -0.2349616,1.063574 -0.5221366,1.380899 -0.9429482,1.041946 -0.9349069,4.51889 0.017277,7.469562 0.4536736,1.405865 0.8248611,2.687081 0.8248611,2.847145 0,0.160064 0.3092317,1.13912 0.6871817,2.175683 0.7354518,2.017047 1.8018618,3.049796 3.5895158,3.476215 1.381708,0.329587 1.368404,0.328838 1.941178,0.109046 z"
       id="path376" />
    <path
       style="fill:#00ff00;stroke-width:0.32"
       d="m 116.85648,84.989002 c 0.58494,-0.240896 1.85552,-0.542045 2.82352,-0.669216 3.69036,-0.484823 3.15948,-1.343351 -0.63401,-1.025319 -1.20006,0.100608 -2.26328,0.101578 -2.3627,0.0022 -0.60709,-0.607088 2.02143,-3.397798 4.51239,-4.790822 1.89046,-1.057207 2.50528,-1.709712 1.60432,-1.702672 -0.76281,0.006 -3.77163,1.574838 -3.95958,2.064627 -0.10389,0.270736 -0.52179,0.492246 -0.92866,0.492246 -0.44111,0 -1.17013,0.46857 -1.80576,1.160637 -2.15214,2.34312 -3.17456,3.319277 -3.47667,3.319277 -0.47767,0 -0.42546,-0.07231 1.45067,-2.009306 1.68391,-1.738547 2.21642,-2.675008 1.36,-2.391708 -0.22,0.07277 -0.77135,0.677817 -1.22522,1.344537 -0.8482,1.245968 -2.34579,2.096477 -3.69152,2.096477 -0.41979,0 -0.76326,-0.144 -0.76326,-0.32 0,-0.176 0.36356,-0.32 0.80792,-0.32 0.55863,0 0.89812,-0.237254 1.10026,-0.768915 0.16079,-0.422903 0.44522,-0.863402 0.63208,-0.978887 0.55162,-0.340918 0.38763,-0.810489 -0.20379,-0.583542 -0.56026,0.214992 -0.2421,-0.31305 1.48743,-2.468656 0.35303,-0.44 0.64507,-0.904064 0.64898,-1.031251 0.004,-0.127191 0.36619,-0.991191 0.80505,-1.92 0.43886,-0.928813 1.34659,-3.344749 2.01717,-5.368749 0.67513,-2.037741 1.38061,-3.647456 1.58085,-3.607072 0.69952,0.141072 1.08533,-3.241795 0.87212,-7.646864 -0.24323,-5.025501 -0.51923,-5.772563 -2.88806,-7.81752 -2.8177,-2.432442 -2.60025,-2.349827 -4.42719,-1.682058 -0.89308,0.326432 -1.92384,0.593514 -2.29057,0.593514 -1.29775,0 -6.33645,5.219139 -5.67615,5.87943 0.49659,0.496592 1.04927,0.09219 1.6939,-1.23943 0.3834,-0.792 0.84504,-1.44 1.02587,-1.44 0.364,0 0.28459,0.340912 -0.65388,2.807107 -0.3531,0.927907 -0.79234,2.388093 -0.97608,3.244858 -0.35813,1.669878 -0.13438,4.828035 0.34205,4.828035 0.15884,0 0.70996,-0.938669 1.2247,-2.085926 0.86305,-1.923578 1.65421,-2.763869 2.14251,-2.275568 0.10867,0.108662 -0.0212,0.450454 -0.2886,0.759532 -0.2674,0.309079 -0.89409,1.425962 -1.39265,2.481962 -0.84651,1.792989 -0.91492,2.243754 -1.03418,6.814093 -0.13165,5.045152 0.32542,8.510537 1.39226,10.555526 0.24973,0.478711 0.45494,1.280618 0.45603,1.782019 0.003,1.45706 0.86452,2.881015 2.32563,3.844564 1.2327,0.812921 1.53651,0.876972 3.33282,0.702627 1.08707,-0.105511 2.45507,-0.388931 3.04,-0.629827 z"
       id="path384" />
    <path
       style="display:inline;fill:#00ff00;stroke-width:0.32"
       d="m 69.155555,113.72253 c 1.476445,-0.43172 3.440365,-0.99405 4.364266,-1.24963 0.923901,-0.25557 2.651901,-0.95187 3.84,-1.54732 2.290093,-1.14776 5.066752,-2.06926 7.440179,-2.46921 0.792,-0.13346 2.497594,-0.60906 3.790211,-1.05689 5.024333,-1.74067 11.593079,-3.19437 14.209789,-3.1447 3.73619,0.0709 3.27498,-0.65324 -1.04,-1.63299 -1.929482,-0.43811 -2.218941,-0.42813 -4,0.13785 -3.350736,1.0648 -8.21609,1.91217 -8.695347,1.51443 -0.617088,-0.51214 -0.52049,-0.91407 0.219689,-0.91407 0.672788,0 0.908519,-0.0929 3.080624,-1.21459 0.72873,-0.37631 2.45673,-1.13273 3.84,-1.68094 1.383268,-0.548204 2.947034,-1.261609 3.475034,-1.58534 0.79615,-0.488141 2.74851,-1.149264 8.20729,-2.77922 0.29,-0.08659 0.8287,0.0039 1.19711,0.201034 0.52131,0.278998 0.88772,0.245795 1.65261,-0.149741 1.19698,-0.618982 1.17925,-1.623817 -0.027,-1.529299 -5.306,0.41576 -8.46539,0.79873 -9.01473,1.092733 -0.73195,0.391728 -5.517849,2.153145 -9.055283,3.332739 -3.697645,1.233014 -7.825747,2.990534 -8.905174,3.791324 -2.076144,1.54023 -7.419021,3.88523 -11.734826,5.15045 -0.792,0.23217 -2.002179,0.6648 -2.689289,0.96138 -1.223962,0.52831 -11.670269,1.32971 -18.716871,1.43589 -1.477385,0.0223 -2.968848,0.19176 -3.314355,0.37667 -0.640186,0.34262 -1.072234,0.12883 -1.256627,-0.6218 -0.197242,-0.80294 2.338598,-1.33318 7.257142,-1.51746 5.02817,-0.18839 9.811434,-0.85161 11.639079,-1.61381 0.593494,-0.24751 1.505504,-0.45002 2.026684,-0.45002 1.167418,0 5.269402,-1.04151 7.54344,-1.91531 1.552042,-0.59637 1.705824,-0.60575 1.89394,-0.11553 0.181907,0.47404 0.230265,0.46454 0.433619,-0.0852 0.134544,-0.3637 1.640483,-1.33606 3.653776,-2.35917 1.883693,-0.95725 4.213203,-2.430285 5.176685,-3.273405 0.963481,-0.84312 2.643008,-1.975059 3.732281,-2.515418 2.446691,-1.213734 3.779367,-2.205747 5.753696,-4.282921 1.795344,-1.888868 2.328067,-2.788135 2.641536,-4.459072 0.206816,-1.102426 0.16984,-1.204938 -0.372566,-1.032925 -0.558995,0.177273 -0.607213,-0.03726 -0.672512,-2.992221 -0.07553,-3.417981 -0.574023,-5.171779 -1.630743,-5.737318 -5.0623,-2.709268 -17.261177,-4.49457 -24.378902,-3.56785 -5.251037,0.683677 -12.95679,2.951734 -17.073693,5.025344 -1.206531,0.607709 -2.430531,1.047952 -2.72,0.978317 -0.383942,-0.09236 -0.280819,-0.227485 0.381232,-0.499527 0.922634,-0.379116 3.412461,-2.753737 3.412461,-3.25456 0,-0.582873 11.17039,-3.447094 11.836954,-3.035139 0.139427,0.08617 1.673152,-0.05915 3.408275,-0.322941 3.947939,-0.600198 11.891478,-0.6552 13.445945,-0.0931 1.078365,0.389939 1.254605,0.336713 4.463578,-1.348055 4.278694,-2.246387 6.292256,-3.831414 9.143907,-7.197856 C 98.692218,62.500493 99.523158,61.76 100.0666,61.76 c 0.4864,0 0.87432,-0.279178 1.11162,-0.8 0.36495,-0.800976 0.74048,-1.010221 1.00503,-0.56 0.48334,0.822576 -1.71081,5.966474 -2.936959,6.885347 -0.289645,0.217059 -0.938035,0.945344 -1.440867,1.618413 -0.980954,1.313062 -4.141078,2.964493 -7.644979,3.995146 -1.011757,0.297603 -1.839757,0.631036 -1.84,0.740966 -2.47e-4,0.10993 1.043555,0.519949 2.319555,0.911155 1.276,0.391207 2.752,0.863543 3.28,1.049635 1.104083,0.389136 3.68,2.731236 3.68,3.345965 0,0.227354 0.123168,0.413373 0.273709,0.413373 0.150541,0 0.404694,0.456717 0.564787,1.014928 0.365926,1.275917 0.989152,1.509638 1.368058,0.513043 0.159769,-0.420227 0.641406,-1.187929 1.070296,-1.706009 1.11033,-1.341226 3.44567,-5.372589 3.42974,-5.920576 -0.007,-0.253764 -0.25938,-0.02038 -0.56,0.518595 -1.58443,2.84072 -2.58543,3.220489 -1.18042,0.447837 0.63786,-1.258743 0.75083,-1.736624 0.45392,-1.920122 -0.30235,-0.186861 -0.196,-0.883478 0.45231,-2.962842 0.87459,-2.805116 1.06961,-4.529875 0.54859,-4.851884 -0.47305,-0.292362 -1.34455,-3.643773 -1.23783,-4.760125 0.0797,-0.833328 -0.0266,-1.030429 -0.59992,-1.112055 -1.21731,-0.173334 -1.53422,-0.936259 -1.53888,-3.704713 -0.004,-2.29456 0.10418,-2.781907 0.93015,-4.196077 0.51397,-0.88 1.62936,-2.32 2.47863,-3.2 2.33901,-2.423645 4.05406,-6.360493 4.11245,-9.44 0.0308,-1.623818 0.79956,-2.838234 3.63383,-5.740307 2.4903,-2.549887 3.46368,-3.070735 3.85123,-2.060782 0.19129,0.498492 -0.37109,1.24287 -3.52347,4.663739 -1.40388,1.523456 -1.64813,2.214275 -1.68647,4.77 -0.0173,1.155529 -0.11361,2.988902 -0.21394,4.074156 L 110.04434,45.76 h 1.78217 c 0.9802,0 2.03222,-0.137024 2.33783,-0.304499 0.30562,-0.167472 1.08982,-0.541107 1.74267,-0.830298 0.65286,-0.28919 1.81677,-1.268166 2.58647,-2.175501 1.36625,-1.610556 4.48139,-5.967619 5.2532,-7.347484 0.21267,-0.380224 0.59188,-0.84137 0.84269,-1.024768 0.25082,-0.183399 0.9645,-1.561802 1.58597,-3.063116 0.62147,-1.501315 1.44804,-3.339933 1.83682,-4.085819 0.38877,-0.745886 0.62446,-1.438563 0.52374,-1.539284 -0.2345,-0.234495 -1.91123,2.396335 -3.03037,4.754704 -0.47604,1.003164 -1.02264,1.831164 -1.21467,1.84 -0.19203,0.0088 -0.75985,0.770657 -1.26181,1.692939 -1.07446,1.974137 -1.59483,2.751625 -4.12618,6.164976 -2.25485,3.040512 -2.94317,3.661564 -4.06863,3.671033 -1.65464,0.01392 -1.29609,-0.857392 1.20372,-2.925158 2.71986,-2.249802 5.88204,-6.314567 5.88204,-7.560979 0,-0.447181 0.22344,-1.041138 0.49654,-1.319902 1.7628,-1.799399 2.79674,-3.2122 3.80898,-5.204695 0.63395,-1.24786 1.4114,-2.645331 1.72768,-3.105493 0.66957,-0.974164 1.20247,-2.329711 1.4918,-3.79475 0.11276,-0.570951 0.37878,-1.146951 0.59117,-1.28 0.46112,-0.288871 1.50826,-4.205178 1.59847,-5.978334 0.0352,-0.691035 0.23975,-1.315035 0.45464,-1.386667 0.4629,-0.154298 0.51116,-1.1399773 0.0941,-1.9212471 C 132.02021,8.7300461 131.80873,8.228 131.7134,7.92 c -0.24078,-0.7779965 -1.2335,-0.6995258 -2.02412,0.16 -0.63774,0.693313 -2.7418,4.606842 -3.0968,5.76 -0.25627,0.83245 -1.23879,0.678936 -2.22185,-0.347152 -0.96245,-1.004582 -0.90625,-1.492871 0.35873,-3.116624 2.1767,-2.7940608 2.93674,-4.0384829 2.86718,-4.6944598 -0.0715,-0.6738528 0.0269,-0.7143229 1.48218,-0.6096656 1.16887,0.084061 1.49815,0.014083 1.31653,-0.2797792 -0.31799,-0.5145156 -3.70499,-2.0395646 -6.7037,-3.0184423 -2.58806,-0.84482936 -2.02167,-0.86399547 -8.97155,0.3035852 -1.584,0.266112 -3.528,0.4844341 -4.32,0.4851603 -0.792,7.264e-4 -1.87077,0.2259351 -2.39728,0.5004644 -0.60986,0.3179917 -1.33408,0.4284554 -1.99551,0.3043696 -0.57103,-0.1071257 -1.31269,-0.047896 -1.64812,0.1316224 -0.44612,0.2387581 -0.88148,0.190905 -1.62141,-0.1782204 C 102.18134,3.043319 100.83377,2.7394419 99.743078,2.645576 98.652384,2.5517101 97.583056,2.33496 97.36679,2.1639092 96.567901,1.5320399 93.836598,2.5427584 91.844246,4.207529 89.435142,6.2205277 88.464093,7.7133866 88.96049,8.6409133 c 0.323913,0.60524 0.539299,0.6467056 2.338144,0.4501382 1.08975,-0.1190816 2.370214,-0.4132832 2.845475,-0.6537817 C 94.61937,8.1967715 95.217069,8 95.472333,8 c 0.255264,0 1.234416,-0.3585933 2.175891,-0.7968739 0.941478,-0.4382807 2.025312,-0.7982807 2.408526,-0.8 C 100.43996,6.4013981 101.72043,5.896 102.90224,5.28 104.8993,4.2390624 105.92,3.9181674 105.92,4.3312586 c 0,0.6117286 -1.26265,1.8584531 -2.70874,2.6745766 -0.9325,0.5262733 -1.98418,1.3239059 -2.33706,1.7725174 -0.67762,0.8614528 -2.909035,1.7820584 -5.8342,2.4069894 -0.968,0.206804 -2.264,0.577453 -2.88,0.823666 -4.616346,1.845135 -7.803626,3.324929 -11.649082,5.408448 -2.446995,1.325814 -4.750995,2.50039 -5.12,2.610169 -0.369004,0.109779 -1.949497,0.768749 -3.512204,1.464379 -1.562708,0.695631 -3.029405,1.192595 -3.259325,1.104366 -0.229923,-0.08823 -0.465344,-0.0185 -0.523162,0.154953 -0.05782,0.173452 -1.615123,0.961388 -3.460675,1.750967 C 62.789997,25.291869 60.704,26.211163 60,26.545165 c -7.585395,3.598776 -9.401853,4.423527 -10.14615,4.6068 -1.626727,0.400557 -3.169335,1.512115 -2.97002,2.140105 0.199146,0.627447 0.190628,0.63666 -2.43064,2.629495 -1.713276,1.302534 -4.745398,4.380963 -5.714643,5.801923 C 38.484749,42.095571 38.187248,42.472 38.07743,42.56 c -0.109817,0.088 -0.682531,0.88 -1.272691,1.76 -0.590163,0.88 -1.741725,2.464 -2.559027,3.52 -0.817306,1.056 -2.329647,3.432 -3.360762,5.28 -1.031116,1.848 -2.193336,3.792 -2.582712,4.32 -0.389376,0.528 -0.807591,1.287837 -0.929367,1.688525 -0.121776,0.400688 -0.570489,0.957251 -0.997141,1.236803 C 25.933094,60.655354 25.6,61.184493 25.6,61.597622 c 0,0.398208 -0.216,0.903277 -0.48,1.122378 -0.264,0.219101 -0.48,0.528829 -0.48,0.688288 0,0.159456 -0.50239,1.348608 -1.116423,2.64256 -0.770954,1.62463 -1.34033,2.419043 -1.84,2.567235 L 20.96,68.832678 l 0.72,0.293351 c 0.764817,0.311606 0.931765,0.785321 0.393915,1.117731 -0.394888,0.244054 -2.008592,3.36823 -1.831325,3.545498 0.175583,0.175584 3.442612,-4.160042 4.328352,-5.744093 0.402019,-0.718967 0.999177,-1.599251 1.327018,-1.956189 0.327841,-0.356938 1.676179,-2.272586 2.996306,-4.256995 3.366089,-5.059895 6.354169,-8.537091 13.144828,-15.296496 1.9585,-1.949482 4.227754,-4.25361 5.042788,-5.120285 2.601337,-2.766157 6.755088,-4.730851 12.088793,-5.717923 3.820205,-0.706976 4.392535,-0.918464 9.961203,-3.68088 3.249466,-1.611945 6.196122,-3.09263 6.548122,-3.290411 1.071053,-0.601802 5.998576,-3.478555 7.36,-4.296862 1.950909,-1.17263 8.265578,-4.269124 8.706006,-4.269124 0.509117,0 2.683546,-2.208346 3.282519,-3.333723 0.257689,-0.484158 0.905689,-1.182653 1.44,-1.552212 0.53431,-0.36956 1.495142,-1.134278 2.135184,-1.699375 C 100.24221,12.128042 106.90079,8.2648147 109.76,7.101943 117.45904,3.9706643 122.57446,2.5066235 122.555,3.44 c -0.003,0.132 -1.3015,0.7132976 -2.88609,1.2917728 -6.0363,2.2036218 -18.96423,9.0951112 -19.46156,10.3743682 -0.220627,0.567503 -1.369206,1.449706 -3.493011,2.682917 -1.184886,0.688018 -2.442339,1.554021 -2.794339,1.924451 -0.352,0.370431 -1.827523,1.28311 -3.278938,2.028176 -1.451414,0.745067 -2.891414,1.672225 -3.2,2.060351 C 87.132477,24.190163 86.16,24.99035 85.28,25.580229 c -3.715504,2.490568 -5.92,4.322619 -5.92,4.919827 0,0.457184 -0.164026,0.571694 -0.640442,0.447109 -0.352243,-0.09211 -0.559744,-0.03691 -0.461113,0.122678 0.09863,0.159586 -0.107469,0.290157 -0.457997,0.290157 -0.355648,0 -0.726829,0.28202 -0.839846,0.638106 -0.23608,0.743817 -0.322378,0.8336 -3.231444,3.361894 -3.142732,2.731379 -4.871321,4.583597 -5.823504,6.24 -2.130822,3.706755 -6.047692,8.64 -6.859942,8.64 -0.585142,0 -7.812006,7.146922 -10.325712,10.211491 -1.056,1.287418 -4.226106,4.664503 -7.044678,7.504634 C 40.856746,70.796256 37.637654,74.344 36.521779,75.84 33.575014,79.790589 28.916628,84.955053 26.983272,86.414749 26.061576,87.110637 25.229282,87.68 25.13373,87.68 c -0.27029,0 -0.204366,-1.599053 0.06627,-1.607424 0.756679,-0.02342 5.037866,-5.078762 8.079219,-9.540186 0.439571,-0.644812 1.054227,-1.362416 1.365898,-1.594665 0.311673,-0.232253 0.944038,-1.168253 1.405257,-2.08 0.461216,-0.911751 1.38217,-2.477248 2.046557,-3.478887 0.664391,-1.001638 1.29328,-2.089907 1.397533,-2.418377 0.163638,-0.515578 5.936819,-6.303367 9.184221,-9.207459 0.594723,-0.53185 1.657315,-1.750663 2.361315,-2.708474 1.865398,-2.537926 5.473539,-6.260307 7.68,-7.923171 1.056,-0.795837 2.25713,-1.823712 2.669178,-2.284167 C 62.344838,43.769261 64,41.246195 64,40.85735 c 0,-0.517875 -1.983904,0.07543 -3.10079,0.927322 -0.590832,0.45065 -1.322858,0.771984 -1.626724,0.714077 C 58.629949,42.376301 58.345277,41.046723 58.852909,40.539091 59.043808,40.348192 59.2,39.934038 59.2,39.618749 c 0,-0.529133 -0.161069,-0.512624 -2.092925,0.214525 -3.558925,1.339577 -7.175821,3.384016 -8.092397,4.574204 -2.476217,3.215405 -6.296252,7.331242 -9.974678,10.747056 -2.280819,2.117984 -11.990184,12.48976 -12.41589,13.262948 -0.299261,0.543532 -0.908354,1.391952 -1.35354,1.885379 -1.399794,1.551475 -5.260793,6.889158 -6.551456,9.057139 -0.681057,1.144 -1.643472,2.716688 -2.1387,3.494861 C 16.085186,83.633037 15.68,84.54127 15.68,84.873158 c 0,1.437712 0.766602,3.448394 1.630199,4.275773 0.51139,0.489946 0.929801,1.012266 0.929801,1.160714 0,0.148451 0.518347,0.725024 1.151883,1.281273 1.088751,0.955936 1.115351,1.02488 0.485329,1.257943 -1.661931,0.614787 1.34777,3.698115 3.902227,3.997686 0.762602,0.08943 0.884311,9.6e-4 0.8,-0.580787 -0.05469,-0.37745 0.08056,-0.747654 0.300561,-0.822682 0.22,-0.07503 0.4,0.07866 0.4,0.34152 0,0.262861 0.552774,1.177242 1.228388,2.031959 0.987348,1.249088 1.573689,1.662873 2.988125,2.108736 2.315679,0.729947 3.762018,0.700967 6.663487,-0.133549 1.88201,-0.541296 3.02159,-1.152435 5.28,-2.831581 1.584,-1.177712 3.528,-2.534992 4.32,-3.016176 3.982714,-2.419712 5.137357,-3.104281 7.2,-4.268745 1.232,-0.695524 3.248,-1.654663 4.48,-2.131415 1.232,-0.476752 3.536,-1.415776 5.12,-2.086723 1.584,-0.670944 3.24,-1.310541 3.68,-1.421325 0.44,-0.110784 2.673066,-0.695235 4.962371,-1.298774 5.764736,-1.519789 14.486451,-2.368023 14.158656,-1.377005 -0.08733,0.264026 -1.211376,0.472074 -3.306669,0.612029 -3.349558,0.223728 -11.95158,1.812886 -14.752416,2.725395 -1.003257,0.326861 -1.716022,0.761862 -1.804838,1.101494 C 65.343482,86.386362 61.244314,87.842016 60,87.750995 58.709318,87.656579 53.452838,90.110938 49.56391,92.623814 48.733005,93.160717 47.028406,94.176 45.775914,94.88 c -1.99897,1.123581 -4.020487,2.72 -3.444288,2.72 0.11175,0 1.88422,-0.94063 3.938819,-2.090291 2.054601,-1.149661 3.796381,-2.029549 3.870624,-1.955306 0.07425,0.07424 -1.421123,1.07345 -3.32304,2.220461 C 44.916112,96.921872 42.928,98.21607 42.4,98.650854 c -0.528,0.434788 -1.960893,1.321194 -3.184205,1.969796 -3.650438,1.93547 -4.340777,3.77942 -3.019622,8.06564 0.895894,2.90655 2.322902,4.27109 5.31303,5.08048 1.779066,0.48157 2.473485,0.52397 4.078717,0.249 1.274989,-0.21839 2.643363,-0.22751 4.013341,-0.0268 2.761757,0.40473 12.812131,0.84746 15.074294,0.66404 0.987555,-0.0801 3.003555,-0.49882 4.48,-0.93054 z"
       id="path348" />
    <path
       style="fill:#00ff00;stroke-width:0.32"
       d="m 88.258198,8.7915325 c -0.09852,-0.098524 -0.277456,0.079076 -0.397625,0.3946665 -0.173658,0.4560634 -0.136903,0.4928199 0.179136,0.1791344 0.218694,-0.2170668 0.317014,-0.4752771 0.218489,-0.5738009 z"
       id="path412" />
    <path
       style="fill:#00ff00;stroke-width:0.32"
       d="m 55.68,27.68 c 0.512778,-0.29313 0.620902,-0.461392 0.301162,-0.468661 -0.274362,-0.0062 -0.778362,0.200081 -1.12,0.458484 -0.795488,0.601676 -0.228215,0.608726 0.818838,0.01018 z"
       id="path410" />
    <path
       style="fill:#00ff00;stroke-width:0.32"
       d="m 69.44,37.581114 c 0,-0.274388 -0.144,-0.409888 -0.32,-0.301114 -0.176,0.108774 -0.32,0.333274 -0.32,0.498886 0,0.165613 0.144,0.301114 0.32,0.301114 0.176,0 0.32,-0.224499 0.32,-0.498886 z"
       id="path408" />
    <path
       style="fill:#00ff00;stroke-width:0.32"
       d="m 116.91902,46.159245 c 0.2505,-0.484416 0.7582,-1.154733 1.12822,-1.489597 0.37002,-0.334861 0.67276,-0.833779 0.67276,-1.108704 0,-0.323251 -0.25439,-0.168346 -0.72,0.438422 -0.396,0.516058 -1.116,1.299383 -1.6,1.74072 -0.98379,0.897072 -1.11029,1.299914 -0.40822,1.299914 0.25948,0 0.67674,-0.396339 0.92724,-0.880755 z"
       id="path406" />
    <path
       style="fill:#00ff00;stroke-width:0.32"
       d="M 23.04608,49.432675 C 23.384251,49.025203 23.364453,48.978378 22.925262,49.146912 22.636368,49.25777 22.4,49.477066 22.4,49.634237 c 0,0.411507 0.185239,0.353715 0.64608,-0.201562 z"
       id="path404" />
    <path
       style="fill:#00ff00;stroke-width:0.32"
       d="m 27.2,55.68 c 0,-0.176 -0.144,-0.32 -0.32,-0.32 -0.176,0 -0.32,0.144 -0.32,0.32 0,0.176 0.144,0.32 0.32,0.32 0.176,0 0.32,-0.144 0.32,-0.32 z"
       id="path402" />
    <path
       style="fill:#00ff00;stroke-width:0.32"
       d="m 104.56721,57.6 c 0.18412,-0.968 0.29202,-1.803805 0.23977,-1.857344 -0.16254,-0.166554 -1.12698,2.895686 -1.12698,3.578349 0,1.152589 0.53977,0.105536 0.88721,-1.721005 z"
       id="path400" />
    <path
       style="fill:#00ff00;stroke-width:0.32"
       d="m 12.1502,63.84 c 0,-0.176 -0.13959,-0.104 -0.3102,0.16 -0.17061,0.264 -0.3102,0.624 -0.3102,0.8 0,0.176 0.13959,0.104 0.3102,-0.16 0.17061,-0.264 0.3102,-0.624 0.3102,-0.8 z"
       id="path398" />
    <path
       style="fill:#00ff00;stroke-width:0.32"
       d="m 11.305458,65.844986 c 0.176274,-0.699444 0.166361,-0.703101 -0.281374,-0.103824 -0.513973,0.687936 -0.620648,1.273372 -0.18271,1.00271 0.154756,-0.09564 0.363593,-0.500144 0.464084,-0.898886 z"
       id="path396" />
    <path
       style="fill:#00ff00;stroke-width:0.32"
       d="m 104.29261,69.92 c 0.01,-0.176 -0.122,-0.104 -0.29261,0.16 -0.17061,0.264 -0.30228,0.696 -0.29261,0.96 0.0186,0.506832 0.5519,-0.51385 0.58522,-1.12 z"
       id="path394" />
    <path
       style="fill:#00ff00;stroke-width:0.32"
       d="m 57.157328,77.138301 c 1.754109,-0.697863 6.256909,-2.036349 8.442672,-2.509635 1.257344,-0.272256 1.313286,-0.316682 0.44103,-0.350237 -1.907363,-0.07337 -10.376339,2.409686 -10.853833,3.182288 -0.278282,0.450265 0.241952,0.365129 1.970131,-0.322416 z"
       id="path392" />
    <path
       style="fill:#00ff00;stroke-width:0.32"
       d="m 8.7928474,75.185971 c 0.3077193,-1.503715 0.4988716,-3.015715 0.4247827,-3.36 C 9.0777616,71.176019 7.68,76.650416 7.68,77.84817 c 0,1.368867 0.564071,0.01949 1.1128474,-2.662199 z"
       id="path390" />
    <path
       style="fill:#000000;stroke-width:0.32"
       d="m 113.6,79.36 c 0,-0.176 0.144,-0.32 0.32,-0.32 0.176,0 0.32,0.144 0.32,0.32 0,0.176 -0.144,0.32 -0.32,0.32 -0.176,0 -0.32,-0.144 -0.32,-0.32 z"
       id="path388" />
    <path
       style="fill:#00ff00;stroke-width:0.32"
       d="M 7.2145456,94.574544 C 7.9512685,93.837821 8.3001808,92.48 7.7527693,92.48 7.6167923,92.48 7.2341165,92.984 6.9023786,93.6 6.5706406,94.216 6.1778947,94.72 6.0296093,94.72 5.8813242,94.72 5.76,94.864 5.76,95.04 c 0,0.554093 0.6397046,0.349386 1.4545456,-0.465456 z"
       id="path382" />
    <path
       style="fill:#00ff00;stroke-width:0.32"
       d="m 18.011624,94.929366 c -0.207184,-0.335232 -0.71987,0.406788 -0.726724,1.051796 -0.0035,0.32575 0.127711,0.279804 0.446724,-0.156471 0.248393,-0.339699 0.374393,-0.742595 0.28,-0.895325 z"
       id="path378" />
    <path
       style="fill:#00ff00;stroke-width:0.32"
       d="m 88.13664,98.39313 c 0.339152,-0.256586 0.533174,-0.549981 0.431162,-0.651997 C 88.347216,97.52055 87.04,98.28705 87.04,98.636976 c 0,0.366909 0.409782,0.275792 1.09664,-0.243846 z"
       id="path374" />
    <path
       style="display:inline;fill:#000000;stroke-width:0.32"
       d="m 104.78432,24.614634 c -0.29461,-0.476697 0.1439,-4.284108 0.66282,-5.754859 0.2345,-0.664651 0.35187,-1.493303 0.26083,-1.84145 -0.28545,-1.091563 2.63188,-4.858325 3.76274,-4.858325 0.29745,0 0.61177,-0.184898 0.69849,-0.410884 0.34567,-0.900812 5.42782,-2.7934574 7.48005,-2.7856523 0.9912,0.00377 3.52388,0.7055635 4.57347,1.2672893 0.80261,0.429545 0.86778,1.290675 0.0973,1.285449 -0.308,-0.0021 -1.352,-0.21638 -2.32,-0.476202 -2.44621,-0.656591 -3.64792,-0.59786 -5.25329,0.256748 -3.90635,2.079508 -5.91671,5.315778 -5.93889,9.560395 -0.005,0.901086 -0.2007,1.690021 -0.49228,1.981603 -0.43262,0.432614 -0.42732,0.516436 0.0494,0.783244 0.3222,0.180315 0.45483,0.504813 0.3345,0.818397 -0.15038,0.391891 -0.62983,0.519613 -1.95055,0.519613 -0.96314,0 -1.84721,-0.155415 -1.96461,-0.345366 z"
       id="path370" />
    <path
       style="fill:#00ff00;stroke-width:0.32"
       d="m 105.8186,22.66 c -0.10216,-0.255275 -0.17798,-0.179448 -0.19334,0.193333 -0.0139,0.337334 0.0617,0.526334 0.16807,0.42 0.10634,-0.106333 0.1177,-0.382333 0.0252,-0.613333 z"
       id="path372" />
    <path
       style="display:inline;fill:#000000;stroke-width:0.32"
       d="M 80.56,44.452045 C 80.252,43.910893 80,43.25809 80,43.00137 c 0,-0.25672 0.927142,-1.057847 2.06032,-1.780279 1.244618,-0.793478 2.207123,-1.667929 2.43112,-2.20871 0.257658,-0.622042 0.67865,-0.957114 1.379683,-1.098109 0.554883,-0.111597 1.98096,-0.855338 3.169059,-1.652755 1.234087,-0.828279 2.365888,-1.370912 2.64,-1.265725 C 91.974602,35.108771 92.16,34.995152 92.16,34.702035 92.16,34.137094 93.419232,33.6 94.74375,33.6 c 0.66656,0 1.739373,-0.608326 3.668176,-2.08 1.499348,-1.144 2.918614,-2.08 3.153924,-2.08 0.23531,0 0.79447,-0.288389 1.24257,-0.640865 0.4481,-0.352476 1.03226,-0.557387 1.29815,-0.455359 0.59059,0.226632 1.75994,-0.366811 2.4835,-1.26038 0.45807,-0.565684 0.61217,-0.599898 1.05325,-0.233835 0.72568,0.602253 0.64267,1.475359 -0.22251,2.340536 -0.75638,0.756379 -4.12835,2.209106 -6.51381,2.806313 -0.95812,0.239865 -2.011387,0.967248 -3.745115,2.586358 -1.85849,1.735626 -2.690935,2.294422 -3.626992,2.434707 -0.832416,0.124749 -1.66824,0.607143 -2.654893,1.532259 -0.792,0.742602 -1.977891,1.594461 -2.635318,1.893018 -0.657424,0.298557 -1.863824,1.121421 -2.68089,1.828586 -0.817062,0.707164 -1.649242,1.222947 -1.849283,1.146185 -0.200042,-0.07677 -0.721639,0.342928 -1.159111,0.932643 -0.986323,1.329584 -1.287875,1.344983 -1.995398,0.101879 z"
       id="path362" />
    <path
       style="display:inline;fill:#000000;stroke-width:0.32"
       d="m 30.410177,89.36 c 0.0174,-0.410275 0.73796,-1.161219 2.069823,-2.157098 1.550982,-1.159721 4.801274,-4.143145 8.527104,-7.826985 3.250698,-3.214061 4.933136,-4.670285 7.520118,-6.508995 1.042282,-0.740807 2.724362,-2.174922 3.737962,-3.186922 1.0136,-1.012 1.97552,-1.84 2.137603,-1.84 0.162083,0 0.447095,-0.284758 0.63336,-0.632797 0.286746,-0.535795 0.25168,-0.60415 -0.228742,-0.445913 -0.312074,0.102787 -0.08251,-0.212116 0.510141,-0.69978 1.000515,-0.82328 8.596099,-8.5223 14.133196,-14.325664 2.353834,-2.467024 6.359546,-5.961481 8.058,-7.029542 1.53482,-0.965162 1.851258,-0.753936 1.851258,1.235728 0,1.733763 -0.05065,1.835613 -1.869997,3.76 -2.07216,2.191802 -5.203094,5.674938 -8.370003,9.311546 -1.144,1.31367 -2.944,3.133427 -4,4.043904 -1.056,0.910473 -4.224,3.863964 -7.04,6.563315 -2.816,2.699347 -5.583792,5.238947 -6.150646,5.643555 -2.170231,1.549056 -5.013693,3.668202 -6.644676,4.95207 -0.933756,0.735034 -2.3219,1.654842 -3.084758,2.044026 -1.429965,0.729514 -3.041632,1.899053 -5.200438,3.773808 -0.682285,0.592509 -2.158132,1.506694 -3.279658,2.03152 -1.121526,0.524826 -2.11979,1.084726 -2.218366,1.244224 -0.215674,0.34897 -1.105688,0.389747 -1.091281,0.05 z"
       id="path356" />
    <path
       style="fill:#00ff00;stroke-width:0.32"
       d="m 57.123731,67.646531 c 0.778579,-0.114272 0.965706,-0.405094 0.536701,-0.834099 -0.289203,-0.289203 -0.52623,-0.216614 -1.018666,0.311952 -0.352972,0.37887 -0.639561,0.874877 -0.636867,1.102237 0.0036,0.30632 0.07988,0.294896 0.29441,-0.0441 0.159232,-0.251612 0.530221,-0.492806 0.824422,-0.535987 z"
       id="path360" />
    <path
       style="fill:#00ff00;stroke-width:0.32"
       d="m 53.28,72.64 c 0.108774,-0.176 0.04527,-0.32 -0.141114,-0.32 -0.186387,0 -0.338886,0.144 -0.338886,0.32 0,0.176 0.0635,0.32 0.141114,0.32 0.07761,0 0.230112,-0.144 0.338886,-0.32 z"
       id="path358" />
    <path
       style="fill:#000000;stroke-width:0.32"
       d="m 52.48,91.821904 c 1.979661,-1.340886 3.865398,-2.303171 4.084342,-2.084227 0.100279,0.100278 0.05032,0.183293 -0.111008,0.18448 -0.161334,0.0013 -1.296979,0.649184 -2.523654,1.44 -2.485523,1.602368 -3.709898,1.990662 -1.44968,0.459747 z"
       id="path354" />
    <path
       style="fill:#000000;stroke-width:0.32"
       d="m 90.24,100.66469 c 0.891587,-0.53719 1.592787,-0.67734 1.104,-0.22065 -0.1672,0.15621 -0.664,0.37822 -1.104,0.49334 l -0.8,0.20932 z"
       id="path352" />
    <path
       style="fill:#000000;stroke-width:0.32"
       d="m 84.8,103.40444 c 0,-0.31792 2.499875,-1.49123 2.716243,-1.27487 0.08234,0.0824 -0.495126,0.46301 -1.283264,0.84592 C 85.444842,103.35839 84.8,103.55142 84.8,103.40444 Z"
       id="path350" />
    <g
       id="layer3"
       inkscape:label="Eye"
       transform="translate(0.09893427,0.0528601)">
      <path
         style="fill:#000000;stroke-width:0.32"
         d="m 115.57636,27.011459 c -0.39932,-0.279698 -0.93536,-0.428217 -1.1912,-0.330043 -1.07371,0.412021 -1.31101,-0.08609 -1.24503,-2.613452 0.0748,-2.86655 0.62689,-5.560946 1.39978,-6.831862 1.08548,-1.784921 4.26001,-3.796102 5.99192,-3.796102 1.01177,0 2.95213,1.007648 3.90357,2.027167 0.65643,0.703396 0.75805,1.139016 0.77557,3.324833 0.0163,2.036793 -0.12501,2.806047 -0.7428,4.043056 -0.82863,1.659178 -3.02511,3.877125 -4.33146,4.373798 -1.26386,0.480521 -3.74587,0.373087 -4.56035,-0.197395 z"
         id="path364"
         transform="translate(-0.09893427,-0.0528601)" />
      <path
         style="fill:#ffff00;stroke-width:0.32"
         d="m 121.06786,25.458078 c 1.37365,-1.047735 2.35433,-2.63374 2.76692,-4.474776 0.24738,-1.103875 0.1853,-1.695152 -0.32442,-3.089693 -0.3467,-0.948516 -0.63036,-1.769955 -0.63036,-1.82542 0,-0.05547 -0.50926,-0.313631 -1.1317,-0.573701 -1.52115,-0.635576 -3.29472,-0.150328 -4.96461,1.358312 -1.3486,1.218382 -2.22369,3.394711 -2.22369,5.530273 0,1.422766 0.93787,3.241855 1.9541,3.790176 1.14314,0.616796 3.239,0.28764 4.55376,-0.715171 z"
         id="path366"
         transform="translate(-0.09893427,-0.0528601)" />
      <path
         style="fill:#000000;stroke-width:0.32"
         d="m 116.90303,23.258304 c -0.80203,-1.019617 -0.63943,-2.46345 0.38591,-3.426706 0.83423,-0.783715 1.55926,-0.579654 1.26251,0.355332 -0.10702,0.337189 -0.0585,0.61307 0.1078,0.61307 0.52928,0 1.09962,-0.93291 0.89551,-1.464797 -0.10826,-0.282121 0.0545,-0.938476 0.36176,-1.458566 0.45121,-0.763839 0.7436,-0.927454 1.52104,-0.851128 0.81631,0.08014 1.00705,0.275073 1.25628,1.283855 0.62725,2.538916 -1.27836,5.24168 -3.94817,5.599777 -1.01255,0.135812 -1.30515,0.03246 -1.84264,-0.650837 z"
         id="path368"
         transform="translate(-0.09893427,-0.0528601)" />
    </g>
  </g>
</svg>
