<?xml version="1.0"?>
<svg xmlns:rdf="http://www.w3.org/1999/02/22-rdf-syntax-ns#" xmlns="http://www.w3.org/2000/svg" xmlns:cc="http://creativecommons.org/ns#" xmlns:dc="http://purl.org/dc/elements/1.1/" xmlns:svg="http://www.w3.org/2000/svg" id="svg2" viewBox="0 0 524.9 274.69" version="1.1">
  <path id="path2848" d="m1.4389 10.358-0.9389 24.881c112.26 93.335 376.72 214.62 477.9 238.95l4.69-19.72-481.65-244.11z" stroke="#000" stroke-width="1px" fill="#800000"/>
  <path id="path2846" d="m1.4389 9.889c140.28 114.41 391.7 215.33 482.12 244.11l40.373-67.131c-162.66-76.51-343.27-143.13-510.28-186.37-5.9518 1.8778-10.02 5.0075-12.211 9.389z" stroke="#000" stroke-width="1px" fill="#f00"/>
  <path id="path2844" d="m231.52 111.47c43.91 11.651 82.222 6.9149 116.85-5.3112v21.079c-1.6976 27.253-83.226 50.03-116.51 3.9834l-0.33194-19.751z" stroke="#000" stroke-width="1px" fill="#ffd42a"/>
  <path id="path2842" d="m229.36 100.85 120.83-0.33195c-3.0939 47.801-118.51 50.559-120.83 0.33195z" stroke="#000" stroke-width="1px" fill="#d4aa00"/>
  <path id="path2838" d="m229.19 100.18c31.733 44.043 102.09 32.318 119.17 2.6556l-119.17-2.6556z" stroke="#000" stroke-width="1px" fill="#ffd42a"/>
  <path id="path2824" d="m206.8 57.802c19.52-51.65 136.27-50.96 166.05-3.255 1.2233 4.6097 2.1986 8.5152 1.5834 13.125-10.072 61.416-147.71 68.271-168.93 2.8008-0.51337-3.9108-0.0606-8.9953 1.289-12.671z" stroke="#000" stroke-width="1px" fill="#fd5"/>
  <path id="path2820" d="m230.26 38.141c61.731-37.985 137.94-3.279 133.85 29.255-1.4252 8.2798-6.3874 15.694-7.8842 16.816-15.672 25.156-160.24 27.858-137.94-31.418 3.6659-7.5819 6.6105-9.7906 11.977-14.653z" stroke="#000" stroke-width="1px" fill="#ffd42a"/>
  <path id="path2826" d="m226.69 69.598c-0.71 36.722 122.54 43.712 126.39 1.575-7.91-44.767-115.99-50.428-126.39-1.575z" stroke="#000" stroke-width="1px" fill="#806600"/>
  <path id="path2830" d="m232.93 82.615c9.6584-53.181 115.44-31.487 113.84 0.12727-9.9278 18.574-89.898 28.111-113.84-0.12727z" stroke="#000" stroke-width="1px" fill="#d4aa00"/>
  <path id="path2832" d="m239.47 87.926c21.41 17.755 76.035 18.712 99.255 1.4004-16.869-28.03-88.513-23.485-99.255-1.4004z" stroke="#000" stroke-width="1px" fill="#540"/>
  <path id="path2834" d="m245.07 91.252c12.153-23.339 78.678-18.282 88.401 0.7002-7.9844 10.16-67.455 16.539-88.401-0.7002z" stroke="#000" stroke-width="1px" fill="#d4aa00"/>
  <path id="path2836" d="m259.43 97.841c14.575-13.969 48.907-11.57 64.419-1.2072-18.98 6.429-39.41 9.6207-64.419 1.2072z" stroke="#000" stroke-width="1px" fill="#2b0000"/>
  <path id="path2850" d="m519.24 207.06 5.1639-19.247-40.842 66.192-5.1639 19.717 40.842-66.662z" stroke="#000" stroke-width="1px" fill="#500"/>
  <metadata>
    <rdf:RDF>
      <cc:Work>
        <dc:format>image/svg+xml</dc:format>
        <dc:type rdf:resource="http://purl.org/dc/dcmitype/StillImage"/>
        <cc:license rdf:resource="http://creativecommons.org/licenses/publicdomain/"/>
        <dc:publisher>
          <cc:Agent rdf:about="http://openclipart.org/">
            <dc:title>Openclipart</dc:title>
          </cc:Agent>
        </dc:publisher>
        <dc:title>Kazoo</dc:title>
        <dc:date>2010-06-06T16:23:08</dc:date>
        <dc:description>A red and yellow kazoo</dc:description>
        <dc:source>http://openclipart.org/detail/64663/kazoo-by-deluge</dc:source>
        <dc:creator>
          <cc:Agent>
            <dc:title>Deluge</dc:title>
          </cc:Agent>
        </dc:creator>
        <dc:subject>
          <rdf:Bag>
            <rdf:li>clip art</rdf:li>
            <rdf:li>clipart</rdf:li>
            <rdf:li>instrument</rdf:li>
            <rdf:li>music</rdf:li>
            <rdf:li>toy</rdf:li>
            <rdf:li>wind</rdf:li>
          </rdf:Bag>
        </dc:subject>
      </cc:Work>
      <cc:License rdf:about="http://creativecommons.org/licenses/publicdomain/">
        <cc:permits rdf:resource="http://creativecommons.org/ns#Reproduction"/>
        <cc:permits rdf:resource="http://creativecommons.org/ns#Distribution"/>
        <cc:permits rdf:resource="http://creativecommons.org/ns#DerivativeWorks"/>
      </cc:License>
    </rdf:RDF>
  </metadata>
</svg>
