<?xml version="1.0" encoding="utf-8"?>

<!DOCTYPE svg PUBLIC "-//W3C//DTD SVG 1.1//EN" "http://www.w3.org/Graphics/SVG/1.1/DTD/svg11.dtd">
<svg version="1.1" id="Layer_1" xmlns="http://www.w3.org/2000/svg" xmlns:xlink="http://www.w3.org/1999/xlink" x="0px" y="0px"
	 viewBox="-0.0469 -0.0469 1908.1467 1920.0938" enable-background="new -0.0469 -0.0469 1908.1467 1920.0938" xml:space="preserve"
	>
<rect y="-0.0469" fill="#663555" width="1908.0999" height="1920.0469"/>
<g>
	<path fill="#EFD168" stroke="#EFD168" stroke-width="0.3" d="M543.6,0h724.92c58.5,35.27,116.85,70.84,175.24,106.25
		c3.8,5.28,5.53,11.71,8.48,17.46c1.78,5.16,5.36,9.73,5.77,15.31c5.1799,42.85,10.29,85.72,15.4399,128.58
		c0.51,4.8,1.4401,9.56,1.6101,14.4c0.09,5.08,3.48,9.21,5.09,13.86c8.15,17.84,16.34,35.65,24.51,53.48
		c5.22,9.54,6.4199,20.49,9.15,30.85c3.3099,14.64,6.71,29.26,10.11,43.88c1.6,8.44,4.23,16.65,7.36,24.64
		c8.6599,23.99,17.45,47.93,26.11,71.92c1.73,5.71,5.3199,11.14,4.64,17.33c-0.1901,3.38-3.1,5.58-5.27,7.8
		c-4.33,3.72-7.21,8.75-11.5,12.5c-6.05,6.29-12.77,11.97-18.04,18.95c-5,5.32-10.45,10.2-15.35,15.6
		c-5.25,5.79-10.39,11.72-16.25,16.92c-2.84,2.39-6.9301,1.82-10.22,0.91c-21.09-7.09-42.4401-13.37-63.52-20.49
		c-13.9301-6.06-27.84-12.16-41.74-18.29c-2.8-1.39-6.4-2.03-8.12-4.87c-6.01-10.26-10.96-21.08-16.35-31.66
		c-2.89-6.29-6.77-12.05-9.67-18.32c-4.84-9.47-9.23-19.18-14.64-28.34c-3.66-7.35-7.5-14.62-10.95-22.05
		c-4.17-40.63-7.9301-81.33-12.02-121.99c-0.6901-4.18-0.37-8.42-0.39-12.63c0-17-0.01-34,0.01-51c-0.02-3.26,0.2-6.54-0.26-9.78
		c-2.08-10.73-4.3101-21.45-5.95-32.25c-3.89,2.73-6.2101,7.01-9.5,10.34c-10.76,12.89-21.8501,25.51-32.53,38.47
		c-2.37,3-6.39,3.41-9.86,4.21c-21.3401,4.65-42.7001,9.27-64.03,13.96c-67.6-6.41-135.26-12.6-202.88-18.94
		c-8.47-1.01-17.01-1.29-25.46-2.53c-61-16.59-121.94-33.47-182.93-50.11c-4.64-1.09-7.89-4.78-11.64-7.44
		c2.5,10.09,5.35,20.11,8.03,30.15c0.67,4.03-3.09,6.39-6.31,7.64c-29.81,13.46-59.46,27.26-89.24,40.78
		c-5.24,1.95-9.91,5.48-15.49,6.42c-7.32,0.39-14.65-0.26-21.96,0.22c-12.92,2.2-26.14-0.48-39.06,1.69
		c-7.96,0.58-15.97-0.22-23.94,0.31c-4.91,0.64-10.16,1.91-14.89-0.23c-13.23-5.83-26.56-11.42-39.83-17.15
		c-4.76-1.89-9.29-4.34-14.2-5.79c-0.33,4.8,0.39,9.67-0.66,14.43c-1.13,5.68,0.29,11.51-0.86,17.19
		c-1.37,6.2,0.25,12.61-1.14,18.81c-1.13,5.68,0.28,11.51-0.87,17.19c-1.36,6.2,0.26,12.61-1.13,18.81
		c-1.12,5.68,0.29,11.51-0.86,17.19c-1.36,6.2,0.24,12.6-1.13,18.81c-1.13,5.68,0.27,11.51-0.88,17.19
		c-1.23,6.08-0.11,12.3-0.65,18.43c-1.9,12.58-0.35,25.35-1,38c-1.67,10.24-0.63,20.65-0.88,30.98c0.52,6.39-1.37,12.63-1.06,19.01
		c0.23,11.3-0.25,22.62,0.21,33.91c1.78,7.72-0.06,15.69,1.44,23.44c1.13,6.64-0.43,13.44,0.93,20.06
		c1.23,6.66-0.33,13.48,0.95,20.14c1.34,6.9-0.34,13.97,1.05,20.86c1.08,5.81,0.02,11.73,0.58,17.58
		c0.84,10.05,5.27,19.27,8.08,28.85c1.35,5.17,4.81,10.29,3.52,15.8c-1.17,4.42-6.59,5.1-10.35,4
		c-15.65-4.38-31.31-8.7401-46.98-13.05c-6.54-1.56-11.11-6.86-16.53-10.45c-5.76-3.95-10.68-9.21-16.98-12.29
		c-2.87-3.45-6.9-5.58-10.22-8.54c-8.05-6.3-16.46-12.14-24.36-18.63c-1.17-0.96-1.93-2.37-2.18-3.84
		c-0.73-9.96,0.9-20.0699-0.96-29.94c-0.81-11.28,0.93-22.72-1.1-33.91c-0.57-10.99,0.95-22.11-1.01-33
		c-0.56-11.32,0.97-22.78-0.99-34c-0.58-11.32,0.96-22.78-1-34c-0.55-11.32,0.96-22.78-1.13-33.99c0.13-7.65,2.52-15.04,3.5-22.59
		c12.65-72.34,25.31-144.68,37.98-217.02c0.47-2.39,0.6-4.96,1.89-7.1c1.86-2.21,4.56-3.46,6.9-5.1
		c24.41-16.26,48.8-32.55,73.22-48.8c1.51-0.89,2.13-2.6,2.93-4.06c1.82-3.76,4.24-7.2,5.98-11.01c1.96-4.24,5.02-7.93,6.58-12.36
		c0.07-1.31-1.54-1.78-2.29-2.59c-11.49-8.45-22.33-17.75-33.81-26.21c-3.48-2.53-3.54-7.61-1.88-11.22
		c3.74-9.27,8.84-17.91,13.02-26.97c4.67-11.64,11.43-22.32,16.1-33.96c2.4-5.19,5.15-10.2,7.58-15.38c1.01-1.87,1.71-4.35,4.02-5
		C527.44,3.79,535.83,2.92,543.6,0z"/>
	<path fill="#E9CEE0" stroke="#E9CEE0" stroke-width="0.3" d="M762.97,226.93c3.75,2.66,7,6.35,11.64,7.44
		c60.99,16.64,121.93,33.52,182.93,50.11c8.45,1.24,16.9901,1.52,25.46,2.53c67.62,6.34,135.28,12.53,202.88,18.94
		c21.33-4.69,42.6899-9.31,64.03-13.96c3.47-0.8,7.49-1.21,9.86-4.21c10.6799-12.96,21.77-25.58,32.53-38.47
		c3.2899-3.33,5.61-7.61,9.5-10.34c1.6399,10.8,3.87,21.52,5.95,32.25c0.46,3.24,0.24,6.52,0.26,9.78c-0.02,17-0.01,34-0.01,51
		c0.02,4.21-0.3,8.45,0.39,12.63c4.09,40.66,7.85,81.36,12.02,121.99c3.45,7.43,7.2899,14.7,10.95,22.05
		c5.41,9.16,9.8,18.87,14.64,28.34c2.9,6.27,6.78,12.03,9.67,18.32c5.39,10.58,10.34,21.4,16.35,31.66
		c1.72,2.84,5.3199,3.48,8.12,4.87c13.9,6.13,27.8099,12.23,41.74,18.29c21.08,7.12,42.4301,13.4,63.52,20.49
		c3.2899,0.91,7.38,1.48,10.22-0.91c5.86-5.2,11-11.13,16.25-16.92c-2.09,12.98,0.39,26.2-1.77,39.15
		c-0.52,9.2599,0.48,18.58-0.45,27.82c-1.24,5.35,0.12,10.98-1.5701,16.2599c-7.7799,27.64-15.1799,55.4-23.0299,83.02
		c-8.4401,20.13-17.24,40.11-25.7001,60.24c-0.63,1.28-1.3199,2.77-2.74,3.32c-20.4399,7-41.09,13.47-61.45,20.68
		c-0.54,4.75,0.34,9.58-0.5801,14.32c-1.5399,8.17,0.38,16.57-1.1599,24.75c-1.2201,7.63,0.45,15.43-0.9701,23.04
		c-1.2999,7.9301,0.4701,16.05-1.0399,23.96c-1.2101,7.63,0.46,15.42-0.9601,23.04c-1.2999,7.9301,0.4701,16.05-1.0399,23.96
		c-1.0701,5.68,0.2899,11.52-0.89,17.19c-1.13,4.93,0.08,10.05-1,15c-1.12,4.94,0.0499,10.05-0.97,15.01
		c-0.5601,2.77-0.63,5.61-0.54,8.45c0.3,4.7-1.46,9.25-1.01,13.97c0.47,5.0601-1.42,9.9401-1,15c0.2,3.62-0.21,7.24-1.1,10.76
		c-2.48,0.04-4.3301,1.71-5.7101,3.6c-0.98,3.84,1,7.5701,0.8,11.42c-21.5,52.39-42.39,105.0499-63.75,157.5
		c-5.73,9.1-12.3199,17.65-18.3199,26.59c-3.24,5.4301-9.0901,8.33-13.91,12.12c-32.63,23.71-65.25,47.4301-97.85,71.17
		c-8.3,6.1699-16.9301,11.9399-24.98,18.4399c-19.38,4.15-38.27,10.23-57.4401,15.23c-12.59,3.4801-25.13,7.2201-37.84,10.2101
		c-32.85,2.39-65.73,4.65-98.59,6.84c-4.87-1.87-10.23-0.45-15.31-0.85c-6.11,0.37-12.43-0.96-18.37,0.77
		c-8.74-4.39-17.56-8.64-26.22-13.1901c-17-10.33-33.97-20.7-50.92-31.11c-3.14-2.02-6.95-2.1799-10.47-3.0699
		c-5.3-5.0801-12.1-8.16-18.05-12.36c-20.8199-13.54-41.79-26.8401-62.6299-40.3401c-7.3701-4.4399-12.92-11.12-19.1-16.96
		c-7.38-7.3-14.7-14.66-22.1-21.9301c-14.41-12.8999-27.57-27.11-41.57-40.4399c-7.19-6.13-13.45-13.26-20.54-19.47
		c-1.96-1.5901-4.08-2.9401-6.09-4.4501c0.16-0.3199,0.48-0.95,0.64-1.26c-3.87-4.38-8.28-8.24-12.76-11.97
		c-3.18-2.48-4.3-6.51-6.15-9.91c-10-20.01-20.03-40-29.99-60.0199c-11.94-29.16-22.41-58.9301-35.25-87.7301
		c-10.06-23.28-20.2-46.53-30.23-69.8199c-3.54-11.08-5.97-22.51-9.47-33.59c-8.8-0.58-17.66,0.23-26.45-0.33
		c-1.65-1.6-2.18-3.96-3.11-5.98c-5.14-12.16-10.4-24.28-15.58-36.43c-4.03-9.72-8.75-19.19-11.72-29.31
		c-6.49-21-13.77-41.74-20.27-62.73c-6.5-19-12.33-38.22-18.72-57.26c-3.67-12.66-7.39-25.31-11.06-37.98
		c-1.12-3.73-2.31-7.44-2.94-11.29c6.3,3.08,11.22,8.34,16.98,12.29c5.42,3.59,9.99,8.89,16.53,10.45
		c15.67,4.31,31.33,8.67,46.98,13.05c3.76,1.1,9.18,0.42,10.35-4c1.29-5.51-2.17-10.63-3.52-15.8c-2.81-9.58-7.24-18.8-8.08-28.85
		c-0.56-5.85,0.5-11.77-0.58-17.58c-1.39-6.89,0.29-13.96-1.05-20.86c-1.28-6.66,0.28-13.48-0.95-20.14
		c-1.36-6.62,0.2-13.42-0.93-20.06c-1.5-7.75,0.34-15.72-1.44-23.44c-0.46-11.29,0.02-22.61-0.21-33.91
		c-0.31-6.38,1.58-12.62,1.06-19.01c0.25-10.33-0.79-20.74,0.88-30.98c0.65-12.65-0.9-25.42,1-38c0.54-6.13-0.58-12.35,0.65-18.43
		c1.15-5.68-0.25-11.51,0.88-17.19c1.37-6.21-0.23-12.61,1.13-18.81c1.15-5.68-0.26-11.51,0.86-17.19
		c1.39-6.2-0.23-12.61,1.13-18.81c1.15-5.68-0.26-11.51,0.87-17.19c1.39-6.2-0.23-12.61,1.14-18.81c1.15-5.68-0.27-11.51,0.86-17.19
		c1.05-4.76,0.33-9.63,0.66-14.43c4.91,1.45,9.44,3.9,14.2,5.79c13.27,5.73,26.6,11.32,39.83,17.15c4.73,2.14,9.98,0.87,14.89,0.23
		c7.97-0.53,15.98,0.27,23.94-0.31c12.92-2.17,26.14,0.51,39.06-1.69c7.31-0.48,14.64,0.17,21.96-0.22
		c5.58-0.94,10.25-4.47,15.49-6.42c29.78-13.52,59.43-27.32,89.24-40.78c3.22-1.25,6.98-3.61,6.31-7.64
		C768.32,247.04,765.47,237.02,762.97,226.93 M1112.0601,437.14c-18.7001,2.83-37.2201,7.12-56.15,8.11
		c-15.92,1.41-31.8201,2.94-47.7501,4.15c-15,1.6-30.08,2.08-45.0699,3.69c0.94,13.94,1.66,27.92,3.1299,41.81
		c2.6,0.75,5.29,1.12,7.9901,1.45c-2.25,1.46-2.71,4.26-3.15,6.69c-1.6,9.24-3.32,18.47-5,27.7c3.21-1.22,6.17-3.02,9.36-4.3
		c7.9-3.22,15.21-7.74,23.15-10.91c7.08-3.14,13.79-7.11,20.99-9.99c4.03-1.6,7.64-4.33,12.0001-5.01
		c10.2899-1.67,20.5699-3.45,30.87-5.1c1.7899-0.27,3.5-0.98,5.0299-1.97c9.6901-5.99,19.42-11.92,29.1001-17.94
		c2.11-1.45,4.75-2.28,6.3899-4.35c-1.98-0.13-3.97-0.13-5.9199,0.11c-7.9401,1.42-16.0601,0.09-23.99,1.63
		c-8-0.13-15.92,0.71-23.86,1.35c-11.2201,3.37-22.4,6.86-33.59,10.32c-3.58,0.88-7.03,2.62-10.8,2.33
		c4.41-2.75,8.92-5.52,13.83-7.29c22.11-5.62,44.27-11.08,66.39-16.65c5.88-1.52,11.99-1.67,18.01-2.26
		c14.64-1.42,29.3099-2.41,43.98-3.36c9.46-0.34,18.91-1.97,28.38-0.82c13.5599,0.72,27.11,1.71,40.6801,2.29
		c-1.9901-1.53-4.52-2.04-6.77-3c-8.64-3.05-17.13-6.52-25.9-9.16c-18.11-3.58-36.1901-7.28-54.3-10.85
		C1123.39,434.34,1117.7,436.48,1112.0601,437.14 M743.39,475.4c-14.2,3.13-28.43,6.11-42.61,9.31
		c-9.57,1.96-19.04,4.59-28.8101,5.34c-9.55,1.06-19.09,2.18-28.62,3.41c-5.74,0.75-11.64,0.8-17.15,2.77
		c-13.25,4.45-26.53,8.81-39.78,13.26c-1.62,0.41-1.85,2.28-2.39,3.59c-4.63,14.9-9.35,29.76-13.92,44.67
		c13.47-7.26,26.59-15.16,39.95-22.63c3.25-1.72,6.81-2.68,10.28-3.85c20-6.68,40.0099-13.32,60-20.02
		c5.98-2.17,12.41-2.47,18.65-3.47c13.61-2.14,27.23-4.17,40.86-6.16c2.04-0.26,4.28-0.79,6.12,0.49
		c15.3,8.56,30.52,17.29,45.91,25.7c1.2-13.84,2.23-27.72,2.97-41.58c-1.2599-1.1-3.1-1.03-4.61-1.54
		c-12.62-3.34-25.23-6.72-37.84-10.08C749.38,473.76,746.34,474.87,743.39,475.4 M657.89,529.95c-7.88,3.21-16.2,5.38-23.92,8.93
		c4.36,0.45,8.67-0.57,12.96-1.14c17.01-2.17,34.01-4.48,51.02-6.63c5.69-0.35,11.42-0.19,17.08,0.6
		c9.33,0.52,18.6899,0.03,28.03,0.44c9.6,1.4,19.34,0.45,29,1.0099c6.26,0.91,12.6,0.86,18.91,0.69c-0.7-0.62-1.46-1.12-2.29-1.5099
		c-12.93-6.3701-25.79-12.89-38.69-19.31c-2.85-1.37-5.63-3.42-8.95-3.06c-8.97,0.21-17.96-0.27-26.91,0.22
		C695.22,516.29,676.7,523.54,657.89,529.95 M1043.96,511.99c-17.33,11.3-34.66,22.6-51.99,33.91c-3.35,2.3199-7.22,4.04-9.99,7.08
		c13.78-4.89,27.08-11.01,40.72-16.28c9.2599-3.57,18.14-8.51,28.06-10.02c11.98-2.3,23.91-4.94,35.92-7.07
		c0.61-1.79-1.53-1.36-2.5801-1.7c-11.84-2.49-23.65-5.12-35.51-7.52C1046.8101,509.69,1045.35,511.14,1043.96,511.99 M1083,529.75
		c-6.2,0.44-12.49,0.35-18.58,1.71c-11.7201,7.91-23.1901,16.21-34.9801,24.02c-0.9199,0.65-1.97,1.26-2.3999,2.35
		c3.61,0.57,7.26,0.98,10.9299,1.08c6.39,0,12.7001,1.1801,19.0901,1.17c11.25,1.48,22.62,0.75,33.9399,0.92
		c12.3199-0.11,24.65,0.22,36.96-0.15c18.49-4.27,36.8201-9.24,55.28-13.66c1.21-0.44,2.92-0.4,3.54-1.76
		c-11.5701-3.11-22.53-8.7-34.6-9.76c-4.4501-0.5-8.8201-2.02-13.3301-1.64l-0.0399,1c-5.8101-2.8-12.2401-4.15-18.67-4.05
		c-1.03-1.16-2.8-0.73-4.13-1.07c-5.63-0.45-11.17-2.56-16.85-1.55C1093.8,529.19,1088.35,528.91,1083,529.75 M733.44,546.4
		c-7.71,1.55-15.36,3.35-23.05,4.99c-0.03,0.31-0.1,0.93-0.14,1.25c7.71,0.93,15.3,2.72,22.94,4.1
		c23.29,4.38,46.56,8.86,69.86,13.16c2.64,0.53,5.3,1.08,8.02,1.09c-0.32-0.22-0.94-0.66-1.25-0.88
		c-22.38-7.33-44.81-14.47-67.21-21.7C739.6,547.61,736.63,545.7,733.44,546.4 M688.01,565.1c-12.31,3.69-24.73,7.1-36.97,10.97
		c-12.61,9.69-25.03,19.65-37.6,29.39c-1.25,0.93-2.34,2.05-3.27,3.3c13.99-2.57,28.04-4.88,42.04-7.44
		c5.84-1.18,11.79-1.68,17.72-2.25c14.95-0.92,29.85-2.42,44.7-4.46l0.31-0.72c6.48,0.38,13.14-0.21,19.18-2.73l0.31,0.65
		c6.56-0.21,12.65-2.92,18.91-4.58c6.8-2.26,13.72-4.12,20.52-6.39c1.69-0.7,3.91-0.55,5.24-1.9c-4.2-5.14-10.16-8.53-14.9-13.16
		c-2-2.53-5.5-1.55-8.27-2c-8.29-1.08-16.67-0.35-24.95-1.45c-7.64-0.46-15.31-0.12-22.9-1.14
		C701.08,560.17,694.63,563.48,688.01,565.1 M1132.4301,581.45c-3.0601,0.94-6.3,0.47-9.4301,0.56
		c-19.5699,0.04-39.14-0.13-58.71,0.11l0.01,0.66c2.8999,0.18,5.7999,0.5099,8.63,1.23c12.0399,2.33,24.13,4.44,36.1599,6.84
		c4.17-0.3,8.17-1.81,12.3-2.52c13.11-3.35,26.4299-5.91,39.49-9.45c4.63-3.24,8.67-7.39,13.25-10.77
		c1.14-0.81,2.0699-1.88,2.8199-3.07C1161.95,570.01,1147.33,576.15,1132.4301,581.45 M765.69,603.71
		c-10.09,4.48-20.03,9.29-30.03,13.94c-3.1,0.77-6.36,0.39-9.49,0.05c-8.73-1.44-17.64,0.08-26.36-1.29
		c-6.58-0.75-13.22-0.0699-19.8-0.59c-4.28-0.64-8.62-0.91-12.93-0.61c16.29,6.75,32.9,12.86,49.31,19.36
		c1.67,0.53,3.41,1.69,5.21,0.99c10.88-3.24,21.89-5.99,32.79-9.16c6.37-2.09,13.14-3.03,19.3-5.71c2.73-7.55,4.04-15.61,6.18-23.37
		C774.94,598.99,770.31,601.37,765.69,603.71 M1012.88,726c0.22,1.35,0.54,2.72,1.17,3.98c4.24,8.56,7.74,17.46,11.91,26.06
		c3.7201,9.02,8.26,17.68,11.77,26.78c-3.4199,3.54-6.89,7.07-10.8199,10.04c-3.27,2.72-5.9401,6.09-9.4301,8.56
		c-2.98,2.64-6.18,5.21-8.47,8.49c5.52,2.21,11.45,3.31,17.1799,4.91c19.3701,5.33,38.8501,10.34,58.1801,15.77
		c6.3101,3.89,9.9401,10.7599,15.38,15.66c3.87,5.09,8.65,9.37,12.53,14.46c4.0499,3.65,6.95,8.34,10.98,12.02
		c4.01,4.59,7.7,9.72,12.76,13.22c8.1,3.06,15.65,7.64,23.97,10.05c-0.55-2.81-1.73-5.44-3.02-7.97c-2.46-4.67-4.15-9.7-6.65-14.34
		c-2.0399-3.84-2.5599-9.15-6.99-11.1c-10.49-5.86-21.21-11.29-31.6899-17.17c-1.86-1.1-4.4301-1.69-5.03-4.05
		c-2.95-8.57-5.13-17.4-7.97-26.01c-0.8101-3.31-4.4-4.39-6.99-5.97c-6.97-4.2-15.0801-7.31-19.72-14.4
		c-18.55-21.75-36.87-43.71-55.47-65.42C1015.44,728.21,1014.43,726.77,1012.88,726 M807.82,768.8
		c-6.02,6.37-13.09,11.58-19.12,17.95c-4.89,4.04-7.11,10.16-10.67,15.24c-5.38,8.93-11.11,17.66-16.27,26.72
		c-6.72,19.4-12.96,38.98-19.61,58.42c-2.71,6.44,0.59,13.27-0.05,19.93c1.12,6.61,0.65,13.35,1.88,19.95
		c1.02,5-6.62,6.03-5.97,10.94c-0.02,5.01-0.13,10.03,0.06,15.05c-0.16,2.89,3.1,4.65,5.67,3.86c3.78-12.6,6.47-25.54,9.83-38.27
		c3.54-12.4901,4.58-25.47,6.83-38.22c0.91-4.57,0.6-9.63,3.38-13.6c6.64-11.69,13.14-23.46,19.8199-35.12
		c1.8-3.22,3.27-6.7,5.7-9.52c8.82,0.77,17.69,1.81,26.53,2.79c-4.75-6.07-10.09-11.84-14.7-17.91
		c4.74-12.38,10.11-24.55,15.02-36.88c1.6-4.32,4.09-8.38,4.8199-12.97C816.24,760.62,812.66,765.43,807.82,768.8 M848.66,784.77
		c-2.86,14.28-5.95,28.56-8.47,42.9c8.71,1.88,17.72,1.85,26.52,3.3c-5.17-15.73-11.76-30.98-17.08-46.67
		C849.39,784.42,848.9,784.65,848.66,784.77 M982.66,921.68c-8.44,3.43-16.5699,7.6-25.06,10.92c-9.25,2.21-18.97,1.6-28.23,3.83
		c-5.73,1.63-11.1,4.28-16.72,6.22c-9.85,3.54-19.35,8.21-29.64,10.37c-32.6,8.07-65.14,16.43-97.78,24.33
		c0.33,1.73,2.45,1.29,3.75,1.7c14.99,2.51,29.96,5.31,44.94,7.87c21.75-6.15,43.44-12.62,65.19-18.85
		c9.89-2.76,19.65-6.07,29.68-8.37c18.7-2.73,37.42-5.36,56.14-7.96c5.29-1,10.71-0.97,16.05-0.49c6.95,1.02,14,0.63,21.01,0.73
		c5.7-0.29,11.3,1.17,17.01,0.95c6.01,0.16,12.03-0.1,18.04,0.17c5.5599,0.78,11.2,1.12,16.8099,0.69
		c8.8201-3.18,17.0701-7.7599,25.85-11.06c-0.1-0.28-0.2999-0.84-0.3999-1.12c-36.77-6.37-73.4701-13.18-110.21-19.73
		C986.96,921.62,984.71,920.61,982.66,921.68 M1062.14,966.18c-12.58,4.37-25.9501,5.37-38.91,8.12
		c-24.09,4.05-48.09,8.6-72.18,12.62c-32.36,0.31-64.73-0.22-97.09,0.28c-9.6,1.4-19.31,0.47-28.95,1.06
		c-10.48,1.57-21.13,0.1-31.64,1.2c-4.09,0.72-8.25,0.45-12.37,0.64c6.2,4.3,13.3,7.19,19.79,11.07
		c18.65,10.01,37.31,20,55.89,30.11c3.83,1.7,8.07,1.97,12.11,2.9099c21.41,4.2001,42.79,8.7401,64.23,12.7201
		c27.14-3.7101,54.22-7.9401,81.39-11.49c3.58-0.5901,6.69-2.55,9.9001-4.12c16.6799-8.3201,33.33-16.7001,50.0299-24.98
		c2.48-1.05,4.05-3.33,5.4501-5.52c10.9099-16.62,22.1699-33.01,32.97-49.7C1095.84,955.98,1079.03,961.22,1062.14,966.18
		 M1237.27,1104.28c-5.4401,4.9299-9.5601,11.0599-15,15.99c-4.27,3.78-7.35,8.63-11.51,12.5c-2.48,2.54-5.13,4.9199-7.34,7.71
		c-3.7201,4.88-8.4801,8.8201-12.6001,13.35c-5.3999,6.87-11.95,12.7101-18.0199,18.9601C1159.84,1183.83,1146.95,1194.98,1134,1206
		c-17.9,8.0699-35.75,16.28-53.65,24.36c-10.1899,5.1901-21.12,8.54-31.99,11.9501c-9.48,2.6699-18.67,6.2799-28.15,8.9399
		c-9.17,2.6801-18.05,6.3199-27.34,8.5699c-17.08-2.85-34.04-6.5099-51.1-9.5499c-21.98-4.24-43.7-9.71-65.57-14.46
		c-5.06-1.6801-10.9-1.3401-15.25-4.76c-20.89-13.0901-41.74-26.24-62.58-39.41c-8.12-4.97-15.95-10.53-24.8-14.1801
		c-6.82-2.64-13.05-6.5499-19.86-9.2c-6.32-2.5701-12.02-6.6901-18.71-8.29c2.01,3.3101,5.6,5.0701,8.27,7.77
		c27.01,23.66,54.22,47.12,81.18,70.83c17.37,4.9301,35.07,8.8501,52.56,13.39c8.67,1.9501,17.16,4.8,26,5.9601
		c24,3.6,47.97,7.5,71.99,10.98c17.32-2.5701,34.59-5.54,51.92-8.0601c6.2999-0.7999,12.01-3.7,17.7999-6.1
		c20.64-8.36,41.26-16.73,61.86-25.2c2.55-1.0601,5.25-1.86,7.61-3.3501c15.27-10.11,30.79-19.8199,46.01-29.99
		c5.3-3.6699,11.38-6.36,15.5601-11.4299c12.99-14.6801,25.76-29.55,38.79-44.2001c10.48-14.1899,20.9099-28.4099,31.3899-42.61
		c1.8401-2.5699,4.0801-4.9299,5.2201-7.9399C1245.54,1093.75,1242.23,1099.84,1237.27,1104.28z"/>
	<path fill="#EFD168" stroke="#EFD168" stroke-width="0.3" d="M1112.0601,437.14c5.6399-0.66,11.33-2.8,17.0299-1.33
		c18.11,3.57,36.1901,7.27,54.3,10.85c8.77,2.64,17.26,6.11,25.9,9.16c2.25,0.96,4.7799,1.47,6.77,3
		c-13.5701-0.58-27.1201-1.57-40.6801-2.29c-9.47-1.15-18.92,0.48-28.38,0.82c-14.67,0.95-29.34,1.94-43.98,3.36
		c-6.02,0.59-12.13,0.74-18.01,2.26c-22.12,5.57-44.28,11.03-66.39,16.65c-4.91,1.77-9.42,4.54-13.83,7.29
		c-4.4,2.13-8.96,3.92-13.68,5.19c-5.62,1.48-10.99,4.18-16.9,4.25c-2.7-0.33-5.39-0.7-7.9901-1.45
		c-1.47-13.89-2.1899-27.87-3.1299-41.81c14.99-1.61,30.0699-2.09,45.0699-3.69c15.93-1.21,31.83-2.74,47.7501-4.15
		C1074.84,444.26,1093.36,439.97,1112.0601,437.14z"/>
	<path fill="#FFAACC" stroke="#FFAACC" stroke-width="0.3" d="M1073.04,472.91c7.9299-1.54,16.0499-0.21,23.99-1.63
		c1.95-0.24,3.9399-0.24,5.9199-0.11c-1.6399,2.07-4.2799,2.9-6.3899,4.35c-9.6801,6.02-19.41,11.95-29.1001,17.94
		c-1.5299,0.99-3.24,1.7-5.0299,1.97c-10.3,1.65-20.5801,3.43-30.87,5.1c-4.3601,0.68-7.97,3.41-12.0001,5.01
		c-7.2,2.88-13.91,6.85-20.99,9.99c-7.94,3.17-15.25,7.6899-23.15,10.91c-3.19,1.28-6.15,3.08-9.36,4.3c1.68-9.23,3.4-18.46,5-27.7
		c0.44-2.43,0.9-5.23,3.15-6.69c5.91-0.07,11.28-2.77,16.9-4.25c4.72-1.27,9.28-3.06,13.68-5.19c3.77,0.29,7.22-1.45,10.8-2.33
		c11.19-3.46,22.3699-6.95,33.59-10.32C1057.12,473.62,1065.04,472.78,1073.04,472.91z"/>
	<path fill="#EFD168" stroke="#EFD168" stroke-width="0.3" d="M743.39,475.4c2.95-0.53,5.99-1.64,9.01-0.79
		c12.61,3.36,25.22,6.74,37.84,10.08c1.51,0.51,3.35,0.44,4.61,1.54c-0.74,13.86-1.77,27.74-2.97,41.58
		c-15.39-8.41-30.61-17.14-45.91-25.7c-1.84-1.28-4.08-0.75-6.12-0.49c-13.63,1.99-27.25,4.02-40.86,6.16
		c-6.24,1-12.67,1.3-18.65,3.47c-19.9901,6.7-40,13.34-60,20.02c-3.47,1.17-7.03,2.13-10.28,3.85
		c-13.36,7.47-26.48,15.37-39.95,22.63c4.57-14.91,9.29-29.77,13.92-44.67c0.54-1.31,0.77-3.18,2.39-3.59
		c13.25-4.45,26.53-8.81,39.78-13.26c5.51-1.97,11.41-2.02,17.15-2.77c9.53-1.23,19.07-2.35,28.62-3.41
		c9.77-0.75,19.2401-3.38,28.8101-5.34C714.96,481.51,729.19,478.53,743.39,475.4z"/>
	<path fill="#FFAACC" stroke="#FFAACC" stroke-width="0.3" d="M657.89,529.95c18.81-6.41,37.33-13.66,56.24-19.76
		c8.95-0.49,17.94-0.01,26.91-0.22c3.32-0.36,6.1,1.69,8.95,3.06c12.9,6.42,25.76,12.9399,38.69,19.31
		c0.83,0.39,1.59,0.89,2.29,1.5099c-6.31,0.17-12.65,0.22-18.91-0.69c-9.66-0.56-19.4,0.39-29-1.0099
		c-9.34-0.41-18.7,0.08-28.03-0.44c-5.66-0.79-11.39-0.95-17.08-0.6c-17.01,2.15-34.01,4.46-51.02,6.63
		c-4.29,0.57-8.6,1.59-12.96,1.14C641.69,535.33,650.01,533.16,657.89,529.95z"/>
	<path fill="#FFAACC" stroke="#FFAACC" stroke-width="0.3" d="M1043.96,511.99c1.39-0.85,2.8501-2.3,4.63-1.6
		c11.86,2.4,23.67,5.03,35.51,7.52c1.05,0.34,3.1901-0.09,2.5801,1.7c-12.01,2.13-23.9401,4.77-35.92,7.07
		c-9.92,1.51-18.8,6.45-28.06,10.02c-13.64,5.27-26.94,11.39-40.72,16.28c2.77-3.04,6.64-4.76,9.99-7.08
		C1009.3,534.59,1026.63,523.29,1043.96,511.99z"/>
	<path fill="#FFFFFF" stroke="#FFFFFF" stroke-width="0.3" d="M1083,529.75c5.35-0.84,10.8-0.56,16.16-1.39
		c5.6799-1.01,11.22,1.1,16.85,1.55c1.33,0.34,3.1-0.09,4.13,1.07c-7.5601,0.17-15.62,1.61-21.5701,6.6
		c-2.9199,2.3-4.5,6.4-2.97,9.95c2.12,4.49,6.91,6.8799,11.4,8.43c9.17,2.88,19.39,2.81,28.4399-0.51
		c4.6101-1.82,10.0601-4.98,10.52-10.47c0.4-4.63-3.6-7.82-7.1499-9.95l0.0399-1c4.51-0.38,8.88,1.14,13.3301,1.64
		c12.0699,1.06,23.0299,6.65,34.6,9.76c-0.62,1.36-2.3301,1.32-3.54,1.76c-18.46,4.42-36.79,9.39-55.28,13.66
		c-12.3099,0.37-24.64,0.04-36.96,0.15c-11.3199-0.17-22.6899,0.56-33.9399-0.92c-6.39,0.01-12.7001-1.17-19.0901-1.17
		c-3.6699-0.1-7.3199-0.5099-10.9299-1.08c0.4299-1.09,1.48-1.7,2.3999-2.35c11.79-7.81,23.26-16.11,34.9801-24.02
		C1070.51,530.1,1076.8,530.19,1083,529.75z"/>
	<path stroke="#000000" stroke-width="0.3" d="M1098.5699,537.58c5.9501-4.99,14.01-6.43,21.5701-6.6
		c6.4299-0.1,12.86,1.25,18.67,4.05c3.5499,2.1299,7.5499,5.3199,7.1499,9.95c-0.46,5.49-5.9099,8.65-10.52,10.47
		c-9.0499,3.32-19.2699,3.39-28.4399,0.51c-4.49-1.55-9.28-3.94-11.4-8.43C1094.0699,543.98,1095.65,539.88,1098.5699,537.58z"/>
	<path fill="#FFAACC" stroke="#FFAACC" stroke-width="0.3" d="M733.44,546.4c3.19-0.7,6.16,1.21,9.17,2.0099
		c22.4,7.23,44.83,14.3701,67.21,21.7c0.31,0.22,0.93,0.66,1.25,0.88c-2.72-0.01-5.38-0.56-8.02-1.09
		c-23.3-4.3-46.57-8.78-69.86-13.16c-7.64-1.38-15.23-3.17-22.94-4.1c0.04-0.32,0.11-0.94,0.14-1.25
		C718.08,549.75,725.73,547.95,733.44,546.4z"/>
	<path fill="#FFFFFF" stroke="#FFFFFF" stroke-width="0.3" d="M688.01,565.1c6.62-1.62,13.07-4.93,20.07-3.91
		c7.59,1.02,15.26,0.68,22.9,1.14c8.28,1.1,16.66,0.37,24.95,1.45c2.77,0.45,6.27-0.53,8.27,2c4.74,4.6299,10.7,8.02,14.9,13.16
		c-1.33,1.35-3.55,1.2-5.24,1.9c-6.8,2.27-13.72,4.1299-20.52,6.39c-6.26,1.66-12.35,4.37-18.91,4.58l-0.31-0.65
		c4.11-1.78,8.77-4.49,9.74-9.25c0.87-4.27-2.29-7.96-5.7-10.03c-8-4.84-17.85-5.59-26.94-4.35
		c-5.8799,0.98-12.06,2.97-16.1299,7.56c-2.94,3.1299-2.65,8.43,0.47,11.34c5.05,5.08,12.46,6.84,19.38,7.46l-0.31,0.72
		c-14.85,2.04-29.75,3.54-44.7,4.46c-5.93,0.57-11.88,1.07-17.72,2.25c-14,2.56-28.05,4.87-42.04,7.44c0.93-1.25,2.02-2.37,3.27-3.3
		c12.57-9.7401,24.99-19.7,37.6-29.39C663.28,572.2,675.7,568.79,688.01,565.1z"/>
	<path fill="#FFAACC" stroke="#FFAACC" stroke-width="0.3" d="M1132.4301,581.45c14.8999-5.3,29.5199-11.44,44.5199-16.41
		c-0.75,1.19-1.6799,2.26-2.8199,3.07c-4.58,3.38-8.62,7.53-13.25,10.77c-13.0601,3.54-26.38,6.1-39.49,9.45
		c-4.13,0.71-8.13,2.22-12.3,2.52c-12.0299-2.4-24.12-4.5099-36.1599-6.84c-2.8301-0.72-5.7301-1.05-8.63-1.23l-0.01-0.66
		c19.5699-0.24,39.14-0.07,58.71-0.11C1126.13,581.92,1129.37,582.39,1132.4301,581.45z"/>
	<path stroke="#000000" stroke-width="0.3" d="M695.09,575.09c4.0699-4.59,10.25-6.58,16.1299-7.56
		c9.09-1.2401,18.94-0.4901,26.94,4.35c3.41,2.07,6.57,5.76,5.7,10.03c-0.97,4.76-5.63,7.47-9.74,9.25
		c-6.04,2.52-12.7,3.11-19.18,2.73c-6.92-0.62-14.33-2.38-19.38-7.46C692.44,583.52,692.15,578.22,695.09,575.09z"/>
	<path fill="#FFAACC" stroke="#FFAACC" stroke-width="0.3" d="M765.69,603.71c4.62-2.34,9.25-4.72,14.18-6.39
		c-2.14,7.76-3.45,15.82-6.18,23.37c-6.16,2.68-12.93,3.62-19.3,5.71c-10.9,3.17-21.91,5.92-32.79,9.16
		c-1.8,0.7-3.54-0.46-5.21-0.99c-16.41-6.5-33.02-12.61-49.31-19.36c4.31-0.3,8.65-0.03,12.93,0.61c6.58,0.52,13.22-0.16,19.8,0.59
		c8.72,1.3701,17.63-0.15,26.36,1.29c3.13,0.34,6.39,0.72,9.49-0.05C745.66,613,755.6,608.19,765.69,603.71z"/>
	<path fill="#FFAACC" stroke="#FFAACC" stroke-width="0.3" d="M1012.88,726c1.55,0.77,2.56,2.21,3.58,3.57
		c18.6,21.71,36.92,43.67,55.47,65.42c4.6399,7.09,12.75,10.2,19.72,14.4c2.59,1.58,6.1799,2.66,6.99,5.97
		c2.84,8.61,5.02,17.44,7.97,26.01c0.6,2.36,3.17,2.95,5.03,4.05c10.48,5.88,21.2,11.31,31.6899,17.17
		c4.4301,1.95,4.9501,7.2599,6.99,11.1c2.5,4.64,4.1901,9.67,6.65,14.34c1.29,2.53,2.47,5.16,3.02,7.97
		c-8.3199-2.41-15.87-6.99-23.97-10.05c-5.0601-3.5-8.75-8.63-12.76-13.22c-4.03-3.68-6.9301-8.37-10.98-12.02
		c-3.88-5.09-8.66-9.37-12.53-14.46c-5.4399-4.9-9.0699-11.77-15.38-15.66c-19.33-5.4301-38.8099-10.44-58.1801-15.77
		c-5.7299-1.6-11.6599-2.7-17.1799-4.91c2.29-3.28,5.49-5.85,8.47-8.49c3.49-2.47,6.16-5.84,9.4301-8.56
		c3.9299-2.97,7.4-6.5,10.8199-10.04c-3.51-9.1-8.0499-17.76-11.77-26.78c-4.17-8.6-7.67-17.5-11.91-26.06
		C1013.42,728.72,1013.1,727.35,1012.88,726z"/>
	<path fill="#FFAACC" stroke="#FFAACC" stroke-width="0.3" d="M807.82,768.8c4.84-3.37,8.42-8.18,13.15-11.64
		c-0.73,4.59-3.22,8.65-4.8199,12.97c-4.91,12.33-10.28,24.5-15.02,36.88c4.61,6.07,9.95,11.84,14.7,17.91
		c-8.84-0.98-17.71-2.02-26.53-2.79c-2.43,2.82-3.9,6.3-5.7,9.52c-6.68,11.66-13.18,23.43-19.8199,35.12
		c-2.78,3.97-2.47,9.03-3.38,13.6c-2.25,12.75-3.29,25.73-6.83,38.22c-3.36,12.73-6.05,25.67-9.83,38.27
		c-2.57,0.79-5.83-0.97-5.67-3.86c-0.19-5.02-0.08-10.04-0.06-15.05c-0.65-4.91,6.99-5.94,5.97-10.94
		c-1.23-6.6-0.76-13.34-1.88-19.95c0.64-6.66-2.66-13.49,0.05-19.93c6.65-19.44,12.89-39.02,19.61-58.42
		c5.16-9.06,10.89-17.79,16.27-26.72c3.56-5.08,5.78-11.2,10.67-15.24C794.73,780.38,801.8,775.17,807.82,768.8z"/>
	<path fill="#FFAACC" stroke="#FFAACC" stroke-width="0.3" d="M848.66,784.77c0.2401-0.12,0.73-0.35,0.97-0.47
		c5.32,15.69,11.91,30.94,17.08,46.67c-8.8-1.45-17.81-1.42-26.52-3.3C842.71,813.33,845.8,799.05,848.66,784.77z"/>
	<path fill="#FFAACC" stroke="#FFAACC" stroke-width="0.3" d="M982.66,921.68c2.05-1.07,4.3-0.06,6.4301,0.2
		c36.7399,6.55,73.44,13.36,110.21,19.73c0.1,0.28,0.2999,0.84,0.3999,1.12c-8.7799,3.3-17.0299,7.88-25.85,11.06
		c-5.61,0.43-11.25,0.09-16.8099-0.69c-6.01-0.27-12.03-0.0099-18.04-0.17c-5.71,0.22-11.3101-1.24-17.01-0.95
		c-7.01-0.1-14.06,0.29-21.01-0.73c-5.34-0.48-10.76-0.51-16.05,0.49c-18.72,2.6-37.44,5.23-56.14,7.96
		c-10.03,2.3-19.79,5.61-29.68,8.37c-21.75,6.23-43.44,12.7-65.19,18.85c-14.98-2.56-29.95-5.36-44.94-7.87
		c-1.3-0.41-3.42,0.03-3.75-1.7c32.64-7.9,65.18-16.2599,97.78-24.33c10.29-2.16,19.79-6.83,29.64-10.37
		c5.62-1.94,10.99-4.59,16.72-6.22c9.26-2.23,18.98-1.62,28.23-3.83C966.09,929.28,974.22,925.11,982.66,921.68z"/>
	<path fill="#FFAACC" stroke="#FFAACC" stroke-width="0.3" d="M1062.14,966.18c16.89-4.96,33.7-10.2,50.62-15.08
		c-10.8,16.69-22.0601,33.08-32.97,49.7c-1.4,2.19-2.9701,4.47-5.4501,5.52c-16.7,8.28-33.35,16.66-50.0299,24.98
		c-3.2101,1.5699-6.3201,3.5299-9.9001,4.12c-27.17,3.5499-54.25,7.7799-81.39,11.49c-21.44-3.98-42.82-8.52-64.23-12.7201
		c-4.04-0.9399-8.28-1.21-12.11-2.9099c-18.58-10.11-37.24-20.1-55.89-30.11c-6.49-3.88-13.59-6.77-19.79-11.07
		c4.12-0.19,8.28,0.08,12.37-0.64c10.51-1.1,21.16,0.37,31.64-1.2c9.64-0.59,19.35,0.34,28.95-1.06c32.36-0.5,64.73,0.03,97.09-0.28
		c24.09-4.02,48.09-8.57,72.18-12.62C1036.1899,971.55,1049.5601,970.55,1062.14,966.18z"/>
	<path fill="#FFFFFF" stroke="#FFFFFF" stroke-width="0.3" d="M1314.24,1244.27c21.36-52.4501,42.25-105.11,63.75-157.5
		c1.92,10.14,2.95,20.4399,4.58,30.64c1.76,10.86,2.51,21.9299,5.42,32.59c10.09,38.02,19.8,76.15,29.8101,114.2
		c2.6499,12.14,6.98,23.9,8.7799,36.2201c4.89,25.2,9.4301,50.47,14.29,75.6899c0.41,4.33,1.98,8.49,2.15,12.86
		c-0.02,31.6801-0.05,63.37,0.01,95.0601c-5.4501,50.52-11.14,101.03-16.4401,151.5599c-5.22,40.8-12.1899,81.42-17.87,122.1801
		c-0.6,4.4-1.9399,8.72-1.75,13.21c-0.14,5.0701,0.61,10.26-0.73,15.24c-0.98,8.24,0.84,16.7101-1.14,24.86
		c-0.65,7.9701,0.88,16.12-0.99,23.99c-0.66,7.9801,0.87,16.13-1,24c-0.66,7.9801,0.87,16.13-1.01,24
		c-0.2999,4.62-0.03,9.28-0.08,13.92c0.4,6.59-2.1,13.03-0.8,19.64c0.9501,1.1899,2.0601,2.26,3.1801,3.37H0v-20.91
		c23.99,0.9301,48,0.7001,71.99,1.6c26.68,0.15,53.34,1.28,80.03,1.3601c25.96,1.0499,51.95,0.71,77.92,1.6599
		c24.7,0.16,49.37,1.3401,74.07,1.3101c24.64,1,49.3,0.78,73.94,1.65c27.36,0.1799,54.7,1.38,82.06,1.35
		c16.66,0.54,33.33,0.9399,50.01,1.01c23.33,1.0599,46.7,0.71,70.05,1.6c10.62,0.16,21.25,0.5699,31.87,0.25
		c1.7-21.78,2.22-43.65,3.58-65.46c2.4-49.4801,5.04-98.9301,7.45-148.41c2.6801-51.01,6.05-101.99,8.98-152.99
		c1.19-25.4301,4.59-50.6801,7.02-76.01c6.9901-67.65,14.01-135.29,20.96-202.9401c0.18-19.71-0.01-39.4299,0.1-59.1499
		c7.09,6.21,13.35,13.34,20.54,19.47c14,13.33,27.16,27.54,41.57,40.4399c7.4,7.27,14.72,14.63,22.1,21.9301
		c6.18,5.84,11.73,12.52,19.1,16.96c20.84,13.5,41.81,26.8,62.6299,40.3401c5.95,4.2,12.75,7.2799,18.05,12.36
		c-33.26-5.64-66.42-11.87-99.64-17.74c-4.41-0.76-8.84-1.9401-13.35-1.4301c-16.63,1.14-33.33,1.52-49.9301,2.88
		c-3,22.62-5.46,45.3099-8.28,67.95c-0.44,3.53-1.03,7.11-0.36,10.67c2.95,20.6899,5.53,41.4399,8.6,62.11
		c7.07,25.1901,14.57,50.27,21.79,75.42c2.4,7.5599,4.02,15.4,7.14,22.73c11.41,28.25,22.5,56.65,34.07,84.83
		c30.74-8.62,61.38-17.76,92.1-26.52c7.3701-2.49,15.1801-3.87,22.36-6.83c30.83-26.15,61.52-52.48,92.32-78.6799
		c4.0699-3.5701,8.42-6.8501,12.06-10.88c13.18-14.16,26.5-28.2001,39.66-42.38c1.23-1.2301,2.44-2.9,4.43-2.5801
		c30.25-0.95,60.52-2.1699,90.78-2.8099c5.28,6.49,9.53,13.8199,14.46,20.62c8.5601,12.11,16.4,24.8199,25.42,36.5499
		c39.9,26.4801,79.97,52.7201,119.9199,79.12c5.2101,3.2001,9.9501,7.39,15.91,9.1801c9.5,3.29,18.85,7.09,28.42,10.15
		c11.53-11.77,22.38-24.24,33.65-36.27c11.74-12.88,23.7699-25.55,35.3099-38.59c8-19.51,15.4301-39.29,23.2001-58.9
		c1.6-4.61,4.2899-9.01,4.1399-14.04c1.79-44.59,4.01-89.1699,5.67-133.76c-4.42-4.03-9.72-6.99-14.4399-10.6599
		c-2.9301-1.89-5.5901-5-9.39-4.7001c-26.3201-0.84-52.66-1.48-78.98-2.41c-5.04-0.0199-10.0801-0.5699-15.1001-0.2
		c-42.2899,7.27-84.48,15.16-126.7799,22.34c8.0499-6.5,16.6799-12.27,24.98-18.4399c32.6-23.74,65.22-47.4601,97.85-71.17
		c4.8199-3.79,10.67-6.6899,13.91-12.12C1301.92,1261.92,1308.51,1253.37,1314.24,1244.27z"/>
	<path fill="#FFAACC" stroke="#FFAACC" stroke-width="0.3" d="M1237.27,1104.28c4.96-4.4401,8.27-10.53,13.89-14.26
		c-1.14,3.01-3.38,5.37-5.2201,7.9399c-10.48,14.2001-20.9099,28.42-31.3899,42.61c-13.03,14.65-25.8,29.52-38.79,44.2001
		c-4.1801,5.0699-10.26,7.76-15.5601,11.4299c-15.22,10.17-30.74,19.88-46.01,29.99c-2.36,1.4901-5.0599,2.29-7.61,3.3501
		c-20.6,8.47-41.22,16.84-61.86,25.2c-5.7899,2.4-11.5,5.3-17.7999,6.1c-17.33,2.52-34.6,5.49-51.92,8.0601
		c-24.02-3.48-47.99-7.38-71.99-10.98c-8.84-1.16-17.33-4.01-26-5.9601c-17.49-4.5399-35.19-8.46-52.56-13.39
		c-26.96-23.71-54.17-47.1699-81.18-70.83c-2.67-2.7-6.26-4.46-8.27-7.77c6.69,1.6,12.39,5.72,18.71,8.29
		c6.81,2.65,13.04,6.5599,19.86,9.2c8.85,3.65,16.68,9.2101,24.8,14.1801c20.84,13.17,41.69,26.3199,62.58,39.41
		c4.35,3.4199,10.19,3.08,15.25,4.76c21.87,4.75,43.59,10.22,65.57,14.46c17.06,3.04,34.02,6.7,51.1,9.5499
		c9.29-2.25,18.17-5.8899,27.34-8.5699c9.4799-2.66,18.67-6.27,28.15-8.9399c10.87-3.41,21.8-6.76,31.99-11.9501
		c17.9-8.08,35.75-16.29,53.65-24.36c12.95-11.02,25.84-22.17,38.8-33.21c6.0699-6.25,12.62-12.0901,18.0199-18.9601
		c4.12-4.5299,8.88-8.47,12.6001-13.35c2.21-2.79,4.86-5.1699,7.34-7.71c4.16-3.87,7.24-8.72,11.51-12.5
		C1227.71,1115.34,1231.83,1109.21,1237.27,1104.28z"/>
	<path fill="#FFFFFF" stroke="#FFFFFF" stroke-width="0.3" d="M595.92,1140.8199c0.94-1.6899,3.09-1.3999,4.18-0.0199
		C598.7,1141.15,597.3,1141.16,595.92,1140.8199z"/>
	<path fill="#E9CEE0" stroke="#E9CEE0" stroke-width="0.3" d="M581.99,1141.8101c0.41-1.6201,2.62-1.4901,3.07,0.0499
		C584.29,1141.85,582.76,1141.83,581.99,1141.8101z"/>
	<path fill="#E9CEE0" stroke="#E9CEE0" stroke-width="0.3" d="M569,1142.8199c0.41-1.63,2.62-1.48,3.07,0.05
		C571.3,1142.86,569.77,1142.83,569,1142.8199z"/>
	<path fill="#E9CEE0" stroke="#E9CEE0" stroke-width="0.3" d="M555,1143.8c0.38-1.63,2.57-1.51,3.07-0.01
		C557.3,1143.79,555.77,1143.8,555,1143.8z"/>
	<path fill="#E9CEE0" stroke="#E9CEE0" stroke-width="0.3" d="M611.19,1143.42c0.07,0.11,0.2,0.34,0.27,0.46
		C611.39,1143.76,611.26,1143.53,611.19,1143.42z"/>
	<path fill="#E9CEE0" stroke="#E9CEE0" stroke-width="0.3" d="M541,1144.8c0.42-1.62,2.62-1.4801,3.06,0.0599
		C543.3,1144.85,541.76,1144.8199,541,1144.8z"/>
	<path fill="#FFFFFF" stroke="#FFFFFF" stroke-width="0.3" d="M526.91,1145.83c0.86-1.7999,3.14-1.5299,4.19-0.08
		C529.7,1145.99,528.3,1146.01,526.91,1145.83z"/>
	<path fill="#E9CEE0" stroke="#E9CEE0" stroke-width="0.3" d="M514,1146.83c0.36-1.6499,2.57-1.5499,3.07-0.0399
		C516.3,1146.8,514.77,1146.8199,514,1146.83z"/>
	<path fill="#FFAACC" stroke="#FFAACC" stroke-width="0.3" d="M500.91,1147.76c0.95-1.6801,3.13-1.51,4.2-0.0601
		C503.71,1148.02,502.31,1148.04,500.91,1147.76z"/>
	<path fill="#E9CEE0" stroke="#E9CEE0" stroke-width="0.3" d="M485.98,1148.83c0.41-1.64,2.63-1.5,3.08,0.04
		C488.29,1148.86,486.75,1148.84,485.98,1148.83z"/>
	<path fill="#E9CEE0" stroke="#E9CEE0" stroke-width="0.3" d="M614.11,1148.39c0.07,0.12,0.19,0.35,0.25,0.46L614.11,1148.39z"/>
	<path fill="#E9CEE0" stroke="#E9CEE0" stroke-width="0.3" d="M473.01,1149.8199c0.37-1.6399,2.57-1.5399,3.06-0.0299
		C475.31,1149.8,473.77,1149.8101,473.01,1149.8199z"/>
	<path fill="#FFAACC" stroke="#FFAACC" stroke-width="0.3" d="M458.89,1150.77c0.96-1.67,3.14-1.52,4.22-0.0601
		C461.7,1151.03,460.29,1151.04,458.89,1150.77z"/>
	<path fill="#E9CEE0" stroke="#E9CEE0" stroke-width="0.3" d="M446.04,1151.85c0.72-1.4399,1.36-1.4,1.93,0.13
		C447.49,1151.95,446.52,1151.89,446.04,1151.85z"/>
	<path fill="#FFFFFF" stroke="#FFFFFF" stroke-width="0.3" d="M431.93,1152.84c0.92-1.71,3.09-1.4299,4.17-0.0499
		C434.7,1153.14,433.31,1153.15,431.93,1152.84z"/>
	<path fill="#FFAACC" stroke="#FFAACC" stroke-width="0.3" d="M417.9,1153.77c0.96-1.6801,3.14-1.51,4.22-0.0601
		C420.71,1154.02,419.3,1154.04,417.9,1153.77z"/>
	<path fill="#E9CEE0" stroke="#E9CEE0" stroke-width="0.3" d="M617.2,1153.39c0.07,0.13,0.22,0.37,0.3,0.5L617.2,1153.39z"/>
	<path fill="#FFFFFF" stroke="#FFFFFF" stroke-width="0.3" d="M403.91,1154.83c0.86-1.7999,3.14-1.5299,4.19-0.08
		C406.7,1154.99,405.31,1155.02,403.91,1154.83z"/>
	<path fill="#E9CEE0" stroke="#E9CEE0" stroke-width="0.3" d="M391.01,1155.83c0.36-1.64,2.56-1.5499,3.06-0.0399
		C393.31,1155.8,391.77,1155.8199,391.01,1155.83z"/>
	<path fill="#E9CEE0" stroke="#E9CEE0" stroke-width="0.3" d="M618.26,1155.3c0.07,0.13,0.21,0.3899,0.28,0.5199
		C618.47,1155.6899,618.33,1155.4301,618.26,1155.3z"/>
	<path fill="#FFAACC" stroke="#FFAACC" stroke-width="0.3" d="M377.92,1156.77c0.9-1.71,3.09-1.52,4.16-0.1
		C380.69,1157.01,379.31,1157.05,377.92,1156.77z"/>
	<path fill="#FFFFFF" stroke="#FFFFFF" stroke-width="0.3" d="M362.98,1157.95c0.72-1.8999,3.08-1.71,4.11-0.21
		C365.72,1157.96,364.36,1158.02,362.98,1157.95z"/>
	<path fill="#E9CEE0" stroke="#E9CEE0" stroke-width="0.3" d="M358.2,1158.88c0.12-0.12,0.35-0.34,0.47-0.46l0.28,0.3099
		L358.2,1158.88z"/>
	<path fill="#E9CEE0" stroke="#E9CEE0" stroke-width="0.3" d="M353.2,1159.8199c0.11-0.09,0.33-0.2899,0.44-0.38l0.29,0.25
		L353.2,1159.8199z"/>
	<path fill="#E9CEE0" stroke="#E9CEE0" stroke-width="0.3" d="M348.2,1160.84c0.11-0.1,0.33-0.3099,0.45-0.4099l0.28,0.2699
		L348.2,1160.84z"/>
	<path fill="#E9CEE0" stroke="#E9CEE0" stroke-width="0.3" d="M621.13,1160.39c0.08,0.14,0.25,0.42,0.33,0.5699
		C621.38,1160.8101,621.21,1160.53,621.13,1160.39z"/>
	<path fill="#E9CEE0" stroke="#E9CEE0" stroke-width="0.3" d="M343.19,1161.84c0.12-0.11,0.34-0.3099,0.45-0.4099l0.29,0.2699
		L343.19,1161.84z"/>
	<path fill="#E9CEE0" stroke="#E9CEE0" stroke-width="0.3" d="M338.19,1162.84c0.11-0.1,0.34-0.3099,0.45-0.4099l0.28,0.2699
		L338.19,1162.84z"/>
	<path fill="#E9CEE0" stroke="#E9CEE0" stroke-width="0.3" d="M333.2,1163.84c0.11-0.1,0.34-0.3099,0.45-0.4199l0.28,0.2799
		L333.2,1163.84z"/>
	<path fill="#E9CEE0" stroke="#E9CEE0" stroke-width="0.3" d="M328.19,1164.84c0.11-0.1,0.34-0.3099,0.45-0.4099l0.28,0.2699
		L328.19,1164.84z"/>
	<path fill="#E9CEE0" stroke="#E9CEE0" stroke-width="0.3" d="M323.2,1165.84c0.11-0.1,0.33-0.2999,0.44-0.4l0.29,0.25
		L323.2,1165.84z"/>
	<path fill="#E9CEE0" stroke="#E9CEE0" stroke-width="0.3" d="M624.25,1165.37c0.07,0.13,0.2,0.38,0.27,0.5L624.25,1165.37z"/>
	<path fill="#E9CEE0" stroke="#E9CEE0" stroke-width="0.3" d="M318.2,1166.88c0.12-0.12,0.35-0.35,0.46-0.46l0.28,0.3199
		L318.2,1166.88z"/>
	<path fill="#E9CEE0" stroke="#E9CEE0" stroke-width="0.3" d="M313.19,1167.84c0.11-0.11,0.34-0.3099,0.45-0.4199l0.28,0.2799
		L313.19,1167.84z"/>
	<path fill="#E9CEE0" stroke="#E9CEE0" stroke-width="0.3" d="M625.29,1167.26c0.08,0.14,0.25,0.41,0.34,0.54
		C625.54,1167.67,625.37,1167.4,625.29,1167.26z"/>
	<path fill="#E9CEE0" stroke="#E9CEE0" stroke-width="0.3" d="M308.2,1168.84c0.11-0.11,0.33-0.3099,0.45-0.4099l0.28,0.2699
		L308.2,1168.84z"/>
	<path fill="#E9CEE0" stroke="#E9CEE0" stroke-width="0.3" d="M303.2,1169.84c0.11-0.1,0.34-0.3099,0.45-0.4099l0.28,0.2699
		L303.2,1169.84z"/>
	<path fill="#E9CEE0" stroke="#E9CEE0" stroke-width="0.3" d="M298.19,1170.84c0.12-0.11,0.34-0.3099,0.45-0.4099l0.28,0.2699
		L298.19,1170.84z"/>
	<path fill="#E9CEE0" stroke="#E9CEE0" stroke-width="0.3" d="M627.25,1170.28c0.07,0.14,0.22,0.4,0.29,0.5399L627.25,1170.28z"/>
	<path fill="#E9CEE0" stroke="#E9CEE0" stroke-width="0.3" d="M293.2,1171.83c0.11-0.1,0.34-0.2999,0.45-0.4099l0.28,0.2699
		L293.2,1171.83z"/>
	<path fill="#E9CEE0" stroke="#E9CEE0" stroke-width="0.3" d="M288.19,1172.84c0.12-0.1,0.34-0.3099,0.46-0.4199l0.28,0.2799
		L288.19,1172.84z"/>
	<path fill="#E9CEE0" stroke="#E9CEE0" stroke-width="0.3" d="M628.23,1172.26c0.07,0.15,0.22,0.4399,0.29,0.58
		C628.45,1172.7,628.3,1172.41,628.23,1172.26z"/>
	<path fill="#E9CEE0" stroke="#E9CEE0" stroke-width="0.3" d="M283.2,1173.84c0.11-0.1,0.34-0.3099,0.45-0.4099l0.28,0.2699
		L283.2,1173.84z"/>
	<path fill="#E9CEE0" stroke="#E9CEE0" stroke-width="0.3" d="M278.2,1174.84c0.11-0.11,0.34-0.3199,0.45-0.4199l0.28,0.2799
		L278.2,1174.84z"/>
	<path fill="#E9CEE0" stroke="#E9CEE0" stroke-width="0.3" d="M273.2,1175.84c0.11-0.11,0.34-0.3099,0.45-0.4199l0.28,0.2799
		L273.2,1175.84z"/>
	<path fill="#E9CEE0" stroke="#E9CEE0" stroke-width="0.3" d="M268.19,1176.84c0.12-0.11,0.34-0.3099,0.46-0.4199l0.28,0.2799
		L268.19,1176.84z"/>
	<path fill="#E9CEE0" stroke="#E9CEE0" stroke-width="0.3" d="M263.19,1177.85c0.12-0.11,0.35-0.3199,0.46-0.4199l0.28,0.2799
		L263.19,1177.85z"/>
	<path fill="#E9CEE0" stroke="#E9CEE0" stroke-width="0.3" d="M631.12,1177.39c0.08,0.15,0.25,0.4299,0.33,0.5699
		C631.37,1177.8199,631.2,1177.54,631.12,1177.39z"/>
	<path fill="#E9CEE0" stroke="#E9CEE0" stroke-width="0.3" d="M258.18,1178.77c0.11-0.0801,0.32-0.25,0.43-0.3301l0.28,0.2101
		L258.18,1178.77z"/>
	<path fill="#E9CEE0" stroke="#E9CEE0" stroke-width="0.3" d="M253.06,1179.98c0.48-1.59,1.09-1.6699,1.83-0.23
		C254.43,1179.8101,253.52,1179.92,253.06,1179.98z"/>
	<path fill="#E9CEE0" stroke="#E9CEE0" stroke-width="0.3" d="M248.2,1180.8101c0.11-0.0901,0.33-0.27,0.44-0.3601l0.28,0.2201
		L248.2,1180.8101z"/>
	<path fill="#E9CEE0" stroke="#E9CEE0" stroke-width="0.3" d="M243.2,1181.84c0.11-0.1,0.34-0.3099,0.45-0.4199l0.28,0.2799
		L243.2,1181.84z"/>
	<path fill="#E9CEE0" stroke="#E9CEE0" stroke-width="0.3" d="M238.19,1182.84c0.12-0.1,0.34-0.3099,0.46-0.4099l0.28,0.2699
		L238.19,1182.84z"/>
	<path fill="#E9CEE0" stroke="#E9CEE0" stroke-width="0.3" d="M634.25,1182.41c0.06,0.11,0.2,0.34,0.27,0.46L634.25,1182.41z"/>
	<path fill="#E9CEE0" stroke="#E9CEE0" stroke-width="0.3" d="M233.2,1183.83c0.11-0.1,0.33-0.2999,0.45-0.3999l0.28,0.2599
		L233.2,1183.83z"/>
	<path fill="#E9CEE0" stroke="#E9CEE0" stroke-width="0.3" d="M228.2,1184.83c0.11-0.1,0.33-0.2999,0.45-0.3999l0.28,0.2599
		L228.2,1184.83z"/>
	<path fill="#E9CEE0" stroke="#E9CEE0" stroke-width="0.3" d="M635.29,1184.26c0.08,0.14,0.25,0.41,0.33,0.55
		C635.54,1184.67,635.37,1184.4,635.29,1184.26z"/>
	<path fill="#E9CEE0" stroke="#E9CEE0" stroke-width="0.3" d="M223.2,1185.84c0.11-0.1,0.34-0.3099,0.45-0.4099l0.28,0.2699
		L223.2,1185.84z"/>
	<path fill="#E9CEE0" stroke="#E9CEE0" stroke-width="0.3" d="M218.19,1186.84c0.12-0.1,0.34-0.3099,0.45-0.4099l0.28,0.2699
		L218.19,1186.84z"/>
	<path fill="#E9CEE0" stroke="#E9CEE0" stroke-width="0.3" d="M213.2,1187.84c0.11-0.11,0.34-0.3099,0.45-0.4199l0.28,0.2799
		L213.2,1187.84z"/>
	<path fill="#E9CEE0" stroke="#E9CEE0" stroke-width="0.3" d="M637.2,1187.3c0.07,0.12,0.2,0.36,0.27,0.48L637.2,1187.3z"/>
	<path fill="#E9CEE0" stroke="#E9CEE0" stroke-width="0.3" d="M208.2,1188.84c0.11-0.1,0.33-0.3099,0.45-0.4099l0.28,0.2699
		L208.2,1188.84z"/>
	<path fill="#E9CEE0" stroke="#E9CEE0" stroke-width="0.3" d="M203.2,1189.84c0.11-0.11,0.33-0.3099,0.45-0.4099l0.28,0.2699
		L203.2,1189.84z"/>
	<path fill="#E9CEE0" stroke="#E9CEE0" stroke-width="0.3" d="M638.26,1189.28c0.1,0.14,0.3,0.4299,0.4,0.5699
		C638.56,1189.71,638.36,1189.42,638.26,1189.28z"/>
	<path fill="#E9CEE0" stroke="#E9CEE0" stroke-width="0.3" d="M198.19,1190.78c0.11-0.0801,0.32-0.25,0.42-0.3301l0.29,0.2001
		L198.19,1190.78z"/>
	<path fill="#E9CEE0" stroke="#E9CEE0" stroke-width="0.3" d="M193.02,1191.9301c0.53-1.5601,1.15-1.62,1.85-0.1801
		C194.41,1191.79,193.49,1191.88,193.02,1191.9301z"/>
	<path fill="#E9CEE0" stroke="#E9CEE0" stroke-width="0.3" d="M640.08,1191.4c0.12,0.11,0.35,0.3199,0.47,0.4299
		C640.43,1191.72,640.2,1191.51,640.08,1191.4z"/>
	<path fill="#E9CEE0" stroke="#E9CEE0" stroke-width="0.3" d="M188.07,1192.98c0.47-1.59,1.07-1.6699,1.82-0.24
		C189.43,1192.8,188.52,1192.92,188.07,1192.98z"/>
	<path fill="#E9CEE0" stroke="#E9CEE0" stroke-width="0.3" d="M183.2,1193.8199c0.11-0.1,0.33-0.2899,0.45-0.3899l0.28,0.25
		L183.2,1193.8199z"/>
	<path fill="#E9CEE0" stroke="#E9CEE0" stroke-width="0.3" d="M178.2,1194.84c0.11-0.1,0.33-0.3099,0.45-0.4199l0.28,0.2799
		L178.2,1194.84z"/>
	<path fill="#E9CEE0" stroke="#E9CEE0" stroke-width="0.3" d="M644.19,1194.42c0.13,0.09,0.39,0.26,0.52,0.35
		C644.58,1194.6801,644.32,1194.51,644.19,1194.42z"/>
	<path fill="#E9CEE0" stroke="#E9CEE0" stroke-width="0.3" d="M173.2,1195.84c0.11-0.11,0.33-0.3099,0.45-0.4099l0.28,0.2699
		L173.2,1195.84z"/>
	<path fill="#E9CEE0" stroke="#E9CEE0" stroke-width="0.3" d="M168.2,1196.83c0.11-0.1,0.33-0.2999,0.45-0.3999l0.28,0.2599
		L168.2,1196.83z"/>
	<path fill="#E9CEE0" stroke="#E9CEE0" stroke-width="0.3" d="M647.08,1196.4301c0.13,0.1,0.4,0.2899,0.53,0.38
		C647.48,1196.72,647.21,1196.53,647.08,1196.4301z"/>
	<path fill="#E9CEE0" stroke="#E9CEE0" stroke-width="0.3" d="M163.2,1197.83c0.11-0.1,0.33-0.2899,0.44-0.39l0.29,0.25
		L163.2,1197.83z"/>
	<path fill="#E9CEE0" stroke="#E9CEE0" stroke-width="0.3" d="M158.2,1198.84c0.11-0.11,0.33-0.3099,0.45-0.4099l0.28,0.2699
		L158.2,1198.84z"/>
	<path fill="#E9CEE0" stroke="#E9CEE0" stroke-width="0.3" d="M153.19,1199.84c0.12-0.11,0.34-0.3099,0.46-0.4199l0.28,0.2799
		L153.19,1199.84z"/>
	<path fill="#E9CEE0" stroke="#E9CEE0" stroke-width="0.3" d="M651.16,1199.4301c0.1201,0.09,0.3701,0.2699,0.5,0.36
		C651.53,1199.7,651.28,1199.52,651.16,1199.4301z"/>
	<path fill="#E9CEE0" stroke="#E9CEE0" stroke-width="0.3" d="M148.2,1200.83c0.11-0.1,0.34-0.3099,0.45-0.4099l0.28,0.2699
		L148.2,1200.83z"/>
	<path fill="#E9CEE0" stroke="#E9CEE0" stroke-width="0.3" d="M143.2,1201.84c0.11-0.1,0.33-0.3099,0.45-0.4099l0.28,0.2699
		L143.2,1201.84z"/>
	<path fill="#E9CEE0" stroke="#E9CEE0" stroke-width="0.3" d="M138.19,1202.84c0.12-0.11,0.34-0.3099,0.45-0.4099l0.29,0.2699
		L138.19,1202.84z"/>
	<path fill="#E9CEE0" stroke="#E9CEE0" stroke-width="0.3" d="M133.19,1203.83c0.12-0.1,0.34-0.2999,0.45-0.3999l0.28,0.2599
		L133.19,1203.83z"/>
	<path fill="#E9CEE0" stroke="#E9CEE0" stroke-width="0.3" d="M128.2,1204.85c0.11-0.1,0.34-0.3099,0.45-0.41l0.28,0.27
		L128.2,1204.85z"/>
	<path fill="#E9CEE0" stroke="#E9CEE0" stroke-width="0.3" d="M123.27,1205.84c0.1-0.1,0.32-0.2999,0.42-0.4l0.29,0.26
		L123.27,1205.84z"/>
	<path stroke="#000000" stroke-width="0.3" d="M681.1,1341.13c16.6-1.36,33.3-1.74,49.9301-2.88
		c4.5099-0.51,8.9399,0.67,13.35,1.4301c33.22,5.87,66.38,12.1,99.64,17.74c3.52,0.89,7.33,1.0499,10.47,3.0699
		c16.95,10.41,33.92,20.78,50.92,31.11c8.66,4.55,17.48,8.8,26.22,13.1901c2,1.01,4.04,2.3999,6.42,2.01
		c9.08-0.6801,18.19-0.99,27.26-1.9301c32.86-2.1899,65.7401-4.45,98.59-6.84c12.71-2.99,25.25-6.73,37.84-10.2101
		c19.17-5,38.0601-11.08,57.4401-15.23c42.2999-7.1799,84.49-15.0699,126.7799-22.34c5.02-0.37,10.0601,0.1801,15.1001,0.2
		c26.3199,0.9301,52.6599,1.5701,78.98,2.41c3.7999-0.2999,6.46,2.8101,9.39,4.7001c4.72,3.6699,10.0199,6.6299,14.4399,10.6599
		c-1.66,44.5901-3.88,89.17-5.67,133.76c0.15,5.03-2.5399,9.4301-4.1399,14.04c-7.77,19.61-15.2001,39.39-23.2001,58.9
		c-11.54,13.0399-23.5699,25.71-35.3099,38.59c-11.27,12.03-22.12,24.5-33.65,36.27c-9.5701-3.0601-18.92-6.86-28.42-10.15
		c-5.96-1.79-10.7-5.98-15.91-9.1801c-39.95-26.3999-80.0199-52.6399-119.9199-79.12c-9.02-11.73-16.86-24.4399-25.42-36.5499
		c-4.9299-6.8-9.1799-14.13-14.46-20.62c-30.26,0.64-60.53,1.86-90.78,2.8099c-1.99-0.3199-3.2,1.35-4.43,2.5801
		c-13.16,14.1799-26.48,28.22-39.66,42.38c-3.64,4.0299-7.9901,7.3099-12.06,10.88c-30.8,26.2-61.4901,52.5299-92.32,78.6799
		c-7.18,2.96-14.99,4.34-22.36,6.83c-30.72,8.76-61.36,17.9-92.1,26.52c-11.57-28.1799-22.66-56.58-34.07-84.83
		c-3.12-7.33-4.74-15.17-7.14-22.73c-7.22-25.15-14.72-50.23-21.79-75.42c-3.07-20.67-5.65-41.42-8.6-62.11
		c-0.67-3.5601-0.08-7.14,0.36-10.67C675.64,1386.4399,678.1,1363.75,681.1,1341.13z"/>
	<path fill="#FFFFFF" stroke="#FFFFFF" stroke-width="0.3" d="M931.63,1404.79c5.94-1.73,12.26-0.4,18.37-0.77
		c5.08,0.4,10.44-1.02,15.31,0.85c-9.07,0.9401-18.18,1.25-27.26,1.9301C935.67,1407.1899,933.63,1405.8,931.63,1404.79z"/>
	<path stroke="#000000" stroke-width="0.3" d="M660.03,1205.92c-1.96-1.5901-4.08-2.9401-6.09-4.4501
		c-0.57-0.4199-1.71-1.26-2.28-1.6799c-0.1299-0.0901-0.3799-0.27-0.5-0.36c-1.21-0.88-2.4-1.7401-3.55-2.62
		c-0.13-0.0901-0.4-0.28-0.53-0.38c-0.59-0.42-1.78-1.25-2.37-1.66c-0.13-0.09-0.39-0.26-0.52-0.35
		c-1.24-0.86-2.49-1.67-3.64-2.5901c-0.12-0.11-0.35-0.3199-0.47-0.4299c-0.36-0.39-1.07-1.16-1.42-1.55
		c-0.1-0.14-0.3-0.4299-0.4-0.5699c-0.19-0.38-0.59-1.13-0.79-1.5l-0.27-0.48c-0.4-0.62-1.19-1.87-1.58-2.49
		c-0.08-0.14-0.25-0.41-0.33-0.55c-0.19-0.35-0.58-1.04-0.77-1.39l-0.27-0.46c-0.99-1.4701-1.96-2.9301-2.8-4.4501
		c-0.08-0.14-0.25-0.4199-0.33-0.5699c-0.91-1.5-1.8-3.01-2.6-4.55c-0.07-0.14-0.22-0.4299-0.29-0.58
		c-0.17-0.36-0.52-1.08-0.69-1.4401l-0.29-0.5399c-0.41-0.62-1.22-1.86-1.62-2.48c-0.09-0.13-0.26-0.4-0.34-0.54
		c-0.19-0.35-0.58-1.04-0.77-1.39l-0.27-0.5c-1.04-1.42-1.95-2.9-2.79-4.41c-0.08-0.1499-0.25-0.4299-0.33-0.5699
		c-0.92-1.51-1.78-3.04-2.59-4.5701c-0.07-0.13-0.21-0.3899-0.28-0.5199c-0.19-0.3601-0.57-1.0601-0.76-1.41l-0.3-0.5
		c-1.14-1.41-2.15-2.89-2.84-4.54l-0.25-0.46c-0.92-1.49-1.81-3-2.65-4.51c-0.07-0.12-0.2-0.35-0.27-0.46
		c-0.76-1.17-1.56-2.3-2.56-3.2201c-2.86-0.12-5.69,0.38-8.53,0.6001c-1.4,0.35-2.8,0.36-4.18,0.0199
		c-3.62,0.3101-7.23,0.75-10.86,1.04c-0.77-0.01-2.3-0.03-3.07-0.0499c-3.3,0.4099-6.6,0.84-9.92,1.0599
		c-0.77-0.01-2.3-0.04-3.07-0.05c-3.65,0.29-7.28,0.6901-10.93,0.9701c-0.77,0-2.3,0.01-3.07,0.01
		c-3.65,0.3099-7.28,0.7799-10.94,1.0599c-0.76-0.01-2.3-0.04-3.06-0.0599c-3.3,0.36-6.59,0.7699-9.9,0.95
		c-1.4,0.24-2.8,0.26-4.19,0.08c-3.28,0.37-6.56,0.7201-9.84,0.9601c-0.77,0.01-2.3,0.0299-3.07,0.0399
		c-2.96,0.3-5.92,0.64-8.89,0.87c-1.4,0.3201-2.8,0.3401-4.2,0.0601c-3.95,0.38-7.88,0.9-11.85,1.11c-0.77-0.01-2.31-0.03-3.08-0.04
		c-3.3,0.3501-6.6,0.7201-9.91,0.9601c-0.76,0.01-2.3,0.02-3.06,0.0299c-3.31,0.26-6.6,0.62-9.9,0.89
		c-1.41,0.3201-2.8199,0.3301-4.22,0.0601c-3.62,0.52-7.26,1.0599-10.92,1.21c-0.48-0.03-1.45-0.09-1.93-0.13
		c-3.32,0.3201-6.62,0.7101-9.94,0.9401c-1.4,0.35-2.79,0.36-4.17,0.0499c-3.28,0.26-6.54,0.6-9.81,0.87
		c-1.41,0.3101-2.82,0.3301-4.22,0.0601c-3.26,0.4-6.52,0.8099-9.8,0.98c-1.4,0.24-2.79,0.27-4.19,0.08
		c-3.27,0.37-6.55,0.7201-9.84,0.9601c-0.76,0.01-2.3,0.0299-3.06,0.0399c-2.98,0.27-5.95,0.5801-8.93,0.8401
		c-1.39,0.34-2.77,0.38-4.16,0.1c-3.61,0.33-7.21,0.78-10.83,0.97c-1.37,0.22-2.73,0.28-4.11,0.21c-1.34,0.26-2.6801,0.54-4.03,0.78
		l-0.75,0.15c-1.42,0.3-2.84,0.58-4.27,0.8099l-0.73,0.13c-1.42,0.3401-2.84,0.64-4.27,0.88l-0.73,0.14
		c-1.42,0.3201-2.84,0.62-4.27,0.86l-0.74,0.14c-1.41,0.3201-2.83,0.62-4.27,0.86l-0.73,0.14c-1.41,0.3201-2.83,0.62-4.26,0.86
		l-0.73,0.14c-1.42,0.3201-2.84,0.62-4.28,0.86l-0.73,0.14c-1.41,0.3201-2.83,0.62-4.26,0.85l-0.73,0.15
		c-1.41,0.3301-2.83,0.64-4.26,0.9l-0.74,0.14c-1.42,0.3-2.85,0.59-4.28,0.8199l-0.73,0.14c-1.41,0.3201-2.83,0.62-4.26,0.86
		l-0.73,0.14c-1.42,0.3201-2.84,0.62-4.27,0.86l-0.73,0.14c-1.42,0.3301-2.84,0.62-4.28,0.86l-0.73,0.14
		c-1.41,0.3201-2.83,0.62-4.26,0.85l-0.73,0.14c-1.42,0.3301-2.84,0.63-4.27,0.87l-0.74,0.14c-1.41,0.3201-2.83,0.62-4.26,0.86
		l-0.73,0.14c-1.42,0.3201-2.84,0.62-4.27,0.86l-0.73,0.14c-1.42,0.3201-2.84,0.62-4.27,0.86l-0.73,0.14
		c-1.42,0.3201-2.84,0.62-4.27,0.86l-0.74,0.14c-1.41,0.3201-2.83,0.63-4.26,0.87l-0.74,0.14c-1.42,0.3101-2.85,0.6-4.3,0.8
		l-0.71,0.12c-1.09,0.34-2.19,0.66-3.29,0.98c-0.46,0.0601-1.37,0.17-1.83,0.23c-1.38,0.23-2.76,0.49-4.14,0.6901l-0.72,0.14
		c-1.41,0.35-2.84,0.6499-4.27,0.8899l-0.73,0.14c-1.42,0.3201-2.84,0.62-4.27,0.86l-0.74,0.14c-1.41,0.3201-2.83,0.62-4.26,0.85
		l-0.73,0.14c-1.42,0.3301-2.84,0.63-4.27,0.86l-0.73,0.14c-1.42,0.3301-2.84,0.63-4.27,0.87l-0.73,0.14
		c-1.42,0.3201-2.84,0.62-4.28,0.86l-0.73,0.14c-1.41,0.3201-2.83,0.62-4.26,0.86l-0.73,0.14c-1.42,0.3201-2.84,0.62-4.27,0.86
		l-0.73,0.14c-1.42,0.3201-2.84,0.62-4.27,0.86l-0.73,0.14c-1.43,0.3201-2.86,0.61-4.3,0.8101l-0.71,0.13
		c-1.1,0.33-2.21,0.6599-3.32,0.97c-0.46,0.04-1.38,0.13-1.85,0.1801c-1.04,0.25-2.09,0.5199-3.13,0.8099
		c-0.46,0.0601-1.37,0.1801-1.82,0.24c-1.38,0.23-2.76,0.49-4.14,0.7001l-0.73,0.1399c-1.42,0.3401-2.84,0.64-4.27,0.88l-0.73,0.14
		c-1.42,0.3201-2.84,0.62-4.27,0.86l-0.73,0.14c-1.42,0.3201-2.84,0.62-4.27,0.85l-0.73,0.14c-1.42,0.3301-2.84,0.63-4.27,0.86
		l-0.73,0.14c-1.42,0.3301-2.84,0.63-4.27,0.87l-0.73,0.14c-1.42,0.3201-2.84,0.62-4.27,0.86l-0.74,0.14
		c-1.41,0.3201-2.83,0.61-4.26,0.85l-0.73,0.14c-1.42,0.3301-2.84,0.63-4.27,0.87l-0.73,0.14c-1.42,0.3201-2.84,0.62-4.27,0.86
		l-0.74,0.14c-1.41,0.3201-2.83,0.62-4.27,0.85l-0.73,0.14c-1.41,0.3301-2.83,0.63-4.26,0.88l-0.73,0.14
		c-1.4,0.3201-2.8,0.62-4.22,0.85l-0.71,0.14c-38.41,19.52-77.08,38.53-115.54,57.9301c-2.54,1.29-5.13,2.48-7.73,3.6699V1888v11.09
		V1920h611.5v-9.1104c0.1467-0.0042,0.2933-0.0052,0.44-0.0096c1.7-21.78,2.22-43.65,3.58-65.46
		c2.4-49.4801,5.04-98.9301,7.45-148.41c2.6801-51.01,6.05-101.99,8.98-152.99c1.19-25.4301,4.59-50.6801,7.02-76.01
		c6.9901-67.65,14.01-135.29,20.96-202.9401C660.11,1245.36,659.92,1225.64,660.03,1205.92z"/>
	<path stroke="#000000" stroke-width="0.3" d="M1908.0181,1877.5c-0.0396-196.1643,0.001-392.3365-0.0181-588.5
		c-0.2-8.55,0.3701-17.13-0.24-25.65c-3.2-4.48-9.1301-5.22-13.8801-7.22c-150.0898-54.54-300.0898-109.3199-450.1699-163.86
		c-17.8099-6.48-35.62-12.96-53.39-19.5601c-2.37-0.9299-4.95-0.83-7.4199-0.96c-2.48,0.04-4.3301,1.71-5.7101,3.6
		c-0.98,3.84,1,7.5701,0.8,11.42c1.92,10.14,2.95,20.4399,4.58,30.64c1.76,10.86,2.51,21.9299,5.42,32.59
		c10.09,38.02,19.8,76.15,29.8101,114.2c2.6499,12.14,6.98,23.9,8.7799,36.2201c4.89,25.2,9.4301,50.47,14.29,75.6899
		c0.41,4.33,1.98,8.49,2.15,12.86c-0.02,31.6801-0.05,63.37,0.01,95.0601c-5.4501,50.52-11.14,101.03-16.4401,151.5599
		c-5.22,40.8-12.1899,81.42-17.87,122.1801c-0.6,4.4-1.9399,8.72-1.75,13.21c-0.14,5.0701,0.61,10.26-0.73,15.24
		c-0.98,8.24,0.84,16.7101-1.14,24.86c-0.65,7.9701,0.88,16.12-0.99,23.99c-0.66,7.9801,0.87,16.13-1,24
		c-0.66,7.9801,0.87,16.13-1.01,24c-0.2999,4.62-0.03,9.28-0.08,13.92c0.4,6.59-2.1,13.03-0.8,19.64
		c0.9501,1.1899,2.0601,2.26,3.1801,3.37h19.96h483.7399v-42.5H1908.0181z"/>
</g>
</svg>
