<?xml version="1.0" encoding="UTF-8" standalone="no"?>
<svg
   version="1.2"
   width="142.38mm"
   height="106.91mm"
   viewBox="0 0 14238 10691"
   preserveAspectRatio="xMidYMid"
   fill-rule="evenodd"
   stroke-width="28.222"
   stroke-linejoin="round"
   xml:space="preserve"
   id="svg2117"
   sodipodi:docname="Policeman1.svg"
   inkscape:version="1.2.2 (732a01da63, 2022-12-09, custom)"
   xmlns:inkscape="http://www.inkscape.org/namespaces/inkscape"
   xmlns:sodipodi="http://sodipodi.sourceforge.net/DTD/sodipodi-0.dtd"
   xmlns="http://www.w3.org/2000/svg"
   xmlns:svg="http://www.w3.org/2000/svg"
   xmlns:ooo="http://xml.openoffice.org/svg/export"><sodipodi:namedview
   id="namedview2119"
   pagecolor="#ffffff"
   bordercolor="#000000"
   borderopacity="0.25"
   inkscape:showpageshadow="2"
   inkscape:pageopacity="0.0"
   inkscape:pagecheckerboard="0"
   inkscape:deskcolor="#d1d1d1"
   inkscape:document-units="mm"
   showgrid="false"
   inkscape:zoom="2.0491534"
   inkscape:cx="268.89153"
   inkscape:cy="124.68564"
   inkscape:window-width="1850"
   inkscape:window-height="1016"
   inkscape:window-x="0"
   inkscape:window-y="0"
   inkscape:window-maximized="1"
   inkscape:current-layer="layer5" />
 <defs
   class="ClipPathGroup"
   id="defs1800">
  <clipPath
   id="presentation_clip_path"
   clipPathUnits="userSpaceOnUse">
   <rect
   x="0"
   y="0"
   width="14238"
   height="10691"
   id="rect1794" />
  </clipPath>
  <clipPath
   id="presentation_clip_path_shrink"
   clipPathUnits="userSpaceOnUse">
   <rect
   x="14"
   y="10"
   width="14210"
   height="10670"
   id="rect1797" />
  </clipPath>
 </defs>
 <defs
   class="TextShapeIndex"
   id="defs1804">
  <g
   ooo:slide="id1"
   ooo:id-list="id3 id4 id5 id6 id7 id8 id9 id10 id11 id12 id13 id14 id15 id16 id17 id18 id19 id20 id21 id22 id23 id24 id25 id26 id27 id28 id29 id30 id31 id32 id33 id34 id35 id36 id37 id38 id39 id40"
   id="g1802" />
 </defs>
 <defs
   class="EmbeddedBulletChars"
   id="defs1836">
  <g
   id="bullet-char-template-57356"
   transform="scale(0.00048828125,-0.00048828125)">
   <path
   d="M 580,1141 L 1163,571 580,0 -4,571 580,1141 Z"
   id="path1806" />
  </g>
  <g
   id="bullet-char-template-57354"
   transform="scale(0.00048828125,-0.00048828125)">
   <path
   d="M 8,1128 L 1137,1128 1137,0 8,0 8,1128 Z"
   id="path1809" />
  </g>
  <g
   id="bullet-char-template-10146"
   transform="scale(0.00048828125,-0.00048828125)">
   <path
   d="M 174,0 L 602,739 174,1481 1456,739 174,0 Z M 1358,739 L 309,1346 659,739 1358,739 Z"
   id="path1812" />
  </g>
  <g
   id="bullet-char-template-10132"
   transform="scale(0.00048828125,-0.00048828125)">
   <path
   d="M 2015,739 L 1276,0 717,0 1260,543 174,543 174,936 1260,936 717,1481 1274,1481 2015,739 Z"
   id="path1815" />
  </g>
  <g
   id="bullet-char-template-10007"
   transform="scale(0.00048828125,-0.00048828125)">
   <path
   d="M 0,-2 C -7,14 -16,27 -25,37 L 356,567 C 262,823 215,952 215,954 215,979 228,992 255,992 264,992 276,990 289,987 310,991 331,999 354,1012 L 381,999 492,748 772,1049 836,1024 860,1049 C 881,1039 901,1025 922,1006 886,937 835,863 770,784 769,783 710,716 594,584 L 774,223 C 774,196 753,168 711,139 L 727,119 C 717,90 699,76 672,76 641,76 570,178 457,381 L 164,-76 C 142,-110 111,-127 72,-127 30,-127 9,-110 8,-76 1,-67 -2,-52 -2,-32 -2,-23 -1,-13 0,-2 Z"
   id="path1818" />
  </g>
  <g
   id="bullet-char-template-10004"
   transform="scale(0.00048828125,-0.00048828125)">
   <path
   d="M 285,-33 C 182,-33 111,30 74,156 52,228 41,333 41,471 41,549 55,616 82,672 116,743 169,778 240,778 293,778 328,747 346,684 L 369,508 C 377,444 397,411 428,410 L 1163,1116 C 1174,1127 1196,1133 1229,1133 1271,1133 1292,1118 1292,1087 L 1292,965 C 1292,929 1282,901 1262,881 L 442,47 C 390,-6 338,-33 285,-33 Z"
   id="path1821" />
  </g>
  <g
   id="bullet-char-template-9679"
   transform="scale(0.00048828125,-0.00048828125)">
   <path
   d="M 813,0 C 632,0 489,54 383,161 276,268 223,411 223,592 223,773 276,916 383,1023 489,1130 632,1184 813,1184 992,1184 1136,1130 1245,1023 1353,916 1407,772 1407,592 1407,412 1353,268 1245,161 1136,54 992,0 813,0 Z"
   id="path1824" />
  </g>
  <g
   id="bullet-char-template-8226"
   transform="scale(0.00048828125,-0.00048828125)">
   <path
   d="M 346,457 C 273,457 209,483 155,535 101,586 74,649 74,723 74,796 101,859 155,911 209,963 273,989 346,989 419,989 480,963 531,910 582,859 608,796 608,723 608,648 583,586 532,535 482,483 420,457 346,457 Z"
   id="path1827" />
  </g>
  <g
   id="bullet-char-template-8211"
   transform="scale(0.00048828125,-0.00048828125)">
   <path
   d="M -4,459 L 1135,459 1135,606 -4,606 -4,459 Z"
   id="path1830" />
  </g>
  <g
   id="bullet-char-template-61548"
   transform="scale(0.00048828125,-0.00048828125)">
   <path
   d="M 173,740 C 173,903 231,1043 346,1159 462,1274 601,1332 765,1332 928,1332 1067,1274 1183,1159 1299,1043 1357,903 1357,740 1357,577 1299,437 1183,322 1067,206 928,148 765,148 601,148 462,206 346,322 231,437 173,577 173,740 Z"
   id="path1833" />
  </g>
 </defs>
 
 <g
   inkscape:groupmode="layer"
   id="layer5"
   inkscape:label="Layer 1"><path
     fill="#000000"
     stroke="none"
     d="m 2898,10630 c -196,-80 -436,-296 -477,-428 -18,-55 -121,-112 -399,-219 -95,-36 -252,-125 -347,-197 -96,-72 -198,-145 -227,-163 -108,-67 -192,-298 -166,-460 39,-235 396,-325 698,-175 275,136 692,187 740,90 59,-122 303,-215 704,-269 476,-63 692,-174 1040,-534 219,-226 275,-305 395,-552 70,-145 125,-222 193,-272 182,-133 286,-247 370,-407 46,-89 135,-239 196,-335 192,-300 197,-315 149,-443 -52,-136 -38,-169 162,-375 250,-259 346,-405 346,-528 0,-60 12,-130 27,-158 36,-67 -1,-107 -145,-156 -75,-26 -154,-81 -228,-160 -87,-93 -135,-124 -212,-135 -116,-18 -404,-130 -459,-179 -53,-47 -520,-277 -607,-299 -79,-19 -319,-129 -457,-208 -79,-45 -119,-47 -587,-33 -349,11 -548,6 -654,-15 -129,-25 -178,-23 -323,12 -146,36 -201,37 -367,13 -314,-46 -367,-67 -467,-189 -108,-132 -115,-133 -219,-30 -332,326 -819,316 -561,-12 98,-125 -106,-166 -284,-56 -125,77 -245,81 -295,9 -20,-28 -48,-45 -62,-36 -59,36 -288,33 -332,-5 -22,-19 -36,-45 -43,-74 v -106 c 27,-140 148,-297 279,-297 39,0 113,-21 165,-48 86,-44 114,-46 344,-21 319,35 445,12 501,-92 73,-133 568,-274 1081,-309 243,-16 321,-31 421,-82 207,-104 354,-143 591,-156 234,-12 362,-49 573,-164 121,-66 122,-67 55,-84 -137,-34 -220,-254 -134,-355 80,-93 193,-344 219,-485 44,-236 150,-567 201,-625 26,-28 53,-94 62,-145 18,-112 238,-363 383,-437 53,-27 130,-87 173,-134 137,-151 217,-144 565,48 364,202 575,429 682,733 203,581 178,554 534,570 148,7 286,9 306,5 37,-7 77,-196 107,-513 43,-468 117,-563 388,-493 256,66 303,118 280,315 -9,84 -21,192 -26,240 -6,48 -23,195 -38,327 -35,288 -42,275 167,328 93,23 210,54 261,69 112,33 498,310 593,425 39,48 134,112 225,152 718,319 1053,1067 685,1532 -83,105 -75,143 30,143 40,0 143,22 228,48 86,26 199,56 252,68 176,38 236,262 147,545 l -41,132 150,193 c 82,107 172,238 200,292 198,386 729,390 945,8 41,-73 84,-147 95,-165 11,-17 87,-41 169,-53 204,-29 231,-43 284,-148 79,-154 257,-300 367,-300 245,0 567,131 779,317 90,79 173,130 232,141 468,87 913,880 645,1148 l -111,111 -180,-18 c -135,-13 -219,-38 -330,-99 -211,-115 -369,-134 -455,-54 -36,33 -106,74 -157,90 -239,76 -726,560 -999,992 -227,360 -1329,488 -1731,200 -207,-148 -579,-293 -986,-383 -102,-23 -253,-57 -335,-76 -82,-19 -179,-41 -217,-48 -94,-21 -436,118 -625,253 -83,59 -273,190 -423,291 -150,102 -315,216 -366,254 -52,38 -157,112 -235,166 -78,54 -186,138 -241,188 -55,50 -172,142 -261,204 -89,62 -219,173 -288,246 -69,73 -214,226 -321,341 -200,212 -662,598 -716,598 -16,0 -74,37 -127,83 -54,46 -148,109 -209,139 -129,66 -272,183 -584,481 -243,231 -255,236 -390,164 -170,-91 -254,-71 -341,84 -143,253 -327,316 -599,204 z"
     id="path1845"
     style="display:inline;fill:#000000" /><g
     id="layer6"
     inkscape:label="shoes"
     style="display:inline"><path
       fill="#000000"
       stroke="none"
       d="m 3101,10515 c 120,0 -9,-304 -142,-338 -95,-24 -341,69 -351,132 -13,89 294,250 413,216 18,-5 54,-10 80,-10 z"
       id="path1852" /><path
       fill="#000000"
       stroke="none"
       d="m 3403,10218 c 131,-271 142,-328 96,-461 -115,-326 -317,-524 -507,-496 -56,8 -167,21 -245,30 -125,13 -145,23 -158,75 -19,75 -93,68 -104,-9 -11,-75 -53,-103 -193,-129 -195,-37 -216,3 -57,104 143,92 302,265 344,376 68,178 -5,147 -210,-89 -170,-195 -366,-369 -418,-369 -14,0 -101,-39 -193,-86 -254,-132 -369,-99 -369,105 0,228 223,435 679,630 124,53 282,124 351,158 147,73 179,75 334,19 157,-55 278,-17 426,133 124,127 166,128 224,9 z"
       id="path1859" /><path
       fill="#000000"
       stroke="none"
       d="m 14003,6156 c 234,-157 -123,-815 -493,-907 -92,-24 -310,-155 -418,-252 -156,-140 -538,-238 -676,-173 -205,98 -190,263 35,383 321,172 545,375 545,495 0,81 73,145 200,176 72,17 164,62 210,103 157,137 502,238 597,175 z"
       id="path1894" /></g><g
     id="layer7"
     inkscape:label="pants"
     style="display:inline"><path
       fill="#2a6099"
       stroke="none"
       d="m 4217,9922 c 84,-70 85,-74 38,-109 -59,-44 -17,-116 67,-116 69,0 528,-210 667,-306 376,-258 491,-347 584,-457 147,-174 231,-303 231,-355 0,-25 66,-103 147,-174 81,-72 176,-182 210,-246 60,-111 84,-127 443,-308 718,-362 782,-434 268,-299 -285,75 -406,80 -394,19 6,-31 70,-59 231,-101 369,-97 1040,-388 1284,-557 148,-102 66,-391 -144,-506 -153,-85 -175,-110 -126,-146 102,-74 -7,-323 -152,-348 -51,-8 -129,-28 -173,-43 -107,-36 -187,22 -304,223 -48,81 -129,197 -180,256 -51,59 -93,117 -93,127 0,119 -327,132 -488,19 -235,-165 -445,-10 -727,538 -157,303 -167,316 -339,437 -163,114 -183,138 -233,277 -177,489 -332,735 -464,735 -94,0 -163,30 -254,110 -190,169 -513,325 -720,347 -662,71 -707,92 -456,213 191,93 399,306 507,521 164,328 371,418 570,249 z"
       id="path1866" /><path
       fill="#2a6099"
       stroke="none"
       d="m 11244,7340 c 491,-105 696,-335 812,-914 61,-301 158,-381 196,-162 17,97 115,110 213,27 40,-33 129,-89 199,-124 206,-104 173,-569 -49,-691 -33,-18 -106,-59 -164,-91 -325,-178 -745,-200 -745,-38 0,57 19,68 174,96 146,27 173,39 173,76 0,20 -19,36 -43,37 -257,8 -366,39 -533,154 -88,60 -73,88 155,279 200,168 268,268 222,324 -48,58 -104,42 -272,-76 -259,-182 -309,-133 -87,87 195,192 252,395 87,310 -39,-21 -90,-37 -111,-37 -85,0 -189,-81 -285,-223 -181,-267 -373,-373 -511,-282 -79,51 -87,42 -147,-170 l -50,-176 -193,-133 c -192,-131 -439,-191 -439,-106 0,80 -260,277 -574,434 -208,105 -378,209 -458,283 -82,75 -170,129 -243,149 -157,44 -144,101 31,140 120,27 348,129 649,292 61,33 161,77 223,98 199,68 680,271 744,314 92,62 352,126 593,147 222,19 236,18 433,-24 z"
       id="path1873" /></g><g
     id="layer8"
     inkscape:label=" jacket"
     style="display:inline"><path
       fill="#2a6099"
       stroke="none"
       d="m 6601,6410 c 47,-24 95,-82 129,-155 29,-64 83,-155 119,-203 270,-357 255,-606 -41,-669 -81,-17 -179,-47 -215,-66 -151,-77 -211,-35 -166,114 38,128 -23,227 -319,516 -225,220 -246,279 -99,279 56,0 137,35 252,111 186,122 227,131 340,73 z"
       id="path1880" /><path
       fill="#2a6099"
       stroke="none"
       d="m 8484,6249 c 86,-16 146,-42 168,-74 19,-27 42,-50 52,-50 10,0 60,-39 111,-86 50,-48 106,-87 124,-87 17,0 75,-32 128,-70 53,-39 178,-117 277,-175 173,-101 502,-435 502,-510 0,-35 145,-379 233,-551 134,-264 96,-331 -265,-465 -263,-96 -409,-110 -643,-61 -197,41 -198,81 -2,96 174,13 236,60 114,88 -255,57 -474,154 -494,219 -27,85 -285,322 -445,410 -81,44 -159,90 -172,101 -73,57 -439,222 -552,248 -172,39 -166,74 12,75 178,0 363,53 374,107 16,81 -109,81 -610,-1 -105,-17 -113,65 -12,131 38,24 101,77 141,117 41,40 119,94 174,121 271,128 341,183 388,302 60,152 114,168 397,115 z"
       id="path1887" /><path
       fill="#2a6099"
       stroke="none"
       d="m 6772,4940 c -17,-33 -14,-61 12,-98 54,-77 181,-30 202,74 14,72 17,74 129,57 581,-85 1525,-673 1050,-654 -78,3 -237,-8 -353,-24 -339,-47 -388,-41 -479,55 -128,135 -279,143 -360,19 -71,-108 -117,-980 -60,-1132 42,-113 79,-516 97,-1073 l 16,-502 h -116 c -119,0 -142,21 -78,74 172,143 -52,360 -366,353 -217,-5 -266,16 -165,70 76,41 196,321 196,457 0,104 -3,111 -46,84 -39,-24 -59,-20 -115,24 -97,76 -113,50 -95,-155 18,-215 -1,-317 -54,-296 -20,8 -37,23 -37,34 0,11 -44,90 -97,177 -149,241 -326,592 -298,592 14,0 53,-19 88,-42 109,-71 133,37 34,153 -23,27 -49,71 -58,96 -13,35 -32,42 -78,31 -34,-8 -90,-22 -124,-31 -83,-20 -83,37 0,115 43,40 62,84 60,135 -10,284 94,639 198,678 22,8 90,56 151,107 177,146 401,242 342,147 -39,-62 -1,-106 91,-106 88,0 162,73 162,159 0,82 39,90 153,31 192,-99 195,64 2,174 -141,80 -178,182 -86,236 72,42 110,33 82,-19 z"
       id="path1908"
       sodipodi:insensitive="true"
       style="display:inline" /><path
       fill="#2a6099"
       stroke="none"
       d="m 6448,4896 c 0,-19 -20,-35 -44,-35 -24,0 -75,-17 -114,-37 -121,-63 -218,-38 -131,34 100,84 289,108 289,38 z"
       id="path1943" /><path
       fill="#2a6099"
       stroke="none"
       d="m 6408,4746 c 76,-29 50,-137 -29,-118 -95,22 -119,50 -81,95 35,42 52,46 110,23 z"
       id="path1957"
       style="display:inline" /><path
       fill="#2a6099"
       stroke="none"
       d="m 6070,4522 c 5,-17 -37,-54 -94,-83 -239,-122 -395,-381 -395,-655 0,-76 -15,-119 -53,-153 -28,-26 -68,-77 -87,-115 -42,-81 -166,-92 -367,-31 -246,75 -402,4 -511,-233 -16,-36 -45,-98 -64,-139 -19,-41 -41,-111 -50,-155 -13,-65 -28,-81 -76,-81 -125,0 -190,-108 -172,-287 9,-88 11,-159 3,-159 -8,0 -78,32 -156,71 -204,104 -384,151 -638,169 -280,20 -462,75 -496,150 -35,82 -152,111 -368,91 -111,-10 -270,-4 -393,14 -360,52 -418,101 -250,209 140,89 238,207 335,400 48,95 109,211 135,258 l 47,85 377,6 c 442,7 450,2 268,-175 -185,-181 -96,-216 186,-74 98,49 518,185 574,185 44,0 14,-56 -68,-128 -200,-175 -107,-207 137,-45 228,151 322,156 322,19 0,-71 72,-52 168,44 49,49 155,141 236,205 80,63 192,153 249,200 57,46 165,112 240,146 75,35 163,83 194,107 141,108 742,229 767,154 z"
       id="path1964" /><path
       fill="#2a6099"
       stroke="none"
       d="m 7642,4022 c 8,-9 28,-167 44,-351 17,-184 37,-376 44,-427 15,-100 -75,-156 -163,-101 -168,104 -366,708 -278,847 41,64 301,88 353,32 z"
       id="path1985" /><path
       fill="#2a6099"
       stroke="none"
       d="m 8217,4002 c 49,-49 -51,-83 -247,-83 -200,0 -252,22 -191,83 21,21 416,21 438,0 z"
       id="path1992" /><path
       fill="#2a6099"
       stroke="none"
       d="m 9164,3955 c 54,-26 128,-70 164,-97 36,-28 98,-69 138,-90 127,-69 196,-589 96,-717 -95,-121 -406,-389 -501,-431 -53,-24 -118,-55 -145,-71 -28,-15 -93,-51 -145,-79 -53,-28 -132,-90 -175,-138 -220,-242 -760,-571 -937,-571 -23,0 -194,860 -194,978 0,266 459,285 520,22 49,-210 64,-231 163,-231 47,0 107,-13 132,-29 102,-63 170,40 86,133 -63,69 -22,82 74,23 86,-53 438,-80 438,-33 0,38 -59,80 -113,80 -69,0 -407,168 -407,202 0,16 35,20 93,11 464,-78 496,36 49,182 -168,55 -263,797 -115,898 64,44 667,11 779,-42 z"
       id="path1999"
       style="display:inline" /><path
       fill="#2a6099"
       stroke="none"
       d="m 8177,3779 c 12,-37 -363,-72 -398,-37 -30,30 4,45 132,60 142,16 256,6 266,-23 z"
       id="path2013" /><path
       fill="#2a6099"
       stroke="none"
       d="m 7943,3511 c -135,-19 -212,34 -127,88 47,30 338,28 357,-2 19,-32 -65,-64 -230,-86 z"
       id="path2034" /><path
       fill="#2a6099"
       stroke="none"
       d="m 8173,3396 c 24,-40 12,-44 -170,-63 -142,-15 -166,-11 -166,22 0,61 300,98 336,41 z"
       id="path2048" /><path
       fill="#2a6099"
       stroke="none"
       d="m 8091,3143 c -160,16 -166,18 -144,55 21,33 164,34 249,2 106,-41 48,-72 -105,-57 z"
       id="path2062" /></g><path
     fill="#666666"
     stroke="none"
     d="m 7413,5197 c 519,-53 1382,-648 1156,-797 -61,-39 -65,-38 -201,87 -265,242 -940,589 -1174,603 -35,2 -78,14 -94,26 -36,27 -314,32 -423,8 -91,-21 -116,35 -37,84 42,26 466,20 773,-11 z"
     id="path1901"
     style="display:inline" /><g
     id="layer9"
     inkscape:label="buttons"
     style="display:inline"><path
       fill="#000000"
       stroke="none"
       d="m 6021,4087 c 39,-38 209,-13 239,35 59,94 -60,170 -177,113 -63,-31 -97,-112 -62,-148 z"
       id="path1915" /><path
       fill="#666666"
       stroke="none"
       d="m 6170,4160 c -6,-17 -32,-36 -57,-40 -41,-8 -43,-4 -14,31 39,47 85,53 71,9 z"
       id="path1922" /><path
       fill="#000000"
       stroke="none"
       d="m 5879,3873 c -121,-43 -169,-240 -65,-266 157,-39 285,185 146,256 -24,13 -61,17 -81,10 z"
       id="path1929"
       style="display:inline" /><path
       fill="#666666"
       stroke="none"
       d="m 5917,3725 c -22,-22 -92,19 -75,45 11,18 27,17 51,-3 20,-17 31,-35 24,-42 z"
       id="path1936" /><path
       fill="#666666"
       stroke="none"
       d="m 6873,4904 c -32,-32 -64,-7 -41,31 9,14 28,19 42,11 17,-11 17,-24 -1,-42 z"
       id="path1950"
       style="display:inline" /><path
       fill="#666666"
       stroke="none"
       d="m 6501,4431 c -32,-31 -64,-7 -41,31 9,15 28,20 42,12 17,-11 17,-25 -1,-43 z"
       id="path1971"
       style="display:inline" /></g><g
     id="layer10"
     inkscape:label="baton"
     style="display:inline"><path
       fill="#443205"
       stroke="none"
       d="m 7206,4288 c 9,-29 0,-85 -22,-130 -21,-43 -44,-97 -51,-121 -35,-114 -154,72 -124,193 28,109 168,151 197,58 z"
       id="path1978" /><path
       fill="#443205"
       stroke="none"
       d="m 7400,2381 c 38,-235 86,-488 105,-562 20,-74 36,-183 36,-241 0,-59 9,-139 22,-179 145,-475 104,-828 -97,-828 -170,0 -223,123 -238,558 -4,109 -19,276 -33,372 -100,688 -103,1320 -6,1332 128,17 137,-1 211,-452 z"
       id="path2083" /></g><g
     inkscape:groupmode="layer"
     id="layer4"
     inkscape:label="skin"
     style="display:inline"><path
       fill="#fff5ce"
       stroke="none"
       d="m 1228,3958 c 27,-19 138,-121 246,-227 178,-173 207,-192 298,-195 132,-3 148,-75 42,-193 -84,-94 -132,-98 -586,-51 -382,40 -375,37 -636,288 -107,103 -102,154 12,126 68,-17 171,-107 241,-210 38,-57 40,-57 159,-16 67,23 153,41 192,41 121,0 78,272 -58,367 -26,18 -47,49 -47,69 0,45 74,46 137,1 z"
       id="path2006" /><path
       fill="#fff5ce"
       stroke="none"
       d="m 7169,3628 c 37,-108 175,-359 239,-436 74,-90 45,-153 -90,-193 -113,-34 -224,15 -224,99 0,25 -29,88 -64,140 -44,63 -60,113 -50,152 8,32 21,88 28,126 8,37 19,93 26,124 16,81 104,73 135,-12 z"
       id="path2020" /><path
       fill="#fff5ce"
       stroke="none"
       d="m 371,3561 c 35,-33 101,-81 148,-107 177,-97 157,-223 -21,-132 -100,51 -225,160 -225,196 0,13 -7,42 -15,63 -23,59 40,48 113,-20 z"
       id="path2027" /><path
       fill="#fff5ce"
       stroke="none"
       d="m 187,3507 c 77,-51 79,-109 4,-109 -68,0 -117,43 -117,104 0,56 33,57 113,5 z"
       id="path2041" /><path
       fill="#fff5ce"
       stroke="none"
       d="m 5123,3287 c 95,-62 202,-112 237,-112 153,0 444,-358 444,-547 0,-22 28,-66 62,-98 76,-71 186,-254 186,-308 0,-54 -49,-49 -114,13 -57,53 -140,43 -87,-10 59,-59 28,-92 -84,-92 -131,0 -142,16 -245,354 -131,426 -367,752 -582,803 -82,20 -132,57 -114,86 29,48 132,17 297,-89 z"
       id="path2055" /><path
       fill="#fff5ce"
       stroke="none"
       d="m 4762,3150 c 0,-14 -22,-25 -49,-25 -28,0 -50,11 -50,25 0,14 22,25 50,25 27,0 49,-11 49,-25 z"
       id="path2069" /><path
       fill="#fff5ce"
       stroke="none"
       d="m 5022,2964 c 229,-246 439,-714 370,-824 -91,-145 -408,-124 -408,26 0,129 -116,168 -329,111 -185,-49 -228,-23 -298,188 -77,227 -56,289 82,241 176,-61 351,37 180,101 -105,40 -86,157 30,179 44,8 101,37 125,65 61,67 126,44 248,-87 z"
       id="path2076" /></g><g
     id="layer3"
     inkscape:label="helmet"
     style="display:inline"><path
       fill="#666666"
       stroke="none"
       d="m 4352,2136 c 109,-25 333,-99 496,-163 571,-224 901,-262 1253,-142 500,170 759,101 419,-112 -265,-165 -419,-352 -419,-506 0,-133 -307,-653 -453,-769 -443,-350 -600,-361 -920,-67 -211,194 -490,625 -377,582 52,-20 92,44 74,118 -13,49 -7,64 23,64 28,0 40,23 40,73 0,40 12,80 26,89 18,11 18,26 -1,49 -15,19 -29,68 -30,110 -2,55 -14,76 -46,76 -25,0 -52,25 -62,55 l -18,56 -20,-56 c -12,-31 -38,-63 -59,-71 -21,-8 -39,-38 -41,-67 -2,-30 -11,16 -21,101 -14,126 -38,185 -133,326 -203,303 -153,351 269,254 z"
       id="path2090" /><path
       fill="#808080"
       stroke="none"
       d="m 5497,1537 c 14,-14 86,-36 160,-48 74,-13 160,-31 191,-40 40,-12 55,-6 55,22 0,26 -41,47 -125,65 -163,35 -315,36 -281,1 z"
       id="path2097" /><path
       fill="#666666"
       stroke="none"
       d="m 4410,1335 c 4,-34 -9,-75 -29,-92 -54,-45 -103,50 -64,123 35,65 84,50 93,-31 z"
       id="path2104"
       style="display:inline" /></g></g>
</svg>
