<?xml version="1.0" encoding="utf-8"?>

<!DOCTYPE svg PUBLIC "-//W3C//DTD SVG 1.1//EN" "http://www.w3.org/Graphics/SVG/1.1/DTD/svg11.dtd">
<svg version="1.1" id="Layer_1" xmlns="http://www.w3.org/2000/svg" xmlns:xlink="http://www.w3.org/1999/xlink" x="0px" y="0px"
	 viewBox="0 0 1500.069 1645.03" enable-background="new 0 0 1500.069 1645.03" xml:space="preserve">
<g>
	<path d="M971.869,1223.182c2.34,0.07,4.68,0.11,7.03,0.12c-0.74,1.25-1.46,2.51-2.15,3.77c0.75-1.25,1.5-2.51,2.24-3.77
		c0.01,0,0.03,0,0.04,0c0.68,1.19,1.37,2.37,2.06,3.54c-0.65-1.19-1.31-2.37-1.99-3.54c2.31,0,4.63-0.02,6.94-0.07
		c-2.31-0.08-4.63-0.12-6.94-0.12c0.74-1.29,1.48-2.59,2.21-3.89c-0.79,1.29-1.56,2.59-2.3,3.89c-0.01-0.01-0.01-0.01-0.02,0
		c-0.63-1.12-1.28-2.24-1.94-3.34c0.61,1.12,1.24,2.23,1.87,3.34C976.569,1223.092,974.219,1223.112,971.869,1223.182z"/>
	<path d="M749.766,1352.309c-0.67,1.1-1.32,2.2-1.95,3.31c-0.01,0-0.02,0-0.03,0c-1.22-2.15-2.48-4.28-3.77-6.39
		c1.15,2.15,2.33,4.28,3.53,6.39c-2.24,0-4.48,0.02-6.71,0.08c2.27,0.07,4.54,0.11,6.82,0.12c0.01,0.01,0.02,0.02,0.02,0.03
		c-0.59,1.01-1.17,2.02-1.73,3.03c0.6-0.99,1.19-1.98,1.76-2.98c1.2,2.09,2.42,4.16,3.67,6.21c-1.12-2.11-2.28-4.21-3.48-6.29
		c2.33,0,4.67-0.02,7.02-0.08c-2.34-0.07-4.69-0.11-7.04-0.12C748.516,1354.519,749.146,1353.419,749.766,1352.309z"/>
	<path d="M517.404,1221.632c-1.11-1.96-2.25-3.9-3.42-5.82c1.05,1.96,2.13,3.9,3.23,5.82c-0.15,0-0.31,0-0.46,0
		c0.15,0.01,0.31,0.01,0.46,0.01c0.04,0.06,0.07,0.13,0.12,0.19c-0.34,0.58-0.68,1.17-1.01,1.76c0.34-0.58,0.68-1.16,1.02-1.74
		c1.09,1.91,2.2,3.81,3.34,5.69c-1.05-1.96-2.13-3.91-3.25-5.85c0.01-0.02,0.02-0.03,0.03-0.05h0.01c0.38-0.67,0.77-1.35,1.15-2.02
		c-0.39,0.67-0.79,1.34-1.18,2.01C517.433,1221.632,517.413,1221.632,517.404,1221.632z"/>
	<path d="M746.866,1622.114c0.03-0.05,0.06-0.11,0.09-0.16c-0.98-1.7-1.97-3.39-2.99-5.06
		C744.906,1618.644,745.876,1620.384,746.866,1622.114z"/>
	<path d="M747.046,1622.094c0.96-1.65,1.89-3.3,2.8-4.96c-0.98,1.59-1.94,3.2-2.89,4.82
		C746.986,1622.004,747.016,1622.044,747.046,1622.094z"/>
	<path d="M285.101,1352.649c0.25,0.45,0.51,0.9,0.76,1.35c0.01,0,0.02,0,0.03,0C285.631,1353.549,285.371,1353.099,285.101,1352.649
		z"/>
	<path d="M1209.482,1357.029c0.01-0.01,0.02-0.02,0.02-0.03l-0.1-0.06c-1.24-2.15-2.5-4.28-3.8-6.38
		c-48.503-79.364-132.398-124.707-219.562-127.327c-2.31,0.05-4.63,0.07-6.94,0.07c0.68,1.17,1.34,2.35,1.99,3.54
		c47.293,79.854,133.027,128.897,224.563,130.517c0.08-0.01,0.16-0.01,0.24,0c1.12,0.02,2.25,0.03,3.38,0.04
		c0.07-0.12,0.14-0.24,0.21-0.36V1357.029z"/>
	<path d="M517.213,1221.642c-0.15,0-0.31,0-0.46-0.01c-0.12,0-0.25,0-0.37,0c-91.535,0.13-180.58,47.433-230.063,132.167
		c-0.04,0.07-0.08,0.13-0.11,0.2c0.02,0,0.04,0,0.06,0c27.572,0.09,55.633-4.13,83.295-13.121
		c64.064-20.821,114.857-63.594,146.758-117.287c0.33-0.59,0.67-1.18,1.01-1.76C517.283,1221.772,517.253,1221.702,517.213,1221.642
		z"/>
	<path d="M748.516,1089.054c-0.89-1.55-1.76-3.12-2.62-4.7c-48.023-80.084-134.878-128.847-227.203-129.297
		c1.62,2.85,3.19,5.74,4.72,8.66C571.966,1041.542,657.611,1088.724,748.516,1089.054z"/>
	<path d="M516.383,1221.632c0.12,0,0.25,0,0.37,0c0.15,0,0.31,0,0.46,0c-1.1-1.92-2.18-3.86-3.23-5.82c0-0.01-0.01-0.02-0.01-0.02
		c-22.321-36.852-53.913-68.804-93.755-92.015c-41.882-24.401-87.675-36.102-132.907-36.272c1.33,2.32,2.62,4.65,3.86,7
		C339.344,1173.119,425.148,1220.962,516.383,1221.632z"/>
	<path d="M286.21,1353.999c0.03-0.07,0.07-0.13,0.11-0.2l-0.01-0.01c46.473-79.924,48.133-178.02,4.86-259.285
		c-1.38-2.25-2.73-4.52-4.04-6.82c-1.12,1.91-2.26,3.81-3.42,5.69c-34.162,62.223-43.542,137.878-19.881,210.712
		c5.58,17.181,12.741,33.402,21.271,48.563c0.27,0.45,0.53,0.9,0.79,1.35C286.001,1353.999,286.101,1353.999,286.21,1353.999z"/>
	<path d="M58.258,1215.601c-0.01,0.02-0.01,0.04-0.03,0.05c-0.75,1.36-1.53,2.72-2.31,4.07l-0.13,0.08
		c0.02,0.05,0.05,0.09,0.07,0.13l0.05-0.03c96.186,0.34,180.65-50.313,227.803-126.527c1.08-1.97,2.18-3.93,3.31-5.87
		C196.576,1087.234,108.411,1133.077,58.258,1215.601z"/>
	<path d="M286.981,1087.424c-1.31-2.28-2.58-4.59-3.82-6.921c-47.813-78.064-132.487-126.257-224.293-127.287
		c-0.68-0.01-1.37-0.02-2.05-0.02c-0.02,0.03-0.04,0.06-0.05,0.09c0.49,0.87,0.99,1.73,1.49,2.59
		C106.041,1037.351,193.735,1087.034,286.981,1087.424z"/>
	<path d="M370.505,1074.303c62.483-20.301,112.346-61.493,144.368-113.326c0-0.01,0-0.01,0.01-0.01c1.08-1.99,2.2-3.96,3.33-5.91
		c-0.27,0-0.53,0-0.8,0c-27.291,0-55.063,4.23-82.424,13.121c-62.393,20.271-112.196,61.364-144.228,113.086
		c-1.13,2.07-2.29,4.12-3.48,6.161C314.832,1087.504,342.874,1083.284,370.505,1074.303z"/>
	<path d="M495.072,1171.549c5.06,15.561,11.411,30.332,18.901,44.243c0,0,0.01,0.01,0.01,0.02c1.17,1.92,2.31,3.86,3.42,5.82
		c0.01,0,0.03,0,0.04,0c0.39-0.67,0.79-1.34,1.18-2.01c35.962-62.963,46.263-140.278,22.091-214.662
		c-4.69-14.441-10.501-28.212-17.301-41.242c-1.74-2.79-3.44-5.62-5.08-8.5c-1.13,1.93-2.28,3.85-3.45,5.75
		c-0.01,0-0.01,0-0.01,0.01C480.771,1023.171,471.421,1098.765,495.072,1171.549z"/>
	<path d="M518.554,954.827v0.01h0.01c27.522,0.07,55.513-4.15,83.114-13.121c64.824-21.061,116.057-64.614,147.878-119.197
		c-0.3,0-0.59,0-0.89,0c-27.302,0-55.063,4.23-82.435,13.121c-62.493,20.301-112.356,61.493-144.368,113.336
		c-0.02,0.04-0.04,0.08-0.07,0.11C520.744,951.017,519.663,952.927,518.554,954.827z"/>
	<path d="M749.596,822.45c0.02-0.04,0.04-0.08,0.07-0.12c-47.443-82.925-135.948-133.597-230.123-133.997
		c0.93,1.62,1.84,3.26,2.74,4.91c0.03,0.05,0.05,0.1,0.08,0.14C570.466,773.377,657.301,822.06,749.596,822.45z"/>
	<path d="M495.992,904.774c4.69,14.441,10.501,28.212,17.301,41.242c1.77,2.84,3.49,5.71,5.16,8.63c1.09-1.87,2.2-3.72,3.34-5.56
		c0.03-0.03,0.05-0.07,0.07-0.11c34.102-62.203,43.452-137.798,19.801-210.582c-5.15-15.841-11.641-30.872-19.301-45.013
		c-0.03-0.04-0.05-0.09-0.08-0.14c-0.97-1.62-1.93-3.26-2.87-4.91c-0.09,0-0.19,0-0.28,0c-0.37,0.64-0.75,1.28-1.13,1.92
		C482.102,753.186,471.841,830.44,495.992,904.774z"/>
	<path d="M288.221,820.689c-0.01,0.03-0.03,0.06-0.05,0.09c1.15,1.99,2.27,4.01,3.37,6.04
		c48.213,79.364,134.687,127.617,226.573,128.017c-1.66-2.9-3.27-5.84-4.82-8.82C464.74,868.212,379.116,821.039,288.221,820.689z"
		/>
	<path d="M285.581,825.12c-34.852,62.513-44.583,138.808-20.721,212.242c4.92,15.151,11.071,29.552,18.301,43.142
		c1.37,2.22,2.7,4.46,4,6.731c0,0.01,0.01,0.01,0.01,0.02c1.17-2.01,2.37-4.01,3.59-5.99
		c20.661-37.682,32.472-80.914,32.652-126.907c0.18-46.153-11.381-89.605-31.872-127.537c-1.18-1.94-2.33-3.89-3.47-5.87
		C287.261,822.35,286.431,823.74,285.581,825.12z"/>
	<path d="M285.581,825.12c0.8-1.43,1.62-2.86,2.44-4.28c-0.03-0.05-0.06-0.1-0.09-0.15c-0.23,0-0.47,0-0.7,0
		c-27.292,0-55.053,4.23-82.424,13.121C141.892,854.251,91.78,895.864,59.788,948.207c-1.01,1.65-2,3.31-2.97,4.99
		c0.68,0,1.37,0.01,2.05,0.02C154.873,952.837,238.968,901.664,285.581,825.12z"/>
	<path d="M1464.996,741.945c-5.72-17.611-13.111-34.222-21.921-49.713c-0.07,0.12-0.13,0.23-0.2,0.34l0.08,0.05
		c-47.543,81.995-47.973,183.08-1.12,265.485l-0.12,0.07c0.05,0.08,0.09,0.17,0.14,0.25
		C1478.667,895.144,1489.398,817.059,1464.996,741.945z"/>
	<path d="M1441.615,958.987c-46.013,79.104-48.133,176.05-6.16,256.864c1.77,2.82,3.49,5.68,5.16,8.591l0.29,0.17
		c36.702-63.244,47.382-141.228,23.001-216.242c-5.75-17.701-13.181-34.392-22.051-49.943c-0.1,0.19-0.21,0.37-0.32,0.56
		C1441.565,958.987,1441.585,958.987,1441.615,958.987z"/>
	<path d="M1221.013,824.31c-3.15,0.1-6.29,0.14-9.431,0.13c-0.02,0.02-0.04,0.05-0.05,0.08c0.71,1.25,1.41,2.5,2.1,3.77
		c44.302,74.624,123.987,125.827,216.042,130.367c3.93,0.2,7.88,0.31,11.86,0.33c0.11-0.19,0.22-0.37,0.32-0.56
		c-0.05-0.08-0.09-0.17-0.14-0.25C1395.872,877.993,1311.648,827.94,1221.013,824.31z"/>
	<path d="M1435.455,1215.851c-48.143-77.104-129.927-121.497-215.212-125.027c-3.26,0.11-6.51,0.16-9.74,0.15
		c0.62,1.07,1.22,2.15,1.82,3.24c45.152,76.354,127.327,128.277,221.952,130.947c2,0.06,4.01,0.1,6.03,0.11l0.16,0.09
		c0.15-0.25,0.3-0.5,0.44-0.75l-0.29-0.17C1438.945,1221.532,1437.224,1218.672,1435.455,1215.851z"/>
	<path d="M1434.274,1225.162c-92.635,1.82-177.85,51.673-224.783,131.877h-0.01c-0.07,0.12-0.14,0.24-0.21,0.36
		c27.642,0.11,55.763-4.11,83.485-13.121c64.714-21.021,115.877-64.453,147.708-118.917l-0.16-0.09
		C1438.285,1225.262,1436.275,1225.222,1434.274,1225.162z"/>
	<path d="M1210.542,1090.594c3.24,0.01,6.47,0.09,9.7,0.23c24.442-0.81,49.183-5.04,73.604-12.971
		c64.693-21.021,115.857-64.434,147.688-118.867c-3.98-0.02-7.93-0.13-11.86-0.33
		C1339.199,962.407,1256.474,1011.94,1210.542,1090.594z"/>
	<path d="M1210.322,1090.975c-46.533,80.004-48.163,178.25-4.72,259.584c1.3,2.1,2.56,4.23,3.8,6.38l0.1,0.06
		c36.682-63.234,47.353-141.218,22.981-216.212c-5.34-16.431-12.121-31.982-20.161-46.572c-0.64-1.08-1.27-2.16-1.9-3.24
		C1210.392,1090.975,1210.352,1090.975,1210.322,1090.975z"/>
	<path d="M1213.242,290.77l0.24-0.14c-47.453-82.775-135.837-133.357-229.903-133.787v0.02
		C1030.822,239.217,1118.307,290.22,1213.242,290.77z"/>
	<path d="M1205.652,1357.359c-91.505,0.93-176.06,48.753-224.053,126.507c-1.09,2-2.21,3.98-3.35,5.95
		c27.502,0.06,55.493-4.16,83.075-13.121c64.864-21.071,116.126-64.654,147.948-119.297c-1.13-0.01-2.26-0.02-3.38-0.04
		C1205.812,1357.349,1205.732,1357.349,1205.652,1357.359z"/>
	<path d="M750.846,555.835c46.372,81.305,132.187,131.687,224.182,134.207c1.65-0.03,3.31-0.05,4.96-0.05c0.32,0,0.64,0,0.96,0
		c-46.693-81.825-133.327-132.307-225.993-134.198c-1.37,0.02-2.73,0.02-4.09,0.02C750.856,555.825,750.856,555.825,750.846,555.835
		z"/>
	<path d="M772.828,605.807c-5.74-17.681-13.161-34.352-22.021-49.893c-36.772,63.273-47.483,141.328-23.091,216.402
		c5.74,17.681,13.161,34.352,22.021,49.893C786.508,758.936,797.219,680.882,772.828,605.807z"/>
	<path d="M520.574,685.832c-0.4,0.72-0.82,1.43-1.23,2.15c0.06,0.09,0.11,0.18,0.16,0.28c27.592,0.09,55.663-4.13,83.335-13.121
		c64.854-21.071,116.116-64.654,147.928-119.287c0-0.02-0.01-0.03-0.02-0.04c-1.39-0.01-2.78-0.03-4.16-0.05
		c-26.342,0.29-53.073,4.53-79.444,13.101C603.208,589.647,552.485,632.289,520.574,685.832z"/>
	<path d="M291.371,287.25c94.775,0,182.44-50.313,230.243-132.207l0.01,0.01c0.01-0.02,0.02-0.03,0.02-0.04
		c0.01-0.02,0.02-0.04,0.03-0.05c-0.39,0-0.77,0-1.16,0c-27.301,0-55.063,4.23-82.435,13.121
		c-64.834,21.061-116.077,64.614-147.898,119.227c0.4,0,0.8,0.01,1.19,0.01V287.25z"/>
	<path d="M286.271,1354.169v-0.17c-0.02,0-0.04,0-0.06,0c-0.11,0-0.21,0-0.32,0c-0.01,0-0.02,0-0.03,0
		c47.433,83.195,136.147,134.027,230.523,134.367c-0.92-1.6-1.82-3.22-2.7-4.85C465.791,1403.722,379.596,1354.559,286.271,1354.169
		z"/>
	<path d="M56.068,1220.162l-0.06,0.03c47.443,82.755,135.808,133.347,229.853,133.807c-0.25-0.45-0.51-0.9-0.76-1.35
		C237.648,1271.074,150.533,1220.642,56.068,1220.162z"/>
	<path d="M59.788,948.207c43.653-78.754,44.533-174.18,2.56-253.644c-1.6-2.57-3.16-5.18-4.66-7.82
		C20.916,750.016,10.205,828.07,34.597,903.144c5.78,17.781,13.241,34.532,22.171,50.143c0.01-0.03,0.03-0.06,0.05-0.09
		C57.788,951.517,58.778,949.857,59.788,948.207z"/>
	<path d="M58.228,1215.651c0.02-0.01,0.02-0.03,0.03-0.05c45.013-80.674,45.053-178.98,0-259.724c-0.5-0.86-1-1.72-1.49-2.59
		c-36.792,63.273-47.513,141.348-23.111,216.432c5.77,17.751,13.221,34.492,22.131,50.083l0.13-0.08
		C56.698,1218.372,57.478,1217.011,58.228,1215.651z"/>
	<path d="M979.009,1223.112c0.74-1.3,1.51-2.6,2.3-3.89c34.942-62.553,44.712-138.918,20.831-212.432
		c-5.77-17.771-13.241-34.522-22.161-50.133c-36.802,63.274-47.543,141.368-23.131,216.472c5.35,16.451,12.141,32.032,20.201,46.642
		c0.66,1.1,1.31,2.22,1.94,3.34C978.999,1223.102,978.999,1223.102,979.009,1223.112z"/>
	<path d="M831.901,1075.934c64.883-21.081,116.146-64.684,147.958-119.347c-1.49,0-2.97-0.02-4.45-0.05
		c-26.142,0.35-52.673,4.59-78.834,13.091c-62.324,20.251-112.086,61.283-144.118,112.926c-1.18,2.18-2.4,4.35-3.65,6.5
		C776.318,1089.124,804.309,1084.894,831.901,1075.934z"/>
	<path d="M752.456,1082.554c33.822-62.073,43.032-137.398,19.461-209.942c-5.77-17.761-13.231-34.492-22.131-50.093
		c-0.07,0-0.15,0-0.22,0c-36.822,63.283-47.563,141.388-23.151,216.502c5.19,15.961,11.741,31.102,19.481,45.333
		c0.92,1.53,1.82,3.07,2.71,4.62C749.856,1086.814,751.147,1084.674,752.456,1082.554z"/>
	<path d="M1210.432,1090.594c36.732-63.254,47.422-141.278,23.041-216.322c-5.27-16.211-11.941-31.572-19.841-45.983
		c-0.72-1.22-1.44-2.45-2.15-3.68c-22.771,39.042-35.912,84.415-36.132,132.847c-0.22,47.063,11.771,91.335,32.992,129.807
		c0.66,1.1,1.31,2.21,1.95,3.33C1210.342,1090.584,1210.382,1090.584,1210.432,1090.594z"/>
	<path d="M1211.402,824.47c0-0.02-0.01-0.03-0.02-0.04c-3.05-0.01-6.09-0.08-9.131-0.2c-24.651,0.76-49.613,4.99-74.254,12.991
		c-64.853,21.071-116.116,64.654-147.928,119.287c1.58,0.01,3.15,0.03,4.72,0.06c26.132-0.35,52.673-4.59,78.834-13.091
		C1128.377,922.435,1179.57,878.963,1211.402,824.47z"/>
	<path d="M1208.342,1087.264c-47.073-79.644-132.368-128.697-223.552-130.697c-1.59,0.02-3.19,0.03-4.77,0.03
		c-0.02,0.01-0.02,0.03-0.03,0.05c45.713,80.164,129.747,130.267,220.262,134.088c3.32-0.12,6.641-0.17,9.961-0.14
		C1209.582,1089.484,1208.962,1088.384,1208.342,1087.264z"/>
	<path d="M986.039,1223.232c25.311-0.59,50.963-4.83,76.284-13.051c64.824-21.061,116.067-64.614,147.888-119.207
		c-3.33-0.02-6.65-0.1-9.961-0.24c-42.032,1.41-84.344,12.82-123.377,35.192c-40.712,23.331-72.934,55.783-95.565,93.295
		c-0.73,1.3-1.47,2.6-2.21,3.89C981.409,1223.112,983.729,1223.152,986.039,1223.232z"/>
	<path d="M957.938,906.704c5.731,17.651,13.131,34.292,21.971,49.803c36.812-63.284,47.552-141.378,23.141-216.482
		c-5.73-17.651-13.131-34.292-21.971-49.803C944.267,753.496,933.527,831.59,957.938,906.704z"/>
	<path d="M979.899,956.507C932.476,873.632,844.032,822.97,749.917,822.52c46.652,81.594,133.037,131.987,225.492,134.017
		c1.2-0.02,2.39-0.03,3.59-0.03C979.299,956.507,979.599,956.507,979.899,956.507z"/>
	<path d="M749.736,822.22c0.05,0.08,0.09,0.16,0.14,0.23c27.571,0.09,55.613-4.14,83.265-13.121
		c64.823-21.061,116.056-64.594,147.888-119.187c-2-0.01-4-0.04-6-0.1c-25.691,0.48-51.763,4.72-77.464,13.071
		C832.781,724.164,781.568,767.677,749.736,822.22z"/>
	<path d="M1443.245,691.942c36.832-63.284,47.583-141.398,23.171-216.532c-5.79-17.821-13.281-34.612-22.231-50.253l-0.1,0.06
		c-0.12,0.21-0.24,0.42-0.37,0.62c0.09,0,0.19,0,0.28,0c-47.013,80.785-48.233,180.2-3.46,262.035c0.8,1.35,1.59,2.7,2.37,4.06
		C1443.015,691.942,1443.135,691.942,1443.245,691.942z"/>
	<path d="M1443.965,424.957l0.08-0.05c-47.483-82.805-135.938-133.387-230.043-133.777v0.04
		C1261.335,373.565,1348.95,424.537,1443.965,424.957z"/>
	<path d="M1213.012,557.605c91.705,0.18,181.01-47.013,230.703-131.767C1345.459,425.577,1259.435,478.53,1213.012,557.605z"/>
	<path d="M1442.875,692.572c0.07-0.11,0.13-0.22,0.2-0.34c-0.06-0.1-0.11-0.2-0.17-0.3c-0.04,0.01-0.08,0.01-0.12,0v0.19
		c-98.435-0.32-184.59,52.753-231.013,131.987c3.09,0.01,6.171,0.08,9.241,0.2c24.651-0.76,49.613-4.99,74.254-12.991
		C1359.91,790.318,1411.033,746.955,1442.875,692.572z"/>
	<path d="M1440.535,687.872c-47.883-80.575-134.968-129.687-227.573-130.187h-0.01v0.01c0.03,0.05,0.06,0.1,0.09,0.15
		c47.223,82.455,134.747,133.527,229.743,134.088c0.04,0.01,0.08,0.01,0.12,0C1442.125,690.572,1441.335,689.222,1440.535,687.872z"
		/>
	<path d="M1212.802,557.425c36.732-63.254,47.422-141.268,23.041-216.312c-5.72-17.621-13.111-34.232-21.931-49.723
		C1166.15,373.545,1165.739,474.9,1212.802,557.425z"/>
	<path d="M1211.612,824.1c36.832-63.294,47.583-141.408,23.171-216.532c-5.72-17.621-13.111-34.232-21.921-49.723
		c-22.941,39.142-36.182,84.665-36.412,133.297c-0.22,46.793,11.621,90.825,32.622,129.147c0.75,1.26,1.49,2.53,2.22,3.81
		C1211.402,824.1,1211.502,824.1,1211.612,824.1z"/>
	<path d="M1130.507,304.251c-64.764,21.041-115.966,64.534-147.788,119.047c1.23,0,2.46,0.02,3.69,0.04c0.05,0,0.1,0,0.15,0
		c90.505-1.14,178.18-48.363,227.123-132.207c-0.25,0-0.5,0-0.75,0C1185.641,291.13,1157.869,295.36,1130.507,304.251z"/>
	<path d="M982.689,423.357c-0.06,0.1-0.12,0.2-0.18,0.3c22.461,39.262,55.243,73.324,97.146,97.715
		c41.942,24.401,87.785,36.092,133.047,36.222c0.01,0,0.01,0,0.01-0.01c-46.723-81.885-133.417-132.397-226.153-134.248
		c-0.05,0-0.1,0-0.15,0C985.17,423.347,983.93,423.357,982.689,423.357z"/>
	<path d="M1212.652,557.675c-0.38,0-0.75,0-1.13,0c-27.302,0-55.063,4.23-82.434,13.121
		c-64.774,21.041-115.976,64.534-147.808,119.077c0.02,0.04,0.05,0.09,0.07,0.13c1.96,0,3.92,0.04,5.88,0.09
		c25.692-0.48,51.753-4.72,77.464-13.071C1129.578,655.94,1180.84,612.338,1212.652,557.675z"/>
	<path d="M1004.3,473.42c-5.71-17.581-13.081-34.162-21.871-49.633c-36.752,63.264-47.463,141.308-23.071,216.372
		c5.71,17.581,13.081,34.162,21.871,49.633C1017.981,626.529,1028.692,548.484,1004.3,473.42z"/>
	<path d="M1211.202,824.1c-0.73-1.26-1.44-2.53-2.13-3.81c-46.882-78.954-131.377-127.717-221.842-130.197
		c-1.94,0.04-3.87,0.05-5.8,0.05c45.812,80.314,130.107,130.447,220.822,134.087c2.73-0.09,5.46-0.13,8.181-0.13
		C1210.692,824.1,1210.942,824.1,1211.202,824.1z"/>
	<path d="M978.989,1223.302c-0.74,1.26-1.49,2.52-2.24,3.77c-0.03,0.03-0.04,0.06-0.05,0.09
		c-42.872,76.874-46.612,173.13-2.27,255.834c1.3,2.12,2.57,4.26,3.82,6.43c1.09-1.87,2.2-3.72,3.35-5.56
		c34.012-62.163,43.322-137.668,19.701-210.382c-5.35-16.451-12.151-32.032-20.211-46.643c-0.69-1.17-1.38-2.35-2.06-3.54
		C979.019,1223.302,978.999,1223.302,978.989,1223.302z"/>
	<path d="M976.699,1227.162c0.01-0.03,0.02-0.06,0.05-0.09c0.69-1.26,1.41-2.52,2.15-3.77c-2.35-0.01-4.69-0.05-7.03-0.12
		c-43.002,0.98-86.385,12.411-126.317,35.332c-40.862,23.452-73.154,56.073-95.785,93.795c-0.62,1.11-1.25,2.21-1.89,3.31
		c2.35,0.01,4.7,0.05,7.04,0.12c25.231-0.6,50.813-4.84,76.064-13.041C894.354,1322.107,944.737,1280.035,976.699,1227.162z"/>
	<path d="M745.946,1358.879c-43.532,77.444-47.243,174.73-1.98,258.014c1.02,1.67,2.01,3.36,2.99,5.06
		c0.95-1.62,1.91-3.23,2.89-4.82c45.283-81.895,42.932-177.75,1.56-254.974c0-0.02-0.01-0.03-0.03-0.05
		c-1.25-2.05-2.47-4.12-3.67-6.21C747.136,1356.899,746.546,1357.889,745.946,1358.879z"/>
	<path d="M978.249,1489.427c-1.25-2.17-2.52-4.31-3.82-6.43c-46.973-76.744-129.557-124.627-219.512-127.257
		c-2.35,0.06-4.69,0.08-7.02,0.08c1.2,2.08,2.36,4.18,3.48,6.29c0.02,0.02,0.03,0.03,0.03,0.05
		c48.292,79.204,134.717,127.307,226.513,127.657c0.11,0,0.22,0,0.33,0c1.14-1.97,2.26-3.95,3.35-5.95
		C980.449,1485.707,979.339,1487.557,978.249,1489.427z"/>
	<path d="M516.673,1488.127c0.01-0.02,0.02-0.04,0.04-0.06l-0.15-0.09c48.283-83.135,46.583-181.55,4.12-260.435
		c-1.14-1.88-2.25-3.78-3.34-5.69c-0.34,0.58-0.68,1.16-1.02,1.74c-35.962,62.953-46.263,140.268-22.091,214.652
		c5.18,15.941,11.721,31.062,19.451,45.273c0.88,1.63,1.78,3.25,2.7,4.85c0.1,0,0.19,0,0.29,0V1488.127z"/>
	<path d="M740.836,1355.699c2.23-0.06,4.47-0.08,6.71-0.08c-1.2-2.11-2.38-4.24-3.53-6.39
		c-22.321-36.602-53.803-68.324-93.455-91.395c-41.682-24.251-87.225-35.932-132.227-36.192c-0.29-0.01-0.58-0.01-0.86,0h-0.01
		c-0.01,0.02-0.02,0.03-0.03,0.05c1.12,1.94,2.2,3.89,3.25,5.85C567.716,1305.166,651.321,1353.089,740.836,1355.699z"/>
	<path d="M745.946,1358.879c0.56-1.01,1.14-2.02,1.73-3.03c0-0.01-0.01-0.02-0.02-0.03c-2.28-0.01-4.55-0.05-6.82-0.12
		c-92.465,2.15-177.44,52.153-224.123,132.367c-0.02,0.02-0.03,0.04-0.04,0.06v0.24c0.21,0,0.43,0,0.64,0
		c0.08-0.01,0.15-0.01,0.23,0c27.231-0.02,54.913-4.25,82.195-13.121C663.441,1454.545,714.024,1412.142,745.946,1358.879z"/>
	<path d="M725.415,1305.536c4.99,15.351,11.241,29.942,18.601,43.693c1.29,2.11,2.55,4.24,3.77,6.39c0.01,0,0.02,0,0.03,0
		c0.63-1.11,1.28-2.21,1.95-3.31c35.182-62.653,45.083-139.248,21.131-212.972c-5.17-15.921-11.701-31.022-19.421-45.223
		c-0.95-1.59-1.89-3.19-2.82-4.81c-1.24,2.13-2.51,4.25-3.81,6.35C711.044,1157.718,701.854,1233.022,725.415,1305.536z"/>
	<path d="M518.333,1221.642c27.302,0,55.063-4.23,82.435-13.121c62.293-20.241,112.046-61.243,144.078-112.866
		c1.17-2.16,2.38-4.31,3.62-6.44c-0.21,0-0.43,0-0.64,0c-27.302,0-55.063,4.23-82.435,13.121
		c-64.074,20.811-114.866,63.594-146.768,117.286c-0.38,0.67-0.77,1.35-1.15,2.02
		C517.753,1221.632,518.043,1221.632,518.333,1221.642z"/>
	<path d="M977.919,1489.847c-93.155-0.27-179.55,48.093-228.073,127.287c-0.91,1.66-1.84,3.31-2.8,4.96
		c-0.03-0.05-0.06-0.09-0.09-0.14c-0.03,0.05-0.06,0.11-0.09,0.16c0.04,0.07,0.08,0.14,0.12,0.21v0.19
		c27.532,0.07,55.543-4.15,83.155-13.121c64.974-21.111,116.296-64.814,148.108-119.577c-0.11,0-0.22,0-0.33,0V1489.847z"/>
	<path d="M746.866,1622.114c-0.99-1.73-1.96-3.47-2.9-5.22c-47.913-79.184-133.617-127.967-226.422-128.527
		c-0.08-0.01-0.15-0.01-0.23,0c-0.21,0-0.43,0-0.64,0c-0.1,0-0.19,0-0.29,0c47.493,83.125,136.228,133.888,230.603,134.148v-0.19
		C746.946,1622.254,746.906,1622.184,746.866,1622.114z"/>
	<path d="M971.869,1223.182c2.35-0.07,4.7-0.09,7.05-0.07c-0.63-1.11-1.26-2.22-1.87-3.34
		c-47.933-80.934-135.368-130.237-228.303-130.557c0.93,1.62,1.84,3.25,2.73,4.9
		C798.359,1172.189,882.124,1220.452,971.869,1223.182z"/>
	<path d="M371.275,807.499c64.044-20.811,114.826-63.564,146.728-117.247c0.36-0.64,0.73-1.28,1.1-1.92c-0.22,0-0.45,0-0.67,0
		c-27.301,0-55.063,4.23-82.424,13.121c-63.073,20.501-113.286,62.273-145.258,114.806c-0.81,1.46-1.64,2.92-2.48,4.36
		C315.752,820.679,343.714,816.449,371.275,807.499z"/>
	<path d="M542.425,471.59c-5.72-17.621-13.111-34.232-21.931-49.733c-1.12,1.92-2.26,3.84-3.44,5.73
		c-34.112,62.203-43.472,137.798-19.821,210.592c5.19,15.961,11.741,31.102,19.491,45.323c0.88,1.47,1.75,2.95,2.6,4.45
		c0.42-0.71,0.84-1.42,1.25-2.12C556.346,622.948,566.546,545.814,542.425,471.59z"/>
	<path d="M292.411,548.214c-1.04,1.9-2.1,3.78-3.19,5.65c-0.03,0.04-0.05,0.09-0.08,0.13c45.332,0.24,91.325-11.101,133.507-35.232
		c39.992-22.881,71.804-54.543,94.405-91.175c1.08-1.99,2.2-3.96,3.33-5.92c-0.01-0.03-0.03-0.05-0.05-0.08
		c-1.18,0-2.37-0.02-3.55-0.05c-0.01,0.01-0.01,0.01-0.02,0c-26.461,0.26-53.343,4.5-79.844,13.111
		C374.346,454.979,324.423,496.261,292.411,548.214z"/>
	<path d="M290.211,287.44c0.04,0.08,0.09,0.15,0.13,0.23l0.11-0.06c48.343,84.285,135.747,132.177,226.312,133.927
		c0.01,0.01,0.01,0.01,0.02,0c0.85-0.01,1.71-0.01,2.56-0.01c0.32,0,0.64,0,0.96,0C473.111,338.853,385.136,288.18,291.371,287.32
		c-0.39,0-0.79-0.01-1.19-0.01c-0.02,0.03-0.03,0.06-0.05,0.09L290.211,287.44z"/>
	<path d="M289.101,554.115c0.27,0.48,0.54,0.95,0.81,1.43c0.09,0.15,0.17,0.29,0.25,0.44
		c47.663,81.865,135.517,131.827,228.993,132.277c0.03-0.07,0.07-0.13,0.11-0.2c-0.87-1.51-1.72-3.03-2.54-4.56
		C468.631,603.257,381.596,554.445,289.101,554.115z"/>
	<path d="M289.091,554.115c-0.01,0-0.01,0-0.02,0c-1.05,1.81-2.12,3.6-3.23,5.37c-34.322,62.294-43.792,138.088-20.071,211.072
		c5.09,15.681,11.501,30.562,19.061,44.563c1.11,1.82,2.19,3.65,3.25,5.5c0.02,0,0.05,0,0.07,0c0.85-1.46,1.72-2.92,2.6-4.36
		c21.261-38.122,33.432-82.005,33.582-128.737c0.16-47.793-12.271-92.685-34.172-131.537c-0.08-0.15-0.16-0.29-0.25-0.44
		C289.631,555.075,289.351,554.595,289.091,554.115z"/>
	<path d="M266.93,503.992c5.65,17.381,12.911,33.782,21.571,49.093c0.17,0.28,0.33,0.57,0.49,0.85c1.11-1.92,2.26-3.83,3.42-5.72
		c44.632-81.155,43.982-179.85-2.07-260.545c-0.04-0.08-0.09-0.15-0.13-0.23l-0.08-0.04c-1.09,1.87-2.16,3.76-3.2,5.66
		C252.659,355.324,243.228,431.058,266.93,503.992z"/>
	<path d="M286.931,293.06c1.04-1.9,2.11-3.79,3.2-5.66c0.02-0.03,0.03-0.06,0.05-0.09c-0.41,0-0.82,0-1.23,0
		c-27.302,0-55.063,4.23-82.435,13.121C141.712,321.492,90.49,365.024,58.658,419.597l0.25,0.15
		C151.943,420.127,238.288,372.005,286.931,293.06z"/>
	<path d="M288.961,553.995c0-0.02,0.01-0.04,0.02-0.05c-0.16-0.29-0.32-0.57-0.48-0.86
		C242.598,473.95,157.133,420.567,59.078,420.077C108.061,505.442,197.126,553.465,288.961,553.995z"/>
	<path d="M288.181,554.115c-27.292,0-55.063,4.23-82.425,13.121C142.383,587.827,92,629.899,60.038,682.772
		c-0.03,0.06-0.07,0.11-0.1,0.17c-0.63,1.13-1.28,2.26-1.94,3.38l0.09,0.05c92.985,0.25,179.22-47.953,227.753-126.887
		c0.99-1.8,2.01-3.6,3.04-5.37C288.651,554.115,288.411,554.115,288.181,554.115z"/>
	<path d="M287.891,820.619c-1.04-1.81-2.06-3.65-3.06-5.5c-46.533-76.604-130.597-127.937-226.783-128.367
		c1.48,2.58,2.91,5.19,4.3,7.81C110.821,772.817,196.706,820.279,287.891,820.619z"/>
	<path d="M59.938,682.942c0.03-0.06,0.07-0.11,0.1-0.17c45.793-81.555,45.523-181.3-0.96-262.695c-0.04-0.06-0.07-0.11-0.1-0.17
		c-0.02-0.04-0.05-0.08-0.07-0.12v-0.04l-0.25-0.15c-36.932,63.324-47.733,141.528-23.291,216.742
		c5.81,17.871,13.331,34.722,22.321,50.403c0.06-0.1,0.12-0.21,0.18-0.31C58.548,685.262,59.238,684.102,59.938,682.942z"/>
	<path d="M981.199,160.713c-0.06,0.09-0.1,0.17-0.15,0.25c-47.163,84.345-43.592,183.72,1.25,262.325c0.03,0,0.06,0,0.09,0
		c36.822-63.283,47.562-141.388,23.151-216.502c-5.75-17.691-13.171-34.362-22.031-49.913l-0.04,0.02
		C982.719,158.173,981.969,159.443,981.199,160.713z"/>
	<path d="M982.369,156.842c-27.302,0-55.063,4.23-82.435,13.121c-64.043,20.811-114.826,63.564-146.728,117.237
		c0,0.02-0.01,0.04-0.03,0.06c-0.35,0.63-0.72,1.26-1.09,1.89c1.56,0.01,3.11,0.03,4.66,0.07
		c91.865-1.23,176.66-49.713,224.302-128.257c0.05-0.08,0.09-0.16,0.15-0.25c0.77-1.27,1.52-2.54,2.27-3.82l0.04-0.02
		c-0.01-0.01-0.01-0.02-0.02-0.03c-0.11,0-0.21,0-0.32,0C982.899,156.842,982.639,156.842,982.369,156.842z"/>
	<path d="M753.247,22.895l0.02-0.01c47.323,82.375,134.898,133.347,229.903,133.797v0.16c0.11,0,0.21,0,0.32,0
		C936.127,73.778,847.602,22.985,753.367,22.515c-0.05,0.1-0.11,0.2-0.17,0.29C753.216,22.835,753.237,22.865,753.247,22.895z"/>
	<path d="M750.906,555.755c1.35,0,2.7,0.02,4.05,0.04c26.332-0.29,53.063-4.53,79.435-13.101
		c64.813-21.061,116.046-64.594,147.878-119.187c-0.03-0.05-0.06-0.11-0.09-0.16c-1.35,0-2.69-0.01-4.04-0.04
		c-26.271,0.31-52.963,4.55-79.264,13.101C833.991,457.489,782.718,501.092,750.906,555.755z"/>
	<path d="M849.322,387.105c40.622,23.661,84.925,35.372,128.817,36.202c1.05-0.01,2.11-0.02,3.16-0.02c0.28,0,0.56,0,0.84,0
		C935.527,341.693,849.172,291.29,756.747,289.22c-1.54,0.03-3.09,0.04-4.64,0.03C774.568,328.572,807.37,362.684,849.322,387.105z"
		/>
	<path d="M728.785,505.872c5.74,17.671,13.161,34.332,22.011,49.873c0.01,0,0.02,0,0.03,0
		c36.822-63.293,47.563-141.398,23.161-216.512c-5.74-17.681-13.161-34.342-22.021-49.883c-0.36,0.65-0.74,1.29-1.13,1.93
		C714.905,354.223,704.624,431.508,728.785,505.872z"/>
	<path d="M753.247,22.895c-0.01-0.03-0.03-0.06-0.05-0.09c-1.17,2.01-2.37,4-3.59,5.97c-45.993,83.935-42.092,182.38,2.44,260.374
		h0.01c0.38-0.63,0.75-1.26,1.12-1.89c0.02-0.02,0.03-0.04,0.03-0.06C798.339,208.025,801.659,107.76,753.247,22.895z"/>
	<path d="M749.606,28.775c1.22-1.97,2.42-3.96,3.59-5.97c0.06-0.09,0.12-0.19,0.17-0.29c-0.43,0-0.87,0-1.3,0
		c-27.302,0-55.063,4.23-82.435,13.121c-64.834,21.061-116.077,64.624-147.898,119.227
		C614.609,155.322,700.854,107.42,749.606,28.775z"/>
	<path d="M520.683,421.537c1.31,0,2.62,0.02,3.92,0.04c0.01,0.01,0.02,0.01,0.03,0c44.042-0.44,88.575-11.821,129.507-35.252
		c41.372-23.681,73.994-56.783,96.695-95.045c0.37-0.65,0.75-1.31,1.12-1.95c-0.01-0.03-0.03-0.05-0.04-0.08
		c-1.67-0.01-3.34-0.03-5-0.07c-26.031,0.38-52.453,4.62-78.524,13.091c-62.464,20.291-112.316,61.473-144.338,113.286
		c-0.01,0.02-0.01,0.03-0.03,0.05C522.944,417.597,521.824,419.577,520.683,421.537z"/>
	<path d="M751.857,289.15c-47.403-83.015-135.928-133.757-230.143-134.187v0.02c46.423,81.215,131.938,132.027,225.203,134.197
		c1.3-0.02,2.6-0.03,3.9-0.03C751.167,289.15,751.506,289.15,751.857,289.15z"/>
	<path d="M520.654,421.587c-0.01,0.02-0.02,0.03-0.03,0.05c46.703,81.775,133.317,132.237,225.963,134.127
		c1-0.01,1.99-0.02,2.99-0.02c0.38,0,0.75,0,1.13,0c-46.713-81.825-133.377-132.307-226.072-134.167c-0.01,0.01-0.02,0.01-0.03,0
		C523.284,421.597,521.974,421.607,520.654,421.587z"/>
	<path d="M498.482,371.544c5.75,17.691,13.171,34.362,22.031,49.913c1.14-1.96,2.31-3.91,3.51-5.85c0.02-0.02,0.02-0.03,0.03-0.05
		c43.002-78.614,45.372-177.05-2.38-260.525l-0.03-0.02c0,0.01-0.01,0.02-0.02,0.04C484.812,218.336,474.081,296.43,498.482,371.544
		z"/>
</g>
</svg>
