<?xml version="1.0" encoding="UTF-8" standalone="no"?>
<!-- Created with Inkscape (http://www.inkscape.org/) -->

<svg
   xmlns:dc="http://purl.org/dc/elements/1.1/"
   xmlns:cc="http://creativecommons.org/ns#"
   xmlns:rdf="http://www.w3.org/1999/02/22-rdf-syntax-ns#"
   xmlns:svg="http://www.w3.org/2000/svg"
   xmlns="http://www.w3.org/2000/svg"
   xmlns:xlink="http://www.w3.org/1999/xlink"
   xmlns:sodipodi="http://sodipodi.sourceforge.net/DTD/sodipodi-0.dtd"
   xmlns:inkscape="http://www.inkscape.org/namespaces/inkscape"
   width="174.47096mm"
   height="295.97998mm"
   viewBox="0 0 174.47096 295.97998"
   version="1.1"
   id="svg8"
   inkscape:version="0.92.3 (2405546, 2018-03-11)"
   sodipodi:docname="So long suckers.svg">
  <title
     id="title1053">So long suckers</title>
  <defs
     id="defs2">
    <linearGradient
       inkscape:collect="always"
       id="linearGradient1017">
      <stop
         style="stop-color:#ffff00;stop-opacity:1;"
         offset="0"
         id="stop1013" />
      <stop
         style="stop-color:#ffff00;stop-opacity:0;"
         offset="1"
         id="stop1015" />
    </linearGradient>
    <radialGradient
       inkscape:collect="always"
       xlink:href="#linearGradient1017"
       id="radialGradient1019"
       cx="103.46704"
       cy="254.3535"
       fx="103.46704"
       fy="254.3535"
       r="5.3520308"
       gradientTransform="matrix(1,0,0,0.64503709,0,90.286058)"
       gradientUnits="userSpaceOnUse" />
  </defs>
  <sodipodi:namedview
     id="base"
     pagecolor="#ffffff"
     bordercolor="#666666"
     borderopacity="1.0"
     inkscape:pageopacity="0.0"
     inkscape:pageshadow="2"
     inkscape:zoom="0.61933594"
     inkscape:cx="-600.71407"
     inkscape:cy="456.02409"
     inkscape:document-units="mm"
     inkscape:current-layer="layer1"
     showgrid="false"
     fit-margin-top="0"
     fit-margin-left="0"
     fit-margin-right="0"
     fit-margin-bottom="0"
     inkscape:window-width="1920"
     inkscape:window-height="1025"
     inkscape:window-x="0"
     inkscape:window-y="27"
     inkscape:window-maximized="1" />
  <metadata
     id="metadata5">
    <rdf:RDF>
      <cc:Work
         rdf:about="">
        <dc:format>image/svg+xml</dc:format>
        <dc:type
           rdf:resource="http://purl.org/dc/dcmitype/StillImage" />
        <dc:title>So long suckers</dc:title>
        <dc:creator>
          <cc:Agent>
            <dc:title>Doodleguy</dc:title>
          </cc:Agent>
        </dc:creator>
        <dc:rights>
          <cc:Agent>
            <dc:title>public domain</dc:title>
          </cc:Agent>
        </dc:rights>
        <dc:source>www.fresvg.org</dc:source>
        <dc:date>2023</dc:date>
        <cc:license
           rdf:resource="http://creativecommons.org/publicdomain/zero/1.0/" />
      </cc:Work>
      <cc:License
         rdf:about="http://creativecommons.org/publicdomain/zero/1.0/">
        <cc:permits
           rdf:resource="http://creativecommons.org/ns#Reproduction" />
        <cc:permits
           rdf:resource="http://creativecommons.org/ns#Distribution" />
        <cc:permits
           rdf:resource="http://creativecommons.org/ns#DerivativeWorks" />
      </cc:License>
    </rdf:RDF>
  </metadata>
  <g
     inkscape:groupmode="layer"
     id="layer2"
     inkscape:label="b"
     transform="translate(-1.0321914,-1.2053562)" />
  <g
     inkscape:label="Layer 1"
     inkscape:groupmode="layer"
     id="layer1"
     transform="translate(-1.0321914,-1.2053562)">
    <g
       id="g1051">
      <path
         transform="scale(0.26458333)"
         inkscape:connector-curvature="0"
         id="path973"
         d="m 410.91338,948.29472 c -9.98914,0.66607 -19.99115,1.27185 -29.93747,2.43709 -1.65067,0.29701 -3.43537,0.25879 -4.96491,1.00367 -2.09849,1.71334 -2.77096,4.52022 -3.48911,7.00874 -0.84631,3.5607 -1.47358,7.19529 -1.67817,10.85178 -0.1585,1.45766 0.93184,2.76589 2.32776,3.07367 3.43419,0.98442 7.0581,0.91273 10.59366,1.17331 7.1415,0.25978 14.29337,0.79531 21.4391,0.40045 1.44529,-0.0227 2.94198,-0.87803 3.23617,-2.38378 0.97241,-3.97314 1.23013,-8.0816 1.76443,-12.12827 0.37998,-3.75707 0.91629,-7.51294 1.07982,-11.28363 -0.0436,-0.15928 -0.24045,-0.17157 -0.37128,-0.15303 z"
         style="opacity:1;vector-effect:none;fill:#ffcc00;fill-opacity:1;stroke:none;stroke-width:5.15905523;stroke-linecap:round;stroke-linejoin:round;stroke-miterlimit:4;stroke-dasharray:none;stroke-dashoffset:0;stroke-opacity:1" />
      <path
         inkscape:connector-curvature="0"
         id="path973-6"
         d="m 108.72083,250.90297 c -2.64296,0.17623 -5.28932,0.33651 -7.92095,0.64482 -0.43674,0.0786 -0.908946,0.0685 -1.313637,0.26555 -0.555225,0.45332 -0.73315,1.19598 -0.92316,1.8544 -0.22392,0.9421 -0.389885,1.90375 -0.444016,2.8712 -0.04194,0.38567 0.246549,0.73181 0.615886,0.81324 0.90863,0.26046 1.867457,0.24149 2.802907,0.31044 1.88952,0.0687 3.78179,0.21042 5.67243,0.10595 0.3824,-0.006 0.7784,-0.23231 0.85623,-0.63071 0.25729,-1.05123 0.32548,-2.13826 0.46684,-3.20894 0.10054,-0.99405 0.24244,-1.9878 0.28571,-2.98546 -0.0115,-0.0421 -0.0636,-0.0454 -0.0982,-0.0405 z"
         style="opacity:1;vector-effect:none;fill:url(#radialGradient1019);fill-opacity:1;stroke:none;stroke-width:1.36500001;stroke-linecap:round;stroke-linejoin:round;stroke-miterlimit:4;stroke-dasharray:none;stroke-dashoffset:0;stroke-opacity:1" />
      <path
         inkscape:connector-curvature="0"
         id="path842"
         d="m 143.80123,147.70276 c -2.46809,0.4854 -4.807,1.50901 -7.30773,1.87974 -1.13701,0.0859 -1.76149,1.09352 -2.13673,2.05152 -2.69128,5.55171 -5.33443,11.13614 -7.54185,16.90079 -2.21857,5.11769 -4.45617,10.23051 -6.5048,15.41749 -2.61308,6.04674 -5.56152,11.9447 -8.02347,18.05729 -1.56305,3.37726 -3.14888,6.74525 -4.4662,10.22647 -1.81076,4.56344 -3.25457,9.26153 -5.12604,13.80439 -2.11514,5.13796 -3.949281,10.39103 -5.291396,15.78647 -0.933656,3.82821 -2.44738,7.51639 -2.938682,11.44465 -0.308176,2.23589 -1.544077,4.14836 -2.755897,5.995 -1.176108,2.15097 -1.826761,4.58015 -2.159678,6.99589 -0.183393,0.6577 0.468326,0.94215 1.012775,0.90204 4.525984,0.14621 9.064747,-0.074 13.588918,-0.27099 1.8344,-0.19629 3.78487,-0.0525 5.52111,-0.74432 2.04865,-1.31943 2.95517,-3.91262 2.7186,-6.27373 -0.37519,-7.06524 0.17751,-14.16505 1.27156,-21.14058 1.31763,-6.36142 2.75651,-12.70711 4.35761,-19.00211 1.34756,-4.34717 2.24376,-8.83702 3.99558,-13.05444 2.06774,-5.69215 3.98128,-11.44006 5.9708,-17.1591 0.98235,-3.37109 2.48855,-6.56945 3.53622,-9.92566 1.38611,-3.98548 3.26361,-7.76446 4.95521,-11.6201 1.30373,-3.51206 2.34313,-7.1205 3.92717,-10.52658 0.90184,-1.98468 1.477,-4.07845 2.46517,-6.02544 0.44608,-1.20009 1.12235,-2.39586 1.2884,-3.66087 -0.0899,-0.0927 -0.2435,-0.0583 -0.35665,-0.0578 z M 107.3387,249.95312 c 0.87786,-0.0128 2.25821,0.0633 2.38006,1.1794 0.15284,2.0818 -0.20318,4.18758 -0.66641,6.21358 -0.14813,1.11307 -1.34802,1.53862 -2.33345,1.48899 -3.34884,0.091 -6.744917,0.0134 -10.036466,-0.61815 -0.833551,-0.11021 -0.309173,-1.12709 -0.219434,-1.60898 0.602903,-2.02623 1.29518,-4.03562 1.941935,-6.05245 2.970625,-0.28582 5.950095,-0.51765 8.933765,-0.60239 z"
         style="opacity:1;vector-effect:none;fill:#535d6c;fill-opacity:1;stroke:none;stroke-width:1.36500001;stroke-linecap:round;stroke-linejoin:round;stroke-miterlimit:4;stroke-dasharray:none;stroke-dashoffset:0;stroke-opacity:1" />
      <path
         inkscape:connector-curvature="0"
         id="path844"
         d="m 148.20194,137.43725 c -0.96735,0.11547 -1.85971,0.55938 -2.78942,0.82777 -4.37407,1.41256 -8.80594,2.66435 -13.09684,4.3223 -5.27126,1.9181 -10.64137,3.55662 -15.91303,5.4761 -2.23892,0.81719 -4.50097,1.56581 -6.74706,2.36109 -1.66526,0.67084 -3.28556,1.46572 -5.01707,1.95511 -1.44651,0.47993 -3.00693,0.63733 -4.3715,1.34565 -0.536046,0.27105 -0.944295,0.83328 -0.865513,1.45444 -0.01267,0.83797 0.733053,1.41219 1.448183,1.68264 1.92008,0.72098 4.02698,0.53486 6.01664,0.26805 2.42118,-0.38195 4.72543,-1.25634 7.08379,-1.89489 4.43382,-1.29693 8.90911,-2.45177 13.33697,-3.77088 0.7437,-0.22435 1.48877,-0.4812 2.1242,-0.9386 0.61245,-0.26665 1.31197,-0.23197 1.92274,-0.51742 1.33545,-0.53671 2.62541,-1.18672 4.01839,-1.5726 2.11969,-0.61202 4.27589,-1.1045 6.37464,-1.79397 2.43168,-0.78871 4.87828,-1.58135 7.17689,-2.7116 0.56431,-0.22957 0.95543,-0.79159 0.94632,-1.40448 0.0825,-1.01794 -0.14552,-2.01734 -0.41187,-2.99187 -0.20825,-0.64576 -0.24738,-1.40216 -0.71215,-1.93079 -0.14031,-0.13018 -0.3375,-0.17482 -0.52431,-0.16605 z"
         style="opacity:1;vector-effect:none;fill:#535d6c;fill-opacity:1;stroke:none;stroke-width:1.36500001;stroke-linecap:round;stroke-linejoin:round;stroke-miterlimit:4;stroke-dasharray:none;stroke-dashoffset:0;stroke-opacity:1" />
      <path
         inkscape:connector-curvature="0"
         id="path846"
         d="m 171.96595,132.77419 c -1.86207,0.0822 -3.70519,0.42543 -5.52201,0.82679 -0.38941,0.13658 -0.91698,0.14237 -1.16465,0.51793 -0.14622,0.60036 0.0954,1.22005 0.22852,1.80258 0.29433,0.90654 0.57119,1.86735 1.18117,2.61872 0.32396,0.33896 0.81814,0.04 1.15844,-0.11421 0.62788,-0.47763 1.39783,-0.7346 2.11249,-1.0598 1.34057,-0.49396 2.72786,-1.15484 3.54228,-2.38556 0.35197,-0.50292 0.6118,-1.28386 0.12397,-1.78874 -0.43459,-0.41582 -1.09871,-0.41009 -1.66021,-0.41771 z"
         style="opacity:1;vector-effect:none;fill:#535d6c;fill-opacity:1;stroke:none;stroke-width:1.36500001;stroke-linecap:round;stroke-linejoin:round;stroke-miterlimit:4;stroke-dasharray:none;stroke-dashoffset:0;stroke-opacity:1" />
      <path
         inkscape:connector-curvature="0"
         id="path848"
         d="m 43.407139,218.56699 c -5.126879,0.12902 -10.043565,1.87234 -14.665825,3.97286 -2.869595,1.27877 -5.749765,2.6641 -8.119001,4.76757 -2.2067,1.95024 -4.337313,4.00394 -6.237076,6.25763 -2.275259,2.77772 -3.747815,6.0886 -5.2847656,9.3039 -1.7815948,3.89952 -2.5477041,8.18594 -2.6910138,12.45063 -0.083681,2.80926 -0.1146987,5.6316 0.1459037,8.43248 0.2621722,2.06738 1.1069031,3.99865 1.7135536,5.97792 1.1539336,3.56121 2.5187161,7.12033 4.7651321,10.15161 2.189104,2.96392 4.906537,5.49444 7.714176,7.86183 2.161698,1.80052 4.575223,3.30123 7.192949,4.34271 1.341019,0.55769 2.674683,1.15499 3.896677,1.94614 1.441458,0.68551 3.065809,0.8359 4.620414,1.10697 2.928453,0.40513 5.884838,0.64511 8.841295,0.67101 2.623055,-0.0402 5.279244,0.003 7.844139,-0.63408 3.064118,-0.65831 5.894401,-2.05607 8.750953,-3.29792 2.694723,-1.1739 5.223365,-2.74722 7.357266,-4.77846 2.341161,-2.2089 4.579687,-4.53482 6.652448,-6.99817 2.739763,-3.31859 4.351859,-7.35888 6.180606,-11.20746 0.662535,-1.43402 1.349502,-2.92396 1.317694,-4.54076 0.147164,-2.78439 0.577453,-5.55266 0.521917,-8.34803 -0.02088,-2.90042 -0.212429,-5.83978 -1.030854,-8.63558 -1.205841,-3.43828 -2.76914,-6.74473 -4.475019,-9.96074 -0.893067,-1.70217 -2.208319,-3.12129 -3.290417,-4.69839 -1.657831,-2.21454 -3.760594,-4.04853 -5.871522,-5.81742 -1.923481,-1.63335 -4.029239,-3.09274 -6.408835,-3.97698 -2.920895,-1.12462 -5.861408,-2.21213 -8.855181,-3.12739 -3.435689,-0.79187 -6.96577,-1.1891 -10.490475,-1.22236 l -0.07552,2.6e-4 z m 4.37071,19.04324 c 1.983129,-0.0127 4.045368,0.0271 5.864439,0.92287 2.45658,1.07075 4.77728,2.51562 6.621198,4.48204 2.379366,2.45535 4.093726,5.55206 4.958125,8.85537 0.778926,3.19068 0.278215,6.53105 -0.504301,9.67065 -0.584629,2.23927 -1.646547,4.36017 -3.207967,6.08157 -1.928283,2.33035 -4.391573,4.21288 -7.184273,5.38229 -4.655638,2.01266 -10.124697,2.18852 -14.808534,0.17478 -4.642075,-1.87862 -8.5189,-5.69246 -10.249688,-10.42492 -1.724967,-4.57472 -1.215885,-9.75915 0.685808,-14.19677 1.699599,-3.99462 4.96698,-7.24629 8.907952,-9.03112 2.449438,-1.12106 5.095592,-1.92986 7.809963,-1.90628 0.36904,-0.008 0.738161,-0.0102 1.107278,-0.0105 z"
         style="opacity:1;vector-effect:none;fill:#241f1c;fill-opacity:1;stroke:none;stroke-width:1.36500001;stroke-linecap:round;stroke-linejoin:round;stroke-miterlimit:4;stroke-dasharray:none;stroke-dashoffset:0;stroke-opacity:1" />
      <path
         inkscape:connector-curvature="0"
         id="path850"
         d="m 92.388779,226.24542 c -0.365824,0.13673 -0.39216,0.65255 -0.556652,0.95923 -1.253633,3.689 -2.072756,7.51887 -3.412217,11.17624 -0.186862,0.46546 -0.593363,0.90259 -0.414086,1.4438 0.434787,2.12829 1.406501,4.10014 1.859843,6.22459 0.885957,3.47623 1.022075,7.077 1.138394,10.64624 0.07044,0.35542 -0.06275,0.85062 0.210915,1.12502 0.348319,-0.13459 0.466082,-0.60723 0.677786,-0.89272 0.884483,-1.64994 1.211889,-3.52425 1.676315,-5.31982 0.527754,-2.39049 1.056878,-4.78297 1.809078,-7.11495 0.599173,-2.19749 0.871561,-4.48889 1.791174,-6.59082 0.407593,-1.1332 0.778428,-2.42488 0.371615,-3.6079 -0.148873,-0.29228 -0.585293,-0.32194 -0.614484,-0.70637 -0.126577,-0.69756 -0.110377,-1.42391 -0.36186,-2.10069 -0.55711,-1.97591 -1.93751,-3.61894 -3.491453,-4.90827 -0.20539,-0.14088 -0.424177,-0.32367 -0.684368,-0.33358 z"
         style="opacity:1;vector-effect:none;fill:#241f1c;fill-opacity:1;stroke:none;stroke-width:1.36500001;stroke-linecap:round;stroke-linejoin:round;stroke-miterlimit:4;stroke-dasharray:none;stroke-dashoffset:0;stroke-opacity:1" />
      <path
         inkscape:connector-curvature="0"
         id="path852"
         d="m 96.707866,268.55896 c -2.26387,0.0399 -4.549769,0.0127 -6.78707,0.40145 -1.010674,0.142 -1.772129,0.91826 -2.19478,1.80515 -0.933844,1.86647 -1.564082,3.87953 -2.702404,5.63909 -1.612225,2.69002 -3.853267,4.9031 -5.865447,7.28213 -0.262408,0.42574 -0.814956,0.80843 -0.758113,1.35868 0.229367,0.43628 0.847733,0.35484 1.261565,0.43688 2.179463,0.12277 4.295576,-0.56451 6.392786,-1.05537 2.161137,-0.5666 3.978862,-1.96424 5.673748,-3.36219 1.962886,-1.67992 3.742656,-3.6299 4.897843,-5.9618 1.013597,-1.93617 2.060701,-3.87078 2.8205,-5.92349 0.157972,-0.32793 -0.144708,-0.61378 -0.474213,-0.57717 -0.752408,-0.0648 -1.510151,-0.0358 -2.264415,-0.0434 z"
         style="opacity:1;vector-effect:none;fill:#241f1c;fill-opacity:1;stroke:none;stroke-width:1.36500001;stroke-linecap:round;stroke-linejoin:round;stroke-miterlimit:4;stroke-dasharray:none;stroke-dashoffset:0;stroke-opacity:1" />
      <path
         inkscape:connector-curvature="0"
         id="path854"
         d="m 58.68186,219.78487 c -0.284086,0.0769 0.134247,0.266 0.24861,0.27479 2.927374,1.03358 5.759138,2.36546 8.299149,4.16598 3.654462,2.5438 7.052897,5.51189 9.809056,9.01859 2.736755,3.69089 4.726684,7.91029 6.098866,12.28545 1.826551,5.91977 2.440006,12.29745 1.164656,18.39266 -0.745974,4.20371 -2.005579,8.34441 -4.124246,12.06797 -1.663859,3.02488 -3.645979,5.87677 -6.06334,8.35033 -2.129623,2.18572 -4.253743,4.48657 -6.991045,5.91841 -0.422085,0.30859 -1.026856,0.52441 -1.240031,1.03222 0.07361,0.3148 0.512908,0.0817 0.707861,0.0233 2.244241,-1.01893 4.252727,-2.48541 6.223045,-3.95015 5.261435,-4.03616 9.853731,-9.08182 12.789596,-15.06725 1.681138,-3.40434 3.142456,-6.96846 3.829939,-10.7178 0.610925,-3.70834 0.563647,-7.49357 0.32195,-11.23286 -0.212148,-2.2603 -0.535165,-4.5511 -1.504384,-6.62851 -1.2851,-2.81404 -2.126199,-5.83299 -3.772215,-8.47693 -2.239279,-3.68161 -5.148717,-6.99761 -8.663307,-9.50828 -2.809163,-1.91122 -6.084223,-2.94831 -9.251921,-4.09342 -2.559283,-0.85009 -5.173826,-1.68788 -7.882239,-1.85451 z"
         style="opacity:1;vector-effect:none;fill:#483e37;fill-opacity:1;stroke:none;stroke-width:1.36500001;stroke-linecap:round;stroke-linejoin:round;stroke-miterlimit:4;stroke-dasharray:none;stroke-dashoffset:0;stroke-opacity:1" />
      <path
         inkscape:connector-curvature="0"
         id="path856"
         d="m 103.2051,267.97259 c -0.97888,-0.0119 -2.16365,0.12136 -2.76857,0.99208 -0.25042,0.50964 -0.11004,1.11715 -0.37155,1.63208 -0.391169,1.12075 -0.889726,2.21517 -1.299328,3.31978 -1.301027,2.19258 -2.929479,4.18418 -4.542311,6.15794 -1.01048,1.30699 -2.319123,2.35104 -3.316917,3.66583 -0.100589,0.28953 0.371721,0.23302 0.535718,0.22908 1.473338,-0.16632 2.956028,-0.50163 4.299913,-1.14107 2.367026,-1.32197 4.030469,-3.57632 5.445525,-5.82988 1.5165,-2.51759 2.72523,-5.23224 3.52821,-8.06046 0.13002,-0.35705 0.0349,-0.90696 -0.43129,-0.92305 -0.357,-0.052 -0.71969,-0.0394 -1.0794,-0.0423 z"
         style="opacity:1;vector-effect:none;fill:#483e37;fill-opacity:1;stroke:none;stroke-width:1.36500001;stroke-linecap:round;stroke-linejoin:round;stroke-miterlimit:4;stroke-dasharray:none;stroke-dashoffset:0;stroke-opacity:1" />
      <path
         inkscape:connector-curvature="0"
         id="path858"
         d="m 93.870136,220.70969 c -0.316542,0.57008 -0.462076,1.26325 -0.681067,1.88887 -0.249912,0.69804 -0.30938,1.53931 0.220628,2.13019 1.627217,2.24078 3.683545,4.31952 4.392634,7.07867 0.165735,0.32624 0.139729,0.93445 0.580707,1.02144 0.529575,-0.12986 0.708674,-0.78644 0.832636,-1.24918 0.502092,-2.696 -0.433141,-5.54231 -2.137436,-7.64271 -1.014151,-1.10928 -2.015831,-2.25086 -3.164885,-3.22064 -0.0136,-0.005 -0.02858,-0.009 -0.04322,-0.007 z"
         style="opacity:1;vector-effect:none;fill:#483e37;fill-opacity:1;stroke:none;stroke-width:1.36500001;stroke-linecap:round;stroke-linejoin:round;stroke-miterlimit:4;stroke-dasharray:none;stroke-dashoffset:0;stroke-opacity:1" />
      <path
         inkscape:connector-curvature="0"
         id="path860"
         d="m 46.880861,238.56616 c -1.799844,0.0267 -3.619796,0.0659 -5.384966,0.44992 -1.357802,0.31925 -2.447674,1.24335 -3.614825,1.95262 -1.124834,0.7464 -2.290294,1.4617 -3.20942,2.46655 -1.534932,1.57419 -3.024698,3.27144 -3.860231,5.33427 -1.149051,2.67884 -1.460735,5.62462 -1.480822,8.51405 -0.03671,1.59465 0.101579,3.23194 0.787323,4.69497 1.225838,2.80857 2.815362,5.56699 5.244616,7.50559 1.67246,1.36115 3.626585,2.33725 5.630074,3.10928 1.637834,0.57589 3.375591,0.88852 5.11175,0.90056 1.587957,-0.003 3.180064,-0.10126 4.733522,-0.449 1.934996,-0.424 3.917712,-0.93954 5.570607,-2.07579 0.734832,-0.5638 1.361334,-1.25867 2.128829,-1.78226 1.099339,-0.992 1.86296,-2.28565 2.671329,-3.51068 1.201137,-1.9435 2.301131,-3.96641 3.095622,-6.11258 0.49558,-1.49493 0.21141,-3.09127 0.105042,-4.62358 -0.34163,-3.40529 -1.152321,-6.90428 -3.241183,-9.69037 -1.984544,-2.68724 -4.988747,-4.39442 -8.065097,-5.54802 -1.35934,-0.49705 -2.753043,-0.98596 -4.204629,-1.10393 -0.671957,-0.0319 -1.344962,-0.034 -2.017541,-0.0316 z m 1.290167,12.17356 c 0.967536,-0.0876 1.814825,0.50442 2.451478,1.16869 1.004083,0.9817 2.075061,2.08814 2.371162,3.50043 0.162576,1.13674 -0.0163,2.29538 -0.409366,3.36594 -0.289216,0.95759 -0.761516,1.97279 -1.723009,2.41269 -0.989283,0.46329 -1.983206,0.95807 -3.028606,1.28193 -0.580496,0.12941 -1.11374,-0.28063 -1.63026,-0.48565 -1.42318,-0.72938 -2.772865,-1.65736 -3.844451,-2.85272 -0.618257,-0.77486 -0.533342,-1.82791 -0.499589,-2.75963 0.08811,-1.7662 0.898523,-3.55532 2.388984,-4.56739 1.143468,-0.79997 2.540765,-1.13504 3.923657,-1.06429 z"
         style="opacity:1;vector-effect:none;fill:#535d6c;fill-opacity:1;stroke:none;stroke-width:1.36500001;stroke-linecap:round;stroke-linejoin:round;stroke-miterlimit:4;stroke-dasharray:none;stroke-dashoffset:0;stroke-opacity:1" />
      <path
         inkscape:connector-curvature="0"
         id="path862"
         d="m 47.243335,251.91571 c -1.310267,0.008 -2.4272,0.91482 -3.179005,1.91731 -0.860939,1.17939 -1.383245,2.78362 -0.853888,4.20822 0.496695,1.25757 1.749055,2.03696 2.974272,2.468 1.401807,0.46675 3.067806,0.57637 4.365468,-0.23762 0.564275,-0.42753 0.80508,-1.15144 0.967185,-1.81528 0.254309,-1.36189 0.210852,-2.83125 -0.347626,-4.11518 -0.549113,-1.20616 -1.642377,-2.2428 -3.003457,-2.38581 -0.305975,-0.0372 -0.614958,-0.0477 -0.922949,-0.0396 z"
         style="opacity:1;vector-effect:none;fill:#4d4d4d;fill-opacity:1;stroke:none;stroke-width:1.36500001;stroke-linecap:round;stroke-linejoin:round;stroke-miterlimit:4;stroke-dasharray:none;stroke-dashoffset:0;stroke-opacity:1" />
      <path
         inkscape:connector-curvature="0"
         id="path864"
         d="m 67.459767,158.70371 c -0.708425,-0.005 -1.488557,0.0246 -2.05799,0.5046 -0.670005,0.48842 -1.160865,1.17625 -1.504056,1.92413 -0.684512,1.45899 -1.162593,3.02832 -1.327425,4.6343 -0.01828,0.48775 -0.08812,1.05248 0.220808,1.46976 0.476459,0.37646 1.077489,0.55795 1.644695,0.75416 2.209165,0.66062 4.512249,0.91883 6.796124,1.17528 3.185205,0.3414 6.393569,0.47472 9.57067,0.86848 0.778338,0.15342 1.577353,0.0478 2.364266,0.0513 3.259119,-0.11093 6.516166,-0.30317 9.778204,-0.31057 3.678168,-0.0117 7.357707,-0.0418 11.034927,0.0595 1.35337,0.0135 2.73116,0.22682 4.06831,-0.0705 0.73497,-0.15692 1.43318,-0.69116 1.58115,-1.45901 0.17719,-0.74754 0.0333,-1.60018 0.54683,-2.23446 0.21705,-0.397 0.11931,-0.87597 0.13382,-1.30895 -0.06,-1.00832 -0.17952,-2.03488 -0.55014,-2.98123 -0.0824,-0.2273 -0.27101,-0.41862 -0.52756,-0.41268 -1.99832,-0.26672 -4.01643,-0.3424 -6.0275,-0.46009 -4.521395,-0.21497 -9.050345,-0.40628 -13.546359,-0.94559 -5.003268,-0.62003 -10.051423,-0.66779 -15.079295,-0.95244 -2.371958,-0.11041 -4.743323,-0.30207 -7.119479,-0.30597 z m 18.736669,3.56301 c 0.786276,0.0214 1.591479,-0.0211 2.351146,0.20782 0.286083,0.094 0.272722,0.46553 0.348289,0.70309 0.240115,1.18434 0.166638,2.3998 0.163018,3.6011 -0.02201,0.35915 0.02029,0.81953 -0.286149,1.07786 -0.336259,0.15315 -0.725999,0.041 -1.080657,0.0393 -1.516552,-0.12598 -3.040411,-0.17202 -4.551177,-0.35576 -0.441039,-0.0482 -0.900983,-0.24686 -1.092385,-0.68123 -0.344363,-0.74458 -0.592794,-1.54001 -0.719619,-2.35114 -0.08774,-0.54614 0.01267,-1.18868 0.497559,-1.52656 0.676212,-0.459 1.524881,-0.5323 2.310054,-0.62895 0.684604,-0.0649 1.372576,-0.0847 2.059921,-0.0855 z"
         style="opacity:1;vector-effect:none;fill:#ffcc00;fill-opacity:1;stroke:none;stroke-width:1.36500001;stroke-linecap:round;stroke-linejoin:round;stroke-miterlimit:4;stroke-dasharray:none;stroke-dashoffset:0;stroke-opacity:1" />
      <path
         inkscape:connector-curvature="0"
         id="path866"
         d="m 84.635286,163.31017 c -0.735764,-0.008 -1.516475,0.12522 -2.114227,0.58115 -0.276019,0.19889 -0.457041,0.57649 -0.307835,0.90625 0.160898,0.5026 0.284647,1.02184 0.503865,1.50299 0.22071,0.30037 0.626546,0.37282 0.977585,0.35278 0.792892,-0.0181 1.575064,-0.1654 2.365303,-0.20795 0.474205,-0.0507 0.967103,-0.0154 1.427393,-0.15918 0.307993,-0.11643 0.372684,-0.48695 0.344916,-0.77664 -0.01847,-0.5486 -0.06749,-1.18921 -0.530066,-1.55977 -0.466717,-0.35672 -1.064932,-0.46901 -1.626838,-0.58734 -0.343522,-0.0561 -0.693145,-0.0522 -1.040096,-0.0523 z"
         style="opacity:1;vector-effect:none;fill:#c8ab37;fill-opacity:1;stroke:none;stroke-width:1.36500001;stroke-linecap:round;stroke-linejoin:round;stroke-miterlimit:4;stroke-dasharray:none;stroke-dashoffset:0;stroke-opacity:1" />
      <path
         inkscape:connector-curvature="0"
         id="path868"
         d="m 73.356466,28.430201 c -1.216593,0.58189 -2.489488,1.169249 -3.379464,2.221341 -1.539547,1.723583 -2.765822,3.743905 -3.538352,5.924119 -0.695079,2.350077 -1.110142,4.773033 -1.515491,7.186803 -0.149845,1.070382 -0.354328,2.144022 -0.359749,3.226847 0.09682,0.462463 0.42659,0.87089 0.889219,1.006491 1.495576,0.588346 2.92399,1.360483 4.472059,1.813695 0.675884,0.237162 1.41233,0.166164 2.088002,0.387919 0.359632,0.119925 0.773573,0.435041 0.715798,0.850969 -0.16293,0.567835 -0.828394,0.814866 -1.36109,0.659373 -1.804226,-0.370525 -3.494545,-1.199684 -5.319617,-1.48844 -0.364681,-0.05055 -0.909619,0.124415 -0.854933,0.58115 0.05844,1.22505 0.490818,2.396619 0.882312,3.54762 1.186756,3.1867 3.128187,6.038265 5.305589,8.627094 1.37061,1.498989 2.994813,2.856675 4.926311,3.553955 0.734954,0.270433 1.517243,0.0032 2.266188,0.130164 0.464886,0.110099 0.821703,0.515951 1.327878,0.490218 1.579927,0.06346 3.087288,-0.559647 4.498771,-1.201272 2.605362,-1.219428 4.917829,-3.07208 6.601404,-5.411555 2.344743,-3.233028 3.74741,-7.022708 5.00021,-10.782157 0.521575,-1.692248 1.135991,-3.397131 1.211045,-5.18243 0.04253,-0.940655 -0.354967,-2.035096 -1.30403,-2.382798 -0.824389,-0.273055 -1.739556,-0.257609 -2.576997,-0.04756 -0.481089,0.106992 -0.810212,0.484701 -1.197343,0.75157 -0.471085,0.203658 -1.013584,0.144018 -1.512112,0.0995 -0.200319,-0.03971 -0.595569,-0.197414 -0.42731,-0.459954 0.486185,-0.54949 1.21608,-0.807181 1.864794,-1.100133 1.354973,-0.514738 2.773582,-0.957072 4.230907,-0.992505 1.422611,0.06673 2.825123,0.601978 3.964785,1.458506 0.3424,0.305543 0.81388,0.661611 0.80821,1.16845 -0.12703,0.455795 -0.70725,0.474477 -1.086267,0.574056 -0.571127,0.09839 -0.854316,0.673798 -0.949439,1.190588 -0.255426,1.277403 -0.442103,2.57221 -0.845603,3.814701 -1.183013,3.842946 -2.8433,7.535296 -4.837618,11.023349 -1.124336,1.978382 -2.491594,3.857757 -4.307308,5.261464 -1.640007,1.32076 -3.571049,2.204903 -5.550969,2.889496 -0.378875,0.188944 -0.890746,0.255889 -1.138671,0.629679 -0.09974,0.362765 0.395705,0.472221 0.63455,0.58021 1.609598,0.54196 3.254314,1.024258 4.940644,1.252641 1.611045,0.182912 3.239743,-0.06112 4.772747,-0.5662 1.933946,-0.553908 3.772366,-1.499397 5.230209,-2.900731 1.895523,-1.714878 3.346275,-3.910412 4.155255,-6.336794 1.18907,-3.523372 1.4743,-7.266863 1.68779,-10.955023 0.0968,-2.526924 0.2631,-5.06422 0.0543,-7.589591 -0.14818,-1.457608 -0.52116,-2.895243 -1.07709,-4.249208 -0.28251,-0.706173 -1.00252,-1.067533 -1.69319,-1.264267 -2.131184,-0.66489 -4.338975,-1.099933 -6.563132,-1.292106 -0.833323,-0.08773 -1.695574,0.06425 -2.402477,0.530765 -0.810056,0.476446 -1.580856,1.015712 -2.368653,1.527376 -0.05358,-1.089501 -0.153636,-2.23039 -0.770004,-3.167763 -0.926155,-1.540391 -2.279309,-2.814339 -3.8408,-3.698492 -0.830569,-0.430008 -1.705822,-0.977101 -2.678065,-0.914381 -0.894122,0.135686 -1.727679,0.564562 -2.469988,1.067596 -1.351275,0.973733 -2.109306,2.580122 -2.311591,4.203973 -0.17699,1.187473 -0.104476,2.405837 -0.264258,3.586675 -0.04037,0.285084 -0.347181,0.05256 -0.474972,-0.02117 -1.18092,-0.741437 -1.794592,-2.073357 -2.344621,-3.302913 -0.732745,-1.755918 -1.173607,-3.651814 -1.100032,-5.56211 -0.02164,-0.309769 0.02874,-0.640181 -0.04756,-0.939517 l -0.05173,-0.01188 z m 13.829297,19.112621 c 0.450522,0.01085 0.558716,0.632376 0.230709,0.880589 -1.003173,1.027134 -2.139648,1.919163 -3.163168,2.928702 -1.123203,1.009674 -2.139759,2.167914 -3.436188,2.961426 -0.259117,0.18809 -0.407125,-0.153249 -0.486863,-0.345123 -0.218712,-0.670038 0.272828,-1.287245 0.667499,-1.779362 1.311669,-1.475812 2.919357,-2.645209 4.504978,-3.804912 0.520539,-0.325422 1.048462,-0.786297 1.683033,-0.84132 z m -10.570921,8.907161 c 0.390871,-0.06769 0.52655,0.494451 0.293809,0.734986 -0.581821,0.960829 -1.669862,1.606016 -1.963515,2.738972 -0.175379,0.551683 0.167838,1.150512 0.705575,1.332304 0.563867,0.264221 1.360786,0.12391 1.740527,0.707036 0.23554,0.44641 -0.03315,1.076296 -0.560393,1.132366 -0.908542,0.126638 -1.816976,-0.351009 -2.448727,-0.978829 -0.732329,-0.760878 -1.23263,-1.853258 -1.023982,-2.921608 0.263591,-0.790496 0.997503,-1.28904 1.58773,-1.826363 0.49716,-0.377709 1.021533,-0.850019 1.668976,-0.918864 z"
         style="opacity:1;vector-effect:none;fill:#deaa87;fill-opacity:1;stroke:none;stroke-width:1.36500001;stroke-linecap:round;stroke-linejoin:round;stroke-miterlimit:4;stroke-dasharray:none;stroke-dashoffset:0;stroke-opacity:1" />
      <path
         inkscape:connector-curvature="0"
         id="path870"
         d="m 149.76622,128.62557 c -1.13594,0.12177 -2.12221,0.81958 -2.95064,1.56324 -1.12458,1.07878 -2.09138,2.45116 -2.31579,4.02505 -0.0916,0.672 0.0992,1.40411 0.64415,1.8417 0.51002,0.55226 1.4163,0.44788 1.93358,-0.0388 0.47245,-0.35491 0.88795,-1.00792 1.55884,-0.9026 0.71311,0.21916 1.05733,0.96284 1.35066,1.58591 0.87744,2.15449 1.04719,4.51664 1.09624,6.82112 0.0681,1.55273 -0.003,3.13133 0.33124,4.65808 0.12688,0.57352 0.51509,1.1851 1.14868,1.25074 0.31367,0.0477 0.32211,-0.37538 0.35555,-0.58762 0.18194,-2.23003 0.0448,-4.47208 -0.0587,-6.70303 -0.0999,-1.13488 -0.059,-2.30933 -0.41698,-3.40314 -0.29454,-0.85079 -1.38301,-1.12892 -1.57908,-2.03996 -0.0968,-0.455 0.47728,-0.73585 0.86338,-0.63267 0.6596,0.12111 1.07725,0.74263 1.37956,1.28704 0.68863,1.57639 0.98393,3.30369 1.21515,5.00062 0.11869,0.92595 0.15445,1.86476 0.0241,2.79169 -0.0231,0.76342 0.32742,1.5644 0.9464,2.02172 0.29352,0.22309 0.84063,0.22336 0.95465,-0.19588 0.36492,-1.07459 0.34676,-2.23421 0.42387,-3.3547 0.0582,-1.89668 0.0958,-3.79751 0.0167,-5.69378 -0.008,-0.53379 -0.27347,-1.03403 -0.71208,-1.3387 -0.48924,-0.39351 -1.12131,-0.83854 -1.11897,-1.53742 0.0282,-0.34845 0.46681,-0.3925 0.71538,-0.24552 0.85254,0.42233 1.61707,1.04445 2.19807,1.7956 0.47799,0.86104 0.40916,1.88219 0.49468,2.83298 0.11367,1.80136 0.0574,3.61828 0.31447,5.40781 0.0524,0.39296 0.25861,0.85609 0.71069,0.88529 0.44075,0.10496 0.9385,0.0111 1.22488,-0.36557 0.72819,-0.88538 0.82092,-2.10103 0.88252,-3.20036 0.0402,-1.90164 -0.24034,-3.87719 -1.18422,-5.55445 -0.38409,-0.68622 -0.98692,-1.26854 -1.20364,-2.03795 -0.0566,-0.29575 0.29927,-0.22757 0.45735,-0.14237 1.86059,0.72731 3.16078,2.65049 3.21953,4.6312 0.0712,0.6053 -0.0134,1.32507 0.41891,1.81463 0.29117,0.2305 0.57933,-0.15511 0.6868,-0.39779 0.72664,-1.49627 0.59465,-3.30609 -0.17207,-4.76038 -0.79273,-1.5346 -1.96898,-2.8496 -3.27404,-3.96791 -1.2448,-1.04495 -2.86865,-1.53027 -4.47585,-1.57271 -1.35667,-0.10453 -2.73718,-0.006 -4.07644,-0.23893 -0.56403,-0.0634 -0.96311,-0.49322 -1.2679,-0.93328 -0.1835,-0.25372 -0.43586,-0.40634 -0.7596,-0.3689 z"
         style="opacity:1;vector-effect:none;fill:#deaa87;fill-opacity:1;stroke:none;stroke-width:1.36500001;stroke-linecap:round;stroke-linejoin:round;stroke-miterlimit:4;stroke-dasharray:none;stroke-dashoffset:0;stroke-opacity:1" />
      <path
         inkscape:connector-curvature="0"
         id="path872"
         d="m 8.4056957,15.982851 c -0.5826495,0.03102 -1.2218551,0.04581 -1.7206581,0.386375 -0.1899217,0.121784 -0.3196715,0.392935 -0.1374696,0.580559 0.3612679,0.407867 0.7619291,0.779506 1.073781,1.232317 0.4601602,0.569222 0.7485277,1.368148 1.4801768,1.65027 0.6434849,0.212606 1.3368502,0.10896 2.0007562,0.09559 0.814565,-0.06464 1.670544,-0.121373 2.407126,-0.506528 0.280916,-0.129707 0.207604,-0.477117 0.185923,-0.724519 C 13.571389,18.18225 13.145576,17.805508 12.757704,17.474804 11.533048,16.527125 9.9991057,15.956633 8.4420545,15.982827 Z"
         style="opacity:1;vector-effect:none;fill:#deaa87;fill-opacity:1;stroke:none;stroke-width:1.36500001;stroke-linecap:round;stroke-linejoin:round;stroke-miterlimit:4;stroke-dasharray:none;stroke-dashoffset:0;stroke-opacity:1" />
      <path
         inkscape:connector-curvature="0"
         id="path874"
         d="m 8.5454518,2.6811028 c -0.371135,-0.012774 -0.4791355,0.4102581 -0.5034386,0.7043716 -0.1423358,1.5368894 0.045643,3.0816023 0.2363904,4.6061352 0.2409518,1.6246377 0.504353,3.2645614 1.0846393,4.8081224 0.347051,0.844874 0.8279841,1.747355 1.6937391,2.151358 0.228296,0.08202 0.509298,0.202639 0.742145,0.08673 0.215711,-0.336739 0.122613,-0.771392 0.119254,-1.149835 C 11.769701,12.259791 11.523079,10.642404 11.34545,9.0175756 11.211416,8.1461768 11.140968,7.2375532 10.762299,6.4295874 10.605763,6.1836117 10.376012,5.9718328 10.346557,5.6630752 10.221687,5.1582131 10.292667,4.6194088 10.078048,4.1309517 9.8306751,3.5199817 9.3988164,2.8829428 8.7322603,2.6968854 8.6709439,2.6839553 8.6080856,2.6783223 8.5454518,2.6811028 Z"
         style="opacity:1;vector-effect:none;fill:#deaa87;fill-opacity:1;stroke:none;stroke-width:1.36500001;stroke-linecap:round;stroke-linejoin:round;stroke-miterlimit:4;stroke-dasharray:none;stroke-dashoffset:0;stroke-opacity:1" />
      <path
         inkscape:connector-curvature="0"
         id="path876"
         d="m 15.060294,14.544212 c -0.234647,-0.0055 -0.170939,0.299507 -0.174418,0.450685 0.119613,0.90772 0.433956,1.789154 0.857932,2.598134 0.221119,0.337 0.471209,0.671787 0.514077,1.0874 0.149002,0.688409 0.02763,1.451113 0.432797,2.068431 0.443588,0.776098 1.201519,1.321767 1.981722,1.725288 0.380254,0.200658 0.953398,0.277726 1.237607,-0.120196 0.42547,-0.557323 0.395616,-1.318938 0.163209,-1.948619 -0.487164,-1.372885 -1.46348,-2.492476 -2.400733,-3.579488 -0.717349,-0.776068 -1.430013,-1.583087 -2.312179,-2.176763 -0.09187,-0.05058 -0.191288,-0.109386 -0.300014,-0.104872 z"
         style="opacity:1;vector-effect:none;fill:#deaa87;fill-opacity:1;stroke:none;stroke-width:1.36500001;stroke-linecap:round;stroke-linejoin:round;stroke-miterlimit:4;stroke-dasharray:none;stroke-dashoffset:0;stroke-opacity:1" />
      <path
         inkscape:connector-curvature="0"
         id="path878"
         d="m 27.37984,16.876478 c -1.675509,0.0056 -3.201586,0.876342 -4.476174,1.893823 -0.542928,0.478053 -1.177307,0.937022 -1.455822,1.630314 -0.308399,0.872586 0.257753,1.799698 -0.108413,2.662518 -0.288164,0.658763 -1.111736,0.865047 -1.764686,0.815231 -1.028003,-0.09475 -1.995061,-0.508951 -2.88109,-1.020439 -0.526104,-0.308187 -0.994454,-0.699211 -1.383718,-1.167572 -0.563012,-0.446054 -1.331024,-0.493583 -2.021262,-0.457102 -0.273238,0.02705 -0.691994,-0.0154 -0.809995,0.302006 -0.114599,0.597159 0.17396,1.18288 0.161815,1.780534 0.04606,0.945274 -0.60757,1.877957 -1.510767,2.165522 -0.623357,0.228542 -1.329939,0.27063 -1.9486999,-0.01637 C 7.8876519,24.903725 6.8077391,23.933779 5.8607375,22.906722 5.4025918,22.371768 4.9258717,21.792472 4.7777923,21.0859 c -0.018209,-0.341746 0.1129604,-0.703274 0.3480255,-0.952185 0.2666061,-0.126256 0.5102924,0.151538 0.7022463,0.305767 1.1035101,1.101081 1.8258295,2.545882 3.0414446,3.540215 0.3752014,0.3273 0.9038598,0.401 1.3725593,0.264984 0.406745,-0.08313 0.863916,-0.389536 0.811322,-0.858818 C 11.002757,22.734711 10.428411,22.294015 9.9405989,21.939299 9.2480547,21.490893 8.5099662,21.103332 7.9107759,20.523349 7.410964,20.091375 7.0390445,19.544295 6.6603316,19.010062 6.3203129,18.584351 5.8663098,18.161368 5.3003838,18.107733 c -0.3833405,-0.02176 -0.790838,-0.01817 -1.114806,0.218721 -0.7926466,0.521831 -1.1710275,1.452805 -1.4758794,2.312669 -0.368496,1.063496 -0.3196133,2.264332 0.1785917,3.278285 0.4666329,1.003656 1.1871129,1.861414 1.9756998,2.627621 2.3695757,2.408211 4.7438161,4.812863 7.1727071,7.161464 0.368043,0.304038 0.765813,0.717328 1.283395,0.67931 0.549134,-0.133123 0.959571,-0.564889 1.441598,-0.836116 0.901,-0.561763 1.806159,-1.164566 2.86379,-1.369877 1.523799,-0.358304 3.095149,-0.403061 4.64792,-0.558964 0.235185,-0.05107 0.218448,-0.366932 0.266708,-0.553178 0.224327,-1.699958 0.05054,-3.447304 0.51622,-5.111843 0.393935,-1.414906 1.336249,-2.627198 2.447169,-3.561234 0.550887,-0.47057 1.257578,-0.715868 1.976876,-0.747693 1.015209,-0.09822 2.049053,-0.01365 3.05579,-0.200007 0.447296,-0.0889 1.014886,-0.300666 1.091522,-0.816175 0.05527,-0.631587 -0.343233,-1.185712 -0.665136,-1.693625 -0.657431,-1.023101 -1.697667,-1.871528 -2.935284,-2.020617 -0.21439,-0.02953 -0.431094,-0.04137 -0.647425,-0.04 z"
         style="opacity:1;vector-effect:none;fill:#deaa87;fill-opacity:1;stroke:none;stroke-width:1.36500001;stroke-linecap:round;stroke-linejoin:round;stroke-miterlimit:4;stroke-dasharray:none;stroke-dashoffset:0;stroke-opacity:1" />
      <path
         inkscape:connector-curvature="0"
         id="path880"
         d="m 86.447073,15.032422 c -3.882167,-0.01422 -7.637306,1.49738 -10.782675,3.701938 -2.733016,1.938293 -5.171583,4.346048 -6.961426,7.189597 -1.030181,1.775724 -1.878174,3.666371 -2.478362,5.630563 -0.08084,0.395092 -0.267529,0.845741 -0.09125,1.235901 0.230595,0.195259 0.484534,-0.150429 0.636498,-0.295114 0.740214,-0.8539 1.225391,-1.933257 2.161508,-2.607397 1.637591,-1.273435 3.487216,-2.265035 5.409195,-3.026394 0.573349,-0.169678 1.221507,-0.45296 1.79488,-0.126434 0.389128,0.140729 0.50722,0.618162 0.299961,0.955162 -0.396904,0.730551 -1.199436,1.204354 -1.394502,2.05477 -0.371809,1.57662 -0.09506,3.22527 0.294367,4.771122 0.01775,0.199954 0.252923,0.45534 0.415626,0.216625 0.543441,-0.841213 0.821552,-1.82349 1.263991,-2.718498 0.490218,-1.117973 1.16649,-2.240357 2.290072,-2.810132 0.988409,-0.491268 2.04977,-0.848773 3.142351,-0.996749 1.517951,-0.127958 2.948072,0.645023 4.106703,1.549712 1.334974,1.06471 2.519865,2.408884 3.063828,4.054319 0.193384,0.40971 0.30122,0.986097 0.768474,1.172499 0.469813,0.04431 0.889259,-0.279329 1.355143,-0.316648 1.840632,-0.323184 3.737962,-0.281446 5.602578,-0.211802 1.090925,0.06002 2.194661,0.216308 3.184677,0.705228 0.93583,0.363469 1.8608,0.856756 2.8764,0.936916 0.40245,0.0388 0.83961,-0.256053 0.81144,-0.690975 0.077,-1.533424 -0.58354,-2.972244 -1.23143,-4.321945 -0.39736,-0.800751 -0.33436,-1.720326 -0.60934,-2.559502 -0.60915,-2.1241 -1.3455,-4.252699 -2.567182,-6.11044 -1.254707,-1.811072 -2.872399,-3.328402 -4.430379,-4.872361 -0.813163,-0.798149 -1.743406,-1.544311 -2.883826,-1.790221 -1.977218,-0.471373 -4.010401,-0.77057 -6.047317,-0.71974 z"
         style="opacity:1;vector-effect:none;fill:#ffffff;fill-opacity:1;stroke:none;stroke-width:1.36500001;stroke-linecap:round;stroke-linejoin:round;stroke-miterlimit:4;stroke-dasharray:none;stroke-dashoffset:0;stroke-opacity:1" />
      <path
         inkscape:connector-curvature="0"
         id="path882"
         d="m 106.47449,34.14327 c -0.51346,-0.01103 -0.90802,0.471146 -0.87164,0.968719 -0.14143,2.838889 -0.10848,5.683784 -0.16498,8.525255 -0.0749,3.94225 -0.0725,7.89449 -0.38582,11.824835 -0.0746,1.019472 -0.27109,2.021065 -0.56141,3.00195 -0.11738,0.413266 -0.17837,0.963813 0.23071,1.241758 0.61981,0.431747 1.42787,0.07737 1.94672,-0.35451 0.91114,-0.767466 1.59615,-1.787768 2.08179,-2.868612 0.61379,-1.608707 0.5976,-3.363844 0.71062,-5.058199 0.14581,-3.444298 0.23142,-6.897298 0.0581,-10.341932 -0.18146,-2.030873 -0.50458,-4.126691 -1.5529,-5.910363 -0.3279,-0.519277 -0.83239,-1.032547 -1.49115,-1.028901 z"
         style="opacity:1;vector-effect:none;fill:#ffffff;fill-opacity:1;stroke:none;stroke-width:1.36500001;stroke-linecap:round;stroke-linejoin:round;stroke-miterlimit:4;stroke-dasharray:none;stroke-dashoffset:0;stroke-opacity:1" />
      <path
         inkscape:connector-curvature="0"
         id="path884"
         d="m 111.79609,34.709504 c -0.5055,0.0516 -1.09388,0.09949 -1.47696,0.469236 -0.29081,0.505704 -0.10342,1.126104 -0.0755,1.673712 0.46271,3.363373 0.37957,6.773481 0.4566,10.163008 0.0589,2.843676 0.0411,5.692402 0.24018,8.530815 0.0392,0.19975 -0.0109,0.652142 0.31352,0.593249 0.25494,-0.05415 0.25317,-0.336127 0.35576,-0.514191 0.54138,-0.586407 1.34941,-0.822894 1.90419,-1.399824 1.0432,-0.969928 1.91689,-2.177944 2.34127,-3.547866 0.26639,-1.265812 0.19232,-2.573211 0.2168,-3.859025 -0.0503,-2.658475 -0.0135,-5.403733 -0.99143,-7.922485 -0.49962,-1.253431 -0.9617,-2.581497 -1.88164,-3.598492 -0.36297,-0.380978 -0.86464,-0.642196 -1.40281,-0.588137 z"
         style="opacity:1;vector-effect:none;fill:#ffffff;fill-opacity:1;stroke:none;stroke-width:1.36500001;stroke-linecap:round;stroke-linejoin:round;stroke-miterlimit:4;stroke-dasharray:none;stroke-dashoffset:0;stroke-opacity:1" />
      <path
         inkscape:connector-curvature="0"
         id="path886"
         d="m 17.728083,33.40563 c -1.594854,0.880126 -3.6351,1.561258 -4.479567,3.317859 -0.324527,1.585288 1.165711,2.770336 2.214207,3.709384 1.871097,1.565677 4.151478,2.578468 5.832089,4.378854 3.356118,3.014644 6.884199,5.834616 10.148898,8.952537 6.292278,5.687565 12.747659,11.194915 19.207152,16.690824 1.378489,1.237927 2.98619,2.139889 4.60244,3.011929 1.998342,1.293122 4.035306,2.528867 6.114939,3.678185 3.787124,2.357517 8.064621,4.053615 11.320605,7.185303 0.347274,0.251676 0.206674,0.710191 -0.236887,0.634248 -1.730915,-0.03464 -2.498489,-2.120588 -4.126746,-2.397461 -0.818848,-0.01847 -0.815244,1.103119 -1.069078,1.659078 -2.128623,8.107397 -3.394898,16.47529 -6.377889,24.33362 -1.212578,2.64758 -2.283849,5.36323 -3.594275,7.9644 -1.470993,2.93711 -4.008607,5.194 -6.967487,6.57118 -1.857968,1.10012 -3.982162,1.98588 -5.366438,3.70336 -0.22121,1.06652 0.59822,2.07018 1.072026,2.96681 2.356344,3.46251 5.318852,6.48115 8.390143,9.31009 1.178534,0.85272 2.489452,1.51392 3.665601,2.37926 2.606202,1.46799 5.340324,2.83717 8.270015,3.50636 1.610926,0.1093 2.664862,-1.47699 3.56802,-2.57357 2.366701,-3.07168 4.157485,-6.5187 6.017996,-9.90198 2.539566,-4.0901 4.819816,-8.36693 6.741879,-12.78556 1.042805,-2.58339 2.250125,-5.1281 3.20235,-7.73039 0.299358,-8.54474 0.32656,-17.107746 0.956289,-25.635809 0.247248,-3.547896 1.994027,-6.748854 3.473323,-9.911098 0.70444,-1.233149 1.34665,-3.111159 3.021976,-3.171537 1.099685,0.08203 0.892757,1.469872 1.004683,2.236174 0.209794,5.6681 1.232792,11.261759 1.615028,16.916429 0.850984,10.263161 1.606034,20.536411 2.843974,30.762491 0.631066,5.24167 0.80827,10.58842 2.221051,15.70046 0.33538,1.28227 1.3044,2.22892 1.8195,3.42748 1.5665,2.42671 3.07231,4.95499 5.10532,7.02494 0.52452,0.31513 1.14484,-0.34222 1.67068,-0.43845 0.98675,-0.6291 2.2519,-0.1216 3.21982,-0.80232 1.79954,-0.81538 3.77151,-1.24918 5.5398,-2.11013 0.36635,-0.8382 -0.3762,-1.73029 -0.61975,-2.51433 -1.55952,-3.24297 -3.24173,-6.48794 -3.89608,-10.06247 -1.3786,-4.84695 -1.568,-9.91979 -2.06443,-14.90801 -0.24751,-4.31715 -0.48117,-8.65489 -0.28763,-12.97673 8e-4,-1.13376 1.31691,-1.60795 1.70687,-2.49304 -3.431,-3.905088 -6.87681,-7.825366 -9.71728,-12.195571 -0.56608,-1.023525 -1.53529,-2.008793 -1.64138,-3.18865 0.46274,-0.106836 0.81829,0.611013 1.13185,0.897938 1.70446,2.349672 2.9143,5.039807 4.84612,7.234893 5.14745,6.13061 11.07789,11.55608 16.0762,17.81735 2.38775,2.49787 4.98112,4.79208 7.33604,7.32546 3.29396,3.43185 6.66582,6.79886 9.62231,10.53403 0.66764,0.61439 1.31192,1.76339 2.35467,1.64532 0.78751,-0.36542 0.32695,-1.44063 0.84517,-2.01691 0.73805,-1.27171 1.8766,-2.50007 3.38158,-2.74143 0.79087,-0.28858 1.98517,-1.06817 1.39652,-2.05113 -1.58841,-2.23432 -3.82332,-3.93265 -5.99792,-5.56752 -5.40422,-3.87207 -10.93812,-7.78692 -15.01369,-13.12209 -4.26709,-5.19684 -7.82617,-10.923509 -11.95087,-16.231287 -4.71886,-6.516507 -9.31688,-13.274489 -12.20105,-20.828399 -0.68906,-1.814224 -0.99096,-3.820213 -1.62574,-5.600565 -1.69486,1.247968 -2.972455,3.0285 -4.778993,4.159494 -3.949967,2.788771 -9.213223,2.770042 -13.699482,1.463788 -1.843857,-0.494135 -3.56843,-1.398674 -5.407339,-1.873543 -1.129819,0.694774 -2.016618,1.761109 -3.271774,2.273604 -0.704827,0.521078 -1.493401,1.305615 -2.453871,0.891151 -4.08709,-1.537684 -7.49773,-4.380902 -11.06189,-6.82688 C 54.75901,60.290212 47.835928,55.971392 41.537096,50.814633 35.485249,45.548287 30.049274,39.593051 23.873425,34.46 22.141145,33.157392 19.757326,33.451167 17.728083,33.40563 Z m 67.337466,45.842623 c 0.935275,0.19926 1.084432,1.46408 1.020696,2.260878 0.04453,0.884597 -1.122929,1.618512 -1.761736,0.851958 -0.452591,-0.60806 -1.188648,-1.508757 -0.557845,-2.194502 0.29028,-0.440695 0.748504,-0.875321 1.298885,-0.918334 z m -4.187222,29.855427 c 0.801862,0.3449 1.51035,1.41595 0.873493,2.23049 -0.322368,0.55573 -1.089795,1.08919 -1.663565,0.53241 -0.510556,-0.22308 -1.269749,-0.70824 -0.781391,-1.33629 0.350988,-0.5817 0.851603,-1.31691 1.571463,-1.42661 z m -11.43182,26.26704 c 1.046559,0.11899 0.899379,1.57796 0.362849,2.16383 -0.4886,0.67147 -1.49529,1.12256 -2.278872,0.80505 -0.09269,-1.00082 0.575387,-1.97591 1.233689,-2.68981 0.189256,-0.16185 0.42876,-0.281 0.682334,-0.27907 z"
         style="opacity:1;vector-effect:none;fill:#003380;fill-opacity:1;stroke:none;stroke-width:1.36500001;stroke-linecap:round;stroke-linejoin:round;stroke-miterlimit:4;stroke-dasharray:none;stroke-dashoffset:0;stroke-opacity:1" />
      <path
         inkscape:connector-curvature="0"
         id="path888"
         d="m 60.922825,168.07969 c -0.590251,0.85378 -0.949333,1.86583 -1.472872,2.76798 -0.482732,0.92401 -0.993497,1.83607 -1.607955,2.67756 -1.053311,2.04479 -1.508048,4.33453 -1.937263,6.57637 -0.438777,2.69719 -0.650047,5.42862 -0.923348,8.14411 1.136928,2.11761 2.112081,4.33875 3.479371,6.32272 0.131424,0.22298 0.461196,0.51338 0.670682,0.20532 0.860634,-1.17802 1.371039,-2.58002 1.824188,-3.95642 0.240766,-0.50518 0.02609,-1.21898 0.536694,-1.57541 0.335159,-0.0499 0.775648,-0.16443 1.067602,0.0581 0.273114,0.64176 -0.261607,1.27647 -0.465151,1.86095 -0.798367,1.76967 -1.924648,3.48784 -2.083496,5.46256 -0.05648,0.72618 -0.569666,1.25404 -1.00462,1.78799 -0.355489,0.49591 -0.266324,1.14424 -0.492485,1.6973 -1.600165,5.61818 -3.801488,11.04115 -5.952786,16.46591 -0.130865,0.43644 -0.394369,0.86717 -0.416861,1.32165 0.85944,0.22721 1.787411,0.21962 2.673222,0.33946 3.764267,0.33879 7.571637,0.6994 11.144748,2.0092 1.525926,0.48001 2.982375,1.21428 4.558138,1.5246 0.655714,0.1107 1.012735,-0.64322 1.079847,-1.18228 0.08227,-1.77772 0.932598,-3.39307 1.470718,-5.06204 0.828199,-2.17873 1.499621,-4.42804 2.459707,-6.55076 0.229169,-0.52249 0.797652,-0.87793 0.785878,-1.50449 0.227137,-1.43793 1.275194,-2.55341 1.817463,-3.87082 1.011476,-2.17733 1.688388,-4.49096 2.418138,-6.77291 0.171411,-0.27886 -0.0032,-0.62491 -0.331872,-0.63705 -0.497612,-0.12858 -1.114269,-0.0112 -1.555091,-0.18335 0.821126,-1.11564 2.2875,-1.30069 3.550613,-1.54255 1.53534,-0.21378 3.120922,-0.42903 4.655682,-0.15738 0.176636,0.0143 0.557713,0.19389 0.325975,0.39854 -1.080892,0.77484 -2.478789,0.84916 -3.696639,1.32278 -1.047631,0.31827 -1.868051,1.14379 -2.275332,2.14848 -0.887122,2.00274 -1.303425,4.19451 -2.398244,6.10785 -1.307032,2.67877 -2.132389,5.5561 -3.226195,8.32272 -0.753948,2.14637 -1.686308,4.25627 -2.091735,6.50563 -0.04314,1.03688 -0.559244,1.93585 -1.077169,2.80389 -0.285474,0.32954 -0.01291,0.72643 0.313881,0.8816 1.188558,0.65709 2.477603,1.13347 3.558873,1.97827 2.180101,1.65773 4.069887,3.66533 5.837449,5.74739 1.939547,2.30138 3.450363,4.92058 4.746519,7.62835 0.07873,0.11672 0.274143,0.68198 0.374672,0.30132 1.248179,-4.84818 2.83392,-9.60165 4.412035,-14.35158 0.532606,-1.61397 1.126506,-3.20366 1.776378,-4.77214 0.31882,-1.16852 0.360688,-2.39149 0.691565,-3.55997 0.860904,-3.4967 1.853883,-6.96522 2.699539,-10.46791 0.740868,-2.73767 1.392745,-5.50557 2.325481,-8.18624 0.486397,-1.03087 0.926021,-2.08296 1.231331,-3.18437 0.58082,-2.01357 1.314,-3.9912 1.72722,-6.04852 0.43162,-2.66163 1.33123,-5.22346 2.20531,-7.76592 0.82746,-2.44574 2.02004,-4.73966 3.13693,-7.06105 0.13599,-0.418 0.50136,-0.89076 0.30626,-1.33723 -0.59824,-0.38493 -1.37195,-0.36927 -2.05381,-0.5058 -5.5261,-0.69714 -11.107659,-0.45174 -16.662282,-0.49739 -6.272784,0.0211 -12.549722,-0.0271 -18.807702,-0.49415 -2.193433,-0.18925 -4.435298,-0.18538 -6.56181,-0.81383 -0.980892,-0.2994 -1.79682,-1.01205 -2.767391,-1.32706 z"
         style="opacity:1;vector-effect:none;fill:#ffffff;fill-opacity:1;stroke:none;stroke-width:1.36500001;stroke-linecap:round;stroke-linejoin:round;stroke-miterlimit:4;stroke-dasharray:none;stroke-dashoffset:0;stroke-opacity:1" />
      <path
         inkscape:connector-curvature="0"
         id="path890"
         d="m 92.490755,76.270444 c -0.693653,0.298064 -0.936882,1.153711 -1.342316,1.737188 -2.299036,4.331423 -2.818167,9.32407 -3.173561,14.138257 -0.35283,5.534263 -0.127101,11.095751 -0.562187,16.621951 -0.493633,5.37652 -2.829655,10.3427 -5.307134,15.06835 -0.812911,1.54324 -1.586373,3.10989 -2.2357,4.72638 -1.462884,2.47696 -3.006862,4.91268 -4.420317,7.42295 -1.959409,3.17647 -3.977751,6.40301 -6.735405,8.95686 -0.5807,0.45469 -1.178994,1.1294 -1.995223,0.94431 -0.544883,0.13421 -0.306615,0.90045 -0.349814,1.30101 0.235776,2.62637 0.113335,5.2619 -0.319778,7.86095 -0.04652,0.59594 -0.201358,1.2305 -0.03442,1.80707 2.925133,0.72744 5.964258,0.79093 8.95478,1.05136 5.868448,0.33999 11.745206,0.60404 17.589765,1.25381 5.288833,0.53285 10.609465,1.11416 15.931255,0.8269 0.62404,0.0713 1.17736,-0.76352 0.63163,-1.21007 -0.61984,-0.42917 -1.4644,-0.14606 -2.16814,-0.25115 -2.2905,-0.0589 -4.59821,0.13926 -6.87763,-0.0849 -1.054101,-0.53591 -1.768058,-1.60521 -2.233021,-2.66523 -0.348861,-0.9586 0.496234,-1.84722 1.142481,-2.45517 2.01939,-1.7569 4.83463,-1.86543 7.2095,-2.88447 0.46706,-0.29931 -0.0234,-0.94283 -0.17008,-1.29598 -1.71291,-2.7367 -3.55205,-5.40134 -5.06646,-8.25943 -0.73214,-1.31457 -1.451313,-2.6742 -1.612039,-4.19416 -0.83036,-3.11507 -0.948089,-6.35502 -1.268524,-9.55089 -0.475863,-5.05092 -0.732356,-10.12716 -1.422423,-15.1551 -0.714423,-3.68113 -0.720106,-7.46173 -0.951204,-11.19907 -0.174299,-5.205781 -0.583467,-10.402462 -1.322734,-15.559644 -0.415936,-2.871168 -0.680585,-5.792478 -1.501225,-8.584118 -0.06387,-0.165655 -0.17758,-0.38945 -0.390076,-0.367964 z"
         style="opacity:1;vector-effect:none;fill:#ffffff;fill-opacity:1;stroke:none;stroke-width:1.36500001;stroke-linecap:round;stroke-linejoin:round;stroke-miterlimit:4;stroke-dasharray:none;stroke-dashoffset:0;stroke-opacity:1" />
      <path
         inkscape:connector-curvature="0"
         id="path839"
         d="m 40.303465,296.98229 c -6.597971,-0.81555 -14.416992,-3.87873 -18.963403,-7.42909 -1.836406,-1.43408 -7.000518,-6.57227 -8.192444,-8.15131 -2.827176,-3.74543 -6.541543,-11.35807 -6.5344769,-13.39255 0.00133,-0.38038 -0.2316125,-0.92562 -0.5176119,-1.21162 -1.4387497,-1.43875 -1.4239767,-12.57512 0.023441,-17.72948 1.2388587,-4.41138 3.1248967,-9.59246 3.8170696,-10.48564 0.2852572,-0.36813 0.9666542,-1.57285 1.5142002,-2.67718 0.917495,-1.85048 4.568823,-5.93246 8.820567,-9.86096 2.086738,-1.92809 8.630743,-5.16021 14.455087,-7.13946 3.8723,-1.31589 4.759018,-1.44706 10.253431,-1.51683 l 6.014555,-0.0764 1.426979,-3.08518 c 0.784841,-1.69686 2.157028,-5.39426 3.049294,-8.21646 0.892267,-2.82221 1.950459,-5.90472 2.351557,-6.85006 0.677703,-1.59722 0.676253,-1.80234 -0.02041,-2.90028 -0.412312,-0.64983 -1.068429,-1.86115 -1.458025,-2.69183 -0.389579,-0.83066 -1.116931,-2.06297 -1.616346,-2.73847 -1.106087,-1.49605 -1.149108,-4.26463 -0.154308,-9.93146 0.694956,-3.95895 0.83019,-4.37819 2.190487,-6.79105 0.889855,-1.57837 2.942612,-5.86583 3.418097,-7.13916 0.18328,-0.49081 0.639422,-1.59516 1.013638,-2.45409 0.374199,-0.85892 0.818502,-2.11576 0.987313,-2.79294 0.16881,-0.6772 0.485485,-1.34161 0.703708,-1.47649 0.218222,-0.13491 0.396763,-0.66932 0.396763,-1.18769 0,-0.51836 0.263857,-1.25947 0.586333,-1.64691 1.047063,-1.25795 1.735981,-5.16949 1.396893,-7.9312 -0.460898,-3.75379 -0.78673,-4.33257 -2.942747,-5.22708 -1.766032,-0.73272 -2.946743,-1.30782 -5.51035,-2.68402 -3.804505,-2.04235 -10.499142,-8.54871 -12.571529,-12.21802 l -1.589886,-2.81502 0.988257,-1.05195 c 0.543549,-0.57858 2.893352,-2.02247 5.221787,-3.20866 3.446396,-1.75571 4.521554,-2.55742 5.782757,-4.31192 1.79654,-2.49922 4.17653,-7.03622 4.17653,-7.96174 0,-0.35003 0.175842,-0.82715 0.390776,-1.0603 0.55903,-0.60637 2.615026,-7.19678 2.980472,-9.55377 0.169772,-1.094907 0.475401,-2.299649 0.679204,-2.677187 0.203804,-0.377555 0.567716,-1.790806 0.808705,-3.140547 0.241006,-1.349757 0.845721,-4.060402 1.343855,-6.023678 1.147842,-4.524049 1.216665,-6.916063 0.198963,-6.916063 -0.405448,0 -1.559986,-0.610432 -2.56563,-1.35652 -1.005644,-0.746054 -4.03713,-2.675197 -6.736611,-4.286939 -2.699498,-1.611759 -5.940572,-3.862569 -7.202383,-5.001811 -1.261811,-1.139242 -3.933044,-3.476868 -5.936103,-5.194737 -2.003041,-1.717852 -4.886038,-4.24208 -6.406646,-5.609376 -1.520626,-1.367297 -3.148423,-2.772807 -3.617331,-3.123379 -0.468925,-0.350573 -1.874452,-1.709976 -3.123395,-3.020895 -1.248944,-1.31092 -3.274752,-3.118016 -4.501789,-4.01578 -1.227054,-0.897748 -3.113479,-2.485627 -4.192095,-3.528625 -1.078598,-1.042982 -2.263677,-1.896342 -2.633508,-1.896342 -0.729308,0 -4.047755,-2.288552 -5.659311,-3.902891 -0.68138,-0.682561 -0.93323,-1.356504 -0.788957,-2.111192 0.39904,-2.08748 -0.304044,-3.168086 -4.0013272,-6.149924 C 2.1043034,26.790171 0.58566824,24.41998 1.1380203,20.942706 1.4814253,18.780821 2.4471351,17.323774 3.7540238,16.995766 4.3286365,16.851577 4.9130474,16.373529 5.0526996,15.933509 5.1923349,15.493472 5.9023164,14.886716 6.6303931,14.585134 7.9421556,14.041788 8.3467101,12.931754 7.5306867,12.114888 7.2977926,11.881741 6.8609431,9.8403667 6.5599178,7.5784939 5.8573228,2.2992167 6.2394311,1.2053562 8.7861397,1.2053562 c 1.5509473,0 1.8246183,0.1709184 2.4779193,1.5476584 0.403931,0.8512189 0.958475,3.2833355 1.232316,5.4047129 0.478301,3.7052265 0.552369,3.8800575 1.882058,4.4419545 0.761299,0.321718 2.516791,1.704579 3.901086,3.073056 1.384312,1.368477 2.797412,2.488123 3.140243,2.488123 0.342832,0 1.318492,-0.594209 2.168159,-1.320448 1.189059,-1.016353 1.995099,-1.324647 3.499888,-1.338593 1.724395,-0.01686 2.185006,0.211814 3.904224,1.931031 3.193668,3.193669 2.461426,5.716801 -1.607695,5.539745 -2.149777,-0.0936 -2.447665,0.01973 -3.680031,1.39895 -1.214743,1.359538 -1.322235,1.725693 -1.142615,3.891794 0.109111,1.315102 0.0312,2.391086 -0.173077,2.391086 -0.204242,0 -0.371349,0.500934 -0.371349,1.11317 0,0.823528 1.259753,2.361928 4.841315,5.912122 8.290104,8.217538 14.678369,14.122206 16.108821,14.889357 0.755397,0.405128 2.625296,1.669216 4.155331,2.809099 5.516438,4.109713 9.523803,6.942522 12.15205,8.59027 1.472444,0.923144 3.563112,2.351792 4.64591,3.174764 2.17428,1.652587 5.936237,3.67143 6.828841,3.664684 0.314922,-0.0017 1.454197,-0.705141 2.531716,-1.561689 1.504588,-1.196041 1.753098,-1.557372 1.071094,-1.557372 -2.751827,0 -9.560212,-7.142093 -11.451613,-12.012937 -1.825428,-4.700904 -2.083433,-6.529553 -1.550323,-10.988153 0.262659,-2.196625 0.52031,-5.80097 0.572572,-8.009653 0.07859,-3.32246 0.341297,-4.640985 1.521502,-7.637073 1.639214,-4.161352 2.957773,-6.146113 6.092839,-9.171207 2.477818,-2.390884 7.332169,-5.147619 9.91807,-5.632329 0.925691,-0.173515 3.864492,-0.267499 6.530666,-0.208846 5.713479,0.125639 6.471118,0.47073 10.338612,4.708055 2.972141,3.256352 3.941681,5.009315 5.604321,10.132919 1.05343,3.246336 1.36149,3.773021 2.13837,3.656084 0.4992,-0.07521 1.3673,0.110461 1.92911,0.412296 0.56181,0.301902 1.93267,0.501354 3.04636,0.443207 2.50411,-0.130698 3.01105,0.370135 4.92638,4.86737 1.31468,3.086868 1.42092,3.709948 1.41371,8.290964 -0.008,5.159778 -0.26152,6.11058 -2.17998,8.17956 -0.57956,0.62502 -1.05373,1.26687 -1.05373,1.426355 0,0.159535 -0.92303,0.562487 -2.05115,0.895588 -1.1622,0.343152 -2.24997,0.992979 -2.50986,1.499393 -1.07884,2.102153 -2.24356,2.901649 -4.22719,2.901649 -1.6551,0 -2.01711,0.169924 -2.46743,1.158299 -0.44355,0.97345 -0.40926,1.224625 0.21471,1.573831 0.40837,0.228527 0.87072,1.163004 1.02742,2.07662 0.73774,4.300785 2.06943,7.357483 6.2679,14.386889 2.17236,3.637146 6.46056,9.771133 8.88366,12.707488 1.01256,1.227054 3.12129,4.138501 4.68604,6.469871 1.56476,2.331389 3.22642,4.640459 3.69258,5.131279 0.46616,0.49081 1.72251,1.99673 2.7919,3.34649 1.06939,1.34974 3.79456,3.8596 6.05594,5.57747 2.26137,1.71785 4.83069,3.73666 5.7096,4.48622 0.87893,0.74955 2.60197,2.08688 3.82903,2.97181 2.72735,1.96696 6.46985,5.92222 6.46985,6.83766 0,0.54102 0.55714,0.6481 2.86276,0.55029 2.38701,-0.10118 3.08847,0.0454 4.22082,0.88249 0.74693,0.55216 1.55883,1.00394 1.80426,1.00394 0.24541,0 0.94411,0.53699 1.55267,1.19329 l 1.10647,1.19327 4.93758,-1.02289 c 3.79135,-0.78542 5.08226,-0.90281 5.56079,-0.50567 2.11545,1.75566 0.401,6.12164 -2.71939,6.92522 -1.7632,0.45405 -6.88536,2.97747 -7.98548,3.934 -0.59286,0.51549 -1.07792,1.2093 -1.07792,1.54177 0,0.6671 -1.27986,2.8288 -1.9976,3.37398 -0.25107,0.19072 -1.00222,0.24723 -1.66921,0.12564 -0.80409,-0.14672 -1.3415,0.008 -1.59488,0.46171 -0.2102,0.3756 -1.0198,0.70103 -1.79912,0.72319 -1.17172,0.0334 -1.41696,0.21886 -1.41696,1.07217 0,1.15142 -1.34939,2.09476 -2.41273,1.68672 -1.01335,-0.38887 -2.49544,-2.99455 -2.49544,-4.3873 0,-1.04042 -0.13677,-1.16361 -1.00394,-0.90464 -0.55217,0.16493 -1.32655,0.63019 -1.72085,1.03401 -1.11574,1.14268 -5.58176,11.49202 -7.92242,18.35904 -0.71101,2.08598 -2.14625,5.59978 -3.1894,7.80846 -1.04317,2.20867 -2.35965,5.42129 -2.92553,7.13916 -0.56589,1.71787 -1.7434,5.03089 -2.61669,7.36227 -0.8733,2.33137 -2.013,5.79708 -2.53267,7.70157 -0.51966,1.90447 -1.12308,3.57282 -1.34092,3.70745 -0.21783,0.13457 -0.39605,0.63758 -0.39605,1.11765 0,0.48008 -0.81758,2.92791 -1.81683,5.43959 -2.21634,5.57091 -5.37282,16.30737 -6.65549,22.63802 -0.52207,2.57664 -1.23171,5.68874 -1.57699,6.91578 -1.03596,3.68168 -2.04485,14.75714 -1.95093,21.41749 0.12378,8.77608 -0.27369,9.53323 -5.73613,10.92817 -1.65169,0.4218 -1.89634,0.64198 -1.89634,1.7067 0,2.69879 -5.68032,12.36815 -8.405842,14.30889 -1.608032,1.14501 -4.058969,1.75944 -9.297772,2.33083 -8.03296,0.87615 -10.386894,0.96959 -11.027716,0.43777 -0.47729,-0.39613 -1.087216,-0.13441 -2.783903,1.19484 -1.194978,0.93616 -3.278327,2.32049 -4.629653,3.07629 -2.417529,1.35215 -15.238293,5.65925 -18.291247,6.1449 -2.753548,0.43803 -8.619361,0.54129 -11.378035,0.2003 z m 16.732408,-3.11449 c 8.222648,-3.39016 9.840344,-4.39939 14.278335,-8.90784 4.990057,-5.06929 6.406073,-6.99479 8.675535,-11.79704 3.124711,-6.61199 3.349359,-7.18809 3.316035,-8.50405 -0.01821,-0.72177 0.155656,-2.91861 0.386577,-4.88189 0.438435,-3.72831 0.04064,-9.48862 -0.847289,-12.27043 -1.053404,-3.30007 -4.571657,-10.6872 -5.671572,-11.90837 -0.400406,-0.44455 -1.319874,-1.67948 -2.043245,-2.7443 -0.723389,-1.06482 -2.530486,-2.98049 -4.01578,-4.25702 -5.173016,-4.44594 -5.721692,-4.75968 -12.516889,-7.15714 -0.490832,-0.17316 -1.896342,-0.68097 -3.123396,-1.12848 -2.849387,-1.03916 -9.948898,-1.89474 -13.293568,-1.60205 -4.875887,0.42672 -9.193097,1.82206 -16.267666,5.25781 -2.907484,1.41202 -4.569549,2.65022 -7.903257,5.88782 -4.103592,3.98527 -5.245009,5.60864 -8.1758163,11.62807 -2.5062346,5.14739 -3.3700004,9.38501 -3.4106093,16.7324 -0.02361,4.25782 0.1610528,6.15812 0.780187,8.03156 0.4460572,1.34976 1.0778058,3.25725 1.4038914,4.23888 2.0539212,6.18309 4.0967782,9.55549 8.2437952,13.60905 4.299368,4.20245 7.416355,6.43197 10.951405,7.8333 1.713805,0.67937 3.353693,1.47292 3.644195,1.76342 1.354699,1.35471 12.441372,2.4779 18.67307,1.89177 2.348537,-0.22089 4.714327,-0.80771 6.916062,-1.71547 z M 41.814714,274.07724 c -8.717409,-2.4038 -14.34456,-10.08678 -13.64802,-18.63418 0.657467,-8.06802 5.013869,-14.01546 12.199337,-16.65478 2.92396,-1.07401 4.174641,-1.2852 7.522802,-1.27033 3.65008,0.0169 4.299014,0.15701 7.126224,1.5452 3.997145,1.96273 7.031211,5.06176 8.989799,9.1823 1.825546,3.84065 2.125357,6.71489 1.207508,11.57595 -0.770321,4.0796 -2.083517,6.51482 -5.112676,9.48102 -4.712068,4.61414 -11.982548,6.51269 -18.284974,4.77482 z m 11.874684,-1.86469 c 1.227037,-0.3942 2.67206,-1.17467 3.211157,-1.73441 0.539114,-0.55972 1.142969,-1.08818 1.341916,-1.17434 0.838233,-0.36301 3.341719,-4.05387 4.829527,-7.12011 1.531013,-3.15529 1.58852,-3.44497 1.319267,-6.64558 -0.746038,-8.86801 -4.115043,-13.30469 -12.217483,-16.08933 -2.386836,-0.82031 -3.521593,-0.94603 -6.929891,-0.76774 -3.55608,0.18599 -4.323821,0.37819 -6.021992,1.5075 -1.07047,0.71189 -2.26899,1.49656 -2.663375,1.74372 -1.085463,0.68029 -2.860484,2.48779 -4.201286,4.27816 -1.852613,2.47377 -2.846587,5.93556 -2.9345,10.22009 -0.06948,3.39074 0.06543,4.09231 1.273396,6.61994 2.229376,4.6647 4.711612,7.07262 9.384235,9.10325 3.876263,1.68454 8.486471,1.70448 13.609029,0.0589 z M 46.104031,262.0367 c -0.736223,-0.33312 -2.023515,-1.19191 -2.860636,-1.90844 -1.338205,-1.14541 -1.518297,-1.55204 -1.490859,-3.36644 0.05599,-3.70588 2.517078,-6.13188 6.220517,-6.13188 1.297529,0 1.941521,0.34256 3.270737,1.73986 2.010698,2.11369 2.345182,3.57839 1.450083,6.34992 -0.604817,1.8727 -0.926096,2.2177 -2.826435,3.03521 -2.493519,1.07268 -2.08323,1.04197 -3.763407,0.28177 z m 4.448835,-1.85908 c 1.128516,-0.82519 1.412003,-4.13586 0.504424,-5.89094 -0.843377,-1.6309 -1.941825,-2.31904 -3.696879,-2.31594 -2.895392,0.005 -5.35407,4.23708 -3.820999,6.57683 1.342911,2.04953 5.210472,2.94843 7.013454,1.63005 z m 22.872921,26.59753 c 7.90287,-6.30836 12.56394,-13.25127 15.429027,-22.98239 1.540053,-5.23069 1.257848,-16.04165 -0.512552,-19.6354 -0.484322,-0.98313 -1.28048,-2.92523 -1.76922,-4.3158 -2.091848,-5.95172 -7.621052,-12.55645 -12.717404,-15.19119 -3.120984,-1.61349 -10.769238,-4.24874 -13.250177,-4.56542 l -2.007881,-0.2563 2.716362,1.03995 c 5.522914,2.11438 13.141639,8.28186 16.647261,13.47621 5.508039,8.16136 8.160959,19.06666 6.753964,27.76336 -1.204624,7.44583 -2.659985,11.35233 -6.417794,17.22673 -2.266544,3.54319 -7.907979,9.31492 -10.314277,10.55253 -1.112799,0.57234 -2.023261,1.19393 -2.023261,1.38131 0,0.6386 4.213832,-1.89762 7.465952,-4.49359 z m 9.883988,-1.7677 c 0.887409,-0.23425 2.115441,-0.52854 2.72896,-0.65399 2.522559,-0.51583 7.094553,-4.09773 9.3315,-7.31076 1.183426,-1.69979 4.054433,-7.47431 4.054433,-8.15475 0,-0.30236 -1.771598,-0.37261 -5.197436,-0.20611 -5.945344,0.28896 -5.672229,0.11501 -7.611001,4.84689 -1.172161,2.86084 -3.027017,5.46937 -6.622171,9.31289 -0.847374,0.90592 -1.540693,1.85968 -1.540693,2.11943 0,0.58802 2.706648,0.61388 4.856408,0.0464 z m 11.652921,-1.92859 c 3.155893,-1.06804 6.986434,-6.29016 9.131454,-12.44877 0.91057,-2.61437 0.91698,-2.59843 -1.04527,-2.59843 -1.6263,0 -2.886,0.76882 -2.66457,1.62626 0.0541,0.20989 -0.23995,1.15911 -0.653659,2.10935 -0.413695,0.95025 -0.752175,1.80452 -0.752175,1.89837 0,0.58011 -4.473575,6.50516 -6.089483,8.06525 -1.068142,1.03126 -1.942077,1.97171 -1.942077,2.08989 0,0.29243 2.112861,-0.098 4.01578,-0.74192 z m 14.182834,-16.83352 c 0.99218,-0.36758 1.76352,-1.12597 2.38586,-2.34586 0.81359,-1.59476 0.88666,-2.29675 0.63357,-6.08598 -0.32536,-4.87121 0.62733,-16.34925 1.76284,-21.2388 0.68427,-2.94642 1.64731,-7.16983 3.07137,-13.46939 0.34324,-1.51835 1.03103,-4.02821 1.52842,-5.57747 0.49739,-1.54926 1.04792,-3.61998 1.22341,-4.60162 0.17549,-0.98163 0.97343,-3.3911 1.77322,-5.35438 0.7998,-1.96326 2.09456,-5.57747 2.87729,-8.03156 0.78272,-2.45407 1.90839,-5.72088 2.50146,-7.25953 0.5931,-1.53867 1.07835,-3.01425 1.07835,-3.27905 0,-0.26482 0.27121,-1.1142 0.60267,-1.88751 0.94337,-2.20086 2.42022,-6.20171 2.74254,-7.42969 0.39928,-1.52117 3.785,-9.36596 4.55398,-10.55171 0.34188,-0.52714 1.03619,-2.43465 1.54292,-4.23888 0.50676,-1.80424 1.60141,-4.74055 2.43259,-6.52515 0.83119,-1.7846 1.51124,-3.46032 1.51124,-3.72384 0,-0.26352 0.27954,-1.01207 0.62119,-1.66345 1.09627,-2.09016 2.20205,-4.9797 1.98768,-5.1941 -0.11434,-0.11434 -1.20021,0.16907 -2.41296,0.62988 -1.21274,0.4608 -3.13782,0.97772 -4.27795,1.14868 -2.06268,0.30933 -2.08013,0.32673 -3.51244,3.50202 -0.79169,1.75514 -2.29508,5.0036 -3.34083,7.21882 -1.04574,2.21521 -2.21566,4.9534 -2.59979,6.08485 -0.38415,1.13145 -1.43172,3.63596 -2.32795,5.56558 -1.45806,3.13926 -2.42621,5.46024 -5.09284,12.20927 -0.43635,1.10433 -1.99138,4.51774 -3.45562,7.58537 -1.46425,3.0676 -3.0256,6.58141 -3.46965,7.80844 -0.44405,1.22706 -1.55443,3.73692 -2.46747,5.57749 -0.91306,1.84055 -1.8105,3.84845 -1.9943,4.46197 -0.18382,0.61352 -0.79771,2.14296 -1.3642,3.39877 -0.5665,1.25579 -1.26424,3.1633 -1.55052,4.23888 -0.4866,1.82804 -1.83867,5.38506 -5.32272,14.00294 -0.793714,1.96328 -2.108748,6.17984 -2.922293,9.37015 -0.813544,3.19032 -1.782761,6.60373 -2.153824,7.58537 -0.371045,0.98163 -0.802633,2.87033 -0.959082,4.19711 -0.302307,2.5638 -1.021682,4.29435 -2.739415,6.59007 -0.924039,1.23497 -2.378202,5.89051 -2.39736,7.67521 -0.0051,0.50938 1.538788,0.57478 9.028907,0.38238 5.411377,-0.13897 9.623587,-0.44997 10.501707,-0.77528 z M 98.120714,258.6615 c -1.085277,-0.12277 -2.025168,-0.4239 -2.088645,-0.6693 -0.06341,-0.24541 0.422903,-2.05251 1.080842,-4.01578 l 1.19626,-3.56959 5.280709,-0.39238 c 6.66835,-0.4955 6.67435,-0.49127 6.13589,4.31023 -0.53326,4.755 -0.65721,4.85932 -5.57875,4.69514 -2.22919,-0.0744 -4.941013,-0.23561 -6.026306,-0.35832 z m 9.958796,-1.86089 c 0.11653,-0.57168 0.31889,-2.12059 0.44968,-3.44205 l 0.23782,-2.40265 -4.2666,0.31318 c -2.34663,0.17225 -4.530928,0.41463 -4.853995,0.5386 -0.616133,0.23643 -1.106576,1.6495 -1.399844,4.03313 -0.202691,1.64754 -0.272424,1.62501 5.734219,1.85217 3.76496,0.14234 3.89348,0.11434 4.09872,-0.89238 z m -16.011431,-0.38108 c 0.383846,-0.74226 1.093321,-3.24317 1.576631,-5.55755 0.483294,-2.31441 1.093102,-4.76912 1.355137,-5.45495 0.262019,-0.68584 0.680739,-2.34724 0.930498,-3.69204 0.249741,-1.3448 0.736559,-2.99134 1.081802,-3.65899 0.723355,-1.39881 0.840359,-3.93539 0.181526,-3.93539 -0.245407,0 -0.446192,-0.52182 -0.446192,-1.15961 0,-0.63779 -0.310486,-1.81391 -0.68998,-2.61363 -0.855739,-1.80335 -3.35995,-4.41896 -3.7741,-3.94201 -0.298293,0.34352 -0.856278,2.16131 -2.779131,9.05385 -0.513463,1.84057 -1.127757,3.47482 -1.365053,3.6317 -0.258713,0.17101 0.03204,1.51104 0.726273,3.34649 1.336316,3.53339 2.120078,8.00007 2.160654,12.31384 0.01518,1.65982 0.09933,3.01786 0.186231,3.01786 0.08685,0 0.471876,-0.60731 0.855704,-1.34957 z m -1.964962,-27.87639 c 1.239263,-3.92653 2.538445,-7.67211 2.887078,-8.32349 0.34865,-0.6514 0.636403,-1.65534 0.639439,-2.231 0.0034,-0.57565 0.513092,-2.85375 1.133407,-5.06243 0.620331,-2.20867 1.307681,-4.81894 1.527455,-5.80057 0.219791,-0.98163 0.595912,-2.48755 0.835822,-3.34647 0.239926,-0.85895 0.762345,-2.75493 1.160912,-4.21333 0.398585,-1.45838 0.881777,-2.86391 1.073793,-3.12338 0.191998,-0.25947 0.615002,-1.37531 0.939987,-2.47966 0.32501,-1.10433 0.86315,-2.86825 1.19588,-3.91982 0.33273,-1.05156 0.60613,-2.25629 0.60754,-2.67719 0.001,-0.42089 0.58035,-2.57236 1.28654,-4.78102 1.1673,-3.65096 1.96764,-5.57243 3.88161,-9.31904 0.36173,-0.70813 0.57238,-1.37281 0.46811,-1.47708 -0.5727,-0.57271 -7.18182,-1.08366 -13.224203,-1.02237 -12.479468,0.12665 -15.306138,0.0818 -22.860291,-0.36237 -6.341214,-0.37281 -7.71141,-0.5835 -9.091742,-1.39792 -0.893903,-0.52741 -1.650159,-0.90056 -1.680582,-0.82924 -0.460156,1.07883 -2.329886,4.64834 -2.521986,4.81475 -1.04433,0.90476 -2.331353,5.57179 -2.783144,10.09235 l -0.511524,5.1181 1.711713,3.32663 c 0.941442,1.82964 1.876965,3.32662 2.078947,3.32662 0.478302,0 2.193775,-3.88241 2.193775,-4.96489 0,-0.53822 0.317671,-0.83567 0.892401,-0.83567 1.19083,0 1.10602,0.65278 -0.463798,3.56957 -0.726441,1.34976 -1.320835,2.98167 -1.320886,3.6265 -6.7e-5,0.64482 -0.301295,1.42236 -0.669406,1.72787 -0.368111,0.30551 -0.669288,0.83179 -0.669288,1.16952 0,1.00741 -2.894549,9.44025 -4.867505,14.18081 -1.011277,2.42984 -1.785511,4.46241 -1.720533,4.51683 0.06493,0.0545 1.624087,0.22638 3.464642,0.38216 5.368269,0.45437 8.02812,1.00652 11.717005,2.43235 3.245188,1.25432 3.489061,1.28832 3.888523,0.54191 0.234412,-0.43799 0.331819,-0.89075 0.216434,-1.00611 -0.115351,-0.11536 0.308615,-1.59748 0.942185,-3.29359 0.633553,-1.69612 1.570003,-4.28858 2.080987,-5.76104 0.511001,-1.47244 1.098026,-2.74412 1.304528,-2.82591 0.206485,-0.0818 0.375447,-0.50557 0.375447,-0.9417 0,-0.4361 0.471472,-1.48769 1.04772,-2.33683 0.576232,-0.84914 1.491602,-2.93524 2.034139,-4.63579 0.542537,-1.70055 1.091736,-3.34288 1.22046,-3.64964 0.154982,-0.36928 -0.188997,-0.55775 -1.01782,-0.55775 -1.23987,0 -1.243412,-0.008 -0.371821,-0.8394 1.148146,-1.09516 8.242261,-1.78694 8.242261,-0.80375 0,0.3742 -0.950347,0.82142 -2.466604,1.16075 -2.799064,0.6264 -3.407439,1.2963 -4.491046,4.94523 -0.389394,1.31122 -0.988409,2.81202 -1.331122,3.33507 -0.342731,0.52308 -1.00416,2.04457 -1.469831,3.38108 -0.46567,1.33652 -1.342506,3.73518 -1.948519,5.33033 -1.518551,3.99713 -2.125004,5.95261 -2.125004,6.85189 0,0.42068 -0.322864,1.25762 -0.717469,1.85987 -0.711432,1.08578 -0.700065,1.10248 1.348088,1.98041 3.800492,1.62908 9.686761,8.13637 12.203081,13.49054 l 0.77533,1.64974 0.347857,-1.42663 c 0.191324,-0.78465 1.361782,-4.63926 2.601028,-8.5658 z m 9.157092,1.03951 c -0.195928,-2.61725 -1.30323,-4.82538 -3.520716,-7.02092 l -1.833034,-1.81491 -0.554932,1.61417 c -0.545876,1.58788 -0.518927,1.65741 1.655269,4.26998 1.295792,1.55705 2.425623,3.4613 2.730915,4.60277 0.471506,1.76286 0.575035,1.86944 1.094923,1.12716 0.325698,-0.46497 0.510749,-1.66737 0.427575,-2.77825 z m 4.879331,-11.37159 c 0.82701,-2.49236 1.98103,-5.60457 2.56448,-6.91608 1.84217,-4.14093 3.93883,-8.97096 5.2724,-12.14593 1.46219,-3.4812 3.12607,-7.12248 5.99974,-13.12997 1.09209,-2.28307 3.87453,-8.80871 6.18318,-14.50141 2.30866,-5.69272 4.88221,-11.8563 5.71905,-13.69688 1.9909,-4.37896 2.56492,-5.76587 2.56492,-6.19733 0,-0.19511 -2.25889,0.41387 -5.01974,1.35329 -2.76085,0.9394 -5.43134,1.71087 -5.93441,1.71434 -0.5031,0.003 -1.11274,0.20434 -1.35477,0.44638 -0.37477,0.37477 -3.03101,1.143 -8.29191,2.39815 -1.13578,0.27097 -1.17009,0.36069 -0.7373,1.9281 0.98033,3.55049 0.15532,8.91932 -1.97579,12.8585 -2.97261,5.49448 -5.09566,10.83695 -6.11738,15.39384 -0.46796,2.08716 -2.98202,10.4548 -5.199489,17.30575 -0.340353,1.05157 -0.618848,2.25671 -0.618848,2.67812 0,0.42141 -0.602354,2.87363 -1.338593,5.4494 -0.736222,2.57575 -1.338425,4.98479 -1.338239,5.35343 1.85e-4,0.36863 0.652761,1.40428 1.45015,2.30145 0.797371,0.89719 2.152542,2.7536 3.011485,4.12538 l 1.561694,2.49416 1.04785,-2.34059 c 0.57632,-1.28733 1.72451,-4.37978 2.55152,-6.8721 z m -7.168963,-48.55273 c 3.190313,0.007 7.064233,0.0826 8.608703,0.16951 3.02391,0.16995 4.0629,-0.44833 4.09374,-2.43611 0.008,-0.50307 0.19984,-1.10544 0.42675,-1.33859 0.41862,-0.43014 -0.0435,-3.99627 -0.58853,-4.54127 -0.15919,-0.1592 -3.84904,-0.43911 -8.19979,-0.62215 -4.350755,-0.18306 -9.439602,-0.54915 -11.308557,-0.81355 -1.868954,-0.26439 -5.683949,-0.56879 -8.477752,-0.67645 -2.793819,-0.1076 -7.404449,-0.32852 -10.245876,-0.49082 -5.060262,-0.28903 -5.19047,-0.27261 -6.348668,0.80076 -1.488937,1.37991 -2.964552,6.93038 -2.008404,7.55458 1.422105,0.9284 5.52116,1.68582 11.470164,2.11947 3.533549,0.25758 6.491322,0.53502 6.572826,0.61652 0.08145,0.0815 2.410936,0.0353 5.176524,-0.1027 2.765555,-0.13795 7.638558,-0.24563 10.82887,-0.2392 z m -12.317284,-1.90279 c -2.455035,-0.15616 -2.511227,-0.19026 -3.061994,-1.85912 -0.923819,-2.79918 -0.235693,-3.50908 3.575305,-3.68843 1.733384,-0.0816 3.3415,0.0425 3.573568,0.27558 0.232068,0.23313 0.421941,1.58845 0.421941,3.01182 0,2.41134 -0.06847,2.58221 -1.00394,2.50359 -0.552167,-0.0464 -2.129355,-0.156 -3.50488,-0.24344 z m 2.195917,-1.42688 c 0.856143,-0.025 1.009354,-0.2383 0.892401,-1.24285 -0.113833,-0.9778 -0.447946,-1.28481 -1.724648,-1.58478 -1.95191,-0.45862 -4.073557,0.23023 -3.762379,1.22154 0.118049,0.37597 0.308294,0.98381 0.422852,1.35075 0.146718,0.47014 0.640906,0.61081 1.673229,0.47632 0.805736,-0.1049 1.930087,-0.20441 2.498545,-0.22098 z m 22.39231,-7.06379 c 4.4e-4,-0.69591 -0.47485,-0.75934 -4.66917,-0.62308 -4.601131,0.14942 -4.686262,0.13373 -5.801067,-1.06909 -0.622271,-0.67144 -1.131401,-1.65589 -1.131401,-2.18767 0,-1.63472 2.270457,-3.34907 5.403418,-4.07994 1.56607,-0.36535 3.00308,-0.81992 3.19333,-1.01018 0.19026,-0.19027 -0.15195,-1.03444 -0.76036,-1.87594 -2.30148,-3.18303 -6.051602,-9.73085 -6.051602,-10.56628 0,-0.47852 -0.195287,-1.45216 -0.433966,-2.16366 -0.238678,-0.71149 -0.654144,-4.00427 -0.923229,-7.31729 -1.119089,-13.77818 -1.275369,-15.36353 -1.709487,-17.34075 -0.249825,-1.13788 -0.576788,-5.48227 -0.726575,-9.65423 -0.149754,-4.171942 -0.448621,-8.990878 -0.664044,-10.708746 -1.051042,-8.38102 -1.336249,-10.4073 -1.713821,-12.176571 -0.517376,-2.424224 -0.698919,-2.586626 -1.492158,-1.334832 -2.805287,4.427063 -3.953012,11.332687 -3.914174,23.550859 0.03373,10.59235 -0.881406,14.22882 -6.014487,23.90159 -0.877004,1.65262 -1.594558,3.18932 -1.594558,3.41487 0,0.22556 -0.566653,1.24945 -1.259231,2.2753 -0.692594,1.02585 -2.034324,3.2707 -2.981635,4.98857 -3.141086,5.69603 -7.786237,11.20631 -9.040982,10.72482 -0.575574,-0.22087 -0.636285,0.12699 -0.404301,2.31611 0.150091,1.41679 0.05582,3.84188 -0.209639,5.38906 -0.265442,1.54719 -0.397859,2.89782 -0.294263,3.00142 0.416225,0.41622 6.743829,1.0633 12.851458,1.31421 3.558423,0.14621 8.578144,0.48735 11.154939,0.75814 2.576794,0.27079 5.990203,0.62642 7.585367,0.79029 1.595148,0.16392 4.857978,0.33391 7.250718,0.37788 3.86334,0.071 4.35048,-0.007 4.35092,-0.69486 z m 0.74042,-2.94006 c 1.92388,-0.59755 5.80703,-1.72271 8.62923,-2.50034 2.8222,-0.77764 6.23562,-1.72152 7.58536,-2.09756 1.34975,-0.37602 2.64485,-0.86544 2.87798,-1.08757 0.23314,-0.22215 0.74285,-0.40391 1.13269,-0.40391 0.38985,0 1.4737,-0.38995 2.40855,-0.86657 0.93485,-0.47661 3.03538,-1.17437 4.66786,-1.55059 4.18824,-0.96519 11.73939,-3.67066 12.17885,-4.3635 0.5109,-0.80552 0.4722,-1.79535 -0.16308,-4.1708 -0.57424,-2.14699 -0.49708,-2.11984 -3.24697,-1.14326 -0.73624,0.26145 -3.34649,1.08371 -5.80058,1.82725 -2.45408,0.74353 -5.6667,1.82732 -7.13916,2.40843 -1.47245,0.58112 -4.88588,1.77131 -7.58537,2.64489 -2.69948,0.87358 -6.91607,2.32024 -9.37016,3.21478 -2.45407,0.89456 -4.86354,1.73047 -5.35437,1.85757 -0.49081,0.12716 -1.89632,0.69459 -3.12338,1.26112 -1.22704,0.56652 -3.38789,1.28168 -4.8019,1.58923 -2.75235,0.59868 -3.617096,1.23982 -3.3741,2.50163 0.394352,2.04766 5.37203,2.46532 10.47862,0.8792 z m -0.3172,-7.61871 c 0.60116,-0.33292 1.35667,-0.50412 1.67891,-0.38046 0.32226,0.12362 0.83434,0.0206 1.13798,-0.22911 0.30364,-0.24966 1.70289,-0.78727 3.10947,-1.19468 1.40655,-0.4074 2.67717,-0.93454 2.82357,-1.17142 0.14638,-0.23687 -0.31619,-1.47863 -1.02796,-2.75946 -1.68684,-3.03547 -3.20563,-6.87303 -3.43386,-8.67648 -0.10001,-0.78965 -0.30676,-1.63805 -0.4596,-1.88537 -0.85358,-1.38112 -2.24434,-15.79462 -2.24434,-23.25983 0,-4.06472 0.0931,-4.57873 0.95613,-5.2783 l 0.95615,-0.77505 -3.27591,-3.637158 c -3.19782,-3.550464 -8.22962,-10.672506 -8.22962,-11.648267 0,-0.977683 0.79975,-0.449767 1.94859,1.286247 0.64613,0.976368 1.17479,1.859747 1.17479,1.963057 0,0.103377 0.72096,1.262148 1.60211,2.575192 1.54677,2.304893 3.08586,4.022306 11.33654,12.649929 2.11217,2.20868 4.45124,4.86631 5.19792,5.90583 0.74668,1.03953 2.04149,2.44505 2.87735,3.12338 1.30007,1.05506 3.72926,3.52277 11.36721,11.54752 0.75371,0.79188 1.92293,2.16421 2.59828,3.04965 2.47788,3.24868 3.8398,3.97148 3.8398,2.0379 0,-1.17953 2.14153,-3.57748 3.19492,-3.57748 0.89601,0 2.16657,-0.96959 2.15089,-1.64137 -0.0152,-0.67088 -2.8633,-3.55502 -5.02976,-5.09425 -1.1759,-0.83548 -2.99118,-2.12141 -4.03394,-2.85765 -3.79874,-2.68202 -8.27162,-6.4766 -9.83927,-8.34712 -0.8829,-1.05349 -2.52647,-3.01976 -3.65239,-4.3695 -1.1259,-1.34975 -3.1719,-4.1608 -4.54665,-6.246779 -1.37475,-2.085963 -3.54088,-5.097802 -4.81364,-6.692967 -1.27277,-1.595148 -2.89304,-3.78179 -3.60061,-4.859191 -0.70757,-1.077401 -2.35161,-3.587261 -3.65344,-5.577469 -3.3712,-5.153858 -6.07729,-10.772122 -6.99787,-14.528633 l -0.79365,-3.238544 -1.86892,2.006786 c -4.876709,5.236492 -11.959592,6.065973 -20.395994,2.388556 -1.594068,-0.694854 -1.66225,-0.685039 -2.677186,0.385093 -0.572792,0.603957 -1.267849,1.101568 -1.544573,1.105801 -0.276707,0.0051 -0.753069,0.308901 -1.05858,0.677012 -0.305495,0.368111 -0.927934,0.669305 -1.383166,0.669305 -1.117656,0 -5.380934,-2.34557 -8.411965,-4.628084 -1.36141,-1.025224 -3.66089,-2.662178 -5.109944,-3.637703 -1.449053,-0.975524 -4.207087,-2.878005 -6.128961,-4.227762 -1.921858,-1.349741 -5.354424,-3.739174 -7.6279,-5.309852 C 43.502176,52.776741 39.91193,49.764902 37.797349,47.654452 33.157476,43.023653 24.794131,35.208949 23.53205,34.324946 c -0.501321,-0.351145 -1.952567,-0.724198 -3.224985,-0.829025 -1.916057,-0.157849 -2.69675,0.02243 -4.544472,1.049592 -3.006375,1.671205 -3.222608,3.079414 -0.812043,5.288198 0.937445,0.85896 2.466148,1.964625 3.397151,2.457008 0.930987,0.492383 2.135729,1.412509 2.677187,2.04473 0.541458,0.632204 1.888011,1.83897 2.992361,2.681689 1.104333,0.84272 3.33978,2.776568 4.967644,4.297446 3.594733,3.358465 7.929195,7.221 10.693603,9.529334 1.128719,0.942505 4.111029,3.520749 6.627365,5.729416 4.789862,4.204237 7.118837,6.023678 7.710635,6.023678 0.193769,0 1.528922,0.803156 2.967014,1.784785 1.438092,0.981647 2.760142,1.784803 2.937907,1.784803 0.177748,0 0.949925,0.446259 1.715929,0.991714 0.766004,0.545455 2.545663,1.536967 3.954782,2.203371 2.86163,1.353333 7.506865,4.630951 7.506865,5.296732 0,0.88719 -2.140383,0.413745 -2.820228,-0.623806 -0.380523,-0.580768 -1.103878,-1.163678 -1.607442,-1.29537 -1.067418,-0.279136 -0.876229,-0.887292 -3.6147,11.49836 -1.741967,7.878589 -3.625037,14.063439 -5.094614,16.732899 -0.337907,0.61379 -0.996892,2.11971 -1.464417,3.34647 -1.2609,3.3086 -3.892132,6.70756 -6.055569,7.82243 -5.638382,2.90558 -7.464671,4.15105 -7.440909,5.07445 0.0067,0.26873 0.458688,1.33535 1.003941,2.37029 1.044887,1.98328 8.468932,9.94254 9.273943,9.94254 0.258848,0 1.211809,0.59257 2.117701,1.31682 1.810166,1.44722 7.775748,4.03361 9.309223,4.03602 0.588189,8.9e-4 1.602568,-0.73847 2.580471,-1.88093 1.541284,-1.80062 5.597403,-8.32738 5.597403,-9.00682 0,-0.17886 0.472365,-0.96437 1.049693,-1.74557 1.207525,-1.63392 5.643611,-10.03415 6.523111,-12.35223 0.325883,-0.85892 1.20169,-2.96722 1.946226,-4.68507 l 1.353704,-3.12339 0.341027,-12.270439 c 0.387589,-13.946026 0.533127,-15.425115 1.822004,-18.517211 2.365419,-5.674775 3.592439,-7.821297 4.618067,-8.078712 1.629872,-0.409057 1.978859,0.128674 1.978859,3.048772 0,1.499224 0.188069,3.947041 0.417928,5.439605 0.54058,3.510226 1.22621,10.807975 2.036584,21.677135 0.356795,4.78548 0.960246,11.21072 1.340988,14.27833 0.380759,3.06761 0.892064,7.88655 1.136257,10.70875 0.538675,6.22554 1.578456,11.34019 2.452926,12.06594 0.35578,0.29528 0.64688,0.73027 0.64688,0.96666 0,0.69672 5.08975,7.91646 5.57747,7.91155 0.24542,-0.003 0.93807,-0.27688 1.53922,-0.60979 z M 67.298428,138.20908 c 0,-0.85771 1.031564,-2.65611 1.662402,-2.89817 1.479763,-0.56785 2.034713,1.34733 0.759815,2.62221 -0.767067,0.76706 -2.422217,0.95564 -2.422217,0.27596 z m 12.381992,-26.3824 c -1.018612,-0.59329 -0.985137,-1.09857 0.147899,-2.23156 0.872299,-0.87229 0.978847,-0.88329 1.7547,-0.18117 0.828975,0.75022 0.739426,1.91213 -0.196771,2.55319 -0.614277,0.42062 -0.763576,0.40833 -1.705794,-0.14048 z m 4.143021,-29.830188 c -0.624717,-1.167304 -0.58286,-1.629399 0.220313,-2.432589 1.282318,-1.2823 2.675804,0.294213 2.124261,2.403262 -0.297652,1.13823 -1.741444,1.156292 -2.344574,0.02934 z m 69.045889,61.966588 c -0.20001,-4.85613 -0.31457,-5.44508 -1.17675,-6.04897 -1.19791,-0.83904 -1.24031,-1.95702 -0.0742,-1.95702 0.51842,0 1.15312,0.52637 1.54236,1.27905 0.80428,1.55535 1.61935,6.33028 1.29335,7.57693 -0.29693,1.13543 0.81057,2.81018 1.55437,2.3505 0.36124,-0.22327 0.57829,-1.9507 0.64793,-5.15696 0.0992,-4.56229 0.0508,-4.85715 -0.89923,-5.4898 -1.07917,-0.71866 -1.36065,-1.90732 -0.44619,-1.88421 0.30676,0.008 1.10245,0.49368 1.76819,1.07983 1.14127,1.0048 1.21778,1.31646 1.3386,5.45183 0.12074,4.12991 0.18533,4.39423 1.1074,4.52543 2.26418,0.32219 2.46503,-6.70912 0.27372,-9.58207 -1.26173,-1.65422 -1.16543,-2.27805 0.2359,-1.5281 1.61548,0.8646 2.75,2.7463 2.75,4.56114 0,1.75259 0.57548,2.30169 1.06776,1.01881 0.77111,-2.0095 0.26374,-4.11379 -1.50923,-6.25932 -2.46289,-2.98045 -3.99772,-3.70221 -7.92096,-3.72492 -2.68243,-0.0152 -3.32135,-0.16308 -3.7623,-0.8692 -0.43312,-0.69354 -0.74259,-0.77083 -1.67702,-0.41884 -2.96226,1.11592 -5.38878,5.22906 -4.04209,6.8517 0.74855,0.90196 1.58722,0.83479 2.55561,-0.20465 1.89641,-2.03556 3.68617,2.07957 3.68673,8.47672 3.4e-4,4.06867 0.35325,5.33206 1.48944,5.33206 0.24927,0 0.3287,-2.17323 0.19664,-5.37994 z m -30.44317,0.49736 c 0.23315,-0.23134 1.22704,-0.61793 2.20869,-0.85911 0.98162,-0.24117 3.79268,-1.17361 6.24675,-2.07208 2.4541,-0.89849 5.86752,-2.06465 7.58537,-2.59147 3.49881,-1.073 3.77682,-1.30835 3.78432,-3.20379 0.003,-1.03959 -0.71693,-2.13574 -3.2281,-4.90743 -1.77836,-1.96288 -3.43419,-3.83557 -3.6796,-4.16156 -0.2454,-0.326 -3.10698,-3.26079 -6.35907,-6.52174 -3.25209,-3.26098 -6.52387,-6.69789 -7.27063,-7.63757 -1.70617,-2.14691 -7.60429,-8.35076 -7.75118,-8.15293 -1.54235,2.07737 -1.56483,2.241 -1.33347,9.70311 0.12615,4.06989 0.51698,9.0061 0.86841,10.96938 0.35143,1.96327 0.93741,5.2189 1.30216,7.23474 1.1308,6.24922 4.27954,12.62106 6.2369,12.62106 0.53107,0 1.15632,-0.18926 1.38945,-0.42061 z m 45.51218,-6.21368 c 0.23313,-0.21313 1.39529,-0.74914 2.58258,-1.1911 3.35764,-1.24991 4.55503,-4.22562 1.6978,-4.21937 -1.81131,0.003 -6.42569,0.82626 -6.81176,1.21387 -0.4795,0.48142 0.93486,4.58412 1.58032,4.58412 0.28993,0 0.71791,-0.17438 0.95106,-0.38752 z M 93.303531,69.441136 c 1.980697,-0.660232 3.388062,-1.522059 4.918317,-3.011839 3.739632,-3.640671 5.100682,-8.062945 5.518072,-17.928888 0.22438,-5.304016 0.14014,-6.931729 -0.46719,-9.020643 -0.7221,-2.483991 -0.79634,-2.565293 -2.91697,-3.195052 -1.196804,-0.355412 -3.305938,-0.787371 -4.686962,-0.959925 -2.251467,-0.281294 -2.694337,-0.192353 -4.285707,0.860764 l -1.774769,1.174488 -0.01872,-1.010265 c -0.04385,-2.36439 -2.594957,-5.267691 -5.79274,-6.592253 -1.080875,-0.447727 -1.561774,-0.400457 -2.981484,0.293082 -2.122642,1.036927 -3.204496,3.160918 -3.232979,6.347251 -0.02074,2.32029 -0.05093,2.377392 -0.942387,1.784802 -1.607543,-1.068564 -3.273318,-5.249191 -3.273318,-8.215075 v -1.471247 l -1.635048,0.834135 c -1.776927,0.906534 -4.117336,4.160104 -5.218921,7.255168 -0.617127,1.733923 -1.83902,8.416012 -1.875683,10.257444 -0.0084,0.437187 0.335563,0.913144 0.765026,1.057721 0.429463,0.144526 1.649046,0.665342 2.710173,1.15727 1.061127,0.491911 2.412706,0.894408 3.003491,0.894408 1.429778,0 2.207216,0.93188 1.362372,1.633041 -0.491759,0.40813 -1.206816,0.322325 -3.224968,-0.386998 -3.619287,-1.272082 -4.271559,-1.219668 -3.928761,0.315646 0.836496,3.746594 2.449959,6.83724 5.715249,10.947695 1.892986,2.382958 5.12664,4.445395 6.449347,4.113424 0.577362,-0.144863 1.331022,-0.03002 1.674815,0.25529 0.937378,0.77796 4.376217,-0.221815 7.321123,-2.128461 4.158299,-2.692229 6.685293,-6.66455 9.353896,-14.703918 1.561858,-4.705205 1.684511,-6.413595 0.535134,-7.45376 -0.839094,-0.75936 -3.385532,-0.61905 -3.900986,0.21495 -0.342191,0.553685 -2.418456,0.48267 -2.418456,-0.0828 0,-0.749224 3.770339,-2.214518 5.94128,-2.309008 3.116565,-0.135588 6.995343,2.911379 4.209723,3.307013 -0.819368,0.116363 -1.055584,0.51176 -1.284768,2.150468 -0.690251,4.93572 -5.360529,14.92828 -8.352755,17.871633 -1.873086,1.842495 -3.880749,3.083681 -6.416985,3.967127 -2.561127,0.892132 -2.500433,0.985863 1.318255,2.036163 3.060071,0.84164 4.69458,0.787624 7.83425,-0.258932 z M 74.557946,62.436081 c -0.547343,-0.423999 -1.117318,-1.387044 -1.266634,-2.14008 -0.233754,-1.178923 -0.0452,-1.567794 1.35652,-2.798558 1.47064,-1.291239 2.466941,-1.514116 2.466941,-0.551863 0,0.197463 -0.518741,0.877763 -1.15275,1.511772 -1.439508,1.439508 -1.274762,2.712297 0.375734,2.902795 0.863074,0.09967 1.223225,0.395212 1.223225,1.003958 0,1.104164 -1.620494,1.143019 -3.003036,0.07201 z m 5.985481,-7.976633 c -0.949064,-0.949082 -0.06341,-2.321606 3.091118,-4.789964 2.604907,-2.038338 3.473462,-2.505391 3.883683,-2.088391 0.408669,0.415415 0.225086,0.789867 -0.810188,1.65257 -0.736239,0.613502 -2.355773,2.108966 -3.598966,3.323253 -1.243209,1.214288 -2.397747,2.070414 -2.565647,1.902532 z m 27.255363,3.525488 c 1.37047,-1.977914 1.48647,-2.654184 1.70264,-9.924985 0.20694,-6.959758 -0.14638,-10.038025 -1.44723,-12.6089 -0.77651,-1.534605 -2.36689,-1.681357 -2.41782,-0.223113 -0.0192,0.552184 -0.087,5.421307 -0.15076,10.820303 -0.0742,6.307216 -0.3146,10.436559 -0.67226,11.551315 -0.44916,1.399995 -0.44624,1.803184 0.0152,2.088306 0.76118,0.470443 1.92784,-0.19844 2.97025,-1.702926 z m 3.67322,-2.271823 c 0,-0.206013 0.49381,-0.599572 1.09737,-0.874576 0.60355,-0.274987 1.63096,-1.306315 2.28313,-2.291823 1.10479,-1.669435 1.1824,-2.110956 1.13624,-6.464002 -0.0374,-3.534308 -0.27367,-5.271149 -0.96977,-7.131655 -1.30981,-3.500765 -2.20661,-4.490034 -3.72489,-4.108971 -1.20975,0.303623 -1.21756,0.329661 -0.85613,2.855997 0.20062,1.402273 0.36474,6.113683 0.36474,10.469782 0,4.356116 0.1506,7.920121 0.33466,7.92002 0.18405,-1.01e-4 0.33465,-0.168759 0.33465,-0.374772 z m -7.39212,-21.377559 c -0.16139,-0.920278 -0.57205,-2.117954 -0.91262,-2.661486 -0.34058,-0.543549 -0.61922,-1.421329 -0.61922,-1.950628 0,-0.529332 -0.55217,-2.387983 -1.22704,-4.130372 -0.9808,-2.532239 -1.853828,-3.809868 -4.350433,-6.366662 -3.018753,-3.091539 -3.22593,-3.217295 -6.184849,-3.753694 -4.645724,-0.842213 -8.332181,-0.342359 -12.332226,1.67215 -4.364464,2.198025 -8.637237,6.407439 -10.542534,10.386152 -2.30125,4.805579 -2.396348,7.129276 -0.139972,3.41889 0.985272,-1.620158 6.722866,-4.775882 8.051544,-4.42843 1.093928,0.286067 1.07595,1.109325 -0.04638,2.125037 -0.916196,0.829161 -1.087216,2.62963 -0.504964,5.316395 0.273301,1.261103 0.313033,1.225317 1.308204,-1.178147 1.191184,-2.876892 1.865279,-3.543499 4.383807,-4.33507 1.419508,-0.446158 2.185074,-0.462078 3.346475,-0.06965 2.146539,0.725362 4.619366,3.116482 5.27383,5.099539 0.441487,1.337717 0.716542,1.624441 1.296517,1.351528 1.476694,-0.694888 7.536597,-0.70224 9.076582,-0.01012 3.825349,1.717008 4.495489,1.638253 4.123239,-0.484592 z m -87.951092,-1.69888 c 1.032526,-0.573617 2.649766,-0.85476 6.167243,-1.072139 0.15768,-0.01012 0.303657,-1.223512 0.3244,-2.697272 0.04132,-2.937603 0.685444,-4.543477 2.503721,-6.242423 0.979151,-0.914882 1.642048,-1.113845 3.716661,-1.115481 2.97263,-0.0017 3.4198,-0.70983 1.818041,-2.876319 -1.855834,-2.510147 -5.132356,-2.216845 -8.351153,0.747538 -0.834219,0.768281 -1.023452,1.290059 -0.825956,2.277473 0.299322,1.496678 -0.336255,2.303392 -1.814787,2.303392 -1.255132,0 -3.76221,-1.216918 -4.261204,-2.068357 -0.196248,-0.334854 -0.965153,-0.60883 -1.708694,-0.60883 -1.276533,0 -1.33512,0.07623 -1.051279,1.368561 0.388618,1.769389 -0.735362,3.093411 -2.626054,3.093411 -1.7617156,0 -5.6526164,-3.629674 -5.3071202,-4.95083 0.3346357,-1.27967 0.8371373,-1.046456 2.4465186,1.135447 1.6009323,2.170452 2.222984,2.585699 3.2709906,2.183539 C 11.53537,23.690267 10.98263,22.510787 9.2513378,21.599093 8.3720063,21.13602 7.3074726,20.172992 6.8857166,19.459014 5.8410489,17.690519 4.198462,17.702155 3.2767341,19.484647 c -1.4174671,2.741068 -0.8776282,4.624745 2.1780916,7.600225 1.1341321,1.104333 3.3006887,3.263487 4.8145853,4.798075 2.595648,2.631114 2.805202,2.752047 3.676658,2.12158 0.508269,-0.367723 1.490506,-0.983231 2.182729,-1.367802 z m 4.015831,-10.95928 c 0.150091,-0.57404 -0.155319,-1.58196 -0.777523,-2.565647 -1.091162,-1.725171 -3.771957,-4.520457 -4.335305,-4.520457 -0.386678,0 0.432583,2.683662 1.014785,3.324163 0.211915,0.233147 0.385295,0.971528 0.385295,1.640867 0,0.783256 0.41899,1.546545 1.175669,2.141749 1.496104,1.176816 2.22548,1.170879 2.537079,-0.02057 z M 13.64103,19.177483 c 0.340977,-1.034954 -1.927439,-2.718251 -4.1027315,-3.044454 -2.0948501,-0.314146 -3.7234228,0.318024 -2.6856357,1.042475 0.2490332,0.173836 0.8107786,0.878337 1.2483195,1.565568 0.7252941,1.139158 0.9970771,1.237662 3.0779977,1.115481 1.295269,-0.07606 2.36014,-0.369747 2.46205,-0.67907 z M 11.808789,13.364236 C 11.67708,12.443958 11.44454,10.539623 11.292138,9.1323921 11.139686,7.7251616 10.828323,6.4583759 10.600083,6.317324 10.371844,6.1763396 10.185107,5.5850818 10.185107,5.0035716 c 0,-1.21734 -1.1900371,-2.6040974 -1.872648,-2.1822234 -0.5881042,0.3634735 -0.1138332,5.7823016 0.784403,8.9630528 0.5862491,2.075877 1.480455,3.199689 2.577621,3.239505 0.205624,0.0067 0.266066,-0.739393 0.134238,-1.65967 z"
         style="fill:#000000;stroke-width:1" />
    </g>
  </g>
</svg>
