<?xml version="1.0" encoding="UTF-8" standalone="no"?>
<svg xmlns:rdf="http://www.w3.org/1999/02/22-rdf-syntax-ns#" xmlns="http://www.w3.org/2000/svg" height="560.82pt" width="504.35pt" version="1.1" xmlns:cc="http://creativecommons.org/ns#" xmlns:xlink="http://www.w3.org/1999/xlink" viewBox="0 0 504.35156 560.81512" xmlns:dc="http://purl.org/dc/elements/1.1/">
<defs>
<radialGradient id="a" gradientUnits="userSpaceOnUse" cy="298.96" cx="266.12" gradientTransform="matrix(1.0671 .010305 -.011387 1.1791 -14.447 -54.582)" r="252.18">
<stop stop-color="#ff0" offset="0"/>
<stop stop-color="#ff0" offset=".77033"/>
<stop stop-color="#91ffff" offset="1"/>
</radialGradient>
</defs>
<g transform="translate(-3.3609 -3.3231)">
<rect height="560.82" width="504.35" y="3.3231" x="3.3611" fill="url(#a)"/>
<path d="m259.02 130.65c-0.8713 0.005-1.7434 0.0191-2.6156 0.0406-67.33-1.56-130.71 45.029-152.59 108.12-21.19 56.79-7.2009 124.8 35.189 168.18 33.12 35.54 83.421 54.829 131.84 49.859 66.48-3.24 126.17-54.4 142.64-118.33 13.17-43.2 4.76-91.36-18.4-129.62-28.202-46.63-81.173-78.579-136.07-78.25z" fill="#ff0"/>
<path d="m207.96 164.48c-0.75728 0.004-1.499 0.0309-2.2234 0.0797-7.58 2.4-17.11 6.3912-20.57 13.381 16.65-8.18 37.32-7.3903 52.67 2.9797-3.9281-11.522-18.518-16.506-29.877-16.441zm113.84 7.625c-1.7349-0.0109-3.2081 0.36687-4.0594 1.325-6.25 3.17-14.241 10.491-15.461 17.241 11.64 1.27 13.74-18.59 27.2-12.15 12.244 0.975-0.16192-6.3686-7.6797-6.4156zm-114.76 52.425c-17.4 0.14-36.221 10.48-41.691 27.63-0.86 5.72 5.1406 5.0406 8.4406 2.6906 20.19-12.83 44.77 0.87062 65.18-6.1594-2.92-14.17-17.71-23.971-31.93-24.161zm117.91 7.825c-1.1395-0.009-2.2441 0.0325-3.3016 0.125-13.1 0.93-18.281 13.821-22.591 24.241 8.15 8.61 21.09-1.9309 30.95 1.1391 10.96-1.77 21.13 2.5803 30.87 6.0203 6.1781-19.95-18.836-31.392-35.928-31.525zm-100.1 33.537c-2.0431-0.005-4.9788 1.2203-6.0375 0.49844-8.76 5.19-17.959 12.47-29.239 10.18-9.6 0.18-20.751-9.6006-29.511-2.2406-0.69 5.37 7.4913 3.0406 9.7313 6.8906 15.05 23 48.78 5.2991 57.03-14.261-0.3-0.80939-1.0449-1.0652-1.9734-1.0672zm39.189 1.9281c-1.0593 0.0204-2.1318 0.17938-3.2156 0.50938-6.3 1.03-11.411 10.56-3.8406 13.78 7.12 1.16 23.03 2.2703 19.7-9.2797-3.7294-2.5756-8.0533-5.0979-12.644-5.0094zm45.97 1.3141c-0.20656-0.0006-0.41784 0.007-0.63592 0.025 0.19 13.96 18.45 30.931 33.82 27.091 8.21-0.29 24.729-0.10062 21.739-12.891-14.02 1.45-29.72 5.69-42.33-3-5.1344-2.4412-6.1871-11.207-12.594-11.225zm38.836 43.877-3.95 1.5625c0.0879 0.005 0.17952 0.0119 0.2672 0.0172-8.1 5.02-16.749 9.7694-26.509 10.109-18.3 2.2-36.861-12.801-54.341-3.3906-28.46-3.66-63.019 15.191-89.619-4.3188-9.11 0.61-1.3203 12.159 1.1297 16.219 16.79 17.43 29.429 42.05 53.509 50.5 24.6 4.62 54.311 8.6712 75.661-7.7188 17.607-18.733 30.119-42.148 43.852-62.98zm-93.023 92.922c-3.991 0.0784-7.9581 0.74156-11.678 2.2266-4.69 3.71-19.561 8.2906-8.8313 14.591 16.82 5.83 37.73 7.7903 53.17-2.2797-1.3-13.31-18.45-13.01-28.67-14.43-1.3276-0.095-2.6602-0.13395-3.9906-0.1078z" fill="#fff"/>
<path d="m77.23 3.3234c19.643 34.36 43.289 66.808 62.8 101.58 4.14 5.42 10.64 8.3197 15.8 12.58 3.95 8.53 1.1103 23.761 14.22 24.591 6.33-18-8.9394-33.841-18.359-47.791-9.87-18.42-20.26-36.55-32.55-53.47-6.12-12.906-12.23-26.264-21.168-37.489h-20.742zm105.2 0c7.3649 32.209 17.574 63.824 26.43 95.717 2.53 4.15 8.4606-1.1812 12.041-2.2812-7.74-30.842-12.2-63.129-20.51-93.436h-17.964zm78.706 0c0.66 33.703-0.34 67.411 0.31 101.01 5.17 3.33 7.7594-3.92 8.0094-7.8 0.22-4.8 6.96-5.4503 6.95-10.32 0.53-18.86 0.56-37.97 4.4-56.43 1.3412-8.758 1.2749-17.642 1.9922-26.456h-21.666zm85.533 0c-9.86 35.342-20.53 70.825-27.15 106.8 1.27-7.74 12.62-3.4506 18-3.3406 11.66-34.188 21.45-69.421 32.91-103.46h-23.763zm129.5 0c-6.3783 7.406-13.456 14.453-17.044 23.667-24.78 31.18-53.62 59.14-75.05 92.95-5.29 7.88-1.4094 18.059-3.1594 26.889 7.34-1.8 10.13-10.109 14.6-15.289 38.707-40.924 73.727-85.25 112.19-126.23v-1.9828h-31.539zm-472.81 20.499v31.733c27.107 27.952 57.984 51.909 85.148 79.986 11.6 3.57 13.681 19.089 26.611 21.359 7.52 6.57 11.98-2.7897 8.6797-8.5297-19.3-13.84-32.83-34.001-50.97-49.211-16.97-19.01-36.979-35.11-53.309-54.68-5.13-5.47-15.25-10.42-14.53-18.52-0.5496-0.70666-1.0922-1.4205-1.6297-2.1375zm504.35 60.194c-28.47 25.134-58.31 48.774-86.71 74.034-1.8 1.88-6.0206 3.1197-6.1906-0.67031-3.2 0.29-6.459 0.36031-9.489 1.5203 16.51-2.53-1.941 17.98 7.489 23.02 32.278-22.456 63.11-47.049 94.903-70.153v-27.752zm-267.29 11.225c-2.08 4.97-4.45 11.39-11.45 9.8297-13.15-1-27.341 14.279-20.791 26.889 10.2-4.36 25.111-0.53969 32.941-8.0297-9.1-8.84 11.49-24.169-0.7-28.689zm38.391 5.2344c-0.39384-0.0125-0.81408-0.007-1.261 0.0156-0.76 16.94-27.76 6.7594-26.58 24.309 10.26 1.39 24.119 3.8294 34.109 0.25938-6.6359-7.411 5.9398-24.197-6.2687-24.584zm-97.22 1.8547c-11.64 10.76 2.1587 27.07-0.88128 39.9 6.21 2.08 13.121-5.0497 19.341-6.5297 5.06-14.63-13.889-23.6-18.459-33.37zm147.79 18.041c-6.2 7.19-23.1-0.0703-24.27 10.43 7.58 1.16 13.85 8.94 21.9 5.55 2.37-4.52 7.2203-12.91 2.3703-15.98zm-326.02 5.4094v31.952c16.979 13.033 36.834 22.418 54.898 33.948 6.45 4.32 12.64 11.07 21.12 10.4-2.42-8.77 9.4503-8.6394 14.57-12.759-29.239-22.33-61.282-41.2-90.587-63.54zm144.09 3.37c-0.29808-0.0132-0.63 0.0122-1 0.0797-13.5 8.49-17.29 29.421-6.75 41.241 8.2-0.25 14.199-10.64 21.159-14.98-0.37-5.55-8.03-8.3706-9.1-14.291-3-3.0469 0.16176-11.851-4.3094-12.05zm224.13 10.041c-0.32256 0.0192-0.676 0.0844-1.0641 0.2-8.04 6.94-28.13-5.1009-29.53 9.1891 8.7 3.27 13.95 11.401 22 15.361 5.83-1.43 3.06-9.9406 8.1-12.841 3-2.2406 5.3308-12.198 0.49376-11.909zm136.13 19.894c-23.782 13.734-47.069 28.498-71.512 41.106-2.69 3.8-7.84 16.15 0.2 14.3 24.124-9.7184 47.225-21.874 71.312-31.717v-23.689zm-394.59 9.0062c-1.1392-0.0308-2.2685 0.004-3.3734 0.1-3.66 8.39 3.42 22.319 12.65 23.589 3.19-4.41 8.6094-7.4391 10.709-12.589-3.5788-7.49-12.012-10.884-19.986-11.1zm270.11 1.36c-9.31-0.22-7.439 10.981-1.389 14.691 5.55 3.45 8.509 13.91 16.039 11.83 6.45-6.32 5.2997-16.53 6.1297-24.8-6.07-3.14-14.04-0.79031-20.78-1.7203zm-278 21.891c-5.9 3.24-13.45 7.0197-16.25 12.98 1.19 7.82 3.42 26.5 14.75 22.58 3.89-8.66 7.1206-17.62 12.991-25.28 4.37-7.03-6.5006-9.6097-11.491-10.28zm317.35 3.9891c-8.51 1.77-18.349 1.2309-24.839 8.0609 1.6 5.67 6.24 9.94 8.55 15.35 10.61 8.85 28.049-20.261 16.289-23.411zm-419.22 17.475v26.645c21.535 7.0784 43.291 13.317 65.23 18.82-0.85-6.4-10.741-19.591 0.20936-20.191-21.335-8.9126-43.615-16.854-65.439-25.275zm504.35 1.2562c-17.542 8.2332-37.503 10.36-54.153 20.369-5.29 2.69-9.3797 16.271 0.82032 13.011 17.62-4.4473 35.462-8.4984 53.333-12.039v-21.341zm-93.342 9.1984c-8.39 4.56 2.78 15.91 2 23.27 2.7 17.68 26.939 1.6097 22.909-9.6703-8.54-3.98-15.259-12.79-24.909-13.6zm-325.03 8.0344c-0.54664 0.0121-1.1229 0.0497-1.7297 0.11563-5.67 4.64-9.7887 10.921-15.269 15.811-0.08 8.62 8.5197 15.629 15.98 16.059 6.5391-7.5272 17.966-32.36 1.0187-31.986zm335.86 29.9c-1.88 7.57-0.22 17.529 1.1 25.709 6.66 0.57 17.69-3.2503 16.4-11.32-4.54-5.89-11.64-11.109-17.5-14.389zm-340.79 8.0797c-7.3 5.53-9.4787 16.239-17.319 21.859 3.13 4.42 20.16 14.931 20.75 2.4109-2.81-6.2 6.6987-24.44-3.4313-24.27zm423.3 6.1219c-17.431 1.2829-34.907 2.0484-52.303 3.8172-7.65-0.18-6.7587 9.8112-11.169 13.231 20.025 1.8058 42.414 0.44651 63.472 1.4828v-18.531zm-80.95 18.66c-0.95 7.91-1.249 15.92-2.689 23.78 2.68 9.32 20.15 7.2309 23.92 1.3609-9.19-7.12-7.3613-25.011-21.231-25.141zm-367.73 0.97031c-18.503 1.8107-37.104 0.82513-55.669 0.92344v22.069c17.577-0.30643 35.207 0.7521 52.73-0.58281 2.99-0.26 7.6897-5.6894 8.2797-0.35938 14.39-9.37 2.0594-15.02-5.3406-22.05zm26.361 14.37c-11.11 2.32-16.291 13.259-24.281 19.639 6.1 9.08 24.69 12.96 32.7 4.6703-3.66-6.95-0.31872-22.839-8.4187-24.309zm338.07 17.78c-5.88 6.38-4.4097 16.81-9.3297 24.08-6.91 14.3 30.421 15.18 21.691 0.05-3.5-7.43-2.291-22.93-12.361-24.13zm35.761 0.27031c-5.3 2.86-23.28 4.9188-14.03 12.419 20.262 4.9444 42.06 4.6663 62.522 8.7953v-16.002c-16.049-2.7748-32.59-1.6372-48.492-5.2125zm-368.64 13.95c-11.83 3.21-19.239 19.799-11.159 29.609 8.83-1.75 17.699-0.21938 26.509 0.79062-3.16-9.8-5.1-28.5-15.35-30.4zm350.38 6.5391c1.5977 2.368 3.0525 4.8245 4.3469 7.3656-0.47496-2.1171-1.8254-4.5554-4.3469-7.3656zm4.3469 7.3656c1.8617 8.2945-9.9296 11.591-19.466 12.364-0.4 3.72-1.851 8.2112 0.83904 11.481 0.64-1.24 0.37968-4.9303 2.8797-1.8203 24.906 12.002 52.651 16.362 78.153 26.975v-28.723c-19.891-4.94-39.764-10.042-59.772-14.392-0.77288-2.0138-1.6603-3.9722-2.6344-5.8844zm-376.67 6.6641c-21.899 4.94-44.73 11.24-65.279 20.36v29.645c23.424-11.64 48.615-19.62 71.689-31.86-3.33-5.57-4.279-12.1-6.409-18.14zm343.67 3.19c-4.97 3.96-5.7294 10.91-9.4094 15.87-8.69 9.54 15.429 17.06 18.009 8.2703-7.54-6.07 0.43-21.641-8.6-24.141zm-298.91 19.15c-6.44 6.13-18.531 16.06-11.191 25.5 8.57-1.99 17.08 0.0697 24.37 4.7297 3.74 2.88 14.051 1.9206 9.0406-4.1094-8.58-7.31-13.97-20.43-22.22-26.12zm280.47 9.75c-0.668-0.007-1.3978 0.0544-2.1953 0.19062-5.14 7.1-10.761 14.229-17.441 20.289-1.84 13.08 26.44 18.32 23.55 2.1797 2.0906-7.0594 6.1062-22.547-3.9141-22.659zm42.064 1.0797c-4.02 3.58-19.41 5.1006-12.52 11.441 28.222 17.554 55.824 35.257 84.303 52.269v-24.866c-24.399-12.046-48.115-25.512-71.783-38.844zm-293.73 24.03c-8.71 4.47-10.08 19.49-3.8703 26.82 5.47-1.82 8.7906-9.8403 16.191-8.4703 18.96-1.36-7.1703-15.66-12.32-18.35zm264.62 1.9c0.8 6.33-6.0303 14.581 0.97968 19.241 33.032 30.575 67.535 59.268 99.912 90.516v-30.53c-34.3-25.5-66.92-53.47-100.89-79.23zm-283.71 2.02c-0.24552-0.012-0.50352-0.0122-0.77496 0.002-0.28032 0.0138-0.57528 0.0406-0.8844 0.0828-40.599 34.81-77.856 74.33-118.09 109.55v28.359c39.593-40.37 78.276-82.252 119.9-120.78 2.7966-4.6173 7.4612-16.844-0.15-17.216zm244.26 2.2047c-8.17 5.48-17.39 9.8809-24.17 17.161-1.55 13.25 23.11 14.879 24.38 2.1891 3.36-4.49 8.8906-19.51-0.20936-19.35zm-189.23 20.82c-0.06 8.46-12.471 15.939-6.3813 24.009 6.47-13.43 29.641 4.4903 32.231-11.88-5.86-7.05-17.65-7.7997-25.85-12.13zm152.88 0.0844c-0.726-0.0207-1.5213 0.05-2.3875 0.225-7.85 4.81-17.2 6.3509-24.82 11.361-4.37 13.53 15.701 22.91 23.631 11.68 9.9094-1.9594 14.466-22.956 3.5766-23.266zm-113.66 12.006c-6.67 16.91 20.43 13.17 22.72 27.8 6.55-2.03 3.3697-11.861 9.9797-13.941 4.76-0.67 7.63-9.4306 1.15-9.3906-11.65 0.72-22.51-3.5388-33.85-4.4688zm75.941 0.15c-8.9 5.74-33.699-2.4603-27.859 15.98 0.84 10.89 18.42 20.34 21.9 6.05 6.69-4.07 15.019-18.19 5.9594-22.03zm82.591 1.6391c-5.26 1.72-13.751 3.76-9.6906 10.7 19.69 29.64 39.229 59.45 58.559 89.37 0.68352 1.6519 1.6843 2.9988 2.8985 4.0875h22.92c-24.85-34.83-49.37-69.78-74.69-104.16zm-215.06 4.12c-22.879 31.49-39.892 67.302-61.052 100.04h32.198c13.151-27.448 29.239-53.596 40.253-81.958-7.28-2.57-11.78-10.53-11.4-18.08zm45.78 9.8969c-2.7201 0.093-5.5725 1.065-7.2 2.3031-6.0947 29.132-14.35 58.274-17.273 87.838h15.467c5.0218-28.262 10.351-56.698 15.956-84.838-0.1744-4.0894-3.4528-5.4227-6.95-5.3031zm125.22 4.2625c-4.6066 0.21528-7.0234 5.7781-10.408 8.4406 5.694 25.713 9.627 52.596 17.817 77.438h15.758c-3.7878-29.172-17.944-56.537-22.216-85.847-0.32752-0.0356-0.64448-0.0456-0.95152-0.0312zm-83.405 13.317c-4.0199 0.17706-5.7375 6.6219-11.744 5.0234-4.02 20.7-2.739 42.819-7.089 63.809-1.0141 1.508-1.156 2.727-0.79064 3.7281h16.088c5.0834-23.537 1.8473-48.546 3.9328-72.558-0.13472-0.008-0.2672-0.009-0.39688-0.003zm43.259 0.89375c-4.5929-0.13985-8.6187 5.5328-14.253 3.4797-0.52 0.93-0.99968 1.8794-1.4297 2.8594 5.9586 20.813 6.9706 43.505 8.8234 65.328h17.116c-2.2506-23.954-6.0462-47.747-9.3297-71.558-0.31192-0.065-0.62032-0.10005-0.92656-0.10938z" fill="#ffbf00"/>
<path d="m87.197 4.1543c29.253 45.152 59.163 89.922 88.793 134.8 9.9875 4.2125-0.98828 14.275-5.5508 19-8.675 5.1375-8.6629 17.564-15.213 23.326-47.77-49.8-96.403-98.838-146.42-146.37-0.118-0.728-0.1498-1.47-0.0815-2.238l0.087891-0.98047-0.60547-0.77539c-1.3862-1.782-2.731-3.575-4.0097-5.393v11.104c0.95084 4.1072 3.623 7.5588 6.6504 10.441 4.0621 3.8678 8.822 7.1453 11.725 10.24 20.606 24.665 45.598 44.784 66.596 68.307l0.11914 0.13477 0.14062 0.11523c22.125 18.552 38.991 43.542 63.271 61.168 1.3339 2.6418 0.97108 6.2945-0.32031 8.0527-0.67075 0.91323-1.3524 1.3184-2.3164 1.3476-0.96404 0.0292-2.4852-0.41233-4.5215-2.1914l-0.52539-0.45899-0.68555-0.12109c-7.148-1.2549-11.274-6.1022-15.717-11.812-4.2913-5.5158-8.8203-11.768-16.494-14.463-34.664-35.77-73.885-66.11-107.93-101.58v12.137c26.901 27.373 58.28 50.193 84.624 78.223 14.125 11.062 24.213 27.512 40.963 35.012-11.726 12.533 2.1861 34.15-10.166 43.986l-0.66601-0.50977c-37.216-28.44-77.872-52.29-114.75-80.59v6.1484c35.319 26.759 73.435 49.679 108.49 76.078-2.6508 1.213-5.8127 2.3745-8.9746 3.8848-2.2568 1.0779-4.4458 2.4299-5.9082 4.6348-0.95195 1.4353-1.2697 3.2683-1.2656 5.2227-3.579-0.27257-6.8564-1.6629-10.143-3.7266-4.0351-2.5339-7.9613-5.9696-12.186-8.7988l-0.02539-0.0137-0.02148-0.0156c-23.329-14.89-48.698-26.89-69.964-43.59v6.3828c21.144 15.908 45.378 27.449 67.244 41.402 3.835 2.57 7.8016 6.0482 12.297 8.8711 4.4995 2.8255 9.6749 5.0116 15.68 4.5371l1.6133-0.12891c9.7655 14.4 1.8756 36.529-14.43 42.41l0.35742-2.082c-27.052-11.3-55.242-21.32-82.766-31.96v5.3301c25.095 9.6739 50.508 18.935 75.076 28.986-0.64988 0.61926-1.2026 1.3075-1.5449 2.1191-1.1515 2.7302-0.61617 5.6 0.20508 8.4316 0.82125 2.8317 2.0719 5.7224 3.1543 8.375 0.43625 1.0691 0.53222 1.7027 0.87305 2.6582-26.146-6.66-52.088-14.12-77.763-22.58v5.291c26.725 8.762 53.716 16.492 80.928 23.318l3.0645 0.76953c5.076 10.081-8.6748 25.174-18.156 27.791-8.7377 1.7772-2.156 7.978 1.8848 12.605-22.347 2.0279-44.971 0.87505-67.721 0.99804v5.0312c22.752-0.12283 45.709 1.0192 68.729-1.125 4.7173 4.3169 10.204 8.1807 12.303 11.471 1.1128 1.7444 1.3869 2.9521 0.74414 4.625-0.49369 1.2849-2.1548 3.0669-4.6523 5.041-0.41281-0.4541-0.74604-0.99606-1.3066-1.2285-1.8471-0.76589-3.388-0.13287-4.623 0.41797-1.235 0.55082-2.3621 1.2436-3.3633 1.7754-0.99975 0.53106-1.8868 0.83751-2.1309 0.85937-0.000338 0.00003-0.0039 0.002-0.0039 0.002-21.65 1.6467-43.619 0.3821-65.695 0.76953v4.9492c21.854-0.38 43.952 0.96 66.1-0.73h0.01563l0.01172-0.002c1.6262-0.14141 2.8723-0.80185 4.0469-1.4258 1.1746-0.62392 2.2617-1.2733 3.0547-1.627 0.4844-0.21604 0.34583-0.19579 0.41016-0.2207 0.0505 0.16741 0.09488 0.23131 0.13672 0.60937l0.22656 2.0508c-3.9653 2.832-9.8847 2.4162-14.318 4.1856-1.5547 23.176 36.974 23.581 23.615 46.906l-0.08203-0.23438-2.168 0.48829c-27.096 6.11-55.396 13.89-81.051 25.15v5.5469c25.016-11.24 52.902-19.11 79.879-25.27 1.8671 5.9442 3.3137 12.382 6.3887 18.523-27.656 14.359-57.801 24.3-86.268 38.342v5.4551c29.357-14.75 61.299-24.78 90.783-40.43l2.3223-1.2324-1.2305-2.0605c11.144-4.9285 25.843-5.5067 34.061 3.6348-7 12.625-19.074 26.774-11.762 42.574 2.2375 7.8625 9.1617-0.17461 13.449-1.4121 6.075 0.6125 15.862 0.40039 19.312 6.2754-51.143 40.38-98.295 88.3-146.94 132.55v11.525c50.854-44.32 97.74-94.08 148.67-137.82 0.0547-0.004 0.11661-0.015 0.16993-0.0176v0.002c0.26396-0.013 0.50365-0.019 0.71875-0.0156 1.5056 0.0233 1.8922 0.43546 2.2754 1.0859 0.43796 0.74343 0.67836 2.373 0.4082 4.4297-0.52979 4.0328-2.7954 9.293-4.4023 12.006-51.362 47.578-99.116 99.11-147.84 148.86v7.4629h4.6914c48.614-51.82 102.06-101.28 148.37-153.35 6.3375 7.2875 8.3883 18.839 18.113 23.164 8.7 0.075 2.6992-14.85 10.887-16.375 7.0625-1.7375 14.625-4.2758 21.963-2.8633 2.2156 6.6558-1.3144 12.312-4.3672 18.07l0.0996-1.9668-4.9434 6.8008c-29.103 40.056-50.536 85.422-77.271 126.52h5.8203c24.978-38.855 45.492-80.734 71.711-118.11 1.6201 7.1332 6.0991 13.578 12.748 16.898-13.774 34.703-33.52 67.057-49.783 101.21h5.5c16.271-33.761 36.148-66.183 49.879-101.54l0.27148-0.69922c6.2808 0.0839 10.707-3.2101 10.574-10.732 5.3-4.25 13.1-1.9488 18.938 0.26367-11.716 36.826-20.404 74.746-27.791 112.71h10.623c3.6074-36.184 13.62-72.07 21.219-108.13 1.5958-0.97545 4.329-1.961 6.8965-2.0488 1.842-0.063 3.4692 0.30172 4.4551 0.94141 0.9495 0.61607 1.4978 1.3876 1.6113 3.1387-7.0069 35.195-13.658 70.757-19.934 106.1h7.5684c8.385-35.723 12.566-73.177 19.252-108.5 9.65 0.4875 15.899 10.261 21.111 17.586-5.388 29.383-8.1973 59.609-9.1426 89.51-0.00087 0.028-0.001 0.056 0 0.084-0.00062 0.0189 0 0.0378 0 0.0566-0.0132 0.42031-0.0227 0.83963-0.0351 1.2598h5.7305c-0.0196-0.0181-0.0458-0.0366-0.0644-0.0547-0.468-0.45435-0.60389-0.75301-0.63477-1.1094-0.0312-0.35636 0.0513-0.99195 0.79688-2.1016l0.27344-0.40625 0.0996-0.48242c5.3689-25.906 4.1136-52.712 8.5586-77.551 3.2899-0.0233 5.9433-1.5836 7.748-3.1211 1.0542-0.89822 1.8832-1.6285 2.6289-2.209-2.0312 29.347 1.2363 59.25-4.8926 87.035h9.125c3.863-36.152 1.8402-74.464 7.2012-109.04 7.2485 2.904 12.181 20.024 24.408 23.328-0.53162 0.99024-1.0392 1.9971-1.498 3.043l-0.36132 0.82422 0.24804 0.86719c0.9 3.1434 1.7013 6.3297 2.4316 9.5449v0.002c0.67455 23.826 5.3749 47.611 7.3262 71.426h6.1797c-2.2939-26.938-3.5776-55.128-10.91-81.336 0.16937-0.36455 0.36147-0.72217 0.54297-1.082 3.4904 0.50976 6.6426-0.61153 9.1308-1.8574 2.5761-1.2899 4.6046-2.2899 6.3027-2.5703 4.0239 28.962 8.5249 57.844 11.258 86.846h7.166c-5.0317-34.047-7.5547-69.234-15.312-102.23 7.7625-13.562 19.875-2.2492 29.812 1.7383 5.8675 33.655 13.536 67.07 20.84 100.5h9.4394c-1.2143-3.697-3.5876-11.587-4.916-16.453-3.6279-13.29-6.0042-23.935-12.043-53.963-1.891-9.4031-3.8292-18.902-4.3066-21.107-0.47748-2.2054-0.86719-4.1234-0.86719-4.2637 0-0.26861 2.8412-3.4366 5.4746-6.1016 1.0196-1.0318 1.9116-1.7408 2.5723-2.0469 0.55592-0.25756 1.0423-0.43429 1.082-0.39453 0.0398 0.0398 0.3691 1.6896 0.73047 3.668 2.2336 12.228 5.2175 23.225 12.744 46.959 8.6531 27.287 11.671 38.91 13.49 51.959 0.11304 0.81066 0.16066 1.1216 0.25 1.7442h9.0254c-9.9659-36.304-19.887-73.678-31.762-108.83l-0.10742-0.75195-0.15039-0.0156c-0.41887-1.2359-0.83211-2.4769-1.2559-3.707 7.9125-8.9625 18.363-18.801 31.551-13.801 21.175 43.771 54.85 84.552 81.32 127.11h9.252c-2.4917-1.3474-4.4925-3.3087-5.6328-6.0645l-0.0879-0.21094-0.12305-0.1914c-24.146-37.375-48.553-74.612-73.148-111.64-1.0366-1.7803-1.0903-2.8121-0.90234-3.543 0.189-0.73414 0.74842-1.4757 1.873-2.2637 1.884-1.3202 5.063-2.3664 8.0449-3.332 30.898 41.991 60.874 84.673 91.24 127.24h9.0644c-32.358-47.056-65.612-94.936-100.35-139.22-2.5125-18.138 24.499-33.8 33.424-15.6 43.24 40.962 88.718 79.639 132.35 120.24v-10.434c-40.08-38.52-82.55-73.99-123.2-111.62l-0.14649-0.13476-0.16797-0.11133c-1.7515-1.1644-2.3804-2.248-2.6953-3.5918-0.31487-1.3438-0.18739-3.0671 0.23438-5.0488 0.54036-2.5391 1.5468-5.406 2.0762-8.4297 41.529 31.714 81.651 65.938 123.89 97.227v-9.3398c-39.084-31.809-79.057-62.618-118.26-94.246-7.7125-4.4625-9.0883-26.364 3.6992-21.602 0.825 7.5625 8.4758 8.4254 13.488 11.963 33.19 22.394 68.432 41.82 101.07 64.957v-9.5996c-34.99-20.936-69.006-42.686-103.76-64.309-0.77975-0.74728-1.1746-1.35-1.2617-1.5977-0.0925-0.26289-0.08-0.1584 0-0.30859 0.14788-0.30038 1.4099-1.3985 3.416-2.3301 2.0062-0.93164 4.5814-1.8318 7.0234-2.7891 1.7976-0.70472 3.4391-1.4832 4.9336-2.4297 29.502 16.622 59.128 33.388 89.652 48.404v-8.918c-30.99-16.78-62.34-34.03-94.34-49.05-1.9896-3.4894-3.6403-7.1439-5.5117-10.688l0.76953-1.4902c0.24488-0.47438 0.26313-0.77311 0.35938-1.1426 31.874 15.345 66.961 20.759 98.703 34.143v-5.3066c-31.834-13.092-65.901-18.683-96.195-33.186-0.72225-0.87329-1.4089-1.5922-2.7422-1.877-0.55511-0.11862-1.1641 0.1539-1.75 0.36719-0.0125-0.34926-0.0931-0.63693-0.0781-1.0156 0.0612-1.5963 0.39659-3.4584 0.66797-5.291 5.6149-0.59846 11.577-1.7465 16.387-4.1562 2.6721-1.3388 5.0124-3.0588 6.5918-5.3965 0.0213 0.054 0.0503 0.10613 0.0703 0.16015l0.48437 1.2598 1.3184 0.28711c25.15 5.4684 50.167 11.9 75.246 18.125v-5.1562c-24.237-6.0209-48.492-12.22-72.936-17.566-0.8745-2.1546-1.793-4.2848-2.8379-6.3359-0.0263-0.0505-0.0616-0.0981-0.0879-0.14844-0.81175-2.9134-2.5563-5.9504-5.4629-9.2578-0.0138-0.0212-0.0234-0.0433-0.0371-0.0645l-0.0137 0.004c-0.0838-0.0954-0.11882-0.17959-0.20507-0.27539l-1.9102 1.4902c-0.58387-1.8094-0.85153-3.706-0.97266-5.582 27.95 5.2659 56.589 7.0888 84.463 12.734v-8.4785c-25.575-5.1088-52.333-5.0113-76.916-10.895-0.91363-0.81765-1.6277-1.5861-1.832-2.002-0.24238-0.49295-0.18967-0.53031-0.12305-0.71289 0.13213-0.36519 1.4195-1.5998 3.6992-2.6309 2.2798-1.0311 5.2774-1.9698 8.1387-2.8613 2.494-0.77706 4.6975-1.5391 6.6289-2.4453 20.263 4.4076 40.846 3.1681 60.404 6.6191v-8.748c-19.398-3.1586-39.159-2.1572-58.701-3.9434-1.55-14.7-18.287-21.25-20.887-35.838 26.422 1.6046 53.059-0.16234 79.588 1.0781v-6.0644c-24.873-1.2275-50.895 0.0163-74.463-1.6523 1.2148-2.2735 1.9856-4.7025 2.8711-6.7031 0.74425-1.6816 1.5484-3.0348 2.4531-3.8574 0.90475-0.82261 1.8532-1.2818 3.7012-1.2383l0.15626 0.002 0.15429-0.0137c21.588-2.195 43.35-3.1728 65.127-4.7734v-6.3789c-22.091 1.2367-44.25 2.0033-66.201 4.8281 1.4125-13.338-23.412-12.875-21.887-27.188 29.29-6.099 59.089-10.987 88.088-18.641v-7.6172c-22.547 4.4562-45.055 9.5376-67.277 15.146l-0.0762 0.0195-0.0723 0.0215c-2.7542 0.88025-3.7306 0.44721-4.0527 0.16211-0.32225-0.28508-0.67839-1.1931-0.47852-2.8184 0.19975-1.6253 0.9418-3.6758 1.9824-5.3965s2.4065-3.0852 3.418-3.5996l0.0762-0.041 0.0742-0.0449c19.883-11.952 44.256-14.814 66.406-24.98v-8.1738c-21.178 6.7586-42.163 14.208-62.826 22.449-10.6 5.875-25.012 2.5129-32.1-7.2871 30.93-15.938 64.201-27.215 94.926-43.41v-7.9726c-30.512 12.394-59.606 27.687-89.818 39.879-0.87775 0.18044-1.4822 0.16764-1.7051 0.10743-0.23838-0.0643-0.18211-0.0474-0.25586-0.16407-0.14775-0.23332-0.39172-1.5533-0.0586-3.3476 0.637-3.4298 2.8639-8.066 4.2656-10.182 30.003-15.527 58.558-33.511 87.572-50.311v-9.7305c-27.393 17.359-57.744 31.618-84.238 49.031-6.3125-13.612-27.563-0.48711-35.15-7.9121 40.883-27.195 79.821-57.289 119.39-86.395v-10.139c-39.773 28.835-78.264 59.489-118.41 87.527-0.25525-0.29647-0.68979-0.51925-0.84766-0.90039-0.3375-0.8144-0.48205-1.9449-0.4043-3.3281 0.15563-2.7664 1.2205-6.3741 2.0996-9.8652 0.79063-3.1394 1.545-6.2286 0.64063-9.1992 0.0587 0.0564 0.0812 0.14392 0.14258 0.19727 1.1671 1.0098 2.6344 1.2915 3.8926 1.2227 2.4438-0.13364 4.5648-1.26 6.1602-2.8652 34.89-31.02 71.56-60.19 106.73-91.14v-10.441c-38.2 31.941-75.33 65.281-113.71 96.891l-0.0332-0.73633-2.6035 0.23828c-3.7034 0.33562-7.8171 0.47328-11.932 1.9102-0.03 0.005-0.054 0.003-0.084 0.008v0.0137c-0.17375 0.0615-0.34371 0.0545-0.51758 0.12109l0.64844 2.4473c-10.673 5.203-24.025 4.9736-34.744 2.877 51.02-62.98 108.49-124.36 162.98-186v-11.451h-1.0469c-48.47 51.551-92.48 107.24-141.01 158.55l-0.0391 0.043-0.0371 0.043c-3.0575 3.5433-5.3288 7.7994-7.9004 11.289-1.7295 2.347-3.5399 4.2401-5.6758 5.5469 0.313-4.5757 0.1157-9.1251 0.0332-13.391-0.11-5.6336 0.34007-10.643 3.2109-14.92l0.0176-0.0273 0.0195-0.0254c26.58-41.94 62.55-76.832 93.66-115.98l0.23438-0.29492 0.13867-0.35156c4.476-11.497 13.797-20.493 22.199-30.492h-6.5508c-7.4185 8.4675-15.535 16.997-20.037 28.15-30.805 38.739-66.864 73.706-93.828 116.23-1.5766 2.3485-2.562 4.8221-3.1699 7.3438-1.007 1.654-1.8834 3.4015-2.7422 5.1348-3.6125 0.575-7.3758-5.8984-9.8008-1.4609-8.2625 13.238-26.101 5.9734-38.676 11.648 4.9625-11.462-2.7496-24.087 3.4004-35.412 16.088-43.079 25.992-88.114 40.686-131.63h-7.2871c-14.03 41.751-26.1 84.801-40.27 126.59-2.9449-0.3422-7.1223-1.2145-11.361-1.3516-1.784-0.0576-3.5416 0.1709-5.2441 0.64453 8.3465-42.257 20.735-84.105 32.373-125.88h-5.1934c-12.27 43.928-25.54 88.127-33.81 133.05l0.0117 0.002c0 0.0178-0.0158 0.0291-0.0195 0.0469l2.459 0.42774c-3.2592 12.187-24.487 11.291-35.305 15.389 2.4875-14.962 1.35-32.938-15.875-37.5 1.1196-21.395 2.8504-42.859 2.9688-64.348 0.00025-0.0019-0.00025-0.004 0-0.0059 0.60763-4.5241 1.3505-9.0187 2.2773-13.475l0.0137-0.06641 0.0137-0.06445c1.7272-11.282 1.6344-22.514 2.5312-33.449h-4.9316c-0.90307 11.092-0.92134 22.077-2.5469 32.691-4.8428 23.369-4.8673 47.359-5.5273 70.846v0.0391 0.0352c0 0.94513-0.24722 1.5004-0.79297 2.207-0.54575 0.70669-1.4457 1.4711-2.5078 2.3223-1.0622 0.85119-2.2837 1.7894-3.3496 3.0957-1.066 1.3063-1.9398 3.0756-2.0352 5.1563v-0.0469c-0.12712 1.972-1.0182 5.232-2.248 6.9785-0.615 0.87322-1.2215 1.3076-1.6934 1.4394-0.27688 0.0774-0.63358 0.056-1.0801-0.0781-0.7486-41.394 0.38875-83.003-0.42969-124.69h-6.1797c1.1034 43.044-4.9712 86.499 0.8418 129.35-4.4125 2.2375-8.5238 5.6504-13.549 6.2754 3.2125-12.05 4.6617-30.851-12.613-29.676-10.862-3.4875-3.1 19.163-16.812 11.738-5.52-39.651-16.02-78.508-24.34-117.69h-8.3809c10.263 37.208 15.924 77.019 25.391 115.37-2.1634 1.0014-4.2625 2.2294-6.1094 3.0117-1.2301 0.52103-2.2799 0.74476-2.8281 0.70703-0.48987-0.0337-0.63881-0.15091-0.97656-0.66407-11-39.559-23.55-78.688-32.67-118.43h-8.1074c13.19 43.077 21.59 88.058 35.77 130.32-7 19.162-23.773-5.4613-22.336-16.736-13.875-6.5125-23.65 11.137-26.812 22.199-25.29-46.222-52.81-91.571-81.55-135.78h-8.4668c11.618 14.015 19.542 31.141 27.51 47.928l0.0996 0.21094 0.13476 0.1875c15.257 21.005 28.193 43.568 40.508 66.551l0.0605 0.11133 0.0703 0.10547c5.9925 8.8742 13.635 18.12 18.719 27.738 4.7349 8.9592 7.0401 18.026 4.3965 27.66-2.2811-0.47471-4.0579-1.2726-5.3027-2.5469-1.6231-1.6615-2.7396-4.0593-3.5684-6.959-1.6574-5.7994-1.9273-13.288-4.7305-19.342l-0.23828-0.51563-0.4375-0.36132c-6.78-5.61-14.62-9.18-19.29-15.27-24.22-43.102-53.28-83.259-77.547-125.5h-12.326zm213.33 114.9c15.238 5.65-10.5 24.811 0.875 35.861-9.7875 9.3625-28.426 4.5871-41.176 10.037-8.1875-15.762 9.5508-34.861 25.988-33.611 8.75 1.95 11.712-6.0746 14.312-12.287zm47.988 6.543c15.261 0.48415-0.45894 21.467 7.8359 30.73-12.488 4.4625-29.812 1.4133-42.637-0.32422-1.475-21.938 32.275-9.2117 33.225-30.387 0.55863-0.0281 1.0839-0.0352 1.5762-0.0195zm-121.53 2.3184c5.7125 12.212 29.399 23.425 23.074 41.713-7.775 1.85-16.413 10.762-24.176 8.1621 3.8-16.038-13.448-36.425 1.1016-49.875zm184.74 22.551c6.0625 3.8375-0.00039 14.325-2.9629 19.975-10.062 4.2375-17.9-5.4875-27.375-6.9375 1.4625-13.125 22.588-4.0496 30.338-13.037zm-227.42 10.98c5.5888 0.24834 1.6367 11.254 5.3867 15.062 1.3375 7.4 10.912 10.926 11.375 17.863-8.7 5.425-16.199 18.412-26.449 18.725-13.175-14.775-8.4375-40.938 8.4375-51.551 0.4625-0.0844 0.87741-0.11611 1.25-0.0996zm139.47 1.875c68.616-0.4116 134.83 39.525 170.08 97.812 28.95 47.825 39.462 108.03 23 162.03-20.588 79.912-95.201 143.86-178.3 147.91-60.525 6.2125-123.4-17.899-164.8-62.324-52.988-54.225-70.474-139.24-43.986-210.23 27.35-78.862 106.57-137.1 190.74-135.15 1.0902-0.027 2.1804-0.0443 3.2695-0.0508zm140.7 10.676c6.0464-0.36051 3.1328 12.086-0.61719 14.887-6.3 3.625-2.8375 14.263-10.125 16.051-10.062-4.95-16.625-15.114-27.5-19.201 1.75-17.862 26.862-2.8113 36.912-11.486 0.48513-0.14451 0.92695-0.22595 1.3301-0.25zm-323.08 36.125c9.968 0.26951 20.509 4.5125 24.982 13.875-2.625 6.4375-9.3992 10.224-13.387 15.736-11.538-1.5875-20.388-18.999-15.812-29.486 1.3812-0.12025 2.7928-0.1635 4.2168-0.125zm337.63 1.6992c8.425 1.1625 18.387-1.7746 25.975 2.1504-1.0375 10.338 0.40039 23.1-7.6621 31-9.4125 2.6-13.111-10.475-20.049-14.787-7.5625-4.6375-9.9012-18.638 1.7363-18.363zm-258.78 13.662c-10.175 5.625-25.249 18.937-22.986 30.475 6.4125-8.75 24.136-23.612 22.986-30.475zm35.113 0.0625c-19.2 0.4875-39.1 11.237-43.787 31.037-1.0375 3.75 5.2875 2.2262 5.5-0.67383 12.388-29.7 60.413-32.15 76.463-4.4375 3 2.6125 3.2113 11.2 8.7363 9.5-0.92-22.79-26.37-35.63-46.89-35.43zm153.94 6.2676c-0.83825-0.0135-1.6731 0.0176-2.502 0.0957-19.638 0-41.137 19.061-39.512 37.736 8.875-19.3 33.861-41.012 56.336-25.875 5.4375 2.1375 9.1391 14.738 14.789 10.025-3.2812-11.566-16.539-21.781-29.111-21.982zm32.014 0.9707c-0.62187-0.006-1.2246 0.0301-1.8027 0.11133-2.025 5.1125 14.899 13.838 20.486 18.088 4.1719-8.543-9.3546-18.108-18.684-18.199zm-309.79 6.4004c6.2375 0.8375 19.826 4.0621 14.363 12.85-7.3375 9.575-11.376 20.775-16.238 31.6-14.162 4.9-16.95-18.45-18.438-28.225 3.5-7.45 12.938-12.175 20.312-16.225zm396.69 4.9863c14.7 3.9375-7.0988 40.326-20.361 29.264-2.8875-6.7625-8.6875-12.1-10.688-19.188 8.1125-8.5375 20.411-7.8637 31.049-10.076zm-10.262 34.912c12.062 1.0125 20.462 12.025 31.137 17 5.0375 14.1-25.262 34.188-28.637 12.088 0.975-9.2-12.988-23.388-2.5-29.088zm-259.16 1.5879c-21.75 0.175-45.276 13.1-52.113 34.537-1.075 7.15 6.4258 6.3008 10.551 3.3633 25.238-16.038 55.962 1.0883 81.475-7.6992-3.65-17.712-22.137-29.964-39.912-30.201zm-147.13 8.4551c21.185-0.46702 6.9004 30.573-1.2734 39.982-9.325-0.5375-20.075-9.2992-19.975-20.074 6.85-6.1125 11.998-13.964 19.086-19.764 0.75859-0.0824 1.4787-0.12947 2.1621-0.14453zm148.38 0.6289c12.229-0.0325 24.912 7.0988 29.605 17.604-15.875 8.7375-26.462-19.662-41.812-9.7871-4.575 10.962-17.511 10.437-27.549 12.387 5.3375-11.85 20.95-16.199 33.062-19.424 2.1798-0.52146 4.4287-0.77326 6.6934-0.7793zm146.13 0.69727c-1.4244-0.0112-2.8051 0.0406-4.127 0.15625-16.375 1.1625-22.851 17.276-28.238 30.301 10.188 10.762 26.362-2.4137 38.688 1.4238 13.7-2.2125 26.413 3.2254 38.588 7.5254 7.7226-24.938-23.545-39.24-44.91-39.406zm3.7949 7.166c16.302 0.24759 33.773 8.9358 38.854 24.541-7.1875-2.35-14.4-4.7262-21.875-6.2012-3.7-11.162-22.8-14.637-24.225-0.76172-5.1625 3.725-17.038 8.1875-21.5 2.25 3.6875-8.8625 12.474-17.088 22.049-19.438 1.6781-0.22734 3.3918-0.35677 5.123-0.38867 0.523-0.01 1.0483-0.009 1.5742-0.002zm-221.97 17.99c-10.812 2.0125-23.201 6.5629-26.613 18.213 9.3875 3.75 14.699-10.85 24.637-10.525 17.338-4.15-13.623 14.313-1.9609 17.088 13.962-21.862 37.524 0.37539 56.824-2.9121 17 0.1125 30.025-14.65 47.287-12.688 0.725-1.8125 1.4637-3.9883-1.0488-4.6758-19.425-0.9375-38.925 0.2875-58.25 2.1875-14.2 10.412-28.862-6.175-40.875-6.6875zm279.41 7.4824c-1.9411 0.044-3.6992 0.36602-5.0586 1.0059-13.6 9.2375 15.911 4.4613 22.799 10.674 2.4984-6.8555-9.3286-11.87-17.74-11.68zm64.1 3.39c7.325 4.1 16.2 10.624 21.875 17.986 1.6125 10.088-12.175 14.863-20.5 14.15-1.65-10.225-3.725-22.674-1.375-32.137zm-200.87 1.2812c-1.2825 0.0179-2.5113 0.15584-3.5918 0.39258-5.375 0.75-15.175 6.6383-12.562 11.738 7.8125-7.675 18.65-7.0246 28.213-3.7871 0.0713-6.2359-6.5008-8.421-12.059-8.3438zm48.684 2.2422c3.175 7.8 21.962 6.1766 29.387 13.727 21.238 15.75 46.302-13.5 66.477 3.5371 3.8-11.462-19.925-14.55-27.9-11.475-21.812-4.95-45.288-5.2266-67.963-5.7891zm-273.8 6.5762c12.662-0.2125 0.77656 22.588 4.2891 30.338-0.7375 15.65-22.025 2.5113-25.937-3.0137 9.8-7.025 12.523-20.412 21.648-27.324zm187.43 16.17c-0.32825 0.001-0.70159 0.0473-1.1211 0.14258-21.812 15.675-50.224 22.162-76.674 17.75-11.55 6.025-16.475-8.1621-21.775-15.412-10.562 0.4875-14.012 12.698-4.5742 18.461-15.775 12.338-11.514 42.275 4.2109 49.312-1.525-14.275-12.811-42.136 8.4141-46.398-1.1 8.0625-4.9008 17.836 1.5117 24.611 7.7125 0.375 4.5242-15.85 14.262-13.412 26.812 8.2 54.412-5.1008 73.438-23.488 2.332-1.6524 7.2358-11.587 2.3086-11.566zm62.393 1.3164c-10.875 13.125-37.088 15.763-47.213 1.0254-6.625-1.0625-4.8496 8.8-1.7871 12 13.512 16.138 42.575 11.863 52.963-5.6621 1.975-3.15-0.33789-7.1508-3.9629-7.3633zm103.82 2.4629c-1.1625 6.05-5.2367 11.776-5.1992 17.926 2.7625 7.35 12.775-0.56367 14.6 6.9863 4.7875 9.9375 1.3121 22.375 1.0371 31.588 13.612 0.1625 12.838-25.85 6.6758-34.15-9.6875-4.9-7.1383-20.225-17.113-22.35zm-86.549 8.5c8.95 23.925 36.936 26.876 58.836 28.201-10.125 6.275-20.937 12.212-33.137 12.637-22.875 2.75-46.076-16.001-67.926-4.2383-35.575-4.575-78.773 18.989-112.02-5.3984-11.388 0.7625-1.6504 15.198 1.4121 20.273 20.988 21.788 36.787 52.562 66.887 63.125 30.75 5.775 67.889 10.839 94.576-9.6484 22.275-23.7 38.025-53.401 55.438-79.676 13.338-7.4625 13.149 8.6492 13.424 17.137 11.088-0.9625 7.1496-21.624 1.7246-28.012-27.3 4.35-55.661 0.59961-79.211-14.4zm160.84 2.5254c17.338 0.1625 15.052 22.526 26.539 31.426-4.7125 7.3375-26.55 9.9488-29.9-1.7012 1.8-9.825 2.1738-19.837 3.3613-29.725zm-52.324 5.0371c5.275 15.85 4.9004 33.101-3.1621 48.051-0.575 1.9125-3.6133 7.2129 0.26172 6.5254 14.8-12.575 21.8-43.589 2.9004-54.576zm-374.39 14.139c10.125 1.8375 5.9484 21.699 10.523 30.387-10.012 10.362-33.25 5.5121-40.875-5.8379 9.9875-7.975 16.464-21.649 30.352-24.549zm62.25 4.4746c-4.4625 19.2 4.3734 40.763 19.148 53.588 7.7625-0.6875-3.7234-11.763-4.5234-15.926-8.4625-11.05-7.725-29.825-14.625-37.662zm172.38 14.076c14.409 0.036 30.836 3.2812 42.473 8.2734-33.538 3.5-68.663-1.0383-102.74 2.8242-1.0125-0.575-10.624 1.3133-9.7617-2.4492 16.975-3.0625 34.824-9.8258 52.049-4.6758 5.9375 3.275 10.175-2 15.125-3.9375 0.94062-0.0266 1.8929-0.0377 2.8535-0.0352zm187.96 3.6738c12.588 1.5 11.076 20.875 15.451 30.162 10.912 18.912-35.751 17.812-27.113-0.0625 6.15-9.0875 4.3121-22.125 11.662-30.1zm-301.39 6.0254c60.025 13.762 124.51 1.2492 183.22 4.9492 1.55 15.762-20.836 8.9504-22.424 15.525-22.475 3.1125-43.501 4.5004-66.951 7.0879-8.5875-6.35-21.561 6.025-29.486-4.0625-12.838 10.262-23.862-4.5641-37.125-3.2891-7.3874-8.0375-24.251-9.2359-27.238-20.211zm-114.71 11.75c12.812 2.375 15.238 25.75 19.188 38-11.012-1.2625-22.099-3.1758-33.137-0.98828-10.1-12.262-0.83828-32.999 13.949-37.012zm402.16 29.699c11.288 3.125 1.325 22.588 10.75 30.176-3.225 10.988-33.374 1.5871-22.512-10.338 4.6-6.2 5.5492-14.888 11.762-19.838zm-116.73 0.20703c-0.879 0.0803-1.9492 0.7617-2.4688 1.9922-8.025 12.625-19.312 23.364-32.725 30.076-16.438 3.375-33.237 0.63633-49.787 2.4863-23.45 2.2625-42.577-13.45-60.539-25.75-4.8126-2.0125-2.0875 3.6008 0.1875 4.9883 16.314 13.482 34.42 28.907 55.873 30.488-7.9101 0.72295-17.21 13.177-4.0215 9.2734 6.2-2.475 12.948-3.1234 19.586-2.6484 5.8375-0.05 11.6 1.1359 17.438 1.0234 7.325-5.25-15.686-6.3746-5.3359-9.4121 27.125 3.5375 52.025-16 62.662-39.725 1.0758-2.0039 0.26098-2.8961-0.86914-2.793zm-72.035 2.2383c14.862-0.0498 29.994 1.5524 43.354 7.7305-9.1 14.7-34.675 8.2738-49.975 9.6738-9.1125-2.475-23.937 4.025-30.287-5.0625 3.525-9.3125 13.4-11 22.213-11.85 4.8188-0.275 9.7412-0.47559 14.695-0.49219zm-184.87 21.48c10.312 7.1125 17.05 23.513 27.775 32.65 6.2625 7.5375-6.6258 8.7367-11.301 5.1367-9.1125-5.825-19.75-8.3996-30.463-5.9121-9.175-11.8 5.9383-24.212 13.988-31.875zm350.58 12.188c12.525 0.14021 7.5058 19.5 4.8926 28.324 3.6125 20.175-31.738 13.625-29.438-2.7246 8.35-7.575 15.376-16.486 21.801-25.361 0.99688-0.1703 1.9091-0.24763 2.7441-0.23828zm-314.58 31.38c6.4375 3.3625 39.1 21.238 15.4 22.938-9.25-1.7125-13.401 8.3129-20.238 10.588-7.7625-9.1625-6.0496-27.938 4.8379-33.525zm281.46 7.6504c11.375-0.2 4.4617 18.575 0.26172 24.188-1.5875 15.862-32.412 13.826-30.475-2.7363 8.475-9.1 20-14.601 30.213-21.451zm-77.77 2.4c-34.788 13.875-75.1 10.224-110.41 0.38672-1.8 4.8125 11.661 10.3 16.424 13.088 30.06 11.19 71.05 10.7 93.99-13.48zm-158.76 23.625c10.25 5.4125 24.988 6.3496 32.312 15.162-3.2375 20.462-32.202-1.9379-40.289 14.85-7.6125-10.088 7.9016-19.437 7.9766-30.012zm191.1 0.10547c13.612 0.3872 7.916 26.633-4.4707 29.082-9.9125 14.038-35.002 2.3129-29.539-14.6 9.525-6.2625 21.213-8.1887 31.025-14.201 1.0828-0.21875 2.0769-0.30709 2.9844-0.28125zm-142.07 15.008c14.175 1.1625 27.75 6.4859 42.312 5.5859 8.1-0.05 4.5125 10.901-1.4375 11.738-8.2625 2.6-4.2871 14.888-12.475 17.426-2.8625-18.288-36.738-13.612-28.4-34.75zm94.926 0.1875c11.325 4.8 0.91328 22.45-7.4492 27.537-4.35 17.862-26.325 6.05-27.375-7.5625-7.3-23.05 23.699-12.8 34.824-19.975z" transform="scale(.8)" fill="#180b08"/>
</g>
</svg>
