<?xml version="1.0" encoding="UTF-8"?>
<!DOCTYPE svg PUBLIC "-//W3C//DTD SVG 1.1//EN" "http://www.w3.org/Graphics/SVG/1.1/DTD/svg11.dtd">
<svg version="1.1" xmlns="http://www.w3.org/2000/svg" xmlns:xlink="http://www.w3.org/1999/xlink" x="0" y="0" width="636" height="458" viewBox="0, 0, 636, 458">
  <g id="Layer_1">
    <path d="M466.967,350.829 C466.49,351.833 465.29,352.262 464.285,351.788 C463.282,351.312 462.852,350.11 463.327,349.107 C463.803,348.102 465.004,347.673 466.009,348.148 C467.014,348.624 467.442,349.825 466.967,350.829 M465.189,120.848 C466.302,120.848 467.203,121.749 467.203,122.862 C467.203,123.974 466.302,124.875 465.189,124.875 C464.077,124.875 463.176,123.974 463.176,122.862 C463.176,121.749 464.077,120.848 465.189,120.848 M437.807,95.818 C434.832,95.818 432.422,93.407 432.422,90.433 C432.422,87.46 434.832,85.05 437.807,85.05 C440.779,85.05 443.19,87.46 443.19,90.433 C443.19,93.407 440.779,95.818 437.807,95.818 M432.422,124.697 C431.07,124.697 429.975,123.602 429.975,122.25 C429.975,120.899 431.07,119.803 432.422,119.803 C433.773,119.803 434.869,120.899 434.869,122.25 C434.869,123.602 433.773,124.697 432.422,124.697 M429.151,363.02 C428.149,365.137 425.621,366.039 423.506,365.038 C421.39,364.035 420.487,361.507 421.488,359.393 C422.49,357.278 425.019,356.374 427.134,357.375 C429.25,358.378 430.152,360.906 429.151,363.02 M412.21,400.11 C411.733,401.115 410.533,401.544 409.528,401.068 C408.523,400.593 408.094,399.391 408.57,398.386 C409.046,397.381 410.247,396.952 411.252,397.428 C412.257,397.905 412.686,399.105 412.21,400.11 M405.745,66.922 C403.827,66.922 402.272,65.368 402.272,63.451 C402.272,61.532 403.827,59.978 405.745,59.978 C407.663,59.978 409.217,61.532 409.217,63.451 C409.217,65.368 407.663,66.922 405.745,66.922 M401.584,136.69 C399.286,136.69 397.423,134.827 397.423,132.53 C397.423,130.232 399.286,128.369 401.584,128.369 C403.882,128.369 405.745,130.232 405.745,132.53 C405.745,134.827 403.882,136.69 401.584,136.69 M393.262,101.186 C390.297,101.186 387.894,98.783 387.894,95.818 C387.894,92.852 390.297,90.449 393.262,90.449 C396.228,90.449 398.632,92.852 398.632,95.818 C398.632,98.783 396.228,101.186 393.262,101.186 M392.789,356.401 C391.285,359.577 387.49,360.934 384.314,359.43 C381.14,357.925 379.782,354.132 381.286,350.955 C382.791,347.779 386.585,346.423 389.761,347.927 C392.938,349.432 394.293,353.225 392.789,356.401 M383.551,419.898 C383.076,420.901 381.873,421.329 380.87,420.856 C379.864,420.379 379.436,419.178 379.91,418.174 C380.386,417.169 381.587,416.74 382.594,417.216 C383.597,417.692 384.027,418.893 383.551,419.898 M373.208,72.796 C371.291,72.796 369.734,71.242 369.734,69.325 C369.734,67.406 371.291,65.852 373.208,65.852 C375.127,65.852 376.682,67.406 376.682,69.325 C376.682,71.242 375.127,72.796 373.208,72.796 M368.751,390.903 C367.749,393.019 365.221,393.922 363.105,392.919 C360.99,391.917 360.087,389.391 361.09,387.274 C362.091,385.159 364.618,384.255 366.734,385.258 C368.85,386.259 369.754,388.785 368.751,390.903 M352.635,128.613 C352.635,125.098 355.484,122.25 358.998,122.25 C362.513,122.25 365.361,125.098 365.361,128.613 C365.361,132.128 362.513,134.977 358.998,134.977 C355.484,134.977 352.635,132.128 352.635,128.613 M350.621,102.126 C350.621,101.015 351.522,100.112 352.635,100.112 C353.747,100.112 354.648,101.015 354.648,102.126 C354.648,103.238 353.747,104.139 352.635,104.139 C351.522,104.139 350.621,103.238 350.621,102.126 M350.439,330.397 C349.965,331.402 348.763,331.831 347.758,331.355 C346.753,330.879 346.324,329.678 346.8,328.673 C347.276,327.668 348.477,327.24 349.481,327.715 C350.488,328.192 350.916,329.392 350.439,330.397 M341.523,434.674 C340.493,436.853 337.893,437.782 335.714,436.75 C333.537,435.719 332.607,433.117 333.639,430.94 C334.67,428.762 337.271,427.833 339.448,428.863 C341.627,429.896 342.555,432.496 341.523,434.674 M328.604,364.847 C330.107,361.671 333.901,360.317 337.077,361.822 C340.253,363.325 341.609,367.12 340.105,370.296 C338.602,373.472 334.807,374.827 331.631,373.324 C328.453,371.82 327.1,368.025 328.604,364.847 M330.588,395.097 C330.112,396.101 328.912,396.53 327.906,396.054 C326.901,395.578 326.473,394.377 326.948,393.373 C327.425,392.368 328.625,391.94 329.63,392.415 C330.636,392.892 331.064,394.092 330.588,395.097 M320.329,134.366 C317.153,134.366 314.577,131.79 314.577,128.613 C314.577,125.437 317.153,122.862 320.329,122.862 C323.505,122.862 326.08,125.437 326.08,128.613 C326.08,131.79 323.505,134.366 320.329,134.366 M310.892,317.617 C309.908,319.695 307.428,320.58 305.35,319.598 C303.274,318.615 302.387,316.133 303.371,314.057 C304.354,311.979 306.835,311.094 308.912,312.076 C310.987,313.061 311.875,315.54 310.892,317.617 M301.303,347.586 C300.319,349.663 297.838,350.55 295.763,349.565 C293.685,348.583 292.8,346.102 293.78,344.024 C294.766,341.949 297.246,341.063 299.323,342.044 C301.399,343.03 302.286,345.511 301.303,347.586 M299.896,423.356 C299.076,425.089 297.006,425.828 295.273,425.007 C293.539,424.186 292.8,422.117 293.619,420.383 C294.441,418.651 296.512,417.91 298.246,418.732 C299.979,419.551 300.718,421.622 299.896,423.356 M293.798,448.564 C292.765,450.747 290.156,451.679 287.971,450.644 C285.789,449.611 284.856,447.001 285.891,444.818 C286.925,442.633 289.532,441.702 291.717,442.736 C293.9,443.772 294.832,446.38 293.798,448.564 M284.965,380.471 C286.112,378.05 289.005,377.016 291.427,378.163 C293.848,379.31 294.88,382.201 293.732,384.623 C292.588,387.044 289.695,388.078 287.272,386.931 C284.852,385.784 283.82,382.893 284.965,380.471 M277.539,92.193 C277.539,89.218 279.952,86.807 282.926,86.807 C285.899,86.807 288.311,89.218 288.311,92.193 C288.311,95.166 285.899,97.577 282.926,97.577 C279.952,97.577 277.539,95.166 277.539,92.193 M277.539,126.457 C276.19,126.457 275.094,125.361 275.094,124.009 C275.094,122.657 276.19,121.563 277.539,121.563 C278.893,121.563 279.987,122.657 279.987,124.009 C279.987,125.361 278.893,126.457 277.539,126.457 M267.483,342.945 C266.906,344.166 265.446,344.689 264.225,344.11 C263.003,343.532 262.48,342.073 263.061,340.851 C263.638,339.629 265.098,339.107 266.318,339.686 C267.541,340.263 268.063,341.722 267.483,342.945 M258.496,30.21 C256.579,30.21 255.024,28.656 255.024,26.739 C255.024,24.82 256.579,23.266 258.496,23.266 C260.415,23.266 261.969,24.82 261.969,26.739 C261.969,28.656 260.415,30.21 258.496,30.21 M258.496,63.451 C256.579,63.451 255.024,61.896 255.024,59.978 C255.024,58.061 256.579,56.505 258.496,56.505 C260.415,56.505 261.969,58.061 261.969,59.978 C261.969,61.896 260.415,63.451 258.496,63.451 M260.804,313.12 C260.225,314.34 258.767,314.864 257.545,314.284 C256.321,313.706 255.801,312.246 256.381,311.026 C256.958,309.804 258.417,309.281 259.639,309.861 C260.859,310.44 261.381,311.899 260.804,313.12 M258.217,409.406 C257.395,411.138 255.324,411.878 253.592,411.056 C251.858,410.237 251.118,408.166 251.938,406.431 C252.762,404.7 254.83,403.959 256.563,404.781 C258.297,405.602 259.036,407.67 258.217,409.406 M244.483,373.215 C241.795,371.943 240.649,368.732 241.923,366.043 C243.194,363.357 246.404,362.208 249.093,363.482 C251.78,364.755 252.927,367.964 251.655,370.652 C250.382,373.341 247.171,374.489 244.483,373.215 M243.99,439.446 C243.168,441.178 241.098,441.919 239.365,441.099 C237.632,440.278 236.892,438.206 237.713,436.474 C238.533,434.741 240.604,434 242.337,434.822 C244.07,435.641 244.81,437.713 243.99,439.446 M233.53,97.577 C233.53,94.897 235.703,92.726 238.382,92.726 C241.061,92.726 243.232,94.897 243.232,97.577 C243.232,100.256 241.061,102.428 238.382,102.428 C235.703,102.428 233.53,100.256 233.53,97.577 M233.771,321.885 C232.411,324.756 228.981,325.981 226.109,324.62 C223.239,323.26 222.015,319.832 223.374,316.961 C224.734,314.091 228.162,312.866 231.033,314.223 C233.904,315.585 235.129,319.013 233.771,321.885 M228.548,406.863 C227.274,409.55 224.064,410.699 221.377,409.426 C218.688,408.153 217.541,404.943 218.814,402.255 C220.088,399.568 223.298,398.419 225.986,399.694 C228.673,400.966 229.821,404.176 228.548,406.863 M214.856,68.681 C212.938,68.681 211.383,67.126 211.383,65.209 C211.383,63.292 212.938,61.737 214.856,61.737 C216.773,61.737 218.328,63.292 218.328,65.209 C218.328,67.126 216.773,68.681 214.856,68.681 M206.106,39.817 C206.106,37.401 208.064,35.442 210.481,35.442 C212.896,35.442 214.856,37.401 214.856,39.817 C214.856,42.234 212.896,44.192 210.481,44.192 C208.064,44.192 206.106,42.234 206.106,39.817 M204.117,136.736 C200.602,136.736 197.755,133.887 197.755,130.372 C197.755,126.858 200.602,124.009 204.117,124.009 C207.631,124.009 210.481,126.858 210.481,130.372 C210.481,133.887 207.631,136.736 204.117,136.736 M204.889,368.325 C203.148,371.997 198.763,373.564 195.09,371.825 C191.416,370.087 189.85,365.7 191.59,362.027 C193.328,358.356 197.715,356.787 201.389,358.527 C205.06,360.266 206.628,364.653 204.889,368.325 M205.159,424.899 C204.581,426.119 203.122,426.643 201.9,426.063 C200.679,425.486 200.156,424.026 200.736,422.805 C201.313,421.583 202.774,421.06 203.996,421.64 C205.216,422.219 205.738,423.677 205.159,424.899 M189.857,330.397 C189.381,331.402 188.181,331.831 187.176,331.355 C186.17,330.879 185.741,329.678 186.218,328.673 C186.694,327.668 187.894,327.24 188.899,327.715 C189.905,328.192 190.334,329.392 189.857,330.397 M184.001,403.354 C183.181,405.084 181.11,405.826 179.377,405.005 C177.643,404.185 176.904,402.115 177.724,400.381 C178.546,398.647 180.616,397.909 182.349,398.729 C184.083,399.549 184.822,401.62 184.001,403.354 M173.278,77.159 C170.869,77.159 168.917,75.205 168.917,72.796 C168.917,70.387 170.869,68.434 173.278,68.434 C175.688,68.434 177.641,70.387 177.641,72.796 C177.641,75.205 175.688,77.159 173.278,77.159 M167.283,128.247 C164.942,128.247 163.043,126.351 163.043,124.009 C163.043,121.668 164.942,119.771 167.283,119.771 C169.624,119.771 171.521,121.668 171.521,124.009 C171.521,126.351 169.624,128.247 167.283,128.247 M162.449,171.842 C158.936,171.842 156.086,168.992 156.086,165.478 C156.086,161.964 158.936,159.115 162.449,159.115 C165.964,159.115 168.813,161.964 168.813,165.478 C168.813,168.992 165.964,171.842 162.449,171.842 M160.571,282.887 C159.589,284.963 157.107,285.851 155.029,284.866 C152.953,283.882 152.066,281.403 153.051,279.325 C154.034,277.248 156.515,276.361 158.592,277.345 C160.669,278.328 161.555,280.81 160.571,282.887 M158.542,351.861 C157.721,353.593 155.651,354.333 153.918,353.513 C152.185,352.691 151.444,350.621 152.266,348.888 C153.086,347.155 155.156,346.415 156.891,347.237 C158.623,348.057 159.363,350.127 158.542,351.861 M153.067,383.864 C152.033,386.046 149.426,386.979 147.241,385.945 C145.059,384.909 144.126,382.302 145.16,380.118 C146.194,377.935 148.802,377.002 150.986,378.037 C153.17,379.072 154.102,381.68 153.067,383.864 M143.768,315.549 C145.036,312.869 148.236,311.726 150.916,312.993 C153.597,314.264 154.741,317.464 153.472,320.144 C152.202,322.825 149.001,323.968 146.321,322.7 C143.642,321.431 142.496,318.229 143.768,315.549 M139.273,106.153 C138.16,106.153 137.259,105.251 137.259,104.139 C137.259,103.027 138.16,102.126 139.273,102.126 C140.385,102.126 141.285,103.027 141.285,104.139 C141.285,105.251 140.385,106.153 139.273,106.153 M187.87,300.149 C189.376,296.972 193.17,295.616 196.348,297.119 C199.522,298.623 200.879,302.42 199.374,305.596 C197.868,308.772 194.076,310.128 190.9,308.622 C187.725,307.118 186.367,303.325 187.87,300.149 M197.755,101.871 C198.865,101.871 199.768,102.773 199.768,103.884 C199.768,104.996 198.865,105.898 197.755,105.898 C196.642,105.898 195.74,104.996 195.74,103.884 C195.74,102.773 196.642,101.871 197.755,101.871 M246.703,130.129 C249,130.129 250.864,131.992 250.864,134.288 C250.864,136.586 249,138.449 246.703,138.449 C244.403,138.449 242.543,136.586 242.543,134.288 C242.543,131.992 244.403,130.129 246.703,130.129 M255.024,165.478 C255.024,167.777 253.161,169.639 250.864,169.639 C248.565,169.639 246.703,167.777 246.703,165.478 C246.703,163.18 248.565,161.318 250.864,161.318 C253.161,161.318 255.024,163.18 255.024,165.478 M288.311,44.192 C291.283,44.192 293.693,46.603 293.693,49.576 C293.693,52.549 291.283,54.96 288.311,54.96 C285.336,54.96 282.926,52.549 282.926,49.576 C282.926,46.603 285.336,44.192 288.311,44.192 M296.343,145.658 C297.696,145.658 298.791,146.753 298.791,148.105 C298.791,149.457 297.696,150.553 296.343,150.553 C294.991,150.553 293.896,149.457 293.896,148.105 C293.896,146.753 294.991,145.658 296.343,145.658 M298.791,20.818 C300.143,20.818 301.238,21.914 301.238,23.266 C301.238,24.618 300.143,25.714 298.791,25.714 C297.439,25.714 296.343,24.618 296.343,23.266 C296.343,21.914 297.439,20.818 298.791,20.818 M328.161,66.922 C332.223,66.922 335.518,70.217 335.518,74.28 C335.518,78.344 332.223,81.637 328.161,81.637 C324.096,81.637 320.803,78.344 320.803,74.28 C320.803,70.217 324.096,66.922 328.161,66.922 M328.161,30.21 C330.078,30.21 331.633,31.765 331.633,33.683 C331.633,35.602 330.078,37.156 328.161,37.156 C326.243,37.156 324.688,35.602 324.688,33.683 C324.688,31.765 326.243,30.21 328.161,30.21 M365.361,33.683 C367.778,33.683 369.734,35.641 369.734,38.057 C369.734,40.474 367.778,42.433 365.361,42.433 C362.945,42.433 360.986,40.474 360.986,38.057 C360.986,35.641 362.945,33.683 365.361,33.683 M126.752,278.244 C126.174,279.467 124.715,279.988 123.494,279.409 C122.271,278.829 121.75,277.372 122.33,276.151 C122.908,274.929 124.366,274.407 125.589,274.986 C126.809,275.564 127.331,277.024 126.752,278.244 M126.622,343.243 C125.802,344.977 123.731,345.717 121.998,344.895 C120.265,344.075 119.525,342.004 120.347,340.271 C121.167,338.537 123.237,337.798 124.971,338.619 C126.703,339.44 127.443,341.511 126.622,343.243 M118.333,242.237 C119.316,240.159 121.797,239.273 123.874,240.256 C125.951,241.241 126.836,243.722 125.854,245.797 C124.87,247.875 122.389,248.76 120.313,247.778 C118.235,246.794 117.348,244.313 118.333,242.237 M110.923,305.952 C109.65,308.639 106.441,309.787 103.753,308.514 C101.065,307.241 99.918,304.032 101.191,301.344 C102.464,298.657 105.673,297.509 108.361,298.783 C111.048,300.055 112.196,303.266 110.923,305.952 M97.008,263.482 C96.532,264.487 95.332,264.915 94.327,264.44 C93.321,263.963 92.893,262.763 93.369,261.758 C93.846,260.752 95.046,260.324 96.051,260.8 C97.056,261.277 97.485,262.476 97.008,263.482 M92.127,220.34 C90.905,219.761 90.384,218.302 90.962,217.08 C91.542,215.858 93.001,215.337 94.223,215.917 C95.445,216.495 95.965,217.953 95.387,219.175 C94.808,220.396 93.348,220.918 92.127,220.34 M121.84,132.276 C122.952,132.276 123.853,133.177 123.853,134.288 C123.853,135.401 122.952,136.303 121.84,136.303 C120.729,136.303 119.826,135.401 119.826,134.288 C119.826,133.177 120.729,132.276 121.84,132.276 M292.918,2.596 C168.021,2.596 66.772,103.845 66.772,228.74 C66.772,353.638 168.021,454.885 292.918,454.885 C417.813,454.885 519.063,353.638 519.063,228.74 C519.063,103.845 417.813,2.596 292.918,2.596" fill="#36A0CD"/>
    <path d="M231.889,197.412 C252.155,197.267 272.362,195.216 292.368,192.201 C312.385,189.173 332.212,185.116 351.947,180.786 C391.358,172.013 430.573,161.857 470.728,158.249 C490.757,156.454 511.031,156.522 530.904,159.785 C540.84,161.359 550.662,163.704 560.231,166.861 C569.797,170.026 579.115,173.967 588.08,178.618 C570.467,168.711 551.085,161.963 531.146,158.366 C511.172,154.788 490.73,154.463 470.544,155.996 C450.322,157.48 430.333,160.983 410.518,164.964 C390.697,168.989 371.025,173.596 351.313,177.921 C331.621,182.333 311.875,186.462 291.965,189.564 C272.06,192.696 251.98,194.668 231.854,195.163 C211.729,195.632 191.55,194.365 171.666,191.107 C151.754,187.96 132.232,182.554 113.275,175.604 C131.997,183.173 151.507,188.881 171.423,192.517 C191.353,196.085 211.638,197.608 231.889,197.412 M439.309,262.663 C439.872,257.645 440.149,252.494 439.029,247.56 C439.287,250.066 439.2,252.568 439.025,255.051 C438.786,257.533 438.423,259.998 437.895,262.433 C436.926,267.315 435.516,272.098 433.857,276.782 C430.503,286.138 426.135,295.13 420.752,303.454 C418.092,307.634 415.151,311.633 411.952,315.407 C408.783,319.211 405.285,322.73 401.53,325.952 C394.001,332.352 385.281,337.467 375.615,340.318 C380.584,339.491 385.411,337.841 390.031,335.743 C394.625,333.581 398.973,330.867 402.981,327.726 C411.047,321.465 417.689,313.551 423.222,305.041 C428.693,296.471 433.049,287.2 436.025,277.5 C437.528,272.657 438.661,267.693 439.309,262.663 M463.994,218.618 C466.424,218.618 468.4,216.643 468.4,214.213 C468.4,211.784 466.424,209.808 463.994,209.808 C461.564,209.808 459.588,211.784 459.588,214.213 C459.588,216.643 461.564,218.618 463.994,218.618 M463.994,220.088 C462.75,220.088 461.6,219.693 460.649,219.032 C461.326,219.815 462.196,220.403 463.163,220.776 C464.409,221.281 465.813,221.432 467.229,221.384 C468.65,221.326 470.085,221.047 471.566,220.683 C470.35,221.598 468.903,222.236 467.359,222.523 C465.818,222.818 464.158,222.732 462.621,222.139 C461.105,221.536 459.727,220.363 459.096,218.834 C458.761,218.068 458.597,217.259 458.57,216.46 C458.283,215.767 458.12,215.009 458.12,214.213 C458.12,211.135 460.508,208.63 463.525,208.386 C463.301,208.332 463.077,208.278 462.851,208.239 C461.655,208.009 460.419,208.042 459.208,208.305 C457.993,208.57 456.823,209.08 455.611,209.716 C456.413,208.622 457.549,207.729 458.874,207.207 C460.195,206.665 461.689,206.549 463.105,206.794 C464.518,207.06 465.873,207.659 466.953,208.605 C467.445,209.034 467.886,209.563 468.213,210.142 C469.232,211.199 469.868,212.631 469.868,214.213 C469.868,217.451 467.233,220.088 463.994,220.088 M587.19,195.4 C575.514,194.82 563.804,195.614 552.239,197.226 C540.691,198.974 529.274,201.548 518.106,204.922 C506.947,208.312 495.975,212.367 485.482,217.435 C490.852,215.179 496.284,213.092 501.788,211.219 C507.275,209.299 512.825,207.563 518.422,206.001 C529.608,202.875 540.957,200.294 552.451,198.679 C563.929,196.962 575.545,196.185 587.143,196.528 C592.941,196.715 598.729,197.229 604.467,198.115 C610.213,198.952 615.895,200.224 621.487,201.849 C615.996,199.906 610.319,198.488 604.586,197.406 C598.841,196.37 593.024,195.726 587.19,195.4 M499.573,255.845 C481.93,261.385 464.027,266.258 445.929,270.239 C445.444,272.799 444.865,275.472 444.174,278.222 C463.109,274.84 481.838,270.312 500.33,264.984 C540.67,253.228 579.747,237.155 616.986,217.54 C618.241,216.025 619.424,214.607 620.538,213.31 C600.964,219.312 581.865,226.721 562.68,233.874 C541.814,241.634 520.843,249.169 499.573,255.845 M506.635,288.914 C484.477,295.246 461.705,299.298 438.799,301.671 C437.721,301.781 436.642,301.867 435.563,301.968 C434.425,304.266 433.19,306.534 431.852,308.761 C438.682,308.608 445.596,308.334 452.613,307.898 C513.154,304.138 553.189,280.735 580.141,257.12 C576.981,259.145 573.773,261.097 570.526,262.973 C550.414,274.242 528.785,282.629 506.635,288.914 M301.557,278.223 C296.032,277.404 290.467,276.837 285.004,275.641 L276.779,274.045 C274.037,273.511 271.286,273.028 268.592,272.284 C263.179,270.903 257.745,269.602 252.354,268.152 L236.384,263.092 C215.27,255.799 194.901,246.506 175.414,235.669 L161.07,227.071 C158.652,225.696 156.373,224.104 154.075,222.542 C150.409,220.696 146.71,218.774 142.979,216.775 C153.453,224.005 164.19,230.833 175.279,237.079 C194.88,247.895 215.305,257.173 236.415,264.536 C257.51,271.946 279.303,277.309 301.376,280.748 C323.452,284.201 345.818,285.721 368.159,285.446 C378.731,285.358 389.301,284.857 399.842,283.997 C401.218,281.815 402.584,279.708 403.927,277.687 C392.152,279.249 380.316,280.374 368.43,280.964 C346.118,281.989 323.705,281.156 301.557,278.223 M500.973,267.15 C482.092,272.863 462.866,277.541 443.429,281.042 C442.729,283.586 441.938,286.177 441.039,288.788 C461.849,285.929 482.467,281.649 502.695,275.978 C524.452,269.875 545.765,262.099 566.2,252.415 C581.207,245.158 595.889,236.929 609.244,226.898 C611.939,223.686 614.376,220.704 616.591,218.02 C599.579,227.523 582.041,236.09 564.197,243.959 C543.575,252.836 522.473,260.622 500.973,267.15 M589.183,241.361 L581.832,245.652 C580.6,246.354 579.396,247.112 578.139,247.77 L574.374,249.756 C571.858,251.071 569.361,252.422 566.83,253.708 C546.433,263.7 525.11,271.751 503.316,278.15 C482.612,284.26 461.412,288.641 440.029,291.614 C439.093,294.129 438.05,296.651 436.902,299.156 C460.241,296.946 483.393,292.861 506.029,286.737 C528.117,280.754 549.701,272.658 569.825,261.714 C575.211,258.741 580.506,255.575 585.629,252.153 C594.489,243.857 601.795,235.703 607.858,228.543 C604.109,231.402 600.255,234.125 596.337,236.742 L589.183,241.361 z M447.56,245.2 C447.671,245.246 447.77,245.492 447.853,245.909 C464.801,240.977 481.608,235.519 498.481,230.232 C519.588,223.611 540.754,216.962 562.428,212.241 C573.269,209.939 584.227,208.097 595.284,207.247 C600.806,206.774 606.354,206.62 611.89,206.697 C615.273,206.745 618.649,206.966 622.015,207.277 C501.021,175.939 405.962,293.401 239.334,254.284 L239.394,254.301 C260.588,260.343 282.376,264.308 304.368,265.683 C326.355,267.111 348.47,266.032 370.3,263.038 C387.616,260.743 404.759,257.242 421.728,252.998 C431.209,242.3 446.169,243.347 447.56,245.2 M419.006,256.503 C403.081,260.453 386.975,263.732 370.69,265.946 C348.683,268.875 326.37,269.875 304.192,268.345 C282.025,266.829 260.015,262.886 238.757,256.458 C228.124,253.258 217.695,249.42 207.46,245.145 C207.362,245.102 207.264,245.063 207.167,245.02 C202.742,243.515 198.274,241.901 193.751,240.169 C208.146,246.922 222.934,252.814 238.099,257.571 C259.23,264.001 280.956,268.415 302.924,270.536 C324.889,272.681 347.054,272.566 369.035,270.558 C383.863,269.267 398.607,267.115 413.241,264.326 C415.467,261.266 417.428,258.641 419.006,256.503 M410.884,267.604 C397.125,270.199 383.254,272.214 369.296,273.479 C347.143,275.414 324.797,275.441 302.66,273.19 C280.537,270.923 258.602,266.532 237.422,259.715 C216.275,252.793 195.901,243.74 176.394,233.149 L175.639,232.712 C171.522,230.902 167.365,229.004 163.166,227.001 L176.107,234.419 C195.667,244.956 216.031,253.971 237.096,260.959 L253.018,265.794 L269.157,269.814 C271.836,270.542 274.57,271.011 277.292,271.53 L285.465,273.079 C290.889,274.249 296.417,274.784 301.902,275.577 C323.896,278.398 346.141,279.138 368.289,278.034 C380.904,277.455 393.489,276.269 406.013,274.587 C407.703,272.103 409.337,269.77 410.884,267.604 M236.068,268.325 L244.059,271.149 L248.053,272.56 C249.381,273.033 250.752,273.383 252.101,273.8 C257.519,275.397 262.908,277.084 268.333,278.648 L284.776,282.725 C286.141,283.087 287.522,283.378 288.911,283.637 L293.065,284.456 L301.374,286.095 C323.594,290.142 346.133,292.381 368.709,292.868 C377.317,293.089 385.932,293.053 394.539,292.767 C395.687,290.786 396.843,288.85 397.999,286.964 C388.085,287.763 378.146,288.255 368.19,288.381 C345.691,288.568 323.173,286.948 300.957,283.382 C278.757,279.791 256.78,274.45 235.669,266.657 C214.521,258.989 194.098,249.438 174.572,238.321 C162.073,230.925 150.002,222.861 138.335,214.258 C137.161,213.615 135.991,212.975 134.812,212.316 C135.936,213.622 137.419,215.151 139.228,216.859 C150.66,225.075 162.446,232.778 174.629,239.824 C194.256,251.079 214.862,260.554 236.068,268.325 M562.242,223.708 C541.061,230.155 520.132,237.451 499.022,244.246 C482.024,249.778 464.872,254.889 447.54,259.353 C447.279,261.826 446.917,264.543 446.429,267.441 C464.094,263.589 481.57,258.864 498.909,253.686 C520.201,247.291 541.229,240.005 562.188,232.52 C572.686,228.823 583.174,225.09 593.715,221.505 C602.65,218.491 611.632,215.598 620.724,213.097 C621.634,212.04 622.5,211.063 623.323,210.175 C613.531,211.087 603.846,212.803 594.252,214.907 C583.493,217.505 572.799,220.362 562.242,223.708 M562.742,213.645 C541.223,218.631 520.188,225.502 499.174,232.381 C482.229,237.993 465.233,243.517 448.081,248.566 C448.138,250.527 448.065,253.274 447.797,256.592 C464.77,252.257 481.577,247.25 498.342,242.093 C519.505,235.567 540.524,228.508 561.833,222.328 C572.47,219.186 583.255,216.533 594.087,214.147 C603.779,212.197 613.568,210.701 623.424,210.064 C624.068,209.373 624.687,208.735 625.281,208.156 C624.458,207.926 623.639,207.71 622.819,207.493 C602.616,206.127 582.363,209.023 562.742,213.645 M388.456,303.948 C382.227,303.883 375.997,303.703 369.773,303.385 C341.723,301.797 313.787,297.658 286.521,290.869 C316.215,299.138 349.696,305.382 386.541,307.805 C387.168,306.506 387.808,305.223 388.456,303.948 M369.931,300.455 C376.59,300.818 383.261,301.018 389.933,301.091 C390.903,299.247 391.893,297.437 392.893,295.657 C384.813,295.922 376.725,295.98 368.642,295.802 C345.916,295.222 323.236,292.878 300.888,288.719 L292.531,287.035 L288.352,286.195 C286.956,285.929 285.568,285.632 284.195,285.261 L267.662,281.091 C262.211,279.491 256.784,277.798 251.354,276.133 C250,275.697 248.627,275.327 247.293,274.836 L243.292,273.369 L235.288,270.435 C214.056,262.362 193.456,252.615 173.906,241.059 C163.736,234.884 153.84,228.285 144.228,221.305 C152.341,228.163 164.427,236.915 180.163,246.228 C188.103,250.738 196.198,254.968 204.434,258.902 C214.768,263.844 225.29,268.395 236.001,272.455 C257.445,280.484 279.44,287.082 301.877,291.684 C324.297,296.325 347.067,299.284 369.931,300.455 M188.446,186.162 C188.728,185.701 189.003,185.224 189.268,184.735 C166.885,183.614 144.702,180.052 122.912,173.028 C117.553,171.301 110.401,169.473 102.592,167.842 C85.238,164.22 64.627,161.579 53.079,163.22 C71.109,161.945 106.263,169.131 122.912,174.496 C144.436,181.434 166.343,184.993 188.446,186.162 M244.553,183.132 C245.689,183.577 246.708,183.975 247.543,184.303 C391.029,169.394 535.924,90.946 633.048,207.742 C633.231,207.472 633.42,207.203 633.603,206.932 C535.803,88.353 389.287,168.995 244.553,183.132 M467.979,313.06 C468.775,312.954 469.563,312.844 470.354,312.735 C468.365,316.55 466.014,320.178 463.213,323.459 C458.687,328.843 452.936,333.258 446.455,335.819 C452.598,332.534 457.782,327.85 461.982,322.461 C464.071,319.755 465.946,316.883 467.559,313.866 C467.702,313.599 467.836,313.326 467.979,313.06" fill="#FFFFFE"/>
    <path d="M463.994,218.618 C461.564,218.618 459.588,216.642 459.588,214.213 C459.588,211.784 461.564,209.807 463.994,209.807 C466.424,209.807 468.4,211.784 468.4,214.213 C468.4,216.642 466.424,218.618 463.994,218.618 M452.613,307.898 C445.596,308.334 438.682,308.608 431.852,308.761 C433.19,306.536 434.425,304.264 435.563,301.97 C436.641,301.867 437.721,301.781 438.799,301.671 C461.705,299.298 484.477,295.247 506.635,288.914 C528.785,282.629 550.414,274.242 570.526,262.973 C573.773,261.097 576.981,259.146 580.141,257.12 C553.189,280.735 513.154,304.138 452.613,307.898 M463.213,323.459 C458.687,328.842 452.936,333.257 446.455,335.819 C452.598,332.534 457.781,327.85 461.982,322.462 C464.071,319.754 465.946,316.883 467.557,313.866 C467.702,313.599 467.836,313.326 467.979,313.06 C468.775,312.954 469.562,312.844 470.354,312.735 C468.364,316.55 466.013,320.178 463.213,323.459 M423.222,305.041 C417.689,313.551 411.047,321.465 402.981,327.726 C398.971,330.867 394.625,333.579 390.031,335.744 C385.411,337.842 380.584,339.491 375.615,340.319 C385.281,337.468 394.001,332.351 401.53,325.953 C405.285,322.731 408.783,319.211 411.95,315.406 C415.151,311.632 418.092,307.634 420.752,303.453 C426.135,295.131 430.503,286.137 433.857,276.781 C435.516,272.097 436.926,267.314 437.895,262.433 C438.423,259.997 438.786,257.534 439.025,255.05 C439.2,252.568 439.287,250.065 439.029,247.56 C440.149,252.493 439.872,257.646 439.309,262.663 C438.661,267.693 437.528,272.657 436.025,277.5 C433.049,287.2 428.693,296.47 423.222,305.041 M286.521,290.868 C313.787,297.659 341.723,301.797 369.773,303.385 C375.997,303.703 382.227,303.882 388.456,303.947 C387.808,305.223 387.168,306.506 386.541,307.805 C349.696,305.382 316.215,299.138 286.521,290.868 M171.665,191.105 C191.55,194.366 211.729,195.632 231.854,195.163 C251.98,194.668 272.06,192.695 291.964,189.564 C311.875,186.462 331.623,182.333 351.313,177.921 C371.025,173.595 390.697,168.989 410.518,164.965 C430.333,160.982 450.322,157.48 470.544,155.996 C490.73,154.463 511.172,154.788 531.146,158.366 C551.085,161.962 570.467,168.71 588.08,178.618 C579.115,173.967 569.797,170.026 560.231,166.861 C550.662,163.705 540.84,161.359 530.904,159.785 C511.031,156.523 490.756,156.454 470.728,158.247 C430.573,161.857 391.358,172.014 351.947,180.785 C332.212,185.116 312.385,189.173 292.368,192.201 C272.362,195.216 252.155,197.267 231.889,197.412 C211.636,197.608 191.353,196.085 171.422,192.517 C151.507,188.88 131.997,183.174 113.274,175.604 C132.232,182.554 151.754,187.961 171.665,191.105 M621.487,201.848 C615.895,200.222 610.213,198.952 604.467,198.115 C598.729,197.229 592.941,196.715 587.143,196.528 C575.545,196.185 563.929,196.962 552.451,198.679 C540.957,200.294 529.608,202.875 518.422,206.001 C512.825,207.563 507.275,209.299 501.788,211.219 C496.282,213.092 490.852,215.18 485.482,217.435 C495.974,212.367 506.947,208.312 518.106,204.922 C529.273,201.549 540.691,198.974 552.239,197.226 C563.804,195.614 575.514,194.819 587.19,195.4 C593.024,195.726 598.841,196.37 604.586,197.405 C610.319,198.488 615.996,199.906 621.487,201.848 M463.163,220.775 C464.409,221.281 465.813,221.432 467.229,221.384 C468.65,221.326 470.085,221.046 471.566,220.683 C470.35,221.598 468.903,222.235 467.359,222.522 C465.818,222.819 464.158,222.732 462.621,222.139 C461.105,221.535 459.727,220.363 459.096,218.834 C458.761,218.066 458.597,217.26 458.57,216.46 C458.283,215.767 458.12,215.009 458.12,214.213 C458.12,211.135 460.508,208.63 463.525,208.386 C463.301,208.332 463.077,208.277 462.851,208.239 C461.654,208.009 460.417,208.042 459.208,208.304 C457.993,208.57 456.823,209.079 455.611,209.716 C456.413,208.622 457.549,207.729 458.874,207.207 C460.195,206.665 461.689,206.548 463.105,206.794 C464.518,207.059 465.873,207.659 466.953,208.605 C467.445,209.034 467.886,209.562 468.213,210.142 C469.232,211.2 469.868,212.631 469.868,214.213 C469.868,217.451 467.233,220.088 463.994,220.088 C462.75,220.088 461.6,219.693 460.649,219.031 C461.326,219.814 462.196,220.403 463.163,220.775 M369.035,270.558 C347.054,272.566 324.889,272.681 302.924,270.534 C280.959,268.415 259.23,264.001 238.098,257.569 C222.933,252.812 208.146,246.92 193.752,240.169 C198.274,241.901 202.745,243.515 207.165,245.02 C207.264,245.063 207.362,245.104 207.46,245.145 C217.695,249.419 228.123,253.258 238.757,256.459 C260.015,262.886 282.025,266.828 304.194,268.346 C326.37,269.875 348.683,268.874 370.689,265.946 C386.976,263.732 403.081,260.453 419.006,256.502 C417.428,258.641 415.467,261.266 413.24,264.326 C398.607,267.115 383.863,269.267 369.035,270.558 M368.289,278.034 C346.141,279.137 323.896,278.4 301.902,275.577 C296.417,274.784 290.889,274.247 285.463,273.08 L277.292,271.53 C274.569,271.011 271.836,270.541 269.157,269.814 L253.018,265.794 L237.096,260.958 C216.031,253.971 195.668,244.955 176.108,234.417 L163.165,227.001 C167.364,229.002 171.521,230.904 175.639,232.712 L176.393,233.149 C195.9,243.74 216.277,252.793 237.422,259.715 C258.602,266.532 280.537,270.924 302.661,273.192 C324.797,275.442 347.143,275.414 369.296,273.479 C383.254,272.215 397.125,270.199 410.884,267.604 C409.337,269.77 407.703,272.102 406.013,274.588 C393.489,276.269 380.904,277.455 368.289,278.034 M368.159,285.448 C345.818,285.722 323.45,284.2 301.377,280.748 C279.302,277.308 257.511,271.947 236.415,264.536 C215.307,257.173 194.879,247.895 175.28,237.077 C164.191,230.833 153.452,224.004 142.979,216.775 C146.709,218.774 150.408,220.695 154.074,222.542 C156.373,224.104 158.653,225.697 161.069,227.07 L175.414,235.669 C194.9,246.507 215.27,255.797 236.384,263.092 L252.354,268.152 C257.745,269.602 263.179,270.903 268.59,272.284 C271.286,273.029 274.037,273.513 276.777,274.046 L285.003,275.64 C290.466,276.837 296.032,277.404 301.557,278.222 C323.705,281.156 346.118,281.988 368.43,280.964 C380.316,280.372 392.152,279.248 403.927,277.686 C402.584,279.708 401.218,281.815 399.842,283.998 C389.301,284.859 378.731,285.358 368.159,285.448 M368.709,292.868 C346.133,292.38 323.594,290.142 301.376,286.097 L293.067,284.456 L288.91,283.637 C287.522,283.378 286.141,283.088 284.776,282.725 L268.333,278.648 C262.909,277.084 257.519,275.398 252.102,273.8 C250.753,273.381 249.384,273.033 248.053,272.56 L244.059,271.149 L236.07,268.325 C214.861,260.554 194.255,251.081 174.63,239.824 C162.446,232.777 150.66,225.075 139.227,216.858 C137.418,215.151 135.936,213.621 134.812,212.316 C135.991,212.976 137.162,213.615 138.335,214.258 C150.002,222.861 162.074,230.924 174.572,238.321 C194.096,249.438 214.521,258.99 235.669,266.656 C256.78,274.45 278.757,279.79 300.956,283.382 C323.173,286.947 345.693,288.569 368.19,288.381 C378.146,288.255 388.085,287.765 397.999,286.964 C396.843,288.85 395.687,290.786 394.539,292.769 C385.932,293.053 377.317,293.09 368.709,292.868 M144.227,221.305 C153.84,228.286 163.737,234.885 173.906,241.059 C193.457,252.615 214.055,262.36 235.291,270.434 L243.29,273.369 L247.293,274.835 C248.627,275.325 250,275.696 251.352,276.131 C256.783,277.797 262.211,279.491 267.662,281.092 L284.193,285.261 C285.566,285.632 286.956,285.928 288.352,286.194 L292.53,287.035 L300.888,288.718 C323.236,292.879 345.916,295.221 368.642,295.802 C376.725,295.979 384.813,295.92 392.892,295.656 C391.893,297.436 390.903,299.247 389.933,301.09 C383.261,301.018 376.59,300.816 369.931,300.456 C347.067,299.284 324.297,296.325 301.877,291.684 C279.44,287.082 257.445,280.483 235.999,272.455 C225.29,268.397 214.77,263.844 204.434,258.902 C196.199,254.968 188.102,250.738 180.162,246.228 C164.427,236.915 152.343,228.163 144.227,221.305 M611.89,206.697 C606.354,206.62 600.806,206.774 595.284,207.246 C584.227,208.097 573.269,209.939 562.428,212.241 C540.754,216.961 519.588,223.611 498.481,230.232 C481.608,235.518 464.801,240.977 447.853,245.91 C447.77,245.491 447.671,245.246 447.56,245.2 C446.169,243.347 431.208,242.299 421.728,252.997 C404.759,257.242 387.616,260.742 370.3,263.038 C348.47,266.033 326.355,267.112 304.368,265.683 C282.377,264.309 260.59,260.343 239.394,254.302 L239.333,254.284 C405.962,293.399 501.021,175.939 622.015,207.277 C618.649,206.966 615.273,206.745 611.89,206.697 M585.629,252.154 C580.506,255.575 575.211,258.741 569.825,261.713 C549.701,272.658 528.117,280.753 506.029,286.739 C483.393,292.86 460.239,296.945 436.902,299.155 C438.05,296.651 439.093,294.129 440.029,291.614 C461.412,288.641 482.612,284.258 503.316,278.15 C525.11,271.751 546.432,263.699 566.83,253.709 C569.361,252.424 571.858,251.071 574.374,249.756 L578.139,247.77 C579.396,247.111 580.6,246.354 581.832,245.652 L589.185,241.359 L596.337,236.742 C600.255,234.125 604.109,231.4 607.858,228.543 C601.795,235.703 594.489,243.855 585.629,252.154 M609.244,226.898 C595.889,236.93 581.207,245.159 566.2,252.415 C545.765,262.1 524.452,269.875 502.695,275.979 C482.467,281.649 461.849,285.928 441.039,288.789 C441.938,286.177 442.729,283.586 443.429,281.043 C462.866,277.542 482.092,272.864 500.973,267.149 C522.473,260.622 543.575,252.834 564.197,243.959 C582.041,236.09 599.579,227.521 616.591,218.02 C614.376,220.704 611.939,223.686 609.244,226.898 M616.986,217.54 C579.747,237.153 540.67,253.23 500.33,264.984 C481.838,270.312 463.107,274.839 444.174,278.222 C444.865,275.472 445.444,272.798 445.929,270.239 C464.027,266.258 481.93,261.384 499.573,255.844 C520.843,249.169 541.814,241.634 562.679,233.873 C581.865,226.721 600.964,219.312 620.538,213.31 C619.424,214.607 618.241,216.025 616.986,217.54 M620.724,213.097 C611.632,215.598 602.65,218.491 593.715,221.505 C583.174,225.09 572.685,228.823 562.188,232.521 C541.229,240.005 520.201,247.289 498.909,253.686 C481.57,258.863 464.094,263.589 446.429,267.441 C446.917,264.543 447.279,261.825 447.54,259.352 C464.872,254.887 482.024,249.776 499.022,244.247 C520.132,237.451 541.061,230.156 562.242,223.708 C572.799,220.362 583.493,217.505 594.252,214.907 C603.846,212.803 613.531,211.087 623.323,210.175 C622.5,211.064 621.634,212.041 620.724,213.097 M625.281,208.156 C624.688,208.735 624.068,209.373 623.424,210.064 C613.568,210.701 603.779,212.198 594.087,214.147 C583.255,216.534 572.47,219.187 561.833,222.328 C540.524,228.508 519.505,235.567 498.34,242.094 C481.577,247.249 464.77,252.258 447.797,256.592 C448.065,253.272 448.139,250.525 448.081,248.565 C465.233,243.517 482.229,237.993 499.174,232.381 C520.188,225.502 541.223,218.631 562.742,213.646 C582.363,209.024 602.616,206.125 622.817,207.493 C623.639,207.71 624.458,207.925 625.281,208.156 M633.048,207.742 C535.924,90.945 391.029,169.394 247.543,184.302 C246.708,183.975 245.689,183.576 244.553,183.132 C232.757,178.514 206.392,168.206 199.424,165.57 C196.086,164.307 193.842,176.325 189.269,184.736 C189.003,185.225 188.729,185.7 188.445,186.162 C166.342,184.993 144.437,181.434 122.914,174.496 C106.264,169.129 71.109,161.945 53.079,163.22 C64.627,161.58 85.237,164.219 102.591,167.843 C100.466,148.269 79.812,117.154 98.1,102.181 C75.216,100.223 62.329,150.627 45.706,164.585 L45.677,164.608 C43.948,165.275 42.74,166.172 42.209,167.349 C24.399,180.753 -7.675,196.487 3.995,208.156 C25.642,179.621 73.942,204.66 93.645,189 C142.151,219.301 172.251,267.059 291.448,296.997 C325.398,305.527 356.063,310.907 383.865,313.608 C379.767,322.89 376.378,332.655 374.417,342.52 C399.381,342.018 416.103,330.571 427.209,315.696 C434.627,315.658 441.813,315.405 448.766,314.94 C447.116,322.336 446.076,330.034 446.184,337.571 C463.118,333.599 472.788,323.316 478.124,311.541 C555.495,298.578 600.804,256.883 633.603,208.4 C633.418,208.177 633.231,207.964 633.048,207.742" fill="#0B0B09"/>
  </g>
</svg>
